<?xml version="1.0" encoding="UTF-8"?><svg id="Where_is_found" xmlns="http://www.w3.org/2000/svg" viewBox="0 0 32 32"><defs><style>.cls-1{fill:#fff;}.cls-2{fill:#849cb8;}.cls-3{fill:#d9a261;}.cls-4{fill:#6e8299;}.cls-5{fill:#97507a;}.cls-6{fill:#283038;}.cls-7{fill:#2a323b;}.cls-8{fill:#566678;}.cls-9{fill:#484848;}.cls-10{fill:#475563;}.cls-11{fill:#495766;}</style></defs><g id="ic_wildbird_2"><path class="cls-7" d="M8.55,20.21c-1.38,.85-1.99,1.04-3.27,1.42s-3.31,.63-4.18,.75c-.39,.5,2.76,.43,2.76,.43,0,0-3.18,.38-3.24,.87,0,.12,2.71,0,2.71,0,0,0-2.61,.07-2.46,.17,.53,.42,4.2,.11,4.2,.11,0,0-2.09,.45-2.87,.42-.23,.43,4.66,.57,5.63-.32,0,0-.33,.55-1.33,.9-.13,.32,2.63,.28,4.96-.55,1.72-.63,2.42-.93,2.6-1.32-.41-.02-.85-.49-.85-.49,0,0-3.98,.1-4.68-.17-.57-.23-.25-.45-.25-.45,0,0-.75,.09-.98-.08-.37-.22,1.25-1.71,1.25-1.71Z"/><path class="cls-4" d="M20.29,26.01s.06-1.18-.3-1.77c0,0,4.19-.78,6.06-3.43,.77-1.09,1.21-1.98,1.55-2.97,0,0-.33,.52-1.25-.36-1.35-1.25-1.39-4.31-2.48-5.6-1.09-1.29-2.87-.88-2.88-.87-2.26,1.54-4.06,1.74-8.88,6.36-1.51,1.48-1.93,2.94-1.55,3.61,.13,.24,.77,.23,.95,.25,.4,.36,1.34,.64,1.69,.85s.09,.35,.09,.35c0,0,.68,.76,1.61,.62,0,0,1.74,1.87,2.46,1.66,0,0-.25,.31,.54,.99s.93-.04,.93-.04c0,0,.41,.87,.87,.85,.45-.02,.6-.5,.6-.5Z"/><path class="cls-8" d="M27.91,17.29c.82-1.79,1.08-3.56,.63-6-.55-2.69-.23-3.37,.06-3.62s1.57-.44,2.26,.11c0,0-.26-.67-.57-1,0,0-.12-.55-.48-.76,0,0-.67-2.22-2.64-2.22s-2.47,.7-3.08,1.85-.48,3.47-2.78,5.06c-.44,.3,1.57-.4,2.73,1.03s1.12,4.76,2.86,5.97c.74,.42,.95-.28,1.01-.42Z"/><path class="cls-2" d="M30.28,6.78s-.18-.23-.35-.09-.41,.19-.53-.07,.13-.57,.4-.6c.38,.22,.48,.76,.48,.76Z"/><path class="cls-6" d="M30.76,7.66s-.08-.21-.19-.39-.24-.37-.31-.44c-.15-.15-.27-.13-.38-.04s-.26,.09-.38,.02-.13-.13-.13-.13c0,0,.07,.26,.11,.35s.2,.32,.35,.32c.28,.02,.61,.11,.94,.31Z"/><circle class="cls-3" cx="27.82" cy="5.44" r=".4"/><path class="cls-10" d="M28.43,7.77s.22-.79,.88-1.06c0,0,.11,.56,.36,.63,0,0-1-.03-1.24,.43Z"/><path class="cls-11" d="M15.17,14.67s-2.39,2.47-3.78,4.46,0,2.08,0,2.08c0,0-3.74,.84-3.85,.57-.13-.49,1.89-2.31,3.04-3.16,.56-.41,1.25-1.06,3.13-2.73,1.05-.92,1.46-1.22,1.46-1.22Z"/><path class="cls-11" d="M11.53,21.23s-.09,0-.13,.01c-.32,.12-1.75,.62-2.65,.76-1.03,.16,1.21,.88,3.3,.18,0,0-.42,.25-.82,.3s1.23,.09,1.83-.32c0,0-.28,.23-.53,.28-.12,.03,4.82-.07,7.74-1.17s4.04-3.31,4.04-3.42-1.21,2.16-4.36,3.01c-4.11,.95-7.87,.45-8.41,.37Z"/><path class="cls-5" d="M20.32,26.26s.96,.51,1.3,.84,1.98,.17,2.2,.82c0,0-1.3,.09-1.75,0,0,0,.22,.14,.23,.25s-1.22-.17-1.69-.45c0,0-.47,.22-1.27,.19,0,0-.12-.33,.39-.43,.4-.02,.61-.15,.71-.31-.31-.22-.4-.28-.59-.59,.22-.06,.47-.32,.47-.32Z"/><path class="cls-5" d="M18.84,25.94s.28,.43,.49,.63c.04,.04,.24,.36,.63,.37,.18,.12,.3,.24,.3,.24,0,0,.01,.12-.31,.19-.16,.03-.62,.06-.72,0,0,0-.52,.26-1.33,.23,0,0-.12-.33,.39-.43,.4-.02,.61-.15,.71-.31-.31-.22-.58-.54-.78-.85,.32,.21,.62-.06,.62-.06Z"/><path class="cls-7" d="M14.24,23.13s.4,.1,.58,.04c0,0,.29,.41,.46,.48,0,0-.22,.19-.71,.06,0,0-.25,.32-1.04-.01,0,0,.58-.18,.71-.57Z"/><path id="Tracciato_16" class="cls-9" d="M27.82,5.15c-.18,0-.32,.14-.32,.32s.14,.32,.32,.32c.18,0,.32-.14,.32-.32,0-.18-.14-.32-.32-.32h0Z"/><path id="Tracciato_17" class="cls-1" d="M27.93,5.25c-.06,0-.11,.05-.11,.11s.05,.11,.11,.11,.11-.05,.11-.11-.05-.11-.11-.11h0Z"/></g></svg>