<?xml version="1.0" encoding="UTF-8"?><svg id="Where_is_found" xmlns="http://www.w3.org/2000/svg" viewBox="0 0 32 32"><defs><style>.cls-1{fill:#b5b5b5;}</style></defs><g id="ic_goat"><path class="cls-1" d="M4.27,14.49s.5,.46,1.5,.42,1.41-.21,1.41-.21c0,0,1.91-2.37,4.16-2.25s4.07,.42,4.07,.42c0,0,2.83,.46,3.53-2.04s1.4-3.66,1.4-3.66c0,0,0-1.14,1.08-1.55v-.18s-4.65-1.31-5.68,4.55c0,0-1.14-6.98,5.95-5.65,0,0-3.1-3.01-5.88,1.5,0,0,1.62-5.71,6.57-2.48,0,0,.42-.61,1.06-.51,0,0-.34,.09-.51,.32,0,0,.46-.4,1.16-.31,0,0-.44,.09-.57,.25,0,0,.8-.51,1.21,.09,0,0-.05-.05-.22-.02,0,0,.43,.06,.43,.51s2.45,.85,2.45,.85c0,0,1.33,.19,1.61,1.52,.04,.22-.87,.79-.87,.79,0,0-1.63,1.81-.89,3.64,0,0-.58-.25-.67-1.06,0,0,.04,.5,.21,.77,0,0-.74-.22-.64-.92,0,0-.08,.35,.05,.65s-.74-.14-.6-1.38c.07-.68-.21,.46-.04,.85s-.65-.27-.57-1.75c0,0-.31-.09-.51,.12,0,0-.65,.88-.2,3.92s.67,5.11-1.25,7.52-5.07,2.49-5.07,2.49l.07,2.24s.14,.64-.39,1.32c0,0-.37,2.24-.12,3.27,0,0,.78,1,.62,1.36s-1.15,.47-1.15,.47c0,0-.91-.4-.97-.91s.15-1.03,.15-1.03c0,0,.36-3.93,.3-4.36s-.66-1.27-.55-2.27c0,0-2.95,0-5.53-.37-.78-.11-2.37-.01-2.37-.01,0,0-.67,1.72-2.11,2.34,0,0,.04,.93-.61,2.3s-.3,2.22-.3,2.22l.55,.93s.64,1.32-.61,1.16-1.15-.14-1.16-1.11,.01-1.69,.25-2.42,.18-1.94,.18-1.94c0,0,.13-2.02,.23-2.77s1.36-3.83,1.36-3.83c0,0-.02-.95,.27-1.71,0,0-1.58-.16-1.79-2.12Z"/><path class="cls-1" d="M20.83,21.1s1.9-.84,2.22-1.6c0,0-.12,1.89-.29,2.2,0,0,0,2.27-.15,2.6-.18,1.94-.04,2.1-.04,2.1,0,0,.23,.85,.83,1.48s.77,1.04,.56,1.14-.91,.35-1.53,.19-.55-1-.55-1l-.33-.64s-.08-1.93,.02-2.79-.73-1.85-.75-3.68Z"/><path class="cls-1" d="M9.34,21.6s.98-.08,1.97,.32c0,0-.5,.77-.94,1.11,0,0,.02,1.62,.07,1.75s.38,1.22,.36,1.56,1.04,1.52,1.04,1.52c0,0,.8,.75,.58,1.07s-1.47,.29-1.53,.28-.4-.59-.28-.76c0,0-.6-.38-.76-.65s-.3-1.84-.23-2.11-1.15-1.91-1-2.55,.34-1.25,.7-1.54Z"/></g></svg>