<?xml version="1.0" encoding="UTF-8"?><svg id="Complications" xmlns="http://www.w3.org/2000/svg" viewBox="0 0 32 32"><defs><style>.cls-1{fill:#fff;}.cls-2{fill:#fed4c2;}.cls-3{fill:#424242;}.cls-4{fill:#60412d;}</style></defs><g id="ic_mf"><path class="cls-2" d="M.82,16.29c.81-1.12,2.78-3.3,6.13-3.83,4.56-.72,7.36,3.71,7.36,3.71,0,0,.74,1.21-1.36,.87,0,0-4.78,1.68-11.25-.3,0,0-.32-.03-.87-.44Z"/><path class="cls-1" d="M1.98,15.77s.25-.16,.58-.4c.38-.28,2.35-.54,3.66-.57s2.35,.06,3.58,.15c1.13,.08,2.14,.09,2.2,.12,.49,.27,.91,.56,.93,.82,.04,.44-.06,.73-.06,.73,0,0-5.28,2.41-10.61-.43-.28-.15-.5-.27-.28-.42Z"/><path class="cls-4" d="M10.7,15.26c0,1.15-.93,2.08-2.08,2.08s-2.08-.93-2.08-2.08c0-.12,0-.23,.03-.35,0-.02,0-.05,.01-.07,.1-.03,.91-.01,1.87,.04s2,.14,2.24,.16c0,.04,0,.07,0,.11s0,.07,0,.11Z"/><path d="M9.75,15.26c0,.63-.51,1.14-1.14,1.14s-1.14-.51-1.14-1.14c0-.15,.03-.29,.08-.41,.15,.01,1.32,.07,2.16,.13,.03,.1,.04,.18,.04,.29Z"/><path class="cls-3" d="M2.72,15.27s.35-.15,1.18-.27c.7-.1,1.84-.19,2.37-.21,1.15-.04,2.05,.05,3.54,.16s2.17,.11,2.17,.11c0,0-1.76-1.33-4.45-1.14s-4.65,1.26-4.81,1.35Z"/><path class="cls-2" d="M31.18,16.29c-.81-1.12-2.78-3.3-6.13-3.83-4.56-.72-7.36,3.71-7.36,3.71,0,0-.74,1.21,1.36,.87,0,0,4.78,1.68,11.25-.3,0,0,.32-.03,.87-.44Z"/><path class="cls-1" d="M30.02,15.77s-.18-.38-.51-.62c-.19-.31-2.26-1.82-4.37-2.13s-3.01,.18-3.93,.76-2.1,1.69-2.14,2.12,.06,.73,.06,.73c0,0,5.28,2.41,10.61-.43,.28-.15,.5-.27,.28-.42Z"/><path class="cls-3" d="M29.21,14.86s-1.08-.88-2.42-1.38c-1.32-.46-1.94-.57-3.06-.57-1.59,.06-2.63,.93-2.63,.93,0,0,.88-1.16,3.36-1.05,2.68,.19,4.58,1.97,4.75,2.07Z"/><circle class="cls-4" cx="23.78" cy="15.3" r="2.17"/><circle cx="23.78" cy="15.33" r="1.16"/><circle class="cls-1" cx="8.89" cy="15.32" r=".32"/><circle class="cls-1" cx="23.54" cy="15.33" r=".32"/></g></svg>