<?xml version="1.0" encoding="UTF-8"?><svg id="Who_is_at_risk" xmlns="http://www.w3.org/2000/svg" viewBox="0 0 32 32"><defs><style>.cls-1,.cls-2{fill:#fff;}.cls-3{fill:#f0a89e;}.cls-4{fill:#80b0cc;}.cls-5{fill:#8cd49c;}.cls-2{font-family:Arial-Black, 'Arial Black';font-size:9.9px;}</style></defs><g id="ic_toddler"><g><path class="cls-4" d="M8.84,15.38c-.63,0-1.14-.51-1.14-1.14V2.77c0-.82,.67-1.5,1.5-1.5h11.47c.63,0,1.14,.51,1.14,1.14V14.24c0,.63-.51,1.14-1.14,1.14H8.84Z"/><path class="cls-1" d="M20.66,1.77c.36,0,.64,.29,.64,.64V14.24c0,.36-.29,.64-.64,.64H8.84c-.36,0-.64-.29-.64-.64V2.77c0-.55,.45-1,1-1h11.47m0-1H9.19c-1.1,0-2,.9-2,2V14.24c0,.91,.74,1.64,1.64,1.64h11.82c.91,0,1.64-.74,1.64-1.64V2.42c0-.91-.74-1.64-1.64-1.64h0Z"/></g><g><rect class="cls-3" x="1.15" y="16.73" width="14.11" height="14.11" rx="1.5" ry="1.5"/><path class="cls-1" d="M13.75,17.23c.55,0,1,.45,1,1v11.11c0,.55-.45,1-1,1H2.64c-.55,0-1-.45-1-1v-11.11c0-.55,.45-1,1-1H13.75m0-1H2.64c-1.1,0-2,.9-2,2v11.11c0,1.1,.9,2,2,2H13.75c1.1,0,2-.9,2-2v-11.11c0-1.1-.9-2-2-2h0Z"/></g><g><rect class="cls-5" x="16.59" y="16.73" width="14.11" height="14.11" rx="1.5" ry="1.5"/><path class="cls-1" d="M29.19,17.23c.55,0,1,.45,1,1v11.1c0,.55-.45,1-1,1h-11.1c-.55,0-1-.45-1-1v-11.1c0-.55,.45-1,1-1h11.1m0-1h-11.1c-1.1,0-2,.9-2,2v11.1c0,1.1,.9,2,2,2h11.1c1.1,0,2-.9,2-2v-11.1c0-1.1-.9-2-2-2h0Z"/></g><text class="cls-2" transform="translate(10.98 11.52)"><tspan x="0" y="0">A</tspan></text><text class="cls-2" transform="translate(4.61 27.37)"><tspan x="0" y="0">B</tspan></text><text class="cls-2" transform="translate(19.92 27.37)"><tspan x="0" y="0">C</tspan></text></g></svg>