<?xml version="1.0" encoding="UTF-8"?><svg id="Who_is_at_risk" xmlns="http://www.w3.org/2000/svg" viewBox="0 0 32 32"><defs><style>.cls-1{fill:#e3a36f;}.cls-2{fill:#fff;}.cls-3{fill:#ffc08c;}.cls-4{fill:#80b0cc;}.cls-5{fill:#987099;}.cls-6{fill:#cb95cc;}.cls-7{fill:#608499;}</style></defs><g id="ic_young"><path class="cls-2" d="M4.97,.75H13.18c.45,0,.82,.36,.83,.82v3.46c0,.39,.32,.7,.71,.7l5.88-.26c.47,0,1.01,.38,1.01,.84l.05,1.35c0,.45,.37,.82,.82,.82l4.7-.02c.55,0,.99,.44,.99,.99V29.88c-.01,.54-.45,.98-.99,.99-3.74,.01-17.78-.23-21.68-.24-.59,0-1.05-.46-1.05-1.05,0-4.62-.51-23.64-.52-27.81,0-.57,.46-1.03,1.03-1.03Z"/><rect class="cls-6" x="5.36" y="2.19" width="7.43" height="27.69" rx=".49" ry=".49"/><path class="cls-5" d="M11.47,25.63H6.68l-.51-.51V7.07l.51-.51h4.8l.51,.51V25.13l-.51,.51Z"/><rect class="cls-3" x="21.72" y="9.53" width="5.46" height="20.35" rx=".49" ry=".49"/><path class="cls-1" d="M22.43,10h2.34V29.47h-2.34c-.15,0-.26-.12-.26-.26V10.26c0-.14,.12-.26,.26-.26Z"/><rect class="cls-4" x="13.54" y="6.97" width="7.31" height="22.91" rx=".49" ry=".49" transform="translate(-.64 .62) rotate(-2.03)"/><path class="cls-7" d="M20.21,27.07l-5.75,.2c-.11,0-.2-.08-.2-.19v-.25c-.01-.11,.07-.2,.35-.21l5.75-.2c-.06,0,.03,.09,.03,.2v.25c.01,.11-.07,.2-.18,.2Z"/><rect class="cls-7" x="14.29" y="20.13" width="6.15" height="6.15" rx=".14" ry=".14" transform="translate(-.81 .63) rotate(-2.03)"/><circle class="cls-7" cx="16.92" cy="9.79" r="1.04"/></g></svg>