<?xml version="1.0" encoding="utf-8"?>
<!-- Generator: Adobe Illustrator 25.2.1, SVG Export Plug-In . SVG Version: 6.00 Build 0)  -->
<svg version="1.1" id="Layer_1" xmlns="http://www.w3.org/2000/svg" xmlns:xlink="http://www.w3.org/1999/xlink" x="0px" y="0px"
	 viewBox="0 0 56.5 72" style="enable-background:new 0 0 56.5 72;" xml:space="preserve">
<style type="text/css">
	.st0{fill:#FFFFFF;}
</style>
<path class="st0" d="M51.1,18.9c-2.1,4.6-8.8,6-14.9,3.2c-6.1-2.8-9.3-8.8-7.1-13.4c2.1-4.6,10.9-6.5,13.7-0.9
	C48.5,6.1,53.3,14.3,51.1,18.9 M16.9,58l-3.2,6.9l-5.4-2.5l0-0.1l2.2-0.5C13,61.2,15.4,60.1,16.9,58 M55.5,21.2
	C58.6,14.6,54.2,6,45.6,2s-18-1.8-21.1,4.8c-2.7,5.9,1.1,13.6,7.8,18L17.6,56.4c0.9-3-0.4-5.7-3.9-7.4c-2.4-1.1-4.9-1.3-6.6-1
	l-0.3,3.9c1.2-0.2,2.8-0.3,4.2,0.3c1.7,0.8,2.1,2,1.5,3.2c-0.8,1.7-3.3,2.6-8.1,4l-3.2,0.9L0,63.2l12,5.6c-0.4,1.1-0.3,2.2,1,2.8
	l0.5,0.2c1.5,0.7,2.5-0.1,3.1-1.3l20.3-43.6C44.5,29.1,52.8,27.1,55.5,21.2"/>
</svg>
