<?xml version="1.0" encoding="utf-8"?>
<!-- Generator: Adobe Illustrator 25.2.1, SVG Export Plug-In . SVG Version: 6.00 Build 0)  -->
<svg version="1.1" id="Layer_1" xmlns="http://www.w3.org/2000/svg" xmlns:xlink="http://www.w3.org/1999/xlink" x="0px" y="0px"
	 viewBox="0 0 56.5 72" style="enable-background:new 0 0 56.5 72;" xml:space="preserve">
<style type="text/css">
	.st0{fill:#FFFFFF;}
</style>
<path class="st0" d="M49.9,18.9c-2.1,4.6-8.8,6-14.9,3.2C29,19.3,25.8,13.2,28,8.7c2.1-4.6,10.9-6.5,13.7-0.9
	C47.4,6.1,52.1,14.3,49.9,18.9 M13.3,51.9c-0.6,1.2-1.2,2.3-1.7,3.3l-1.4,2.9l-3.1-1.4l0.1,0l2.8-2.2c1.2-0.9,2.2-1.8,3.2-2.7
	L13.3,51.9z M54.3,21.2C57.4,14.6,53,6,44.4,2c-8.5-4-18-1.8-21.1,4.8c-2.7,5.9,1.1,13.6,7.8,18L14.6,60.3l0,0l4.5-9.7l-5.9-2.8
	L2.6,55.2l-1.4,3l7.4,3.4l-1.8,3.8l4.4,2.1l1.8-3.8l0,0l-2.1,4.4l-0.1,0.1c-0.6,1.3-0.5,2.5,1,3.2l0.5,0.2c1.5,0.7,2.5-0.1,3.1-1.3
	l20.3-43.6C43.3,29.1,51.6,27.1,54.3,21.2"/>
</svg>
