<?xml version="1.0" encoding="utf-8"?>
<!-- Generator: Adobe Illustrator 25.2.1, SVG Export Plug-In . SVG Version: 6.00 Build 0)  -->
<svg version="1.1" id="Layer_1" xmlns="http://www.w3.org/2000/svg" xmlns:xlink="http://www.w3.org/1999/xlink" x="0px" y="0px"
	 viewBox="0 0 56.5 72" style="enable-background:new 0 0 56.5 72;" xml:space="preserve">
<style type="text/css">
	.st0{fill:#FFFFFF;}
</style>
<path class="st0" d="M50.9,18.9c-2.1,4.6-8.8,6-14.9,3.2c-6.1-2.8-9.3-8.8-7.1-13.4c2.1-4.6,10.9-6.5,13.7-0.9
	C48.3,6.1,53,14.3,50.9,18.9 M17.8,55.6l-2.8,6c-0.1-1.4-0.9-2.7-2.1-3.5l0-0.1C15.3,58.3,16.9,57.4,17.8,55.6 M55.3,21.2
	C58.4,14.6,54,6,45.4,2c-8.5-4-18-1.8-21.1,4.8c-2.7,5.9,1.1,13.6,7.8,18L17.9,55.4c1-2.4-0.3-5.2-4-7c-2.4-1.1-4.8-1.5-6.2-1.3
	L7,50.9c0.9,0,2.6,0.1,4.1,0.7c1.5,0.7,2,1.6,1.6,2.5c-0.5,1.2-2.2,0.8-3.4,0.3l-1.7-0.8L6.1,57l1.8,0.8c1.6,0.7,2.7,2.1,2.1,3.4
	c-0.6,1.2-1.9,1.3-3.6,0.5c-1.6-0.8-3-2.2-3.5-2.9L0.2,62c0.7,1.1,2.4,2.6,4.7,3.7c3.3,1.5,6.2,1.5,8.1,0.1l-1.1,2.4l-0.1,0.1
	c-0.6,1.3-0.5,2.5,1,3.2l0.5,0.2c1.5,0.7,2.5-0.1,3.1-1.3l20.3-43.6C44.3,29.1,52.6,27.1,55.3,21.2"/>
</svg>
