<?xml version="1.0" encoding="utf-8"?>
<!-- Generator: Adobe Illustrator 25.2.1, SVG Export Plug-In . SVG Version: 6.00 Build 0)  -->
<svg version="1.1" id="Layer_1" xmlns="http://www.w3.org/2000/svg" xmlns:xlink="http://www.w3.org/1999/xlink" x="0px" y="0px"
	 viewBox="0 0 56.5 72" style="enable-background:new 0 0 56.5 72;" xml:space="preserve">
<style type="text/css">
	.st0{fill:#FFFFFF;}
</style>
<path class="st0" d="M50.7,18.9c-2.1,4.6-8.8,6-14.9,3.2c-6.1-2.8-9.3-8.8-7.1-13.4c2.1-4.6,10.9-6.5,13.7-0.9
	C48.1,6.1,52.8,14.3,50.7,18.9 M17.9,55l-2,4.3c-0.1-0.5-0.1-1-0.4-1.5c-0.8-1.5-2.4-2.8-4.2-3.6c-0.3-0.1-0.6-0.3-1-0.4l1.1-1.7
	L17.9,55z M55.1,21.2C58.2,14.6,53.8,6,45.2,2c-8.5-4-18-1.8-21.1,4.8c-2.7,5.9,1.1,13.6,7.8,18L19.7,51.1L10,46.6l-5.4,8.7
	c0.7,0.3,1.4,0.5,2.3,0.9c3.4,1.6,4.3,3.1,3.6,4.6c-0.8,1.6-2.7,1.3-4.1,0.7c-1.5-0.7-2.9-1.9-3.5-2.6L0.4,62c0.8,1,2.4,2.2,4.5,3.2
	c3.3,1.5,6.2,1.2,8.2,0l-1.4,3l-0.1,0.1c-0.6,1.3-0.5,2.5,1,3.2l0.5,0.2c1.5,0.7,2.5-0.1,3.1-1.3l20.3-43.6
	C44.1,29.1,52.4,27.1,55.1,21.2"/>
</svg>
