<?xml version="1.0" encoding="utf-8"?>
<!-- Generator: Adobe Illustrator 25.2.1, SVG Export Plug-In . SVG Version: 6.00 Build 0)  -->
<svg version="1.1" id="Layer_1" xmlns="http://www.w3.org/2000/svg" xmlns:xlink="http://www.w3.org/1999/xlink" x="0px" y="0px"
	 viewBox="0 0 56.5 72" style="enable-background:new 0 0 56.5 72;" xml:space="preserve">
<style type="text/css">
	.st0{fill:#FFFFFF;}
</style>
<path class="st0" d="M47.9,18.9c-2.1,4.6-8.8,6-14.9,3.2c-6.1-2.8-9.3-8.8-7.1-13.4C28,4.1,36.8,2.2,39.6,7.8
	C45.3,6.1,50,14.3,47.9,18.9 M52.2,21.2C55.3,14.6,50.9,6,42.4,2c-8.5-4-18-1.8-21.1,4.8c-2.7,5.9,1.1,13.6,7.8,18L16.7,51.5
	l-4.9-2.3L6,49.1L5.1,53l4,0.1l0.1,0L3.2,65.8l5.6,2.6c-0.6,1.2-0.5,2.5,1,3.2l0.5,0.2c1.5,0.7,2.5-0.1,3.1-1.3l20.3-43.6
	C41.3,29.1,49.5,27.1,52.2,21.2"/>
</svg>
