<?xml version="1.0" encoding="UTF-8"?>
<svg id="Complications" xmlns="http://www.w3.org/2000/svg" viewBox="0 0 32 32">
  <defs>
    <style>
      .cls-1 {
        fill: #fff;
      }

      .cls-2 {
        fill: #b63a3e;
      }

      .cls-3 {
        fill: #d99998;
      }

      .cls-4 {
        fill: #bf5557;
      }

      .cls-5 {
        fill: #ca8d8d;
      }

      .cls-6 {
        fill: #c5686a;
      }
    </style>
  </defs>
  <path class="cls-1" d="m21.41,28.71c1.1-.96,2.15-5.1-.56-8.38-.27-.33-.31-.79-.11-1.16.6-1.15,1.53-3.71-.26-6.51-.22-.34-.24-.76-.08-1.13.58-1.32,1.69-4.56-.12-7.03-.31-.42-.75-.73-1.24-.91-.6-.21-1.54-.47-2.76-.57-1.9-.17-3.24.13-3.38.15-.81.13-1.54.32-2.45.66-.42.15-.75.51-.88.94-.42,1.33-1.05,4.33.65,7.08.23.37.25.84.08,1.24-.63,1.53-1.51,5.46,1.14,9.03.11.14.14.32.08.49-.32.83-1.02,3.88.48,5.84.43.56,1.11.87,1.81.84l6.72-.23c.33-.01.64-.13.89-.35Z"/>
  <path class="cls-3" d="m20.95,27.39c-.24.22-.42.38-.75.4l-6.6.46c-.25.02-.51-.05-.7-.2-.29-.23-.73-1.55-.88-2.94-.1-.88.67-2.51.49-3.38s-.73-.38-1.63-2.93c-.9-3.47.03-4.26.29-5.14s.06-2.34-.23-2.71c-.87-1.14-1.3-3.1-.39-5.57,0,0,.92-1.85,4.54-1.82s4.02,1.57,4.02,1.57c.4.87,1.38,3.52-.42,6.45-.21.34-.35.71.54,1.49.3.48.57,1.67.67,2.91.09,1.12-.51,2.08-.8,2.28-1.3.67-.95,3.32.48,3.35,1.34.03,1.59,5.59,1.37,5.8Z"/>
  <path class="cls-5" d="m20.86,27.65c.84-.65.6-2.28.42-3.49-.2-1.03-.66-2.26-1.25-3.07s-.77-2.24-.5-2.54c.98-1.21.36-4.33-.16-5.35s-.41-1.45-.35-1.84.54-1.17.68-2.68c.15-1.59-.41-3.32-.67-3.73-.67-1.07-2.24-1.33-2.86-1.34,0,0,.53,2.21.38,3.98-.18,2.07-1.05,2.64-.88,4.81s1.25,1.7,1.8,3.57c.3,1.03-.88,1.38-.66,4.27s2.08,3.24,2.12,4.56-.16,3.1-.16,3.1c2-.07,1.95-.14,2.08-.24Z"/>
  <g>
    <circle class="cls-6" cx="18.57" cy="11.28" r="4.7"/>
    <circle class="cls-4" cx="18.57" cy="11.28" r="3.42"/>
    <circle class="cls-2" cx="18.57" cy="11.28" r="2.12"/>
  </g>
</svg>