<?xml version="1.0" encoding="UTF-8"?><svg id="Livello_2" xmlns="http://www.w3.org/2000/svg" viewBox="0 0 25.437646531 25.027060846"><defs><style>.cls-1{fill:#010101;}.cls-2{fill:#eae4d8;}.cls-3{fill:#e9e8e8;}.cls-4{fill:#fff;}.cls-5{fill:#7e5545;}.cls-6{fill:#9a6854;}.cls-7{fill:#906556;}.cls-8{fill:#735145;}.cls-9{fill:#858585;}.cls-10{fill:#e0ca8d;}.cls-11{fill:#c8b9ab;}.cls-12{fill:#dcd0c3;}.cls-13{fill:#202121;}.cls-14{fill:#161212;}.cls-15{fill:#452c26;}.cls-16{fill:#634237;}.cls-17{fill:#5c5553;}.cls-18{fill:#2a110c;}.cls-19{fill:#474647;}.cls-20{fill:#343130;}.cls-21{fill:#525252;}.cls-22{fill:#785144;}.cls-23{fill:#343434;}</style></defs><g id="Who_is_at_risk"><g id="ic_sheep_goat"><path class="cls-8" d="m19.5246947333.5894439265c-2.9461489183-1.9241676142-3.9117051752,1.4785304155-3.9117051752,1.4785304155,1.6587610451-2.6862025879,3.5031943852-.8912745705,3.5031943852-.8912745705.1183272633-.2201005243.2489961875-.4207933781.4085107901-.587255845Z"/><path class="cls-7" d="m18.9762176137,1.8827162193s-2.7669502524-.7816242198-3.3858909408,2.7092012631c0,0-.6784960565-4.1556293677,3.5426791088-3.3633865344-.1066581231.1987707173-.154352553.4184577324-.156788168.6541852713Z"/><path class="cls-22" d="m18.624490134,11.2079983871s1.1328285177-.499283239,1.3245330733-.9531686602c0,0-.0742728826,1.126472053-.1733033928,1.3121542595,0,0-.0043453992,1.3524920221-.0866516964,1.5473517212-.104573119,1.1574190874-.0247576275,1.2502601907-.0247576275,1.2502601907,0,0,.1361669515.5075313645.4951525508.8788957776s.4580161095.6189406885.3342279718.6808347573-.5433742097.2104398341-.909196014.1114093239-.3286853629-.5941830609-.3286853629-.5941830609l-.1980610203-.3837432268s-.0495152551-1.1512296805.0123788138-1.6587610451-.4332584819-1.1017144255-.4456372957-2.1910500371Z"/><path class="cls-22" d="m11.7790061196,11.5050899175s.5818042472-.0495152551,1.1759873081.1918716134c0,0-.2970915305.4580161095-.5570466196.6622665367,0,0,.0123788138.965547474.0433258482,1.0398203566s.2290080547.7241606055.216629241.9284110327.6189406885.9036534052.6189406885.9036534052c0,0,.4765843301.4456372957.3466067855.6375089091s-.8750038786.1733033928-.910991566.1671139859-.2402381146-.3527961924-.165965232-.4518267026c0,0-.3589855993-.2290080547-.4518267026-.3899326337s-.1794927997-1.0955250186-.1361669515-1.2564495976-.6870241642-1.1388508668-.5941830609-1.5164046867.2042504272-.7427288262.4146902613-.9160322189Z"/><path class="cls-6" d="m19.1329969568,1.2285292939c.1256886369-.2340235172.2601563932-.4342983177.4075292736-.5851110497,0,0,.2475723979-.3659124153.6313156248-.3040183465,0,0-.201847481.0541755144-.3043731856.1893230341,0,0,.2749552988-.2376732244.6897183766-.1864103721,0,0-.2609745209.0512628523-.340198929.1491282976,0,0,.4753464487-.3029168546.7223401917.0559231116,0,0-.0326218151-.0326218151-.1304872604-.0093205186,0,0,.2563142616.0372820744.2563142616.3029168546s1.4586611613.5052497793,1.4586611613.5052497793c0,0,.7725970764.0362837907.9376479266.8285278719-.0805110512.3717169503-.4964767128.5505205263-.4964767128.5505205263,0,0-.9734602059,1.0802092706-.5278229102,2.1695448822,0,0-.3466067855-.1485457652-.3961220406-.6313195022,0,0,.0247576275.2970915305.1237881377.4580161095,0,0-.4394478888-.1299775446-.3837432268-.5508572127,0,0-.0495152551.2104398341.0309470344.3899326337s-.4394478888-.0804622895-.3589855993-.8231911157c.0440775646-.4068698274-.1237881377.2723339029-.0247576275.5075313645s-.3899326337-.160924579-.3404173787-1.0398203566c0,0-.1856822065-.055704662-.3032809373.0742728826,0,0-.3899326337.5260995852-.1175987308,2.3334063955s.3961220406,3.0451881872-.7427288262,4.4811305845c-.8541381501,1.0769567979-2.1260612649,1.3740483284-2.7086391879,1.4552842937-.1761411363.024561513-.3073375562.1744769835-.3018511148.3522376844l.0313224556,1.0148475612s.0825254251.3796169556-.2310711904.7839915387c0,0-.2054913268,1.2329479607-.090234764,1.8716243808.009327849.0516888331.0324432789.0969819055.0632984652.1394872194.1154035545.158976979.3966502033.5735847148.3240278292.7452375991-.0907779676.2145661053-.6925584394.1005481122-.6925584394.1005481122,0,0-.537070395-.0592853996-.570080565-.3646294726s.0907779676-.6106881459.0907779676-.6106881459c0,0,.2117345111-2.3394840312.1784142602-2.5953128491-.0275201053-.2112960082-.2776548826-.5887391247-.3267076535-1.048511054-.0182217511-.1707925872-.1576528063-.301589706-.3293817497-.3049527495-.5806398843-.0113709263-1.8326234044-.0545782015-2.9636350848-.2187573164-.2067757261-.0295393894-.4478422062.0004672531-.6511191891.0426482904-.2658232984.055159725-.3891311147.4633596632-.5352325588.6921805304-.1970871461.308673552-.3619096027.4577180052-.7344762836.8252542513-.1806113331.1781726997-.3388108.4435472755-.5487940771.5859305184-.2152333274.1459431415-.3651750062.2909021236-.5322889921.8665169638-.2096342159.7220734103-.2610130562.8855293653-.2220896879,1.0221909155.0079283434.0278367406.019307682.0513239656.0341445539.076175726l.3097188978.5187791538s.3796169556.7839915387-.3631118706.6932135711-.788870465-.7369393198-.5977998336-1.4779205487c.1442573421-.5594370095.0877040027-.4122795219.1957308907-.9040903045.083263752-.3790723939.0703212253-.5453844178.1264609955-.9544667186.0063695487-.0464139708.1503190203-.256166556.1791911929-.2930613454.1612303479-.2060309012.7238995277-.9482156034.7710133433-1.3298865959.0328806597-.2663676004-.0971766204-.987397908-.2072564792-1.5249177122-.0939359181-.4586889633-.0670291018-.9325620128.0794174692-1.3772786907.0016104261-.004890407.0032253377-.0097820306.0048445737-.0146740551.0551062617-.1664866487-.0223096455-.3464782943-.1821934282-.4185316099-.2868778134-.129284517-.6876983041-.4392135511-.7655307648-1.1708386813,0,0,.2970915305.2723339029.8912745914.2475762754.3750621335-.0156275889.6120213135-.0605316613.7357843366-.0915255268.0662685464-.016595574.120651102-.0503224816.1658987468-.1015043529.2511000922-.2840318578,1.2593668931-1.3319185958,2.4158390068-1.267670145,1.3369118871.0742728826,2.4262474988.2475762754,2.4262474988.2475762754,0,0,1.6835186726.2723339029,2.1043983408-1.2131237494s.8335067938-2.1786712234.8335067938-2.1786712234c0,0,0-.676708486.643698316-.9242847614l.0000040816-.1050490398c.0004907582-.239512739.0463130364-.4602585195.156788168-.6541852713"/><path class="cls-5" d="m11.6192655738,11.5158640038c.0731995669-.1100618888.2405909729-.258620457.3928261101-.4605650267,0,0,.3129169943-.4097714522.3118490182-.613172353,0,0,.0823312477.3790344232.3566069253.5975636989.2702514788.2153229935,1.5679830774.3172063664,1.5679830951.3172063691.1100089642.0167796551.2215174899.0264618982.3325535635.0327974598.1002768763.005721657.2009037613.0077820867.3012769736.0033833362.0989009229-.004334229.2042593907-.0085274682.2938280869-.0548945885.0207283897-.0107304871.0405234123-.023198395.0596426348-.0365659835.0598549732-.0418488045.1240691109-.0806730481.1647604702-.1432406527.0461242941-.0709213619.0755659156-.1509520365.1045653347-.2299438157.0142891169-.0389222526.0200295834-.079040625.0352611775-.1176208815.0198653268-.0503166587.0445739142-.0987156528.0736279092-.1443461141.0276968738-.0434990481.0567912129-.0891481512.1010091808-.1171528642,0,0-.1048954207.1890668521-.1471789487.3694844634-.0160699157.0685680197-.0244303328.1390632048-.0435984034.2068442061-.0194760557.0688700801-.0468034424.1364357805-.0524450372.2084216929-.006075175.077518496.0112013891.154087149.0363351845.2269699383.0222263297.0644517423.0458075284.1302373194.0941863736.1803424768-.0323861481-.0335393058-.0726172927-.0626295181-.1184189036-.0842924421-.0544047573-.0257319798-.1317334515-.022430853-.1918716134-.0247576275-.04459611-.001725445-.0933073804-.007291458-.1473078839-.0061894069-.0303280937.0006189407-.0592656059-.0029464248-.0829380523-.0037136441-.0662586677-.0021474303-.1111736728-.0049712839-.168970808-.0049515255-.0718679333.0000245686-.0853717183-.0004866561-.1528769268-.0031300691-.0259294398-.0010153619-.0571694017-.0007307242-.0829758312-.0034500998-.0395864143-.0041714538-.0692110782-.002133119-.107087554-.0047819355-.0119369574-.00083479-.0524377663-.0030472917-.0644038748-.0030560799-.0638689109-.0000469076-.1267570892-.0096093513-.1886956962-.012815206-.0661951842-.0034261691-.1220441957-.0040681315-.1851242731-.0076688621-.1009609347-.005763042-.1763330931-.013380611-.2773534148-.0183768552-.0611823378-.0030259447-.1320122011-.0107384457-.1931498732-.0145166798-.0623907867-.003855675-.146767154-.0135718043-.2091579407-.0174274794-.0614410148-.0037969803-.1406118818-.0131861224-.2019011041-.0186315958-.0973469787-.0086491615-.1924063592-.0199001652-.2895867254-.0301296775-.05577876-.0058714484-.0850969648-.0103798058-.1409629987-.016260441-.0414113968-.0054838133-.0689287257-.0080384942-.1103401225-.0135223075-.0345981743-.0045815872-.0452880175-.0056695697-.0798861918-.0102511569-.0157660917-.0020877901-.0697878817-.0093406166-.0855537904-.0114297875-.0213094896-.0028237615-.042728197-.0080989799-.0643466664-.0089181954-.035929705-.0013639259-.0565954056-.0129787023-.1104432455-.0173112871-.0301040527-.0024221652-.0712119344-.0025571482-.1089673164-.0031760888-.0637796655-.0010455683-.2231571516.0116909383-.2865402482.0188688215-.0361598226.0040949558-.1548479304-.0000127043-.2483079743.0476457288l-.0859206193.0467325385Z"/><path class="cls-6" d="m22.9649876852,2.7252584825s-.9734602059,1.0802092706-.5278229102,2.1695448822c0,0-.3466067855-.1485457652-.3961220406-.6313195022,0,0,.0247576275.2970915305.1237881377.4580161095,0,0-.4394478888-.1299775446-.3837432268-.5508572127,0,0-.0495152551.2104398341.0309470344.3899326337s-.4394478888-.0804622895-.3589855993-.8231911157c.0440775646-.4068698274-.1237881377.2723339029-.0247576275.5075313645s-.3899326337-.160924579-.3404173787-1.0398203566c0,0-.1856755039-.0557019071-.303275718.0742763202-.0884919377.1966487886-2.4050788761.1692843267-2.453082302-.3651786555,0,0,.0000088207-.6767082743.6437071367-.9242845497l.0000040816-.1050490398c.0004907582-.239512739.0463130364-.4602585195.156788168-.6541852713"/><path class="cls-6" d="m19.1329969568,1.2285292939c.1256886369-.2340235172.2601563932-.4342983177.4075292736-.5851110497,0,0,.2475723979-.3659124153.6313156248-.3040183465,0,0-.201847481.0541755144-.3043731856.1893230341,0,0,.2749552988-.2376732244.6897183766-.1864103721,0,0-.2609745209.0512628523-.340198929.1491282976,0,0,.4753464487-.3029168546.7223401917.0559231116,0,0-.0326218151-.0326218151-.1304872604-.0093205186,0,0,.2563142616.0372820744.2563142616.3029168546s1.4586611613.5052497793,1.4586611613.5052497793"/><path class="cls-6" d="m22.9649876852,2.7252584825s-.9734602059,1.0802092706-.5278229102,2.1695448822c0,0-.3466067855-.1485457652-.3961220406-.6313195022,0,0,.0247576275.2970915305.1237881377.4580161095,0,0-.4394478888-.1299775446-.3837432268-.5508572127,0,0-.0495152551.2104398341.0309470344.3899326337s-.4394478888-.0804622895-.3589855993-.8231911157c.0440775646-.4068698274-.1237881377.2723339029-.0247576275.5075313645s-.3899326337-.160924579-.3404173787-1.0398203566c0,0-.1856755039-.0557019071-.303275718.0742763202-.0884919377.1966487886-2.4050788761.1692843267-2.453082302-.3651786555,0,0,.0000088207-.6767082743.6437071367-.9242845497,0,0,.8342684557.6236674562,1.8012385711.7071141928.3726355621.0304421397,0,0,.858094492.1267451382.2360357718.0348637438.4043745831.0664417122.9077796764-.0275732009"/><path class="cls-20" d="m20.7712486563,1.3123286415c-.2059514023-.1506697101-.1685912699-.1077209301-.2416142182-.1494847087v.0104409447c0,.1042821181-.1251640074.1981869558-.2816508488.1981869558-.1459822324,0-.244324874-.0974130778-.2711462399-.1981869558-.0045367857-.0170457198.0096280687-.050648317.0193836614-.067991593.0208818893-.0208818893.0431983423-.0362905251.0535756227-.0467314698.0208818893-.0208818893.0417637787-.031322834.0522047233-.0417637787.0938411734-.0625820037.1877460111-.052141059.2815871845-.0103772804.031322834.020818225.0625820037.0312591697.083463893.052141059.0483987921.0308065563.0457708408.0397251109.1014966839.0814180217.0645986482.0483313582.1799364883.1181510676.2026995381.1723488051Z"/><ellipse class="cls-15" cx="20.2675764405" cy="1.1719757785" rx=".1747597238" ry=".1325298579"/><rect class="cls-14" x="20.1531763218" y="1.1418024799" width=".2469937607" height=".0652436458" rx=".0326217964" ry=".0326217964"/><path class="cls-15" d="m22.6894107939,2.5701975631c.0191004193.0361514103.0397996341.0724412702.0704712569.1002379593.0672717843.0609662095.1729573147.0695496919.2603456527.0404810008s.1593622427-.0899409307.2223741762-.1551104295c.099962693-.103385496.184997575-.2241412331.2221442475-.3607562901.0039422547-.0144985359.0227500008-.0793759436.0145137748-.0920808802-.0083464171-.0128749182-.0410177535.0311369876-.0564494917.0280262999-.1961272745-.0395347135-.3975938308-.0358145516-.5965179841-.0505381324-.0999894116-.0074008216-.1977985132-.021404955-.2953604323-.0435901502-.0269095596-.0061191276-.0336708936-.0067278326-.0309201263.0216097404.0022986487.0236799842.0114835199.0486092585.0175671596.0716596813.0123070516.0466304309.0262592528.092856748.0418217788.1385734798.0352356374.1035087865.0787199605.2044109948.1300099879.3014877208Z"/><path class="cls-16" d="m23.0698619798,1.5429200475c-.1192001852-.0855708769-.2121047388-.1287309714-.2484269858-.1183323025-.0460117534.0131727166-.0735944448.0592050193-.094024302.1024862568-.0327279468.0693351046-.0724436112.1351598509-.1056079403.204306063-.0355371802.0740935054-.0551792206.1534744885-.0994160825.2226967502-.0155144909.0242772228-.025981046.0579301018-.0079409121.0803942186.0093389917.0116292137.0241594022.0171460153.0383409871.0217653318.2608904796.0849788495.5467284653.0390136405.8156828129.093316514.0195472862.0039466695.0393741695.0084471639.0592274338.006570867.019851989-.0018761765.0401833339-.011381531.0495379836-.028991237.0123057757-.0231650679-.0064336272-.0444332975-.0133303526-.0656866367-.0094297998-.0290594043-.0154025112-.0585637661-.0268606713-.0871518395-.0236412897-.0589849431-.0564876627-.1140579166-.0940009111-.1652172135-.0752935045-.1026827297-.1699011514-.1920145462-.2731810595-.2661567722Z"/><path class="cls-17" d="m8.4624673397,15.9676586342s.0143422095.1670440078.1390387865.1728346913.3173206281.0353056591.3173206281.0353056591l.2376732244.0450491732s.1367009395.0403889139.1972843104.0450491732.0730107291.0108739384.1320406802.0093205186c.0581551812-.0015303995.0701187115.0001907742.0704605176.0002421227.0078499206.0011792709.0161661112-.004533896.0253204803-.0020649996.0217975303.0058787059.0276648804.0302916456.0339279127.0490689681.019243898.057692092.0309334471.1291857124.0094182502.1873493899-.0147053681.0397541465-.0346047111.0777064196-.0602102474.1115462682-.035377323.0467540751-.0821527801.0842732214-.1392695756.0999131867-.0570361411.0156178802-.1180587961.0268251235-.1773752851.02299256-.0713809894-.0046120796-.238614214-.0244506402-.3023382735-.0332386422s-.2549390162-.0353204208-.3120186206-.0614346899-.1172312748-.0603394578-.1343188923-.1074885458-.0459040131-.014585501-.0396812641-.2746527169c.005894583-.2463521814.0027273683-.2997921166.0027273683-.2997921166Z"/><path class="cls-17" d="m12.5506589562,15.7387426729s.0232356547.062737058.1379840635.0365316319.2954439826-.0535957294.2954439826-.0535957294l.2243980399-.0283031547s.1314860228-.0070652012.1875448746-.0186216884.0684370922-.0105811171.1220397096-.0257195231.0643398806-.01673682.0643398806-.01673682c0,0,.0270094814-.0075007867.0483455742.0207758439s.0236803862.0289878599.0337868799.0559231116.0112903338.0694816907.0044975312.0897099916c-.0079716344.0237387465-.0130600085.0399427311-.0353135979.0733492107-.0211836635.0318003362-.0490149659.0507517585-.0795463186.0668961545s-.108707901.051386016-.1746110655.0655614183-.2218129831.0416372822-.2814276571.0513197841-.2385258841.0386330867-.2949743867.0356967221-.1019602882-.0129302611-.1254344126-.0388391578-.0210990381-.0048193077-.0821239998-.1652726193-.0449490981-.1486751758-.0449490981-.1486751758Z"/><path class="cls-17" d="m15.7467204174,16.0917252311s.0170121767.0958559211.1555810585.1003471333.3525836191.0260883885.3525836191.0260883885l.2640504382.0327994939s.1518450863.0291832238.2191648133.0326814665.0811190746.0079628275.1467240452.0070282619.0783133095.0003793112.0783133095.0003793112c0,0,.0381623189-.0132106921.0539147032.0223244362s.020148303.0290302871.0235197462.0600372468c.0033714432.0310069597.0068083476.0439447889-.0167113986.1039820357-.021032944.053689357-.0367128156.0567421798-.0747136253.0789071264s-.0711385761.0394902921-.1107782868.0478962573-.1392970001.0235478538-.2186165914.0200523936-.2651346935-.0181223999-.3359370634-.0245715163-.2832567055-.0259166125-.3466424738-.044694128-.1301704719-.0433443731-.1490724184-.0769957904-.0225678411-.0109144497-.0435858399-.1958512088.0022059645-.1904109077.0022059645-.1904109077Z"/><path class="cls-17" d="m19.3156609363,15.7785139812s.0344393167.0864065677.164967712.0638354505.3349575464-.0437132498.3349575464-.0437132498l.2534126352-.0203276375s.1477219746-.0020316582.2113897933-.0117654968.0774426651-.0082225134.1386494795-.021772869.073352026-.0147763877.073352026-.0147763877c0,0,.033156451-.0197349451.0547644898.0104754921.0182239717.0254784491.0339842725.0435757621.0398008499.0758943708.0045004503.0250057925.0059140275.0509134694.0004164357.0757191017-.008732304.0394009386-.0344294155.0733956785-.0653263629.0993586812-.0778870751.0654491883-.1874369202.1007197893-.2865862853.1166785209-.0748957088.0120549975-.2515913436.0342706702-.3190880652.0419162384-.0674967244.0076455686-.2700543017.0304789761-.3329932527.025155709s-.1301769163-.0154069681-.1543656645-.0432428761-.0232258459-.0058523386-.0786252231-.1748389685-.0347261141-.1785960792-.0347261141-.1785960792Z"/><path class="cls-5" d="m18.9841543259,1.7111721267c-.0281928345.2954804793.1488110362.5782754749.386113828.7509539146.2648323179.1927108981.5665829119.2711933362.8563671673.4229987572.1682372587.0881322336.4608433236.2818277401.5127291533.4438082105-.0323043295.045666859-.8993407922-.3881566603-1.2599244719-.6298217461-.1854367006-.124280576-.533714614-.4815071068-.505076325-.7055627563"/><path class="cls-18" d="m23.206910242,1.904831188c-.0154408999-.0081408328-.030772024-.0173103905-.0407753691-.030272914-.0100033421-.0129625196-.0136709378-.030565941-.0048246371-.0441330734.0053039543-.0081343997.1807985901.0807399352.1916142227.0958876968.0408143455.0571622577-.1226970778-.0091883188-.1460142165-.0214817094Z"/><path id="Tracciato_67-2" class="cls-4" d="m.689153353,12.379223888s.6092251127-.4272100759,1.0136270737-.9523163783.2744979855-.6558567911.6039881154-1.1470878738c-.0541548124-.0146220931-.8055574244-.342430214,0-1.2348773565s.6052514583-.6392497071.6052514583-.6392497071c0,0-.3745591558,1.0806595376-.2158333326,1.4291677534,0,0,.8498478786-.5032658935,1.6974041117-.399831524.0461487435-.0339358161-.2786479203-.94611902-.2786479203-.94611902l.6558586274.6503810807s.3642100265.3360510665.3400228846.7955131133l.7070019826.8484027464,2.7268596977.8445521211,4.3716220706.7060985455s1.0488317415.1707037102,2.5060390984.0799670393,1.5949337758-.0767774656,2.6339011591,0,2.4358794934.0700384122,2.6326378161,1.6356710778.3343084612,3.1751903707.3343084612,3.1751903707c0,0,.5048891423-.2350258627.3845483793,1.1275923617s-.6183108991.8879923895-.6183108991.8879923895c0,0-.603385824.250248411-.1095068625-2.2630677632,0,0,.3796125277-3.17645555-1.0899858733-4.0490454383,0,0,.4352730686.41355018.2601164417,1.4271203299s-.3359904701,1.6381996-.4867175696,3.3060014559.6338970257.9410656481.2418861088,1.7344707414c0,0,.0836964718.1297276951-1.4865727359.2760018778-1.3158671895.1225663032-2.3423113183.4970666989-3.8393507039.014981999-.2328590826-.3572910202-.2353270084-.2864703637-.2527126643-.4465237988l-3.1950457887.155539922s-.1292429239.2967607329-1.4350033696.2760018778-2.2148752686-.2541596327-3.662930734-.2760018778c-.7891927259-.0120348108-1.2432984188-.7521297688-1.0545461649-1.1588215389.1548770342-.3855124128.317642617-.3166161508,1.7213562131-.2051206249-1.20340763-1.4982421321-2.0213634436-3.9272595431-2.0213634436-3.9272595431,0,0-.523479381.3030186876-1.108576112.2507295096s-2.475711522-.2948345021-2.6465345888-.3489874782-.5030822681-.1341806118-.5891879056-.5289587639.0096880778-.7160271726.0521643127-.7546564547.1608926034-.0558974177.2626431276-.120340763.3395895286-.2231104084.3395895286-.2231104084Z"/><path id="Tracciato_71" class="cls-19" d="m4.4698382562,9.7434595621c.1492213709-.1577067021-.2200420275-1.0458808808-.2200420275-1.0458808808l.5279965667.5829299509s.3639676409.3735381984.2034937035.8384741193c-.074008394.2366509478-.8352239492.131712686-.5114482428-.3755231894Z"/><path id="Tracciato_70" class="cls-19" d="m2.3597238213,10.2180223044c-.1464522994-.0327936659-.562172932-.4173420452-.1276784353-.9130848048.2279819911-.2704049747.5140336888-.6337152365.5140336888-.6337152365,0,0-.3482052339.8782473878-.1101679141,1.2326518163-.047632437.043170339-.0928116383.0889720305-.1353245982.1371883964-.0690137823.0785219072-.1408627413.1769598286-.1408627413.1769598286Z"/><path id="Tracciato_69" class="cls-9" d="m.7646105517,12.4987204331c.0438644432-.0361025962.2242580674-.0404343201.5095826084.1051769748.2673365937.1350216163.648036184.455730778.523479381,1.4295882557-.2360468201-.0094475285-1.1990153097-.1744937391-1.1990153097-.1744937391,0,0-.4304620823-.1812327925-.4342521112-.3971248852s-.055719301-.6060355389.0891097496-.6702383349c.1455562073-.0301439509.4672899989-.2566844824.5110956819-.2929082713Z"/><path id="Tracciato_72" class="cls-13" d="m.7511412296,13.2357109965c-.1379964323-.0727293725-.1585106228-.2647192175.1522338948-.2820798759,0,0,.1913566114.1664991442.1543801525.263751519s-.1684977475.0910472878-.3066140473.0183283569Z"/><path id="Tracciato_74" class="cls-3" d="m14.0362088736,19.1734215599c-.0902555723-.1135411133.1263563321-.2346641206.1820756332-.3108998911.4091615322-.2880954488.3648123179-.3104187925.7660926466-.4015778019.6719221801-.1041541812.7028520479-.1613773745,1.4430681986-.1263581684-.2527126643-.1335783204-1.0255406917-.4822664891-.9073667088-1.922022085s.9488293313-2.17985239.6304669026-1.2588845455.2373101631,2.2464606792.6882281185,2.978013382c.1894794106.3077709138.1345386814.2029538448.1345386814.2029538448,0,0,.2801536488.5229413585-.7728867876.4768495389-.4602681624-.0280891823-.9220934685.0164399849-1.3685162733.1319532353-.4641610216.1277427042-.6891389006.1406791158-.7957004112.2299724908Z"/><path id="Tracciato_78" class="cls-3" d="m10.8451345382,18.9418359878c.0713371794-.0942527272-.109774054-.2068124325-.1605437014-.2878784715-.4610951444-.3707741782-1.5893915936-.8101540134-2.1800056124-.8913938557-2.025161143-.3080571287-1.2349799297-1.1019043798-2.1739971959-2.1202268207s-1.7701919066-1.5208197671-1.7701919066-1.5208197671c0,0,.8810826574,1.9511920965,1.2604914534,2.6148938081.2719066285.4613107645.5710189519.9060353231.8957520915,1.3318161993.331464543.106651817.6755004699.1693091654,1.0232826653.1863645165.5382216035.0111433719,1.62245642.1467930703,2.0887221281.3159643222.4662656882.1691714804.8935047699.2915147592,1.0164900779.371280069Z"/><path id="Tracciato_75" class="cls-10" d="m14.2119645785,19.3592879106c.045906358.0445254947.1337601096.204219024.1797325727.2368309007s.3466995053.1395957258.660794479.1583089935c0,0-.0852022004-.7006834315-.1060767395-.722044578,0,0-.2625256074.0650438005-.4600037418.1109538309-.1048133965.0219652742-.2066079909.0564501303-.303194968.1027108853-.009364897.0401754082.0013514832.0823964038.0287483976.1132399676Z"/><path id="Tracciato_77" class="cls-10" d="m10.682079978,19.223951163c-.0701707921.0898858675-.1792936075.1168881952-.2371084448.1475871837s-.424752754.1160394446-.7993552668.1038497164c0,0,.1678110998-.7541885792.1945280089-.7752246257,0,0,.3054468649.0980579861.5355260176.1685179836.1217225378.0344852806.2391831813.0825433954.3501696267.1432691654.0142014302.0736744461-.0015471788.1499708266-.0437599417.2120005767Z"/><path id="Tracciato_79" class="cls-23" d="m19.6874734266,14.6496924448c-.1901992223.8313145637-.3790763415,2.210899778-.3806995903,2.5165663444,0,0-.0403167998.4122280769-.6057362295.2117403217-.1472382163-.0390497843-.3285940377.3522982447-.5912371654.1673947799-.2724487257-.1911614195-.4172190162-.7826354617-.1099916337-1.0220536448.5516401773-.4298579546.3323840667-1.0008742875.2527126643-1.0815023783s-.0435632974-.1014475423-.4200468478,0c-.1410977818.0432015553-.3068674766-.1937487019-.2803372743-.5532065022.1297276951-.4554902287-.1922411371-.6098861642.0813534113-.7873289278s.6120529443-.2661944435,1.0526217704-.2622832218c.2396605686.0021667801.3170990857.209092443.709712294.2780474651s.2916486009.5326257638.2916486009.5326257638Z"/><path id="Tracciato_80" class="cls-23" d="m8.4764634952,11.8595430917c.8639978123.1329193405,2.2174870153.3846685829,2.2174870153.3846685829,0,0,.4081161426.0056207395.2009899287.6205722192-.0405405738.1601915919.3580688636.3593434376.1682204546.6445082266-.196270127.2959695546-.8004715336.4512355714-1.0434690024.1155831175-.4362105146-.6025689753-.6924419076-.2095455822-.7751056983-.1229326494s-.0036899572.2877221768.0982045394.6983790291c.0435439732.1537319902-.4517812201.4660628367-.9447253273.3827196493-.4289541218-.0808766923-.8027823181-.341477675-1.0270512719-.7159721311-.1799076799-.2985728826-.1747347565-.5661318789-.0875371055-1.00039367.0871976487-.4342616764.2147582264-.3445128792.2868849593-.7717955505.0179398402-.106429971-.3398438593-.7000775809.0023492531-.5813012664s.9037522551.3459644428.9037522551.3459644428Z"/><path id="Tracciato_83" class="cls-23" d="m5.9815602165,12.3540115424c.4091586631.0646229539-.1387528851,1.0698294244-.2130030908,1.1496153631s.0430819693.7437058947-.4020584988.6688539368c-.4451404681-.0748519606-.6512842309-.2746176231-.6512842309-.2746176231,0,0,.3340659608-.278949898.4111442278-.6777592022.0461912069-.2423105705.0461912356-.4911662974,0-.7334769252,0,0-.1667923163-.6568800438.1424232705-.5491148685s.303619774.3516357012.7127783223.4164993192Z"/><path id="Tracciato_84" class="cls-23" d="m4.1810199222,10.9667577263c.3551570211.2131908446-.5294145778.9399508385-.6281465615.9861124366s-.7101789686-.1623309682-.4892490418-.5033938591c.1335989073-.2073629708.2268218917-.4380979273.2747652821-.6800679715,0,0,.0914244582-.6715300713.3377546742-.455777847.2463302426.215752235.1497743843.4399589244.504875647.6531272412Z"/><path id="Tracciato_82" class="cls-23" d="m15.2233203298,15.6489936343c-.232148143.8193929625.281563297,1.4937211926-.6685395426,1.7840326583-.9501029218.29031168-.6156327629-.2448010956-.9869144841-.3042868765s-.4072909124.2402893166-.5574951491-.025347065c-.1560052276-.2748851477.2152253888-.5346040574.1375597454-1.0559126364s.3147565591-1.0473568614.5589782482-1.4976892902c.2442216757-.4503324339-.0674086214-1.0981234316.3775978024-1.1043556419.4450064506-.0062322001.4040580799.1655097086.7063186846.3754708865.3022605996.2099611913.7252940239-.0786301745.8095932305.420663436.0842991046.499293556-.1449503718.5880315131-.3770985353,1.4074245293Z"/><path id="Tracciato_81" class="cls-23" d="m8.0665793186,16.0665164331c-.2559907771-.4113033564.0725470718-.574204011.4890514884-.6896511972s.5831112127.1956071672,1.0012085611.0407971999c.4180974041-.1548100677.6006401737-.5871381432.6006401737-.5871381432,0,0,.152930363-.2660890704.7254372541.2270305966.1538182982.1196608963.5072845456-.0283898232.7388720893.2626149964.2406617774.3011945055.186144981.7902479633-.2545977802.7561809849-.7915475183-.0613467989-.4701551014.3358505439-.4088423453.4406967371s.3014331658.1692198118.7699788256.3399167686c.1775070502.0604183374.3274877906.5686447375.0620017308.8461615248s-.7443799187.317240901-1.1235258923.2628999344-.6586295679-.2127698606-1.084083238-.5221456486-.5822529682-.2702566892-.7085989945-.6369400113c-.1263460367-.3666833033-.5515798632-.329067541-.8075418727-.7404237424Z"/><path id="Tracciato_85" class="cls-4" d="m3.7537305099,11.0151682718c.0814577067.0636775988.0758929098.2082858016.0122153198.289743497-.0636775811.0814576841-.1629577629.1414242402-.244225815.0778948993s-.0637697698-.2185171744-.000092171-.2999748811.1506449708-.1313411052.2321026662-.0676635152Z"/><path id="Tracciato_86" class="cls-1" d="m3.6143557884,11.1404511483c.038512821.0390265641.0411793233.1008894283.0061674634.1430851612-.0321543307.040253017-.0822500237.0698419291-.123359866.0383927875s-.0321179962-.1078366201-.0000007264-.1480422343.0760832788-.0648848489.117193129-.0334357145Z"/><path class="cls-21" d="m24.2338965139,20.8456760283s-.0697122773.1603382378.0209136832.2370217429c.6903713797.5841603982.2300505151,1.3733318631.2300505151,1.3733318631l.0487985941,1.7288644774s-.4113024361.2230792874-.4113024361.3206764756-.0557698219.2718778815-.1185108714.3764462975-.7180364563.0418273664-.7877487336.0348561387.0418273664-.0975971882.0418273664-.0975971882l-.2788491093-.0069712277s-.0836547328-.0278849109-.0557698219-.1673094656.6971227731-.5925543572.8016911891-.7389501395,0-.9480869715-.0418273664-1.1363101202-.6762090899-1.8752602597-.6762090899-1.8752602597l1.2269360807-.0487985941Z"/><path class="cls-2" d="m24.2338965139,20.8626890251s.4740434857.0023237426.4926334263-.8156336446-.390388753-1.0038567933.1115396437-2.1936129928c.1858994062-.3346189311-.0929497031-1.0224467339-.0929497031-1.0224467339,0,0,.2788491093.1487195249.5019283967-.1115396437s.5576982185-2.4724621021-1.0410366745-3.1231100236-2.8814407956-.5669931888-5.4654425414-.7157127138-4.1176718467.4275686342-4.7125499464.7807775059-2.0248329127,1.1432813479-2.7970507556,1.50578519-.9377032672,2.5368902917-1.1421926008,2.6298399915-.2044893336.3160289793-.4275686067,1.1525762774-.3717987885,1.4128354368.5762881221,1.3384756769c0,0,.3067340005,1.1246913674.6320579404,1.5522599864s.3810937582.9294969979.3810937582.9294969979c0,0,.4275686067.2788490994.6971227284,0l.2323742428-.01858994s.2044893337-.0929496998.2230792731-.2416692194.2416692125-1.5522599864.4647484856-1.6730945962c0,0,.114363253-.1968814054.6093204219-.5175578811.3253239608-.2974390499.3276477034-.5321370502.5693169314-.5321370502,0,0-.1022446734.7157127138.4554535451,1.0317417042l.0278849109.1766044359.8156336446.5507269908s.3834175252.1185108714.7180364563-.1115396437l1.1432813479-.5646694462s.7598638227-.3206764756,1.1711662589-1.3803030908c0,0,1.1572238034-.076683505,1.5615550118.0278849109,0,0,.2649066538.7389501395,1.0317417042,1.0596266152,0,0-.0627410496.5298133076.104568416.6343817236l1.0735690706-.0209136832c0-.0906259605.2649066538-.2439929706.2927915647-.3067340202,0,0,.3973599807.0278849109.5646694462.0278849109l1.2269360807-.0487985941Z"/><path class="cls-21" d="m22.1494994222,21.2788384921c0,.467072258-.5019283967,1.2060223975-.6762090899,1.4639578236s-.1673094656.7807775059-.1533670101.9968855656-.2021656042.2021656042-.3415901588.2439929706-.0906259605.4252448916-.0906259605.4252448916c0,0-.3415901588.2718778815-.7040940009.2997627924s-.1742806933-.0906259605-.1742806933-.0906259605c-.2579354261.0069712277-.2788491093-.0697122773-.2788491093-.0697122773.1115396437-.5786119017.7947199614-.934144516.7947199614-.934144516,0,0,.6807557945-2.0951416201.5621219696-2.301903072-.0032051137-.0055860456.0067464054-.0128979384.0067464054-.0128979384l1.0554276865-.0205602796Z"/><path class="cls-21" d="m17.1989432617,20.8700092312c-.1115324307.2788489899-.1254739845,1.1293375134-.0604338721,1.3105905084s.0186092106.536785649-.0789816662.7947197492c-.0975908769.2579366591-.0418246615.7389509748.1324549975,1.0038558518.174279659.2649074361-.1463965514.2788489899-.2140366305.271878213s-.1345226876.0418272205-.0717754593.0975985539c.0627267562.0557687744.0975908769.355532654.0487852023.4600994259-.0487852023.1045693308-.6761960694.2370217694-.7459243107.2161094386-.0697077692-.0209148898-.0627267562-.1673088821-.0627267562-.1673088821,0,0-.4252481003.2091361027-.3625213441-.0557713334.0627472284-.264904877.3694818849-.5298123131.5228594493-.7947197492.1533570922-.2649074361-.0348641207-.9829435211-.0348641207-.9829435211,0,0-.3206762104-.3346177643-.2161043206-.8853449671s0-.7040945312,0-.7040945312l1.1432688312-.5646687567Z"/><path class="cls-21" d="m15.3469295363,21.6890665618c.076683505.5507269908-.0697122773.8504897832-.0697122773.8504897832,0,0-.2161080597.4113024362.0487985941.7180364563s.1533670101.2927915647.0975971882.3694750698-.0278849109.1742806933-.0278849109.1742806933c.1254820992-.0139424555.3276477034.076683505.4113024362.2230792874s-.1673094656.6552954067-.2161080597.7389501395-.1185108714-.0278849109-.1185108714-.0278849109c0,.0627410496-.2649066538.2649066538-.2649066538.2649066538-.2718778815-.3137052479-.3415901588-1.296648358-.4182736639-1.5894399227s-.3880650104-.6367054661-.4531298025-1.1665187737c-.0444416477-.3618819884.1309341871-.8470755919.1951943765-1.1061014667l.8156336446.5507269908Z"/><path class="cls-21" d="m11.1841335399,20.00459133h-.3374738948s-.1028619031.1120317264-.2428332117.1820173827-.2893371609.094480636-.2893371609.094480636c0,0,.1889988036.9539583958.4992941238,1.3612210152.2799426172.3674246956.4304117739.7418479569.4612084999.9192947809.0102041447.0587949856.0356896456.1794800232.0356896456.1794800232,0,0,.2109069697.1100690742.3674246851.0839827876.2336357733-.0389392967.2501987141-.1154763329.2501987141-.1154763329l.2536979968-.0174964141s.1102773582-.0504395604.1504691567-.1609670095c.1038381215-.2855548423.1717055681-1.4261998382.4795550576-1.7193898367,0,0-.2556009639-.0232530054-.3920729897-.0792415305-.1817167126.0908583589-.4051156507.6593687674-.4051156507.6593687674,0,0-.1687369474.1022774791-.2466155385,0s.0908583563-.4137918525-.3634334252-.6474276325-.2206560081-.7398466368-.2206560081-.7398466368Z"/><path class="cls-12" d="m11.3466499903,19.9351961069c.1249985563-.2909762306.1567741127-.8941931131.3948385061-.8767737667s.7083867316.7954834837.7083867316.7954834837c0,0,.2337075361.347474124-.0929031779.7722576886-.2882583902.3749032755-.3827390235.6767164183-.3827390235.6767164183,0,0-.0605621183.0314468105-.076109399.0354302385-.0844705959.0116673125-.0724240199-.0877872424-.074797168-.1614044199-.0058064486-.1277418733.0533463734-.1929696486-.1863368046-.3884203925-.0925997018-.0755108505-.2226706948-.1273067305-.2903396646-.202966986s-.2224410982-.2798378528,0-.6503222641Z"/><path class="cls-11" d="m22.4115355705,20.7700947179s-.4540319614-.4514074992-.4067916417-.9972956378c0,0,.0542388856-.4199139528-.2038058931-.4368089282-.4540839772-.0297302572-1.2129936253-.104568416-1.7497781606.1463957824-.0751252306.0384647742.368408882.7943098892,1.0087776599,1.0383848742,0,0-.0577381685.422538415.0577381685.6167486181l.9605531669-.0236201598s.0191913799-.0918561772.0712705518-.128598648.1029281271-.0662676707.2620361483-.2152059008Z"/><path class="cls-12" d="m18.3987328594,19.3318894297s-.2437469273-1.0136985266-.7456753239-1.2088929031c0,0,.9573819418.2695541389,1.6823896258.2323742577s.6552954067-.5205183373,1.4546628533-.3160289905c.0418273664.6526454984.4370938579.8062894463,1.0970580296,1.2271680222,0,0-1.0914263711-.2390580021-1.8962614472.1283667066-.3534275769-.0978659744-1.5921737375-.0629870929-1.5921737375-.0629870929Z"/><path class="cls-11" d="m14.1325875312,19.747292588s.2649066538-.0069712277.3276477034-.0418273664.2788491093-.1115396437.3764462975.0975971882.285820337.5995255849.4949571689.7668350505.2406652152.6063539587.6035989689.7775789426c0,0-.3026879743.1767137885-.5038967433.0909813564s-.782089737-.4829010457-.782089737-.4829010457l-.0349928294-.171464864s-.6064147982-.348452034-.481670829-1.0367992616Z"/><path class="cls-2" d="m11.0605355503,20.6717726889s.1205518952.205033082.143286708.2447772755.0848884242.2226479931-.0292667576.2972363287-.2556613161.0328251117-.2845735206-.0062952466-.1025935949-.1507931536-.0266167052-.2635660946.1971702754-.272152263.1971702754-.272152263Z"/><path class="cls-21" d="m11.0082472908,20.9013178281s-.0734849417.089231715-.0629870929.1469698835.0629870929.0900518594.0629870929.0900518594c0,0,.0419913953-.1049784882.0524892441-.1185108714s-.0524892441-.1185108714-.0524892441-.1185108714Z"/><path class="cls-12" d="m13.0492903336,16.5962894841c.1019843827.0138344186,1.1855425823,1.4476484247,1.013530798,2.2214162481,0,0,.148416218-.3388485254-.0521399847-.9931248911s-.6335523479-1.1705356219-.7612318057-1.257755999-.2557181863-.0522879609-.2496257901-.0414098671c.0188975711.0219120592.0494667825.0708745091.0494667825.0708745091Z"/><path class="cls-12" d="m24.7283304587,16.8287165123c-.095222304-.0390502019-.7831492608-1.6993747119-.4219794168-2.4049674005,0,0-.2289008751.2906029702-.1994233502.9742925406s.3186440287,1.292287972.4202696641,1.4088283872.2343345472.1149484304.2311752599.1028873724c-.0127761649-.0259620135-.030042157-.0810408996-.030042157-.0810408996Z"/><path class="cls-1" d="m11.9268090625,22.693825514l-.0078086928-.2856680102-.0079380805-.2904014437s.0223678005.1439775813.0353482253.2882267483c.0106320081.1181516271.0128285807.2364855116.0092676322.2760326257.0008111565.0155007299-.0288690843.0118100799-.0288690843.0118100799Z"/></g></g></svg>