<?xml version="1.0" encoding="UTF-8"?>
<svg xmlns="http://www.w3.org/2000/svg" viewBox="0 0 32 32">
  <defs>
    <style>
      .cls-1 {
        fill: #f9bf8d;
      }

      .cls-2 {
        fill: #e3a46f;
      }

      .cls-3 {
        fill: #bf5557;
      }

      .cls-4 {
        fill: #3f3f3f;
      }

      .cls-5 {
        fill: #5c7a8c;
      }

      .cls-6 {
        fill: #2d2d2d;
      }

      .cls-7 {
        fill: #78a8c8;
      }

      .cls-8 {
        fill: #515151;
      }
    </style>
  </defs>
  <g id="how_to_prevent" data-name="how to prevent">
    <g>
      <path class="cls-4" d="m29.4,15.57s.08.52,0,.78-1.16.69-2.36.69-2.71-.27-4.58-1.56c-.33-.27-.51-.12-.51-.12,0,0-.05.25-.57.22s-1.26-.29-1.32-.35-.02-1.15-.02-1.15l9.36,1.5Z"/>
      <path class="cls-8" d="m25.25,3.12s-.31,6.76-.36,7.43-.14,1.88.94,2.55,1.97.83,2.49,1,1.07.53,1.07,1.48c-.76.56-2.04.6-2.04.6,0,0-2.16.17-3.57-.75s-1.14-.89-2.05-.91-1.63-.28-1.69-.44.14-2.77-.39-5.21-.25-5.74-.25-5.74c0,0,2.83.5,5.85,0Z"/>
      <path class="cls-6" d="m19.4,3.12s2.54-.64,5.85,0c0,0-2.45.6-5.85,0Z"/>
      <path class="cls-4" d="m27.2,17.2s.08.61,0,.78-1.16.69-2.36.69-2.71-.27-4.58-1.56c-.33-.27-.51-.12-.51-.12,0,0-.05.25-.57.22s-1.26-.29-1.32-.35-.02-1.15-.02-1.15l9.36,1.5Z"/>
      <path class="cls-4" d="m23.05,4.75s.13,1.31-.25,7.71c0,0-.17,1.72,1.15,2.34.72.46,1.19.54,1.92.75s.97.64.97.64l-.38.05-3.6-.9-.54-1.93.72-8.65Z"/>
      <path class="cls-8" d="m23.05,4.75s-.31,6.76-.36,7.43-.14,1.88.94,2.55,1.97.83,2.49,1,1.07.62,1.07,1.48c-.76.56-2.04.6-2.04.6,0,0-2.16.17-3.57-.75s-1.14-.89-2.05-.91-1.63-.28-1.69-.44.14-2.77-.39-5.21-.25-5.74-.25-5.74c0,0,2.83.5,5.85,0Z"/>
      <path class="cls-6" d="m17.2,4.75s2.54-.64,5.85,0c0,0-2.45.6-5.85,0Z"/>
    </g>
  </g>
  <g id="Who_is_at_risk" data-name="Who is at risk">
    <path class="cls-5" d="m9.33,29.19s-1.9-2.71-2.89-4.61c-.63-1.22-2.32-3.55-3.67-5.44-.85-1.19-1.3-2.32-1.44-2.58-.33-.6,1.22-.82,1.22-.82l2.28-.62,5.51,13.54-1,.52Z"/>
    <path class="cls-7" d="m28.13,22.45s-3.55,1.87-5.55,2.41-7.12,3.09-7.12,3.09c-1.44,1.01-4.69,2.21-6.14,1.24.93-.71-.66-1.6-1.44-3-1.08-1.94-2.54-3.96-3.59-5.37,1.16-2.16-.28-5.04-.97-6.39-.21-.4-.02-.71.25-.77.23-.05,4.12-1.15,5.23-1.38.19-.04.37-.02.51.07.8.49,3.8,2.22,7.11,2.35l1.41.61s1.11.17,1.26.09.41.63.41.63l8.84,3.81c1,.65.88,2.15-.21,2.62Z"/>
    <path class="cls-7" d="m22.93,22.33c-.35-.51-4.1-4.3-4.1-4.3,0,0-3.55,2.32-8.08,3.14,1.88,1.64,5.16,3.91,5.44,4.09s.73.71.81,1.96c0,0,0,.05.11.04s5.44-2.28,5.44-2.28c0,0,.56-.62.66-1.28s.09-.84-.26-1.35Z"/>
    <path class="cls-5" d="m18.82,17.91c-2.33,1.48-5.12,2.49-8.22,3.19l1.03.85c3.52-.78,5.99-1.91,8.07-3.16l-.87-.89Z"/>
    <path class="cls-5" d="m14.15,23.62l-.26.07s-.32.12-.35.13c-.36.11-.79.28-1.91.44-.62.1-2.08.3-3.23.11-.69-.12-1.35-.36-1.7-.48-.24-.08-.28-.07-.28-.07l-.09-.14s.9.44,2.27.64,4.52-.31,5.31-.71c1.76-.53,3.12-1,4.07-1.16,2.21-.37,3.26-.16,3.26-.16v.05c-1.24-.05-2.74.05-3.7.31-1.28.35-1.62.56-3.38.98Z"/>
    <path class="cls-7" d="m20.93,21.28c-.95-.02-2.81.02-4.52.55-2.42.75-5.59,1.8-7.61,1.67-1.66-.11-2.91-.64-3-.58-.11.08-.13.27-.17.35,0,0,.5.78.5.78-.02-.07.2-.24.19-.39,0-.01.03-.04.15,0,.42.16,1.51.65,2.36.64,2.66.07,5.05-.5,8.05-1.58,1.52-.55,3.34-.53,4.36-.46"/>
    <path class="cls-5" d="m21.25,22.27c.39.03.66.06.76.08.04,0,.02-.03.02-.03l-.45-.99s-.01-.01-.02-.01c-.06,0-.28-.02-.61-.03"/>
    <path class="cls-5" d="m22.04,22.33s.01.06-.02.07-.6-.06-.75-.06c0,0-.02-.02-.02-.02v-.05s.71.04.79.06Z"/>
    <polyline class="cls-3" points="20.98 21.32 21.27 22.25 21.25 22.25 20.96 21.31"/>
    <polygon class="cls-5" points="9.19 12.77 4.12 14.16 4.15 14.18 9.29 12.77 9.19 12.77"/>
    <path class="cls-5" d="m19.3,16.08s-2.28.71-3.91.75c0,0,2.02-.15,3.49-.82,0,0,.3-.12.42.07Z"/>
    <path class="cls-7" d="m18.02,23.19c.71-1.21,1.42-1.81,2.94-2.62,1.77-.94,2.8-2.72,2.8-2.72,0,0,.08,0,.12.02.02-.02-.88-.47-.99-.49-.13-.02-.14.03-.14.03,0,0-.72,1.57-2.58,2.51-1.5.6-2.45,1.67-3.03,2.54-.02.03-.17.18-.19.21-.04.07,0,.08-.04.14-.06.09-.11.18-.16.27l1.27.1Z"/>
    <path class="cls-5" d="m18.01,23.2c-.11.19-.14.24-.26.47l-1.24-.1s.02-.09.23-.46l1.27.1Z"/>
    <path class="cls-5" d="m18.01,23.2c-.11.19-.14.24-.26.47l-1.24-.1s0,.06,0,.07c.83.08,1.21.11,1.23.11s.04-.02.04-.02l.24-.46v-.05Z"/>
    <path class="cls-5" d="m18.02,23.19c.71-1.21,1.42-1.81,2.94-2.62,1.77-.94,2.8-2.72,2.8-2.72,0,0,.07,0,.12.02.02.01,0,.03,0,.03,0,0-1.05,1.8-2.92,2.74-.43.21-.81.42-1.13.65-.01,0-.05,0-.06,0-.48.33-.86.69-1.15,1.04h.02c-.21.28-.46.65-.6.92v-.06Z"/>
    <path class="cls-5" d="m13.88,23.68c1.16.84,2.13,1.46,2.3,1.57.28.18.73.71.81,1.96,0,0-.17.04-.06.03s-.13-1.68-1.19-2.19c-.43-.21-1.2-.76-1.96-1.35"/>
    <path class="cls-5" d="m12.79,22.91c-.67-.54-1.16-.96-1.16-.96h.06c.38.32.77.64,1.16.95"/>
    <path class="cls-5" d="m20.53,19.73c-.34-.35-.64-.66-.88-.91l-.03.02c.26.27.57.58.89.91l.02-.02Z"/>
    <path class="cls-5" d="m21.24,20.5c.81.84,1.54,1.62,1.69,1.83.35.51.36.69.26,1.35s-.66,1.28-.66,1.28c.4-.43.62-.82.69-1.24,0-.04.26-.81-.27-1.42-.46-.55-1.08-1.2-1.68-1.82l-.03.02Z"/>
  </g>
  <g id="Symptoms">
    <g>
      <path class="cls-1" d="m10.03,14.81l2.18,2.14s1.39,1.18,2.97.13c1.51-1.08,2.97-2.81,5.88-.8,0,0,.11-.06.04-.17l-2.2-2.4s-.72-3.61-1.18-4.46-1.6-1.99-4.35-1.9-4.18,1.41-4.49,2.01-1.06,1.82-.64,5.06l.06.26s-.05.33.47.27,1.27-.14,1.27-.14Z"/>
      <path class="cls-2" d="m12.13,7.28s.05-.24.56-.28.62.1.63.14.03.28.03.28c0,0-.05.17-.53.24s-.63-.1-.63-.1l-.06-.28Z"/>
      <path class="cls-2" d="m10.03,14.81s1.94-1.81,4.91-1.86c1.64,0,2.34.25,2.34.25,0,0-1.45-.77-3.84-.25s-3.12,1.52-3.42,1.86Z"/>
      <path class="cls-2" d="m12.44,7.68s-1.67.3-2.17,1.75-.24,5.39-.24,5.39c0,0,.02-4.22.38-5.09s.78-1.62,2.03-2.05Z"/>
      <path class="cls-2" d="m12.95,7.68s.74.57,1.16,1.62.36,3.48.36,3.48c0,0,.25-2.41-.21-3.55s-1.32-1.54-1.32-1.54Z"/>
    </g>
  </g>
</svg>