<?xml version="1.0" encoding="UTF-8"?>
<svg id="Where_is_found" data-name="Where is found" xmlns="http://www.w3.org/2000/svg" viewBox="0 0 32 32">
  <defs>
    <style>
      .cls-1 {
        fill: #fff;
      }

      .cls-2 {
        fill: #9ecbe1;
      }

      .cls-3 {
        fill: #d9d9d9;
      }

      .cls-4 {
        fill: #d9dde3;
      }

      .cls-5 {
        fill: #589ac2;
      }

      .cls-6 {
        fill: #77b3d6;
      }
    </style>
  </defs>
  <g>
    <path class="cls-1" d="m22.67,4.8s-.37-.17-.46-.05.79,1.48.79,1.48l-.44-.24s-.45.18-.55.16-.46.64-.46.64c0,0,.44.98.57,1.04s-.05.42-.09.49.04.22.12.3.15.15.11.22-.04.3-.03.38.26.46.31.54.06.17.17.23.35.17.37.3,0,.23.08.29.15.07.22.12.14.13.33.19.49.1.58.1.27.03.27.03c0,0,.27.52.24.59s-.03.16.04.18.26.07.32.11-.16.27.16.43.61.54.6.62-.02.24-.02.28.06.11.18.18.17.21.23.12.14-.23.18-.33.13-.04.29-.33.24-.33.36-.43.75-.44.8-1.33c0,0-.08-.15.25-.11s.75.06.83.25.24.7.26.74.13.23.34.16.58-.3.7-.33.36-.24.24-.58c0,0-.08-.15.04-.11s.49.22.42-.2-.15-.82-.14-1.11-.32-.42-.32-.42c0,0,.03-.53-.19-.73s-.54-.14-.6-.23-.21-.88-.58-1.22-.52-.12-.56-.31,0-.26-.25-.33-.55-.09-.79.06-.11.06-.23-.03-.12-.17-.39,0-.74.14-.91.39c0,0-.45-1.14-.61-1.24s-.19-.14-.28-.11c0,0,.06.02,0-.11s-.16-.41-.41-.13c0,0-.22.19-.33-.06s-.13-.37-.31-.42-.59.21-.64.36-.27-.22-.51-.35-.28-.13-.28-.13Z"/>
    <path class="cls-3" d="m27.44,6.7s.53.1-.12,1.75l-.49,1.02s.38-.1,1.05.26,1.08,1.41,1.08,1.41c-.07-.09-.64-.17-.86-.16-.09,0-.14.02-.15.04,0-.11-.03-.37-.1-.59-.04-.14-.11-.28-.17-.39-.09-.14-.23-.2-.32-.24-.23-.08-.53-.18-.7-.19,0,0,1.25-2.29.78-2.92Z"/>
    <path class="cls-3" d="m25.93,12.93s-.02-.19.11-.33c.15-.16.61-.79.72-.84-.24.07-1.07.79-1.35.6,0,0,.39.25.52.58Z"/>
    <path class="cls-3" d="m26.05,6.98s-.04.61-.36.87-.35.46-.52.54-.15-.04-.52-.1-.73-.26-.9-.2-.46.09-.5.18c0,0,.49-.2.68-.11s.72.2.8.21.14.03.25.09.29.01.45-.22.15-.27.25-.3.37-.56.36-.93Z"/>
    <path class="cls-3" d="m23,6.23s.04.17.05.27.02.15.16.2.19.02.34.01.44.14.44.24.17.1.17.1c0,0-.17.06-.23-.12s-.48-.17-.48-.17c0,0-.01.04-.11.03s-.12,0-.2-.05-.06.01-.08-.05-.08-.41-.06-.44Z"/>
    <path class="cls-3" d="m30.61,11.11s-.13-.04-.25-.14-.03.06-.19-.24-.62-.57-.64-.58-.3-.22-.3-.3.04-.13.04-.19-.06.02.06.17.24.21.46.35.45.31.52.47.29.45.29.45Z"/>
    <path class="cls-3" d="m25.74,11.24c.22-.11.3-.18.4-.3s-.2-.4-.63-.74-1.05-.51-1.17-.54,1.24.51,1.62,1.16c.1.22-.44.54-.21.42Z"/>
    <path class="cls-3" d="m24.33,9.67s.62-1.22.42-1.31h.05s.05.02.05.02c0,0,.02.06,0,.14-.07.27-.28.83-.51,1.15Z"/>
  </g>
  <g>
    <polygon class="cls-6" points="28.8 10.12 28.8 16.76 12.99 25.26 1.38 21.26 1.38 14.42 17.34 7.8 28.8 10.12"/>
    <polygon class="cls-5" points="1.38 21.26 12.99 25.26 12.99 18.09 1.38 14.41 1.38 21.26"/>
    <polygon class="cls-2" points="28.8 10.11 12.99 18.09 1.37 14.42 17.34 7.8 28.8 10.11"/>
    <path class="cls-5" d="m19.93,10.88l-7.95,4.01c-.44.21-1.08.52-1.76.17-.25-.14-.47-.64.15-.94l8.25-3.87c.44-.2.77-.33,1.31-.13.31.12.49.52,0,.77Z"/>
    <path class="cls-1" d="m11.12,15.19s.5-.83,0-2.25c-.17-.49-.28-1.29-1.04-1.52.24-.25,1.14-.19,1.75-.84,2.65-2.82,2.37-4.47,4.8-5.24,1.02-.32,1.96-.71,2.65-1.06l-.05-.68c.01-.08.34-.72.96-.5s.31,1.15.31,1.15c-.34,1.47-.9,4.3-.67,6.33l.03.33-7.93,4s-.45.23-.82.28Z"/>
    <path class="cls-4" d="m20.09,3.17s.31.06.34.3c.04.27-1.14.81-1.14.81v-.06s.68-.36.89-.56c.06-.06.31-.25-.09-.49Z"/>
    <path class="cls-4" d="m10.88,11.65c-.06-.02.3-.01.59,1.67,0,0,1.01-1.13,1.68-2.22.84-1.38,1.2-3.06,1.2-3.06,0,0-1.79,3.56-3.48,3.61Z"/>
  </g>
  <g>
    <path class="cls-1" d="m21.48,26.16s.43-.03.46-.18-1.5-.91-1.5-.91h.53s.33-.38.43-.41.1-.79.1-.79c0,0-.91-.65-1.07-.63s-.17-.39-.17-.47-.15-.18-.27-.2-.22-.06-.22-.14-.11-.28-.17-.34-.48-.28-.57-.32-.14-.12-.28-.12-.42.02-.5-.08-.11-.2-.23-.22-.17.01-.27,0-.19-.05-.41,0-.51.14-.6.19-.27.11-.27.11c0,0-.52-.32-.52-.4s-.05-.15-.13-.14-.28.06-.36.06.01-.32-.37-.3-.85-.18-.88-.25-.1-.22-.13-.25-.11-.06-.26-.08-.26-.1-.27,0-.01.27,0,.38-.1.1-.1.43-.05.4-.11.55-.47.75-.06,1.55c0,0,.15.09-.18.22s-.73.3-.9.18-.59-.5-.62-.52-.24-.14-.39.03-.39.55-.49.62-.21.38.07.62c0,0,.15.09.01.11s-.57.04-.29.38.56.65.7.9.52.22.52.22c0,0,.25.48.56.55s.57-.14.68-.09.65.67,1.17.79.55-.14.69,0,.13.23.41.17.56-.19.71-.43.07-.1.23-.09.2.09.36-.19.62-.48.65-.77c0,0,1,.79,1.21.79s.25.03.32-.04c0,0-.07.01.05.1s.36.28.45-.08c0,0,.11-.27.34-.11s.31.26.51.22.44-.47.41-.63.37.06.66.06.33-.03.33-.03Z"/>
    <path class="cls-3" d="m16.05,26.8s-.54.17-.78-1.59l-.06-1.13s-.3.27-1.12.28-1.73-.72-1.73-.72c.11.04.68-.16.88-.27.08-.05.12-.08.12-.11.06.1.21.31.4.47.11.1.25.19.36.26.16.08.32.07.42.05.25-.04.59-.09.75-.17,0,0,0,2.61.77,2.93Z"/>
    <path class="cls-3" d="m14.26,20.61s.12.15.06.35c-.06.21-.16.99-.24,1.08.19-.18.6-1.21.96-1.17,0,0-.49-.03-.78-.25Z"/>
    <path class="cls-3" d="m17.2,25.88s-.27-.55-.11-.94.09-.57.21-.72.16-.04.53-.16.82-.12.94-.25.38-.31.37-.39c0,0-.35.41-.57.43s-.78.17-.86.21-.15.04-.28.04-.28.13-.31.41,0,.3-.08.39-.06.67.14.99Z"/>
    <path class="cls-3" d="m20.43,25.07s-.12-.14-.19-.21-.1-.12-.25-.1-.19.07-.32.15-.48.09-.53,0-.21,0-.21,0c0,0,.13-.13.27,0s.54-.08.54-.08c0,0,0-.04.09-.08s.11-.06.21-.05.05-.04.1,0,.29.32.28.36Z"/>
    <path class="cls-3" d="m10.82,24.46s.14-.03.3,0,0-.06.3.12.87.2.89.2.39.05.43.12.02.13.06.18.05-.05-.14-.12-.33-.07-.61-.08-.58-.05-.73-.16-.5-.25-.5-.25Z"/>
    <path class="cls-3" d="m15.3,21.99c-.15.21-.19.3-.22.46s.39.26.97.34,1.24-.06,1.37-.09-1.42.15-2.11-.23c-.2-.14.13-.68-.02-.47Z"/>
    <path class="cls-3" d="m17.43,22.7s.05,1.37.28,1.35l-.04.03h-.07s-.05-.04-.07-.13c-.07-.27-.17-.86-.11-1.25Z"/>
  </g>
</svg>