<?xml version="1.0" encoding="UTF-8"?>
<svg id="Where_is_found" data-name="Where is found" xmlns="http://www.w3.org/2000/svg" viewBox="0 0 32 32">
  <defs>
    <style>
      .cls-1 {
        fill: #fff;
      }

      .cls-2 {
        fill: #737373;
      }

      .cls-3 {
        fill: #a8a8a8;
      }

      .cls-4 {
        fill: #201617;
      }

      .cls-5 {
        fill: #1c1c1c;
      }

      .cls-6 {
        fill: #636363;
      }
    </style>
  </defs>
  <g id="ic_hare">
    <path class="cls-2" d="m19.36,10.01s1.72-4.71,5.6-5.32c0,0,.62-.1.86-.01s.32.62.06,1.03-1.07.93-1.4,1.45c-1,1.83-3.57,3.07-3.57,3.07,0,0,1.28.48,1.67.87s.76,1.37.91,1.54.75.91.75.91c0,0,.29.75-.17,1.26s-.65,1.11-2.26,1.21c0,0,.79,3.49-.48,5.9s-1.41,4.45-1.25,6.32c0,0,1.19-.1,1.2.91,0,.52,0,.67-.13.67h-.66s-.11.52-1.52.51-.79,0-.79,0c0,0-.68.11-.77-.66h-.69s.23.67-.9.67-2.98-.03-3.95-.28-1.97-.64-1.41-1.33c.19-.24-.3-.55-.3-.55,0,0-1.56-1.56-1.36-3.59s.11-8.17,6.1-9.8c0,0,.91,0,2.09-.61,0,0-.27-1.29.08-2.22s.21-1.58.21-1.58c0,0-3.16-3.37-2.83-8.24-.06-1.11,1.44.19,1.44.19,0,0,1.91,1.72,2.55,6.15.11.8.91,1.55.91,1.55"/>
    <path class="cls-3" d="m8.55,24.82c-.03-.17-.46.21-.31,1.57,0,0-.25-.01-.36-.21s-.14.17.18.8-.55-.24-.55-.24c0,0,.42,2.44,2.74,2.44,0,0-.1-.21.06-.41s.13-.25-.04-.41-1.5-1.18-1.55-3.26c0,0-.15-.12-.18-.29Z"/>
    <path class="cls-6" d="m14.95,20.76s.72,2.66,1.04,3.37c.32.71,1.14,2.93,1.23,3.68s.2,1.86.2,1.86h-.69s.02-.89-1.12-.87-1.45,0-1.45,0c0,0,1.26-1.14,1.8-3.06.15-.57-.48-2.22-.62-2.74-.16-.57-.31-1.71-.37-2.22Z"/>
    <path class="cls-6" d="m19.96,22.68s.13.28-.26,1-.47,1.65-.47,1.65c0,0-.04,1.81.48,3.17h-.37s-.49-1.24-.43-2.53.23-1.66.3-1.85.54-.77.76-1.44Z"/>
    <path class="cls-6" d="m21.78,15.97s-.62-.04-.86-.19-.8-.06-.8-.06c0,0-1.48.08-1.84-.21,0,0,.46.35,2.22.46,0,0,.66.2.78.76s.11,1.4-.03,2.02.24,1.75.44,1.78.99-3.2.11-4.55Z"/>
    <path class="cls-4" d="m23.49,13.43s.25.01.42.1.3-.03.33.02.24.46.08.73c0,0-.07-.32-.23-.47,0,0-.52-.14-.59-.38Z"/>
    <path class="cls-3" d="m21.37,12.77s.19-.83-.42-1.12-1.06-.05-1.06-.05c0,0-.23.57.34.99-.11-.1.25.22,1.13.19Z"/>
    <path class="cls-5" d="m21.25,12.67s.16-.7-.35-.95-.9-.04-.9-.04c0,0-.19.48.29.83-.1-.08.21.18.96.16Z"/>
    <circle class="cls-1" cx="20.22" cy="12.18" r=".07"/>
    <path class="cls-3" d="m20.71,10.14s.12-3.33,3.52-4.85c1.45-.64,1.37-.25,1.37-.25,0,0,.33.55-.89,1.22-.34.19-.8.91-1.08,1.44s-2.92,2.44-2.92,2.44Z"/>
    <path class="cls-3" d="m17.64,10.18s.07-.04.34-.05c0,0-.27-.58-.33-2.12s-1.52-4.78-2.04-5.28-.57-.45-.57-.45c0,0-.19-.01-.18.23s-.24,3.92,2.78,7.65Z"/>
  </g>
</svg>