<?xml version="1.0" encoding="UTF-8"?>
<svg id="Complications" xmlns="http://www.w3.org/2000/svg" viewBox="0 0 32 32">
  <defs>
    <style>
      .cls-1 {
        fill: #fff;
      }

      .cls-2 {
        fill: #b63a3e;
      }

      .cls-3 {
        fill: #bf5557;
      }

      .cls-4 {
        fill: #c5686a;
      }

      .cls-5 {
        fill: #d99998;
        stroke: #fff;
        stroke-miterlimit: 10;
        stroke-width: .75px;
      }
    </style>
  </defs>
  <path class="cls-1" d="m31.1,17c0-1.97-.84-3.66-2.08-4.57-.12-2.16-1.83-3.88-3.99-4.02-.98-1.65-2.77-2.76-4.82-2.76-.45,0-.89.07-1.31.17-.77-.39-1.62-.63-2.54-.63-1.41,0-2.68.54-3.67,1.39-.37-.08-.75-.13-1.15-.13-2.01,0-3.74,1.11-4.66,2.74-.13-.02-.26-.04-.39-.04-1.22,0-2.23.88-2.45,2.04-1.67.99-2.78,2.71-2.78,4.69,0,2.93,3.1,5.64,6.26,5.9.9,1.57,2.45,2.69,4.3,3,.77.26,1.72.42,2.75.42.72,0,1.39-.08,2-.21.02.02,2.55-1.34,2.49-.51-.05.88.45,2.45,1,2.54.53.12,1.09.21,1.66.21,3.27,0,5.9-1.27,6.43-3.94,1.51-.06,2.74-.92,2.88-2.1.07-.56-.13-1.11-.5-1.58.34-.77.55-1.65.55-2.6Z"/>
  <path class="cls-5" d="m30.62,16.9c0-1.83-.78-3.4-1.93-4.24-.11-2.01-1.7-3.6-3.7-3.73-.91-1.53-2.57-2.56-4.48-2.56-.42,0-.82.06-1.21.16-.71-.36-1.5-.59-2.36-.59-1.31,0-2.49.5-3.4,1.29-.34-.07-.7-.12-1.07-.12-1.86,0-3.47,1.03-4.33,2.55-.12-.02-.24-.04-.36-.04-1.13,0-2.07.82-2.27,1.89-1.55.92-2.58,2.52-2.58,4.35,0,2.72,2.88,5.24,5.81,5.47.84,1.45,2.28,2.5,3.99,2.79.72.24,1.59.39,2.55.39.67,0,1.29-.07,1.86-.2.02.02,2.6,3.59,2.55,4.36-.05.81,1.69,1.37,1.29,0-.19-.66-.41-1.64-.59-2.48.5.11,1.01.2,1.55.2,3.03,0,5.47-1.18,5.97-3.66,1.4-.06,2.54-.85,2.68-1.95.06-.52-.12-1.03-.46-1.46.32-.72.51-1.53.51-2.42Z"/>
  <path class="cls-1" d="m8.19,9.33c.26.67.42,1.57.14,2.21-.02.01.02.14.07.25.12.23.3.46.47.72-.46-.2-.98-.45-1-1.05.21-.72.11-1.36.33-2.13h0Z"/>
  <path class="cls-1" d="m13.98,6.79c-.26.86-.73,1.71-.95,2.55-.08.87.15,1.81.24,2.7-.47-.86-.8-1.76-.73-2.77.27-.98.81-1.73,1.44-2.48h0Z"/>
  <path class="cls-1" d="m13.06,8.51c.02.91-1.28,1.67-1.89.82.82.07,1.22-.35,1.89-.82h0Z"/>
  <path class="cls-1" d="m17.91,11.27c-1.86-1.63.28-3.92,1.64-5.06,0,0,.31.37.31.37-.21.17-.41.4-.55.63-.61.93.73,1.28,1.41,1.49-.63-.05-1.34-.06-1.78-.63-.43-.68.14-1.39.61-1.85,0,0,.31.37.31.37-1.23,1.19-3.29,2.89-1.95,4.69h0Z"/>
  <path class="cls-1" d="m24.72,8.51c.9,1.15.07,2.34-1.18,2.72,0,0-.3-.14-.3-.14-.29-.23-.94-.26-1.36-.25-.55,0-1.11.07-1.66.15.95-.26,1.96-.59,2.96-.42.16.06.31.04.52.32,0,0-.31-.14-.29-.14,1.16-.17,1.97-1.08,1.32-2.24h0Z"/>
  <path class="cls-1" d="m23.47,11c.72.42,1.42,1.67.68,2.34.02-.87-.55-1.46-.68-2.34h0Z"/>
  <path class="cls-1" d="m8.09,21.12c.09-3.64,2.72-5.37,6.15-4.27.46.17.77.4,1.25.27.43-.09.87-.28,1.31-.47l-.12.14c.15-.49.34-.93.64-1.34.4-.62,1.21-1.11,1.97-.88,0,0,.69.17.69.17l1.38.35-1.41-.18c-.47-.04-.96-.2-1.35-.07-.89.29-1.28,1.34-1.52,2.17-.98.47-1.95.91-3.01.31-3.21-1.07-5.48.48-5.98,3.8h0Z"/>
  <path class="cls-1" d="m9.8,17.48c-.86-.22-1.49-1.06-2.29-1.23.89-.52,1.9.48,2.29,1.23h0Z"/>
  <path class="cls-1" d="m11.88,16.79c-.52-.68-.79-1.49-.81-2.34.01-.26,0-.63.27-.81.02,1.04.62,2.03.54,3.15h0Z"/>
  <path class="cls-1" d="m16.18,16.84c-.36-.61-.77-.89-1.01-1.52-.06-.23-.05-.51.13-.67.03.22.12.37.22.51.41.42.87,1.04.66,1.67h0Z"/>
  <path class="cls-1" d="m15.72,20.41c.3-.83,1.33-1.09,2.12-1.23,1.72-.24,3.5.34,4.99-.83.75-.67,1.74-1.02,2.75-.65,0,0-.07,0-.07,0,.2-.03.44-.17.58-.38.15-.21.24-.46.28-.74.1-.55.02-1.13-.06-1.69.19.54.33,1.12.3,1.72-.02.59-.34,1.31-1.08,1.47-.45-.08-.92-.14-1.32-.02-.79.3-1.51,1.17-2.42,1.35-1.79.67-4.76-.78-6.07,1h0Z"/>
  <path class="cls-1" d="m25.19,20.69c.98-.03,1.79-.08,2.52-.79.68-.56,2.06-1.28,2.69-.27-.87-.61-1.69.16-2.39.67-.75.73-1.9.8-2.83.4h0Z"/>
  <path class="cls-1" d="m21.77,19.26c.75-.07,1.26.91.85,1.52-.35-.59-.49-.97-.85-1.52h0Z"/>
  <path class="cls-1" d="m19.6,19.06c-.66-.55-1.46-2-.17-2.27-.12.2-.23.39-.25.55.03.54.48,1.12.42,1.72h0Z"/>
  <path class="cls-1" d="m19.6,14.66c-.08-.41.23-.96.69-.92,0,.02,0,.03.04-.02.06-.09.09-.25.15-.41.23.2.36.61.04.84-.51.15-.36.1-.92.5h0Z"/>
  <g>
    <circle class="cls-4" cx="8.09" cy="8.51" r="6.3"/>
    <circle class="cls-3" cx="8.09" cy="8.51" r="4.58"/>
    <circle class="cls-2" cx="8.09" cy="8.51" r="2.84"/>
  </g>
</svg>