<?xml version="1.0" encoding="UTF-8"?><svg id="Livello_2" xmlns="http://www.w3.org/2000/svg" viewBox="0 0 13.1746904985 11.7361227113"><defs><style>.cls-1{fill:#ebbba9;}.cls-2{fill:#ee9f8b;}.cls-3{fill:#fbd7c9;}.cls-4{fill:#d9a592;}.cls-5{fill:#404040;}</style></defs><g id="Where_is_found"><path class="cls-3" d="m13.1522216797,4.7024313051s-.0876464844-.1975097656-.1865234375-1.1851806641-.2963867188-1.1193237305-.5487060547-1.0864868164c-.2524414062.0329589844-.2716064453.3098144531-.2716064453.3098144531-1.2243652344.4858398438-2.6110229492-.2109985352-2.6110229492-.2109985352,0,0-.4315795898-.4169921875-.6584472656-.4462890625-.2267456055-.0292358398-.6071777344-.2268066406-.7973632812-.5340576172-.4536743164-.7463378906-1.7632446289-.8340454102-1.7632446289-.8340454102C5.8763427734.0201803285,4.9589233398-.0822976988,4.9544677734.0494161684c-.0048217773.1428833008.0180053711.2044677734.001953125.3895263672s-.0970458984.4371948242-.0970458984.4371948242q-.5229928033.2798257376-.6347220437.4585365971c-.1443635644.2309094431-.3871285422.5216880123-.3871285422.5216880123-.9215698242.7678833008-2.5690307617,1.83203125-3.8375244141,2.3223266602.0192260742.0431518555.0361328125.0873413086.0556030273.1303710938.3746948242.8292236328.7873535156,1.6422119141,1.255065918,2.4230957031.4618530273.7712402344.977722168,1.5113525391,1.5609741211,2.1959838867.5853881836.6871337891,1.2380981445,1.3187255859,1.9567871094,1.8656005859.4680175781.3560791016.9700927734.6614990234,1.4860839844.9423828125.0757446289-.1320800781.1215209961-.21875.1215209961-.21875,0,0,.8999023438-.2084960938,1.3388671875-1.0084228516.4389648438-.8000488281.6584472656-.82421875,1.536315918-1.3180541992.8779907227-.4938354492,1.8436889648-1.5693359375,2.458190918-2.578918457.6146240234-1.0096435547,1.1853027344-1.6351318359,1.1853027344-1.6351318359.3182373047,0,.1975097656-.2744140625.1975097656-.2744140625Z"/><path class="cls-1" d="m7.8486054753,2.4287142018s.0944239951.4771498252.0505271257.6454211579c0,0,.2633812164-.0073161449.365807245.1243744633s-.174901589.219484347-.2081671854.2121682021-.2299619584.6144602187-.9038868394.2999619409c-.1097421735-.0512130143,0-.2048520572,0-.2048520572,0,0,.4932526146-.5267624328.5429301758-.8852535329s.1527894783-.1918201741.1527894783-.1918201741Z"/><path class="cls-1" d="m12.1416964396,2.7846903771s-.004998136-.3226898276.2430490452-.3479066087c.2288423009-.0508232883.3751651989.0936705735.4613911074.3865116495.093892989.3188800721.1658633189,1.1103037495.1658633189,1.1103037495,0,0,.077794603.6175883498.1402390428.7688741052s-.0337514341.2183313645-.0337514341.2183313645c0,0-.0812492186.055205122-.1637844782.0560240692s-.151038382-.0210437514-.1583259482-.0254162912-.1184257658.0961551875-.4099284141-.8512284197c-.1734198269-.4924273171-.2447522397-1.3154936183-.2447522397-1.3154936183Z"/><path class="cls-1" d="m5.1346956719.1352229709c-.0638975091,0-.0090270294.1606096149-.022404451.3415331972-.0100895529.1364566444-.0171784493.2870984288-.0555565316.3743018152,0,0,.5504513261-.1839800148,1.0674292608-.1542258891,0,0-.3302010594-.4586610105-.9894682782-.5616091233Z"/><path class="cls-5" d="m7.8753117919,2.8140474646s-.1120605646.3546913896.0215702398.4721458334c.0325797078.0286358484.1423218813-.1798742812.1313476639-.2155404876s-.0939467816-.1069986192-.0949855917-.1701003689-.0246667156-.1340027614-.057932312-.0865049769Z"/><path class="cls-4" d="m9.7657783834,5.9013681045c-.027345803.0022172273,2.7663867521-1.0764553016,2.9145386864-1.0490197583,0,0,.022893491.1245027791.2743859719.1244803601,0,0-.1454083799.2048136437-.3155087488.191095872-.0534441442-.0043100116-.3182269032-.0233810143-.6563083883.0942314353-.7379538076.2567208168-2.0082552479.6222781228-2.2171075212.6392120909Z"/><path class="cls-2" d="m7.0925009483,3.6368226964c.0248183835-.0169046135.0405907781-.0437888098.0557191546-.0689239088.0145978543-.024253661.0367446799-.0394405836.0529198675-.0621657702.0067051011-.0094202714.0112115963-.0201858486.0160792307-.030674243.0149009491-.0321073885.0337656841-.0625574413.0593734655-.0905765806.0147109416-.0158226494.0309651858-.030173608.0452872497-.0463625651.0139574816-.0157768512.0204380296-.0342012728.0322655944-.0507356157.0248951317-.0348021468.0586776339-.06631613.0862897847-.099369852.0594452479-.0711602191.1169672578-.144043071.169746812-.2203168159.103610022-.1497307908.1892032838-.3145227166.2262172155-.4940241292.0261033723-.1265899385.0182523332-.2787927186-.0842760518-.3574967708-.1042067015-.0799923312-.2526811838-.0464827452-.3786825676-.0093148372-.0456294521.0134597814-.0916234613.0270667367-.1335938282.0494654122-.0979248017.0522603489-.164825488.14683679-.2280519028.2380663416-.0743698419.10730843-.1498928841.2169747177-.1870503235.3421358026-.0209998154.0707357586-.0293177652.1452259977-.0564665783.2138370879-.0344303562.0870131688-.0969675653.1593926556-.1468581003.2385613076s-.0883487179.1740289825-.0662291253.2649545816c.0212402186.0873108025.0964154203.1542624621.1806985597.185418121s.1768341517.031301301.2662888082.0228050019c.0314723435-.0029892051.0641940381-.0074854686.0903227353-.0252825679Z"/><path class="cls-2" d="m8.0860203926,3.0461445361c.015918335.0039819949.0303092745.0132164244.0444253114.022330662.0431448691.0278571521.0944115398.0397693622.1369073297.0681616372.0248199027.0165826662.0462470897.0400140141.0545845688.068675815.0089382496.0307270249.0019022822.064334699-.0124756444.0929240449-.0688778001.1369570309-.2166641538.231268987-.3416843752.3106321637-.1362663793.0865031605-.2722117073.1921801044-.4215740765.2517372524-.0587642324.0234318831-.114509151.0366546512-.1782861164.0309490118-.0647168212-.0057897298-.1305317986-.0234722762-.1932418141-.0387666471-.0648690366-.0158209354-.1289127276-.0357367099-.1899806304-.0629118844-.0589057458-.0262131774-.1146276571-.0589661954-.1686947527-.0939525911-.0121042915-.0078325926-.1364800929-.0871283136-.1289542201-.095202948.0173116343-.0185998628.3055419679.0154068133.3286287882.0078244952.0350945304-.011525969.0520346173-.0010622546.088436761-.00521633.0460887647-.0052594823.1111574452.0344778321.1565765483.0243078757.1087685963-.0243547655.188561595-.1276958212.2905830431-.1761891734.0311455437-.0148042577.0644039415-.024491933.0936990618-.0433981829.0398466319-.0257158988.0695460685-.0665575412.1024438799-.1024224836.055852302-.0608897527.1217437935-.1085092754.1808367332-.1651603783.0437139464-.0419075999.0928486954-.1105624012.1577696046-.0943223391Z"/><path class="cls-2" d="m3.579918374,1.8394209487c.1263440156-.1288280811.2526880284-.2576561651.3790320398-.3864842504.1102655754-.112433528.2217038303-.2843308148.3817228221-.3181547048.1717407062-.0363015584.342309623.0417663859.4604809032.1639207251.3579994477.3700665683.6206792442.8345168008.7432285357,1.3352469766.1365310899.5578590932.1602813309,1.1369918191.3324361725,1.6890593256.0427098927.1369623958.1345315248.322524418.1340710478.465415735-.000269451.0836137493-.0539072744.1734705262-.1367754078.1846152175-.0441335408.0059354246-.0878359132-.010696432-.1292654136-.0270241809-.5468873917-.215533489-1.0997555823-.4342557604-1.5796388494-.7737443921-.3098059692-.2191691431-.5905516131-.4892644004-.9406760569-.6356465219-.1234795275-.0516250624-.2554307755-.0877876283-.3652837906-.1642372019-.1953911447-.1359777863-.2172721965-.3851149096-.1228342347-.5906040997.0703508663-.1530773747.1906049416-.2766286534.3085654929-.3969084746.1783122551-.1818180426.3566244999-.3636360953.534936739-.5454541536Z"/></g></svg>