<?xml version="1.0" encoding="UTF-8"?>
<svg id="Where_is_found" data-name="Where is found" xmlns="http://www.w3.org/2000/svg" viewBox="0 0 32 32">
  <defs>
    <style>
      .cls-1 {
        fill: #f5fbff;
      }

      .cls-2 {
        fill: #d9dde3;
      }
    </style>
  </defs>
  <path class="cls-1" d="m2.46,12.65s1.23.27,2.31,0,5.24-1.73,8.21-2.27c1.93-.35,4.31-.63,5.88-.81.08,0,.25-.15.33-.15.06,0,.07.11.15.1.31-.04.57-.07.77-.09.19-.02.4-.24.48-.26.07-.01.1.16.22.13.91-.2,3.2-.7,4.34-.67.02,0,.17-.01.33.05.62.24,1.95.85,1.95.85,0,0-.68,1.48-.47,1.81.47.74.39,5.47.39,6.53,0,0,1.14,1.12,1.13,1.25s-.09.13,0,.21.06.07,0,.15.14.84.38,1.19c0,0,.11-.05.15,0s.31.45.35.61.07.19,0,.38c0,0-.74.75-3.32.75,0,0-.2-.15-.23-.39-.19-.1-.52-.16-1.11-.14-1.55.07-2.26.67-2.82.53s-.14-.35-.56-.14-.56.64-2.08.92-6.21.39-9,1.52c-1.27.49-.95.81-1.69,1.13s-1.52.81-2.08,1.27c0,0,.04-1.02-.18-1.94-.15-.66-1.31-4.79-2.42-8.58-.43-1.47-1.22-2.7-1.39-3.93Z"/>
  <path class="cls-2" d="m2.95,13.21s1.09.11,1.66,0,1.08-.28,1.08-.28c0,0-.69.49-1.06.54-.26.03-.76.11-1.2,0-.18-.05-.35-.13-.49-.26Z"/>
  <path class="cls-2" d="m3.19,13.67s1,.19,1.88-.02c0,0-.19.2-.79.26s-.86.07-.9,0c-.06-.08-.2-.24-.2-.24Z"/>
  <path class="cls-2" d="m3.55,14.41s1.37,2.29,1.7,4.05,1.48,5.36,1.48,5.36c0,0,.25,1.34.22,1.58s1.31-3.92.11-6.64-1.39-3-3.51-4.36Z"/>
  <path class="cls-2" d="m28.36,19.22s-.63-.44-.93-.69-.63-.34-.63-.34c0,0,.41.26.55.43s.81.74,1.05.86l.05-.08s-.09-.05-.09-.11v-.06Z"/>
  <path class="cls-2" d="m28.4,19.48s.05.81.4,1.2c0,0-.11-.07-.22-.19-.04-.06-.4-.56-.43-.71-.02-.23-.62-.99-.62-.99l.86.68Z"/>
  <path class="cls-2" d="m21.6,21.93s.47.33,1.2.07,1.99-.68,2.98-.22c0,0-.12-1.13-1.33-1.46-1.01-.27-2.75-1.36-3.29-1.69-.11-.06-.14,0-.14,0,0,0,.69,1.01.77,1.73s-.18,1.56-.18,1.56Z"/>
  <path class="cls-2" d="m20.77,9.4s.65,1.51.23,3.27-.68,2.78-.73,3.55c0,0-.21-2.48.05-3.9.24-1.24.02-2.76.07-2.82s.2-.16.2-.16c0,0,.04.09.18.05Z"/>
  <path class="cls-2" d="m18.96,9.77l.17-.11s.03.11.16.11.7-.11.7-.11l.41-.15.28,1.72-.36,1.23s.17.3-.19-.78-1.15-1.91-1.15-1.91Z"/>
  <path class="cls-2" d="m27.23,17.87c-.06-.01-.12-.02-.18-.04.08.02.15.03.18.04Z"/>
  <path class="cls-2" d="m27.25,17.88s-.75-.26-1.51-.38l-4.11-.96s1.86,1.01,2.7,1.04c.4.03,1.92.28,1.92.28,0,0,.79.17,1.04.39.24.22.95.72.95.72l-.98-1.09Z"/>
  <path class="cls-2" d="m20.58,16.2s.22-.41.31-1.44.51-1.95.51-1.95c0,0-.44,1.71-.37,2.11s-.45,1.29-.45,1.29Z"/>
  <path class="cls-2" d="m20.86,16.23s.22-.22.47-.87.7-1.16.7-1.16c0,0-.61,1.01-.64,1.28s-.54.74-.54.74Z"/>
  <path class="cls-2" d="m21.29,16.35c.13-.14.68-.83,1.19-2.41.58-1.8,1.66-3.28,1.66-3.28,0,0-.61,1.18-1.11,2.4-.19.46-.31.95-.46,1.35-.09.23-.24.75-.47,1.17s-.52.76-.56.81h-.24s-.02-.02,0-.04Z"/>
</svg>