<?xml version="1.0" encoding="UTF-8"?>
<svg id="Complications" xmlns="http://www.w3.org/2000/svg" viewBox="0 0 32 32">
  <defs>
    <style>
      .cls-1 {
        fill: #fff;
      }

      .cls-2 {
        fill: #c5686a;
      }
    </style>
  </defs>
  <g id="Tracciato_28-2" data-name="Tracciato 28-2">
    <path class="cls-2" d="m11.29,29.94l-.05-.07c-.04-.07,0-.16.11-.33.99-1.45,4.51-5.75,5.6-6.29.2-.1.38-.15.53-.15.16,0,.28.05.37.16.22.26.15.73.15.75l-.09.84c.94-.92,4.89-4.71,6.52-5.45.33-.15.64-.23.93-.23.68,0,1.06.41,1.19.8.15.44.01.9-.34,1.17-.84.63-9.43,6.93-9.52,6.99l-.03.02-.1.02c-.07,0-.13-.03-.18-.09-.15-.18-.14-.66.03-1.44.15-.71.14-.94.12-1,0,.02-.03.05-.05.08-1.11,1-4.71,4.22-5.13,4.22h-.06Z"/>
    <path class="cls-1" d="m25.36,19.28c1.14,0,1.48,1.26.79,1.78-.85.64-9.52,6.99-9.52,6.99,0,0-.03.02-.07.02-.12,0-.32-.16-.06-1.41.2-.93.14-1.13.05-1.13-.07,0-.16.13-.16.13,0,0-4.63,4.18-5.05,4.18-.06,0-.04-.07.08-.24.96-1.42,4.48-5.72,5.57-6.26.2-.1.36-.14.48-.14.54,0,.42.8.42.8l-.12,1.12s4.87-4.8,6.69-5.62c.34-.15.63-.22.89-.22m0-.2c-.3,0-.63.08-.97.23-1.55.7-5.15,4.11-6.35,5.28l.06-.57s.07-.54-.17-.82c-.11-.13-.27-.2-.45-.2-.17,0-.35.05-.57.16-1.18.59-4.77,5.04-5.64,6.33-.1.15-.19.29-.11.43l.06.11h.15c.42.01,3.32-2.54,5.08-4.13-.01.15-.05.37-.12.72-.23,1.08-.12,1.38,0,1.52.07.08.16.13.26.13.09,0,.15-.03.17-.04.1-.08,8.69-6.37,9.54-7,.39-.29.53-.79.37-1.28-.14-.42-.55-.86-1.28-.86h0Z"/>
  </g>
  <g id="Tracciato_29-2" data-name="Tracciato 29-2">
    <path class="cls-2" d="m7.1,21.44c-.12,0-.16-.16-.19-.32-.3-1.73-.75-7.27-.34-8.42.15-.41.35-.62.61-.62.36,0,.66.42.67.44l.52.66c.02-1.55.16-8.74.83-10.43.23-.57.55-.69.77-.69.38,0,.73.32.96.59.54.63.91,1.57.83,2.1-.17,1.04-1.97,11.53-1.99,11.64-.02.07-.09.18-.23.18-.24,0-.57-.35-1.02-1.06-.38-.61-.55-.77-.61-.81.01.02.01.06.02.1-.45,6.64-.74,6.64-.85,6.64Z"/>
    <path class="cls-1" d="m9.98,2.16c.82,0,1.82,1.77,1.69,2.57-.17,1.05-1.99,11.64-1.99,11.64,0,0-.03.1-.13.1-.14,0-.41-.18-.93-1.01-.43-.69-.63-.87-.71-.87-.1,0-.06.22-.06.22,0,0-.45,6.52-.75,6.52-.03,0-.06-.07-.09-.24-.29-1.69-.75-7.23-.35-8.37.15-.42.34-.55.51-.55.31,0,.59.4.59.4l.7.89s.09-8.82.83-10.68c.18-.45.42-.63.68-.63m0-.2c-.26,0-.62.13-.87.76-.64,1.62-.8,8.18-.84,10.18l-.35-.44s-.35-.47-.75-.47c-.31,0-.54.23-.7.69-.44,1.25.07,6.94.34,8.47.02.14.07.4.29.4s.48,0,.94-6.58c.09.11.22.3.41.6.61.98.91,1.1,1.1,1.1.17,0,.29-.13.32-.24.02-.13,1.83-10.62,1.99-11.66.1-.62-.36-1.6-.85-2.18-.24-.28-.62-.62-1.04-.62h0Z"/>
  </g>
  <g id="Tracciato_30-2" data-name="Tracciato 30-2">
    <path class="cls-2" d="m10.06,25.05l-.05-.05c-.04-.05-.06-.14,0-.4.54-2.16,2.85-8.83,3.91-9.96.28-.3.54-.45.78-.45.57,0,.75.85.76.88l.28,1.11c.75-1.64,4.67-10.13,6.34-11.76.32-.31.62-.47.91-.47.34,0,.65.23.88.65.52.95.58,2.71.13,3.42-.72,1.12-8.2,12.4-8.28,12.52-.01.02-.09.11-.22.11-.32,0-.56-.57-.73-1.75-.17-1.15-.3-1.28-.33-1.3.01.01-.03.09-.04.16-1.16,2.21-3.87,7.28-4.3,7.28h-.05Z"/>
    <path class="cls-1" d="m23,4.06c1.17,0,1.53,2.98.92,3.91-.73,1.14-8.28,12.51-8.28,12.51,0,0-.05.06-.13.06-.16,0-.43-.24-.63-1.67-.16-1.11-.31-1.38-.41-1.38-.1,0-.16.24-.16.24,0,0-3.79,7.21-4.2,7.21-.05,0-.05-.1,0-.32.53-2.11,2.83-8.79,3.89-9.91.29-.3.52-.42.7-.42.5,0,.66.8.66.8l.35,1.39s4.63-10.21,6.44-11.99c.32-.31.6-.44.84-.44m0-.2c-.31,0-.65.17-.98.5-1.6,1.58-5.27,9.41-6.25,11.53l-.21-.84c-.07-.35-.33-.95-.86-.95-.27,0-.55.16-.85.48-1.15,1.22-3.46,8.09-3.94,10-.07.26-.06.39,0,.48l.06.08h.12c.15.01.54.01,4.36-7.27.05.17.13.48.21,1.05.18,1.27.44,1.84.83,1.84.17,0,.27-.11.29-.14.09-.13,7.57-11.41,8.29-12.53.47-.73.41-2.54-.12-3.52-.32-.58-.7-.71-.97-.71h0Z"/>
  </g>
</svg>