<?xml version="1.0" encoding="UTF-8"?>
<svg id="Livello_2" data-name="Livello 2" xmlns="http://www.w3.org/2000/svg" viewBox="0 0 25.06 23.55">
  <defs>
    <style>
      .cls-1 {
        fill: none;
        stroke: #78a8c8;
        stroke-miterlimit: 10;
        stroke-width: .1px;
      }

      .cls-2 {
        fill: #78a8c8;
      }

      .cls-2, .cls-3, .cls-4, .cls-5, .cls-6 {
        stroke-width: 0px;
      }

      .cls-3 {
        fill: #93ccf0;
      }

      .cls-4 {
        fill: #3e6378;
      }

      .cls-5 {
        fill: #daeffc;
      }

      .cls-6 {
        fill: #fff;
      }
    </style>
  </defs>
  <g id="how_to_prevent" data-name="how to prevent">
    <g id="ic_good_practices_for_meat_production" data-name="ic_good practices for meat production">
      <path class="cls-1" d="m6.62,7.73c.99-.04,1.85-.21,1.97.2.12.43.12.83-.79,1.4-.47.3-4.92,2.25-5.24,4.9-.77,6.39-2.81,5.55-1.69,6.97.35.44,4.41,1.01,4.75,1.1,2.15.58-.69-.23,2.42.71"/>
      <path class="cls-4" d="m8.7,9s.28-.17.15-.27-.33-.16-.39-.32-.18.12-.16.25.4.33.4.33Z"/>
      <g>
        <path class="cls-6" d="m23.88,5.83c.04.12.06.26.07.41.04.5-.06,1-.29,1.45-.28.55-.76,1.03-1.42,1.42-.04.02-.08.04-.11.07.51-.13,1.04-.32,1.51-.6.4-.24.67-.49.82-.78.31-.58.11-1.4-.44-1.86-.04-.04-.09-.07-.13-.1Z"/>
        <g>
          <path class="cls-5" d="m24.31,5.58c-.62-.52-1.52-.7-2.4-.48-.14-.59-.26-1.41-.34-1.66-.1-.32-.27-4.09-6.58-3.34-6.35.76-6.12,4.17-6.12,4.17l.82,4.29c.99,1.49,4.13,1.54,4.13,1.54,0,0,4.96-.44,5.09-1.21.13-.77.58-1.34,1.35-2.15.56-.6,1.44-1.19,1.67-1.33.24-.04.48-.07.72-.04.28.03.52.15.66.33.11.14.17.33.19.58.03.42-.05.83-.24,1.21-.24.47-.66.89-1.24,1.23-.44.26-.93.46-1.41.66l-.25.1c-.26.11-.54.23-.84.36-1.57.18-3.18.38-4.58,1.14l.11.2c1.17-.64,2.51-.87,3.84-1.04-.38.2-.78.43-1.15.69-.3.21-.69.53-.67.99h.23c-.01-.27.17-.52.57-.8.56-.39,1.15-.7,1.71-.96,0,0,0,0,0,0,.48-.06.97-.11,1.45-.19.84-.13,1.92-.35,2.85-.9.48-.28.8-.6.99-.96.4-.76.16-1.83-.55-2.43Zm.35,2.33c-.17.32-.47.61-.91.87-.89.53-1.95.74-2.77.87-.23.03-.46.07-.69.09.04-.02.09-.04.13-.06l.24-.1c.48-.2.98-.4,1.44-.67.62-.37,1.07-.82,1.33-1.33.21-.41.3-.87.27-1.33-.02-.3-.1-.53-.23-.7-.08-.11-.19-.19-.32-.26.37.08.72.23,1,.47.63.53.85,1.48.49,2.15Z"/>
          <path class="cls-3" d="m19.41,1.49c.14-.99-2.46-1.16-5.22-.82-2.62.33-4.79,1.62-4.56,2.68.2.91,2.59,1.23,5.22.82,2.65-.41,4.38-1.45,4.56-2.68Z"/>
        </g>
      </g>
      <g>
        <g>
          <path class="cls-2" d="m18.03,10.22s-.97,1.95-2.54,3.43c-1.57,1.48-3.56,4.2-3.7,4.48s-.47.75-.1.98.7-.17.78-.26.98-1.4,1.32-1.73c.13-.14.21.01.21.01,0,0,.14-.05-.2.3s-1.79,2.63-1.86,3.19.29.72.29.72c0,0,.27.21.58-.14s1.32-2.26,1.32-2.26c0,0,.27-.57.51-.6s.08.36.08.36c0,0-.58.81-1.02,1.59-.32.57-.53,1.14-.58,1.24-.13.23-.24.62.09.81s.6.02.66-.04,1.32-2.33,1.63-2.81.41-.33.41-.33c0,0,.29.12-.15.75s-1.69,2.22-1.16,2.62.99-.3.99-.3c0,0,1.18-1.17,2.01-3.42.72-1.57.79-.72.79-.72,0,0,.14.76-.77,1.88-.36.4-.2.65.01.79s.42.12.59-.08,1.39-1.65,2.03-3.67c.59-2.06,1.56-3.66,1.86-3.93-.04-.41-2.28-2.85-4.08-2.86Z"/>
          <path class="cls-4" d="m18.12,10.35s.98.15,2.02.88c1.03.72,1.81,1.8,1.81,1.8,0,0-1.02-.14-2.2-.96-1.19-.82-1.62-1.71-1.62-1.71Z"/>
        </g>
        <g>
          <path class="cls-3" d="m19.54,16.19s-2.29.29-4.32,1.35-5.44,2.11-5.77,2.15-.92.21-1.02-.24.41-.64.53-.69,1.75-.49,2.19-.72c.19-.08.06-.22.06-.22,0,0,.1-.13-.37.1s-3.26.88-3.85.76-.62-.54-.62-.54c0,0-.11-.35.34-.53s2.72-.54,2.72-.54c0,0,.66-.08.78-.31s-.33-.21-.33-.21c0,0-1.02.3-1.94.47-.68.13-1.33.14-1.44.16-.28.04-.7.03-.78-.38s.19-.61.27-.65,2.79-.51,3.38-.66.48-.29.48-.29c0,0-.02-.34-.8-.11s-2.81.92-3.03.25.65-.89.65-.89c0,0,1.58-.77,4.12-.82,1.83-.18,1-.54,1-.54,0,0-.72-.41-2.15.11-.53.22-.72-.03-.78-.29s.02-.46.29-.56,2.14-.81,4.38-.76c2.27.13,4.22-.29,4.58-.5.4.18,2.06,3.28,1.45,5.08Z"/>
          <path class="cls-3" d="m19.44,16.04s.19-1.04-.18-2.32-1.18-2.44-1.18-2.44c0,0-.21,1.07.2,2.54s1.16,2.22,1.16,2.22Z"/>
        </g>
      </g>
      <path class="cls-2" d="m7.17,8.4s-1.78.31-2.38.36c-.66.06-2.64.08-2.64.08-.51.05-.97-.34-1.01-.85l-.03-.31c-.05-.51.34-.97.85-1.01l1.48-.2s1.81-.28,2.42-.3c.28,0,1.12.06,1.12.06.51-.05.97.34,1.01.85l.03.31c.05.51-.34.97-.85,1.01Z"/>
      <path class="cls-2" d="m3.31,14.37l-.55,2.98s-.02.09-.04.14l-.58,1.78c-.12.5-.62.81-1.13.69l-.3-.07c-.5-.12-.81-.62-.69-1.13l.61-3.19s.02-.09.04-.14l.52-1.58c.12-.5.62-.81,1.13-.69l.3.07c.5.12.81.62.69,1.13Z"/>
      <path class="cls-2" d="m6.28,23.52l-2.48-.42s-.09-.02-.13-.03l-2.27-.8c-.5-.13-.8-.64-.67-1.14l.08-.3c.13-.5.64-.8,1.14-.67l1.74.21s.09.01.13.03l1.66.5s.04.01.06.02l1.29.5c.5.13.8.64.67,1.14l-.08.3c-.13.5-.64.8-1.14.67Z"/>
      <path class="cls-4" d="m1.5,8.26c-.29-.37-.12-.33-.12-.33.47.22.94-.1.78-.06-.16.04-.84.1-.87-.18-.03-.28.31-.67.31-.67-.27.1-.38.63-.4.66-.05.07-.07.12-.09.16-.05-.02-.13-.05-.2-.12-.09-.11-.24.14-.11.2.13.06.22.23.18.28-.04.05.02.16.09.06.07-.09.06-.23.18-.11.01.03.03.06.03.06.26.47.77.44.77.44,0,0-.26-.02-.55-.4Z"/>
      <path class="cls-4" d="m2.94,6.73s1.06.31,1.47.88.1-.58-1.47-.88Z"/>
      <path class="cls-4" d="m4.08,6.66s1.06.31,1.47.88.1-.58-1.47-.88Z"/>
      <path class="cls-4" d="m5.22,6.58s1.06.31,1.47.88.1-.58-1.47-.88Z"/>
      <path class="cls-2" d="m8.61,10.55s-1.41,1.12-1.91,1.46c-.55.37-2.28,1.33-2.28,1.33-.43.29-1.01.17-1.3-.26l-.17-.26c-.29-.43-.17-1.01.26-1.3l1.2-.89s1.45-1.11,1.98-1.42c.24-.14,1.01-.48,1.01-.48.43-.29,1.01-.17,1.3.26l.17.26c.29.43.17,1.01-.26,1.3Z"/>
      <path class="cls-4" d="m3.56,13.15c-.44-.19-.26-.23-.26-.23.52-.04.78-.54.66-.43-.12.11-.69.49-.85.26-.16-.23-.05-.74-.05-.74-.19.22-.04.74-.04.77,0,.08,0,.14,0,.18-.06.01-.14.02-.23-.01-.13-.05-.15.24,0,.23.15,0,.31.1.29.16-.01.06.09.13.11,0,.02-.12-.06-.23.1-.18.02.02.05.04.05.04.46.29.89.02.89.02,0,0-.24.11-.68-.08Z"/>
      <path class="cls-4" d="m4.09,11.12s1.08-.24,1.71.07-.19-.56-1.71-.07Z"/>
      <path class="cls-4" d="m5.06,10.5s1.08-.24,1.71.07-.19-.56-1.71-.07Z"/>
      <path class="cls-4" d="m6.02,9.89s1.08-.24,1.71.07-.19-.56-1.71-.07Z"/>
      <path class="cls-4" d="m.54,19.83s-.32.04-.31.16.28-.01.4.06.13.28.31.27.08-.36.08-.36c0,0,.51-.07.73-.37,0,0-.39.28-.62.24s.16-.19.27-.6c0,0-.23.35-.4.41s-.39-.21-.41-.54-.08.28.01.46-.28.07-.36-.15-.17.28.31.41Z"/>
      <path class="cls-4" d="m.58,18.23s1.05-.44,1.39-.45-.6-.2-1.39.45Z"/>
      <path class="cls-4" d="m.96,16.95c-.08.1.71-.61,1.33-.76.48-.11-.57-.14-1.33.76Z"/>
      <path class="cls-4" d="m1.32,15.51s.65-.49,1.1-.49-.28-.33-1.1.49Z"/>
      <path class="cls-2" d="m7.5,22.55s.34-.07.26.08-.14.36-.14.49-.19-.26-.19-.26l.08-.3Z"/>
      <path class="cls-4" d="m2.16,20.57c-.05-.02.94.62,1.03,1.13s.28-.57-1.03-1.13Z"/>
      <path class="cls-4" d="m3.93,21.1s.92.99,1.07,1.25-.17-.77-1.07-1.25Z"/>
      <path class="cls-4" d="m5.46,21.47s.93.79.97,1.17.28-.53-.97-1.17Z"/>
    </g>
  </g>
</svg>