<?xml version="1.0" encoding="UTF-8"?>
<svg id="Livello_2" data-name="Livello 2" xmlns="http://www.w3.org/2000/svg" viewBox="0 0 27.41 20.05">
  <defs>
    <style>
      .cls-1 {
        fill: none;
        stroke: #daeffc;
        stroke-linecap: round;
        stroke-miterlimit: 10;
        stroke-width: .25px;
      }

      .cls-2 {
        fill: #78a8c8;
      }

      .cls-2, .cls-3, .cls-4, .cls-5, .cls-6, .cls-7, .cls-8 {
        stroke-width: 0px;
      }

      .cls-3 {
        fill: #82b7d9;
      }

      .cls-4 {
        fill: #5c7a8c;
      }

      .cls-5 {
        fill: #93ccf0;
      }

      .cls-6 {
        fill: #83b7da;
      }

      .cls-7 {
        fill: #3e6478;
      }

      .cls-8 {
        fill: #fff;
      }
    </style>
  </defs>
  <g id="how_to_prevent" data-name="how to prevent">
    <g id="ic_Applying_an_approved_bactericidal_treatment_to_foods" data-name="ic_Applying an approved bactericidal treatment to foods">
      <path class="cls-6" d="m8.1,4.6c1.48.09,4.25.52,2.95,5.06-1.7,4.6-2.85,4.83-3.05,5.01s-.66.3-1.75,0-2.23-.11-2.23-.11c0,0-2.95.18-3.71-3.7-.76-3.89-.08-5.97,2.03-6.25.99-.1,1.58.32,2.32.39s1.97-.49,3.45-.4Z"/>
      <path class="cls-2" d="m3.66,6.23s.31-.75,2.35-.29c.67.16,1.56.14,1.91.35s.23.39.08.48c-.23.14-1.01.1-1.55-.09-.27-.09-1.25-.53-1.61-.6-.85-.16-1.07.08-1.17.15Z"/>
      <path class="cls-4" d="m3.61,6.21s.78-.53,1.92.08,2.24.57,2.24.57c0,0-1.16.31-2.12-.25s-2.05-.39-2.05-.39Z"/>
      <path class="cls-4" d="m5.34,6.19s.25-2.88.83-3.63c0,0,.58.27.88.25,0,0-1.18,1.1-1.58,3.43l-.13-.06Z"/>
      <path class="cls-2" d="m4.86,14.14c.54-.04,1.24-.04,1.9.21s1.07.04,1.28-.12,2.13-1.92,2.96-5.91c.08-.34-1.25-.2-1.7,1.64-.46,1.85-1.03,2.25-1.66,2.89s-1.72.69-2.19.7-1.13.62-.58.58Z"/>
      <path class="cls-2" d="m5.27,6.07s.4-2.52-1.38-2.92S1.47,1.76,1.47,1.76c0,0,.05,2.65,1.35,3.16s1.74.46,2.45,1.14Z"/>
      <path class="cls-4" d="m3.44,4.21c1.31.48,1.64.64,1.83,1.86,0,0-.14-.54-1.88-1.05-1.64-.48-1.72-2.55-1.72-2.55,0,0,.47,1.26,1.78,1.74Z"/>
      <path class="cls-4" d="m14.9,2.16l.35,1.28c.07.25.33.4.58.33l1.61-.44c.2-.05.4-.06.59,0l.87.25c.16.05.33.05.5,0l5.13-1.41c.16-.04.23-.24.12-.37l-.36-.45C23.65.52,22.67.02,21.63,0h-.37s-6.08,1.67-6.08,1.67c-.22.06-.34.27-.28.49Z"/>
      <path class="cls-2" d="m17.57,12.82l1.82,6.63c.12.43.57.69,1.01.57l6.4-1.76c.43-.12.69-.57.57-1l-2.4-8.74c-.16-.6-.46-1.16-.86-1.65l-2-2.4-.42-1.52-2.28.63.1.93.2,2.09c.06,1.04-.43,2.78-1.08,3.6l-.68.86c-.4.49-.54,1.15-.37,1.77Z"/>
      <path class="cls-4" d="m17.42,6.28s1.44-.32,2.08-1.79l-.1-.93c-.17.05-.34.05-.5,0l-.87-.25c-.19-.05-.39-.05-.59,0,0,0,.78,1.54-.02,2.96Z"/>
      <path class="cls-5" d="m20.46,7.37c.02.33-.02.67-.12.98-.2.64-.64,1.76-1.44,2.68-1.19,1.37-.36,2.64,0,3.96s.75.43.42-.79-.45-1.97.64-3.61.78-2.79.61-3.53c-.13-.6-.14-.27-.12.31Z"/>
      <line class="cls-1" x1="13.24" y1="2.55" x2="7.99" y2="2.3"/>
      <line class="cls-1" x1="14.05" y1="4.71" x2="10.16" y2="8.24"/>
      <line class="cls-1" x1="13.03" y1="3.83" x2="7.99" y2="5.33"/>
      <g>
        <path class="cls-7" d="m25.35,13.04h0c-.33.24-.32.74.02.96h0c.49.32.26,1.08-.33,1.07h0c-.41,0-.7.41-.55.79h0c.21.55-.43,1.02-.89.68h0c-.33-.24-.8-.08-.91.32h0c-.15.56-.95.58-1.12.02h0c-.12-.39-.6-.54-.92-.28h0c-.45.36-1.1-.09-.92-.64h0c.13-.39-.17-.79-.58-.77h0c-.58.03-.84-.72-.37-1.06h0c.33-.24.32-.74-.02-.96h0c-.49-.32-.26-1.08.33-1.07h0c.41,0,.7-.41.55-.79h0c-.21-.55.43-1.02.89-.68h0c.33.24.8.08.91-.32h0c.15-.56.95-.58,1.12-.02h0c.12.39.6.54.92.28h0c.45-.36,1.1.09.92.64h0c-.13.39.17.79.58.77h0c.58-.03.84.72.37,1.06Z"/>
        <path class="cls-3" d="m24.65,13.15h0c-.26.19-.25.58.01.76h0c.38.25.2.85-.26.84h0c-.32,0-.55.32-.43.62h0c.16.43-.33.8-.7.53h0c-.26-.19-.63-.06-.72.25h0c-.12.44-.74.45-.88.02h0c-.1-.31-.47-.42-.72-.22h0c-.36.29-.87-.07-.72-.5h0c.1-.31-.13-.62-.46-.6h0c-.46.02-.66-.57-.29-.83h0c.26-.19.25-.58-.01-.76h0c-.38-.25-.2-.85.26-.84h0c.32,0,.55-.32.43-.62h0c-.16-.43.33-.8.7-.53h0c.26.19.63.06.72-.25h0c.12-.44.74-.45.88-.02h0c.1.31.47.42.72.22h0c.36-.29.87.07.72.5h0c-.1.31.13.62.46.6h0c.46-.02.66.57.29.83Z"/>
        <path class="cls-8" d="m23.26,12.48c-.14,0-.83.49-1.5,1.41-.17-.1-.53-.3-.89-.3h0s-.08.04-.1.08c-.01.04,0,.09.04.12.25.18.67.55.71.76.01.05.09.14.14.14.12,0,.2-.13.42-.47.27-.42.67-1.06,1.21-1.5.04-.03.09-.12.07-.16-.02-.04-.06-.07-.11-.07Z"/>
      </g>
    </g>
  </g>
</svg>