<?xml version="1.0" encoding="UTF-8"?><svg id="Livello_2" xmlns="http://www.w3.org/2000/svg" viewBox="0 0 28.4068010797 23.4652803309"><defs><style>.cls-1{fill:#8fb7d6;}.cls-2{fill:#d9e2de;}.cls-3{fill:#a1cbed;}.cls-4{fill:#476376;}.cls-5{fill:#83a7c4;}.cls-6{fill:#2e3351;}.cls-7{fill:#7799b2;}</style></defs><g id="how_to_prevent"><g id="ic_Avoid_swallowing_water_while_swimming_in_untreated_waters"><path class="cls-4" d="m26.3538465982,10.2701311846C25.6086060793,4.3379665129,20.5560870663-.0001857006,14.7288001875.000000006c-.4876654879.0000464266-.9809021732.030409453-1.4772958705.0927604384C6.8228995214.9004912286,2.2664027925,6.7666372099,3.0740407235,13.1951491522c.7454262255,5.9322110983,5.7979452386,10.2701311786,11.6252321173,10.2701311786.4876654879,0,.9809021732-.030409453,1.4772958705-.0927604384,6.428419089-.8076843576,10.9851015245-6.6738303389,10.177277887-13.1023887079Zm-10.5564907302,10.0834960624c-.3647277297.0458230994-.734098124.0690364224-1.0980830273.0690364224-4.3615048164,0-8.0613370764-3.270246506-8.6063858985-7.606773787-.2650032944-2.1089768137.2560893784-4.1371712637,1.3298448433-5.7954846263l13.6633618695,10.6131312381c-1.3866710578,1.5023198326-3.2366800411,2.4622835886-5.288737787,2.7200907529Zm6.6627807972-4.6857949376L8.9873097503,5.2027092183c1.2613191141-1.1093647022,2.8550530123-1.8663511626,4.6434074099-2.0910561284.3645420231-.0457766728.734098124-.0690364224,1.0984544405-.0690364224,4.3609476967.0004178398,8.0609656632,3.2704786393,8.6058287787,7.6068666403.2196908881,1.7489381753-.0904391061,3.4821841443-.8748637141,5.0183490017Z"/><ellipse class="cls-7" cx="11.4326692564" cy="14.4179592779" rx="9.2142430703" ry="1.9815438756"/><path class="cls-7" d="m15.4344675997,16.4204877654c-1.6380973281.36783775-3.8238801604.5918092706-6.2205430655.5918092706-5.0892404239,0-9.2139245342-1.0103364675-9.2139245342-2.2576959904,0-.7978199636,1.6920496587-1.5007868009,4.2472966937-1.9013332136-1.8326530044.413617904-2.9802999992,1.0070636056-2.9802999992,1.6642702453,0,1.2457430484,4.1263205413,2.2576959904,9.2139245342,2.2576959904,1.8244708496,0,3.5230662322-.1307747817,4.9535463711-.3547463023Z"/><path class="cls-7" d="m7.3210004677,12.4665079316c1.6380973281-.3678377501,3.8238801603-.5918092708,6.2205430655-.5918092709,5.0892404239-.0000000002,9.2139245342,1.0103364671,9.2139245343,2.25769599,0,.7978199636-1.6920496587,1.5007868009-4.2472966936,1.9013332138,1.8326530044-.4136179041,2.9802999992-1.0070636057,2.9802999991-1.6642702454,0-1.2457430484-4.1263205414-2.2576959902-9.2139245343-2.25769599-1.8244708496,0-3.5230662322.1307747818-4.9535463711.3547463025Z"/><path class="cls-3" d="m5.8926363401,14.4207362221l4.5122911793-2.460014167s2.9716298306-5.2734005349,6.6776680192-7.2033564007c0,0,.6751920049-.6659706861,1.8304472767-.4213283933,0,0,4.4851087024.4077371548,6.9994878234,1.8891821504s2.2289631127,2.9900724682,2.2289631127,2.9900724682c0,0,.5903733949,1.5629924266.0097706891.910612979,0,0,.1125504573.8970217405-.172865551.1630948619l-.1676252747-.2446422929s.0724866053,1.0419949511-.3171288981.027182477-1.0601166024-1.1960289873-1.0601166024-1.1960289873c0,0,.5980144936.8607784378.4167979804,1.1326032077,0,0-1.8031043066-1.71249605-1.6762527473-2.754491001,0,0-1.2594547669-.3352505495-2.1111723791-.2265206415s-4.013945768.0634257796-4.4216829227-.1359123849c0,0-.7158052272,2.3558146719-2.6185786161,2.8541600833,0,0-.2083989902,1.3591238492-1.0782382537,1.8031043066,0,0,1.0597956161.3783097717,2.1381943629-.5991369467s.9424863619,2.9368299673.9424863619,2.9368299673c0,0,.2808855955.588953668.1721556876.8064134839s-4.7659942978,1.3591238492-10.5286794184.534588714c0,0-2.0930507278-.3533722008-1.7759218296-.8064134839Z"/><path class="cls-5" d="m17.0825955387,10.9493175408l-.3863119415.2967437979s-.827678204,1.4893613104-.1073425639,2.7397552516c0,0,.3805546778.5708320167,1.2368027028.2990072468l.3192635576-.0974031235-.1833511727-2.5289636946-.8790605823-.7091394784Z"/><path class="cls-3" d="m17.4209825837,10.1638447006c-.2770009891.6312824348-.6547770056,1.2789030122-.7588871636,1.9677132212-.0654584239.4330838748-.0006843346.8759497561.1075866329,1.2966532883.0710290895.2759944743.1883645401.5804151328.4791448423.6861534805.1993381645.0724866053.3986763291.1359123849.9423258688,0s1.7578001783-.7520485299,1.7578001783-.7520485299c0,0,1.1597856846-.6976835759,1.4769145828-1.3681846749s.1812165132-1.0601166024.1812165132-1.0601166024c0,0-.1540340362-.8426567865-.8064134839-1.4406712801s-1.4859754085-.6886227503-1.4859754085-.6886227503c0,0-1.3884082028.20753952-1.8937125625,1.3591238476Z"/><path class="cls-4" d="m17.5551829392,10.0473550222s.8788967772-.6795639244.1540307243.8788980893c0,0,.8245351352-1.5675228394,2.3467538463-.5798928423s1.041994951,1.8846517376,1.041994951,1.8846517376c0,0-.1977130336.4291122568-.359667213.5538664001s2.0209155413-1.1757071953.5899272255-3.012235498-2.7038613996-.8669579171-2.7038613996-.8669579171c-.2222752202-.0161647449-1.2061094888.9365573789-1.0691781345,1.1416700305Z"/><path class="cls-5" d="m18.7824116289,6.1164895035s.049087614.4756913743-.1411774201.7746992415c-.0271008933.0687450678,1.2759371953.3263332708,4.1830368437.1692708222-.0036719914.0043704681,1.0662744674-.1172442915,2.3497951233.1931637121,0,0-1.5856373191-.5300584566-2.6321626829-.5685669656s-3.5503420881-.5142018563-3.7594918639-.5685668102Z"/><path class="cls-5" d="m11.1932193519,12.6402839796s.6523794476.2005401108.6387882091,1.4797807623c0,0,.7882918325-2.2719811542,2.0658682508-3.1126836611,0,0-1.658131096,1.225165744-2.7046564599,1.6329028987Z"/><ellipse class="cls-6" cx="19.9437039503" cy="12.9274509783" rx=".4137528742" ry=".6685439124" transform="translate(-3.6695379868 15.6265473589) rotate(-39.4720459243)"/><ellipse class="cls-6" cx="18.721961851" cy="11.4438851598" rx=".4137528742" ry=".6685439124" transform="translate(-3.0050695311 14.5115341651) rotate(-39.4720459241)"/><path class="cls-6" d="m19.535029447,12.4911614428c.0286123303-.0582364234-.1391195451-.3737535687-.360575728-.5485916602-.0840754887-.0665676076-.130791355-.0719801536-.140153582-.0642701979l-.0907470657-.1101944878c.0458426287-.0377521973.1289439608-.064470816.2645713761.0230307005.0750426125.0483622654.1603080581.1282166953.2400662214.2250673193.0366887551.0445512871.3534994991.4395625095.179598823.5827727226l-.0907470657-.1101944878c-.0011837298.000974822-.0018863755.002095239-.002012979.0023800912Z"/><ellipse class="cls-1" cx="18.721961851" cy="11.4438851598" rx=".33903289" ry=".5478109975" transform="translate(-3.0050695311 14.511534165) rotate(-39.472045924)"/><ellipse class="cls-1" cx="19.9437039503" cy="12.9274509783" rx=".33903289" ry=".5478109975" transform="translate(-3.6695379868 15.6265473588) rotate(-39.4720459241)"/><ellipse class="cls-4" cx="18.01491877" cy="13.1662153188" rx=".512452307" ry=".4070480031" transform="translate(-4.2973057355 12.9400257367) rotate(-35.5804122545)"/><path class="cls-2" d="m17.9617646039,12.7445744984l.432811345.6110103664s.2388155901-.3033070115.0047264941-.536116932c0,0-.1648135444-.1625253237-.4375378391-.0748934344Z"/></g></g></svg>