<?xml version="1.0" encoding="UTF-8"?><svg id="Livello_2" xmlns="http://www.w3.org/2000/svg" viewBox="0 0 15.4242623212 11.5579449272"><defs><style>.cls-1{fill:#fff;}.cls-2{fill:#6b8aa1;}.cls-3,.cls-4{fill:#8fb7d6;}.cls-5{fill:#a3bfce;}.cls-6{fill:#cee2ef;}.cls-7{fill:#46555b;}.cls-8{fill:#63798a;}.cls-9{fill:#59717c;}.cls-10{fill:#83a7c4;}.cls-11{fill:#7798af;}.cls-4{opacity:.33;}</style></defs><g id="how_to_prevent"><g id="ic_Constant_maintenance_of_the_cold_chain_during_the_handling_transport_and_storage_of_food_items"><path class="cls-6" d="m15.3983059103,3.427104716l-.169921875,5.5100097656s.0200195312.4299926758-.3400878906.5100097656c-.3598632812.0800170898-9.3598632812,2.0100097656-9.3598632812,2.0100097656,0,0-.5400390625.1400146484-1.0100097656.0900268555v-6.7200317383c.2199707031.0200195312.5.0100097656.8000488281-.049987793l10.0798339844-1.3500366211Z"/><ellipse class="cls-4" cx="7.803785588" cy="7.3499071995" rx=".766878158" ry=".9201866168"/><ellipse class="cls-4" cx="9.9118954469" cy="6.9280277712" rx=".766878158" ry=".9201866168"/><ellipse class="cls-4" cx="11.9869340323" cy="6.5727706847" rx=".766878158" ry=".9201866168"/><path id="Tracciato_217" class="cls-7" d="m9.8957759816,6.6784335647s.0004073269-.0405168346.0736706624.0013263306.0909084079.0463281827.130474143.0407499636.1703696844.0614883235.1013119992.0986361689-.1278333948.1030302734-.1278333948.1030302734l-.1961814702-.2172715385.0185580603-.026471198Z"/><path id="Tracciato_216" class="cls-9" d="m9.6636052155,6.7032128243s.0039250274-.0965553269.1280009281-.0531890853.1333195072.0666791583.1333195072.0666791583l.0449094576.0517001773-.1701351074.0411590243-.1059820272.0454113753-.0301127584-.1517606499Z"/><path id="Tracciato_215" class="cls-11" d="m9.7146837393,6.7804995664s.0073814782-.0880885743.1144611293-.0403756373.1983861025.0180942547.1983861025.0180942547c0,0,.1142265665-.0300931242.0687821731.1103874749s-.2795878973.1580190166-.2795878973.1580190166l-.1020415077-.2461251089Z"/><path id="Tracciato_214" class="cls-10" d="m9.7226103669,7.2754265441s-.0840123485.0009803059-.1506360346-.1404358843-.0293931901-.2548052364.0058235452-.3244457705.0176480256-.0977223268.0176480256-.0977223268c0,0-.0151162228-.0535927522.036208437-.0361355965s.0723139943.0919885508.0723139943.0919885508c.0130003624.0173770396.0302703226.031103156.0501327875.0398470881.0312034566.0127081919.0787986663.1384223126.068315066.2054657194s-.0561579024.1186473976.0071835461.2490560289c.0000150586-.0000017567-.0670717493-.0122830467-.1069893671.0123821909Z"/><path id="Tracciato_219" class="cls-1" d="m9.759916218,7.295842907c-.0221273948-.0148510859-.1124481137-.0676655537-.1314918156-.1194015673s.0049300011-.0193980423.0049300011-.0193980423c0,0,.045360175.0732095194.1026912095.0889016597s-.1237575163-.0683745002-.1431557861-.2199169033.0070341219-.0804003836.0070341219-.0804003836c0,0,.0265877638.1871261544.1174941023.2259454624,0,0-.0981139159-.1657927123-.0948385662-.2850443452.0005146655-.0188240894.0013003131-.0348481555.0023907055-.0496048173.0052418977-.070984423.0167382371-.0732780574.0271246971-.061387968.0123289074.0141197463.0041686499.0837790636.0198125072.1674718211.010920541.0550004149.0266035201.1089464106.0468707983.1612296708.003011432-.0867482227.0545303591-.2282083423.0701375599-.1868524824.0067994531.0166631073-.0567265071.2342844118-.0325659644.2696586891.0644534467.0610290988.025697888.1236506478.0035664295.1087992064Z"/><path id="Tracciato_213" class="cls-10" d="m9.8032101116,7.3923835077s-.042172416-.00859124-.0522279082-.012057763-.0257788327-.0135009631-.0225980833-.0344593939.0057985408-.0428694937-.0074960058-.0572948801.0102248207-.0430826475.1054724597-.0296671129c0,0-.0568817523-.0752348698-.0251794115-.1947995366s.0769286122-.1107184461.0769286122-.1107184461c0,0,.0234654474.0042085505.0546168167-.0315476208s.0738952044-.044673164.1123470828-.040575876c.0263963611.0031373081.0524423063-.0081474138.0682078136-.0295496883.006368777-.0095518706.0091824293-.0602015002.0453277749-.0537207642s.0501088612.0390440208.0697863754.0515267821.0235645076-.0177093992.0491050714.0170431079-.0018791993.0344885104.0069700469.0660741222.0283779414.3929959315-.3295002124.4099824542c-.0335545213.0023534526-.0514935498.0024602336-.0706014516.0331899333s-.0811589809.0165746822-.0811589809.0165746822Z"/><path id="Tracciato_218" class="cls-1" d="m9.7452832932,7.291074073s.0114974839.0322011923.0067734529.0562446972.0709947127.0279956212.0709947127.0279956212c0,0,.0267635849.0030064795.0368833434-.003090009s.0110510801-.0418107062.0438849388-.0474348861.1642409546-.0212048709.2055798642-.0628524394.0003079588-.0202024161.0003079588-.0202024161c0,0-.0816719203.0519364803-.1590893849.0449787108s.1787176465-.0175758825.2540278868-.1533907612.0181552379-.0786389732.0181552379-.0786389732c0,0-.0963136842.1667035457-.2237522714.168839423,0,0,.1791645166-.1193667469.2151022545-.2332855585.0056732889-.017981979.0100685894-.0334205036.0136532322-.0477776496.0172521318-.0690602941.0035493493-.0755971676-.0135106973-.0683084287-.0202602052.0086557739-.0333853214.0775751205-.081187101.1507072625s-.1131462866.1345266183-.1131462866.1345266183c.0253516743-.0831077448.0080363466-.23634223-.025497066-.2031978874-.0141537107.0131604986-.0073165295.2429170203-.0496065357.2671590995-.03345895.0191940558-.0602244281.0046081054-.0510874281-.1073960651.0181036472-.1820154526-.01291344-.1265126277-.0169836325-.1209871794-.0796544016.1260159453-.0313159472.2237395801-.0122879688.2691474135-.0135328474.0087938428-.0142227412.0116007602-.0210692162.0125498679-.0211802841.0060674727-.0577959382-.0030547235-.0787951861-.0029940168-.0103451419.0000367123-.0193501074.0174075565-.0193501074.0174075565Z"/><path class="cls-1" d="m12.1264761883,6.3472317305s.0134830338.0199029403.0117644692.0379381324-.0045676894.0297939631.0009453596.0489218933.0085611175.0282107375.001564063.0397585253-.0124487054.0227163479-.0124487054.0227163479c0,0-.0208536179.0251884516-.0381232313.0249204836s-.0266817868-.0102467764-.0266817868-.0102467764c0,0-.0029746308-.003775825-.0123204896-.0068074406s-.0235296899-.0057477536-.0273419279-.0262908437-.0030916046-.0309603178.0096059061-.0443165607.0189361097-.0279948378.0225294439-.0333823808.0249588089-.0151362055.0249588089-.0151362055c0,0,.0130696154-.0101706289.0150227392-.015565295s.0232234823-.0365931004.0305253512-.0225098796Z"/><path class="cls-7" d="m11.795912161,6.6489826736s-.0062246934.0030105954-.0112187625-.0023177563-.0413697401-.0717713735-.0423249327-.0739946719c-.0009551926-.0022232983-.0268166225-.045850249-.0299523747-.0569596176,0,0,.0080848761.004569896.0050296846-.0028727008s-.018153575-.0188933711-.0231498506-.0459308097.0034619927-.0209459196.0034619927-.0209459196c0,0,.0140684657.0055844847.009102889-.0063047088s-.0067811548-.0159494393.0060418619-.0137710862.0114507743-.0150983834.0114507743-.0150983834c0,0,.0021854762-.0144632272.0249040307.0196945652s.1245223603.1201819132.0955860729.1625095558c0,0-.0139182486.0010654359-.0319762938.0187105838s-.0169550918.0372809494-.0169550918.0372809494Z"/><path class="cls-10" d="m11.7984666123,6.6497527404s-.0211975708.0070944171.0264606299.0527457224c.0477387615.0493180772.1023611111.0465642625.1023611111.0465642625.0309004442.0608231264.0908489388.0313661557.0908489388.0313661557,0,0,.0343184107.0513824606.134423821-.0047228879s.0643550625-.0665844775.0763319399-.0695234928.0362177627-.0527163777.0489415592-.0943425495-.0152661248-.083911579-.0152661248-.083911579c-.0041567561-.0870473313-.0624124687-.1141230952-.0624124687-.1141230952-.0006280331-.0109055085-.0164328037-.0152194761-.0345650094-.0390334786s-.0391148211-.0275400674-.0391148211-.0275400674c0,0,.0134830338.0199029403.0117644692.0379381324-.0017185646.0180351921-.0045676894.0297939631.0009453596.0489218933s.0085611175.0282107375.001564063.0397585253-.0124487054.0227163479-.0124487054.0227163479c0,0-.0195610329.0237789548-.0381232313.0249204836-.0009687032.0082934849.010778196.0138762939.010778196.0138762939-.0051220737.0258394174.0083934407.0520095905.0083934407.0520095905-.0223065341.012087499-.0186060081.048258077-.0186060081.048258077,0,0-.0480078006.0052268216-.057018809.0213649715-.0184259563-.0270188438-.0469402772-.0110101484-.0469402772-.0110101484-.0091749044-.0423966669-.1402613196-.0507812166-.1393866878-.05222469,0,0-.0127679973.0003724868-.0321447318.0194091431s-.0167866538.0365823901-.0167866538.0365823901Z"/><path class="cls-8" d="m12.095047246,6.5239942098s.0009147429.0064659765.0082326858.007326911.0319621919-.021846212.0356211634-.0293793885.0051656068-.0264737347.0077484102-.0294870054c.0025828034-.0030132706-.0038742051-.0008609345-.0126987833.0182948573s-.027442286.0311909381-.038903476.0332446256Z"/><path class="cls-8" d="m12.2019579128,6.4201328701s.0045736201.0320159103-.0085758086.0634601964c0,0,.006113321-.002210532.0093455177-.0122536947.0032321967-.0100431627.0127415192-.0405009834.0063766771-.0463470346-.0072269751-.0066378788-.0071640151-.0052420544-.0071463862-.0048594671Z"/><path class="cls-8" d="m12.259700962,6.5331416385s-.0057933715.0264109583-.0525977148.041438196c0,0,.0041469337.0020479624.010788585,0,.0205817145-.0060848337.0479074156-.019188421.0479074156-.0288604816-.0008429983-.0052508034,0-.0084075631-.0060982858-.0125777144Z"/><path class="cls-8" d="m12.2221912984,6.7091344338c-.0258354497-.0063944333-.0505879863-.0172653267-.0746085074-.0311585126,0,0,.057329607.0512525094.0689398912.0475890539.0083223665-.0061700303.0056686162-.0164305412.0056686162-.0164305412Z"/><path class="cls-8" d="m12.014721388,6.7731663553s-.0074322858-.0451654291.0042878572-.0660330007c0,0-.0185807145.0186190565-.0151504287.0680340007,0,0,.004002.0037161429.0108625715-.002001Z"/><path class="cls-8" d="m11.9266773871,6.7417439544s.0005717143-.0391843141.0214392859-.0577650286c0,0-.0237261431.015722143-.0320160003.0491674291-.0017151429.0111484287.0105767144.0085975995.0105767144.0085975995Z"/><path class="cls-9" d="m12.1156289605,6.3520987794s.0065747144-.0085757144.009719143,0c.0031444286.0085757144.0050930605.0103618388.0077180751.0180089673.0034090772.0099313194-.0014112818.0254368348-.0013395372.040044338-.0057280688.0008419798-.0065472772-.0195856056-.0055243295-.0275573924.0013156476-.0107482287-.0016142521-.0143130354-.0041970555-.0184024741s-.0090039396-.0080353883-.0063762959-.0120934388Z"/><path id="Tracciato_2-2" class="cls-3" d="m7.8775770715,7.1740562097c-.0360768027-.0183614913-.0580070567.0264418675-.1196808299.0894484758-.0408624188.0247089687-.0947615593.0347788379-.1405317631.0851187087-.0564959603.0620114417-.1020670162.148987295-.0949666646.2579705843.0389982309.2788769646.280421451.1024126754.280421451.1024126754,0,0,.1797865953-.1288939094.1846280127-.3517262302-.0038885485-.1401207105-.0015328806-.1270255052-.0433950502-.1497804463l-.066475156-.0334437677Z"/><path id="Tracciato_3-2" class="cls-1" d="m7.8872620095,7.1677762731l.0664764925.0334573413.022109506-.0413072369s.0233175381-.0387434321.0527966953-.0382104497.0747811124-.0407196432.0627769072-.0731612459-.0343474438-.0548366451-.0870280352-.0178440648c0,0-.0101984215-.0912846219-.0789495815-.0567896698-.026716679.0143169448-.0386469343.0405136105-.022297479.0724237648.016349456.0319101555.0256896638.0564120106-.0158845053.121431561Z"/><path class="cls-10" d="m7.546626991,7.6497197968s.0244626688.0935134096.0858073048.1012617915.1579404684-.0384921988.1977041375-.0848924869.1045776736-.1050411553.1308084613-.2266705226.0069095331-.1539196727.0069095331-.1539196727c0,0-.0232171814-.0165043861-.0209938463.0182562669.0022233351.0347606531-.0392105884.2037603361-.1214007731.2975520635s-.1454291016.0865847848-.1600003396.0857976349c-.0261630439-.0018374023-.0222864744-.0471985886-.1188344776-.0373850746Z"/><path id="Tracciato_2-2-2" class="cls-2" d="m7.7805400182,7.2394167311c-.0069284132.0076360507-.0144339661.0157007212-.0226437766.0240879543-.0408624188.0247089687-.0947615593.0347788379-.1405317631.0851187087-.0564959603.0620114417-.1020670162.148987295-.0949666646.2579705843.0048747603.0348594876.0129123869.0626043224.0232459987.0844684854,0,0-.0206898313-.017105499-.0302101616-.0981861996-.0113565612-.103322519.0564202379-.2107104076.0992734203-.2505694812.0264767291-.0246268267.0404789476-.0384175739.1314425464-.0794257537.0164032719-.0070832311.0343904006-.0234642984.0343904006-.0234642984Z"/><path class="cls-3" d="m0,2.9422594126v.3320194003c0,.081254469.0518886151.1534328465.1289100077.179317085l3.554815211,1.1946510135s.6793755526.3019446901,1.5701123883.1358751105l10.1453415859-1.3587511053v-.4831115041l-10.1604388204,1.3134594017s-.5887921456.1056806415-1.1272601762-.060388938S0,2.9422594126,0,2.9422594126Z"/><path class="cls-6" d="m.4428522121,2.6830902203s-.4051091258-.0025162058-.4428522121.2591691923l4.1114801963,1.2530704637s.4770182807.1352720028.8875214845.0867929425,10.4001775121-1.3398634063,10.4001775121-1.3398634063c0,0,.181166814-.1887154313-.4302711833-.3170419246s-4.2196770435-.8454451322-4.2196770435-.8454451322h-.4982087386c-.150972345,0-9.8081700153.9033178644-9.8081700153.9033178644Z"/><polygon class="cls-11" points="1.0454085272 3.7615994987 2.7650733093 4.3395196304 2.561497454 4.6482469114 1.2228759947 4.1349409383 1.0454085272 3.7615994987"/><path class="cls-11" d="m1.2027463487,9.9020845184s.1977806657.0943577156.3560431137,0l1.2643888346.676450304-.090578852-.2335980919-1.3889455743-.7347320791-.140907522.2918798671Z"/><path class="cls-10" d="m5.6048098978,2.1691086538c.0364240483.0089190529.0731560294-.0133620829.0820860799-.0497696348s-.0133730805-.0731505306-.0497751336-.0820695835l-.1711446376-.0419338455.1106578424-.0671128487c.0442103485-.0268121467.0583312658-.0843900769.0315191191-.1286004254l-.0101397864-.0167273483c-.0268121467-.0442103485-.0843955757-.0583147694-.1286059242-.0315026227l-.1106798376.0671128487.0419448431-.1711556352c.0089080553-.0364075519-.0133730805-.0731560294-.0497751336-.0820750823s-.0731560294.0133620829-.0820640847.0497696348l-.0742337941.3030003523-.1247347693.0756414868.0874749034-.3570480532c.0079182714-.0323494378-.0118774071-.0650013096-.0442323437-.0729305786-.0323549366-.0079237702-.0649958108.0118774071-.0729140822.0442268449l-.1161786372.4741999779-.3585217315.2174005395v-.3231919443l.3652962525-.3652742573c.0235348621-.0235513585.0235348621-.0617405215,0-.08529188-.0235568573-.0235513585-.0617405215-.0235513585-.0852973788,0l-.2799988737.2799823773v-.1479561998l.2350406885-.2350296909c.0265042139-.0265042139.0265042139-.0694773325,0-.0959815464s-.0694828313-.0265042139-.0959870452,0l-.1390536433.1390371469v-.1796237865c0-.0517052123-.0419008527-.0936225613-.0936115638-.0936225613h-.0195537312c-.0517107111,0-.093633559.0419173491-.093633559.0936225613v.1507605876l-.110173948-.110173948c-.0265042139-.0265042139-.0694828313-.0265042139-.09596505,0-.0265262091.0265042139-.0265262091.0694773325,0,.0959815464l.206138998.2061609932v.1367276511l-.2398796321-.2398851309c-.0235568573-.0235513585-.0617405215-.0235513585-.0852973788,0-.0235348621.0235513585-.0235348621.0617405215,0,.08529188l.3251770109.3251770109v.3797470978l-.235876506-.1430457718-.122931163-.5017324673c-.0079182714-.0323494378-.0405811408-.052150615-.0729140822-.0442213461-.0323549366.0079237702-.0521726102.040575642-.0442323437.0729250798l.0942274293.3845805426-.1265383755-.0767247503-.0790947329-.3228180259c-.0089080553-.0364075519-.0456620316-.0586886877-.0820640847-.0497696348s-.0586831889.0456620316-.0497751336.0820695835l.0468057819.1909788076-.1535924694-.093138667c-.0442103485-.0268066479-.1017937775-.012702227-.1286059242.0315081215l-.0101397864.0167273483c-.0268121467.0442103485-.0126912294.1017882787.0315191191.1286004254l.1288918617.0781709346-.151326964.0370784055c-.0364020531.0089190529-.0586831889.0456620316-.0497531384.0820695835.0089080553.0364075519.0456620316.0586886877.0820640847.0497696348l.2831661823-.0693783541.1169044787.0709015216-.3294880698.0807278764c-.0323549366.0079237702-.0521506151.040575642-.0442323437.0729305786.0079402666.0323494378.0405811408.052150615.0729360774.0442213461l.4466564909-.1094316101.2678135339.1624125439-.2604451425.157936521-.4466564909-.1094371089c-.0323549366-.0079237702-.0649958108.0118774071-.0729360774.0442268449-.0079182714.0323549366.0118774071.0650068084.0442323437.0729305786l.329510065.0807278764-.1169264739.0709015216-.2831661823-.0693783541c-.0364020531-.0089190529-.0731560294.0133620829-.0820860799.0497696348-.0089080553.0364075519.0133730805.0731505306.0497751336.0820695835l.1513489592.0370784055-.1289138569.0781709346c-.0442323437.0268121467-.0583312658.0843900769-.0315191191.1286004254l.0101397864.0167273483c.0268121467.0442103485.0843955757.0583147694.1286059242.0315026227l.1535924694-.0931441658-.0467837867.1909898052c-.0089300505.0364075519.0133510853.0731505306.0497531384.0820695835.0364240483.0089190529.0731560294-.0133620829.0820860799-.0497696348l.0790947329-.3228290235.1265163803-.0767192515-.0942274293.3845860414c-.0079182714.0323494378.0118774071.0650013096.0442323437.0729250798.0323549366.007929269.0649958108-.0118719083.0729140822-.0442268449l.122931163-.5017379661.2285081146-.138569749v.3633221835l-.3452146365.3452256341c-.0235568573.0235513585-.0235568573.0617350227,0,.08529188.0235568573.0235513585.0617405215.0235513585.0852753836,0l.2599392529-.2599392529v.1458721548l-.2205898432.2205898432c-.0265042139.0265042139-.0265042139.0694773325,0,.0959815464s.0694828313.0265042139.0959870452,0l.1246027981-.1246082969v.1294362429c0,.0517052123.0419228479.0936225613.093633559.0936225613h.0195537312c.0517107111,0,.0936115638-.0419173491.0936115638-.0936225613v-.1294362429l.1246247933.1246082969c.0265042139.0265042139.0694608361.0265042139.0959870452,0,.0264822187-.0265042139.0264822187-.0694773325,0-.0959815464l-.2206118384-.2205898432v-.1458721548l.2599392529.2599392529c.0235568573.0235513585.0617405215.0235513585.0852973788,0,.0235568573-.0235568573.0235568573-.0617405215,0-.08529188l-.3452366317-.3452256341v-.3468587776l.3511313449.2129300155.1161786372.4741999779c.0079402666.0323494378.0405811408.0521506151.0729360774.0442213461.0323549366-.0079237702.0521506151-.040575642.0442323437-.0729250798l-.0874749034-.3570425544.1247127741.075635988.0742557893.3030003523c.0089080553.0364020531.0456620316.0586886877.0820640847.0497696348.0364020531-.0089245517.0586831889-.0456675304.0497751336-.0820750823l-.0419448431-.1711556352.1106798376.0671128487c.0442103485.0268121467.1017717823.0127077258.1286059242-.0315081215l.0101177912-.0167218495c.0268341419-.0442158473.0127132246-.1017882787-.0314971239-.1286004254l-.1106578424-.0671128487.1711446376-.0419338455c.0364020531-.0089190529.0586831889-.0456675304.0497751336-.0820695835-.0089300505-.0364075519-.0456620316-.0586941865-.0820640847-.0497696348l-.3030058511.0742337941-.1247347693-.075635988.3570480532-.0874804022c.0323549366-.0079237702.0521506151-.040575642.0442103485-.0729305786-.0079182714-.0323494378-.0405591456-.052150615-.0729140822-.0442213461l-.4741944791.1161786372-.3759199333-.2279692323.3832883247-.2324342575.4741944791.1161786372c.0323549366.007929269.0649958108-.0118719083.0729360774-.0442268449.0079182714-.0323494378-.0118774071-.0650013096-.0442323437-.0729250798l-.3570480532-.0874804022.1247347693-.075635988.3029838559.0742337941Z"/><path class="cls-10" d="m6.6179883006.6146527021c.0229263046.0056138989.0460464305-.008410465.0516672516-.0313263862s-.0084173872-.0460429694-.0313298473-.0516568683l-.1077231737-.0263943234.06965111-.0422426852c.0278272175-.0168763075.0367153138-.0531174511.0198390063-.0809446686l-.0063822623-.0105286562c-.0168763075-.0278272175-.0531209122-.0367049305-.0809481297-.019828623l-.0696649544.0422426852.0264012456-.1077300959c.0056069767-.0229159213-.0084173872-.0460464305-.0313298473-.0516603294s-.0460464305.008410465-.0516534072.0313263862l-.0467248055.1907168116-.0785115176.0476108462.0550591263-.224735931c.0049839793-.0203616319-.0074759689-.0409136241-.0278410619-.0459045256-.020365093-.0049874403-.040910163.0074759689-.0458941423.0278376008l-.0731260511.2984745963-.2256635049.1368379192v-.2034259586l.2299275761-.2299137317c.0148134939-.0148238772.0148134939-.0388611938,0-.0536850709-.0148273383-.0148238772-.0388611938-.0148238772-.053688532,0l-.176239044.1762286608v-.093127729l.1479411174-.1479341952c.0166824861-.0166824861.0166824861-.0437309568,0-.0604134429s-.0437344179-.0166824861-.060416904,0l-.0875242134.0875138301V.0589286324c0-.0325446923-.0263735569-.0589286324-.0589217102-.0589286324h-.0123076599c-.0325481534,0-.0589355546.0263839402-.0589355546.0589286324v.0948928883l-.0693465335-.0693465335c-.0166824861-.0166824861-.0437344179-.0166824861-.0604030596,0-.0166963305.0166824861-.0166963305.0437309568,0,.0604134429l.1297495932.1297634375v.0860601695l-.1509868825-.1509903436c-.0148273383-.0148238772-.0388611938-.0148238772-.053688532,0-.0148134939.0148238772-.0148134939.0388611938,0,.0536850709l.2046754145.2046754145v.2390233382l-.1484672041-.0900369696-.0773762779-.3158043074c-.0049839793-.0203616319-.0255428937-.0328250411-.0458941423-.0278341397-.020365093.0049874403-.0328388855.0255394326-.0278410619.0459010645l.0593093531.2420656422-.0796467573-.0482926823-.049784415-.2031906041c-.0056069767-.0229159213-.028740947-.0369402851-.0516534072-.0313263862s-.036936824.028740947-.0313298473.0516568683l.0294608551.1202073495-.0966753531-.0586240559c-.0278272175-.0168728464-.0640718221-.0079951334-.0809481297.0198320841l-.0063822623.0105286562c-.0168763075.0278272175-.0079882112.064068361.0198390063.0809446686l.0811281067.0492029507-.0952493812.0233381751c-.0229124602.0056138989-.036936824.028740947-.031316003.0516568683.0056069767.0229159213.028740947.0369402851.0516534072.0313263862l.1782326357-.0436686571.0735829159.0446273809-.2073889144.0508123607c-.020365093.0049874403-.0328250411.0255394326-.0278410619.0459045256.0049978236.0203616319.0255428937.0328250411.0459079867.0278341397l.2811379629-.0688792855.1685692538.1022269522-.1639313842.0994096195-.2811379629-.0688827466c-.020365093-.0049874403-.040910163.0074759689-.0459079867.0278376008-.0049839793.020365093.0074759689.0409170852.0278410619.0459045256l.2074027588.0508123607-.0735967603.0446273809-.1782326357-.0436686571c-.0229124602-.0056138988-.0460464305.008410465-.0516672516.0313263862-.0056069767.0229159213.0084173872.0460429694.0313298473.0516568683l.0952632256.0233381751-.0811419511.0492029507c-.0278410619.0168763075-.0367153138.0531174511-.0198390063.0809446686l.0063822623.0105286562c.0168763075.0278272175.0531209122.0367049305.0809481297.019828623l.0966753531-.058627517-.0294470107.1202142717c-.005620821.0229159213.0084035428.0460429694.031316003.0516568683.0229263046.0056138988.0460464305-.008410465.0516672516-.0313263862l.049784415-.2031975263.0796329129-.0482892212-.0593093531.2420691033c-.0049839793.0203616319.0074759689.0409136241.0278410619.0459010645.020365093.0049909014.040910163-.0074725078.0458941423-.0278376008l.0773762779-.3158077685.1438293345-.0872196369v.2286850424l-.2172876509.2172945731c-.0148273383.0148238772-.0148273383.0388577327,0,.0536850709.0148273383.0148238772.0388611938.0148238772.0536746876,0l.1636129633-.1636129633v.0918159733l-.1388453553.1388453553c-.0166824861.0166824861-.0166824861.0437309568,0,.0604134429s.0437344179.0166824861.060416904,0l.0784284513-.0784319124v.0814707553c0,.0325446923.0263874013.0589286324.0589355546.0589286324h.0123076599c.0325481534,0,.0589217102-.0263839402.0589217102-.0589286324v-.0814707553l.0784422956.0784319124c.0166824861.0166824861.0437205735.0166824861.060416904,0,.0166686417-.0166824861.0166686417-.0437309568,0-.0604134429l-.1388591997-.1388453553v-.0918159733l.1636129633.1636129633c.0148273383.0148238772.0388611938.0148238772.053688532,0,.0148273383-.0148273383.0148273383-.0388611938,0-.0536850709l-.2173014953-.2172945731v-.2183225188l.221011791.1340240476.0731260511.2984745963c.0049978236.0203616319.0255428937.0328250411.0459079867.0278341397.020365093-.0049874403.0328250411-.0255394326.0278410619-.0459010645l-.0550591263-.2247324699.0784976732.0476073851.0467386499.1907168116c.0056069767.0229124602.028740947.0369402851.0516534072.0313263862.0229124602-.0056173599.036936824-.0287444081.0313298473-.0516603294l-.0264012456-.1077300959.0696649544.0422426852c.0278272175.0168763075.0640579778.0079985945.0809481297-.0198320841l.0063684179-.0105251951c.0168901519-.0278306786.0080020556-.064068361-.0198251619-.0809446686l-.06965111-.0422426852.1077231737-.0263943234c.0229124602-.0056138988.036936824-.0287444081.0313298473-.0516568683-.005620821-.0229159213-.028740947-.0369437462-.0516534072-.0313263862l-.1907202726.0467248055-.0785115176-.0476073851.224735931-.0550625874c.020365093-.0049874403.0328250411-.0255394326.0278272175-.0459045256-.0049839793-.0203616319-.0255290493-.0328250411-.0458941423-.0278341397l-.2984711352.0731260511-.2366144149-.1434901471.2412522845-.1463005576.2984711352.0731260511c.020365093.0049909014.040910163-.0074725078.0459079867-.0278376008.0049839793-.0203616319-.0074759689-.0409136241-.0278410619-.0459010645l-.224735931-.0550625874.0785115176-.0476073851.1907064283.0467248055Z"/><path class="cls-5" d="m4.5184230978,4.8271291301v6.7200317383c-.1398925781-.0100097656-.2700195312-.0300292969-.3801269531-.0900268555-.3598632812-.1699829102-.9099121094-.4600219727-1.1198730469-.5700073242-.0600585938-.0299682617-.1101074219-.0800170898-.1301269531-.1400146484l-.1599121094-.3999633789-1.3801269531-.7399902344-.1499023438.2899780273-.83984375-.4000244141s-.1301269531-.0599975586-.1301269531-.1799926758L.0584621603,3.427104716l.9899902344.3300170898.169921875.3800048828,1.3400878906.5100097656.2099609375-.3099975586,1.1298828125.3800048828s.2399902344.0899658203.6201171875.1099853516Z"/></g></g></svg>