<?xml version="1.0" encoding="UTF-8"?>
<svg id="Livello_2" data-name="Livello 2" xmlns="http://www.w3.org/2000/svg" viewBox="0 0 28.05 27.9">
  <defs>
    <style>
      .cls-1 {
        fill: #78a8c8;
      }

      .cls-1, .cls-2, .cls-3, .cls-4, .cls-5, .cls-6, .cls-7 {
        stroke-width: 0px;
      }

      .cls-2 {
        fill: #93cef0;
      }

      .cls-3 {
        fill: #2f4c59;
      }

      .cls-4 {
        fill: #83b7da;
      }

      .cls-5 {
        fill: #3e6378;
      }

      .cls-6 {
        fill: #6591a9;
      }

      .cls-7 {
        fill: #ed9775;
      }
    </style>
  </defs>
  <g id="how_to_prevent" data-name="how to prevent">
    <g id="ic_good_agricultural_practices" data-name="ic_good agricultural practices">
      <g>
        <path class="cls-3" d="m12.59,23.73s.48.74,1.7.77,1.81-.1,1.74,1.35.28,1.17.9,1.48,1.38-.21,1.38-.21c0,0,1.04-4.01,1.04-4.06s-.31-1.5-.31-1.5c0,0-.76-.4-1.04-.37s-3.25.04-3.63,0-1.98,1-1.78,2.53Z"/>
        <path class="cls-5" d="m18.8,18.82l-.1,2.91s-1.68.47-2.62.29c-.93-.18-2.15-.41-1.97-.31.18.1.57.34.26,1.22-.31.88-.99.93-.99.93,0,0-2.28-.39-4.19-.54-1.9-.16-1.87-1.06-2.19-2.12-.01-.04-.02-.07-.03-.11.1.08.42-.01.47-.28.08-.41.08-1.06.39-1.79.08-.18.17-.39.28-.59.18-.11.39-.21.63-.29,1.68-.57,2.74-1.5,2.74-1.5,0,0,1.35.26,1.43.47.08.21-.34,1.19-.2,1.21.14.03.91.65,1.81.55.9-.11,1.34-.11,1.96-.08s.91-.26,1.29-.41c.39-.15.66-.13.66-.13.08.17.19.37.34.59Z"/>
        <path class="cls-1" d="m.92,23.65c.48.13.73.66.76.76,0,.02.03.17.05.38.02.17.05.37.08.6.11.81.23,1.81.23,1.81l.2-.04-.08-.59s-.1-.52-.21-1.12c-.05-.28-.1-.58-.13-.85-.06-.42-.09-.77-.06-.91.05-.18.26-.34.49-.53-.25-.23-.58-.4-.11-.32.04,0,.17.06.39.08.19-.19.35-.43.4-.74.12-.83-.3-1.37-.3-1.37,0,0-.05.63-.56,1.1-.5.48-.59,1.02-.48,1.33,0,0,.09.23.08.41-.02.18.01.55.01.55,0,0-.32-.39-.38-.73-.06-.35.12-1.08-.19-1.49-.3-.41-.97-1.08-1.08-1.42-.1-.34.04.69.18,1.19.14.51.22,1.76.7,1.88Z"/>
        <path class="cls-4" d="m4.15,19.97s-.09.49-.09.61.33.83.81.88,1.09-.28,1.47-.27.58-.1.76-.39l.14.04s.36-.57,0-1.16-.79-1.47-1.66-1.35-1.86.4-1.43,1.63Z"/>
        <path class="cls-6" d="m4.87,21.46s.43-.82.59-1.22.19-1.13,1.04-1.44-1.38-1.03-2.02-.14-.08.82-.45,1.68.84,1.12.84,1.12Z"/>
        <path class="cls-6" d="m4.4,20.02s.4-.26.81-.12.21.42.1.68-.14.48-.1.67.12.48-.12.5-.43-.23-.4-.56,0-.46.04-.72-.19-.21-.43-.05-.05-.32.11-.4Z"/>
        <path class="cls-4" d="m4.87,21.31s-.04.25.09.33.31.05.35-.05,0-.29,0-.34-.45-.09-.44.06Z"/>
        <path class="cls-7" d="m4.8,23.18s-.1.14-.11.25.07.16.21.18.21,0,.26-.15,0-.17-.1-.23-.22-.1-.25-.05Z"/>
        <path class="cls-5" d="m17.18,18.66c-.19.08-.4.13-.68.12-.62-.03-1.06-.03-1.96.08-.9.1-1.67-.52-1.81-.55-.14-.03.28-1.01.2-1.21-.08-.21-1.43-.47-1.43-.47,0,0,.37-.47,0-.94-.36-.47-.88-1.89-1.01-2.07-.13-.18-.31.08-.41.54-.1.47-.52,1.68-.94,2.38-.31.52-.7,1.24-1.01,1.87-.11.21-.2.41-.28.59-.31.73-.31,1.37-.39,1.79-.05.27-.37.36-.47.28-.03-.02-.04-.06-.03-.11.01-.04.06-.1.13-.18.33-.31.15-.63-.08-.99-.08-.12-.17-.25-.25-.39-.31-.52-1.17-.85-1.84-.62-.67.23-.77,1.17-.77,1.17,0,0-.49-.47-.36-.96.13-.49.1-.8.57-1.03.47-.23.36-.75.47-1.14s.62-.75,1.14-1.53c.52-.78.49-1.32.39-1.66-.11-.34.94-2.6,1.06-3,.12-.4.63-1.12,1.1-1.5.47-.39.62-.69.63-.95.01-.26.38-.5.38-.51l1.48-.07,1.25-.6,2.35,4.53s-.08,1.91,1.24,3.29c0,0,1.4,2.57,1.33,2.87-.07.3,0,.95,0,.95Z"/>
        <path class="cls-1" d="m27.24,17.41c.05.44-.29.68-.29.68,0,0-.1-.41-.36-.85-.26-.44-.67-.96-1.53-2-.47-.57-1.44-.95-2.49-.96-.11,0-.22,0-.33.01-.13,0-.26.02-.4.04-.62.09-1.23.31-1.75.7-.9.67-1.31,1.58-1.49,2.26-.15.55-.15.95-.15.95,0,0-.28-.03-.66.13-.21.08-.39.21-.61.3,0,0-.07-.65,0-.95.07-.3-1.33-2.87-1.33-2.87-1.33-1.37-1.24-3.29-1.24-3.29l-2.35-4.53,2.52-1.2.97-.46s1.77.43,3.09.58c1.32.15,1.81.54,1.81.54,0,0-.03,1.66.23,2.13.26.47-.18,1.71.41,2.05.25.14.54.4.92.69-.12.17-.4.33-.66.47-.47.26-.9.45-.34.45.24,0,.54.1.86.25.18.08.36.18.54.28.69.39,1.38.87,1.68.99.52.21.73-.05,1.43-.41.05-.03.09-.05.14-.07.34.37.51.74.92.98.75.44.21,1.32.47,1.94.26.62-.06.75,0,1.19Z"/>
        <path class="cls-4" d="m28.05,11.17c-.08.48-.41,1.24-.98,1.52-.53.26-.63.3-1.21.6-.28-.29-.68-.59-1.43-.81-.98-.29-1.68-.75-2.21-1.15-.38-.29-.67-.55-.92-.69-.6-.34-.16-1.58-.41-2.05-.26-.47-.23-2.13-.23-2.13,0,0-.49-.39-1.81-.54-1.32-.15-3.09-.58-3.09-.58l-.97.46c-.11-.04-.17-.07-.17-.07l-.23-.89s1.22-.13,1.84-.28c.62-.15,2.38-.1,3.36.13.98.24,1.55.54,2.36,1.03.8.5,3.03,2,3.94,2.62.91.62,2.25,2.32,2.18,2.8Z"/>
        <path class="cls-5" d="m11.99,9.74c.19.15.85.76,1.3,1.12s1.31,1.1,1.31,1.1c0,0,.13.33.18-.66s.12-1.73.33-2.26.38-.66.17-1.17-.4-.85-.39-1.28-.39-1.17-.39-1.17l-2.51,4.31Z"/>
        <path class="cls-6" d="m9.6,8.37s1.25,1.46,1.12,2.01.07,1.24.43,1.48-.27-.28-.15-1.04.22.21.76.34,1.17.14,1.51.55,1.43.54,1.43.54l-.1-1.02s-2.51-1.85-2.56-1.86-2.46-1.01-2.46-1.01Z"/>
        <path class="cls-4" d="m14.6,6.14s-.19.42,0,.77.37.46.18.72-.81.76-.79,1.02-.16.64-.71.73-.66-.13-.88.19.22-1.68.22-1.68l1.42-1.95.57.21Z"/>
        <path class="cls-6" d="m14.55,4.71c.34.19,1.61.74,2.1,1.41s.98,1.65,1.63,1.94-.67.08-1.29.31-.57.33-.62.9-.08.73-.57,1.09-.96.96-.91,2.12.96,2.36.96,2.36c0,0-1.33-1.5-1.25-3.29s-.19-1.86.29-2.58.29-1.07,0-1.56-.19-1.35-.29-1.67-.05-1.03-.05-1.03Z"/>
        <path class="cls-4" d="m14.89,4.9c-.01.62-.23.85-.29,1.24-.05.39-.25.36-.41.31-.17-.05-.25-.58-.18.17.07.75-.19,1.41-.75,1.98-.55.57-.74,1.07-1.43,1.32-.7.25-1.17-.13-1.34-.33-.17-.21-.56-.65-.7-.84-.05-.07-.12-.21-.19-.37,0,0-.01-.37.15-.45.16-.08.18.02.4.12,0,0,.17.09.37.05.2-.03.16-.3.11-.51-.05-.21-.11-.36-.11-.36-.08-.18.02-.49,0-.66-.01-.17-.08-.45,0-.31.08.14.23.12.44.28.21.15.17.4.11.51-.07.11-.07.2.15.29.22.1.05.38.05.38,0,0,.24-.06.45,0,.21.05.75,0,.75,0,0,0-.26.01-.48-.1-.22-.11-.08-.48-.22-.69-.14-.21-.22-.35.22-.4.44-.05.84.21.74.1-.1-.1-.43-.2-.29-.25.14-.05.48.06.48.06-.07-.06-.4-.19-.6-.12-.2.07-.32.09-.46.06-.14-.04-.22-.11-.1-.17.12-.05-.15-.28-.06-.37s.39-.18.39-.18c0,0,.18-.09-.06-.21-.24-.12-.75.11-.79,0-.03-.11-.3,0-.25-.14.06-.14.82-.59.82-.59,0,0,.17-.62-.26-.79,1.3-.25,2.31.22,2.31.22v.45c.13-.3.48-.39.69-.44.21-.05.35.14.34.76Z"/>
        <path class="cls-6" d="m11.77,6.92c.14.21,0,.58.22.69.23.11.48.1.48.1,0,0-.54.05-.75,0-.21-.06-.45,0-.45,0,0,0,.17-.29-.05-.38-.22-.09-.22-.19-.15-.29.07-.1.1-.35-.11-.51-.21-.16-.36-.14-.44-.28-.08-.14-.01.14,0,.31.02.17-.08.47,0,.66,0,0,.05.15.11.36.05.21.1.47-.11.51-.2.04-.37-.05-.37-.05-.22-.1-.24-.2-.4-.12-.17.08-.15.45-.15.45-.14-.3-.28-.69-.31-.84-.05-.23-.32-.89-.52-1.2-.19-.31-.09-.89-.09-.89,0,0,.47-.63,2.11-1.31.26-.11.52-.18.76-.22h0c.43.17.7.85.7.85,0,0-1.2.39-1.25.53-.05.14.22.03.25.14.03.11.55-.12.79,0,.24.12.06.21.06.21,0,0-.29.08-.39.18s.18.32.06.37c-.12.06-.03.13.1.17.14.03.26.01.46-.06.2-.07.53.06.6.12,0,0-.35-.11-.48-.06-.14.05.19.15.29.25.1.1-.3-.15-.74-.1-.44.05-.36.19-.22.4Z"/>
        <path class="cls-5" d="m14.24,4.58s.23-.29.4-.24.16.59.09.76,0-.3-.19-.38-.4,0-.31-.14Z"/>
        <path class="cls-5" d="m14.38,4.86s-.28-.09-.37.18.22.31.19.49-.1.25-.04.31.14-.03.15-.2.1-.23.2-.22.21-.44-.12-.57Z"/>
        <path class="cls-5" d="m9.98,5.99s-.03.18-.18.11-.41-.15-.61-.05-.23.19-.23.24.08-.09.26-.1.33-.05.47,0,.19.12.29.06.11-.19.1-.26-.07-.09-.1,0Z"/>
        <path class="cls-5" d="m9.22,6.4s.14,0,.23-.03.41-.19.53-.11.07.15.03.2-.07.19-.37.2-.3-.02-.42.04.1-.13.26-.08.34-.03.38-.08,0-.15-.14-.1-.37.08-.5.04-.06-.07,0-.07Z"/>
        <path class="cls-2" d="m14.11,6.71c-.05-.41-.03-.53-.07-.78-.04-.25-.08-.66-.17-.9-.08-.24,0-.76,0-.76,0,0-.41-.03-.45.26-.04.29.1.69.11,1.06.01.37-.16,1.03-.15,1.32,0,.29-.02.54-.14.67-.12.14-.41.15-.51.07-.09-.09.09.12.14.13.05.01-.25.05-.36-.04.03.05.07.11.11.14-.09-.05-.48-.23-.75-.24,0,0,.39.1.38.2-.01.1-.62-.15-.75-.1-.13.06-.27.05-.37.12s-.22.3-.41.26c0,0,.12.17-.23.32s0,.19,0,.19c.15,0,.2-.2.23-.12.03.07.09.13.22.14-.04-.01-.09-.04-.09-.08,0-.07.2.12.37.09.17-.03.4-.13.49-.14.1,0,.24-.03.33-.11.09-.08,0-.22,0-.22,0,0,.27.16.21.28-.06.12-.23.26-.31.43-.08.17-.15.11-.22.3-.06.19-.06-.15-.04-.22.01-.07-.06.15-.1.24-.04.1-.2-.29-.39-.27-.19.03-.4.04-.48.11,0,0,.41.12.28.52-.1.31.05.43.12.46,0,0,0,0,0,0,.17.02.31,0,.5-.03.28-.04.4,0,.56-.15.17-.15.48-.23.55-.42.07-.19.3-.5.43-.65.13-.15.42-.47.62-.79.2-.32.38-.92.33-1.32Z"/>
        <path class="cls-5" d="m12.25,8.48c-.06.12-.23.26-.31.43-.08.17-.15.11-.22.3-.06.19-.06-.15-.04-.22.01-.07-.06.15-.1.24-.04.1-.2-.29-.39-.27-.19.03-.4.04-.48.11-.08.08-.22.14-.32-.04-.09-.18-.14-.25-.23-.3-.1-.04-.2-.15-.04-.13,0,0,.2.04.36.04s.2-.2.23-.12c.03.07.11.14.26.15-.04,0-.13-.03-.13-.08,0-.07.2.12.37.09.17-.03.4-.13.49-.14.1,0,.24-.03.33-.11.09-.08,0-.22,0-.22,0,0,.27.16.21.28Z"/>
        <path class="cls-5" d="m10.81,5.99s.03-.2.28-.26.36-.07.51-.18.38-.17.6-.03.36.17.49.15-.1.12-.27.05-.46-.09-.62-.03-.21.17-.41.18-.45.11-.5.17-.1.02-.08-.05Z"/>
        <path class="cls-5" d="m11,6.15s.16-.03.32,0,.49.11.67-.01c0,0-.21.15-.5.1s-.29-.09-.5-.09Z"/>
        <path class="cls-5" d="m10.12,7.14s-.03.29,0,.41,0,0-.03-.11-.15.21-.08.31-.07.02-.16-.08-.14-.23,0-.35.3-.47.27-.17Z"/>
        <path class="cls-1" d="m8.24,4.28s-.86,0-1.45-.25-1.07-.15-1,.3,1.43.99,2.64,1.1,4.37-.73,4.85-1.15.62-.56.62-.56c0,0-2.21,1.14-3.31,1.02s-1.61-.17-2.07-.15-.28-.3-.28-.3Z"/>
        <path class="cls-5" d="m14.11,3.48l-.22.24s-1.63,1.06-2.9,1.13c-1.26.06-1.52-.11-2.23-.11-.71,0-.61-.08-.54-.45l.07-.38s.59.15,1.46,0c.23-.04.43-.08.62-.11.13-.02.26-.04.39-.06.36-.05.72-.08,1.22-.08.69,0,1.42-.45,1.74-.67l.17-.12.22.62Z"/>
        <path class="cls-1" d="m10.72,1.59c-.27.43-.3,1.23-.1,1.6.09.17.14.36.15.53-.13.02-.25.04-.39.06-.19.03-.39.07-.62.11-.87.15-1.46,0-1.46,0,0,0-.14-1.1.17-1.53.31-.43.63-1.17.66-1.55.03-.38.29-.8.63-.54.33.26.72.28,1.16.12.45-.15.69-.4,1.06-.38h0c.37.02-.43.11-.84.45-.41.34-.17.69-.44,1.12Z"/>
        <path class="cls-4" d="m13.9,2.85l-.17.12c-.32.22-1.05.67-1.74.67-.5,0-.86.03-1.22.08-.02-.17-.06-.37-.15-.53-.21-.38-.17-1.17.1-1.6.27-.43.02-.78.44-1.12.41-.34,1.21-.43.84-.45,0,0,.59-.14.74.29.15.43.65,1.14.83,1.49.17.34.34,1.05.34,1.05Z"/>
        <path class="cls-4" d="m13.8,3.78c.06-.04.11-.09.15-.15.09-.12.31-.35.76-.5.64-.22,1.35-.67,1.47-.86s-.05.55-.31.98-.31.7-.81.79-3.91,1.01-3.91,1.01c0,0,1.55-.59,2.65-1.27Z"/>
        <path class="cls-1" d="m11.12,10.06c-.08-.01-.16-.03-.25-.06-.29-.1-.31-.34-.38-.34s0,.15,0,.15c-.1-.1-.29-.46-.44-.57-.14-.11-.28-.29-.3-.37-.03-.09-.15-.17-.15-.25,0-.08-.09-.29-.08-.47.02-.18.23-.23.23-.23.17-.1.27.05.49.15.22.11.28.02.48.06,0,0,.12.17-.23.32s0,.19,0,.19c-.15,0-.36-.04-.36-.04-.16-.02-.06.09.04.13.1.05.14.12.23.3.1.18.23.12.32.04,0,0,.41.12.28.52-.1.31.05.43.12.46Z"/>
        <path class="cls-6" d="m25.85,13.29s-.09.05-.14.07c-.7.36-.91.62-1.43.41-.52-.21-2.19-1.5-3.08-1.52-.88-.01.66-.47,1-.93.53.4,1.23.86,2.21,1.15.75.22,1.15.51,1.43.81Z"/>
        <path class="cls-5" d="m21.85,14.32h0c.79.65.4,2.21.32,1.54-.08-.67-1.09-1.64-.96-1.02.14.62.26,1.66.85,2.56.6.91-.1,2.49-.1,2.49,0,0-1.01.29-1.86,0-.57-.19-1-.65-1.29-1.07-.15-.22-.26-.42-.34-.59-.12-.23-.15-.62-.14-1.03.01-.44.07-.91.14-1.25.12-.65-.69-3.18.66-3.94.84-.47,1.81-.36,2.44-.21.37.09.62.19.65.21.42.21.18.34-.12.5-.14.07-.3.14-.4.23-.32.26-.62.93.17,1.57Z"/>
        <path class="cls-1" d="m23.2,17.48c-.18.57,0,.7-.21,1.53-.07.28-.21.47-.37.6-.3.26-.67.28-.67.28,0,0,.7-1.58.1-2.49-.59-.91-.72-1.94-.85-2.56-.13-.62.88.34.96,1.02.04.34.17.09.17-.32v-.02c0-.09,0-.18-.02-.28h0c-.05-.34-.18-.69-.46-.92h0c-.79-.64-.49-1.31-.17-1.57.1-.09.26-.16.4-.23.3-.15.54-.28.12-.5.31.06.4.37.42.77,0,.19,0,.4-.01.61-.01.3-.04.61-.02.87.01.24.06.44.17.57.5.57.3.88.65,1.32.35.44-.01.75-.19,1.32Z"/>
        <path class="cls-1" d="m26.96,18.08c0,.47-.44,1.84-1.86,2.62-1.42.77-2.36.41-2.36.41l-.11-1.5c.15-.13.3-.32.37-.6.21-.83.03-.96.21-1.53.18-.57.54-.88.19-1.32-.35-.44-.14-.75-.65-1.32-.11-.13-.16-.33-.17-.57,1.05.01,2.02.39,2.49.96.85,1.04,1.27,1.56,1.53,2,.26.44.36.85.36.85Z"/>
        <path class="cls-3" d="m20.94,23.75c.47.49.95,1.03.51,1.68-.45.65-.66,2.34-.66,2.34-.08.03-.17.05-.26.07-.78.18-2.38-.08-2.64-.47-.26-.39.41-1.35.56-1.86.15-.52-.15-1.84.06-2.12.2-.29.19-1.66.06-2.67-.13-1.01-.11-2.49-.11-2.49,1.37,1.66,2.77,1.57,3.65,1.25,0,0-.6,1.75-1.16,2.32-.56.57.66.36.58.96-.08.6-1.06.5-.58.99Z"/>
        <path class="cls-4" d="m22.37,25.25c-.31.65.06,1.74-.39,1.86-.39.12-.61.45-1.19.65,0,0,.21-1.69.66-2.34.45-.65-.03-1.19-.51-1.68-.48-.49.5-.39.58-.99.08-.59-1.14-.39-.58-.96.56-.57,1.16-2.32,1.16-2.32h0c.49-.18.81-.43.87-.47h.01c.05,1.68-.62,3.18-.88,4.29-.26,1.11.57,1.29.26,1.94Z"/>
        <path class="cls-4" d="m5.79,18.78c.03-.44-.04-1.3-.07-1.01-.02.29-.45.96-.62,1.35-.18.39.1.96.11,1.25.01.29-.18.67-.18.67,0,0-.04-.31-.09-.45-.05-.15-.01-.35-.01-.35.03-.27-.14-.7-.63-1-.5-.3-.66-.8-.66-.8,0,0-.25.52,0,1.18.09.25.27.41.46.54.09.06.18.11.27.15.22.11.43.2.5.34.06.1.09.4.12.75.02.23.03.48.04.72.02.51.03.95.03.95l.04.5h.17s-.08-.85-.14-1.53c-.02-.19-.03-.36-.04-.5-.02-.18-.03-.3-.03-.32,0-.09.12-.57.49-.76.37-.19.21-1.23.23-1.67Z"/>
        <path class="cls-6" d="m4.97,23.67c-.24.04-.62-.22-.93-.41-.31-.19-.28-.66-.28-.66,0,0-.15-.04-.44-.43-.29-.4.05-.7.05-.7,0,0,.51.24.67.43.16.19.72.33.83.29.43.28.19.88.19.88.26.17.15.57-.08.61Z"/>
        <path class="cls-4" d="m4.72,22.58s0,.22-.03.31.1.14.2.15.19-.07.15-.27-.35-.28-.32-.19Z"/>
        <path class="cls-5" d="m4.97,23.67c-.24.04-.62-.22-.93-.41-.31-.19-.28-.66-.28-.66,0,0,.35.14.42.18.07.05.55.33.88.28.26.17.15.57-.08.61Z"/>
        <path class="cls-6" d="m5.13,22.03s-.07.06-.1.09c-.08.05-.16.07-.16.07,0,0-.52-.09-.66-.28-.15-.19-.15-.41-.08-.59.06-.17-.08.02-.13.12-.05.1-.13-.05-.33-.24-.2-.19-.41-.56-.29-.86h0c.06-.06.14-.09.26-.1.19-.01.35-.05.47-.08.09.06.18.11.27.15-.09.13-.16.28-.09.38.17.25.45.4.7.71.04.04.07.08.1.13.01.02.03.04.04.06.14.21.09.35,0,.44Z"/>
        <path class="cls-4" d="m4.6,21.96s.18.16.32.09.17-.17.1-.29-.25-.22-.28-.15-.22.29-.15.35Z"/>
        <path class="cls-5" d="m4.87,22.19c-.1.04-.66-.1-.83-.29-.16-.19-.67-.43-.67-.43,0,0-.17-.23-.17-.45,0-.17-.02-.51.17-.68-.11.3.1.68.29.86.2.19.28.34.33.24.05-.1.19-.29.13-.12-.06.18-.06.4.08.59.15.19.66.28.66.28Z"/>
        <path class="cls-4" d="m8.11,22.56c.03-.44-.04-1.3-.07-1.01-.02.29-.45.96-.62,1.35-.18.39.1.96.11,1.25.01.29-.18.67-.18.67,0,0-.04-.31-.09-.45-.05-.15-.01-.35-.01-.35.03-.27-.14-.7-.63-1-.5-.3-.66-.8-.66-.8,0,0-.25.52,0,1.18.09.25.27.41.46.54.09.06.18.11.27.15.22.11.43.2.5.34.06.1.09.4.12.75.02.23.03.48.04.72.02.51.03.95.03.95l.04.5h.17s-.08-.85-.14-1.53c-.02-.19-.03-.36-.04-.5-.02-.18-.03-.3-.03-.32,0-.09.12-.57.49-.76.37-.19.21-1.23.23-1.67Z"/>
        <path class="cls-4" d="m3.83,23.63c.02-.25-.02-.73-.04-.57-.01.16-.25.54-.35.76-.1.22.06.54.06.7,0,.16-.1.37-.1.37,0,0-.02-.17-.05-.26-.03-.08,0-.2,0-.2.02-.15-.08-.39-.36-.56-.28-.17-.37-.45-.37-.45,0,0-.14.29,0,.66.05.14.15.23.26.3.05.03.1.06.15.08.13.06.24.11.28.19.03.06.05.22.07.42.01.13.02.27.02.4.01.29.02.53.02.53l.02.28h.1s-.04-.48-.08-.86c-.01-.1-.02-.2-.02-.28-.01-.1-.01-.17-.01-.18,0-.05.07-.32.27-.43.21-.1.12-.69.13-.93Z"/>
        <path class="cls-4" d="m6.73,24.45c.02-.25-.02-.73-.04-.57-.01.16-.25.54-.35.76-.1.22.06.54.06.7,0,.16-.1.37-.1.37,0,0-.02-.17-.05-.26-.03-.08,0-.2,0-.2.02-.15-.08-.39-.36-.56-.28-.17-.37-.45-.37-.45,0,0-.14.29,0,.66.05.14.15.23.26.3.05.03.1.06.15.08.13.06.24.11.28.19.03.06.05.22.07.42.01.13.02.27.02.4.01.29.02.53.02.53l.02.28h.1s-.04-.48-.08-.86c-.01-.1-.02-.2-.02-.28-.01-.1-.01-.17-.01-.18,0-.05.07-.32.27-.43.21-.1.12-.69.13-.93Z"/>
      </g>
    </g>
  </g>
</svg>