<?xml version="1.0" encoding="UTF-8"?>
<svg id="Livello_2" data-name="Livello 2" xmlns="http://www.w3.org/2000/svg" viewBox="0 0 27.4 23.49">
  <defs>
    <style>
      .cls-1 {
        fill: #78a8c8;
      }

      .cls-1, .cls-2 {
        stroke-width: 0px;
      }

      .cls-2 {
        fill: #83b7da;
      }
    </style>
  </defs>
  <g id="how_to_prevent" data-name="how to prevent">
    <g id="ic_good_agricultural_practices" data-name="ic_good agricultural practices">
      <g>
        <path class="cls-1" d="m16.11,7.71c-1.05.53-1.35,1.9-1.37,2.14,0,.05.02.41.07.91.03.4.07.89.13,1.43.16,1.91.38,4.31.38,4.31l-.48.02-.1-1.4s-.02-1.24-.08-2.68c-.03-.67-.07-1.38-.13-2.02-.07-1-.18-1.83-.34-2.13-.2-.39-.78-.64-1.4-.96-.26-.1-.51-.25-.76-.41-.53-.36-1.04-.81-1.29-1.51-.7-1.86,0-3.32,0-3.32,0,0-.07,1.77.73,2.7.81.93,2.65,1.94,2.87,2.89v.02c0,.15.02.3.06.44.14.41.25,1.28.25,1.28,0,0,.54-1.06.5-1.89,0,0,0-.03-.01-.1-.04-.48-.18-2.64.35-3.59.59-1.09,1.34-2.47,1.11-3.66.06-.83.26,1.6.18,2.85-.06,1.24.39,4.17-.66,4.69Z"/>
        <path class="cls-2" d="m14.36,7.15s-.04.24-.03.52c-.22-.95-2.06-1.96-2.87-2.89-.81-.93-.73-2.7-.73-2.7,0,0,.44,1.41,1.84,2.25,1.4.85,1.89,2.06,1.79,2.82Z"/>
        <path class="cls-2" d="m15.48,3.82c-.52.95-.39,3.11-.35,3.59-.08-.85-.79-2.37-.3-3.44.48-1.09,1.7-2.99,1.76-3.81.23,1.18-.52,2.57-1.11,3.66Z"/>
      </g>
    </g>
  </g>
  <g id="Who_is_at_risk" data-name="Who is at risk">
    <g>
      <path class="cls-2" d="m26.61,18.27l-3.45-1.71s-2.03-1.8-2.93-2.58c-.91-.78-2.45-.98-5.64-.03-3.19.95-2.92.96-5.45,1.11-1.93.11-2.11.99-1.81,1.52-1.71-1.15-3.72-2.59-3.72-2.59-.38-.33-.88-.39-1.1-.12s-.1.74.28,1.07l.82.7-1.94-1.11c-.49-.39-1.16-.36-1.48.05s-.18,1.06.31,1.45l7.27,5.67c.2.16.43.23.65.25,0,0,.01.02.02.02h.06c.07,0,.13-.01.2-.02l4.71-.43h0s6.06-.55,6.06-.55c.08.07.15.14.25.19l4.38,2.17c.71.35,1.57.06,1.92-.65l1.24-2.5c.35-.71.06-1.57-.65-1.92Zm-12.93-1.02s.28.34-.36.33c-3.01-.03-3.85.08-4.1.23-.31-.18-.77-.47-1.29-.82,1.16.2,5.59.21,5.75.26Z"/>
      <path class="cls-1" d="m7.76,21.7c.2.16.43.23.65.25,0,0,.01.02.02.02h.06c.07,0,.13-.01.2-.02l4.71-.43h0s6.06-.55,6.06-.55c.08.07,4.63,2.37,4.63,2.37.71.35,1.57.06,1.92-.65l.86-1.74s-3.79-2.03-7.42-2.12-8.85,1.43-10.63,1.61c-1.03.1-4.39-2.42-5.05-2.76s-1.63-.69-1.53-.28l5.52,4.31Z"/>
    </g>
  </g>
</svg>