<?xml version="1.0" encoding="UTF-8"?>
<svg id="Livello_2" data-name="Livello 2" xmlns="http://www.w3.org/2000/svg" viewBox="0 0 29.9 18.21">
  <defs>
    <style>
      .cls-1 {
        stroke: #a3daf8;
        stroke-width: .25px;
      }

      .cls-1, .cls-2 {
        fill: none;
        stroke-linecap: round;
        stroke-miterlimit: 10;
      }

      .cls-2 {
        stroke: #3e6378;
        stroke-width: .5px;
      }

      .cls-3 {
        fill: #78a8c8;
      }

      .cls-3, .cls-4, .cls-5, .cls-6, .cls-7, .cls-8, .cls-9, .cls-10 {
        stroke-width: 0px;
      }

      .cls-4 {
        fill: #93ccf0;
      }

      .cls-5 {
        fill: #335260;
      }

      .cls-6 {
        fill: #83b7da;
      }

      .cls-7 {
        fill: #3e6378;
      }

      .cls-8 {
        fill: #a3daf8;
      }

      .cls-9 {
        fill: #8abde7;
      }

      .cls-10 {
        fill: #fff;
      }
    </style>
  </defs>
  <g id="how_to_prevent" data-name="how to prevent">
    <g id="ic_good_hygiene_practices_at_milking" data-name="ic_good hygiene practices at milking">
      <g>
        <path class="cls-5" d="m16.06,10.86s-.15.27.09.52.68.76,1.31.64-.26-1.09-.26-1.09l-1.14-.08Z"/>
        <path class="cls-5" d="m15.87,8.7s-.07,1.76.06,1.98.48.55.73.79.88.29.66-.28-.59-.83-.54-1.68-.9-.81-.9-.81Z"/>
        <path class="cls-1" d="m11.95,13.29s1.3-.6,1.57-1.12c.36-.69,0-2.05,0-2.05"/>
        <path class="cls-1" d="m12.83,13.85s1.3-.6,1.57-1.12c.36-.69.2-2.18.2-2.18"/>
        <path class="cls-1" d="m13.48,14.34s1.42-.92,1.76-1.4c.65-.92.36-2.67.36-2.67"/>
        <path class="cls-7" d="m13.22,8.63s-.01.89,0,1.42c0,.15.62.15.61,0-.02-.6,0-.96,0-.96l-.61-.46Z"/>
        <path class="cls-7" d="m14.27,9.01s-.01.89,0,1.42c0,.15.62.15.61,0-.02-.6,0-1.42,0-1.42h-.61Z"/>
        <path class="cls-7" d="m15.24,8.77s-.01.89,0,1.42c0,.15.62.15.61,0-.02-.6,0-1.42,0-1.42h-.61Z"/>
        <path class="cls-7" d="m10.54,11.09s-.1.33,0,.49.78.79,1.4.73-.02-1.07-.13-1.3-1.27.08-1.27.08Z"/>
        <path class="cls-5" d="m20.22,16.78s-.13.3-.09.42.81.95,1.58.67-.19-1.22-.19-1.22l-1.3.13Z"/>
        <path class="cls-7" d="m24.75,15.35c-.44.06-.78-.06-1.21-.35-.03-.02-.06-.05-.09-.07-.29-.25-.05-.44.04-.68.11-.27,0-2.06,0-2.06l1.28-1s-.07.71-.29,1.3c-.21.59-.05,1.63.11,2.02.06.16.17.31.25.44.01.01.02.02.02.03.11.19.14.34-.11.37Z"/>
        <path class="cls-4" d="m29.75,9.45c-.3.27-.55.49-.98.69-.42.2-.67.17-1.12-.07-.44-.24-.44-.91-.44-.91,0,0,.77-.11.59-1.1-.19-.99-.8-1.77-1.3-2.01-.49-.23-.3-.41.02-.72.33-.31.59-.32.78.32.19.64.66,1.78,1.41,2.07.5.19.67.25.73.27.44.48.6,1.19.31,1.46Z"/>
        <path class="cls-3" d="m20.98,12.19s.99.36,2.14.11,1.9-1.26,1.92-1.77-.22-.63,0-.7,1.82-.89,1.82-.89l-2.43-.75-3.46,3.99Z"/>
        <path class="cls-7" d="m25.03,8.87c-.26.15-.87.29-1.31.58-.65.42-.16,1.74-1.6,2.37-.23.1-.45.17-.65.2.2-.65.4-1.24.4-1.24,0,0,.73-.18.96-.93.24-.76.61-.87.82-1.02.22-.14.66-.78,0-1.08-.65-.3-1.17-.22-1.38-.51,0,0,1.18.37,1.73-.24,0,0,.22,1.37,1.03,1.87Z"/>
        <path class="cls-7" d="m20.04,11.77c-.41-.2-.83-.48-1.37-.75-1.12-.55-2-1.42-2.71-2.21h0c-.16-.19-.31-.36-.45-.52-.77-.89-1.41-1.1-1.41-1.1h0c.07-.08.13-.15.18-.21.28-.32.35-.43.35-.43,0,0,2.79,3.2,4.06,3.57,1.11.31,1.27,1.15,1.35,1.65Z"/>
        <path class="cls-7" d="m11.67,1.38s-2.53.73-2.84,2.82c0,0-.09,1.14-.32,1.45s.41,1.08.27,1.64c0,0,.75-1.16.31-1.56s-.07-1.04,0-1.55.58-1.99,2.29-2.31l.29-.49Z"/>
        <path class="cls-7" d="m11.95.91s.42-.38,1.22-.59.56-.4,1.58-.28,1.55.12,2.21.68,2.26,1.23,3.06,1.51,1.95.61,2.35,1.17,1.13,1.34,1.58,1.36,1.31-.11,1.31-.11l-.53,1.29-4.16.92s-6.71-3.07-6.81-3.19-2.15-1.09-2.17-1.22-.16-.85.38-1.54Z"/>
        <ellipse class="cls-7" cx="3.73" cy="8.18" rx="3.73" ry="2.13"/>
        <path class="cls-4" d="m7.45,7.46c0,.32-.12.61-.34.88h0c-.59.73-1.89,1.24-3.39,1.24-1.42,0-2.64-.45-3.27-1.11C.16,8.17,0,7.83,0,7.46,0,6.28,1.66,5.33,3.72,5.33s3.73.95,3.73,2.13Z"/>
        <path class="cls-9" d="m6.09,5.92c-.12.08-.24.15-.37.2v.02s-.01,2.53-.01,2.53c-.56.26-1.26.41-2.02.41-.22,0-.43-.01-.64-.04v-2.53c-.32-.03-.62-.1-.9-.19v2.53c-1.01-.32-1.7-.94-1.7-1.66,0-1.05,1.45-1.9,3.24-1.9.88,0,1.68.21,2.27.55.04.02.09.05.13.08Z"/>
        <path class="cls-4" d="m6.92,4.66c0,1.04-1.44,1.89-3.23,1.89-.22,0-.43-.01-.64-.04-.32-.03-.62-.1-.9-.19-1.01-.32-1.7-.94-1.7-1.66,0-1.05,1.45-1.9,3.24-1.9s3.23.85,3.23,1.9Z"/>
        <path class="cls-3" d="m5.17,5.41c-.42.16-.93.24-1.48.24-.22,0-.44-.01-.64-.05v-2.91s-.33-.09-.46-.24c0,0-.29.31-.36.7-.17.95,0,2.27,0,2.27-.67-.24-1.1-.63-1.1-1.07-.26-1.83,1.17-2.67,1.17-2.67h2.77c0,.07-.02.32-.43.56,0,0,.31.5.37.69.17.62.16,2.48.16,2.48Z"/>
        <path class="cls-9" d="m6.25,4.35c0,.44-.43.83-1.08,1.06,0,0,.01-1.86-.16-2.48-.06-.19-.37-.69-.37-.69.41-.24.43-.49.43-.55,0,0,1.43.83,1.18,2.66Z"/>
        <path class="cls-7" d="m2.37,1.9s-.11.86,1.33.86c1.54,0,1.38-1.07,1.38-1.07l-2.71.21Z"/>
        <ellipse class="cls-4" cx="3.69" cy="1.68" rx="1.39" ry=".77"/>
        <path class="cls-10" d="m3.05,2.69v2.91c-.3-.03-.66-.1-.9-.19,0,0-.09-1.31.08-2.26.07-.39.36-.7.36-.7.13.15.46.24.46.24Z"/>
        <path class="cls-10" d="m3.05,6.51v2.53c-.32-.03-.62-.1-.9-.19v-2.53c.28.09.58.16.9.19Z"/>
        <path class="cls-9" d="m2.15,6.32v.87H.45v-2.53c0,.72.69,1.34,1.7,1.66Z"/>
        <path class="cls-7" d="m6.09,5.92c-.12.08-.24.15-.37.2v.02s-.01,1.05-.01,1.05v1.48c.74-.35,1.21-.88,1.21-1.48v-2.53c0,.49-.31.93-.83,1.26Z"/>
        <path class="cls-7" d="m.45,8.47H.45S0,8.18,0,8.18v-.72c0,.37.16.71.45,1.01Z"/>
        <path class="cls-7" d="m7.45,7.46v.72l-.34.17h0c.22-.28.34-.57.34-.89Z"/>
        <ellipse class="cls-7" cx="3.71" cy="1.63" rx=".93" ry=".56"/>
        <path class="cls-7" d="m3.09,1.54l-.32.09v-.51c0,.17.12.32.32.42Z"/>
        <path class="cls-7" d="m4.64,1.12v.51l-.43-.04c.26-.1.43-.27.43-.47Z"/>
        <path class="cls-6" d="m4.64,1.12c0,.2-.17.37-.43.47-.15.06-.32.09-.51.09-.23,0-.45-.05-.61-.14-.2-.1-.32-.25-.32-.42,0-.31.42-.56.93-.56s.94.25.94.56Z"/>
        <ellipse class="cls-8" cx="3.71" cy="1.13" rx=".75" ry=".41"/>
        <path class="cls-9" d="m6.65,6.64c-.29-.07-.59.14-.69.49-.07.28.01.56.19.7h-.02c-.29-.08-.45-.43-.36-.78.1-.36.41-.58.71-.5.06.02.12.05.17.09Z"/>
        <path class="cls-4" d="m6.97,7.42c-.12.35-.45.55-.74.45,0,0-.01-.01-.03-.02-.06-.02-.11-.05-.15-.1h0c-.16-.17-.21-.43-.12-.69.07-.2.22-.36.39-.43h.02c.11-.05.22-.05.33-.02.28.1.42.47.3.81Z"/>
        <path class="cls-9" d="m6.67,6.61c-.11-.03-.22-.03-.33.01l.14-.07.19.06Z"/>
        <path class="cls-9" d="m6.23,7.87l-.19-.08s0-.02.01-.04c.04.05.09.08.15.1.02,0,.03.02.03.02Z"/>
        <path class="cls-7" d="m7.2,7.61c-.09.27-.35.43-.58.35,0,0,0,0-.02-.02-.05-.02-.09-.04-.12-.08h0c-.13-.13-.16-.34-.09-.54.05-.16.17-.28.31-.34h.02c.09-.04.17-.04.26-.02.22.08.33.37.24.64Z"/>
        <path class="cls-4" d="m7.6,7.86c-.09.27-.35.43-.58.35l-.02-.02-.12-.07h0c-.05-.06-.09-.13-.11-.2h0c-.03-.11-.03-.22.01-.35.04-.11.12-.21.22-.28.03-.02.06-.04.09-.05h.02c.08-.04.17-.04.25-.02.22.08.33.37.24.64Z"/>
        <path class="cls-7" d="m6.88,8.11h0s-.27-.15-.27-.15l.15-.06h.01v.02c.02.07.06.14.11.19Z"/>
        <path class="cls-7" d="m7.36,7.22c-.08-.02-.17-.02-.25,0h-.02s-.06.04-.09.06v-.29s.36.22.36.22Z"/>
        <path class="cls-3" d="m7.58,7.86c-.06.19-.24.3-.4.24h-.01s-.08-.06-.08-.06h0s-.06-.09-.08-.14h0c-.02-.08-.02-.15,0-.24.03-.08.08-.15.15-.2.02-.01.04-.03.06-.03h.01c.06-.03.12-.03.17-.01.15.06.23.26.17.45Z"/>
        <line class="cls-2" x1=".45" y1="8.87" x2=".45" y2="10.98"/>
        <line class="cls-2" x1="3.73" y1="10.31" x2="3.73" y2="12.79"/>
        <line class="cls-2" x1="6.98" y1="9.04" x2="6.98" y2="10.78"/>
        <polygon class="cls-7" points="15.09 15.35 14.29 15.83 12.38 16.98 6.88 13.8 5.74 13.14 6.98 12.49 12.62 15.75 14.1 14.78 15.09 15.35"/>
        <polygon class="cls-7" points="14.1 14.78 12.62 15.75 6.98 12.49 8.62 11.62 14.1 14.78"/>
        <path class="cls-7" d="m6.98,12.49l-1.24.65c.5-.4,1.19-.68,1.19-.68l.05.03Z"/>
        <path class="cls-7" d="m15.09,15.35l-.99-.57.19-.13s.59.24.8.7Z"/>
        <polygon class="cls-8" points="14.29 14.65 14.1 14.78 12.62 15.75 6.98 12.49 6.93 12.46 8.81 11.47 14.29 14.65"/>
        <polygon class="cls-9" points="5.74 13.14 5.74 14.32 12.45 18.21 12.38 16.98 5.74 13.14"/>
        <polygon class="cls-3" points="12.45 18.21 15.09 16.58 15.09 15.35 12.38 16.98 12.45 18.21"/>
        <path class="cls-3" d="m8.11,7.96l-.66-.53-.37.61s.76.37.76,1.11v3.01c0,.05.15.09.34.09s.34-.04.34-.09v-3.36c0-.33-.15-.64-.41-.84Z"/>
        <path class="cls-3" d="m29.44,7.99c-.06-.02-.23-.08-.73-.27-.75-.29-1.22-1.43-1.41-2.07-.19-.64-.45-.63-.78-.32-.32.31-.51.49-.02.72.5.24,1.11,1.02,1.3,2.01.18.99-.59,1.1-.59,1.1,0,0-.5.03-1.7-.12-.18-.02-.34-.08-.48-.17-.81-.5-1.03-1.87-1.03-1.87-.55.61-1.73.24-1.73.24.21.29.73.21,1.38.51.66.3.22.94,0,1.08-.21.15-.58.26-.82,1.02-.23.75-.96.93-.96.93,0,0-.2.59-.4,1.24-.02.06-.03.11-.05.17-.21.73-.05.6-.05.6.28.94-.21,1.53-.23,1.55-.03.02-.03,1.72.37,2.31.4.58.26.82-.37.75-.64-.07-1.05-.8-1.05-.8,0,0,.34-2.38-.01-2.75-.36-.38.09-1.44,0-1.89-.01-.05-.02-.12-.04-.19-.08-.5-.24-1.34-1.35-1.65-1.27-.37-4.06-3.57-4.06-3.57,0,0-.07.11-.35.43-.05.06-.11.13-.18.2h0c-.06.08-.12.14-.19.22-.26.29-.65.52-1.01.67h-.01c-.43.2-.81.28-.81.28,0,0-.52,2.11-.38,2.43.14.31.42.76.02.84-.4.08-.75-.03-1.18-.53-.43-.49.01-.49.06-.81.05-.33.04-1.56.01-1.93-.03-.37-.01-.62.43-1.06.45-.44.43-1.21.55-1.75.13-.54-.22-1.83-.34-2.78-.11-.95.69-1.85.69-1.85-.61,1.06-.19,1.45.73,1.05.91-.4,2.09.1,2.99,1.27.91,1.18,2.46,1.44,3.85,1.53.84.06,1.33.74,1.69,1.13.24.26.42.4.62.16.03-.04.07-.08.1-.11.48-.51,1.1-.68,1.73-.65.69.03,1.51-.5,1.86-.88.36-.38.9-.02,1.41-.75.52-.72,2.1-.26,1.86.35-.23.61-1.06.87-1.06.87.48.28.43,1.17.43,1.17.25.7.69,1.28.99,1.62.03.03.06.07.08.09.05.06.1.11.13.14l.09.09Z"/>
        <path class="cls-5" d="m24.87,16.06c-.92.16-1.42-.58-1.49-.69-.07-.12.06-.44.06-.44h.01s.06.05.09.07c.43.29.77.41,1.21.35.25-.03.22-.18.11-.37.19.2.81.95.01,1.08Z"/>
        <path class="cls-3" d="m15.96,8.8h0c-.52.32-1.18.43-1.18.43-1.52.06-1.89-1.15-1.89-1.15h.01c.36-.16.75-.39,1.01-.68.07-.08.13-.14.19-.21,0,0,.64.21,1.41,1.1.14.16.29.33.45.51Z"/>
        <path class="cls-7" d="m24.04,5.94s-1.05-.09-1.64.33-.92.66-.67.67.76.23,1.42.22.97-.55.98-.82.12-.39-.1-.4Z"/>
        <path class="cls-7" d="m26.86,4.33s.41-.2.62-.48.87-.12,1.19-.06-.34.44-.53.72-.59.29-.72.12-.56-.29-.56-.29Z"/>
        <path class="cls-7" d="m28.76,9.51c-.06,0-.67-.12-.87,0s.04.22.17.18.37-.07.55-.05.37-.12.16-.14Z"/>
        <path class="cls-7" d="m29.44,9.08s.15-.59.31-.62c0,0,.09.24.11.31s-.21.19-.29.31-.19.21-.13,0Z"/>
        <ellipse class="cls-7" cx="26.06" cy="7.11" rx=".25" ry=".18"/>
        <path class="cls-7" d="m28.13,5.67s-.19.08-.21.26.23.12.23.12c0,0,.13-.21-.02-.38Z"/>
      </g>
    </g>
  </g>
</svg>