<?xml version="1.0" encoding="UTF-8"?><svg id="Livello_2" xmlns="http://www.w3.org/2000/svg" viewBox="0 0 21.3927774846 13.1735093162"><defs><style>.cls-1{fill:#f9ebe1;}.cls-2,.cls-3{fill:#fff;}.cls-4{fill:#8fb7d6;}.cls-5{fill:#476376;}.cls-6{fill:#83a7c4;}.cls-7{fill:#7799b2;}.cls-3{opacity:.35;}</style></defs><g id="how_to_prevent"><g id="ic_Complying_with_process_food_safety_criterion_verified_by_Competent_Authority"><path class="cls-7" d="m15.6991811079,13.1735093162H.7957515836c-.6292760458,0-1.0087609127-.5093162374-.6673877002-.8957179111L8.7562734677,2.5118268206c.1740884374-.1970513828.4726174132-.3164535007.793523732-.317384314l11.1248569725-.0322684988c.4833493564-.0014019918.8292081489.3409659795.6851232682.6782081836l-4.0433985188,9.4638981045c-.2209315332.5171079497-.8760516595.8692290204-1.6171978137.8692290204Z"/><path class="cls-6" d="m6.6223145964,11.8109630651s.8235713314-.1423506631,1.6303462891-2.2987201958,2.4208030426-3.2938060143,2.4208030426-3.2938060143c0,0,2.5466633882-1.6342645665,2.0590642882-3.1199911204-.2006363147-.4221119502-1.740160017-.1588629191-2.2748779641-.0651957321-1.4639954767.2564498515-2.4511079326,1.7226759693-2.4511079326,1.7226759693,0,0-2.6063643828,2.3719934023-2.6862788363,3.5742513077-2.0211083827,2.1205272821-3.6535944375,4.3641462649,1.3020511131,3.4807857855Z"/><path class="cls-1" d="m3.8402877663,10.8171454534c.3052185519-.6245552312,1.2107922359-.8030228185,1.7911371222-2.31227849.8067749577-2.1563695327,3.626807356-4.337275706,3.626807356-4.337275706,0,0,1.7371927731-1.223715438,1.202474826-1.130048251-1.4639954767.2564498515-2.4511079326,1.7226759693-2.4511079326,1.7226759693,0,0-2.6063643828,2.3719934023-2.6862788363,3.5742513077-1.387018895,1.4552467512-2.5910115757,2.9684649734-1.6082644857,3.4892148081.1462991426.0775227473-.1799866015-.3819844069.1252319505-1.0065396381Z"/><path class="cls-1" d="m4.4087589184,11.7433859821s-.0803730933-.4881969382.7559632074-1.487957195,1.6193783154-1.8439140121,2.000713536-2.6724681396,3.1399488407-3.3308561034,3.1399488407-3.3308561034c0,0-2.74030636,2.5783594958-3.0816734434,3.4744531332-.1172124281.3423329444-1.138632158,1.5181712097-1.138632158,1.5181712097,0,0-1.3624137896,1.4884771778-1.6763199827,2.4986570951Z"/><path class="cls-6" d="m14.6878431583,5.3888179455s.0952771756.7361456365-1.7398228544,2.0810021899-2.4691725185,3.0530231375-2.4691725185,3.0530231375c0,0-.5998599278,1.6816303303-2.1573945843,1.7313094326-1.2222034942,0-.888010796-.4493330237-.9486821559-.9276728883-.1661111189-1.3096388514.9584581532-2.5926261185.9584581532-2.5926261185,0,0,1.5356688961-2.9239012549,2.6627284233-3.3628538489,1.4596630763-2.3542908922,3.1462009936-4.4200515201,3.6938855366.0178180956Z"/><path class="cls-1" d="m12.9560161321,3.3581533107c-.5114030473.4496447691-.4276196699,1.2658736822-1.707612094,2.2203226674-1.8351000299,1.3448565534-3.1280351563,4.3892302181-3.1280351563,4.3892302181,0,0-.6819630052,1.8383548244-.7426343651,1.3600149599-.1661111189-1.3096388514.9584581532-2.5926261185.9584581532-2.5926261185,0,0,1.5356688961-2.9239012549,2.6627284233-3.3628538489,1.0017178121-1.6156708764,2.1102849747-3.0954550622,2.8842910442-2.4306000055.1152243802.0989753373-.415792958-.0331326415-.9271960053.4165121275Z"/><path class="cls-1" d="m14.0013319893,3.5494571826s-.4893592164.0834277013-1.210288371,1.0954510899-1.308051737,1.9311379576-1.9931186895,2.5078364728-2.3025529711,3.6688464535-2.3025529711,3.6688464535c0,0,1.6953501117-3.1002830825,2.4562224836-3.6642789159.2943829926-.204369568,1.1316658997-1.4263872912,1.1316658997-1.4263872912,0,0,1.0404031365-1.6052692594,1.9180716482-2.1814678091Z"/><path class="cls-6" d="m12.6004277092,11.9170412539s.7224798149-.1703263204,1.3341503507-2.3616935704,1.9866882604-3.386861816,1.9866882604-3.386861816c0,0,1.3622445114-1.15412408.8597110022-2.6291977363-.4308211749-1.1437545613-.7335116895-.6726246661-1.2025349833-.5607891178-1.2841311654.3061927089-2.088362448,1.8108270231-2.088362448,1.8108270231,0,0-2.1949100388,2.4677616231-2.2084044544,3.6772079668-1.6886526628,2.1958492858-3.0273224518,4.50230551,1.3187522722,3.4505072506Z"/><path class="cls-1" d="m10.0896431244,11.0121741496c.2405164077-.6370756256,1.0338877244-.8463869887,1.4758824846-2.3806601401.6116705359-2.1913672501,3.0048828355-4.4744413049,3.0048828355-4.4744413049,0,0,1.4799684514-1.2862019219,1.0109451576-1.1743663737-1.2841311654.3061927089-2.0883624479,1.8108270231-2.0883624479,1.8108270231,0,0-2.1949100388,2.4677616231-2.2084044544,3.6772079668-1.1588656851,1.506937716-2.152902857,3.0659670587-1.2578888816,3.555934023.1332385295.0729401771-.1775711014-.3774255686.0629453063-1.0145011942Z"/><path class="cls-1" d="m10.6371369624,11.9229611225s-.0944241276-.4873568592.5985167987-1.5187457565,1.3461027309-1.9048098582,1.6443020157-2.7491883831,2.6217166819-3.4480119088,2.6217166819-3.4480119088c0,0-2.3036836363,2.6793672568-2.563274514,3.590207881-.0874831396.3475269298-.9359254358,1.5618232908-.9359254358,1.5618232908,0,0-1.1354953103,1.5394734431-1.3653355466,2.5639148766Z"/><path class="cls-6" d="m19.3129637151,5.0662692419s.1939895446.7164887961-1.4423036024,2.297240518-2.0334500565,3.3589945032-2.0334500565,3.3589945032c0,0,.0019645007,1.2717175174-1.5345309056,1.5316484425-1.2109677162.1653437981-1.3094478314.1505353724-1.4342728617-.3151992643-.3417563983-1.2751272051.5989078208-2.6984554182.5989078208-2.6984554182,0,0,1.1259962221-3.1047721357,2.1833116518-3.6921618188,1.1277479327-2.5301159068,2.5193183789-4.8050464138,3.6623379536-.4820669624Z"/><path class="cls-1" d="m17.322342322,3.288559992c-.4458722372.5146954859-.2524368929,1.3120862687-1.3915412145,2.4309226353-1.636293147,1.5807517219-2.5054891504,4.772050918-2.5054891504,4.772050918,0,0-.4269948633,1.9137129847-.5518198936,1.447978348-.3417563983-1.2751272051.5989078208-2.6984554182.5989078208-2.6984554182,0,0,1.1259962221-3.1047721357,2.1833116518-3.6921618188.7739355815-1.7363336867,1.6721214504-3.3524848354,2.5289558708-2.7984519681.1275548331.0824775105-.4164528476.0234218179-.8623250849.5381173038Z"/><path class="cls-1" d="m18.3839287691,3.336691354s-.4735741327.1488629064-1.0509658226,1.2491124333-1.0347759158,2.0903425466-1.6355272993,2.7544176041-1.7850516021,3.9466156719-1.7850516021,3.9466156719c0,0,1.2603479537-3.3011346881,1.937926335-3.9628790522.2640289127-.2423159094.9282959697-1.5663700093.9282959697-1.5663700093,0,0,.8136724355-1.7312611731,1.6053224194-2.4208966478Z"/><path class="cls-3" d="m15.3990545532,12.8432142355H1.3897086985c-.5915246386,0-.9482435226-.4787614359-.627349906-.841982175L8.872664489,2.8211453398c.1636445574-.1852299142.4442642405-.2974688833.7459188093-.2983438555l10.4574566986-.0303326532c.454352355-.0013178838.7794624535.3205108142.6440214853.6375212491l-3.8008277347,8.8961417547c-.2076774512.4860857093-.8234957373.8170824007-1.5201791943.8170824007Z"/><path class="cls-5" d="m11.4371883916,1.950055865l-.0000014255.0000010176c-.2063798387.1473198203-.2004243812.455956103.0114850905.5952045969l.0000014637.0000009618c.3006893781.1975869351.1586213233.6653477573-.2011642047.6623356239l-.0000017514-.0000000147c-.2535572145-.0021227873-.4301510036.2510697405-.3405608508.4882814008l.0000006188.0000016385c.1271241305.3365919704-.2627542532.6315129173-.552056372.4175994229l-.0000014083-.0000010413c-.2038843525-.1507545623-.4955745628-.0497167293-.5625241223.1948513057l-.0000004624.0000016893c-.0949982143.3470303133-.5837666356.3564616073-.6920817689.0133544361l-.0000005273-.0000016702c-.0763345976-.2418032185-.371705483-.3315130983-.5696222986-.1730053654l-.000001367.0000010948c-.28083447.2249148717-.6818000047-.054745921-.5677554532-.3959914914l.0000005551-.0000016611c.080372379-.2404912638-.1058575425-.4866827315-.3591441175-.4747798672l-.0000017495.0000000822c-.3594015035.0168895936-.5194089456-.4450423683-.2265658515-.6540821285l.0000014255-.0000010176c.2063798387-.1473198203.2004243812-.455956103-.0114850905-.5952045969l-.0000014637-.0000009618c-.3006893782-.1975869351-.1586213233-.6653477573.2011642047-.6623356239l.0000017514.0000000147c.2535572145.0021227873.4301510036-.2510697405.3405608508-.4882814008l-.0000006188-.0000016385c-.1271241305-.3365919704.2627542532-.6315129173.552056372-.4175994229l.0000014083.0000010413c.2038843525.1507545623.4955745628.0497167293.5625241223-.1948513057l.0000004624-.0000016893c.0949982143-.3470303133.5837666356-.3564616073.6920817689-.0133544361l.0000005273.0000016702c.0763345976.2418032185.371705483.3315130983.5696222986.1730053654l.000001367-.0000010948c.28083447-.2249148717.6818000047.054745921.5677554532.3959914914l-.0000005551.0000016611c-.080372379.2404912638.1058575425.4866827315.3591441175.4747798672l.0000017495-.0000000822c.3594015035-.0168895936.5194089456.4450423683.2265658515.6540821285Z"/><path class="cls-4" d="m11.0018523941,2.0223013422l-.0000011198.0000007993c-.1621213848.1157268725-.1574430838.3581756595.0090220963.4675621131l.0000011498.0000007555c.2362061076.155214132.1246047518.5226629716-.158024251.5202967946l-.0000013758-.0000000115c-.1991815044-.0016675525-.3379045008.1972274728-.2675270854.3835687506l.0000004861.0000012871c.0998621774.2644093371-.2064062248.4960840619-.4336670872.3280446247l-.0000011063-.000000818c-.1601610592-.1184250291-.3892978834-.039054905-.4418900134.1530651623l-.0000003633.000001327c-.0746257103.2726091624-.4585770391.2800179018-.543663836.010490558l-.0000004142-.000001312c-.0599645331-.1899481697-.2919927064-.2604196365-.4474659755-.1359041154l-.0000010739.00000086c-.2206091131.1766815532-.5355870109-.0430055794-.4459994778-.3110705453l.0000004361-.0000013049c.0631364065-.1889175656-.0831562399-.3823129182-.2821251438-.3729626403l-.0000013743.0000000646c-.282327333.0132675959-.4080209485-.3496023909-.1779784781-.5138132732l.0000011198-.0000007993c.1621213848-.1157268725.1574430838-.3581756595-.0090220963-.4675621131l-.0000011498-.0000007555c-.2362061076-.155214132-.1246047518-.5226629716.158024251-.5202967946l.0000013758.0000000115c.1991815044.0016675525.3379045008-.1972274728.2675270854-.3835687506l-.0000004861-.0000012871c-.0998621774-.2644093371.2064062248-.4960840619.4336670872-.3280446247l.0000011063.000000818c.1601610592.1184250291.3892978834.039054905.4418900134-.1530651623l.0000003633-.000001327c.0746257103-.2726091624.4585770391-.2800179018.543663836-.010490558l.0000004142.000001312c.0599645331.1899481697.2919927064.2604196365.4474659755.1359041154l.0000010739-.00000086c.2206091131-.1766815532.5355870109.0430055794.4459994778.3110705453l-.0000004361.0000013049c-.0631364065.1889175656.0831562399.3823129182.2821251438.3729626403l.0000013743-.0000000646c.282327333-.0132675959.4080209485.3496023909.1779784781.5138132732Z"/><path class="cls-2" d="m10.1428324561,1.6043361143c-.0871361032,0-.5121563514.3052081062-.9265163316.8722880121-.1024312703-.0632663728-.3281508568-.1851642194-.5478450745-.1851642194h-.0027809395c-.0282728846.0023174496-.05191087.0220157708-.0593267086.0491299305-.0074158386.0273459047.0027809395.0563140242.025955435.072536171.1552691201.1110058336.4125060206.3369571651.4407789051.4713692392.0064888588.031053824.057009259.0850503986.0889900629.0850503986.0713774463,0,.1218978465-.0797202647.2567734106-.2926938786.1645389183-.259786095.4129695105-.6525937944.7448282866-.9253576068.0217840258-.0178443616.0546918095-.0746218756.0449585213-.1015042905-.0092697982-.0266506699-.0375426828-.0456537562-.0658155673-.0456537562Z"/></g></g></svg>