<?xml version="1.0" encoding="UTF-8"?>
<svg id="Livello_2" data-name="Livello 2" xmlns="http://www.w3.org/2000/svg" viewBox="0 0 17.94 29.32">
  <defs>
    <style>
      .cls-1 {
        fill: #78a8c8;
      }

      .cls-1, .cls-2, .cls-3, .cls-4 {
        stroke-width: 0px;
      }

      .cls-2 {
        fill: #93ccf0;
      }

      .cls-3 {
        fill: #83b7da;
      }

      .cls-4 {
        fill: #daeffc;
      }
    </style>
  </defs>
  <g id="how_to_prevent" data-name="how to prevent">
    <g id="ic_good_hygiene_practices_at_milking" data-name="ic_good hygiene practices at milking">
      <path class="cls-1" d="m15.4,18.68H2.28c-.17,0-.31-.11-.36-.27l-.38-1.27c-.07-.24.11-.49.36-.49h13.83c.25,0,.43.23.37.47l-.33,1.27c-.04.17-.19.28-.37.28Z"/>
      <path class="cls-3" d="m2.56,18.68l1.14,10.07c.04.33.31.57.64.57h8.96c.32,0,.59-.24.64-.55l1.44-10.09H2.56Z"/>
      <polygon class="cls-4" points="10.22 18.68 9.55 29.32 11.98 29.32 12.94 18.68 10.22 18.68"/>
      <polygon class="cls-4" points="9.72 18.68 9.12 29.32 8.56 29.32 9.3 18.68 9.72 18.68"/>
      <path class="cls-2" d="m17.94,0c-.86,4.18-4.53,7.2-8.97,7.2-.43,0-.86-.03-1.27-.1-.54-.06-1.06-.18-1.56-.35-.28-.08-.55-.18-.81-.31l.16-.92c-.32-.14-.7-.34-1.11-.62-.58-.38-1.22-.92-1.81-1.67-.63-.81-1.21-1.86-1.61-3.23h16.98Z"/>
      <path class="cls-2" d="m4.48,4.8l-.1.1c-.58-.38-1.22-.92-1.81-1.67l.17-.17,1.74,1.74Z"/>
      <path class="cls-2" d="m13.59,4.8l2.04,2.04c.48.48,1.26.48,1.73,0s.48-1.26,0-1.73l-2.04-2.04-1.73,1.73Z"/>
      <path class="cls-2" d="m7.92,5.91l-.22,1.19-.25,1.4s0,.01-.01.03c-.07.16-.43.82-1.16.68-.54-.11-.35-1.49-.14-2.46-.28-.08-.55-.18-.81-.31l.16-.92v-.05s2.43.44,2.43.44Z"/>
      <path class="cls-2" d="m12.62,7.08s-.04.91-1.16.87c-1.13-.04-1.69-3.1-1.69-3.1l2.12-.56.73,2.79Z"/>
      <path class="cls-4" d="m8.31,14.62c-1.04,0-1.61-1.01-.93-1.92.58-.78.93-1.74.93-1.74,0,0,.34.96.93,1.74.68.91.12,1.92-.93,1.92Z"/>
      <path class="cls-4" d="m13.63,12.61c-1,.27-1.82-.56-1.39-1.61.36-.9.44-1.92.44-1.92,0,0,.58.84,1.34,1.44.89.7.61,1.82-.4,2.09Z"/>
      <path class="cls-3" d="m7.44,8.53l-.04.21c-.12.67-.76,1.11-1.42.99-.67-.12-1.11-.76-.99-1.42l.33-1.85h0s0-.02,0-.02c.26.13.53.23.81.31-.21.97-.4,2.35.14,2.46.73.14,1.09-.52,1.16-.68Z"/>
      <path class="cls-3" d="m5.49,5.52c-.32-.14-.7-.34-1.11-.62-.58-.38-1.22-.92-1.81-1.67-.63-.81-1.21-1.86-1.61-3.23h-.96c.32,1.46.99,2.79,1.91,3.89l-1.21,1.21c-.48.48-.48,1.26,0,1.74.48.48,1.26.48,1.74,0l1.28-1.28c.5.35,1.04.65,1.61.88.26.13.53.23.81.31.11-.53.22-.94.22-.94,0,0-.35-.07-.87-.29Z"/>
      <path class="cls-3" d="m11.75,8.57c-.65.18-1.32-.21-1.5-.87l-.73-2.79.25-.06s.56,3.06,1.69,3.1c1.12.04,1.16-.87,1.16-.87.18.65-.21,1.32-.87,1.49Z"/>
      <path class="cls-2" d="m8.54,12.04s.24.53.51.85.27.89,0,1.11.3-.55-.07-.98-.43-.98-.43-.98Z"/>
      <path class="cls-2" d="m13.2,10.01s.36.45.71.69.49.79.29,1.07.14-.61-.33-.92-.67-.83-.67-.83Z"/>
    </g>
  </g>
</svg>