<?xml version="1.0" encoding="UTF-8"?>
<svg id="Livello_2" data-name="Livello 2" xmlns="http://www.w3.org/2000/svg" viewBox="0 0 14.29 12.57">
  <defs>
    <style>
      .cls-1 {
        fill: #83b7da;
      }

      .cls-1, .cls-2 {
        stroke-width: 0px;
      }

      .cls-2 {
        fill: #8cc3e8;
      }
    </style>
  </defs>
  <g id="how_to_prevent" data-name="how to prevent">
    <g id="ic_wash_hands">
      <path class="cls-1" d="m11.8.08h2.49s0,3.15,0,3.15H5.55s-2.09-.21-2.17,3.18H.49S-.7-.03,5.14,0h2.85"/>
      <path class="cls-2" d="m.39,5.3v-.17h-.23s-.09,0-.09.17.1,1.26.1,1.26h3.43s0-1.01.06-1.23c.05-.17-.13-.2-.13-.2l-.06.17H.39Z"/>
      <path class="cls-1" d="m1.87,12.57c-1.59,0-2.45-1.54-1.41-2.93.89-1.19,1.41-2.65,1.41-2.65,0,0,.52,1.46,1.41,2.65,1.04,1.39.18,2.93-1.41,2.93Z"/>
    </g>
  </g>
</svg>