<?xml version="1.0" encoding="UTF-8"?><svg id="Who_is_at_risk" xmlns="http://www.w3.org/2000/svg" viewBox="0 0 32 32"><defs><style>.cls-1{fill:#fff;}.cls-2{fill:#b53a3d;}.cls-3{fill:#d99898;}.cls-4{fill:#c46769;}.cls-5{fill:#bf5456;}.cls-6{fill:#c98c8c;}</style></defs><g id="ic_appendicitis"><path class="cls-1" d="M6.17,2.36c-1.05,1.09-3.51,4.47,1.59,8.59,.14,.11,.19,.3,.11,.46-.46,.91-1.73,4.05,.85,7.12,.12,.15,.17,.34,.1,.52-.42,1.09-1.71,5.13,.91,7.66,.19,.19,.44,.31,.7,.39,.56,.17,1.66,.42,3.12,.42,.25,0,.58,1.37,1.45,2.31,.43,.47,1.05,.9,1.96,1,1.06,.12,2.44-.15,3.03-.39,1.01-.41,1.53-1,1.6-1.41s-.03-.87-.93-1.11-2.21,.97-2.97,.85c-1.07-.18-.93-1.66-.79-1.69,.8-.2,1.5-.46,2.38-.87,.41-.19,.7-.57,.8-1.01,.31-1.4,.69-4.58-1.44-7.22-.16-.2-.22-.46-.13-.69,.5-1.29,1.88-5.73-1.3-9.32-.12-.13-.17-.31-.12-.48,.27-.95,.96-4.26-2.09-6.2-.28-.18-.63-.24-.97-.2l-7,.85c-.33,.04-.63,.18-.86,.42Z"/><path class="cls-3" d="M6.58,3.57c.24-.22,.55-.35,.88-.4l6.53-1.03c.25-.04,.51,0,.72,.14,.5,.33,2.58,4.22,.95,5.13-.25,.14-.34,.42,0,1.14s.96-.38,2.18,3.06,.1,4.69-.35,4.83c-.5,.14-1.47,1.52-.38,1.97,1.48,.61,2.85,2.89,1.93,6.27,0,0-.76,1.92-4.36,2.21s-4.14-1.21-4.14-1.21c-.48-.83-1.68-3.38-.15-6.46,.18-.35,.29-.74-.67-1.43s-1.98-4.63-.75-5.41,.71-2.58-.72-2.49c-1.34,.09-3.51-4.57-1.66-6.29Z"/><path class="cls-6" d="M6.54,3.54c-1.85,1.72,.32,6.38,1.66,6.29,1.43-.09,1.96,1.71,.72,2.49s-.21,4.72,.75,5.41,.84,1.08,.67,1.43c-1.53,3.08-.3,5.89,.27,6.66,.76,1.01,2.35,1.13,2.96,1.08,0,0-.72-2.15-.73-3.93,0-2.08,.82-2.72,.46-4.87s-1.4-1.58-2.11-3.4c-.39-1,.76-1.46,.29-4.31s-2.35-3.05-2.51-4.35-.12-3.1-.12-3.1c-1.99,.25-2.2,.48-2.32,.59Z"/><circle class="cls-4" cx="21.89" cy="19.22" r="6.59"/><circle class="cls-5" cx="21.89" cy="19.22" r="4.8"/><circle class="cls-2" cx="21.89" cy="19.22" r="2.98"/><path class="cls-6" d="M14.11,27.06s.23,.04,1.05-.07,1.19-.25,1.19-.25c0,0-.23,1.58,.31,2.04s1.7,.5,2.84-.14,1.75-.12,1.61,.32-3.02,1.88-4.71,1.22-2.29-3.13-2.29-3.13Z"/></g></svg>