<?xml version="1.0" encoding="UTF-8"?><svg id="Who_is_at_risk" xmlns="http://www.w3.org/2000/svg" viewBox="0 0 32 32"><defs><style>.cls-1{fill:#fff;}.cls-2{fill:#b87777;}.cls-3{fill:#d99898;}.cls-4{fill:#87bcb3;}</style></defs><g id="ic_acidity"><path id="Tracciato_26" class="cls-1" d="M14.16,1.68s.22,11.1-2.22,12.34c-2.44,1.24-5.86,1.67-8.18,4.15s-.63,5.29-.63,5.29c0,0-1.49,1.35-1.12,6.35l2.36,.51s-.32-2.8,1.03-4.43c0,0,7.7,7.75,18.11-2.24S26.33-.24,17.97,6.75l-.15-5.6-3.66,.53Z"/><path id="Tracciato_31" class="cls-4" d="M10.39,16.47c-1.47,.28-3.07,.34-5.24,2.06-2.04,2.05-.99,4.66,.61,6.05s7.43,5.1,14.28-.11c3.24-2.39,6.37-6.74,6.36-8.22,0,0-1.26-1.33-3.73-1.07s-3.68,1.94-6.37,1.94-5.22-.69-5.9-.66Z"/><path class="cls-3" d="M24.64,8.74c.16,1.98-.13,2.24-2.41,5.53-.44,.63-.76,1.22-1,1.76-.97,2.16-.57,4.79,1.12,6.44,.66,.65,1.4,1.02,2.17,1.17,1.71,.34,3.53-.43,4.69-1.68,2.19-2.36-.59-7.75-.59-7.75,0,0-.02,1.45-.93,2.03,0,0-.64,.07-.32-.78,0,0,.76-1.42-.28-3.63-.32-.68-.77-1.28-1.28-1.83l-1.17-1.25Z"/><path class="cls-2" d="M23.66,18.08s-1.87,2.26,.17,4.68c.64,.76,1.72,1.08,2.61,.64,.51-.25,1.02-.74,1.35-1.66,.49-1.38,.07-2.92-.98-3.93l-.05-.05c-1.33-1.27-.78-2.96-.78-2.96,0,0-2.12,1.44-1.47,4.43,0,0-.57,.06-.83-1.14Z"/></g></svg>