<?xml version="1.0" encoding="UTF-8"?><svg id="Complications" xmlns="http://www.w3.org/2000/svg" viewBox="0 0 32 32"><defs><style>.cls-1{stroke:#fff;}.cls-1,.cls-2{stroke-linecap:round;}.cls-1,.cls-2,.cls-3{stroke-miterlimit:10;}.cls-1,.cls-3{fill:#fff;stroke-width:.5px;}.cls-4{fill:#d99898;}.cls-2{fill:none;stroke:#ed7580;}.cls-3{stroke:#e59791;}</style></defs><g id="ic_bowel"><path class="cls-3" d="M4.61,3.88s.04-.06,.06-.09"/><path class="cls-1" d="M4.68,3.8c1.04-1.66,3.25-2.81,5.78-2.81,2.16,0,4.06,.84,5.23,2.11,1.04-.97,2.42-1.6,3.96-1.6,2.28,0,4.27,1.35,5.2,3.3,.37,.77,.59,1.65,.59,2.57,0,1.4-.5,2.66-1.3,3.66,1.09,.54,1.91,1.34,2.32,2.27,0,0,.02,.04,.05,.11,.02,.05,.05,.11,.07,.17,.12,.35,.19,.71,.19,1.1,0,.26-.02,.52-.1,.77h0c-.14,.6-.44,1.14-.85,1.61-.17,.2-.4,.41-.66,.61-.2,.15-.42,.31-.67,.46-.12,.07-.26,.15-.4,.22l.02,.02c1.29,.77,2.12,2.01,2.12,3.42,0,0,.01,0,0,.01,0,1.34-.75,2.53-1.93,3.33,.64,.75,1,1.65,.91,2.6-.11,1.39-1.1,2.53-2.51,3.17l-3-.36-3.64-.44c-1.07-.85-1.68-2.02-1.59-3.27,.1-1.15,.81-2.15,1.86-2.81-.2-.27-.37-.56-.5-.87-.02-.06-.05-.12-.06-.2-.01-.02-.02-.05-.02-.07-.11-.34-.17-.7-.17-1.07,0-1.39,.82-2.61,2.07-3.41,.01-.01,.02-.01,.02-.01-1.41-.67-2.42-1.77-2.7-3.05-.01-.04-.01-.06-.01-.1-.01-.09-.02-.17-.04-.27-.01-.19-.01-.3-.01-.3,0-1,.47-1.92,1.24-2.66-.32-.25-.61-.54-.89-.85-.52,.52-1.25,.85-2.06,.85s-1.61-.39-2.15-.96c-.52,1.49-1.88,2.56-3.53,2.56-1.02,0-1.95-.41-2.63-1.07-.1-.1-.19-.2-.27-.3l.06-8.45Z"/><path class="cls-2" d="M15.13,14.18s-.15,3.08,3.19,4.16c0,0-3.97,1.53-2.11,5.31"/><path class="cls-2" d="M26.46,13.29s1.89,2.66-2.38,5.07c0,0,3.98,3.39,1.21,6.17"/><path class="cls-4" d="M24.83,16.46c.87-.7,.33-3.66-1.63-4.1-1.96-.43-1.27-2.03-.43-2.8,.83-.77,2.6-5.23-1.79-6.2-4.39-.97-6.07,2-6.07,2,0,0-2.28-4.08-6.28-2.41,0,0-2.28,1.07-2.96,2.48l.03,5.67c2.02,2.66,4.67-1.21,4.67-1.21,0,0,.67-.77,1.36,.03,.7,.8,2.01,1.73,3.87-.17,.58-.6,1.25-.92,1.87-1.05,1.35-.3,2.5,.29,2.16,.82-.09,.14-.29,.35-.55,.62-1.15,1.16-3.44,3.33-2.55,4.71,1.1,1.7,3.73,1.37,4.76,2.1,1.03,.73,1.83,1.73-1.47,2.63-2.06,.56-3.31,1.76-2.19,3.56,0,0,.28,2.25-.91,3.42-.57,.56,.58,2.62,.58,2.62l4.65,.51c2.13-1.82,1.82-4.3,.79-4.72-.45-.19-.44-.59-.29-1,.61-.57,1.07-1.3,1.34-1.96,.63-1.53,.33-2.8-.83-3.03-1.16-.23,1-1.83,1.87-2.53Z"/></g></svg>