<?xml version="1.0" encoding="UTF-8"?><svg id="ic_cancer" xmlns="http://www.w3.org/2000/svg" viewBox="0 0 32 32"><defs><style>.cls-1{stroke:#bce6c9;}.cls-1,.cls-2,.cls-3{fill:none;stroke-linecap:round;stroke-miterlimit:10;stroke-width:2.5px;}.cls-2{stroke:#c3e2cb;}.cls-3{stroke:#fff;}</style></defs><line class="cls-3" x1="8.65" y1="8.17" x2="10.65" y2="6.32"/><polyline class="cls-3" points="9.89 7.51 10.97 8.68 12.06 9.85"/><line class="cls-3" x1="5.86" y1="16.28" x2="5.86" y2="13.55"/><polyline class="cls-3" points="6.22 14.92 7.82 14.92 9.41 14.92"/><line class="cls-3" x1="10.15" y1="23.63" x2="8.17" y2="21.75"/><polyline class="cls-3" points="9.41 22.43 10.51 21.28 11.61 20.12"/><line class="cls-3" x1="18.33" y1="25.68" x2="15.6" y2="25.68"/><polyline class="cls-3" points="16.96 25.32 16.96 23.73 16.96 22.14"/><line class="cls-3" x1="25.83" y1="21.6" x2="23.97" y2="23.59"/><polyline class="cls-3" points="24.64 22.35 23.48 21.26 22.31 20.17"/><path class="cls-2" d="M24.07,14.92c0,3.92-3.18,7.09-7.09,7.09s-7.09-3.18-7.09-7.09,3.18-7.09,7.09-7.09"/><path class="cls-1" d="M17.46,11.42c-1.78,.02-3.29,1.24-3.72,2.9"/></svg>