<?xml version="1.0" encoding="UTF-8"?><svg id="ic_diabetic" xmlns="http://www.w3.org/2000/svg" viewBox="0 0 32 32"><defs><style>.cls-1{fill:#fff;}.cls-2{fill:#cb3234;}.cls-3{fill:#545454;}.cls-4{fill:#878787;}.cls-5{fill:#74beb3;}</style></defs><path class="cls-3" d="M22.73,5.66c0-1.91-1.55-3.46-3.46-3.46h-7.95c-1.91,0-3.46,1.55-3.46,3.46v12.08c0,.05,.03,.09,.03,.14,0,.09-.03,.18-.03,.27,0,3.91,3.33,7.09,7.43,7.09s7.43-3.17,7.43-7.09c0-.09-.03-.18-.03-.27,0-.05,.03-.09,.03-.14V5.66Z"/><rect class="cls-4" x="13.58" y="23.36" width="3.35" height="6.4" rx=".31" ry=".31"/><rect class="cls-1" x="10.28" y="5.01" width="10.04" height="11.77" rx=".21" ry=".21"/><g><circle class="cls-5" cx="11.63" cy="19.75" r="1.46"/><circle class="cls-5" cx="18.97" cy="19.75" r="1.46"/></g><path class="cls-2" d="M18.34,12.01c0,1.68-1.36,3.04-3.04,3.04s-3.04-1.36-3.04-3.04,3.04-5.27,3.04-5.27c0,0,3.04,3.59,3.04,5.27Z"/></svg>