<?xml version="1.0" encoding="UTF-8"?><svg id="Livello_21" xmlns="http://www.w3.org/2000/svg" viewBox="0 0 32 32"><defs><style>.cls-1{fill:#f7acac;}.cls-2{fill:#c4504d;}.cls-3{fill:#b52c2f;}.cls-4{fill:#d97373;}.cls-5{stroke:#db7676;stroke-linecap:round;}.cls-5,.cls-6,.cls-7,.cls-8,.cls-9,.cls-10{stroke-miterlimit:10;stroke-width:.25px;}.cls-5,.cls-7,.cls-8,.cls-9,.cls-10{fill:none;}.cls-6{fill:#c54f4f;}.cls-6,.cls-9{stroke:#a72a29;}.cls-7{stroke:#c63939;}.cls-8{stroke:#a73837;}.cls-10{stroke:#c4504f;}</style></defs><path class="cls-1" d="M10.52,1.71c-1.33,1-4.6,4.28,.25,9.65,.13,.14,.15,.36,.04,.52-.66,.91-2.59,4.12-.31,7.92,.11,.18,.12,.4,.02,.58-.64,1.12-2.76,5.3-.33,8.51,.18,.24,.42,.42,.69,.55,1.21,.58,4.88,1.97,9.82,.56,.48-.14,.86-.5,1.05-.97,.58-1.47,1.54-4.88-.33-8.13-.14-.24-.16-.54-.02-.77,.77-1.32,3.04-5.93,.19-10.39-.11-.16-.13-.36-.05-.54,.46-.99,1.78-4.49-1.21-7.13-.28-.25-.65-.37-1.02-.38l-7.79-.28c-.36-.01-.72,.09-1.01,.31Z"/><path class="cls-5" d="M10.96,11.36s9.52-.39,10.43-1.91"/><path class="cls-5" d="M10.64,19.79s8.77,1.72,10.56,.33"/><path class="cls-4" d="M10.75,3.1c.3-.2,.67-.29,1.03-.29h7.31c.28,0,.55,.09,.76,.28,.49,.45,2.09,5.05,.15,5.76-.29,.11-.44,.4-.2,1.24s1.11-.25,1.85,3.71-.7,5.14-1.21,5.21c-.57,.07-1.87,1.41-.76,2.08,1.52,.92,2.61,3.65,1.02,7.18-.11,.24-.33,.42-.59,.48-1.36,.31-5.84,1.16-8.51-.42-.17-.1-.29-.25-.36-.43-.38-.99-1.25-3.98,.96-7.08,.25-.36,.44-.76-.48-1.68s-1.36-5.4,.12-6.04,1.22-2.69-.36-2.84c-1.48-.14-3.04-5.6-.73-7.15Z"/><g><circle class="cls-10" cx="13.02" cy="6.53" r="2.92"/><circle class="cls-9" cx="13.02" cy="6.53" r="2.04"/><circle class="cls-2" cx="13.02" cy="6.53" r="1.2"/><circle class="cls-3" cx="13.02" cy="6.53" r=".34"/></g><g><circle class="cls-2" cx="15.06" cy="25.02" r="2.04"/><circle class="cls-10" cx="15.06" cy="25.02" r="3.68"/><circle class="cls-7" cx="15.06" cy="25.02" r="2.84"/><circle class="cls-3" cx="15.07" cy="25" r=".44"/></g><g><circle class="cls-10" cx="18.1" cy="14.62" r="4.67"/><circle class="cls-6" cx="18.1" cy="14.62" r="2.9"/><circle class="cls-8" cx="18.1" cy="14.62" r="3.76"/><circle class="cls-9" cx="18.1" cy="14.62" r="2"/><circle class="cls-3" cx="18.1" cy="14.62" r=".42"/></g></svg>