<?xml version="1.0" encoding="UTF-8"?><svg id="Who_is_at_risk" xmlns="http://www.w3.org/2000/svg" viewBox="0 0 32 32"><defs><style>.cls-1{fill:#fafafa;}.cls-2,.cls-3{fill:#86c0dc;}.cls-3{stroke:#fafafa;stroke-miterlimit:10;stroke-width:.75px;}.cls-4{fill:#dbdbdb;opacity:.96;}</style></defs><g id="ic_infant"><path class="cls-3" d="M15,22.06c-.46-1.19-1.22-2.31-2.28-3.22-.24-.21-.49-.4-.75-.57-.29-.21-.6-.4-.93-.56-.35-.19-.72-.34-1.09-.46-2.62-.9-5.48-.32-7.23,1.7-2.41,2.77-1.84,7.21,1.28,9.92,3.12,2.71,7.6,2.65,10.01-.11,1.59-1.84,1.88-4.39,1-6.7Zm-2.12,4.36c-1.65,1.89-4.7,1.93-6.82,.08-2.13-1.85-2.52-4.87-.88-6.76,1.14-1.31,2.97-1.74,4.69-1.24-.1,.37-.01,.79,.28,1.1l1.86,1.85c.21,.21,.5,.32,.78,.32,.24,0,.46-.07,.65-.2,.75,1.65,.59,3.53-.56,4.86Z"/><path class="cls-2" d="M13.71,21.29s-.09,.1-.13,.15-.09,.08-.13,.12c-.19,.13-.41,.2-.65,.2-.28,0-.57-.11-.78-.32l-1.86-1.85c-.29-.3-.38-.73-.28-1.1,.06-.18,.15-.34,.28-.47,.06-.07,.12-.11,.19-.16,.18-.11,.39-.17,.59-.17,.03,0,.07,0,.1,.01,.26,.01,.49,.11,.68,.31l.25,.25,1.61,1.6c.39,.39,.44,1,.13,1.42Z"/><path class="cls-3" d="M19.55,13.35C13.5,7.8,10.36,1.22,8.22,3.56c-1.24,1.35-1.08,4.4,.43,7.8,.23,.52,.33,1.09,.25,1.66-.3,2.19,1.08,5.11,3.69,7.38,2.31,2,4.99,2.98,7.05,2.77,.56-.06,1.12,.05,1.65,.27,3.95,1.61,7.49,1.68,8.83,.21,2.15-2.34-4.52-4.75-10.56-10.3Z"/><path class="cls-1" d="M27.06,12.19c.9-.51,1.69-1.27,2.26-2.31,1.01-1.85,.9-4.2-.3-5.94-2.18-3.17-6.54-3.38-9.02-.75-.38,.4-.69,.85-.93,1.31-.17,.33-2.82,4.84-4.08,5.98-.68,.61-.81,1.63-.37,2.43,.75,1.36,2.11,3.21,4.33,4.26,.98,.46,2.13,.23,2.85-.58,.76-.87,2.07-2.16,4.2-3.77,.33-.25,.7-.45,1.06-.65Z"/><path class="cls-4" d="M28.67,6.88c0,2.19-1.35,3.97-3.01,3.97s-1.64-1.96-.77-3.97c.67-1.54-.9-3.97,.77-3.97s3.01,1.78,3.01,3.97Z"/></g></svg>