<?xml version="1.0" encoding="UTF-8"?><svg id="ic_kidney" xmlns="http://www.w3.org/2000/svg" viewBox="0 0 32 32"><defs><style>.cls-1{fill:#fff;}.cls-2{fill:#fea0a0;}.cls-3{fill:#fddfa0;}</style></defs><path class="cls-3" d="M16.83,14.8s3.36,.65,3.95,3.65-.15,11.03-.3,12.39c0,0,1.31,.49,2.59,.15,0,0,.15-11.44-.82-14.5s-2.75-5.43-5.43-6.2,0,4.5,0,4.5Z"/><path class="cls-2" d="M22.06,5.7c0-2.56-2.07-4.63-4.67-4.76-1.31-.17-2.93,.08-4.53,.84-1.25,.59-2.27,1.38-3,2.23-.25,.24-.51,.47-.76,.76-3.67,4.17-4.67,10.3-2.4,15.37,.81,1.82,2.05,3.51,3.9,4.56,.03,.01,.05,.03,.08,.04,.29,.16,.59,.31,.92,.43,.66,.29,1.38,.46,2.14,.52,.06,0,.1,.02,.16,.03,.05,0,.09,0,.14,0,.07,0,.14,.02,.21,.02,.07,0,.13-.02,.2-.02,.15,0,.3-.02,.44-.04,3.07-.29,5.48-2.6,5.48-5.45,0-1.71-.89-3.22-2.25-4.23,0-.07-.01-.14-.02-.21,.46-.87,.74-1.87,.74-2.95,0-.9-.19-1.74-.52-2.51,2.15-.52,3.74-2.39,3.74-4.63Z"/><path class="cls-1" d="M8.11,17.71s.3,4.01,3.4,5.46c2.58,1.2,2.94-.7,1.23-1.32-1.08-.4-2.12-.93-2.9-1.78-.64-.7-1.32-1.55-1.73-2.36Z"/></svg>