<?xml version="1.0" encoding="UTF-8"?><svg id="Insieme_di_64_icone" xmlns="http://www.w3.org/2000/svg" viewBox="0 0 32 32"><defs><style>.cls-1{font-family:Verdana-Bold, Verdana;font-size:6.58px;}.cls-1,.cls-2{fill:#ffdda0;}.cls-3{opacity:.11;}.cls-4{fill:#ffdea0;}.cls-5{fill:#f0ca8e;}.cls-6{fill:#f0a89e;}.cls-7{fill:#80b0cc;}.cls-8{fill:#7ebf8d;}.cls-9{fill:#8cd49c;}</style></defs><path class="cls-4" d="M16.72,13.94l-8.22,.36c-.24,.01-.45-.19-.44-.43l.1-9.91c0-.2,.14-.37,.33-.41,2.62-.61,7.85-1.84,7.85-1.84,.13-.03,.22-.03,.38-.03V13.94Z"/><path class="cls-5" d="M16.72,13.94l6.6-.05V3.96c0-.21-.14-.4-.35-.47l-5.93-1.77c-.19-.05-.34-.04-.34-.04V13.94Z"/><path class="cls-7" d="M21.95,13.02c.28,.02,.47-.13,.47-.53V4.99c0-.34-.14-.48-.38-.56l-3.74-.98c-.22-.07-.43,.16-.43,.46V12.14c0,.32,.18,.58,.41,.61l3.67,.27Z"/><path class="cls-2" d="M13.07,25.78l-10.32-.36c-.22,0-.4-.19-.4-.41V14.49c0-.23,.18-.41,.41-.41l10.32-.14c.23,0,.42,.18,.42,.41v11.01c0,.23-.19,.42-.42,.41Z"/><path class="cls-7" d="M9.88,13.42c-.4,.02-.74-.32-.73-.74l.11-7.49c0-.36,.26-.67,.61-.75l5.14-1.13c.31-.07,.61,.16,.61,.48V12.34c0,.33-.25,.61-.59,.64l-5.15,.44Z"/><path class="cls-3" d="M13.1,13.94h.38c.12,0,.21,.09,.21,.21v11.39c0,.13-.11,.24-.24,.24h-.43s-.04-.02-.04-.04V14.06c0-.07,.06-.12,.12-.12Z"/><path class="cls-6" d="M11.58,24.27l-7.34-.26c-.27,0-.48-.23-.48-.49v-7.49c0-.27,.22-.49,.49-.5l7.34-.1c.28,0,.5,.22,.5,.49v7.85c0,.28-.23,.51-.51,.5Z"/><path class="cls-4" d="M25.07,26.91l-11.34-.72c-.29-.02-.51-.26-.51-.55V14.36c0-.3,.24-.54,.54-.55l11.31-.15v13.25Z"/><path class="cls-9" d="M23.19,25.42l-7.82-.49c-.41-.03-.73-.36-.73-.77V15.96c0-.41,.33-.74,.74-.75l7.95-.11c.32,0,.59,.26,.59,.58v9.05c0,.4-.33,.72-.73,.69Z"/><path class="cls-5" d="M25.07,26.91l3-1.32c.17-.07,.28-.24,.28-.43l-.02-10.39c0-.22-.15-.41-.36-.45l-2.88-.65v13.25Z"/><path class="cls-8" d="M25.98,25.25l1.63-.58c.09-.04,.07-.09,.07-.18l-.02-8.78c0-.08,0-.13-.1-.15l-1.57-.27s-.04,0-.07,.02c-.04,.03-.06,.08-.05,.13v9.77c0,.05,.05,.08,.11,.06Z"/><path class="cls-4" d="M14.48,10.14l-1.05,.1-.31-.85-1.4,.16-.28,.9-.91,.09c.37-1.27,.78-2.61,1.15-3.88,.42-.08,.84-.15,1.27-.23l1.53,3.71Zm-1.59-1.4l-.55-1.38-.45,1.51,1-.13Z"/><path class="cls-4" d="M19.14,10.2l.59,.09,.17-.78,.78,.15,.15,.83,.5,.08c-.21-1.17-.43-2.41-.64-3.58l-.7-.21-.85,3.42Zm.89-1.29l.31-1.27,.25,1.39-.55-.12Z"/><path class="cls-4" d="M9.99,20.74c0,.22-.04,.42-.13,.59-.09,.17-.21,.32-.36,.43-.18,.13-.38,.23-.59,.29-.21,.06-.49,.09-.82,.09l-2.04-.07,.06-4.45,1.76-.02c.37,0,.63,.01,.8,.04,.17,.02,.34,.08,.5,.16,.17,.09,.3,.21,.38,.35,.09,.15,.13,.32,.13,.5,0,.22-.06,.41-.17,.58-.12,.17-.28,.3-.49,.39v.02c.3,.06,.53,.18,.71,.37,.17,.18,.26,.43,.26,.73Zm-1.5-1.86c0-.08-.02-.15-.06-.23-.04-.08-.1-.13-.2-.17-.09-.03-.19-.05-.32-.05l-.63,.03-.02,.93s.53,0,.65-.01c.13,0,.23-.03,.31-.06,.11-.05,.17-.11,.21-.18,.03-.07,.05-.16,.05-.26Zm.28,1.85c0-.14-.03-.26-.08-.33-.06-.08-.15-.14-.28-.18-.09-.03-.22-.04-.38-.04s-.33,0-.5,0h-.28l-.02,1.11s.69,.02,.83,.02,.27-.03,.39-.08c.12-.05,.21-.12,.25-.2,.05-.08,.07-.18,.07-.29Z"/><text class="cls-1" transform="translate(16.83 22.48)"><tspan x="0" y="0">C</tspan></text></svg>