<?xml version="1.0" encoding="UTF-8"?><svg id="ic_transplant" xmlns="http://www.w3.org/2000/svg" viewBox="0 0 32 32"><defs><style>.cls-1{fill:#f8b9aa;}.cls-2{fill:#eeaea2;}.cls-3{fill:#fed4c2;}.cls-4{fill:#dda09b;}</style></defs><path class="cls-2" d="M4.6,6.01s.14,.33,.75,.23,.89-.5,1.08-.11c0,0-.19,.71,.05,1.3s.75,1.15,1.13,.89c0,0,3.66-1.3,5.42-.8,0,0,2.18-1.9,3.07-1.94,.8-.04,1.48,.55,1.78,1.18,.06,.13,.01,.28-.11,.36-.53,.35-1.95,1.26-2.14,1.22-.23-.04,3.66,4.27,3,5.77s-10.74,4.31-10.74,4.31c0,0-2.39,.09-3-4.31,0,0-.42-3.66,.61-4.08,0,0-.89-.59-.89-2.16v-1.88Z"/><path class="cls-3" d="M5.42,18.94s-.39-1.14,.25-1.3,5.45,4.45,5.45,4.45l.52,1.7-6.23-4.86Z"/><path class="cls-4" d="M7.48,18.25c-.18,.04-.23,.26-.11,.39,1.04,1.05,4.2,4.14,5.71,4.53,1.83,.47,6-2.82,6-2.82,0,0,0-5.86-.66-5.86,0,0-6.42-.14-8.35,1.92-1.21,1.3-2.11,1.71-2.6,1.83Z"/><path class="cls-1" d="M8.92,8s1.31,1.88,2.95,2.72c0,0,2.58,2.3,2.58,3.99s.38,3.75-.38,4.15h.47s.75-2.13,.52-3.4c0,0,1.45,2.21,1.41,2.98l.47-.16s-1.08-2.77-1.78-4.22-.84-2.77-1.45-2.95c0,0,3.52-.33,3.99,4.36,0,0,.61,1.08,.23-1.5s-2.55-4.22-4.68-4.13-2.18-1.44-2.61-2.28l-1.72,.45Z"/><path class="cls-3" d="M30.55,22.98c-.35,1.04-1.24,3.38-2.38,4.25-.22,.17-.5,.2-.75,.07-1.15-.61-4.9-2.56-5.81-2.68-1.08-.14-8.11,1.31-9.61,1.08S3.71,19.89,3.71,19.89c0,0-1.27-1.74,.52-1.6,0,0,6.42,3.52,7.32,3.94l3.24-.52s1.74-.14,1.97-.33,.97-.37-3.19-.33c0,0-5.08-.12-2.58-1.78,0,0,1.83-.38,3.75-.52s4.03-1.27,4.74-1.31,2.02-.8,4.13,1.03,1.41,1.59,2.77,2.06c1.02,.35,2.97,1.26,3.87,1.69,.28,.13,.42,.46,.32,.75Z"/></svg>