<?xml version="1.0" encoding="UTF-8"?><svg id="Young" xmlns="http://www.w3.org/2000/svg" viewBox="0 0 32 32"><defs><style>.cls-1{fill:#f0eae2;}.cls-2{fill:#fff;}.cls-3{fill:#f0a76c;}.cls-4{fill:#cd7af0;}.cls-5{fill:#60a0bd;}</style></defs><g><path class="cls-5" d="M3.31,16.72c-.98-.53-1.02,.81-1.02,.81v1.33c0,1.64,1.12,2.19,1.12,2.19l9.86,5.72,15.81-9.15v-.49l-15.85,9.1s-8.61-4.96-9.6-5.54-.91-1.53-.91-1.53c0,0-.02-.75,0-1.47s.58-.48,.58-.48l9.98,5.75,15.8-9.18v-.47l-15.85,9.12"/><polygon class="cls-5" points="28.94 13.24 13.29 22.27 3.03 16.47 18.71 8.25 28.94 13.24"/><path class="cls-1" d="M28.74,13.98l-.05,3.38-15.46,8.87L3.64,20.7s-.91-.45-.91-1.53,0-1.47,0-1.47c0,0-.04-.68,.58-.48s9.98,5.75,9.98,5.75l15.46-8.99Z"/><path class="cls-4" d="M25.82,17.14l.92-.5s1.21,.38,1.32,1.91l-.69,.43s-.21-1.76-1.55-1.84Z"/><path class="cls-3" d="M26.13,19.6c-.24-.47-.64-.76-1.37-.95l.92-.5s.65,.12,1.2,1.06"/></g><g><path class="cls-2" d="M27.63,8.45l-10.65,9.26c-3-1.11-6.12-2.24-9.12-3.35-.09-.02-.24-.02-.42,0-.26,.04-.37,.31-.46,.38,.33-1.02,1.52-.42,1.52-.42l8.45,3.18,10.6-9.22,.08,.16Z"/><path class="cls-1" d="M27.49,8.95l-.05,3.38-10.46,9.14-8.75-3.15s-.91-.45-.91-1.53,0-1.47,0-1.47c0,0-.04-.68,.58-.48s9.13,3.37,9.13,3.37l10.46-9.25Z"/><path class="cls-3" d="M7.91,14.33c-1.02-.19-1.02,.81-1.02,.81v1.33c0,1.64,1.12,2.19,1.12,2.19l8.98,3.3,10.76-9.41v-.49l-.25-.1v.32l-10.51,9.17s-7.34-2.64-8.58-3.09c-1.08-.39-1.08-1.59-1.08-1.59,0,0-.02-.75,0-1.47s.58-.48,.58-.48l9.13,3.37,10.71-9.45v-.47l-10.75,9.38-9.08-3.33Z"/><path class="cls-3" d="M27.72,8.18l-10.72,9.29s-.08,.04-.12,.02c-2.98-1.1-5.85-2.18-8.83-3.28-.09-.02-.24-.05-.42-.02-.26,.04-.44,.17-.52,.23,3.97-3.42,6.74-5.22,10.66-8.57,.16-.14,.38-.19,.58-.14l9.34,2.36s.06,.07,.03,.11Z"/></g></svg>