<?xml version="1.0" encoding="utf-8"?>
<!-- Generator: Adobe Illustrator 27.9.0, SVG Export Plug-In . SVG Version: 6.00 Build 0)  -->
<svg version="1.1" id="Livello_2_00000152227138628365871840000007969938698922878869_"
	 xmlns="http://www.w3.org/2000/svg" xmlns:xlink="http://www.w3.org/1999/xlink" x="0px" y="0px" viewBox="0 0 46.5 25"
	 style="enable-background:new 0 0 46.5 25;" xml:space="preserve">
<style type="text/css">
	.st0{fill:#FFFFFF;stroke:#FFFFFF;stroke-width:0.1;stroke-linecap:round;stroke-linejoin:round;stroke-miterlimit:10;}
	.st1{fill:#464646;}
	.st2{fill:#848484;}
	.st3{fill:#212121;}
	.st4{fill:#E8E8E8;}
	.st5{fill:#E0CA8D;}
	.st6{fill:#343434;}
	.st7{fill:#FFFFFF;}
	.st8{fill:#725044;}
	.st9{fill:#8F6455;}
	.st10{fill:#775043;}
	.st11{fill:#996753;}
	.st12{fill:#7D5444;}
	.st13{fill:#33302F;}
	.st14{fill:#442B25;}
	.st15{fill:#161211;}
	.st16{fill:#634136;}
	.st17{fill:#5B5452;}
	.st18{fill:#2D0C00;}
	.st19{fill:#525252;}
	.st20{fill:#EAE4D8;}
	.st21{fill:#DCD0C2;}
	.st22{fill:#C7B9AB;}
</style>
<g>
	<path id="Tracciato_67-2_00000060002022705953742050000007625386316379420302_" class="st0" d="M29.8,6.5c0,0,0.4,0.1,0.6,0.2
		s0.3,0.1,0.4,0.2s0.3,0.5,0.1,1.1S30.2,8.6,30,8.7s-2.8,0.5-3.6,0.5s-1.5-0.4-1.5-0.4s-1.1,3.4-2.8,5.4c1.9-0.2,2.2-0.3,2.4,0.3
		c0.3,0.6-0.4,1.6-1.4,1.6c-2,0-3.3,0.4-5.1,0.4s-2-0.4-2-0.4l-4.4-0.2c-0.1,0.2-0.1,0.1-0.4,0.6c-2,0.7-3.4,0.2-5.3,0
		c-2.1-0.2-2-0.4-2-0.4C3.3,15,4.4,16,4.2,13.7s-0.4-3.3-0.7-4.6C3.3,7.7,3.9,7.2,3.9,7.2c-2,1.1-1.5,5.6-1.5,5.6
		C3.1,16.3,2.2,16,2.2,16s-0.8,0.6-0.9-1.2c-0.1-1.8,0.6-1.5,0.6-1.5S2,10.9,2.3,8.7S4.5,6.5,6,6.4c1.4-0.1,1.6-0.1,3.6,0
		S13,6.3,13,6.3l6-1l3.7-1.1l1-1.1c0-0.6,0.5-1.1,0.5-1.1l0.9-0.9c0,0-0.5,1.2-0.4,1.2C25.9,2.3,27,3,27,3c0.2-0.5-0.4-2-0.4-2
		s-0.3-0.4,0.9,0.9s0.1,1.7,0,1.7c0.5,0.8,0.3,1,0.9,1.6C29,5.9,29.8,6.5,29.8,6.5L29.8,6.5z"/>
	<path id="Tracciato_71_00000116199591174017724950000003555080722718279306_" class="st1" d="M24.6,2.9C25,3.5,24,3.7,23.9,3.3
		c-0.2-0.7,0.3-1.1,0.3-1.1L25,1.4C24.9,1.4,24.5,2.7,24.6,2.9L24.6,2.9z"/>
	<path id="Tracciato_70_00000156565076232925360390000000031124887435887524_" class="st1" d="M27.3,3.2c-0.1,0-0.1-0.1-0.2-0.2
		C27.4,2.6,27,1.4,27,1.4s0.4,0.5,0.7,0.9c0.6,0.7,0,1.1-0.2,1.2C27.5,3.5,27.4,3.3,27.3,3.2z"/>
	<path id="Tracciato_69_00000083071503909032702010000009410491840300634518_" class="st2" d="M29.7,6.6C29.8,6.7,30.2,7,30.5,7
		c0.2,0.1,0.1,0.7,0.1,1S30,8.5,30,8.5s-1.3,0.3-1.6,0.3c-0.2-1.3,0.3-1.8,0.7-2C29.4,6.5,29.6,6.5,29.7,6.6L29.7,6.6z"/>
	<path id="Tracciato_72_00000170964978751266627910000008911351304764530311_" class="st3" d="M29.7,7.6c-0.2,0.1-0.4,0.1-0.4,0
		c-0.1-0.2,0.2-0.4,0.2-0.4C29.9,7.3,29.9,7.6,29.7,7.6L29.7,7.6z"/>
	<path id="Tracciato_74_00000099653648343950869760000007740851898172085390_" class="st4" d="M11.4,15.8c-0.1-0.1-0.4-0.1-1.1-0.3
		c-0.7-0.2-1.2-0.2-1.9-0.2c-1.4,0-1.1-0.7-1.1-0.7s-0.1,0.1,0.2-0.3c0.7-1.1,1.4-2.9,1-4.1C8.1,9,9.2,9.9,9.4,12
		c0.2,2-0.9,2.5-1.2,2.7c1.1,0,1.1,0,2,0.2c0.6,0.2,0.5,0.2,1.1,0.6C11.2,15.5,11.6,15.7,11.4,15.8L11.4,15.8z"/>
	<path id="Tracciato_78_00000115513466217394337870000012736136848482687637_" class="st4" d="M17.1,15.1c0.7-0.3,2.1-0.5,2.9-0.5
		c0.5-0.1,1-0.1,1.4-0.3c0.5-0.6,0.9-1.1,1.2-1.8c0.5-1,1.7-3.6,1.7-3.6S23.2,9.6,22,11c-1.2,1.3-0.2,2.5-3,2.9
		c-0.8,0.1-2.3,0.8-3,1.2c0,0.1-0.3,0.3-0.2,0.4C16,15.4,16.6,15.2,17.1,15.1z"/>
	<path id="Tracciato_75_00000173870242263675457350000006947174112038539455_" class="st5" d="M11.2,16.1
		C11.2,16.1,11.2,16,11.2,16.1c-0.1-0.2-0.2-0.3-0.4-0.3c-0.3-0.1-0.7-0.2-0.7-0.2c-0.1,0-0.2,1-0.2,1c0.5,0,0.9-0.2,1-0.2
		C11,16.4,11.1,16.2,11.2,16.1L11.2,16.1z"/>
	<path id="Tracciato_77_00000143601655270601789730000001260742199125435783_" class="st5" d="M16,15.9c0-0.1,0-0.2-0.2-0.3
		c0.2-0.1,0.3-0.1,0.5-0.2c0.4-0.1,0.8-0.2,0.8-0.2c0.1,0,0.3,1.1,0.3,1.1c-0.5,0-1-0.2-1.1-0.2C16.3,16.1,16.1,16,16,15.9L16,15.9z
		"/>
	<path id="Tracciato_79_00000019637929690900362950000018094887416474836910_" class="st6" d="M3.7,9.6c0,0-0.1-0.6,0.5-0.9
		c0.5-0.1,0.7-0.4,1-0.4c0.6,0,1.1,0.1,1.4,0.4C7,8.9,6.5,9.1,6.7,9.8c0,0.5-0.2,0.9-0.4,0.8c-0.5-0.1-0.5-0.2-0.6,0s-0.4,1,0.4,1.5
		c0.4,0.4,0.2,1.1-0.2,1.4c-0.4,0.3-0.7-0.3-0.9-0.2C4.2,13.6,4.1,13,4.1,13C4.1,12.6,4,10.7,3.7,9.6L3.7,9.6z"/>
	<path id="Tracciato_80_00000173121697064546395010000001749979394634372538_" class="st6" d="M19.1,5.7c0,0,0.8-0.3,1.3-0.4
		c0.5-0.2,0,0.6,0,0.8c0.1,0.6,0.2,0.5,0.4,1.1c0.2,0.6,0.2,1-0.1,1.3c-0.3,0.5-0.9,0.9-1.4,1c-0.8,0.1-1.4-0.4-1.3-0.6
		c0-0.6,0.1-0.9,0-1s-0.4-0.6-1,0.2c-0.4,0.4-1.1,0.2-1.4-0.2c-0.3-0.4,0.3-0.7,0.2-0.9C15.5,6.2,16,6.2,16,6.2S17.9,5.9,19.1,5.7
		L19.1,5.7z"/>
	<path id="Tracciato_83_00000017496453100322141280000008741061129472250286_" class="st6" d="M23.5,5.8c0.4-0.1,0.2,0.8,0.2,0.8
		c-0.1,0.4-0.1,0.8,0,1.1c0.1,0.6,0.6,1,0.6,1S24,8.9,23.4,9c-0.7,0.1-0.5-0.9-0.6-1c-0.1-0.1-0.9-1.5-0.3-1.6
		C23.1,6.4,23.1,5.9,23.5,5.8z"/>
	<path id="Tracciato_84_00000085965122707154081120000003591254005588831400_" class="st6" d="M25,4.6c0.5-0.4,0.3-0.7,0.7-1
		s0.5,0.7,0.5,0.7c0.1,0.4,0.2,0.7,0.4,1C26.8,5.7,26,6,25.9,5.9S24.6,4.9,25,4.6L25,4.6z"/>
	<path id="Tracciato_82_00000043422400783119794210000009487437005298201272_" class="st6" d="M9.3,9.2c0.2-0.7,0.8-0.3,1.1-0.6
		s0.4-0.5,1-0.5s0.1,1,0.5,1.5c0.3,0.6,0.9,1.3,0.8,2c-0.1,0.7,0.4,1.1,0.2,1.4c-0.2,0.3-0.3-0.1-0.8,0c-0.5,0,0,0.8-1.3,0.4
		c-1.3-0.5-0.7-1.3-1-2.5C9.5,9.9,9.2,9.8,9.3,9.2z"/>
	<path id="Tracciato_81_00000013906798252478915830000006470500451592362686_" class="st6" d="M19.7,11.6c-0.4,0.6-1,0.5-1.1,1.1
		c-0.2,0.5-0.4,0.5-1,0.9c-0.7,0.4-1.1,0.6-1.5,0.7c-0.5,0.1-1.1,0-1.5-0.4s-0.2-1.1,0.1-1.1c0.7-0.3,1-0.4,1.1-0.5s0.5-0.7-0.6-0.6
		c-0.7,0-0.7-0.7-0.4-1.1c0.4-0.4,0.9-0.2,1.1-0.4c0.8-0.7,1-0.3,1-0.3s0.3,0.6,0.9,0.8s0.8-0.3,1.3-0.1C19.6,10.8,20,11,19.7,11.6
		L19.7,11.6z"/>
	<path id="Tracciato_85_00000045602932464123284690000004107078203974928282_" class="st7" d="M25.6,4.6c0.1-0.1,0.3,0,0.4,0.1
		s0.1,0.3,0,0.4c-0.2,0.1-0.3,0-0.4-0.1S25.5,4.7,25.6,4.6L25.6,4.6z"/>
	<path id="Tracciato_86_00000101820719182973989810000006040591340670543282_" d="M25.8,4.8c0.1-0.1,0.1,0,0.2,0.1
		c0.1,0,0.1,0.1,0,0.2c-0.1,0-0.1,0-0.2-0.1C25.7,4.9,25.7,4.9,25.8,4.8L25.8,4.8z"/>
</g>
<g>
	<path class="st8" d="M35.5,3.5c0.1,0.1,0.2,0.3,0.4,0.5c0,0,1.6-1.6,3.1,0.8C39,4.8,38.1,1.8,35.5,3.5L35.5,3.5z"/>
	<path class="st9" d="M36,4.6c0-0.2-0.1-0.4-0.1-0.6C39.5,3.3,39,7,39,7C38.5,3.9,36,4.6,36,4.6L36,4.6z"/>
	<path class="st10" d="M36.3,12.9c0,1-0.6,1.4-0.5,1.9s0,1.5,0,1.5l-0.1,0.4c0,0,0.1,0.4-0.3,0.5c-0.3,0.1-0.6,0-0.8-0.1
		c-0.1,0-0.1-0.2,0.3-0.6c0.3-0.4,0.4-0.8,0.4-0.8s0.1-0.1,0-1.1c-0.1-0.1-0.1-1.4-0.1-1.4C35.1,13,35.1,12,35.1,12
		C35.3,12.5,36.3,12.9,36.3,12.9L36.3,12.9z"/>
	<path class="st10" d="M42.6,13.9c0.1,0.4-0.6,1.2-0.5,1.4c0,0.1-0.1,1-0.1,1.1c-0.1,0.1-0.4,0.4-0.4,0.4c0.1,0.1-0.1,0.4-0.1,0.4
		s-0.6,0-0.8-0.1C40.6,17,41,16.5,41,16.5s0.6-0.6,0.6-0.8s0.1-0.8,0.2-0.9c0.1-0.1,0.1-0.9,0.1-0.9c-0.2-0.1-0.5-0.6-0.5-0.6
		c0.6-0.2,1.1-0.1,1.1-0.1C42.5,13.3,42.5,13.5,42.6,13.9z"/>
	<path class="st11" d="M35.8,4.1c0.1,0.1,0.1,0.4,0.3,0.6v0.1c0.6,0.3,0.6,0.9,0.6,0.9s0.4,0.6,0.7,1.9s1.9,1.1,1.9,1.1
		s0.9-0.1,2.1-0.2c1-0.1,1.9,0.9,2.1,1.1l0.1,0.1c0.1,0,0.3,0.1,0.6,0.1c0.5,0,0.8-0.2,0.8-0.2c-0.1,0.7-0.4,0.9-0.7,1.1
		c-0.1,0.1-0.2,0.2-0.1,0.4l0,0c0.1,0.4,0.1,0.8,0.1,1.2c-0.1,0.5-0.2,1.1-0.2,1.4c0.1,0.4,0.6,1,0.7,1.2c0,0.1,0.1,0.2,0.1,0.3
		c0.1,0.4,0.1,0.5,0.1,0.9c0.1,0.4,0,0.3,0.1,0.8c0.2,0.6,0.1,1.2-0.5,1.3c-0.7,0.1-0.4-0.6-0.4-0.6l0.3-0.4v-0.1
		c0-0.1,0-0.3-0.2-0.9c-0.1-0.5-0.2-0.7-0.4-0.9c-0.2-0.1-0.4-0.4-0.5-0.5c-0.3-0.3-0.5-0.4-0.6-0.7c-0.1-0.2-0.3-0.6-0.5-0.6
		c0-0.5-0.3-0.5-0.5-0.5c-1,0.1-2.1,0.2-2.6,0.2c-0.1,0-0.3,0.1-0.3,0.3c-0.1,0.4-0.3,0.7-0.3,0.9c-0.1,0.2,0.1,2.3,0.1,2.3
		s0.1,0.3,0.1,0.6c0,0.3-0.5,0.4-0.5,0.4s-0.6,0.1-0.6-0.1c-0.1-0.1,0.2-0.5,0.3-0.6s0.1-0.1,0.1-0.1c0.1-0.6-0.1-1.6-0.1-1.6
		c-0.3-0.4-0.2-0.7-0.2-0.7v-0.9c0-0.1-0.1-0.3-0.3-0.3c-0.5-0.1-1.6-0.4-2.4-1.3c-1-1.3-0.9-2.4-0.6-4C34.8,6.5,34.4,6,34.4,6
		c-0.1-0.1-0.3-0.1-0.3-0.1c0.1,0.8-0.4,1.1-0.2,0.9c0.1-0.2-0.1-0.8,0-0.4c0,0.6-0.4,0.9-0.4,0.7c0.1-0.1,0-0.4,0-0.4
		c0,0.4-0.4,0.5-0.4,0.5c0.1-0.1,0.1-0.4,0.1-0.4c-0.1,0.4-0.4,0.6-0.4,0.6c0.4-0.9-0.5-1.9-0.5-1.9S32.1,5.2,32,4.8
		c0.1-0.7,0.9-0.7,0.9-0.7s1.3-0.1,1.3-0.4s0.2-0.3,0.2-0.3c-0.1,0-0.1,0-0.1,0c0.2-0.4,0.6-0.1,0.6-0.1c-0.1-0.1-0.3-0.1-0.3-0.1
		c0.4-0.1,0.6,0.1,0.6,0.1c-0.1-0.1-0.3-0.1-0.3-0.1c0.4-0.1,0.6,0.3,0.6,0.3C35.6,3.6,35.7,3.8,35.8,4.1"/>
	<path class="st12" d="M42.5,13.2l-0.1,0.2c-0.1-0.1-0.2-0.1-0.2-0.1c-0.1,0-0.2,0-0.3,0h-0.1h-0.1h-0.1h-0.1h-0.1c0,0,0,0-0.1,0
		s-0.1,0-0.1,0c-0.1,0-0.2,0-0.3,0s-0.1,0-0.2,0c-0.1,0-0.1,0-0.2,0h-0.1c-0.1,0-0.1,0-0.2,0h-0.1H40h-0.1h-0.1h-0.1
		c-0.1,0-0.1,0-0.1,0c-0.1,0-0.1,0-0.1,0h-0.1c-0.1,0-0.1,0-0.1,0h-0.1L39,13.4l0.1-0.1c0-0.1,0-0.1,0-0.2s0-0.1-0.1-0.2
		c0-0.1,0-0.2,0-0.3c-0.1-0.2-0.1-0.4-0.1-0.4s0.1,0,0.1,0.1s0.1,0.1,0.1,0.1v0.1c0,0.1,0,0.1,0.1,0.2c0,0.1,0.1,0.1,0.1,0.1h0.1
		c0.1,0.1,0.2,0.1,0.3,0.1s0.2,0,0.3,0s0.2,0,0.3,0c0,0,1.2-0.1,1.4-0.3c0.2-0.1,0.3-0.5,0.3-0.5c0,0.2,0.3,0.6,0.3,0.6
		C42.3,13,42.4,13.1,42.5,13.2L42.5,13.2z"/>
	<path class="st11" d="M35.9,4.1C36,4.2,36,4.5,36,4.7l0,0c0.6,0.3,0.6,0.9,0.6,0.9c0,0.4-2.1,0.4-2.2,0.2c-0.1-0.1-0.3-0.1-0.3-0.1
		c0.1,0.8-0.4,1.1-0.3,0.9c0.1-0.2-0.1-0.8,0-0.4c0,0.6-0.4,0.9-0.4,0.7c0.1-0.1,0-0.4,0-0.4C33.4,6.9,33,7,33,7
		c0.1-0.1,0.1-0.4,0.1-0.4C33,7,32.7,7.2,32.7,7.2c0.4-0.9-0.5-1.9-0.5-1.9"/>
	<path class="st11" d="M32.8,4.1c0,0,1.3-0.1,1.3-0.4s0.2-0.3,0.2-0.3c-0.1,0-0.1,0-0.1,0c0.2-0.4,0.6-0.1,0.6-0.1
		c-0.1-0.1-0.3-0.1-0.3-0.1c0.4-0.1,0.6,0.1,0.6,0.1c-0.1-0.1-0.3-0.1-0.3-0.1c0.4-0.1,0.6,0.3,0.6,0.3c0.1,0.1,0.2,0.4,0.4,0.6"/>
	<path class="st11" d="M32.8,5.4c0.4,0.1,0.6,0,0.8,0c0.8-0.1,0.4-0.1,0.8-0.1C35.3,5.2,36,4.7,36,4.7c0.6,0.3,0.6,0.9,0.6,0.9
		c0,0.4-2.1,0.4-2.2,0.2c-0.1-0.1-0.3-0.1-0.3-0.1c0.1,0.8-0.4,1.1-0.3,0.9c0.1-0.2-0.1-0.8,0-0.4c0,0.6-0.4,0.9-0.4,0.7
		c0.1-0.1,0-0.4,0-0.4C33.4,6.9,33,7,33,7c0.1-0.1,0.1-0.4,0.1-0.4C33,7,32.7,7.2,32.7,7.2c0.4-0.9-0.5-1.9-0.5-1.9"/>
	<path class="st13" d="M34.3,4.1c0.1,0,0.2-0.1,0.3-0.1c0,0,0-0.1,0.1-0.1c0-0.1,0.1-0.1,0.1-0.1c0.1,0,0.1-0.1,0.2,0
		c0,0.1,0.1,0.1,0.1,0.1C35,4,35.1,4,35.1,4v0.1c0,0.1-0.1,0.1-0.2,0.1S34.6,4.1,34.6,4l0,0C34.5,4.1,34.6,4,34.3,4.1L34.3,4.1z"/>
	<ellipse class="st14" cx="34.8" cy="4" rx="0.1" ry="0.1"/>
	<path class="st15" d="M34.9,4L34.9,4L34.9,4L34.9,4L34.9,4L34.9,4L34.9,4L34.9,4L34.9,4z"/>
	<path class="st14" d="M32.8,4.9C32.9,4.8,32.9,4.8,32.8,4.9l0.1-0.2l0,0c-0.1,0.1-0.2,0.1-0.3,0.1c-0.1,0.1-0.4,0.1-0.5,0.1H32V5
		c0,0.1,0.1,0.2,0.1,0.3c0.1,0.1,0.1,0.1,0.2,0.1c0.1,0,0.1,0,0.2-0.1l0.1-0.1C32.7,5.1,32.7,5.1,32.8,4.9z"/>
	<path class="st16" d="M32.3,4.3c-0.1,0.1-0.2,0.1-0.4,0.3c0,0.1-0.1,0.1-0.1,0.1v0.1v0.1c0,0,0,0,0.1,0s0.1,0,0.1,0
		c0.2-0.1,0.5,0,0.7-0.1l0,0l0,0c0-0.1-0.1-0.1-0.1-0.2s-0.1-0.1-0.1-0.2c0,0,0-0.1-0.1-0.1C32.6,4.2,32.5,4.3,32.3,4.3L32.3,4.3z"
		/>
	<path class="st17" d="M45.3,17.2c0-0.1,0,0,0.1,0.3c0,0.2,0,0.2-0.1,0.2s-0.1,0.1-0.1,0.1c-0.1,0.1-0.2,0.1-0.3,0.1s-0.2,0-0.3,0
		s-0.1,0-0.1,0c-0.1,0-0.1,0-0.1-0.1c-0.1,0-0.1,0-0.1-0.1v-0.1v-0.1l0,0c0,0,0,0,0.1,0s0.1,0,0.1,0l0.1-0.1l0.2-0.1
		c0,0,0.1,0,0.3,0S45.3,17.2,45.3,17.2L45.3,17.2z"/>
	<path class="st17" d="M41.7,17c0,0,0,0.1-0.1,0.3c-0.1,0.1,0,0.1-0.1,0.1s-0.1,0-0.1,0s-0.2,0-0.3,0s-0.2-0.1-0.3-0.1
		s-0.1-0.1-0.1-0.1l-0.1-0.1V17v0c0-0.1,0-0.1,0-0.1c0.1,0,0.1,0,0.1,0s0,0,0.1,0s0.1,0,0.1,0H41h0.2c0,0,0.1-0.1,0.3,0
		S41.7,17,41.7,17L41.7,17z"/>
	<path class="st17" d="M38.8,17.3L38.8,17.3c-0.1,0.2-0.1,0.2-0.1,0.2l-0.1,0.1c0,0.1-0.2,0.1-0.3,0.1s-0.2,0-0.3,0s-0.2,0-0.2,0
		c0-0.1-0.1-0.1-0.1-0.1c-0.1,0-0.1,0-0.1-0.1v-0.1c0-0.1,0-0.1,0-0.1c0.1,0,0.1,0,0.1,0s0,0,0.1,0s0.1,0,0.1,0c0.1,0,0.2,0,0.2,0
		h0.2c0,0,0.1,0,0.3,0C38.8,17.3,38.8,17.3,38.8,17.3L38.8,17.3z"/>
	<path class="st17" d="M35.6,17c0,0,0.1,0-0.1,0.1c-0.1,0.1-0.1,0.1-0.1,0.1c0,0.1-0.1,0.1-0.1,0.1s-0.2,0-0.3,0
		c-0.1-0.1-0.2-0.1-0.3-0.1s-0.2,0-0.3-0.1c-0.1,0-0.1-0.1-0.1-0.1l0,0c0.1,0,0-0.1,0.1-0.1s0.1,0,0.1,0s0,0,0.1,0s0.1,0,0.1,0
		c0.1,0,0.2,0,0.2,0h0.2c0,0,0.1,0.1,0.3,0.1S35.6,17,35.6,17L35.6,17z"/>
	<path class="st12" d="M35.9,4.7c0.1,0.2-0.3,0.5-0.4,0.6c-0.4,0.2-1.1,0.6-1.1,0.6c0-0.1,0.3-0.4,0.4-0.4c0.3-0.1,0.6-0.2,0.8-0.4
		C35.8,5,36,4.7,36,4.5"/>
	<path class="st18" d="M32.2,4.6C32.1,4.6,32,4.7,32.2,4.6C32.1,4.6,32.3,4.6,32.2,4.6C32.3,4.6,32.3,4.6,32.2,4.6L32.2,4.6
		L32.2,4.6z"/>
</g>
<g>
	<path class="st19" d="M32.6,19.7c0,0-0.1,0.2,0,0.2c0.7,0.6,0.2,1.4,0.2,1.4l0.1,1.8c0,0-0.4,0.2-0.4,0.3c0,0.1-0.1,0.2-0.1,0.4
		c-0.1,0.1-0.7,0.1-0.8,0c-0.1,0,0.1-0.1,0.1-0.1h-0.3c0,0-0.1,0-0.1-0.2s0.7-0.6,0.8-0.7c0.1-0.2,0-1-0.1-1.1
		c-0.1-0.2-0.7-1.9-0.7-1.9L32.6,19.7L32.6,19.7z"/>
	<path class="st20" d="M32.6,19.7c0,0,0.5,0,0.5-0.8s-0.4-1.1,0.1-2.2c0.2-0.3-0.1-1.1-0.1-1.1s0.3,0.2,0.5-0.1
		c0.2-0.2,0.6-2.5-1.1-3.2c-1.6-0.7-2.9-0.6-5.5-0.7c-2.6-0.2-4.2,0.4-4.8,0.8c-0.6,0.3-2,1.1-2.9,1.5c-0.8,0.4-1,2.6-1.1,2.7
		c-0.2,0.1-0.2,0.3-0.4,1.1c-0.2,0.8-0.4,1.5,0.6,1.4c0,0,0.3,1.1,0.7,1.5c0.3,0.4,0.4,1,0.4,1s0.4,0.3,0.7,0h0.2
		c0,0,0.2-0.1,0.2-0.2s0.2-1.5,0.5-1.7c0,0,0.1-0.2,0.7-0.5c0.3-0.3,0.3-0.6,0.6-0.6c0,0-0.1,0.7,0.5,1.1V20l0.8,0.6
		c0,0,0.4,0.1,0.7-0.1l1.1-0.6c0,0,0.7-0.3,1.2-1.4c0,0,1.1-0.1,1.5,0c0,0,0.2,0.7,1.1,1.1c0,0-0.1,0.6,0.1,0.7h1.1
		c0-0.1,0.2-0.2,0.3-0.3c0,0,0.4,0,0.6,0L32.6,19.7L32.6,19.7z"/>
	<path class="st19" d="M30.5,20.1c0,0.5-0.5,1.2-0.7,1.5c-0.2,0.2-0.2,0.8-0.2,1s-0.2,0.2-0.3,0.2c-0.1,0-0.2,0.5-0.2,0.5
		s-0.3,0.2-0.7,0.3c-0.4,0-0.2-0.1-0.2-0.1c-0.2,0-0.3-0.1-0.3-0.1c0.1-0.6,0.8-1,0.8-1s0.7-2.1,0.6-2.4l0,0h1.2V20.1z"/>
	<path class="st19" d="M25.5,19.7c-0.1,0.3-0.2,1.1-0.1,1.3c0.1,0.2,0,0.6-0.1,0.8c-0.1,0.2-0.1,0.7,0.2,1.1
		c0.2,0.2-0.2,0.3-0.2,0.2c-0.1,0-0.1,0-0.1,0.1c0.1,0.1,0.1,0.3,0.1,0.5c-0.1,0.1-0.7,0.2-0.7,0.2c-0.1,0-0.1-0.2-0.1-0.2
		s-0.5,0.4-0.5,0s0.4-0.6,0.5-0.8c0.1-0.2,0-1,0-1s-0.3-0.3-0.2-0.9c0.1-0.6,0-0.7,0-0.7L25.5,19.7L25.5,19.7z"/>
	<path class="st19" d="M23.6,20.6c0.1,0.6-0.1,0.9-0.1,0.9s-0.2,0.4,0.1,0.7c0.2,0.3,0.2,0.3,0.1,0.4s0,0.2,0,0.2
		c0.2,0,0.3,0.1,0.4,0.2c0.1,0.2-0.2,0.7-0.2,0.7c-0.1,0.1-0.1,0-0.1,0c0,0.1-0.2,0.2-0.2,0.2c-0.2-0.3-0.3-1.3-0.4-1.6
		c-0.1-0.3-0.4-0.7-0.5-1.2c-0.1-0.4,0.2-0.9,0.2-1.1C22.8,20,23.6,20.6,23.6,20.6z"/>
	<path class="st19" d="M19.4,18.8H19c0,0-0.1,0.1-0.2,0.2c-0.2,0.1-0.3,0.1-0.3,0.1s0.2,1,0.5,1.4s0.4,0.7,0.5,0.9
		c0,0.1,0,0.2,0,0.2s0.2,0.1,0.4,0.1c0.2,0,0.2-0.1,0.2-0.1h0.2c0,0,0.1-0.1,0.2-0.2c0.1-0.3,0.2-1.5,0.5-1.7c0,0-0.2,0-0.4-0.1
		c-0.2,0.1-0.4,0.7-0.4,0.7s-0.2,0.1-0.2,0c-0.1-0.1,0.1-0.4-0.4-0.7C19.1,19.3,19.4,18.8,19.4,18.8z"/>
	<path class="st21" d="M19.5,18.8c0.2-0.3,0.2-0.9,0.4-0.9c0.2,0,0.7,0.8,0.7,0.8s0.2,0.3-0.1,0.8c-0.3,0.4-0.4,0.7-0.4,0.7H20
		c0-0.1,0-0.1,0-0.2c0-0.2,0.1-0.2-0.2-0.4c-0.1-0.1-0.2-0.2-0.3-0.2C19.4,19.2,19.3,19.2,19.5,18.8z"/>
	<path class="st22" d="M30.8,19.6c0,0-0.5-0.5-0.4-1c0,0,0.1-0.4-0.2-0.4c-0.5,0-1.2-0.1-1.8,0.2c-0.1,0,0.4,0.8,1.1,1.1
		c0,0-0.1,0.4,0.1,0.7h1c0,0,0-0.1,0.1-0.2C30.6,19.8,30.6,19.7,30.8,19.6L30.8,19.6z"/>
	<path class="st21" d="M26.7,18.1c0,0-0.2-1.1-0.7-1.2c0,0,1,0.2,1.7,0.2s0.7-0.5,1.5-0.3c0.1,0.7,0.4,0.8,1.1,1.2
		c0,0-1.1-0.2-2,0.2C28,18.1,26.7,18.1,26.7,18.1L26.7,18.1z"/>
	<path class="st22" d="M22.4,18.6c0,0,0.2,0,0.3-0.1c0.1-0.1,0.3-0.1,0.4,0.1s0.3,0.6,0.5,0.8c0.2,0.2,0.2,0.7,0.7,0.8
		c0,0-0.3,0.2-0.5,0.1S23,19.8,23,19.8v-0.2C22.9,19.7,22.2,19.2,22.4,18.6z"/>
	<path class="st20" d="M19.2,19.5l0.2,0.2c0,0.1,0.1,0.2,0,0.3c-0.1,0.1-0.2,0-0.3,0c0,0-0.1-0.2,0-0.2
		C19.1,19.7,19.2,19.5,19.2,19.5z"/>
	<path class="st19" d="M19.2,19.7c0,0-0.1,0.1-0.1,0.2s0.1,0.1,0.1,0.1l0.1-0.1C19.3,19.8,19.2,19.7,19.2,19.7z"/>
	<path class="st21" d="M21.2,15.3c0.1,0,1.2,1.5,1.1,2.3c0,0,0.2-0.3-0.1-1c-0.2-0.7-0.7-1.2-0.8-1.3C21.2,15.3,21.2,15.3,21.2,15.3
		L21.2,15.3L21.2,15.3z"/>
	<path class="st21" d="M33.1,15.6c-0.1,0-0.8-1.7-0.4-2.4c0,0-0.2,0.3-0.2,1s0.3,1.3,0.4,1.5C33,15.7,33.1,15.7,33.1,15.6
		C33.1,15.7,33.1,15.6,33.1,15.6z"/>
	<path d="M20.1,21.5v-0.3v-0.3c0,0,0,0.2,0,0.3C20.2,21.4,20.2,21.5,20.1,21.5C20.2,21.5,20.1,21.5,20.1,21.5z"/>
</g>
</svg>
