<?xml version="1.0" encoding="utf-8"?>
<!-- Generator: Adobe Illustrator 27.9.0, SVG Export Plug-In . SVG Version: 6.00 Build 0)  -->
<svg version="1.1" id="Complications" xmlns="http://www.w3.org/2000/svg" xmlns:xlink="http://www.w3.org/1999/xlink" x="0px"
	 y="0px" viewBox="0 0 32 32" style="enable-background:new 0 0 32 32;" xml:space="preserve">
<style type="text/css">
	.st0{fill:#FFFFFF;stroke:#E59791;stroke-width:0.4866;stroke-miterlimit:10;}
	.st1{fill:#FFFFFF;}
	.st2{fill:none;stroke:#ED7580;stroke-width:0.9732;stroke-linecap:round;stroke-miterlimit:10;}
	.st3{fill:#D99898;}
</style>
<path class="st0" d="M4.9,4.2C4.9,4.2,4.9,4.1,4.9,4.2"/>
<path class="st1" d="M5,4.1c1-1.6,3.2-2.7,5.6-2.7c2.1,0,4,0.8,5.1,2.1c1-0.9,2.4-1.6,3.9-1.6c2.2,0,4.2,1.3,5.1,3.2
	c0.4,0.7,0.6,1.6,0.6,2.5c0,1.4-0.5,2.6-1.3,3.6c1.1,0.5,1.9,1.3,2.3,2.2c0,0,0,0,0,0.1c0,0,0,0.1,0.1,0.2c0.1,0.3,0.2,0.7,0.2,1.1
	c0,0.3,0,0.5-0.1,0.7l0,0c-0.1,0.6-0.4,1.1-0.8,1.6c-0.2,0.2-0.4,0.4-0.6,0.6c-0.2,0.1-0.4,0.3-0.7,0.4c-0.1,0.1-0.3,0.1-0.4,0.2
	l0,0c1.3,0.7,2.1,2,2.1,3.3c0,0,0,0,0,0c0,1.3-0.7,2.5-1.9,3.2c0.6,0.7,1,1.6,0.9,2.5c-0.1,1.4-1.1,2.5-2.4,3.1l-2.9-0.4l-3.5-0.4
	c-1-0.8-1.6-2-1.5-3.2c0.1-1.1,0.8-2.1,1.8-2.7c-0.2-0.3-0.4-0.5-0.5-0.8c0-0.1,0-0.1-0.1-0.2c0,0,0,0,0-0.1c-0.1-0.3-0.2-0.7-0.2-1
	c0-1.4,0.8-2.5,2-3.3c0,0,0,0,0,0c-1.4-0.7-2.4-1.7-2.6-3c0,0,0-0.1,0-0.1c0-0.1,0-0.2,0-0.3c0-0.2,0-0.3,0-0.3c0-1,0.5-1.9,1.2-2.6
	c0.4-0.4,1.3-1.3,1.5-1.7c0.2-0.3-0.1-0.6-0.5-0.4c-0.6,0.3-1.5,1.2-1.6,1.3c-0.8,0.8-1.7,0.8-2.3,0.8c-0.8,0-1.6-0.4-2.1-0.9
	c-0.5,1.5-1.8,2.5-3.4,2.5c-1,0-1.9-0.4-2.6-1c-0.1-0.1-0.2-0.2-0.3-0.3L5,4.1L5,4.1z"/>
<path class="st2" d="M15.1,14.2c0,0-0.1,3,3.1,4c0,0-3.9,1.5-2.1,5.2"/>
<path class="st2" d="M26.2,13.4c0,0,1.8,2.6-2.3,4.9c0,0,3.9,3.3,1.2,6"/>
<path class="st3" d="M24.6,16.4c0.8-0.7,0.3-3.6-1.6-4c-1.9-0.4-1.2-2-0.4-2.7c0.8-0.7,2.5-5.1-1.7-6s-5.9,1.9-5.9,1.9
	s-2.2-4-6.1-2.3c0,0-2.2,1-2.9,2.4l0,5.5c2,2.6,4.5-1.2,4.5-1.2s0.7-0.7,1.3,0c0.7,0.8,2,1.7,3.8-0.2c0.6-0.6,1.2-0.9,1.8-1
	c1.3-0.3,2.4,0.3,2.1,0.8c-0.1,0.1-0.3,0.3-0.5,0.6c-1.1,1.1-3.3,3.2-2.5,4.6c1.1,1.7,3.6,1.3,4.6,2s1.8,1.7-1.4,2.6
	c-2,0.5-3.2,1.7-2.1,3.5c0,0,0.3,2.2-0.9,3.3c-0.6,0.5,0.6,2.5,0.6,2.5l4.5,0.5c2.1-1.8,1.8-4.2,0.8-4.6c-0.4-0.2-0.4-0.6-0.3-1
	c0.6-0.6,1-1.3,1.3-1.9c0.6-1.5,0.3-2.7-0.8-2.9C21.6,18.7,23.7,17.1,24.6,16.4L24.6,16.4z"/>
</svg>
