<?xml version="1.0" encoding="UTF-8"?>
<svg id="Where_is_found" data-name="Where is found" xmlns="http://www.w3.org/2000/svg" viewBox="0 0 32 32">
  <defs>
    <style>
      .cls-1 {
        fill: #f8f8f7;
      }

      .cls-2 {
        fill: #fff;
      }

      .cls-3 {
        fill: #9ecbe1;
      }

      .cls-4 {
        fill: #d56263;
      }

      .cls-5 {
        fill: #d9dde3;
      }

      .cls-6 {
        fill: #589ac2;
      }

      .cls-7 {
        fill: #77b3d6;
      }

      .cls-8 {
        fill: #4d88a6;
      }
    </style>
  </defs>
  <polygon class="cls-7" points="29.71 10.95 29.71 17.59 13.9 26.09 2.29 22.09 2.29 15.25 18.25 8.63 29.71 10.95"/>
  <polygon class="cls-6" points="2.29 22.09 13.9 26.09 13.9 18.92 2.29 15.24 2.29 22.09"/>
  <polygon class="cls-3" points="29.71 10.94 13.9 18.92 2.29 15.25 18.25 8.63 29.71 10.94"/>
  <path class="cls-6" d="m20.85,11.71l-7.95,4.01c-.44.21-1.08.52-1.76.17-.25-.14-.47-.64.15-.94l8.25-3.87c.44-.2.77-.33,1.31-.13.31.12.49.52,0,.77Z"/>
  <path class="cls-2" d="m12.03,16.02s.5-.83,0-2.25c-.17-.49-.28-1.29-1.04-1.52.24-.25,1.14-.19,1.75-.84,2.65-2.82,2.37-4.47,4.8-5.24,1.02-.32,1.96-.71,2.65-1.06l-.05-.68c.01-.08.34-.72.96-.5s.31,1.15.31,1.15c-.34,1.47-.9,4.3-.67,6.33l.03.33-7.93,4s-.45.23-.82.28Z"/>
  <path class="cls-5" d="m20.52,5.92s-.92,3.14-1.24,4.71-.07,1.91-.07,1.91l-.52.26s-.2-1.07,1.83-6.88Z"/>
  <path class="cls-5" d="m21,4s.31.06.34.3c.04.27-1.14.81-1.14.81v-.06s.68-.36.89-.56c.06-.06.31-.25-.09-.49Z"/>
  <path class="cls-5" d="m11.79,12.48c-.06-.02.3-.01.59,1.67,0,0,1.01-1.13,1.68-2.22.84-1.38,1.2-3.06,1.2-3.06,0,0-1.79,3.56-3.48,3.61Z"/>
  <path class="cls-2" d="m22.7,13.95s-.07.02-.1.02l-2.04-.52,4.34-2.58s.06-.02.1-.02l2.09.46-4.38,2.64Z"/>
  <path class="cls-1" d="m23.53,17.45l-.88-3.47-2.09-.53.85,3.17s.3-.05.73.07,1.4.77,1.4.77Z"/>
  <path class="cls-8" d="m23.47,17.41s.07.07.09.13l1.95,7.65c-.09.05-1.14-.27-1.78-.44-.08-.02-.14-.08-.16-.16l-2.15-7.99s.38-.07.82.1c.37.14,1.03.56,1.24.7Z"/>
  <path class="cls-2" d="m28.52,17.45l-1.44-6.14-4.43,2.67.88,3.47s.89.72,2.05.8,2.94-.8,2.94-.8Z"/>
  <path class="cls-6" d="m28.52,17.45l1.17,4.97c.01.05,0,.11-.05.14-1.33.85-3.42,2.25-3.99,2.56-.08.04-.16,0-.19-.09l-1.93-7.58s.72.68,1.97.79,3.02-.79,3.02-.79Z"/>
  <path class="cls-5" d="m22.65,13.98c2.72,2.82,5.06,1.2,4.43-2.67,0,0,.41,2.79-1.03,3.73s-3.4-1.06-3.4-1.06Z"/>
  <polygon class="cls-4" points="25.3 15.29 25.41 15.72 26.79 14.91 26.68 14.5 25.3 15.29"/>
  <path class="cls-8" d="m25.56,20.17s-.78-1.34-.2-2.01,1.98-.93,2.15-1.83c0,0,.65.76.36,1.73s-1.7.58-2.3,2.11Z"/>
  <path class="cls-5" d="m25.03,10.9l-4.14,2.49s.14,0,.35-.11,3.8-2.38,3.8-2.38Z"/>
  <path class="cls-5" d="m21.09,13.44l4.14-2.49s-.14,0-.35.11-3.8,2.38-3.8,2.38Z"/>
  <path class="cls-5" d="m25.23,10.95l-4.14,2.49s.14,0,.35-.11,3.8-2.38,3.8-2.38Z"/>
  <path class="cls-5" d="m21.29,13.49l4.14-2.49s-.14,0-.35.11-3.8,2.38-3.8,2.38Z"/>
  <path class="cls-5" d="m25.43,11.01l-4.14,2.49s.14,0,.35-.11,3.8-2.38,3.8-2.38Z"/>
  <path class="cls-5" d="m21.48,13.55l4.14-2.49s-.14,0-.35.11-3.8,2.38-3.8,2.38Z"/>
  <path class="cls-5" d="m25.63,11.06l-4.14,2.49s.14,0,.35-.11,3.8-2.38,3.8-2.38Z"/>
  <path class="cls-5" d="m21.69,13.6l4.14-2.49s-.14,0-.35.11-3.8,2.38-3.8,2.38Z"/>
  <path class="cls-5" d="m25.83,11.09l-4.14,2.49s.14,0,.35-.11,3.8-2.38,3.8-2.38Z"/>
  <path class="cls-5" d="m21.89,13.63l4.14-2.49s-.14,0-.35.11-3.8,2.38-3.8,2.38Z"/>
  <path class="cls-5" d="m26.03,11.14l-4.14,2.49s.14,0,.35-.11,3.8-2.38,3.8-2.38Z"/>
  <path class="cls-5" d="m22.09,13.68l4.14-2.49s-.14,0-.35.11-3.8,2.38-3.8,2.38Z"/>
  <path class="cls-5" d="m26.23,11.2l-4.14,2.49s.14,0,.35-.11,3.8-2.38,3.8-2.38Z"/>
  <path class="cls-5" d="m22.29,13.74l4.14-2.49s-.14,0-.35.11-3.8,2.38-3.8,2.38Z"/>
  <path class="cls-5" d="m26.4,11.25l-4.14,2.49s.14,0,.35-.11,3.8-2.38,3.8-2.38Z"/>
  <path class="cls-5" d="m22.46,13.79l4.14-2.49s-.14,0-.35.11-3.8,2.38-3.8,2.38Z"/>
  <path class="cls-5" d="m26.65,11.28l-4.14,2.49s.14,0,.35-.11,3.8-2.38,3.8-2.38Z"/>
  <path class="cls-5" d="m22.71,13.82l4.14-2.49s-.14,0-.35.11-3.8,2.38-3.8,2.38Z"/>
</svg>