<?xml version="1.0" encoding="UTF-8"?>
<svg id="Where_is_found" data-name="Where is found" xmlns="http://www.w3.org/2000/svg" viewBox="0 0 32 32">
  <defs>
    <style>
      .cls-1 {
        fill: #f5fbff;
      }

      .cls-2 {
        fill: #ebbfac;
      }

      .cls-3 {
        fill: #fbd7c9;
      }

      .cls-4 {
        fill: #d9dde3;
      }

      .cls-5 {
        fill: #d7ad9b;
      }

      .cls-6 {
        fill: #c5686a;
      }

      .cls-6, .cls-7, .cls-8 {
        opacity: .52;
      }

      .cls-7 {
        fill: #bf5557;
      }

      .cls-8 {
        fill: #b63a3e;
      }
    </style>
  </defs>
  <path class="cls-1" d="m6.42,9.43s2.1-.05,4.37-1.68,2.23-2.49,2.42-3.98c0,0-.15-.26.23-.13s5.04,1.4,6.81,1.48,4.16.96,7,4.66,4.08,4.49,4.08,4.49c0,0-.42,3.89-5.96,5.72,0,0-1.5-1-1.96-1.54,0,0-.42,2.15-.5,3.19s-.08,5.05.12,5.39.5,1.73.5,1.73l-17.62.64s-2.94-4.7-3.87-8.05S.8,10.68,6.42,9.43Z"/>
  <g>
    <circle class="cls-6" cx="13.48" cy="16.11" r="6.58"/>
    <circle class="cls-7" cx="13.48" cy="16.11" r="4.79"/>
    <circle class="cls-8" cx="13.48" cy="16.11" r="2.97"/>
  </g>
  <path class="cls-3" d="m9.89,16.06c.34-.59.13-1,.01-1.71-.18-1.1-.77-1.05-.9-.97s-.23,1.26-.28,1.51c0,.04-.06.13-.14.24,0,0,.36.14.42.21s.37.31.46.37.43.35.43.35Z"/>
  <path class="cls-5" d="m14.74,17.5s.19.43.08.63-.62.78-.85.71.34.19.34.19l1.37-.68-.35-.58-.59-.27Z"/>
  <path class="cls-3" d="m22.38,25.81c-.8.54-2.92.58-5.44-.4-.39-.15-2.12.08-3.57.01-.74-.04-1.58-.38-1.73-.47-.44-.27-1.87-.44-1.87-.44,0,0-.62.09-1.62-.65s-1.45-1.03-1.45-1.03c0,0-.87-.78-.83-1.1s.28-.73,1.05-.27,1.69.83,2.16,1.21c.92.06,1.7.51,1.7.51,0,0,.01-.22-.5-.42s-2.09-.98-2.49-1.5-1.4-1.46-1.4-1.46c0,0-1.12-1.37-.45-1.56s1.01.09,1.23.4,1.8,1.5,2.03,1.67,1.33,1.01,1.33,1.01c0,0-1.26-1.21-1.82-1.51s-1-1.32-1.11-1.46-1.15-1.23-1.26-1.47-.14-.95.97-.76c.38.08,1.36,1.24,1.58,1.47.11.12.75.58,1.36,1.13.55.5,1.04,1.14,1.39,1.26,0,0-.09-.05-.33-.3-.1-.11-1.4-1.36-1.7-1.61s-.54-.58-.63-.63-1.77-1.44-1.35-1.94,1.22-.15,1.33,0,1.54,1.23,1.91,1.53,1.22,1.01,1.51,1.15,1.35.68,1.72.68.69-.47,1.23-.55c0,0,.14-.08.06-.24s-1.24-1.01-1.72-1.21-2.22-1.68-1.64-2.35,1.55.31,1.55.31c0,0,.37.22.86.32s.97.64.97.64c0,0,1.6,1.04,2.05,1.14s.76.91.8,1.21.71,1.41.77,2.01,1.4,1.36,2.54,1.4,2.04-.27,2.22-.03c.28.36-.22,3.76-1.44,4.31Z"/>
  <path class="cls-2" d="m10.55,21.33s.42.35.63.64,1.52.44,1.52.44c0,0-1.28-.04-1.6-.34-.12-.12-.08-.2-.55-.74Z"/>
  <path class="cls-2" d="m11.65,19.98s.37.85,1.14,1.35c.29.16.89-.01,1.7.12s.82.17.82.17c0,0-.77-.37-1.62-.39s-.83-.04-1.23-.35-.82-.9-.82-.9Z"/>
  <path class="cls-2" d="m15.37,17.99s.2.28.47.38.35.42.35.42c0,0-.22,0-.69.04s-.93.04-1.45,0c0,0,.15.01.37-.08.12-.05.32-.2.39-.25.17-.13.49-.2.54-.21.02,0,.15-.19.02-.3Z"/>
  <path class="cls-3" d="m3.47,27.01s2.01-1.6,2.97-1.55.74.25,2.09.15,1.49-.16,2.02-.37.76-.29.76-.29c0,0-.69-.24-1.58-.29s-1.41-.51-1.88-.85-.85-.59-1.15-.79-.9-.79-.95-1.14.15-.58.3-.65.41-.13.75.04,1.09.62,1.18.65,1.02.54,1.13.64c0,0,.7.08,1.31.38,0,0-1.18-.56-1.35-.65s-.62-.39-.77-.49-.58-.34-.83-.71-.99-1.02-1.16-1.21-.5-.61-.65-1.24c0,0-.46,1.02-.67,1.58s-.92.93-1.64,1.39-1.64.86-1.64.86c0,0-1.03,2.21,1.74,4.53Z"/>
  <path class="cls-3" d="m5.9,18.16s.25-.52.37-.66c.09-.13.19-.23.24-.27,0,0,.08.1.25.3.23.27.59.65.68.73.15.11.46.79.63.96.03.05.2.28.08.17-.17-.16-.4-.37-.52-.46-.06-.05-.26-.26-.39-.42-.27-.31-.59-.62-1.34-.36Z"/>
  <path class="cls-5" d="m6.71,21.35s.72.49.9.56,1.34.68,1.44.81c.03.04.48.1.91.23.15.05.45.16.71.35.01-.01.07-.02.09-.04.03-.03.03-.07.03-.07,0,0-.35-.2-.86-.36-.38-.12-.85-.16-.85-.16,0,0-.3-.22-.53-.35l-1.86-.98Z"/>
  <path class="cls-5" d="m7.24,18.69s1.02,1.19,1.34,1.41,1.97,1.23,1.97,1.23c0,0-.05-.06-.17-.16-.17-.14-.47-.35-.77-.58-.33-.25-.76-.6-1.01-.78-.64-.46-1.35-1.12-1.35-1.12Z"/>
  <path class="cls-4" d="m23.29,18.41s-1.08-1.59-1.39-3.7c.01.08,1.35,3.35,1.83,3.69,0,0,.98.9,1.65,1.59,0,0-1.11-.75-2.08-1.57Z"/>
  <path class="cls-4" d="m23.3,18.41s-.88-.67-1.08-1.59c0,0,.49.99,1.12,1.38l-.03.2Z"/>
  <path class="cls-4" d="m23.29,18.41s-.42-.01-.69-.26c0,0,.37.2.66.19l.03.07Z"/>
  <path class="cls-4" d="m22.96,26.67s-.67.47-3.6.34-3.36.02-3.36.02c0,0,3.09.06,3.98.25s3.11-.13,3.11-.13l-.13-.48Z"/>
  <path class="cls-4" d="m21.73,5.37s-.59.92-.6,1.91c0,0-.18-1.05.33-1.99l.26.08Z"/>
</svg>