<?xml version="1.0" encoding="UTF-8"?><svg id="Livello_2" xmlns="http://www.w3.org/2000/svg" viewBox="0 0 30.3714573444 16.3771912168"><defs><style>.cls-1{fill:#010101;}.cls-2{fill:#e9e8e8;}.cls-3{fill:#fff;}.cls-4{fill:#858585;}.cls-5{fill:#e0ca8d;}.cls-6{fill:#202121;}.cls-7{fill:#474647;}.cls-8{fill:#343434;}</style></defs><g id="Who_is_at_risk"><g id="ic_cattle"><path id="Tracciato_67-2" class="cls-3" d="m.97686529,5.6794601655s.8635681214-.605564339,1.4368022749-1.3498952171.3890970755-.9296678768.8561447506-1.6259811023c-.0767636931-.0207266136-1.1418664418-.4853900643,0-1.7504214726S4.1277478372.0470348073,4.1277478372.0470348073c0,0-.5309323923,1.5318198599-.3059407461,2.0258254072,0,0,1.2046475444-.7133724024,2.4060467133-.5667556226.0654152019-.0481035471-.3949795503-1.3411105479-.3949795503-1.3411105479l.9296704797.9219061335s.5162626455.4763477115.4819777084,1.1276287705l1.0021654742,1.2025990896,3.865285684,1.1971408818,6.1967134649,1.0008848647s1.4867044017.2419701343,3.5522755567.1133521657,2.2607964376-.1088309893,3.7335182488,0,3.4528252927.0992784749,3.7317274777,2.3185409965.4738775927,4.5007881757.4738775927,4.5007881757c0,0,.715673335-.3331458906.5450919777,1.5983464851s-.8764470972,1.2587168579-.8764470972,1.2587168579c0,0-.8552910109.354723641-.1552244541-3.2078670695,0,0,.5380954767-4.5025815497-1.545039811-5.7394655764,0,0,.616993519.5862016267.3687114373,2.0229232128s-.476261817,2.3221251416-.6899153834,4.686211069.8985402149,1.3339474636.342870194,2.4585881451c0,0,.1186385844.1838872029-2.1071961712.3912288219-1.8652234341.1737360296-3.3201937063.7045851303-5.4422262078.0212367751-.3300745099-.5064550504-.3335727604-.406067755-.3582166858-.6329412726l-4.5289329544.2204756755s-.1832000466.4206542102-2.034097312.3912288219-3.1395548789-.3602677434-5.1921533549-.3912288219c-1.1186697094-.0170591769-1.7623582113-1.0661334832-1.4948045174-1.6426134093.2195360413-.5464584818.4502539904-.4487989889,2.4399984836-.290755632-1.7058135731-2.123737378-2.8652545591-5.5668357644-2.8652545591-5.5668357644,0,0-.7420247397.4295247739-1.5713912157.3554055916s-3.5092866392-.4179238048-3.7514259597-.4946848951-.7131121159-.1901991504-.8351656591-.7497916887.0137327155-1.0149585554.0739421875-1.0697150254.2280630269-.0792338119.3722929794-.1705813573.4813634323-.3162558999.4813634323-.3162558999Z"/><path id="Tracciato_71" class="cls-7" d="m6.3359335416,1.9433009035c.2115192172-.2235470562-.3119065126-1.4825215977-.3119065126-1.4825215977l.7484277875.8262950953s.5159190673.5294851994.2884494937,1.1885253989c-.1049058689.3354494261-1.1839183279.1867008999-.7249707686-.5322988964Z"/><path id="Tracciato_70" class="cls-7" d="m3.3448756871,2.6159869884c-.2075940969-.0464845651-.7968723099-.5915765428-.1809824057-1.2942850075.3231613006-.3832952896.7286356024-.8982825312.7286356024-.8982825312,0,0-.4935760746,1.2449034537-.1561614855,1.7472668003-.0675183168.061193355-.131559206.1261166154-.1918207353.1944626432-.0978260763.111303711-.199670976.2508380952-.199670976.2508380952Z"/><path id="Tracciato_69" class="cls-4" d="m1.0838248194,5.8488448557c.0621772379-.0511749278.3178826905-.0573150862.7223262578.1490868986.3789459022.1913912626.918582275.6459920374.7420247397,2.0264214633-.3345930835-.0133917402-1.6995875202-.2473424475-1.6995875202-.2473424475,0,0-.6101740129-.2568949619-.6155463261-.5629189997s-.078981334-.859046945.1263118303-.9500535151c.2063238988-.042728631.6623770723-.3638466827.7244710185-.4151933995Z"/><path id="Tracciato_72" class="cls-6" d="m1.0647322427,6.8935187259c-.1956080229-.1030928736-.2246866026-.3752358079.2157894279-.3998442997,0,0,.2712453344.2360102205.2188317183.3738641088s-.2388432129.1290582638-.4346211462.0259801909Z"/><path id="Tracciato_74" class="cls-2" d="m19.8961307997,15.3101408412c-.127936018-.1609429484.1791083429-.3326331262.2580896769-.4406962703.5799807795-.4083712905.5171163852-.4400143197,1.0859256683-.5692309472.9524403422-.1476371028.9962829994-.2287501832,2.0455290949-.1791109458-.3582166858-.1893454107-1.4536896627-.6836060388-1.286179686-2.7244395653s1.3449523766-3.0899104357.8936780631-1.784451329.3363838546,3.1843267589.975553783,4.2212925375c.2685844284.4362609884.1907067091.2876842514.1907067091.2876842514,0,0,.3971138996.7412621003-1.0955562686.6759275872-.6524237167-.0398160251-1.3070546629.0233034499-1.9398527779.1870418753-.6579417904.1810735059-.976844804.1994106895-1.1278942627.3259828062Z"/><path id="Tracciato_78" class="cls-2" d="m15.372827325,14.9818715147c.1011194594-.1336019296-.1556031943-.2931537457-.2275684631-.4080637283-.6535959522-.5255672393-2.2529404716-1.1483820427-3.0901276263-1.263538389-2.8706377452-.4366666941-1.7505668687-1.5619341281-3.0816107795-3.0053920207s-2.5092223999-2.1557408614-2.5092223999-2.1557408614c0,0,1.2489224089,2.7657876508,1.7867290987,3.7065755933.385423863.6539015906.80941142,1.2842924652,1.2697161276,1.8878309337.4698463782.1511774668.9575125181.2399933864,1.4504889416.2641691093.7629216349.0157955746,2.2998094029.208077135,2.9607345573.4478750308.660925126.2397982199,1.2665305804.4132181154,1.4408605436.5262843323Z"/><path id="Tracciato_75" class="cls-5" d="m20.1452620662,15.5736038074c.0650716237.0631142693.1896030944.2894776253.2547684212.3357045068s.4914417253.1978749992.9366669806.2244007959c0,0-.1207729336-.9932090159-.1503623024-1.0234881439,0,0-.3721263961.0921986822-.6520489042.1572755117-.1485715313.0311354705-.2928639526.0800172743-.429774649.1455912509-.0132746112.0569480822.0019157086.116795756.0407504536.1605160786Z"/><path id="Tracciato_77" class="cls-5" d="m15.1416997544,15.3817658505c-.0994661216.1274119667-.2541461942.1656873904-.3360979217.2092027796s-.6020811194.1644842983-1.1330749697.1472055282c0,0,.2378698993-1.0690518183.2757407463-1.0988701217,0,0,.4329666814.138995831.7591006795.2388718972.1725400039.0488824055.3390388319.1170041147.4963605742.2030820487.0201303297.1044325024-.0021931045.2125815602-.0620291086.300507868Z"/><path id="Tracciato_79" class="cls-8" d="m27.9067196804,8.8978177568c-.2696047514,1.1783768284-.5373354401,3.1339196763-.5396363727,3.5671977814,0,0-.0571485028.5843275639-.858622678.3001389602-.2087081231-.055352526-.4657774769.4993778606-.8380704564.2372797716-.3861922783-.2709686527-.5914021509-1.1093748786-.1559116105-1.4487468222.7819422766-.6093176703.4711497902-1.4187253778.3582166858-1.5330145749s-.0617503681-.1438004799-.5954105629,0c-.2000041427.0612376037-.4349803789-.2746360894-.3973741861-.7841625204.1838872029-.6456510621-.2724991373-.8645051528.1153173287-1.1160278014s.8675765334-.3773269202,1.492076715-.3717828179c.3397155217.0030713806.4494835424.2963856289,1.0060073029.3941284135s.4134078342.75498961.4134078342.75498961Z"/><path id="Tracciato_80" class="cls-8" d="m12.0084457856,4.946811596c1.2254563109.1834603331,3.1454349135.5325549533,3.1454349135.5325549533,0,0,.5785264287.0056293462.2884530726.8784939251-.0565475664.2272997367.5096120002.5073089527.2421402966.9126103267-.2765124297.4206536408-1.1320630763.6442004529-1.4784285926.1698136748-.6217691255-.8516273158-.9827191448-.2930588421-1.0993967958-.1698136748s-.0035821929.4078599902.1432031223.989371905c.0626031317.2176617345-.6377185058.6632202378-1.3369316482.547907243-.6084948396-.11218337-1.1398796424-.4794371317-1.459920474-1.0089887449-.2567249369-.4221888431-.2509251717-.801476534-.1298124091-1.4175310695.12111276-.6160543728.302440757-.489568476.4022308575-1.0956439526.0248195781-.1509645403-.4857304296-.9903953189,0-.8239931866s1.2830276572.4852186006,1.2830276572.4852186006Z"/><path id="Tracciato_83" class="cls-8" d="m8.4787783885,5.6437220163c.5799767125.0916021381-.1966802842,1.5164683251-.3019289179,1.6295637832s.0610680921,1.0541927589-.5699123285.94809115c-.6309804205-.1061016127-.9231863364-.3892666602-.9231863364-.3892666602,0,0,.4735338518-.3954075996.5827912229-.9607142399.0654753932-.3434718625.0654754338-.6962213932,0-1.039693337,0,0-.2364257879-.9311183233.2018830045-.7783626866s.4303768055.4984387144,1.0103533553.5903819905Z"/><path id="Tracciato_84" class="cls-8" d="m5.9265375714,3.6773090321c.5034301363.3021950561-.7504377986,1.3323672366-.8903890119,1.3978006596s-1.0066688076-.230101889-.6935037101-.7135537919c.1893745924-.2939341262.3215168759-.6209977169.3894759648-.9639868882,0,0,.1295928976-.9518845334.4787625517-.6460587572.3491696918.3058257914.2123031059.6236356545.7156542055.9257987777Z"/><path id="Tracciato_82" class="cls-8" d="m21.5788447732,10.3143132902c-.3290667629,1.1614781246.3991120563,2.1173290092-.9476455006,2.5288414728-1.3467576734.4115127675-.8726508764-.3470021472-1.3989375508-.4313224141s-.5773292019.3406067633-.7902416177-.0359291121c-.2211352397-.3896458725.3050789943-.7577938137.1949890253-1.4967414717s.4461630435-1.4846137797.7923438901-2.1229537323c.3461808275-.6383399599-.095550783-1.5565746866.5352396316-1.5654087581.6307904525-.0088340569.5727467068.2346077093,1.0011969088.5322247579.4284501948.2976170676,1.0280941882-.1114571784,1.1475871408.5962845681.1194928079.7077416692-.2054651354.8335264889-.5345319274,1.9950046894Z"/><path id="Tracciato_81" class="cls-8" d="m11.4342639579,10.9061460487c-.3628633651-.5830167855.1028344649-.813926197.6932236809-.9775709773s.8265520314.2772704382,1.4191992061.0578294633c.5926472535-.2194411172.8513990899-.8322601494.8513990899-.8322601494,0,0,.2167766619-.3771775554,1.0282972151.3218127121.2180352977.1696176557.7190687858-.0402421793,1.047340907.3722531038.3411347213.4269390212.2638579208,1.1201654936-.3608888113,1.0718760257-1.1220075947-.086958234-.6664383152.4760634735-.5795283364.6246814936s.4272773188.239866729,1.091434273.4818272904c.2516137741.0856421527.4642093869.8060460042.0878865908,1.1994221892s-1.0551481786.4496845635-1.5925823213.3726569995-.9335982493-.3015983173-1.5366729076-.7401341926-.8253354819-.3830850969-1.0044292164-.9028536046c-.1790937493-.519768481-.7818567822-.4664486612-1.1446793697-1.0495403536Z"/><path id="Tracciato_85" class="cls-3" d="m5.320860774,3.745930307c.115465166.0902621104.1075771438.295242226.0173150459.410707376-.0902620853.1154651339-.2309903618.2004668929-.346186695.110414936s-.0903927615-.3097450545-.0001306511-.4252102205.2135371502-.1861741893.3290023002-.0959120915Z"/><path id="Tracciato_86" class="cls-1" d="m5.1232990454,3.9235170413c.054591388.0553196116.0583711178.143009361.0087422936.2028212254-.0455783164.0570580916-.1165882643.0989999628-.1748608938.0544212421s-.0455268128-.1528569087-.0000010296-.2098478074.1078469892-.0919733706.1661196299-.0473946601Z"/></g></g></svg>