<?xml version="1.0" encoding="utf-8"?>
<!-- Generator: Adobe Illustrator 27.9.0, SVG Export Plug-In . SVG Version: 6.00 Build 0)  -->
<svg version="1.1" id="Who_is_at_risk" xmlns="http://www.w3.org/2000/svg" xmlns:xlink="http://www.w3.org/1999/xlink" x="0px"
	 y="0px" viewBox="0 0 32 32" style="enable-background:new 0 0 32 32;" xml:space="preserve">
<style type="text/css">
	.st0{fill:#FFFFFF;stroke:#FFFFFF;stroke-width:1.041;stroke-linecap:round;stroke-linejoin:round;stroke-miterlimit:10;}
	.st1{fill:#8D6C54;stroke:#FFFFFF;stroke-width:0.2603;stroke-miterlimit:10;}
	.st2{fill:#4D4D4D;stroke:#FFFFFF;stroke-width:0.2603;stroke-linejoin:round;}
	.st3{fill:#DEBF7C;stroke:#FFFFFF;stroke-width:0.2603;stroke-linejoin:round;}
	.st4{fill:#674F3E;}
</style>
<g>
	<path class="st0" d="M30.1,5.7c-2-1.8-6.7-2.1-6.7-2.1S22,3.4,19.9,1.8c-0.4-0.3-1,0.4-1,0.4s-1.3,0.8-0.1,1.6
		c1.8,1.2,0.8,3.1-1.6,5.6c0.2,0,0.6,0,1,0.2c0.4,0.2,0.6,0.4,0.7,0.5h0l0,0l2.5-3.2c0,0,1.2-1.6,3.2-1.4c2,0.2,3.6,3.3,4.1,3.6
		C29.3,9.3,32.5,7.9,30.1,5.7z"/>
	<path class="st0" d="M17.1,9.5l-14.7,19c0.2,0,0.5,0.1,0.8,0.3C3.6,29,3.8,29.2,4,29.3v0c2.5-3.2,14.7-19,14.7-19
		S18.3,9.7,17.1,9.5z"/>
	<path class="st0" d="M2.3,28.8l-0.5,0.7c0,0-0.6,0.7,0.1,1c0.7,0.3,1.1,0.3,1.6-0.4c0-0.1,0.2-0.2,0.4-0.5
		c-0.2-0.1-0.4-0.3-0.8-0.5C2.8,28.9,2.5,28.8,2.3,28.8z"/>
	<polygon class="st0" points="3.8,29.5 3.8,29.5 3.9,29.6 	"/>
</g>
<path class="st1" d="M18.9,10.1l2.5-3.2c0,0,1.2-1.6,3.2-1.4c2,0.2,3.6,3.3,4.1,3.6c0.6,0.3,3.8-1.1,1.4-3.3c-2-1.8-6.7-2.1-6.7-2.1
	S22,3.4,19.9,1.8c-0.4-0.3-1,0.4-1,0.4s-1.3,0.8-0.1,1.6c1.8,1.2,0.8,3.1-1.6,5.6c0.2,0,0.6,0,1,0.2C18.6,9.7,18.8,10,18.9,10.1
	L18.9,10.1L18.9,10.1z"/>
<path class="st2" d="M4,29.3c2.5-3.2,14.7-19,14.7-19s-0.4-0.6-1.6-0.8l-14.7,19c0.2,0,0.5,0.1,0.8,0.3C3.6,29,3.8,29.2,4,29.3
	L4,29.3L4,29.3z"/>
<path class="st3" d="M3.8,29.5c-0.2,0.3-0.4,0.5-0.4,0.5c-0.6,0.7-1,0.7-1.6,0.4s-0.1-1-0.1-1l0.5-0.7c0.2,0.1,0.5,0.1,0.8,0.3
	C3.4,29.2,3.7,29.4,3.8,29.5L3.8,29.5L3.8,29.5z"/>
<path class="st4" d="M18.7,9.6c0,0,3.1-4,3-4.6c0-0.6,0.7-0.6,1-0.5C22.9,4.5,24.3,5,25,5.4c-0.2,0-0.4-0.1-0.7-0.1
	c-0.1,0-0.7,0-1.3,0.2c-0.7,0.2-1.1,0.7-1.4,0.9c-1.2,1.4-2.1,2.6-2.7,3.3c0,0-0.1-0.1-0.1-0.1C18.8,9.6,18.7,9.6,18.7,9.6L18.7,9.6
	z"/>
</svg>
