<?xml version="1.0" encoding="utf-8"?>
<!-- Generator: Adobe Illustrator 27.9.0, SVG Export Plug-In . SVG Version: 6.00 Build 0)  -->
<svg version="1.1" id="Livello_1" xmlns="http://www.w3.org/2000/svg" xmlns:xlink="http://www.w3.org/1999/xlink" x="0px" y="0px"
	 viewBox="0 0 80.4 167.4" style="enable-background:new 0 0 80.4 167.4;" xml:space="preserve">
<style type="text/css">
	.st0{fill:#FFFFFF;}
	.st1{fill:#D99898;}
</style>
<g id="ic_fever" transform="matrix(1, 0.017, -0.017, 1, 2.907, -0.258)">
	<circle id="Ellisse_7" class="st0" cx="34.5" cy="131.2" r="32"/>
	<path id="Rettangolo_3" class="st0" d="M20.7,5l22.4-0.5c3.7-0.1,6.8,2.9,6.8,6.6l0,0l2,95.1c0,0.6-0.4,1-1,1L16.1,108l0,0l-2-96
		C14.1,8.1,17,5.1,20.7,5z"/>
	<circle id="Ellisse_8" class="st1" cx="34.5" cy="131.2" r="25.3"/>
	<path id="Rettangolo_4" class="st0" d="M76.9,95.9L76.9,95.9c0,1.3-1,2.5-2.4,2.6l0,0l-19.7,0.3l0,0l-0.1-5l0,0l19.7-0.4
		C75.7,93.4,76.9,94.4,76.9,95.9L76.9,95.9z"/>
	<path id="Rettangolo_7" class="st0" d="M76.5,76.4L76.5,76.4c0,1.3-1,2.5-2.4,2.6l0,0l-19.7,0.4l0,0l-0.1-4.9l0,0L73.9,74
		C75.2,73.9,76.4,75,76.5,76.4L76.5,76.4z"/>
	<path id="Rettangolo_5" class="st0" d="M72.3,86.2L72.3,86.2c0,1.3-1,2.5-2.4,2.6l0,0l-15.3,0.3l0,0l-0.1-4.9l0,0l15.3-0.3
		C71.2,83.7,72.3,84.8,72.3,86.2L72.3,86.2z"/>
	<path id="Rettangolo_6" class="st0" d="M71.9,66.7L71.9,66.7c0,1.3-1,2.5-2.4,2.6l0,0l-15.3,0.2l0,0l-0.1-4.9l0,0l15.3-0.3
		C70.8,64.3,71.8,65.4,71.9,66.7L71.9,66.7z"/>
	<path id="Tracciato_7" class="st1" d="M20.8,62.6c0,0,4-1.6,12.5-1c8.4,0.5,12.1-2.1,12.1-2.1l1.5,69.8l-24.7,0.5L20.8,62.6z"/>
</g>
</svg>
