<?xml version="1.0" encoding="utf-8"?>
<!-- Generator: Adobe Illustrator 27.9.0, SVG Export Plug-In . SVG Version: 6.00 Build 0)  -->
<svg version="1.1" id="Where_is_found" xmlns="http://www.w3.org/2000/svg" xmlns:xlink="http://www.w3.org/1999/xlink" x="0px"
	 y="0px" viewBox="0 0 32 32" style="enable-background:new 0 0 32 32;" xml:space="preserve">
<style type="text/css">
	.st0{fill:#737373;}
	.st1{fill:#B1B1B2;}
	.st2{fill:#636363;}
	.st3{fill:#201617;}
	.st4{fill:#A8A8A8;}
	.st5{fill:#1C1C1C;}
	.st6{fill:#FFFFFF;}
</style>
<g id="ic_hare">
	<path class="st0" d="M19.2,10.4c0,0,1.6-4.4,5.3-5c0,0,0.6-0.1,0.8,0c0.2,0.1,0.3,0.6,0.1,1c-0.2,0.4-1,0.9-1.3,1.4
		c-0.9,1.7-3.4,2.9-3.4,2.9s1.2,0.5,1.6,0.8c0.4,0.4,0.7,1.3,0.9,1.4s0.7,0.9,0.7,0.9s0.3,0.7-0.2,1.2c-0.4,0.5-0.6,1-2.1,1.1
		c0,0,0.7,3.3-0.5,5.5c-1.2,2.3-1.3,4.2-1.2,5.9c0,0,1.1-0.1,1.1,0.9c0,0.5,0,0.6-0.1,0.6h-0.6c0,0-0.1,0.5-1.4,0.5
		c-1.3,0-0.7,0-0.7,0s-0.6,0.1-0.7-0.6h-0.6c0,0,0.2,0.6-0.8,0.6s-2.8,0-3.7-0.3c-0.9-0.2-1.9-0.6-1.3-1.3c0.2-0.2-0.3-0.5-0.3-0.5
		S9.1,26,9.3,24.1c0.2-1.9,0.1-7.7,5.7-9.2c0,0,0.9,0,2-0.6c0,0-0.3-1.2,0.1-2.1c0.3-0.9,0.2-1.5,0.2-1.5s-3-3.2-2.7-7.7
		c-0.1-1,1.4,0.2,1.4,0.2s1.8,1.6,2.4,5.8C18.4,9.7,19.2,10.4,19.2,10.4"/>
	<path class="st1" d="M9,24.3c0-0.2-0.4,0.2-0.3,1.5c0,0-0.2,0-0.3-0.2c-0.1-0.2-0.1,0.2,0.2,0.8s-0.5-0.2-0.5-0.2s0.4,2.3,2.6,2.3
		c0,0-0.1-0.2,0.1-0.4c0.2-0.2,0.1-0.2,0-0.4s-1.4-1.1-1.5-3.1C9.2,24.6,9.1,24.4,9,24.3L9,24.3z"/>
	<path class="st2" d="M15.1,20.5c0,0,0.7,2.5,1,3.2c0.3,0.7,1.1,2.8,1.2,3.5c0.1,0.7,0.2,1.7,0.2,1.7h-0.6c0,0,0-0.8-1.1-0.8
		c-1.1,0-1.4,0-1.4,0s1.2-1.1,1.7-2.9c0.1-0.5-0.5-2.1-0.6-2.6C15.3,22,15.1,21,15.1,20.5L15.1,20.5z"/>
	<path class="st2" d="M19.8,22.3c0,0,0.1,0.3-0.2,0.9c-0.4,0.7-0.4,1.6-0.4,1.6s0,1.7,0.5,3h-0.3c0,0-0.5-1.2-0.4-2.4
		c0.1-1.2,0.2-1.6,0.3-1.7C19.1,23.5,19.6,22.9,19.8,22.3L19.8,22.3z"/>
	<path class="st2" d="M21.5,16c0,0-0.6,0-0.8-0.2c-0.2-0.1-0.8-0.1-0.8-0.1s-1.4,0.1-1.7-0.2c0,0,0.4,0.3,2.1,0.4
		c0,0,0.6,0.2,0.7,0.7c0.1,0.5,0.1,1.3,0,1.9c-0.1,0.6,0.2,1.6,0.4,1.7S22.3,17.3,21.5,16L21.5,16z"/>
	<path class="st3" d="M23.1,13.6c0,0,0.2,0,0.4,0.1s0.3,0,0.3,0c0,0,0.2,0.4,0.1,0.7c0,0-0.1-0.3-0.2-0.4
		C23.7,13.9,23.2,13.8,23.1,13.6L23.1,13.6z"/>
	<path class="st4" d="M21.1,13c0,0,0.2-0.8-0.4-1.1c-0.6-0.3-1,0-1,0s-0.2,0.5,0.3,0.9C19.9,12.7,20.3,13,21.1,13L21.1,13z"/>
	<path class="st5" d="M21,12.9c0,0,0.2-0.7-0.3-0.9c-0.5-0.2-0.8,0-0.8,0s-0.2,0.5,0.3,0.8C20,12.6,20.3,12.9,21,12.9z"/>
	<circle class="st6" cx="20" cy="12.4" r="0.1"/>
	<path class="st1" d="M20.5,10.5c0,0,0.1-3.1,3.3-4.6c1.4-0.6,1.3-0.2,1.3-0.2s0.3,0.5-0.8,1.1c-0.3,0.2-0.8,0.9-1,1.4
		S20.5,10.5,20.5,10.5z"/>
	<path class="st1" d="M17.6,10.5c0,0,0.1,0,0.3,0c0,0-0.3-0.5-0.3-2s-1.4-4.5-1.9-5s-0.5-0.4-0.5-0.4S15,3.1,15,3.3
		C15,3.5,14.7,7,17.6,10.5L17.6,10.5z"/>
</g>
</svg>
