<?xml version="1.0" encoding="utf-8"?>
<!-- Generator: Adobe Illustrator 27.9.0, SVG Export Plug-In . SVG Version: 6.00 Build 0)  -->
<svg version="1.1" id="Livello_2_00000180343932923493682190000000253096363636420776_"
	 xmlns="http://www.w3.org/2000/svg" xmlns:xlink="http://www.w3.org/1999/xlink" x="0px" y="0px" viewBox="0 0 13.2 11.7"
	 style="enable-background:new 0 0 13.2 11.7;" xml:space="preserve">
<style type="text/css">
	.st0{fill:#FFFFFF;stroke:#FFFFFF;stroke-width:0.4909;stroke-linecap:round;stroke-linejoin:round;stroke-miterlimit:10;}
	.st1{fill:#FBD7C9;}
	.st2{fill:#EBBBA9;}
	.st3{fill:#404040;}
	.st4{fill:#D9A592;}
	.st5{fill:#EE9F8B;}
</style>
<path class="st0" d="M12.3,5.2c0-0.1,0-0.2,0-0.2l0,0c0,0,0-0.1,0-0.2c0,0,0,0,0,0c0-0.1-0.1-0.3-0.1-0.4c0,0,0-0.1,0-0.1
	c0,0,0-0.3-0.1-0.5c0-0.2,0-0.3-0.1-0.5c0,0,0,0,0-0.1c0,0,0,0,0,0c0,0,0-0.1-0.1-0.1c0,0,0,0,0,0c-0.1-0.1-0.1-0.2-0.2-0.2
	c0,0,0,0,0,0c0,0-0.1,0-0.1,0c0,0,0,0,0,0c0,0,0,0,0,0c-0.2,0-0.2,0.1-0.2,0.2c0,0,0,0,0,0c0,0,0,0,0,0C10.2,3.6,8.9,3,8.9,3
	S8.5,2.6,8.3,2.6c-0.2,0-0.6-0.2-0.7-0.5C7.1,1.4,5.9,1.3,5.9,1.3C5.5,0.7,4.7,0.6,4.7,0.7c0,0.1,0,0.2,0,0.4c0,0.2-0.1,0.4-0.1,0.4
	C4.4,1.6,4.3,1.6,4.2,1.7c0,0-0.1,0-0.1,0C3.9,1.7,3.8,1.9,3.7,2C3.6,2.1,3.5,2.2,3.4,2.4C3.2,2.5,3.1,2.7,2.9,2.9
	C2.8,3,2.7,3.1,2.6,3.2C2.2,3.5,1.7,3.8,1.1,4.1c0,0-0.2,2.3,1,4c1.4,1.9,4.2,3.2,4.2,3.2s0.6-0.1,1-0.9c0.4-0.7,0.6-0.8,1.4-1.2
	c0.8-0.5,1.7-1.5,2.3-2.4c0.5-0.8,1-1.4,1.1-1.5c0,0,0,0,0,0C12.1,5.3,12.1,5.2,12.3,5.2C12.2,5.2,12.2,5.2,12.3,5.2
	C12.3,5.2,12.3,5.2,12.3,5.2z"/>
<g id="Where_is_found">
	<path class="st1" d="M12.2,5c0,0-0.1-0.2-0.2-1.1c-0.1-0.9-0.3-1-0.5-1c-0.2,0-0.3,0.3-0.3,0.3C10.2,3.6,8.9,3,8.9,3
		S8.5,2.6,8.3,2.6c-0.2,0-0.6-0.2-0.7-0.5C7.1,1.4,5.9,1.3,5.9,1.3C5.5,0.7,4.7,0.6,4.7,0.7c0,0.1,0,0.2,0,0.4S4.6,1.5,4.6,1.5
		C4.3,1.6,4.1,1.8,4,1.9C3.9,2.1,3.6,2.4,3.6,2.4C2.8,3.1,2.2,3.6,1.1,4.1c0,0-0.2,2.3,1,4c1.4,1.9,4.2,3.2,4.2,3.2s0.6-0.1,1-0.9
		c0.4-0.7,0.6-0.8,1.4-1.2c0.8-0.5,1.7-1.5,2.3-2.4c0.6-0.9,1.1-1.5,1.1-1.5C12.4,5.3,12.2,5,12.2,5z"/>
	<path class="st2" d="M7.3,2.9c0,0,0.1,0.4,0,0.6c0,0,0.2,0,0.3,0.1c0.1,0.1-0.2,0.2-0.2,0.2c0,0-0.2,0.6-0.8,0.3
		c-0.1,0,0-0.2,0-0.2s0.5-0.5,0.5-0.8S7.3,2.9,7.3,2.9z"/>
	<path class="st2" d="M11.3,3.2c0,0,0-0.3,0.2-0.3c0.2,0,0.3,0.1,0.4,0.4c0.1,0.3,0.2,1,0.2,1s0.1,0.6,0.1,0.7c0.1,0.1,0,0.2,0,0.2
		s-0.1,0.1-0.2,0.1c-0.1,0-0.1,0-0.1,0s-0.1,0.1-0.4-0.8C11.4,4,11.3,3.2,11.3,3.2z"/>
	<path class="st2" d="M4.8,0.8c-0.1,0,0,0.1,0,0.3c0,0.1,0,0.3-0.1,0.3c0,0,0.5-0.2,1-0.1C5.7,1.3,5.4,0.9,4.8,0.8z"/>
	<path class="st3" d="M7.4,3.3c0,0-0.1,0.3,0,0.4c0,0,0.1-0.2,0.1-0.2S7.4,3.4,7.4,3.3C7.4,3.3,7.4,3.2,7.4,3.3z"/>
	<path class="st4" d="M9.1,6.1c0,0,2.6-1,2.7-1c0,0,0,0.1,0.3,0.1c0,0-0.1,0.2-0.3,0.2c0,0-0.3,0-0.6,0.1C10.5,5.8,9.3,6.1,9.1,6.1z
		"/>
	<path class="st5" d="M6.6,4C6.7,4,6.7,4,6.6,4c0.1-0.1,0.1-0.1,0.1-0.1c0,0,0,0,0,0c0,0,0-0.1,0.1-0.1c0,0,0,0,0,0c0,0,0,0,0,0
		c0,0,0.1-0.1,0.1-0.1C7,3.5,7.1,3.5,7.1,3.4c0.1-0.1,0.2-0.3,0.2-0.5c0-0.1,0-0.3-0.1-0.3c-0.1-0.1-0.2,0-0.4,0c0,0-0.1,0-0.1,0
		c-0.1,0-0.2,0.1-0.2,0.2C6.5,3,6.4,3.1,6.4,3.2c0,0.1,0,0.1-0.1,0.2c0,0.1-0.1,0.1-0.1,0.2c0,0.1-0.1,0.2-0.1,0.2
		C6.2,3.9,6.2,4,6.3,4C6.4,4.1,6.5,4.1,6.6,4C6.6,4,6.6,4,6.6,4z"/>
	<path class="st5" d="M7.6,3.5C7.6,3.5,7.6,3.5,7.6,3.5c0.1,0,0.1,0.1,0.2,0.1c0,0,0,0,0.1,0.1c0,0,0,0.1,0,0.1
		C7.7,3.8,7.6,3.9,7.5,4C7.3,4.1,7.2,4.2,7.1,4.2c-0.1,0-0.1,0-0.2,0c-0.1,0-0.1,0-0.2,0c-0.1,0-0.1,0-0.2-0.1
		c-0.1,0-0.1-0.1-0.2-0.1c0,0-0.1-0.1-0.1-0.1c0,0,0.3,0,0.3,0c0,0,0,0,0.1,0c0,0,0.1,0,0.1,0C6.9,4,7,3.9,7.1,3.9c0,0,0.1,0,0.1,0
		c0,0,0.1-0.1,0.1-0.1c0.1-0.1,0.1-0.1,0.2-0.2C7.5,3.5,7.5,3.5,7.6,3.5z"/>
	<path class="st5" d="M3.4,2.4C3.5,2.2,3.6,2.1,3.7,2c0.1-0.1,0.2-0.3,0.4-0.3c0.2,0,0.3,0,0.4,0.2c0.3,0.3,0.6,0.8,0.7,1.2
		c0.1,0.5,0.1,1.1,0.3,1.6c0,0.1,0.1,0.3,0.1,0.4c0,0.1,0,0.2-0.1,0.2c0,0-0.1,0-0.1,0C4.9,5,4.4,4.8,3.9,4.5
		C3.6,4.3,3.4,4.1,3.1,3.9c-0.1,0-0.2-0.1-0.3-0.2C2.5,3.7,2.5,3.4,2.6,3.2C2.7,3.1,2.8,3,2.9,2.9C3.1,2.7,3.2,2.5,3.4,2.4z"/>
</g>
</svg>
