<?xml version="1.0" encoding="utf-8"?>
<!-- Generator: Adobe Illustrator 27.9.0, SVG Export Plug-In . SVG Version: 6.00 Build 0)  -->
<svg version="1.1" id="Complications" xmlns="http://www.w3.org/2000/svg" xmlns:xlink="http://www.w3.org/1999/xlink" x="0px"
	 y="0px" viewBox="0 0 32 32" style="enable-background:new 0 0 32 32;" xml:space="preserve">
<style type="text/css">
	.st0{fill:#FFFFFF;stroke:#FFFFFF;stroke-width:0.5;stroke-miterlimit:10;}
	.st1{fill:#C5686A;}
	.st2{fill:#FFFFFF;}
	.st3{fill:#BF5557;}
	.st4{fill:#B14F51;}
</style>
<path class="st0" d="M30.3,10.1c-1-2.1-3.3-3.4-6.4-3.4v0c-1.8,0-3.7,0.4-5.5,1.2c-1,0.5-2,1.1-2.8,1.7c-0.1-2-1.3-4.4-3.4-6.2
	C10.4,2,8.2,1,6.1,1C4.6,1,3.4,1.5,2.6,2.5c-2,2.3-1,6.5,2.4,9.4c1.9,1.6,4.1,2.6,6.1,2.6c0.4,0,0.7,0,1.1-0.1
	c-0.3,0.8-0.4,1.7-0.3,2.5c-1.1-0.3-2.2-0.5-3.3-0.5h0c-3.4,0-6.1,1.5-7,3.8c-0.7,1.7-0.3,3.7,1.1,5.6c1.3,1.8,3.4,3.3,5.8,4.3
	c1.5,0.6,3.2,0.9,4.7,0.9c3.4,0,6.1-1.5,7-3.8c0.6-1.7,0.3-3.6-1-5.5c1.6-0.1,3.3-0.5,4.9-1.2c2.4-1.1,4.4-2.7,5.5-4.7
	C30.8,13.8,31.1,11.8,30.3,10.1z"/>
<g>
	<g>
		<path class="st1" d="M13.2,30.8c-1.5,0-3.1-0.3-4.7-0.9c-5-1.9-8.1-6.2-6.8-9.6c0.9-2.3,3.5-3.7,6.8-3.7c1.5,0,3.1,0.3,4.7,0.9
			c5,1.9,8.1,6.2,6.8,9.6C19.1,29.4,16.5,30.8,13.2,30.8z"/>
		<path class="st2" d="M8.5,16.8c1.5,0,3,0.3,4.6,0.9c5,1.9,7.9,6.1,6.7,9.4c-0.9,2.3-3.5,3.6-6.6,3.6c-1.5,0-3-0.3-4.6-0.9
			c-4.9-1.9-7.9-6.1-6.7-9.4C2.8,18,5.4,16.8,8.5,16.8 M8.5,16.4c-3.4,0-6.1,1.5-6.9,3.8c-0.6,1.7-0.3,3.7,1.1,5.6
			c1.3,1.8,3.4,3.4,5.8,4.3c1.6,0.6,3.2,0.9,4.7,0.9c3.4,0,6.1-1.5,6.9-3.8c0.6-1.7,0.3-3.7-1.1-5.6c-1.3-1.8-3.4-3.4-5.8-4.3
			C11.7,16.7,10.1,16.4,8.5,16.4L8.5,16.4L8.5,16.4z"/>
	</g>
	<ellipse transform="matrix(0.3507 -0.9365 0.9365 0.3507 -15.1452 25.5517)" class="st3" cx="10.9" cy="23.7" rx="4.6" ry="6.9"/>
	<path class="st4" d="M17.3,26.1c0.1-1-1.3-3.8-3.2-5.1s-3.4-1.9-7.2-1.9c1.5-0.6,3.6-0.5,5.7,0.2C16,20.7,18.2,23.7,17.3,26.1
		L17.3,26.1z"/>
</g>
<g>
	<g>
		<path class="st1" d="M18.6,21.5c-3,0-5.3-1.2-6.2-3.2c-0.7-1.6-0.5-3.6,0.7-5.5c1.2-1.9,3.1-3.5,5.5-4.6C20.3,7.4,22.1,7,23.9,7
			c3,0,5.3,1.2,6.2,3.2c1.5,3.3-1.2,7.9-6.1,10.1C22.3,21.1,20.4,21.5,18.6,21.5L18.6,21.5z"/>
		<path class="st2" d="M23.9,7.1c2.8,0,5.1,1.1,6.1,3.1c1.5,3.3-1.2,7.7-6,9.9c-1.8,0.8-3.6,1.2-5.3,1.2c-2.8,0-5.1-1.1-6.1-3.1
			c-1.5-3.3,1.2-7.7,6-9.9C20.4,7.5,22.2,7.1,23.9,7.1 M23.9,6.8L23.9,6.8c-1.8,0-3.7,0.4-5.4,1.2c-5,2.3-7.8,6.9-6.2,10.3
			c0.9,2.1,3.3,3.4,6.4,3.4c1.8,0,3.7-0.4,5.5-1.2c2.4-1.1,4.4-2.7,5.5-4.7c1.2-2,1.4-4,0.7-5.7C29.4,8,27,6.8,23.9,6.8L23.9,6.8
			L23.9,6.8z"/>
	</g>
	<ellipse transform="matrix(0.9102 -0.4142 0.4142 0.9102 -3.9917 10.0912)" class="st3" cx="21.3" cy="14.2" rx="6.9" ry="4.6"/>
	<path class="st4" d="M27.5,11.4c-0.6-0.7-3.6-1.7-5.9-1.3s-3.7,1.1-6.5,3.7c0.7-1.5,2.2-2.9,4.2-3.8C22.8,8.4,26.4,9.1,27.5,11.4
		L27.5,11.4z"/>
</g>
<g>
	<g>
		<path class="st1" d="M11.1,14.3c-2,0-4.2-0.9-6-2.5c-3.2-2.9-4.3-7-2.4-9.2c0.8-0.9,2-1.4,3.4-1.4c2,0,4.2,0.9,6,2.5
			c1.6,1.4,2.7,3.1,3.1,4.8c0.5,1.8,0.2,3.3-0.8,4.4C13.7,13.8,12.5,14.3,11.1,14.3L11.1,14.3z"/>
		<path class="st2" d="M6.1,1.4c1.9,0,4,0.9,5.9,2.5c3.2,2.8,4.2,6.8,2.3,8.9c-0.8,0.9-1.9,1.3-3.3,1.3c-1.9,0-4-0.9-5.9-2.5
			C2,8.8,1,4.8,2.8,2.7C3.6,1.8,4.8,1.4,6.1,1.4 M6.1,1L6.1,1C4.6,1,3.4,1.5,2.6,2.5c-2,2.3-1,6.5,2.4,9.4c1.9,1.6,4.1,2.6,6.1,2.6
			c1.5,0,2.7-0.5,3.5-1.4c2-2.3,0.9-6.5-2.4-9.4C10.4,2,8.2,1,6.1,1C6.1,1,6.1,1,6.1,1z"/>
	</g>
	<ellipse transform="matrix(0.6595 -0.7517 0.7517 0.6595 -2.8895 9.1002)" class="st3" cx="8.6" cy="7.7" rx="3.7" ry="5.5"/>
	<path class="st4" d="M4.5,4.1C5.8,2.6,8.8,3,11.1,5c0.5,0.5,1,1,1.4,1.5c0.8,1.2-1.3-1.7-4.1-2.4S4,4.6,4.5,4.1z"/>
</g>
</svg>
