<?xml version="1.0" encoding="UTF-8"?><svg id="how_to_prevent" xmlns="http://www.w3.org/2000/svg" viewBox="0 0 32 32"><defs><style>.cls-1{fill:#5b798c;}.cls-2{fill:#77a8c7;}.cls-3{fill:#82b7d9;}</style></defs><g id="ic_flock"><path id="Tracciato_12-2" class="cls-3" d="M25.25,13.31s3.54,3.11,3.22,7.31-3.4,9.17-11.54,8.86c-8.14-.31-15.55-7.44-10.67-11.56,0,0-2.5-2.37-3.28-5.19s-.44-4.21,.69-3.79c0,0-.88-3.03-.92-4.03s.29-3.54,1.49-1.86S12.24,13.56,15.68,13.63c0,0,1.6-4.41,4.5-5.03,0,0,.37-.82,1.21-1.05,0,0-.3-.69-.09-.81s1.21,.65,1.46,.72c0,0,.27,.07,.29-.16s.05-1.59,.96-.38c.31,.43,.43,.76,.73,.76s.88-1.47,1,.18c0,0,.1,1.19,.42,.82s1.13-.4-.45,1.81c0,0,1.25,.53,1.51,1.86,0,0-1.58-.38-2.07-.14,.29,.46,.09,1.1,.09,1.1Z"/><path id="Tracciato_18" class="cls-2" d="M13.24,20.58c-3.73-1.09-6.89-3.59-8.81-6.96-1.65-2.96-.58-3.42,.42-3.09,0,0-.49-1.63-.88-3.26s-.07-3.53,1.2-1.8,6.26,8.31,10.47,8.99c0,0,1.7,7.3-2.4,6.12Z"/><path id="Tracciato_14" class="cls-1" d="M21.72,7.7s-.35-.5-.18-.6,.85,.51,1.13,.6,.54,.13,.56-.12,.19-1.02,.91-.07c.24,.33,.46,.64,.69,.63s.69-1.18,.66,.1,.48,.89,.61,.81,.44,.07-.61,1.35c0,0-.44-.35-.66,.23,.09-1.18-1.2-2.49-2.31-1.95-1.7,.83-2.89-.24-.8-.98Z"/><path id="Tracciato_13" class="cls-2" d="M27.03,12.16s-1.24-.49-2.37-.05c-.27,.11-.72-.29,.06-.75,.16-.12,.28-.3,.31-.5,0,0,.13-.56,.93-.04,.49,.32,.86,.79,1.07,1.34Z"/><path id="Tracciato_15" class="cls-1" d="M25,13.41c-.22,.58-.52,.81-1.42,.89s-.9-.48-.77-1.03,.68-1.15,1.28-.97,.87,0,.87,0c.13,.35,.15,.74,.04,1.11Z"/><circle id="Ellisse_1" class="cls-2" cx="22.62" cy="10.43" r=".57"/><path id="Tracciato_16" class="cls-1" d="M22.65,10.08c-.19,0-.35,.16-.35,.35s.16,.35,.35,.35c.19,0,.35-.16,.35-.35,0-.19-.16-.35-.35-.35h0Z"/></g></svg>