<?xml version="1.0" encoding="UTF-8"?><svg id="how_to_prevent" xmlns="http://www.w3.org/2000/svg" viewBox="0 0 32 32"><defs><style>.cls-1{fill:#fff;}.cls-2{fill:#77a8c7;}.cls-3{fill:#82b7d9;}</style></defs><g id="ic_slaugh"><path id="Tracciato_175" class="cls-3" d="M14.96,24.38l.22,1.8s.95,3.55,5.24,1.3,1.73-2.49,9.08-5.62l-.18-2.08s-4.53-2.07-9.77-.73-4.73,4.12-4.6,5.32Z"/><path id="Tracciato_176" class="cls-2" d="M15.5,23.64s1.56,5.11,7.52-.42c0,0,1.7-1.62,4.59-2.5,0,0,2.47-.6-.9-1.29s-8.41-.24-9.97,1.22-1.24,2.99-1.24,2.99Z"/><path id="Tracciato_177" class="cls-2" d="M14.93,24.19s1.27,5.01,7.52,.08c0,0,2.1-2.1,4.92-3.15,0,0,1.88-.49,1.99-.97l.22,1.77s-.31,.33-1.47,.65-3.27,1.36-5.29,3.33c0,0-5.31,4.84-7.62,.58l-.28-2.29Z"/><path id="Tracciato_220" class="cls-1" d="M18.21,23.04c.63-.08,1.17,.14,1.22,.56s-.42,.77-1.05,.85-1.19-.16-1.24-.57,.44-.76,1.08-.84Z"/></g><g id="ic_facilities"><rect class="cls-2" x="16.01" y="3.14" width=".46" height="28.59" transform="translate(17.08 -6.38) rotate(45)"/><g id="man" transform="translate(1119.835 1388.687)"><g id="Raggruppa_10" transform="translate(0)"><g transform="matrix(1, 0, 0, 1, -1119.83, -1388.69)"><ellipse id="Ellisse_9-4" class="cls-2" cx="9.01" cy="5.18" rx="1.46" ry="1.41"/></g><g transform="matrix(1, 0, 0, 1, -1119.83, -1388.69)"><path id="Tracciato_15-4" class="cls-2" d="M7.06,6.96h3.91c.34,0,.61,.3,.61,.67v3.76c0,.37-.27,.67-.61,.67h-.23v4.56h-3.43v-4.56h-.25c-.34,0-.61-.3-.61-.67v-3.76c0-.37,.27-.67,.61-.67Z"/></g></g></g></g></svg>