<?xml version="1.0" encoding="UTF-8"?><svg id="how_to_prevent" xmlns="http://www.w3.org/2000/svg" viewBox="0 0 32 32"><defs><style>.cls-1{fill:#6c99b5;}.cls-2{fill:#5b798c;}.cls-3{fill:#77a8c7;}.cls-4{fill:#82b7d9;}</style></defs><g id="ic_facilities"><g><rect class="cls-4" x="16.09" y="1.84" width="8.65" height="27.95" transform="translate(40.83 31.62) rotate(180)"/><rect class="cls-2" x="17.63" y="3.31" width="5.57" height=".29" transform="translate(40.83 6.91) rotate(180)"/><rect class="cls-2" x="17.63" y="4.03" width="5.57" height=".29" transform="translate(40.83 8.35) rotate(180)"/><rect class="cls-2" x="17.63" y="4.76" width="5.57" height=".29" transform="translate(40.83 9.8) rotate(180)"/><rect class="cls-3" x="17.63" y="27.28" width="5.57" height="1.34" transform="translate(40.83 55.91) rotate(180)"/><rect class="cls-2" x="23.54" y="29.79" width="1.2" height=".38" transform="translate(48.28 59.95) rotate(180)"/><rect class="cls-2" x="16.09" y="29.79" width="1.2" height=".38" transform="translate(33.38 59.95) rotate(180)"/><rect class="cls-2" x="17.28" y="14.7" width=".35" height="2.94" transform="translate(34.91 32.33) rotate(180)"/></g><rect class="cls-4" x="24.8" y="1.84" width="5.58" height="27.95" transform="translate(55.18 31.62) rotate(180)"/><rect class="cls-2" x="26.34" y="3.31" width="4.04" height=".29" transform="translate(56.72 6.91) rotate(180)"/><rect class="cls-2" x="26.34" y="4.03" width="4.04" height=".29" transform="translate(56.72 8.35) rotate(180)"/><rect class="cls-2" x="26.34" y="4.76" width="4.04" height=".29" transform="translate(56.72 9.8) rotate(180)"/><rect class="cls-3" x="26.32" y="27.28" width="4.06" height="1.34" transform="translate(56.7 55.91) rotate(180)"/><rect class="cls-2" x="24.8" y="29.79" width="1.2" height=".38" transform="translate(50.8 59.95) rotate(180)"/><rect class="cls-2" x="25.99" y="14.7" width=".35" height="2.94" transform="translate(52.33 32.33) rotate(180)"/><g id="man" transform="translate(1119.835 1388.687)"><g id="Raggruppa_10" transform="translate(0)"><g transform="matrix(1, 0, 0, 1, -1119.83, -1388.69)"><circle id="Ellisse_9-4" class="cls-4" cx="6.04" cy="5.19" r="3.15"/></g><g transform="matrix(1, 0, 0, 1, -1119.83, -1388.69)"><path id="Tracciato_15-4" class="cls-4" d="M10.25,9.17H1.83c-.73,0-1.32,.67-1.32,1.5v8.41c0,.83,.59,1.5,1.32,1.5h.5v10.21h7.37v-10.21h.54c.73,0,1.31-.67,1.32-1.5V10.67c0-.83-.59-1.5-1.32-1.5Z"/></g></g></g><rect class="cls-1" x="10.81" y="23.39" width="19.56" height="1.29" transform="translate(41.19 48.07) rotate(180)"/><rect class="cls-2" x="16.09" y="24.68" width="8.65" height=".11" transform="translate(40.82 49.47) rotate(180)"/><rect class="cls-2" x="24.8" y="24.68" width="5.58" height=".11" transform="translate(55.18 49.47) rotate(180)"/><rect class="cls-2" x="24.8" y="29.62" width="5.58" height=".11" transform="translate(55.18 59.35) rotate(180)"/><rect class="cls-2" x="16.09" y="29.62" width="8.65" height=".1" transform="translate(40.82 59.35) rotate(180)"/><rect class="cls-1" x="10.7" y="28.85" width="19.68" height=".77" transform="translate(41.08 58.48) rotate(180)"/><polygon class="cls-1" points="14.41 24.68 15.15 30.16 12.8 30.16 13.73 24.68 14.41 24.68"/></g></svg>