<?xml version="1.0" encoding="UTF-8"?><svg id="how_to_prevent" xmlns="http://www.w3.org/2000/svg" viewBox="0 0 32 32"><defs><style>.cls-1{fill:#5b798c;}.cls-2{fill:#77a8c7;}.cls-3{fill:#82b7d9;}</style></defs><g id="ic_slaugh"><path class="cls-2" d="M5.57,22.05H31.09v7.4H4.16c-1.66,0-3-1.34-3-3h0c0-2.43,1.97-4.4,4.4-4.4Z"/><path class="cls-3" d="M5.56,22.93H31.09v5.65H4.24c-1.2,0-2.17-.97-2.17-2.17h0c0-1.92,1.56-3.48,3.48-3.48Z"/><rect class="cls-3" x="7.3" y="17.52" width="7" height="4.31"/><rect class="cls-2" x="11.94" y="20.98" width="1.85" height=".51"/><rect class="cls-2" x="11.94" y="20.3" width="1.85" height=".51"/><rect class="cls-3" x="17.65" y="17.52" width="7" height="4.31"/><rect class="cls-2" x="22.29" y="20.98" width="1.85" height=".51"/><rect class="cls-2" x="22.29" y="20.3" width="1.85" height=".51"/><rect class="cls-3" x="28.01" y="17.52" width="3.08" height="4.31"/><polygon class="cls-1" points="15.11 21.83 16.81 21.83 15.96 20.65 15.11 21.83"/><polygon class="cls-1" points="25.49 21.83 27.19 21.83 26.34 20.65 25.49 21.83"/></g></svg>