<?xml version="1.0" encoding="UTF-8"?><svg xmlns="http://www.w3.org/2000/svg" viewBox="0 0 32 32"><defs><style>.cls-1{fill:#fff;}.cls-2{fill:#a9d1eb;}.cls-3{fill:#77a8c7;}.cls-4{fill:#82b7d9;}</style></defs><g id="Where_is_found"><g id="ic_vegetable"><g><path class="cls-3" d="M4.36,21.81l-.07,3.02s-.14,.84,.65,1.24,8.29,3.32,8.29,3.32c0,0,3.85,1.02,7.27-1.26,2.84-1.89,7.71-5.42,9.7-6.69,.4-.26,.68-.93,.69-1.41l-.04-3.07L4.36,21.81Z"/><path class="cls-4" d="M4.08,20.41v.58s-.18,1.06,1.81,1.81,5.69,2.16,5.69,2.16c0,0,4.34,1.96,8.57-.68s10.02-6.57,10.36-6.89,.56-.65,.58-1.19c-.15-.33-11.25,1.5-19.17,2.86-.28,.05-.73,1.19-1,1.24-.43,.07-.67-.95-1.08-.88-3.36,.58-5.76,1.01-5.76,1.01Z"/><path class="cls-4" d="M6.03,18.14l2.41-1.34s.31,.09,.63,.28c.15,1.21,.1,3.92,1.76,2.94s3.74-4.84,4.66-6.58c.26-.49,.56-.98,.56-.98l.85-.48s3.1-1.88,6.93-.46,5.13,2,5.13,2c0,0,4.02,1.85,1.12,3.87s-10.58,6.78-10.58,6.78c0,0-3.48,2.23-8.58,.25s-4.34-1.64-5.1-1.99c-.65-.23-3.68-2.06,.21-4.27Z"/><path class="cls-3" d="M15.73,13l1.63-.85s3-1.69,6.26-.41l5.11,1.98s2.39,.82,2.24,2.68c.7-1.63-2.04-2.86-2.04-2.86,0,0-1.3-.58-5.13-2s-6.93,.46-6.93,.46l-.82,.44-.32,.55Z"/><path class="cls-3" d="M8.44,16.8l-2.44,1.39c-.72,.41-1.21,.81-1.51,1.19-.14,.17-.48,.7-.38,1.25,0,0,.14-1.31,2.03-2.26l2.62-1.45-.31-.11Z"/><path class="cls-2" d="M6.73,18.4l2.34-1.33s.41,.4,.74,1.1c.25,.54,.36,1.39,.99,1.44,.72,.06,1.8-1.62,2.78-3.16s1.91-3.03,1.91-3.03l1.55-.88s2.94-1.79,6.57-.44,4.87,1.9,4.87,1.9c0,0,3.81,1.75,1.06,3.67s-10.03,6.43-10.03,6.43c0,0-3.3,2.12-8.13,.24-4.84-1.88-4.12-1.56-4.84-1.88-.62-.22-3.49-1.95,.2-4.05Z"/><path class="cls-3" d="M8.71,22.67c.2-.39,1.57-1.67,1.57-1.67,0,0,1.15-1.08,2.88-.54,1.36,.39,1.34,1.15,1.34,1.15,0,0,.1,.55-1.13,1.05-1.29,.54-2.24,.88-2.24,.88,0,0-1.21,.51-1.94,.13-.43-.17-.78-.48-.49-1Z"/><path class="cls-4" d="M6.13,23.08c.22,.11-.08,3.29-.08,3.29l-.54-.21s.29-2.98,.08-3.31l.54,.23Z"/><path class="cls-4" d="M7,23.43c.22,.11-.08,3.29-.08,3.29l-.54-.21s.29-2.98,.08-3.31l.54,.23Z"/><path class="cls-4" d="M7.87,23.77c.22,.11-.08,3.29-.08,3.29l-.54-.21s.29-2.98,.08-3.31l.54,.23Z"/><path class="cls-4" d="M10.81,24.94c.22,.11-.08,3.29-.08,3.29l-.54-.21s.29-2.98,.08-3.31l.54,.23Z"/><path class="cls-4" d="M11.68,25.29c.22,.11-.08,3.29-.08,3.29l-.54-.21s.29-2.98,.08-3.31l.54,.23Z"/><path class="cls-4" d="M12.55,25.64c.22,.11-.08,3.29-.08,3.29l-.54-.21s.29-2.98,.08-3.31l.54,.23Z"/><path class="cls-4" d="M19.9,24.82c-.22,.1-.07,3.51-.07,3.51l.55-.4s-.14-3.1,.09-3.42l-.57,.32Z"/><path class="cls-4" d="M20.8,24.18c-.22,.1-.07,3.51-.07,3.51l.55-.4s-.14-3.1,.09-3.42l-.57,.32Z"/><path class="cls-4" d="M21.69,23.54c-.22,.1-.07,3.51-.07,3.51l.55-.4s-.14-3.1,.09-3.42l-.57,.32Z"/><path class="cls-4" d="M27.37,19.72c-.22,.1-.07,3.51-.07,3.51l.55-.4s-.14-3.1,.09-3.42l-.57,.32Z"/><path class="cls-4" d="M28.26,19.08c-.22,.1-.07,3.51-.07,3.51l.55-.4s-.14-3.1,.09-3.42l-.57,.32Z"/><path class="cls-4" d="M29.16,18.44c-.22,.1-.07,3.51-.07,3.51l.55-.4s-.14-3.1,.09-3.42l-.57,.32Z"/><path class="cls-4" d="M23.81,22.16c-.22,.1-.07,3.51-.07,3.51l.55-.4s-.14-3.1,.09-3.42l-.57,.32Z"/><path class="cls-4" d="M24.7,21.52c-.22,.1-.07,3.51-.07,3.51l.55-.4s-.14-3.1,.09-3.42l-.57,.32Z"/><path class="cls-4" d="M25.59,20.89c-.22,.1-.07,3.51-.07,3.51l.55-.4s-.14-3.1,.09-3.42l-.57,.32Z"/><path class="cls-1" d="M23.45,14.26s-3.4,.14-4.98,1.86c-2.02,2.15-2.04,2.59-2.04,2.59,0,0-1.87-.26-1.98-.05,.88,.13,1.97,.7,1.97,.7,0,0,.86,.68,.96,1.12,.34-.32-.17-1.33-.17-1.33l1.31-.46c.15,0,0,.17,0,.17,.24-.05,.88-.31,1-.42s.02-.1,.03-.21c0,0,1.47-.75,1.7-1.06,.05,0,.2,.66-.16,.98s1.1-1.07,1-1.62c0,0,1.32-.97,1.37-2.11,0-.02-.78,.38-.78,.37,0-.02,.78-.46,.78-.48v-.05Z"/><path class="cls-4" d="M16.43,18.7s2.72-3.89,7.02-4.45c0,0-4.83-.22-7.02,4.45Z"/><path class="cls-4" d="M17.07,18.72s1.73-2.37,4.5-3.52c0,0-1.67,.95-4.5,3.52Z"/><ellipse class="cls-4" cx="12.21" cy="21.53" rx=".95" ry="1.64" transform="translate(-9.6 33.24) rotate(-88.69)"/><ellipse class="cls-4" cx="9.92" cy="22.95" rx=".54" ry=".93" transform="translate(-13.25 32.35) rotate(-88.69)"/></g></g></g><g id="how_to_prevent"><g id="ic_slaugh"><path class="cls-4" d="M4.26,11.52s5.64,4.03,6.24,6.83c.59,2.8,5.02-8.97,13.1-15.61,1.9-1.56-4.78,1.63-11.84,11.58,0,0-4.31-3.07-7.5-2.8Z"/></g></g></svg>