<?xml version="1.0" encoding="UTF-8"?><svg id="how_to_prevent" xmlns="http://www.w3.org/2000/svg" viewBox="0 0 32 32"><defs><style>.cls-1{fill:#77a8c7;}.cls-2{fill:#82b7d9;}</style></defs><g id="ic_slaugh"><path class="cls-2" d="M28.16,6.69l-8.78-2.54c-.44-.13-.9-.13-1.34,0l-8.78,2.53c-.55,.16-.93,.66-.93,1.24-.1,8.81-1.59,16.97,9.87,22.6,.32,.16,.71,.16,1.03,0,11.46-5.63,9.98-13.79,9.87-22.6,0-.57-.38-1.08-.93-1.24Z"/><path class="cls-1" d="M19.31,29.42c-.15,.07-.31,.11-.47,.11V5.15c.21,0,.42,.03,.62,.09l7.8,2.22c.51,.15,.86,.61,.86,1.14,.1,8.18,1.84,15.58-8.81,20.81Z"/></g></svg>