<?xml version="1.0" encoding="UTF-8"?><svg id="how_to_prevent" xmlns="http://www.w3.org/2000/svg" viewBox="0 0 32 32"><defs><style>.cls-1{fill:#5b798c;}.cls-2{fill:#77a8c7;}.cls-3{fill:#82b7d9;}</style></defs><g id="ic_bio"><path class="cls-3" d="M21.88,7.96c3.21,.19,9.23,1.14,6.41,10.98-3.69,9.98-6.18,10.48-6.62,10.86s-1.43,.64-3.8,0-4.84-.23-4.84-.23c0,0-6.41,.4-8.06-8.04-1.65-8.44-.17-12.96,4.41-13.56,2.15-.22,3.43,.69,5.03,.85s4.27-1.06,7.48-.86Z"/><path class="cls-2" d="M12.24,11.49s.67-1.63,5.1-.62c1.45,.34,3.39,.31,4.14,.77s.49,.84,.17,1.04c-.49,.3-2.2,.22-3.37-.19-.58-.2-2.71-1.16-3.5-1.31-1.85-.36-2.32,.18-2.53,.32Z"/><path class="cls-1" d="M12.15,11.45s1.7-1.15,4.17,.17,4.87,1.23,4.87,1.23c0,0-2.52,.67-4.6-.54s-4.44-.85-4.44-.85Z"/><path class="cls-1" d="M15.89,11.41s.55-6.25,1.8-7.87c0,0,1.25,.59,1.91,.55,0,0-2.56,2.38-3.44,7.45l-.27-.13Z"/><path class="cls-2" d="M14.85,28.66c1.18-.08,2.7-.1,4.13,.45s2.32,.09,2.78-.25,4.61-4.16,6.41-12.82c.18-.74-2.7-.44-3.69,3.57-.99,4.01-2.24,4.89-3.6,6.27s-3.73,1.49-4.76,1.51-2.44,1.35-1.26,1.27Z"/><path class="cls-2" d="M15.74,11.14s.86-5.46-3-6.34S7.51,1.8,7.51,1.8c0,0,.11,5.76,2.92,6.86s3.77,.99,5.31,2.48Z"/><path class="cls-1" d="M11.78,7.12c2.84,1.05,3.56,1.4,3.96,4.03,0,0-.3-1.18-4.08-2.28-3.56-1.05-3.74-5.53-3.74-5.53,0,0,1.02,2.73,3.85,3.78Z"/></g></svg>