<?xml version="1.0" encoding="UTF-8"?><svg id="how_to_prevent" xmlns="http://www.w3.org/2000/svg" viewBox="0 0 32 32"><defs><style>.cls-1{fill:#6a96b3;}.cls-2{fill:#5b798c;}.cls-3{fill:#77a8c7;}.cls-4{fill:#82b7d9;}</style></defs><g id="ic_clothes"><g><path class="cls-4" d="M10.95,4.03s1.34,1.44,.82,3.68l2.63-.35-1.72,10.07s6.39,3.1,11.09,2.23l2-10.03,2.66,1.41s.39-2.55,2.19-3.21l-3.21-3.25s-.31-.55-1.33-.82-2.16-.74-2.16-.74c0,0-1.92,1.98-3.29,2.14,0,0-1.92-1.27-1.76-3.08l-1.94-.18s-1-.12-1.51,.12-4.47,2.02-4.47,2.02Z"/><path class="cls-3" d="M11.4,4.12s1.11,1.39,.65,3.32l.4-.05s.49-1.79-.74-3.39l-.31,.13Z"/><path class="cls-3" d="M28.17,10.52s.28-1.78,2.03-2.84l-.31-.24s-1.67,.94-2.02,2.96l.31,.12Z"/></g><path class="cls-2" d="M13.71,11.42s.36,.36,.81,1.16c.39,.68,2.17,4.15,2.22,4.23,.09,.18,1.39,2.35,1.24,2.48s-4.28-7.87-4.28-7.87Z"/><path class="cls-4" d="M12.01,9.19c.11,.33,1.91,2.08,2.97,4.45s5.58,9.95,5.69,11.11,.28,.81-.19,1.48-2.29,3.89-2.77,3.9-.85-.08-1.3-.37-5.76-2.58-7.11-2.91c0,0-.19-.17,0-.35s.37-1.25,.37-1.25c0,0-1.7-.67-1.73-.73s-.31-.1,0-.39,1.16-3.8,1.16-4.03,.02-.39,.27-.31,.78,.3,.78,.3c0,0-1.86-4.46-2.17-5.81s-.62-2.29-.62-2.29c0,0-.19-.19,.52-.54s3.89-2.26,4.13-2.26Z"/><path class="cls-3" d="M17.7,30.13c-.49,0-.85-.08-1.3-.37s-5.76-2.58-7.11-2.91c0,0-.19-.17,0-.35s.37-1.25,.37-1.25c0,0-1.7-.67-1.73-.73s-.31-.1,0-.39,1.16-3.8,1.16-4.03,.02-.39,.27-.31,.78,.3,.78,.3c0,0,8.03,10.04,7.55,10.04Z"/><path class="cls-2" d="M17.7,30.13c-.49,0-.85-.08-1.3-.37s-5.76-2.58-7.11-2.91c0,0-.19-.17,0-.35s.37-1.25,.37-1.25c0,0,8.52,4.87,8.03,4.88Z"/><path class="cls-2" d="M17.7,30.13c.15-.1-8.08-10.21-7.79-10.12,.13,.04,.24,.08,.24,.08,0,0,7.89,9.7,7.55,10.04Z"/><g><path class="cls-2" d="M30.27,27.85s.08,.52,0,.78-1.16,.69-2.36,.69-2.71-.27-4.58-1.56c-.33-.27-.51-.12-.51-.12,0,0-.05,.25-.57,.22s-1.26-.29-1.32-.35-.02-1.15-.02-1.15l9.36,1.5Z"/><path class="cls-3" d="M26.12,15.4s-.31,6.76-.36,7.43-.14,1.88,.94,2.55,1.97,.83,2.49,1,1.07,.53,1.07,1.48c-.76,.56-2.04,.6-2.04,.6,0,0-2.16,.17-3.57-.75s-1.14-.89-2.05-.91-1.63-.28-1.69-.44,.14-2.77-.39-5.21-.25-5.74-.25-5.74c0,0,2.83,.5,5.85,0Z"/><path class="cls-2" d="M20.27,15.4s2.54-.64,5.85,0c0,0-2.45,.6-5.85,0Z"/><path class="cls-2" d="M28.06,29.49s.08,.61,0,.78-1.16,.69-2.36,.69-2.71-.27-4.58-1.56c-.33-.27-.51-.12-.51-.12,0,0-.05,.25-.57,.22s-1.26-.29-1.32-.35-.02-1.15-.02-1.15l9.36,1.5Z"/><path class="cls-2" d="M23.91,17.04s.13,1.31-.25,7.71c0,0-.17,1.72,1.15,2.34,.72,.46,1.19,.54,1.92,.75s.97,.64,.97,.64l-.38,.05-3.6-.9-.54-1.93,.72-8.65Z"/><path class="cls-3" d="M23.91,17.04s-.31,6.76-.36,7.43-.14,1.88,.94,2.55,1.97,.83,2.49,1,1.07,.62,1.07,1.48c-.76,.56-2.04,.6-2.04,.6,0,0-2.16,.17-3.57-.75s-1.14-.89-2.05-.91-1.63-.28-1.69-.44,.14-2.77-.39-5.21-.25-5.74-.25-5.74c0,0,2.83,.5,5.85,0Z"/><path class="cls-2" d="M18.07,17.04s2.54-.64,5.85,0c0,0-2.45,.6-5.85,0Z"/></g><path class="cls-3" d="M12.4,9.72c-.22-.27-.36-.45-.39-.54-.24,0-3.42,1.91-4.13,2.26s-.52,.54-.52,.54c0,0,.09,.29,.17,.53,0,0,4.58-2.7,4.87-2.79Z"/><path class="cls-3" d="M13.31,10.87s-1.04,.25-2.47,.4,1.13,.21,2.47-.2v-.2Z"/><path class="cls-1" d="M8.36,24.72c-.24-.1-.42-.18-.42-.2-.02-.06-.31-.1,0-.39s1.16-3.8,1.16-4.03,.02-.39,.27-.31c.14,.05,.2,.07,.37,.14,.14,.06-.87,5.02-1.38,4.8Z"/></g></svg>