<?xml version="1.0" encoding="UTF-8"?><svg id="how_to_prevent" xmlns="http://www.w3.org/2000/svg" viewBox="0 0 32 32"><defs><style>.cls-1{fill:#77a8c7;}.cls-2{fill:#82b7d9;}.cls-3,.cls-4{fill:none;stroke:#77a8c7;stroke-linecap:round;stroke-miterlimit:10;stroke-width:.5px;}.cls-4{stroke-dasharray:0 0 1.01 1.52;}</style></defs><g id="ic_flock"><ellipse class="cls-2" cx="10.19" cy="9.14" rx=".44" ry="1.05" transform="translate(-.35 .41) rotate(-2.25)"/><path class="cls-2" d="M10.37,8.94s-.56-.64-1.19-.6,.9,.63,1.19,.6Z"/><path class="cls-2" d="M10.31,8.9s-.67,.35-1.29-.06,1-.14,1.29,.06Z"/><path class="cls-2" d="M9.99,8.96s.55-.53,1.18-.35-.88,.44-1.18,.35Z"/><path class="cls-2" d="M10.06,8.94s.68,.49,1.3,.22-1.01-.35-1.3-.22Z"/><g><path class="cls-3" d="M10.2,10.68s0,.18,.03,.5"/><path class="cls-4" d="M10.42,12.68c.3,1.68,1.01,4.25,2.67,6.96,1.74,3.09,1.41,6.54-1.02,7.7-3.58,1.76-5.82-2.56-3.46-5.2,2.36-2.63,6.91,.59,4.94,4.83-1.97,4.25-6.19,2.3-8.49,.36-1.83-1.55-2.62-.06-3.03,1.59"/><path class="cls-3" d="M1.88,29.69c-.03,.17-.06,.33-.09,.49"/></g><path class="cls-1" d="M16.3,2.49l14.09,6.93V28.75l-14.09-6.91V2.49m-.5-.8V22.15l15.09,7.4V9.11L15.8,1.68h0Z"/><polygon class="cls-1" points="17.14 2.92 16.99 2.92 16.99 22.66 17.14 22.66 17.14 2.92 17.14 2.92"/><polygon class="cls-1" points="18.05 3.31 17.9 3.31 17.9 23.05 18.05 23.05 18.05 3.31 18.05 3.31"/><polygon class="cls-1" points="18.89 3.74 18.74 3.74 18.74 23.48 18.89 23.48 18.89 3.74 18.89 3.74"/><polygon class="cls-1" points="19.66 4.07 19.51 4.07 19.51 23.81 19.66 23.81 19.66 4.07 19.66 4.07"/><polygon class="cls-1" points="20.57 4.46 20.42 4.46 20.42 24.2 20.57 24.2 20.57 4.46 20.57 4.46"/><polygon class="cls-1" points="21.41 4.89 21.26 4.89 21.26 24.63 21.41 24.63 21.41 4.89 21.41 4.89"/><polygon class="cls-1" points="16.07 20.65 16 20.79 30.52 27.98 30.59 27.85 16.07 20.65 16.07 20.65"/><polygon class="cls-1" points="16.12 19.82 16.05 19.95 30.57 27.15 30.64 27.01 16.12 19.82 16.12 19.82"/><polygon class="cls-1" points="16.09 18.92 16.03 19.05 30.55 26.25 30.61 26.11 16.09 18.92 16.09 18.92"/><polygon class="cls-1" points="16.15 18.08 16.08 18.22 30.6 25.41 30.66 25.28 16.15 18.08 16.15 18.08"/><polygon class="cls-1" points="16.11 17.21 16.04 17.34 30.56 24.53 30.62 24.4 16.11 17.21 16.11 17.21"/><polygon class="cls-1" points="16.16 16.37 16.09 16.5 30.61 23.7 30.68 23.57 16.16 16.37 16.16 16.37"/><polygon class="cls-1" points="16.13 15.47 16.07 15.61 30.59 22.8 30.65 22.67 16.13 15.47 16.13 15.47"/><polygon class="cls-1" points="16.18 14.64 16.12 14.77 30.64 21.97 30.7 21.83 16.18 14.64 16.18 14.64"/><polygon class="cls-1" points="16.09 13.68 16.02 13.81 30.54 21 30.6 20.87 16.09 13.68 16.09 13.68"/><polygon class="cls-1" points="16.14 12.84 16.07 12.98 30.59 20.17 30.66 20.04 16.14 12.84 16.14 12.84"/><polygon class="cls-1" points="16.11 11.94 16.05 12.08 30.57 19.27 30.63 19.14 16.11 11.94 16.11 11.94"/><polygon class="cls-1" points="16.17 11.11 16.1 11.24 30.62 18.44 30.68 18.3 16.17 11.11 16.17 11.11"/><polygon class="cls-1" points="16.13 10.23 16.06 10.36 30.58 17.56 30.64 17.43 16.13 10.23 16.13 10.23"/><polygon class="cls-1" points="16.18 9.4 16.11 9.53 30.63 16.72 30.7 16.59 16.18 9.4 16.18 9.4"/><polygon class="cls-1" points="16.15 8.5 16.09 8.63 30.6 15.83 30.67 15.69 16.15 8.5 16.15 8.5"/><polygon class="cls-1" points="16.2 7.66 16.14 7.8 30.66 14.99 30.72 14.86 16.2 7.66 16.2 7.66"/><polygon class="cls-1" points="16.01 6.61 15.94 6.74 30.46 13.94 30.53 13.8 16.01 6.61 16.01 6.61"/><polygon class="cls-1" points="16.06 5.77 15.99 5.91 30.51 13.1 30.58 12.97 16.06 5.77 16.06 5.77"/><polygon class="cls-1" points="16.03 4.88 15.97 5.01 30.49 12.2 30.55 12.07 16.03 4.88 16.03 4.88"/><polygon class="cls-1" points="16.09 4.04 16.02 4.18 30.54 11.37 30.6 11.24 16.09 4.04 16.09 4.04"/><polygon class="cls-1" points="16.05 3.16 15.98 3.3 30.5 10.49 30.57 10.36 16.05 3.16 16.05 3.16"/><polygon class="cls-1" points="16.1 2.33 16.03 2.46 30.55 9.66 30.62 9.52 16.1 2.33 16.1 2.33"/><polygon class="cls-1" points="22.2 5.14 22.05 5.14 22.05 24.88 22.2 24.88 22.2 5.14 22.2 5.14"/><polygon class="cls-1" points="23.1 5.54 22.96 5.54 22.96 25.28 23.1 25.28 23.1 5.54 23.1 5.54"/><polygon class="cls-1" points="23.95 5.97 23.8 5.97 23.8 25.71 23.95 25.71 23.95 5.97 23.95 5.97"/><polygon class="cls-1" points="24.72 6.29 24.57 6.29 24.57 26.03 24.72 26.03 24.72 6.29 24.72 6.29"/><polygon class="cls-1" points="25.63 6.69 25.48 6.69 25.48 26.43 25.63 26.43 25.63 6.69 25.63 6.69"/><polygon class="cls-1" points="26.47 7.12 26.32 7.12 26.32 26.86 26.47 26.86 26.47 7.12 26.47 7.12"/><polygon class="cls-1" points="27.25 7.66 27.11 7.66 27.11 27.4 27.25 27.4 27.25 7.66 27.25 7.66"/><polygon class="cls-1" points="28.16 8.06 28.01 8.06 28.01 27.8 28.16 27.8 28.16 8.06 28.16 8.06"/><polygon class="cls-1" points="29 8.49 28.86 8.49 28.86 28.23 29 28.23 29 8.49 29 8.49"/><polygon class="cls-1" points="29.78 8.81 29.63 8.81 29.63 28.55 29.78 28.55 29.78 8.81 29.78 8.81"/></g></svg>