<?xml version="1.0" encoding="UTF-8"?><svg id="how_to_prevent" xmlns="http://www.w3.org/2000/svg" xmlns:xlink="http://www.w3.org/1999/xlink" viewBox="0 0 32 32"><defs><style>.cls-1{fill:#5b798c;}.cls-2{fill:#77a8c7;}.cls-3{fill:#82b7d9;}.cls-4{filter:url(#drop-shadow-36);}</style><filter id="drop-shadow-36" filterUnits="userSpaceOnUse"><feOffset dx="1" dy="1"/><feGaussianBlur result="blur" stdDeviation="5"/><feFlood flood-color="#000" flood-opacity=".25"/><feComposite in2="blur" operator="in"/><feComposite in="SourceGraphic"/></filter></defs><g id="ic_slaugh"><g class="cls-4"><path class="cls-3" d="M10.23,17.44s1.38-1.31,1.39-1.32c.08-.11-.03,3.91,3.91,5.34,.47,.12,1.16,.29,1.75,.15s2.14,.05,3.97,.3c1.79,.25,3.74-3.99,3.74-3.99,2.33,.58,4.16,1.03,4.25,1.05h0c.07,.01,1.45,.29,1.46,1.29,0,.66,0,1.18,0,1.46,0,.15-.07,.3-.18,.41l-5.5,4.99s-.9,.82-3.52,.22-13.72-3.41-14.13-3.51h-.02c-.12-.01-1.19-.13-1.19-.98v-.78h0c0-.08-.05-.66,.37-1.09l.37-.37c.07-.07,.05-.2-.05-.24-.34-.13-1.13-.34-2.42-.29-1.8,.07-3.15-.82-3.14-1.12s0-1.72,0-1.72c0,0-.22-1.57,2.54-1.5,2.54,.07,3.38,.95,3.5,1.1,.01,.01,.03,.03,.04,.04,.21,.11,1.61,.77,2.77,.59,.03,0,.06-.02,.08-.04Z"/><path class="cls-2" d="M7.06,20.47s-.82-.45-2.62-.37-3.14-.6-3.14-.9v-1.95s.15,.97,3.22,1.05,3.44,.52,3.97,.75l-1.42,1.42Z"/><ellipse class="cls-2" cx="3.99" cy="16.91" rx=".34" ry=".75" transform="translate(-13.12 19.94) rotate(-86.76)"/><path class="cls-2" d="M6.54,20.99s-.75,.9,.52,1.2,15.03,3.47,15.03,3.47c0,0,1.66,.44,2.63-.38,.85-.72,4.73-4.14,5.73-4.99,.18-.2,.11-.5,.11-.5,.05,.02,.15,.22,.15,.6v1.27c0,.3-.12,.42-.15,.45l-5.53,5.01s-.01,.01-.02,.02c-.12,.08-1.22,.71-2.95,.33-1.81-.41-14.75-3.62-15.06-3.7h-.01c-.07-.01-.82-.15-.82-.98v-.95c.01-.08,.1-.64,.37-.85Z"/></g></g><g id="ic_bio"><path class="cls-3" d="M22.09,8.25c1.91,.11,5.49,.68,3.81,6.53-2.2,5.93-3.67,6.23-3.93,6.45s-.85,.38-2.26,0-2.88-.14-2.88-.14c0,0-3.81,.24-4.79-4.78-.98-5.01-.1-7.7,2.62-8.06,1.28-.13,2.04,.41,2.99,.51s2.54-.63,4.44-.51Z"/><path class="cls-2" d="M16.36,10.35s.4-.97,3.03-.37c.86,.2,2.02,.19,2.46,.46s.29,.5,.1,.62c-.29,.18-1.31,.13-2-.11-.35-.12-1.61-.69-2.08-.78-1.1-.21-1.38,.11-1.51,.19Z"/><path class="cls-1" d="M16.31,10.32s1.01-.68,2.48,.1,2.89,.73,2.89,.73c0,0-1.5,.4-2.73-.32s-2.64-.51-2.64-.51Z"/><path class="cls-1" d="M18.53,10.3s.33-3.72,1.07-4.68c0,0,.74,.35,1.14,.33,0,0-1.52,1.41-2.04,4.43l-.16-.08Z"/><path class="cls-2" d="M17.91,20.55c.7-.05,1.6-.06,2.45,.27s1.38,.05,1.65-.15,2.74-2.47,3.81-7.62c.11-.44-1.61-.26-2.2,2.12s-1.33,2.91-2.14,3.72-2.22,.89-2.83,.9-1.45,.8-.75,.75Z"/><path class="cls-2" d="M18.44,10.14s.51-3.24-1.78-3.77-3.11-1.78-3.11-1.78c0,0,.07,3.42,1.74,4.08s2.24,.59,3.16,1.47Z"/><path class="cls-1" d="M16.09,7.75c1.68,.62,2.11,.83,2.35,2.39,0,0-.18-.7-2.42-1.35-2.12-.62-2.22-3.28-2.22-3.28,0,0,.6,1.62,2.29,2.25Z"/></g></svg>