<?xml version="1.0" encoding="UTF-8"?><svg id="how_to_prevent" xmlns="http://www.w3.org/2000/svg" viewBox="0 0 32 32"><defs><style>.cls-1{fill:#5b798c;}.cls-2{fill:#77a8c7;}.cls-3{fill:#82b7d9;}</style></defs><g id="ic_flock"><g><path id="Tracciato_12-2" class="cls-3" d="M20.05,5.83s-1.7,1.49-1.54,3.51,1.63,4.4,5.53,4.25,7.45-3.57,5.12-5.54c0,0,1.2-1.13,1.57-2.49s.21-2.02-.33-1.82c0,0,.42-1.45,.44-1.93s-.14-1.7-.71-.89-3.84,5.03-5.49,5.07c0,0-.77-2.11-2.16-2.41,0,0-.18-.4-.58-.5,0,0,.14-.33,.04-.39s-.58,.31-.7,.34c0,0-.13,.03-.14-.08s-.02-.76-.46-.18c-.15,.2-.21,.37-.35,.37s-.42-.7-.48,.09c0,0-.05,.57-.2,.39s-.54-.19,.21,.87c0,0-.6,.25-.72,.89,0,0,.76-.18,.99-.07-.14,.22-.04,.53-.04,.53Z"/><path id="Tracciato_18" class="cls-2" d="M25.8,9.31c1.79-.52,3.3-1.72,4.22-3.34,.79-1.42,.28-1.64-.2-1.48,0,0,.23-.78,.42-1.56s.04-1.69-.57-.86-3,3.98-5.02,4.31c0,0-.81,3.5,1.15,2.93Z"/><path id="Tracciato_14" class="cls-1" d="M21.74,3.14s.17-.24,.09-.29-.41,.24-.54,.29-.26,.06-.27-.06-.09-.49-.44-.04c-.12,.16-.22,.3-.33,.3s-.33-.57-.32,.05-.23,.43-.29,.39-.21,.03,.29,.65c0,0,.21-.17,.32,.11-.04-.57,.58-1.19,1.11-.93,.82,.4,1.39-.12,.38-.47Z"/><path id="Tracciato_13" class="cls-2" d="M19.19,5.28s.59-.24,1.14-.02c.13,.05,.34-.14-.03-.36-.08-.06-.13-.14-.15-.24,0,0-.06-.27-.44-.02-.23,.16-.41,.38-.51,.64Z"/><path id="Tracciato_15" class="cls-1" d="M20.17,5.88c.1,.28,.25,.39,.68,.43s.43-.23,.37-.49-.33-.55-.61-.47-.42,0-.42,0c-.06,.17-.07,.36-.02,.53Z"/><circle id="Ellisse_1" class="cls-2" cx="21.31" cy="4.44" r=".27"/><path id="Tracciato_16" class="cls-1" d="M21.29,4.28c.09,0,.17,.07,.17,.17s-.07,.17-.17,.17c-.09,0-.17-.07-.17-.17,0-.09,.07-.17,.17-.17h0Z"/></g><g><path id="Tracciato_12-2-2" class="cls-3" d="M15.38,9.65s-1.93,1.7-1.76,3.99,1.86,5,6.3,4.84,8.48-4.06,5.82-6.31c0,0,1.37-1.29,1.79-2.83s.24-2.3-.37-2.07c0,0,.48-1.65,.5-2.2s-.16-1.93-.81-1.02-4.37,5.73-6.25,5.77c0,0-.87-2.41-2.46-2.74,0,0-.2-.45-.66-.57,0,0,.16-.38,.05-.44s-.66,.35-.8,.39c0,0-.15,.04-.16-.09s-.02-.87-.52-.21c-.17,.23-.24,.42-.4,.42s-.48-.8-.55,.1c0,0-.05,.65-.23,.45s-.62-.22,.24,.99c0,0-.68,.29-.82,1.01,0,0,.86-.21,1.13-.08-.16,.25-.05,.6-.05,.6Z"/><path id="Tracciato_18-2" class="cls-2" d="M21.93,13.61c2.04-.59,3.76-1.96,4.81-3.8,.9-1.61,.31-1.87-.23-1.69,0,0,.27-.89,.48-1.78s.04-1.93-.65-.98-3.42,4.53-5.71,4.91c0,0-.93,3.98,1.31,3.34Z"/><path id="Tracciato_14-2" class="cls-1" d="M17.3,6.58s.19-.27,.1-.33-.47,.28-.62,.33-.29,.07-.3-.06-.11-.56-.5-.04c-.13,.18-.25,.35-.38,.35s-.38-.65-.36,.05-.26,.49-.34,.44-.24,.04,.34,.73c0,0,.24-.19,.36,.13-.05-.65,.66-1.36,1.26-1.06,.93,.46,1.58-.13,.43-.54Z"/><path id="Tracciato_13-2" class="cls-2" d="M14.41,9.02s.68-.27,1.29-.03c.15,.06,.39-.16-.03-.41-.09-.07-.15-.16-.17-.27,0,0-.07-.3-.51-.02-.27,.18-.47,.43-.58,.73Z"/><path id="Tracciato_15-2" class="cls-1" d="M15.52,9.7c.12,.32,.29,.44,.78,.49s.49-.26,.42-.56-.37-.63-.7-.53-.47,0-.47,0c-.07,.19-.08,.41-.02,.6Z"/><circle id="Ellisse_1-2" class="cls-2" cx="16.81" cy="8.07" r=".31"/><path id="Tracciato_16-2" class="cls-1" d="M16.8,7.89c.11,0,.19,.09,.19,.19s-.09,.19-.19,.19c-.11,0-.19-.09-.19-.19,0-.11,.09-.19,.19-.19h0Z"/></g><path id="Tracciato_12-2-3" class="cls-1" d="M21.21,9.68c-1.63,1.96-4,4.46-5.42,4.49,0,0-.53-1.76-1.76-2.64-.02-.01,.7,.08,1.88,2.44,.38-.06,.88-.34,1.43-.74,.2-.12,1.25-1.71,1.65-2.06,.37-.36,.58-.09,.68,.04,1.12-1.09,1.92-1.98,1.54-1.53Z"/><path id="Tracciato_12-2-4" class="cls-1" d="M24.57,6.84c-1.29,1.32-3.58,2.97-3.97,2.97,0,0-.47-1.53-1.71-2.41-.02-.01,.75,.18,1.78,2.32,.38-.06,.89-.51,1.22-.88s1.12-1.54,1.48-1.8c.23-.14,.46-.08,.61,.25,.01,.03,.57-.5,.58-.47Z"/><g><path id="Tracciato_12-2-5" class="cls-3" d="M9.66,14.02s-2.27,1.99-2.07,4.7,2.19,5.89,7.41,5.69,9.98-4.78,6.85-7.42c0,0,1.61-1.52,2.11-3.33s.29-2.71-.44-2.43c0,0,.56-1.95,.59-2.59s-.18-2.27-.96-1.2-5.14,6.74-7.35,6.79c0,0-1.03-2.83-2.89-3.23,0,0-.24-.53-.78-.68,0,0,.19-.44,.06-.52s-.78,.42-.94,.46c0,0-.17,.05-.19-.1s-.03-1.02-.62-.24c-.2,.27-.28,.49-.47,.49s-.56-.94-.64,.11c0,0-.06,.76-.27,.53s-.72-.25,.29,1.16c0,0-.8,.34-.97,1.19,0,0,1.01-.25,1.33-.09-.19,.29-.06,.71-.06,.71Z"/><path id="Tracciato_18-3" class="cls-2" d="M17.37,18.68c2.4-.7,4.42-2.3,5.66-4.47,1.06-1.9,.37-2.2-.27-1.98,0,0,.31-1.05,.56-2.09s.05-2.27-.77-1.15-4.02,5.34-6.72,5.77c0,0-1.09,4.69,1.54,3.93Z"/><path id="Tracciato_14-3" class="cls-1" d="M11.92,10.41s.22-.32,.12-.39-.55,.33-.73,.39-.35,.08-.36-.07-.12-.65-.58-.05c-.15,.21-.3,.41-.45,.41s-.44-.76-.42,.06-.31,.57-.39,.52-.29,.04,.39,.86c0,0,.28-.23,.42,.15-.06-.76,.77-1.6,1.48-1.25,1.09,.54,1.86-.16,.51-.63Z"/><path id="Tracciato_13-3" class="cls-2" d="M8.52,13.28s.79-.32,1.52-.03c.17,.07,.46-.18-.04-.48-.1-.08-.18-.19-.2-.32,0,0-.08-.36-.6-.03-.31,.21-.55,.51-.69,.86Z"/><path id="Tracciato_15-3" class="cls-1" d="M9.82,14.08c.14,.37,.34,.52,.91,.57s.58-.31,.49-.66-.44-.74-.82-.62-.56,0-.56,0c-.09,.23-.1,.48-.03,.71Z"/><circle id="Ellisse_1-3" class="cls-2" cx="11.35" cy="12.16" r=".37"/><path id="Tracciato_16-3" class="cls-1" d="M11.33,11.94c.12,0,.22,.1,.22,.22s-.1,.22-.22,.22c-.12,0-.22-.1-.22-.22,0-.12,.1-.22,.22-.22h0Z"/></g><g><path id="Tracciato_12-2-6" class="cls-3" d="M3.44,19.01s-2.58,2.27-2.35,5.34,2.49,6.7,8.43,6.47,11.35-5.43,7.79-8.44c0,0,1.83-1.73,2.4-3.79s.32-3.08-.5-2.77c0,0,.64-2.21,.67-2.94s-.21-2.58-1.09-1.36-5.85,7.67-8.36,7.72c0,0-1.17-3.22-3.29-3.67,0,0-.27-.6-.89-.77,0,0,.22-.51,.07-.59s-.88,.47-1.07,.53c0,0-.2,.05-.21-.12s-.03-1.16-.7-.28c-.22,.31-.32,.56-.54,.56s-.64-1.07-.73,.13c0,0-.07,.87-.31,.6s-.82-.29,.33,1.32c0,0-.91,.39-1.1,1.36,0,0,1.15-.28,1.51-.1-.21,.33-.07,.81-.07,.81Z"/><path id="Tracciato_18-4" class="cls-2" d="M12.2,24.31c2.72-.79,5.03-2.62,6.43-5.09,1.2-2.16,.42-2.5-.3-2.26,0,0,.36-1.19,.64-2.38s.05-2.58-.87-1.31-4.57,6.07-7.65,6.57c0,0-1.24,5.33,1.75,4.47Z"/><path id="Tracciato_14-4" class="cls-1" d="M6.01,14.91s.26-.37,.13-.44-.62,.37-.82,.44-.39,.1-.41-.08-.14-.74-.66-.05c-.18,.24-.34,.46-.51,.46s-.51-.86-.48,.07-.35,.65-.45,.59-.32,.05,.45,.98c0,0,.32-.26,.48,.17-.07-.86,.88-1.82,1.69-1.42,1.24,.61,2.11-.18,.58-.72Z"/><path id="Tracciato_13-4" class="cls-2" d="M2.14,18.17s.9-.36,1.73-.04c.2,.08,.52-.21-.04-.55-.12-.09-.2-.22-.23-.36,0,0-.09-.41-.68-.03-.36,.24-.63,.58-.78,.98Z"/><path id="Tracciato_15-4" class="cls-1" d="M3.62,19.08c.16,.42,.38,.59,1.04,.65s.66-.35,.56-.75-.5-.84-.93-.71-.63,0-.63,0c-.1,.26-.11,.54-.03,.81Z"/><circle id="Ellisse_1-4" class="cls-2" cx="5.35" cy="16.9" r=".42"/><path id="Tracciato_16-4" class="cls-1" d="M5.33,16.65c.14,0,.26,.11,.26,.26s-.11,.26-.26,.26c-.14,0-.26-.11-.26-.25,0-.14,.11-.26,.25-.26h0Z"/><path id="Tracciato_12-2-7" class="cls-1" d="M18.75,11.52c.88-1.22,1.12,.63,1.09,1.36s-.67,2.94-.67,2.94c.82-.31,1.07,.7,.5,2.77s-2.4,3.79-2.4,3.79c.45,.38,.75,.79,.93,1.22-.14-.45-.39-.87-.73-1.22,.92-1.06,1.85-2.28,2.37-3.9s.47-3.16-.53-2.82c0,0,.34-.63,.61-2.75,.1-1-.18-1.57-.38-1.74-.36-.31-.79,.34-.79,.34Z"/></g><path id="Tracciato_12-2-8" class="cls-1" d="M16.83,14c-1.92,2.28-4.72,5.2-6.4,5.24,0,0-.79-2.18-2.25-3.2-.02-.01,1.05,.17,2.39,2.97,2.05-.31,7.2-6.12,6.26-5Z"/><path id="Tracciato_12-2-9" class="cls-1" d="M23.04,7.5c.85-1.06,1.11,.38,1.05,1.18-.03,.63-.65,2.55-.65,2.55,.8-.27,1.03,.61,.48,2.4s-2.31,3.29-2.31,3.29c.43,.33,.83,.62,1,.99-.14-.39-.48-.69-.81-1,.88-.92,1.79-1.98,2.29-3.38s.46-2.75-.52-2.45c0,0,.33-.55,.59-2.38,.1-.87-.16-1.45-.35-1.6-.35-.27-.77,.38-.77,.38Z"/><path id="Tracciato_12-2-10" class="cls-1" d="M27.52,4.01c.16,.28,.15,.95,.14,1.14-.02,.55-.52,2.21-.52,2.21,.69-.23,.89,.53,.42,2.07s-1.99,2.83-1.99,2.83c.37,.28,.71,.53,.86,.85-.12-.33-.41-.59-.7-.86,.76-.79,1.54-1.7,1.97-2.91s.39-2.37-.44-2.11c0,0,.25-.49,.47-2.07,.07-.58-.02-.99-.15-1.21l-.06,.06Z"/></g></svg>