<?xml version="1.0" encoding="UTF-8"?><svg id="how_to_prevent" xmlns="http://www.w3.org/2000/svg" viewBox="0 0 32 32"><defs><style>.cls-1{fill:#7fb3d4;}.cls-2{fill:#b6d9f0;}.cls-3{fill:#6c99b5;}.cls-4{fill:#618aa3;}.cls-5{fill:#77a8c7;}.cls-6{fill:#82b7d9;}</style></defs><g id="ic_slaugh"><g><path id="Tracciato_217" class="cls-4" d="M9.34,1.78s0-.91,1.65,.03,2.04,1.04,2.92,.91,3.82,1.38,2.27,2.21-2.86,2.31-2.86,2.31L8.92,2.38l.42-.59Z"/><path id="Tracciato_216" class="cls-3" d="M4.14,2.34s.09-2.16,2.87-1.19,2.99,1.49,2.99,1.49l1.01,1.16-3.81,.92-2.37,1.02-.67-3.4Z"/><path id="Tracciato_215" class="cls-5" d="M5.28,4.07s.17-1.97,2.56-.9,4.44,.41,4.44,.41c0,0,2.56-.67,1.54,2.47-1.02,3.15-6.26,3.54-6.26,3.54l-2.29-5.51Z"/><path id="Tracciato_214" class="cls-1" d="M5.46,15.16s-1.88,.02-3.37-3.15c-1.49-3.17-.66-5.71,.13-7.27s.4-2.19,.4-2.19c0,0-.34-1.2,.81-.81s1.62,2.06,1.62,2.06c.29,.39,.68,.7,1.12,.89,.7,.28,1.76,3.1,1.53,4.6s-1.26,2.66,.16,5.58c0,0-1.5-.28-2.4,.28Z"/><path id="Tracciato_219" class="cls-2" d="M6.3,15.61c-.5-.33-2.52-1.52-2.95-2.67-.43-1.16,.11-.43,.11-.43,0,0,1.02,1.64,2.3,1.99s-2.77-1.53-3.21-4.93c-.43-3.39,.16-1.8,.16-1.8,0,0,.6,4.19,2.63,5.06,0,0-2.2-3.71-2.12-6.38,.01-.42,.03-.78,.05-1.11,.12-1.59,.37-1.64,.61-1.38,.28,.32,.09,1.88,.44,3.75,.24,1.23,.6,2.44,1.05,3.61,.07-1.94,1.22-5.11,1.57-4.19,.15,.37-1.27,5.25-.73,6.04,1.44,1.37,.58,2.77,.08,2.44Z"/><path id="Tracciato_213" class="cls-6" d="M7.27,17.78s-.94-.19-1.17-.27-.58-.3-.51-.77,.13-.96-.17-1.28,.23-.97,2.36-.66c0,0-1.27-1.69-.56-4.36,.71-2.68,1.72-2.48,1.72-2.48,0,0,.53,.09,1.22-.71s1.66-1,2.52-.91c.59,.07,1.17-.18,1.53-.66,.14-.21,.21-1.35,1.02-1.2s1.12,.87,1.56,1.15,.53-.4,1.1,.38-.04,.77,.16,1.48,.64,8.8-7.38,9.18c-.75,.05-1.15,.06-1.58,.74s-1.82,.37-1.82,.37Z"/><path id="Tracciato_218" class="cls-2" d="M5.97,15.51s.26,.72,.15,1.26,1.59,.63,1.59,.63c0,0,.6,.07,.83-.07s.25-.94,.98-1.06,3.68-.47,4.6-1.41c.93-.93,0-.45,0-.45,0,0-1.83,1.16-3.56,1.01s4-.39,5.69-3.44,.41-1.76,.41-1.76c0,0-2.16,3.73-5.01,3.78,0,0,4.01-2.67,4.82-5.23,.13-.4,.23-.75,.31-1.07,.39-1.55,.08-1.69-.3-1.53-.45,.19-.75,1.74-1.82,3.38-1.07,1.64-2.53,3.01-2.53,3.01,.57-1.86,.18-5.29-.57-4.55-.32,.29-.16,5.44-1.11,5.98-.75,.43-1.35,.1-1.14-2.41,.41-4.08-.29-2.83-.38-2.71-1.78,2.82-.7,5.01-.28,6.03-.3,.2-.32,.26-.47,.28-.47,.14-1.29-.07-1.76-.07-.23,0-.43,.39-.43,.39Z"/></g><g><g><path id="Tracciato_2-2" class="cls-6" d="M26.2,17.25c-.83-.42-1.34,.61-2.76,2.06-.94,.57-2.18,.8-3.24,1.96-1.3,1.43-2.35,3.43-2.19,5.94,.9,6.42,6.46,2.36,6.46,2.36,0,0,4.14-2.97,4.25-8.1-.09-3.23-.04-2.93-1-3.45l-1.53-.77Z"/><path id="Tracciato_3-2" class="cls-6" d="M26.42,17.11l1.53,.77,.51-.95s.54-.89,1.22-.88,1.72-.94,1.45-1.69-.79-1.26-2-.41c0,0-.23-2.1-1.82-1.31-.62,.33-.89,.93-.51,1.67,.38,.73,.59,1.3-.37,2.8Z"/><path class="cls-5" d="M18.58,28.21s.56,2.15,1.98,2.33,3.64-.89,4.55-1.96,2.41-2.42,3.01-5.22c.6-2.8,.16-3.55,.16-3.55,0,0-.53-.38-.48,.42s-.9,4.69-2.8,6.85-3.35,1.99-3.69,1.98c-.6-.04-.51-1.09-2.74-.86Z"/></g><path id="Tracciato_2-2-2" class="cls-4" d="M23.96,18.76c-.16,.18-.33,.36-.52,.55-.94,.57-2.18,.8-3.24,1.96-1.3,1.43-2.35,3.43-2.19,5.94,.11,.8,.3,1.44,.54,1.95,0,0-.48-.39-.7-2.26-.26-2.38,1.3-4.85,2.29-5.77,.61-.57,.93-.88,3.03-1.83,.38-.16,.79-.54,.79-.54Z"/></g><rect class="cls-5" x="16.9" y="2.9" width=".46" height="28.59" transform="translate(17.18 -7.08) rotate(45)"/></g></svg>