<?xml version="1.0" encoding="UTF-8"?><svg id="how_to_prevent" xmlns="http://www.w3.org/2000/svg" viewBox="0 0 32 32"><defs><style>.cls-1{fill:#91ccf2;}.cls-2{fill:#5b798c;}.cls-3{fill:#77a8c7;}.cls-4{fill:#82b7d9;}</style></defs><g id="ic_slaugh"><rect class="cls-4" x="9.08" y="14.82" width="13" height="13.69"/><path class="cls-3" d="M9.01,12.95H30.92v1.88H8.4v-1.27c0-.34,.27-.61,.61-.61Z"/><rect class="cls-4" x="22.22" y="14.82" width="8.7" height="13.69"/><rect class="cls-2" x="9.08" y="28.51" width="2.31" height="1.03"/><rect class="cls-2" x="19.59" y="28.51" width="2.31" height="1.03"/><rect class="cls-2" x="22.34" y="28.51" width="2.31" height="1.03"/><rect class="cls-3" x="22.14" y="18.79" width="2.7" height="1.11" transform="translate(4.15 42.84) rotate(-90)"/><rect class="cls-3" x="19.39" y="18.79" width="2.7" height="1.11" transform="translate(1.4 40.08) rotate(-90)"/><path class="cls-1" d="M8.4,9.75s-.64,2.28-1,2.64-2.6,1-2.6,1c0,0,2.21,.6,2.61,1.05s.98,2.53,.98,2.53c0,0,.53-2.26,1.07-2.64s2.52-.97,2.52-.97c0,0-2.21-.52-2.6-.95s-.99-2.66-.99-2.66Z"/><path class="cls-1" d="M13.43,4.79s-.5,1.78-.78,2.06-2.03,.78-2.03,.78c0,0,1.73,.47,2.04,.82s.77,1.98,.77,1.98c0,0,.41-1.76,.84-2.06s1.97-.76,1.97-.76c0,0-1.73-.4-2.03-.74s-.77-2.08-.77-2.08Z"/><path class="cls-1" d="M5.17,1.85s-.34,1.21-.53,1.41-1.38,.53-1.38,.53c0,0,1.18,.32,1.39,.56s.52,1.35,.52,1.35c0,0,.28-1.2,.57-1.41s1.34-.52,1.34-.52c0,0-1.18-.28-1.38-.51s-.53-1.42-.53-1.42Z"/></g></svg>