<?xml version="1.0" encoding="UTF-8"?><svg id="how_to_prevent" xmlns="http://www.w3.org/2000/svg" viewBox="0 0 32 32"><defs><style>.cls-1{fill:#8bc3e8;}.cls-2{fill:#3c6277;}.cls-3{fill:#77a8c7;}.cls-4{fill:#82b7d9;}</style></defs><g id="ic_slaugh"><g><polygon class="cls-2" points="6.92 6.1 4.99 8.58 25.47 24.49 27.4 22 6.92 6.1 6.92 6.1"/><path class="cls-2" d="M16.05,4.49h0c5.73,0,10.6,4.3,11.31,10,.38,3.03-.44,6.02-2.31,8.43s-4.57,3.95-7.6,4.33c-.48,.06-.96,.09-1.44,.09-5.73,0-10.6-4.3-11.31-10-.38-3.03,.44-6.02,2.31-8.43,1.87-2.41,4.57-3.95,7.6-4.33,.48-.06,.96-.09,1.44-.09m0-4c-.64,0-1.29,.04-1.94,.12C5.66,1.67-.33,9.38,.73,17.84c.98,7.8,7.62,13.5,15.28,13.5,.64,0,1.29-.04,1.94-.12,8.45-1.06,14.44-8.77,13.38-17.23C30.36,6.19,23.71,.49,16.05,.49h0Z"/></g><g><path id="Tracciato_2-2" class="cls-4" d="M10.75,18.5c.37-.65,1.17-.18,2.77,.16,.89-.03,1.83-.43,3.05-.12,1.51,.38,3.11,1.27,4.11,3.03,2.25,4.73-3.3,4.46-3.3,4.46,0,0-4.11-.16-6.46-3.57-1.37-2.21-1.28-1.99-.86-2.77l.69-1.2Z"/><path id="Tracciato_3-2" class="cls-4" d="M10.54,18.5l-.69,1.2-.77-.41s-.76-.36-1.21-.05-1.58,.13-1.72-.49-.03-1.2,1.17-1.17c0,0-.78-1.52,.64-1.69,.56-.05,1.01,.23,1.09,.9,.07,.66,.18,1.14,1.49,1.72Z"/><path class="cls-3" d="M20.76,22.49s.58,1.7-.3,2.45-2.85,1.02-3.94,.71-2.7-.56-4.35-2.18-1.68-2.32-1.68-2.32c0,0,.19-.49,.51,.07s2.69,2.76,4.93,3.38c2.24,.61,3.14-.14,3.36-.31,.39-.3-.14-.96,1.46-1.8Z"/></g><path class="cls-4" d="M26.13,6.12v2.75h-7.62s-1.82-.18-1.89,2.77h-2.52s-1.03-5.61,4.06-5.59h2.49s.88-.65,.97-1.8c.09-1.15-.23-.97-.23-.97l-1.69,.3s-.69-.79,.02-1.66l1.64,.35s.38-.24,.91-.24,.87,.24,.87,.24l2.06-.35s.39,1.09,0,1.57c0,0-1.78-.2-1.99-.22s-.2,.64-.09,.94c0,0,.37,1.69,.85,1.92h2.17Z"/><path class="cls-1" d="M20.63,6.05s.88-.65,.97-1.8c.09-1.15-.23-.97-.23-.97l-1.69,.3s-.69-.79,.02-1.66l1.64,.35s.38-.24,.91-.24,.87,.24,.87,.24l2.06-.35s.39,1.09,0,1.57c0,0-1.78-.2-1.99-.22s-.2,.64-.09,.94c0,0,.37,1.69,.85,1.92,0,0-.31,.34-1.67,.34s-1.65-.41-1.65-.41Z"/><path class="cls-1" d="M14,10.68v-.15h-.2s-.08,0-.08,.15,.09,1.1,.09,1.1h2.99s0-.88,.05-1.07c.05-.14-.11-.17-.11-.17l-.05,.15h-2.69Z"/><path class="cls-4" d="M15.29,17.02c-1.38,0-2.14-1.34-1.23-2.55,.78-1.04,1.23-2.31,1.23-2.31,0,0,.46,1.27,1.23,2.31,.91,1.21,.16,2.55-1.23,2.55Z"/></g></svg>