<?xml version="1.0" encoding="UTF-8"?><svg id="Livello_2" xmlns="http://www.w3.org/2000/svg" viewBox="0 0 245.08 247.3"><defs><style>.cls-1{fill:#4da290;fill-rule:evenodd;}</style></defs><g id="Salmonella"><g id="Livello_14"><path class="cls-1" d="M0,58.44c4.17-2.39,8.35-4.77,12.53-7.16C43.24,33.79,73.87,16.7,104.43,0c13.18,25.12,26.8,42.97,36.42,54.3,23.55,27.75,40.06,36.44,68,67,17.07,18.66,29.1,35.33,36.24,45.83-6.56,3.75-11.56,6.67-15.37,8.99-8.15,4.93-17.1,10.1-29.28,15.81-3.11,1.46-6.57,3.01-12.2,5.83-4.06,2.03-8.8,4.5-18.71,9.99-8.31,4.6-14.39,8.08-16.27,9.15-12.49,7.12-34.16,18.31-34.16,18.31-2.11,1.09-3.64,1.89-5,2.63-3.31,1.79-5.37,2.96-8.02,4.44-2.17,1.21-5.31,2.94-9.21,5.03C65.64,215.19,26.92,164.86,7.85,95.3c-3.49-12.74-6.04-25.07-7.85-36.86Z"/></g></g></svg>