<?xml version="1.0" encoding="UTF-8"?><svg id="Livello_2" xmlns="http://www.w3.org/2000/svg" viewBox="0 0 919.16 201.75"><defs><style>.cls-1{fill:#4da290;fill-rule:evenodd;}</style></defs><g id="Salmonella"><g id="Livello_4"><path class="cls-1" d="M881.74,36.96c-1.8-.74-4.32-1.73-7.36-2.79-1.1-.38-15.64-5.39-30.87-7.2-17.14-2.04-31.46,.41-39.04,1.66-23.86,3.95-53.94,8.19-91.92,13.32-2.77,.15-7.02,.4-12.2,.83-4.54,.38-11.56,.83-28.29,3.24-10.69,1.54-17.69,2.91-28.64,3.42-6.87,.32-12.52,.18-16.27,0h-28.47c-5.98,.17-15.71,.21-27.66-.83-21.22-1.86-31.23-5.56-51.25-8.32-16.1-2.22-28.05-2.36-39.86-2.5-9.48-.11-41.1-.07-87.04,9.99-25.1,5.5-52.93,13.65-92.73,29.96-36.85,15.11-33.91,16.7-135.03,67.41,0,0-79.14,39.69-133.4,50.77-8.41,1.72-17.14,3.31-17.14,3.31-5.97,1.09-10.99,1.93-14.58,2.52l.25-1.35c6.62-2.2,13.32-4.52,20.08-6.97,20.39-7.36,39.64-15.21,57.75-23.3,22.95-13.31,111.8-64.17,200.91-98.2,22.45-8.57,58.91-22.35,109-34.12,9.63-2.26,24.77-5.8,44.74-9.15,14.96-2.51,37.92-6.29,67.51-7.49,12.96-.52,21.97-.34,37.42,0,49.62,1.1,66.89,5.83,112.25,5.83h40.67c35.8,.41,63.19-4.83,82.16-9.99,2.54-.69,29.75-6.03,62.63-14.15,8.28-2.04,24.85-4.26,34.98-1.66,11.03,2.83,21.64,5.5,29.28,8.32,8.16,3.01,14.8,6.03,19.52,8.32l-37.42,19.14Z"/></g></g></svg>