<?xml version="1.0" encoding="UTF-8"?><svg id="Livello_2" xmlns="http://www.w3.org/2000/svg" viewBox="0 0 781.81 287.79"><defs><style>.cls-1{fill:#4da290;fill-rule:evenodd;}</style></defs><g id="Salmonella"><g id="Livello_6"><path class="cls-1" d="M781.81,27.86c-16.39,3.39-38.92,8.79-65.07,17.48-11.43,3.8-52,17.09-104.93,46.61-32.08,17.89-63.51,37.81-93.54,58.26-23.02,15.67-44.72,32.86-71.58,44.94-42.51,19.12-90.17,30.35-137.47,44.94-20.01,6.17-39.53,6.81-60.19,12.48-61.3,16.84-92.27,17.3-104.12,19.14-19.74,3.07-36.09,5.25-47.18,6.66-62.94,10.6-95.47,12.26-97.61,4.99-.15-.51-.15-1.07,0-1.66,1.4-.05,3.5-.14,6.04-.29,30.49-1.73,53.1-7.28,63.1-9.7,31.88-7.72,64.01-14.33,95.98-21.64,41.28-9.44,35.08-6.35,52.06-11.65,50.05-15.64,103.09-26.7,150.48-44.94,16.22-6.24,31.76-8.98,47.18-15.81,26.48-11.73,51.71-27.45,75.65-42.44,12.23-7.66,25.14-12.34,37.42-19.97,29.9-18.59,61.9-35.99,92.73-53.26,28.26-15.83,58.22-29.5,88.66-42.44,1.81-.77,19.18-6.6,42.3-14.15,7.12-2.32,12.94-4.19,16.67-5.39,1.22,4.42,3.05,9.68,5.85,15.35,2.46,4.97,5.12,9.14,7.57,12.51Z"/></g></g></svg>