<?xml version="1.0" encoding="UTF-8"?><svg id="Livello_2" xmlns="http://www.w3.org/2000/svg" viewBox="0 0 592.17 94.87"><defs><style>.cls-1{fill:#4da290;fill-rule:evenodd;}</style></defs><g id="Salmonella"><g id="Livello_2-2"><path class="cls-1" d="M571.02,94.87c-4.24-4.51-8.84-8.97-13.83-13.32-41.31-35.97-90.1-47.22-124.45-50.77-36.57-2.15-66.04,.08-86.51,2.61-36.42,4.49-52.43,10.9-94.07,13.2-22.76,1.26-40.32,.57-55.31,0-19.83-.76-51.36-1.96-85.41-8.32C84.3,33.21,45.15,22.91,0,0H2.44c6.99,2.6,14.31,5.11,21.96,7.49,19.94,6.19,38.8,10.43,56.13,13.32,40.99,6.82,75.14,7.86,100.05,8.32,28.99,.54,47.36,.88,72.65-1.73,44.58-4.6,44.19-11.52,95.73-18.25,41.71-5.45,69.07-4.46,88.66-2.5,11.13,1.11,23.43,1.79,39.04,6.66,23.25,7.25,45.1,16.64,63.45,29.13,13.61,9.26,26.07,20.15,38.23,30.79,5.8,5.08,10.53,9.42,13.83,12.48-7.05,3.05-14.1,6.1-21.15,9.15Z"/></g></g></svg>