<?xml version="1.0" encoding="UTF-8"?><svg id="Livello_2" xmlns="http://www.w3.org/2000/svg" viewBox="0 0 742.65 218.95"><defs><style>.cls-1{fill:#4da290;fill-rule:evenodd;}</style></defs><g id="Salmonella"><g id="Livello_5"><path class="cls-1" d="M728.82,31.62c-4.67,1.75-11.33,3.99-19.52,5.83-17.37,3.89-31.46,3.71-41.48,3.33-22.39-.85-33.59-1.28-57.75-5.83-43.03-8.1-87.86-6.85-116.32,4.16-63.98,24.76-118.06,62.14-175.7,94.04-69.37,38.4-113.34,51.45-135.03,58.26-44.52,13.98-77.69,19.44-92.73,21.64-35.32,5.15-66.12,6.21-90.29,5.83v-2.5c19.86-1.76,46.1-5.05,76.46-11.65,44.07-9.58,75.88-21.57,100.05-30.79,12.39-4.73,68.07-26.3,138.28-66.58,23.31-13.37,23.76-14.77,80.53-48.27,48.4-28.56,65.27-37.69,91.1-44.11,29.71-7.38,55.67-7.3,66.58-7.2,30.21,.28,30.87,5.1,70.08,7.2,20.91,1.12,45.57,2.3,76.46-3.33,18.09-3.29,32.8-7.92,43.11-11.65-2.81,4.13-5.91,9.39-8.65,15.78-2.51,5.86-4.12,11.27-5.18,15.85Z"/></g></g></svg>