<?xml version="1.0" encoding="UTF-8"?><svg id="Livello_2" xmlns="http://www.w3.org/2000/svg" viewBox="0 0 216.37 535.96"><defs><style>.cls-1{fill:#4da290;fill-rule:evenodd;}</style></defs><g id="Salmonella"><g id="Livello_10"><path class="cls-1" d="M216.37,0V32.46c-1.45,2.59,0,7.15-.81,10.82-2.3,10.25-1.97,21.4-4.88,31.62-7.03,24.68-14.48,48.02-25.22,69.08-17.54,34.39-38.97,66.03-58.57,98.2-21.93,36-42,73.76-61.01,112.35-20.25,41.11-34.46,86.45-50.43,131.49-5.86,16.53-7.92,33.55-13.83,49.93H0v-4.99c2.89-5.1,.88-12.76,2.44-19.14,3.11-12.75,3.47-27.02,7.32-39.95,12.38-41.56,23.14-80.43,39.04-117.35,17.28-40.11,39.11-78.89,61.01-114.85,12.47-20.49,21.86-41.74,34.16-62.42,26.67-44.81,51.28-94.84,51.51-166.23"/></g></g></svg>