<?xml version="1.0" encoding="UTF-8"?><svg id="Livello_2" xmlns="http://www.w3.org/2000/svg" viewBox="0 0 633.89 491.85"><defs><style>.cls-1{fill:#4da290;fill-rule:evenodd;}</style></defs><g id="Salmonella"><g id="Livello_7"><path class="cls-1" d="M633.89,13.03c-.88-.06-1.78,.01-2.68,.28-4.73,1.4-10.25,5.52-14.64,7.49-25.86,11.59-49.56,24.99-71.58,40.78-25.45,18.25-48.57,39.26-73.21,58.26-15.51,11.96-28.27,27.84-43.92,39.95-5.15,5.27-10.3,10.54-15.45,15.81-22.94,17.77-42.56,40.12-66.7,56.59-27.2,18.56-62.99,27.54-94.36,41.61-38.15,17.12-71.67,41.59-103.3,65.75-11.02,8.42-20.63,18.89-31.72,27.46-2.98,3.33-5.97,6.66-8.95,9.99-12.95,10.02-26,22.53-35.79,35.79-9.76,9.99-19.52,19.97-29.28,29.96-9.19,12.43-21.04,22.67-30.1,34.95-3.25,4.41-6.9,12.09-12.2,14.15v-2.5c5.09-4.17,7.71-11.83,11.39-17.48,7.81-12.02,16.18-23.84,24.4-35.79,14.2-20.64,31.53-38.98,46.36-59.09,5.96-6.1,11.93-12.21,17.9-18.31,6.92-9.36,15.25-17.89,24.4-24.97l9.76-10.82c32.63-25.26,62.62-52.33,100.05-73.24,23.45-13.1,49.15-23.91,74.02-34.95,18.94-8.41,37.97-14.27,53.69-25.8,10.74-7.88,19.69-20.83,27.66-31.62,8.4-8.6,16.81-17.2,25.22-25.8,8.45-11.26,25.52-28.06,36.6-36.62,34.87-26.92,67.69-52.19,109-73.24,11.17-5.69,23.52-10.57,34.98-14.98,5.02-1.93,13.12-2.05,15.45-6.66"/></g></g></svg>