<?xml version="1.0" encoding="UTF-8"?><svg id="Livello_2" xmlns="http://www.w3.org/2000/svg" viewBox="0 0 377.64 632.5"><defs><style>.cls-1{fill:#4da290;fill-rule:evenodd;}</style></defs><g id="Salmonella"><g id="Livello_9"><path class="cls-1" d="M376.61,0V12.48c2.29,3.55,.06,10.18,0,14.98-.15,12.77-1.19,25.94-4.07,37.45-12.94,51.83-26.65,97.73-48.8,139.82-16.77,31.86-35.77,62.34-56.13,90.71-7.42,10.34-17.75,19.03-25.22,29.13-7.75,10.49-18.26,22.08-28.47,29.96-18.4,14.2-38.18,26.71-56.94,40.78-7.92,5.94-14.24,14.83-21.96,20.81-4.17,3.22-9.09,6.61-12.2,10.82-12.75,17.24-27.6,32.92-39.86,50.77-31.79,46.29-58.79,99.91-81.34,154.8H0c.67-7.41,3.68-14.62,5.69-20.81,5.97-18.29,10.89-35.88,17.08-52.43,12.4-33.18,25.24-63.26,43.11-90.71,8.31-12.77,18.63-24.38,27.66-36.62,5.67-7.69,16.76-17.4,24.4-23.3,6.82-5.27,12.58-13.04,19.52-18.31,20.02-15.19,39.64-30.51,59.38-45.77,7.65-5.91,15.33-15.42,21.15-23.3,4.82-6.53,12.26-11.74,17.08-18.31,10.45-14.23,20.8-27.72,30.91-42.44,44.52-64.84,95.64-142.32,95.82-251.65"/></g></g></svg>