<?xml version="1.0" encoding="UTF-8"?><svg id="Livello_2" xmlns="http://www.w3.org/2000/svg" viewBox="0 0 1036.29 104.11"><defs><style>.cls-1{fill:#4da290;fill-rule:evenodd;}</style></defs><g id="Salmonella"><g id="Livello_3"><path class="cls-1" d="M998.06,23.38c-8.73-.3-21.44-.25-36.6,1.66-13.82,1.74-24.58,4.39-43.92,9.99-47.4,13.71-56.11,19.02-82.97,24.97-17.74,3.93-32.56,5.74-42.3,6.66-37.24,2.78-63.98,.26-81.83-2.71-3.71-.62-10.19-1.58-22.29-3.95-24.59-4.82-47.71-8.92-54.5-9.99-54.47-8.56-71.64,19.03-166.75,33.29-11.08,1.66-41.28,5.83-80.53,6.66-30.52,.64-54.06-1-74.83-2.5-42.81-3.09-46.37-5.96-89.48-9.15-25.6-1.89-48.22-3.5-77.27-2.5-34.19,1.19-62.2,5.47-81.34,9.15-21.15,6.38-42.3,12.76-63.45,19.14l.81-1.66c24.9-15.6,47.43-24.58,64.26-29.96,40.99-13.1,75.55-13.62,110.62-14.15,30.49-.46,56.96,1.76,69.96,2.87,19.66,1.69,24.25,2.85,58.56,6.28,30.87,3.09,46.31,4.64,59.38,4.99,29.67,.81,55.26-1.2,70.86-2.46,10.7-.87,19.62-1.81,25.94-2.53,18.4-2.41,33.2-5.33,43.11-7.49,30.36-6.62,42.32-12.13,80.53-20.81,18.18-4.13,27.44-6.2,35.79-6.66,7.81-.43,14.51-.38,21.08,.17,20.77,1.74,36.22,6.92,39.93,8.15,33.29,11.01,84.99,8.18,97.61,7.49,50.09-2.74,91.04-17.01,113.88-24.97,24.37-8.49,32.45-13.51,55.31-18.31,34.1-7.16,59.97-5.2,74.02-3.33,6.15,.82,11.2,1.78,14.64,2.5-12.74,6.38-25.49,12.76-38.23,19.14Z"/></g></g></svg>