<?xml version="1.0" encoding="UTF-8"?><svg id="Livello_2" xmlns="http://www.w3.org/2000/svg" viewBox="0 0 233.07 221.81"><defs><style>.cls-1{fill:#4da290;fill-rule:evenodd;}</style></defs><g id="Salmonella"><g id="Livello_12"><path class="cls-1" d="M233.07,168c-15.02,8.58-48.17,27.18-82.45,43.45-6.91,3.28-17.44,8.16-32.12,9.8-17.09,1.91-30.41-1.62-36.6-3.33-25.12-6.92-41.53-21.51-48.96-29.11-16.54-16.93-23.64-35.11-26.69-44.96-1.66-4.38-4.08-11.7-5.38-21.02-.79-5.65-1.95-18.13,1.32-33.07,.3-1.35,8.01-34.56,34.98-55.76,5.11-4.02,8.88-6.67,16.69-11.65C71.03,11.39,86.33,4.36,97.07,0c7.62,22.32,20.56,52.09,43,83,32.1,44.2,69.02,70.61,93,85Z"/></g></g></svg>