<?xml version="1.0" encoding="UTF-8"?><svg id="Livello_2" xmlns="http://www.w3.org/2000/svg" viewBox="0 0 408.41 555.93"><defs><style>.cls-1{fill:#4da290;fill-rule:evenodd;}</style></defs><g id="Salmonella"><g id="Livello_8"><path class="cls-1" d="M408.33,0c1.54,56.8-22.27,100.06-44.74,136.49-24.6,39.89-49.79,74.96-81.34,107.36-8.32,8.55-15.69,17.6-25.22,24.97-9.4,7.27-17.28,17.71-26.84,24.97-26.25,19.91-56.01,36.55-82.16,56.59-20.76,15.91-40.59,40.11-56.13,61.59C59.53,456.73,26.26,503.28,1.63,555.93H0v-1.66c5.22-7.14,6.92-17.29,10.57-25.8,2.91-6.78,7.37-14.26,10.57-20.81,5.39-11.02,8.49-22.1,14.64-32.46,12.85-21.63,24.18-44.41,38.23-64.91,11.34-16.55,24.78-31.43,36.6-47.44,4.16-5.63,10.99-11.21,16.27-15.81,12.14-10.58,22.78-23.51,35.79-33.29,22.44-16.87,46.07-32.04,68.33-49.1,6.35-4.87,11.18-12.1,17.08-17.48,11.7-10.66,23.85-21.26,33.35-34.12,3.8-3.61,7.59-7.21,11.39-10.82,11.14-15.06,24.2-28.74,34.98-44.11,28.61-40.77,49.92-91.26,62.19-148.19L408.33,0Z"/></g></g></svg>