<?xml version="1.0" encoding="UTF-8"?><svg id="Livello_2" xmlns="http://www.w3.org/2000/svg" viewBox="0 0 239.85 245"><defs><style>.cls-1{fill:#4da290;fill-rule:evenodd;}</style></defs><g id="Salmonella"><g id="Livello_13"><path class="cls-1" d="M55.85,176C24.33,138.41,8.26,101.14,0,77.05c12.96-6.41,28.64-14.62,46.16-24.81,11.27-6.56,11.69-7.18,21.15-12.48,18.83-10.56,26.79-13.49,47.18-24.13,6.57-3.43,16.43-8.71,28.36-15.62,3.27,20.39,8.97,44.29,19,70,21.93,56.23,54.5,95.4,78,119-6.96,3.79-13.93,7.61-20.93,11.47-10.84,5.97-18.78,10.4-21.05,11.67-10.4,5.79-28.07,15.54-60.01,32.86-21.37-12.42-52.63-33.98-82-69Z"/></g></g></svg>