<?xml version="1.0" encoding="UTF-8"?><svg id="how_to_prevent" xmlns="http://www.w3.org/2000/svg" viewBox="0 0 32 32"><defs><style>.cls-1{fill:#6c99b5;}.cls-2{fill:#77a8c7;}.cls-3{fill:#82b7d9;}</style></defs><g id="ic_facilities"><polygon class="cls-3" points="4.51 14.57 4.02 14.57 4.02 28.98 17.12 29.3 17.12 28.98 4.51 14.57"/><polygon class="cls-2" points="4.62 14.06 4.43 14.93 4.43 28.69 17.12 28.98 17.12 28.69 4.62 14.06"/><path class="cls-1" d="M4.62,14.06s5.64-2.02,12.5,1.11v13.48s-6.11-2.04-12.5-.26V14.06Z"/><path class="cls-3" d="M5.66,13.39s5.31-2.42,11.46,1.54v13.76s-5.6-3.27-11.46-1.64V13.39Z"/><polygon class="cls-3" points="29.73 14.57 30.22 14.57 30.22 28.98 17.12 29.3 17.12 28.98 29.73 14.57"/><polygon class="cls-2" points="29.62 14.06 29.8 14.93 29.8 28.69 17.12 28.98 17.12 28.69 29.62 14.06"/><path class="cls-1" d="M29.62,14.06s-5.64-2.02-12.5,1.11v13.48s6.11-2.04,12.5-.26V14.06Z"/><path class="cls-3" d="M28.57,13.39s-5.31-2.42-11.46,1.54v13.76s5.6-3.27,11.46-1.64V13.39Z"/></g></svg>