<?xml version="1.0" encoding="UTF-8"?><svg id="how_to_prevent" xmlns="http://www.w3.org/2000/svg" viewBox="0 0 32 32"><defs><style>.cls-1{fill:#77a8c7;}.cls-2{fill:#82b7d9;}</style></defs><g id="ic_facilities"><g id="man" transform="translate(1119.835 1388.687)"><g id="Raggruppa_10" transform="translate(0)"><g transform="matrix(1, 0, 0, 1, -1119.83, -1388.69)"><circle id="Ellisse_9-4" class="cls-2" cx="24.06" cy="6.53" r="2.93"/></g><g transform="matrix(1, 0, 0, 1, -1119.83, -1388.69)"><path id="Tracciato_15-4" class="cls-2" d="M20.14,10.24h7.84c.68,0,1.23,.63,1.23,1.4v7.84c0,.77-.55,1.4-1.23,1.4h-.47v9.51h-6.87v-9.51h-.5c-.68,0-1.22-.63-1.23-1.4v-7.84c0-.77,.55-1.4,1.23-1.4Z"/></g></g></g><rect class="cls-1" x="21.27" y="10.24" width=".7" height="2.17"/><rect class="cls-1" x="26.15" y="10.24" width=".7" height="2.17"/><rect class="cls-1" x="21.25" y="10.24" width=".7" height="2.17"/><rect class="cls-1" x="26.13" y="10.24" width=".7" height="2.17"/><path class="cls-1" d="M21.06,12.41h5.99c.24,0,.44,.2,.44,.44V30.38h-6.86V12.85c0-.24,.2-.44,.44-.44Z"/><ellipse class="cls-1" cx="24.06" cy="4.73" rx="4.84" ry="1.16"/><ellipse class="cls-1" cx="24.06" cy="3.57" rx="2.19" ry="1.16"/></g></svg>