<?xml version="1.0" encoding="UTF-8"?><svg id="how_to_prevent" xmlns="http://www.w3.org/2000/svg" viewBox="0 0 32 32"><defs><style>.cls-1{fill:#5b798c;}.cls-2{fill:#77a8c7;}.cls-3{fill:#82b7d9;}</style></defs><g id="ic_slaugh"><path class="cls-3" d="M4.7,11.66H30.11V28.73c0,.78-.63,1.41-1.41,1.41H6.12c-.78,0-1.41-.63-1.41-1.41V11.66h0Z"/><path class="cls-3" d="M4.7,7.56H30.11v2.3c0,.73-.59,1.32-1.32,1.32H6.02c-.73,0-1.32-.59-1.32-1.32v-2.3h0Z" transform="translate(34.81 18.74) rotate(180)"/><rect class="cls-2" x="6.42" y="13.16" width="2.48" height="2.49"/><rect class="cls-2" x="9.68" y="13.16" width="2.48" height="2.49"/><rect class="cls-2" x="12.94" y="13.16" width="2.48" height="2.49"/><rect class="cls-2" x="16.2" y="13.16" width="2.48" height="2.49"/><rect class="cls-2" x="19.46" y="13.16" width="2.48" height="2.49"/><rect class="cls-2" x="22.64" y="13.16" width="2.48" height="2.49"/><rect class="cls-2" x="25.91" y="13.16" width="2.48" height="2.49"/><rect class="cls-2" x="6.42" y="16.34" width="2.48" height="2.49"/><rect class="cls-2" x="9.68" y="16.34" width="2.48" height="2.49"/><rect class="cls-2" x="12.94" y="16.34" width="2.48" height="2.49"/><rect class="cls-2" x="16.2" y="16.34" width="2.48" height="2.49"/><rect class="cls-2" x="19.46" y="16.34" width="2.48" height="2.49"/><rect class="cls-2" x="22.64" y="16.34" width="2.48" height="2.49"/><rect class="cls-2" x="25.91" y="16.34" width="2.48" height="2.49"/><rect class="cls-2" x="6.42" y="19.53" width="2.48" height="2.49"/><rect class="cls-2" x="9.68" y="19.53" width="2.48" height="2.49"/><rect class="cls-2" x="12.94" y="19.53" width="2.48" height="2.49"/><rect class="cls-2" x="16.2" y="19.53" width="2.48" height="2.49"/><rect class="cls-2" x="19.46" y="19.53" width="2.48" height="2.49"/><rect class="cls-2" x="22.64" y="19.53" width="2.48" height="2.49"/><rect class="cls-2" x="25.91" y="19.53" width="2.48" height="2.49"/><rect class="cls-2" x="6.42" y="22.72" width="2.48" height="2.49"/><rect class="cls-2" x="9.68" y="22.72" width="2.48" height="2.49"/><rect class="cls-2" x="12.94" y="22.72" width="2.48" height="2.49"/><rect class="cls-2" x="6.42" y="25.9" width="2.48" height="2.49"/><rect class="cls-2" x="9.68" y="25.9" width="2.48" height="2.49"/><rect class="cls-2" x="12.94" y="25.9" width="2.48" height="2.49"/><rect class="cls-2" x="16.2" y="22.72" width="2.48" height="2.49"/><rect class="cls-2" x="19.46" y="22.72" width="2.48" height="2.49"/><rect class="cls-2" x="22.64" y="22.72" width="2.48" height="2.49"/><rect class="cls-2" x="25.91" y="22.72" width="2.48" height="2.49"/><path class="cls-1" d="M22.22,22.81s1.53,1.09,1.69,1.85,1.36-2.43,3.55-4.24c.51-.42-1.3,.44-3.21,3.14,0,0-1.17-.83-2.03-.76Z"/></g></svg>