<?xml version="1.0" encoding="UTF-8"?><svg id="how_to_prevent" xmlns="http://www.w3.org/2000/svg" viewBox="0 0 32 32"><defs><style>.cls-1{stroke-dasharray:0 0 1.62 .4;}.cls-1,.cls-2,.cls-3{fill:none;stroke:#5b798c;stroke-miterlimit:10;stroke-width:.25px;}.cls-4{fill:#dbdbdb;}.cls-5{fill:#77a8c7;}.cls-6{fill:#82b7d9;}.cls-2{stroke-dasharray:0 0 2.14 .53;}</style></defs><g id="ic_slaugh"><path class="cls-6" d="M10.07,3.6v1.31s-1.2,5.89-.92,10.59c.19,2.45-1.41,5.36-1.41,5.36,0,0-.47,2.35-.38,3.76s-1.22,2.16-.94,3.2,2.82,2.26,11.57,2.07,6.88,.02,6.88,.02c0,0,1.77,.45,2.43-2.94s.61-6.39,.18-9.15,0-6.09,0-6.09c0,0,.94-3.67,.85-4.14s.56-1.98,.56-1.98c0,0-1.22-.94-2.07-1.03s-1.41-.28-1.51-.38-1.03-.28-1.41-.09-2.16,.19-2.45,0-.75-.19-1.32-.09-1.51,.38-2.07,.09-.85-.56-1.55-.42-.98,.19-1.55,.21-1.02-.26-1.45-.21-1.42-.14-1.58,0-1.52-.61-1.88-.09Z"/><g><path class="cls-6" d="M27.94,7.03c-.29,0-1.12-.8-1.45-.65s-.5-.15-1.45-.15-1.31-.22-1.31-.22c0,0-.51,.15-.97,0s-.87-.29-1.35-.29h-1.31c-.44,0-.87,0-1.6-.15s-2.39,.29-3.41,.15-1.89,0-2.33,0-2.18-.29-2.18-.29"/><g><path class="cls-3" d="M27.94,7.03c-.17,0-.54-.28-.87-.48"/><path class="cls-1" d="M26.7,6.38c-.08-.02-.15-.03-.21,0-.33,.15-.5-.15-1.45-.15-.05,0-.09,0-.14,0"/><path class="cls-3" d="M24.7,6.22c-.7-.04-.97-.21-.97-.21,0,0-.51,.15-.97,0h-.02"/><path class="cls-2" d="M22.23,5.85c-.27-.07-.53-.13-.82-.13h-1.31c-.44,0-.87,0-1.6-.15-.73-.15-2.39,.29-3.41,.15-1.01-.15-1.89,0-2.33,0-.17,0-.54-.04-.92-.1"/><path class="cls-3" d="M11.59,5.59c-.52-.08-.99-.15-.99-.15"/></g></g><path class="cls-5" d="M9.58,14.79s.44,2.18-.44,3.92-1.23,2.16,.54,1.66,2.94-1.66,4.39-1.51,3.63-.15,4.35-.73,3.05-2.32,4.21-2.61-3.38-2.15-8.95-1c-2.23,.57-3.39,.42-3.39,.42,0,0-.73-.43-.73-.14Z"/><path class="cls-5" d="M24.1,29.31c.15,0,1.45,.29,1.89-.29s1.27-2.62,1.45-4.64c.44-4.93-.61-6.52-.44-8.27s-.58-.29-.73,1.45-.15,5.66-1.31,7.26c-2.03,3.19-3.05,4.5-.87,4.5Z"/><path class="cls-4" d="M16.22,23.75l4.81,.39c-.09,1.06-2.33,1.77-4.96,1.55s-4.74-1.26-4.65-2.32,2.33-1.77,4.96-1.55c2.29,.18,4.22,1,4.59,1.94h-4.75Z"/></g></svg>