<?xml version="1.0" encoding="UTF-8"?><svg id="how_to_prevent" xmlns="http://www.w3.org/2000/svg" viewBox="0 0 32 32"><defs><style>.cls-1{fill:#7db0d1;}.cls-2{fill:#77a8c7;}.cls-3{fill:#82b7d9;}</style></defs><g id="ic_facilities"><g><g><path class="cls-1" d="M22.03,30.16l-.08,.13s.03,.09,.03,.1h.01v.04l.08,.15-.07,.18s-.05,.15,.69-.2c.09-.06,.37-.18,.76-.36h.31l.05-.13,.31-.07,.11-.05s-.05,0,.23-.1l.23-.1,.24-.11s.27-.17,.33-.21l.07-.03,.07-.03s.3-.06,.37-.09l.33-.21,.05-.02h.25l.05-.13,.31-.07,.11-.05s-.05,0,.23-.1l.23-.1,.24-.11s.27-.17,.33-.21c.07-.05,.14-.06,.14-.06,0,0,.3-.06,.37-.09l.33-.21,.48-.24c.39-.15,.67-.27,.76-.3,.76-.3,.71-.4,.71-.4l-.08-.11,.08-.22v-.05s.03-.07,.04-.13l-.08-.06-.08-.06c-.1-.06,.15-.21,.15-.21l-.12-.11-.04-.06c-.04-.06,.16-.17,.16-.17v-.18l-.04-.16-.11-.05,.2-.28-.05-.03c-.07,0-.15-.2-.15-.2v-.28l-.02-.4,.16-.22-.02-.44c-.02-.44,0,0-.12-.06-.12-.06,0,0-.01-.11-.01-.09,.09-.32,.09-.32l-.1-.25v-.25l.12-.26-.03-.25s-.07-.04-.19-.15l-.04-.03s-.01-.01,0-.02c-.04-.05,0-.13,.01-.2,.01-.07,.18-.26,.19-.34,.01-.1-.03-.23-.03-.23l-.21-.03c.19-.12,.28-.29,.28-.29,0,0-.08-.06-.22,0-.26,.14-.16,.02-.71,.14-.14,.03-.35,.12-.61,.25,0,0-.39,.25-.45,.28s-.56,.29-.76,.38c-.12,.05-.24,.12-.34,.16h-.01c-.08,.04-.14,.05-.16,.04-.01,0-.01-.01-.03-.02,0,0-.01,0-.03,0-.05,.02-.14,.03-.25,.06-.04,0-.1,.02-.14,.04l-.04,.02c-.12,.04-.27,.1-.43,.19,0,0-.12,.07-.23,.13h-.11c-.27,.12-.49,.21-.63,.3-.15,.1-.3,.19-.42,.3-.01,0-.01,.02-.03,.03-.14,.06-.27,.12-.31,.1-.07-.02-.16-.06-.16-.06l-.23,.1s-.61,.36-.65,.36c-.04,0-.2,.02-.2,.02-.27,.1-.49,.2-.63,.29-.54,.35-1.02,.8-.64,.7l-.2,.2s-.04,.16-.02,.26c.01,.08,.18,.12,.19,.18,.01,.06,.06,.11,.02,.19,.01,0,.01-.02,0,.02l-.04,.07c-.12,.22-.19,.31-.19,.31v.27l.09,.17,.02,.24-.09,.34s.11,.13,.1,.24c-.01,.12,.11-.05-.01,.12-.12,.17-.1-.29-.12,.17v.45l.16,.08-.02,.42,.02,.27s-.08,.26-.15,.33l-.05,.07,.21,.11-.11,.15-.04,.2v.18s.22-.08,.17,.03l-.04,.1-.12,.22s.25-.06,.15,.08l-.08,.13Z"/><path class="cls-1" d="M26.93,22.11s.1-.04,.14-.04c.11-.03,.19-.03,.25-.06-.05,0-.11-.03-.11-.03l-.23,.1s-.01,0-.04,.03Z"/><path class="cls-1" d="M27.34,22.02s.01,.03,.03,.02c.03,0,.08,0,.16-.04-.04,0-.1,0-.19,.02Z"/></g><g><path class="cls-3" d="M21.64,24.12l.02,.07c.06,.02,.12,.03,.14,.04h.07l.25,.06,.09,.09s.08,.08,.74-.22c.07-.04,.32-.15,.67-.3l.42-.06-.05-.06,.36-.09,.1-.04s-.07,.01,.22-.09l.21-.09,.23-.09s.2-.12,.24-.15l.06-.03,.06-.03s.34-.08,.41-.11l.24-.15,.05-.02,.33-.05-.05-.06,.36-.09,.1-.04s-.07,.01,.21-.09l.21-.09,.23-.09s.2-.12,.24-.15c.05-.03,.13-.05,.13-.05,0,0,.34-.08,.41-.11l.24-.15,.41-.19c.38-.14,.64-.24,.74-.27,.74-.27,.56-.31,.56-.31l-.22-.03-.11-.11-.04-.03s-.05-.03-.09-.06h-.17l-.17-.02c-.19,0,0-.12,0-.12l-.28-.02-.12-.02c-.12-.02,.05-.1,.05-.1l-.18-.08-.22-.06h-.2v-.16h-.11c-.1,.01-.4-.06-.4-.06l-.27-.12-.44-.16v-.12l-.46-.18c-.46-.18,0,0-.23,0-.23,0,0,0-.13-.04-.11-.04-.19-.15-.19-.15l-.39-.09-.24-.11-.11-.13-.29-.1s-.13,0-.41-.03h-.09s-.03,0-.02-.01c-.1-.01-.13-.06-.19-.09-.05-.03-.02-.14-.09-.18-.09-.05-.27-.09-.27-.09l-.31,.03c.14-.09,.1-.18,.1-.18,0,0-.17-.01-.3,.04-.21,.11-.2,.04-.82,.2-.16,.04-.36,.12-.59,.22,0,0-.28,.18-.33,.2s-.47,.23-.66,.31c-.11,.05-.21,.1-.3,.13h-.01c-.08,.04-.14,.05-.18,.05-.01,0-.03,0-.06,0,0,0-.01,0-.04,0-.05,.02-.16,.04-.28,.07-.05,0-.11,.03-.14,.04l-.04,.02c-.13,.04-.27,.1-.4,.16,0,0-.1,.05-.18,.1l-.13,.03c-.27,.1-.47,.18-.56,.24-.11,.07-.21,.14-.28,.21-.01,0,0,.01,0,.02-.13,.05-.25,.1-.32,.1-.11,0-.28,0-.28,0l-.21,.09s-.47,.27-.52,.28c-.05,0-.26,.05-.26,.05-.27,.1-.47,.18-.56,.24-.39,.25-.58,.54-.16,.42l-.07,.13s.11,.08,.22,.12c.1,.03,.36,.02,.44,.04,.08,.02,.18,.04,.21,.08,.01,0,0-.01,.02,0v.04c.06,.12,.07,.17,.07,.17l.25,.12,.3,.06,.26,.1,.21,.16s.28,.04,.37,.08c.1,.05,.1-.04,.1,.05,0,.1-.42-.1,0,.1l.43,.19h.3l.39,.19,.29,.11s.16,.13,.13,.17v.04h.39v.09l.14,.09,.18,.08s.22-.07,.25-.02l.04,.05,.05,.12s.28-.07,.29,0l.02,.07Z"/><path class="cls-3" d="M20.29,19.73s.09-.04,.14-.04c.12-.03,.23-.05,.28-.07-.08,0-.18,0-.18,0l-.21,.09s-.01,0-.02,.02Z"/><path class="cls-3" d="M20.75,19.61s.05,0,.06,0c.04,0,.11-.02,.18-.05-.05,0-.12,.02-.24,.04Z"/></g><path class="cls-2" d="M27.96,21.78s.49,3.49,.1,6.49l-.11,.07c.13-2.31,.1-4.49-.15-6.48l.16-.08Z"/><path class="cls-2" d="M25.01,23.35s.41,3.69,0,6.27l-.13,.09c.17-2.1,.18-4.2-.02-6.31,0-.04,.15-.05,.15-.05Z"/><path class="cls-2" d="M18.27,20.79s4.32,1.21,6.61,2.63l.15-.05c-1.76-1.28-5.49-2.59-6.62-2.68-.04,0-.13,.09-.13,.09Z"/><path class="cls-2" d="M21.3,19.43s4.22,1.12,6.5,2.45l.14-.04c-1.76-1.2-5.43-2.42-6.52-2.49-.03,0-.12,.09-.12,.09Z"/><g><path class="cls-2" d="M22.54,30.26l.06,.12s-.02,.09-.02,.11h0v.04l-.05,.16-.44,.06s-.26-.13-.54-.26l-.22,.04-.04-.12-.22-.03-.08-.03s.04,0-.17-.07l-.16-.07-.17-.07s-.2-.13-.23-.16l-.05-.02-.05-.02s-.21-.02-.26-.04l-.23-.16-.04-.02-.17,.03-.04-.12-.22-.03-.08-.03s.04,0-.16-.07l-.16-.07-.17-.07s-.2-.13-.23-.16c-.05-.04-.1-.04-.1-.04,0,0-.21-.02-.26-.04l-.23-.16-.34-.17c-.28-.1-.48-.18-.54-.19-.54-.19-.51-.31-.51-.31l.05-.13-.06-.21v-.05s-.02-.07-.03-.12l.06-.08,.06-.08c.07-.07-.11-.19-.11-.19l.08-.13,.03-.07c.03-.07-.12-.15-.12-.15v-.18l.02-.17,.08-.07-.15-.26,.04-.03s.1-.22,.1-.22l-.02-.29v-.41l-.11-.2v-.45c0-.45,0,0,.08-.08,.08-.08,0,0,0-.11,0-.1-.07-.31-.07-.31l.06-.27v-.25l-.1-.25v-.26s.06-.05,.14-.18l.03-.04s0-.01,0-.02c.03-.05,0-.13-.01-.2-.01-.07-.13-.24-.14-.32-.01-.1,.01-.24,.01-.24l.14-.06c-.14-.09-.21-.25-.21-.25,0,0,.06-.08,.15-.04,.18,.11,.12,0,.5,.04,.1,0,.25,.07,.44,.17,0,0,.28,.2,.32,.22s.4,.22,.54,.28c.09,.04,.18,.09,.24,.12h0c.06,.03,.1,.03,.12,.02,0,0,0-.01,.02-.03,0,0,0,0,.02,0,.04,.02,.1,0,.17,.02,.03,0,.07,.01,.1,.02h.03c.09,.03,.19,.08,.31,.14,0,0,.09,.05,.17,.1h.08c.19,.06,.35,.13,.45,.2,.11,.08,.21,.16,.3,.24,0,0,.01,.02,.02,.02,.1,.04,.19,.08,.22,.06,.05-.03,.11-.08,.11-.08l.16,.07s.44,.28,.47,.28c.03,0,.14,0,.14,0,.19,.06,.35,.13,.45,.2,.39,.28,.74,.67,.47,.62l.15,.18s.03,.16,.02,.26c0,.08-.12,.15-.13,.21,0,.06-.04,.12,0,.2,0,0-.01-.02,0,.02l.03,.06c.09,.2,.14,.29,.14,.29l.02,.27-.06,.19v.25l.07,.33s-.07,.15-.06,.26c.01,.12-.08-.03,.01,.12,.09,.15,.06-.31,.09,.15l.02,.45-.11,.1,.03,.43v.28s.06,.26,.11,.31l.04,.07-.14,.14,.08,.13,.03,.2v.18s-.15-.05-.11,.05l.03,.1,.09,.2s-.17-.02-.1,.11l.06,.12Z"/><path class="cls-2" d="M18.87,22.76s-.07-.03-.1-.02c-.08-.02-.13,0-.17-.02,.04-.02,.08-.05,.08-.05l.16,.07s0,0,.03,.03Z"/><path class="cls-2" d="M18.58,22.72s0,.03-.02,.03c-.02,0-.06,0-.12-.02,.03,0,.07,0,.13-.01Z"/></g></g><g><path class="cls-2" d="M4.36,13.13s.8-.67,.91-.65,.47,.19,.57,.2-.38,1.06-.95,1.63l.16,.76s.78,.93,1.11,1.18,.56,.71,.63,.88,.24,.53,.24,.61-.02,.35-.49,.17-.19-.74-.19-.74c0,0-.07-.15-.18-.12s-.16,.15-.24,0-.05-.43-.09-.5-1.22-1.18-1.22-1.18c0,0-1.05-.53-.75-.99,.11-.15,.35-.33,.35-.33l.13-.92Z"/><path class="cls-2" d="M10.67,5.91s-1.07-.67-.73-1.31c0,0,.2,.11,.45,.18s.53,.09,.78,.39l.21,.13h.25l.98,.28,.14,.13s.06,0,.12,.05,.05,.23,.05,.33,.18,.23,.31,.31,.84,.33,.82,.47,.09,.18,0,.33c0,0,.02,.1-.09,.13,0,0,0,.15-.44,.15s-1.09,0-1.09,0c0,0-.5,.08-.55,.07,0,0-.02,.16,.05,.92s0,1.55-.18,1.97-.71,1.09-.71,1.09c0,0-.02,.78-.3,1.15v1.82l.41,2.34s.32,.42,.36,.61,.37,.11,.55,.44-.52,.32-.52,.32c0,0-.35-.47-.43-.5s-.15,.05-.15,.05c0,0-.17-.05-.21-.44s-.34-1.41-.34-1.41c0,0-.3-.86-.43-1.36s-.57-1.22-.57-1.22c0,0-.67,.97-.7,1.28s-.52,1.26-.57,1.37-.29,1.1-.2,1.52,.3,.55,.3,.55c0,0,.16,.44-.32,.37s-.33-.76-.33-.76c0,0-.11,.02-.19,.11s.02-.26,.13-.83,.23-1.9,.41-2.4,.19-1.77,.19-1.77c0,0-1.46,.13-2.79-.39,0,0,0-.28-.94,.53s-1.47,1.09-1.47,1.09c0,0-.32,.66-.68,.99s-.47,2.06-.47,2.06c0,0,.13,.47,.19,.57s.42,.28,.37,.41,.42,.4,.02,.4-.6-.06-.7-.49-.24-.29-.24-.29c0,0-.13,.26-.16,.11s-.18-.29,.13-1.22,.36-1.67,.36-1.67c0,0-.24-.97,.13-1.18s.76-.57,.76-.57c0,0,.37-.93,.31-1.13-.06-.18-.61-1.06-.58-1.85,0-.09,.01-.18,.03-.26,0,0-.41-.31,.47-.76s1.69-.84,3.5-.23,3.08,.16,3.08,.16c0,0,1.05-.85,1.15-1.57s.16-.88,.16-.88c0,0-.3-.64-.18-.98l.11,.26Z"/><path class="cls-2" d="M11.87,5.34s.55-.28,.79-.31c0,0,.44-.21,.49-.16s-.21,.62-.35,.7-.17,.21-.48,.22"/><path class="cls-2" d="M11.61,5.33s.1-.63,.28-1.07-.36-1.52-.36-1.52l-1.01-2.09,1.09,1.52s.24,.14,.49-.3,.45-1.22,.45-1.22c0,0,.16,1.15-.45,2.09-.14,.25,.06,.99,.06,.99,0,0,.06,.36,.3,.47s.57,.18,.85-.1,.64-.62,.88-1.35,.18-.94,.18-.94c0,0,.33,.81-.15,1.84s.59,.19,.59,.19c0,0,.54-.43,.63-.86,0,0,.28,1.13-1.29,1.5s-1.96,.28-1.96,.28c0,0-.33,.33-.24,.53s-.34,.04-.34,.04Z"/><path class="cls-2" d="M11.44,4.85c-.15-.24-.71-.53-1.03-.73s-.41-.44-.41-.44c0,0,.32-.15,.55-.21s.79-.43,.79-.43c0,0-.71,.25-.96,.18s-.29-.24-.18-.63,.24-.55,.24-.55c0,0-.18,.06-.36,.4-.23,.58-.29,1.04-.42,.99s-.76-.35-.83-.93-.08-.82,.07-1.01c.2-.28,.25-.37,.25-.37,0,0-.27,.05-.44,.28s-.22,.48-.22,.48V.96s-.42,.9,0,1.71,1.51,1.49,1.51,1.49c0,0,.74,.43,.98,.69s.3,.54,.3,.54l.38,.03s-.07-.32-.22-.56Z"/></g><rect class="cls-2" x="16.01" y="3.14" width=".46" height="28.59" transform="translate(17.08 -6.38) rotate(45)"/></g></svg>