<?xml version="1.0" encoding="UTF-8"?><svg id="how_to_prevent" xmlns="http://www.w3.org/2000/svg" viewBox="0 0 32 32"><defs><style>.cls-1{fill:#7db0d1;}.cls-2{fill:#77a8c7;}.cls-3{fill:#82b7d9;}</style></defs><g id="ic_facilities"><g><g><path class="cls-1" d="M17.44,29.48l-.11,.17c.02,.06,.04,.11,.04,.13h.02l.02,.05,.09,.19-.09,.23s-.07,.2,.94-.26c.13-.07,.49-.22,1.03-.46h.42l.07-.16,.42-.09,.15-.06s-.07,0,.31-.13l.31-.13,.33-.13s.37-.21,.44-.26l.09-.04,.09-.04s.4-.08,.5-.12c.11-.07,.44-.26,.44-.26l.07-.03h.33l.07-.16,.42-.09,.15-.06s-.07,0,.31-.13l.31-.13,.33-.13s.37-.21,.44-.26c.09-.06,.18-.07,.18-.07,0,0,.4-.08,.5-.12l.44-.26,.64-.3c.53-.2,.9-.35,1.03-.38,1.03-.38,.95-.51,.95-.51l-.11-.14,.11-.27,.02-.07s.02-.09,.04-.16l-.11-.08-.11-.08c-.13-.07,.2-.27,.2-.27l-.17-.14-.06-.08c-.06-.08,.22-.21,.22-.21v-.23l-.06-.21-.15-.07,.27-.36-.07-.03c-.09,0-.2-.25-.2-.25v-.36l-.03-.51,.22-.28-.02-.55c-.02-.55,0,0-.17-.08-.17-.08,0,0-.02-.14-.02-.12,.12-.41,.12-.41l-.13-.32,.02-.32,.14-.33-.04-.32s-.09-.05-.26-.19l-.06-.04s-.02-.01,0-.02c-.06-.06,0-.17,.02-.26,.02-.09,.24-.33,.25-.44,.02-.13-.04-.3-.04-.3l-.28-.03c.26-.15,.38-.37,.38-.37,0,0-.11-.08-.29,0-.35,.18-.22,.03-.96,.18-.18,.03-.48,.15-.83,.32,0,0-.53,.32-.6,.35s-.75,.37-1.03,.48c-.16,.07-.33,.16-.46,.21h-.02c-.11,.05-.18,.06-.22,.06-.02,0-.02-.01-.04-.03,0,0-.02,0-.04,0-.07,.03-.18,.03-.33,.07-.06,0-.13,.03-.18,.05l-.06,.02c-.16,.05-.37,.13-.59,.24,0,0-.16,.09-.31,.17l-.15,.02c-.37,.13-.66,.25-.84,.37-.2,.12-.4,.25-.57,.38-.02,0-.02,.03-.04,.04-.18,.08-.37,.15-.42,.13-.09-.03-.22-.08-.22-.08l-.31,.13s-.82,.46-.88,.46c-.06,0-.28,.03-.28,.03-.37,.13-.66,.25-.84,.37-.73,.45-1.37,1.02-.86,.89l-.27,.26s-.05,.21-.03,.33c.02,.1,.24,.15,.26,.23,.02,.08,.08,.14,.02,.24,.02,0,.02-.03,0,.02l-.05,.08c-.16,.28-.25,.4-.25,.4l-.02,.34,.13,.22,.02,.31-.12,.43s.15,.17,.13,.3c-.02,.15,.15-.06-.02,.15-.16,.21-.13-.36-.16,.21v.57l.21,.1-.03,.54,.02,.35s-.11,.34-.2,.42l-.07,.09,.28,.14-.15,.18-.05,.25v.23s.3-.1,.22,.04l-.05,.13-.16,.28s.33-.07,.2,.1l-.11,.17Z"/><path class="cls-1" d="M24.06,19.23c.06-.02,.13-.05,.18-.05,.15-.04,.26-.04,.33-.07-.07-.01-.15-.04-.15-.04l-.31,.13s-.02,0-.05,.04Z"/><path class="cls-1" d="M24.61,19.11s.02,.03,.04,.03c.04,0,.11,0,.22-.05-.06,0-.13,.01-.26,.02Z"/></g><g><path class="cls-3" d="M16.92,21.79l.03,.09c.08,.02,.17,.04,.19,.05h.1l.33,.08,.12,.11s.11,.1,1-.28c.1-.05,.44-.18,.91-.38l.57-.08-.07-.08,.48-.11,.14-.05s-.09,.02,.29-.11l.29-.11,.31-.12s.27-.16,.32-.19l.09-.03,.09-.03s.46-.11,.55-.14l.32-.19,.07-.03,.44-.06-.07-.08,.48-.11,.14-.05s-.09,.02,.29-.11l.29-.11,.31-.12s.27-.16,.32-.19c.06-.04,.17-.07,.17-.07,0,0,.46-.11,.55-.14l.32-.19,.55-.25c.52-.18,.86-.31,1-.35,1-.35,.75-.39,.75-.39l-.3-.04-.14-.14-.05-.03s-.07-.04-.12-.08h-.24l-.24-.03c-.25,0-.01-.15-.01-.15l-.38-.03-.16-.02c-.16-.02,.07-.13,.07-.13l-.25-.1-.3-.08h-.27v-.21h-.15c-.13,.01-.54-.07-.54-.07l-.36-.16-.59-.21v-.16l-.61-.23c-.62-.23,0,0-.31,0-.31,0,0,0-.17-.06-.15-.05-.26-.2-.26-.2l-.52-.11-.32-.14-.15-.17-.39-.13s-.17,0-.55-.03h-.12c-.06-.02-.04,0-.02-.02-.14-.02-.18-.07-.25-.11-.07-.04-.02-.18-.12-.23-.12-.06-.37-.12-.37-.12l-.41,.04c.19-.11,.13-.23,.13-.23,0,0-.24-.01-.41,.05-.28,.14-.27,.05-1.11,.25-.21,.05-.49,.15-.79,.28,0,0-.38,.23-.45,.26s-.63,.29-.89,.39c-.15,.06-.28,.13-.4,.17h-.02c-.1,.05-.19,.06-.25,.07-.02,0-.04,0-.08,0,0,0-.02,0-.06,0-.07,.03-.21,.05-.37,.09-.07,.01-.14,.04-.19,.06l-.05,.02c-.18,.05-.36,.12-.54,.21,0,0-.13,.07-.25,.13l-.18,.03c-.36,.12-.64,.23-.76,.31-.14,.09-.29,.18-.37,.26-.02,0,0,.02-.01,.02-.17,.07-.34,.13-.44,.13-.15,0-.38,0-.38,0l-.29,.11s-.63,.35-.71,.36c-.07,.01-.34,.06-.34,.06-.36,.12-.64,.23-.76,.31-.53,.32-.79,.68-.22,.54l-.1,.16s.15,.1,.3,.15c.13,.04,.49,.02,.59,.05,.11,.03,.25,.05,.28,.1,.02,0,0-.02,.02,0l.02,.05c.07,.15,.07,.22,.07,.22l.34,.15,.41,.07,.35,.13,.28,.21s.38,.05,.5,.11c.14,.07,.14-.05,.14,.07,0,.12-.57-.13,0,.12l.58,.25h.4l.52,.24,.4,.15s.21,.16,.17,.21v.05h.52v.11l.19,.12,.25,.1s.3-.1,.34-.02l.06,.06,.07,.15s.37-.09,.39,0l.03,.09Z"/><path class="cls-3" d="M15.09,16.19c.05-.02,.12-.05,.19-.06,.16-.04,.31-.06,.37-.09-.11,0-.25,0-.25,0l-.29,.11s-.02,0-.03,.03Z"/><path class="cls-3" d="M15.72,16.04s.06,.01,.08,0c.06,0,.15-.02,.25-.06-.07,.01-.16,.03-.33,.06Z"/></g><path class="cls-2" d="M25.44,18.8s.66,4.44,.14,8.27l-.15,.09c.18-2.95,.13-5.71-.21-8.25l.22-.1Z"/><path class="cls-2" d="M21.46,20.81s.55,4.69,0,7.98l-.18,.11c.23-2.67,.24-5.35-.03-8.03,0-.05,.21-.06,.21-.06Z"/><path class="cls-2" d="M12.38,17.55s5.83,1.54,8.91,3.35l.2-.06c-2.37-1.63-7.4-3.3-8.93-3.41-.05,0-.18,.11-.18,.11Z"/><path class="cls-2" d="M16.47,15.81s5.69,1.43,8.76,3.12l.19-.06c-2.38-1.53-7.31-3.08-8.79-3.17-.05,0-.17,.11-.17,.11Z"/><g><path class="cls-2" d="M18.14,29.6l.08,.16c-.01,.06-.02,.12-.02,.14v.02l-.02,.04-.06,.21-.59,.08s-.35-.16-.73-.33l-.3,.05-.06-.15-.3-.03-.1-.04s.05,0-.22-.09l-.22-.09-.24-.09s-.26-.17-.32-.21l-.07-.03-.07-.03s-.29-.03-.35-.05l-.32-.21-.05-.02-.23,.03-.06-.15-.3-.03-.1-.04s.05,0-.22-.09l-.22-.09-.24-.09s-.26-.17-.32-.21c-.07-.05-.13-.05-.13-.05,0,0-.29-.03-.35-.05l-.32-.21-.46-.22c-.38-.13-.64-.23-.73-.25-.73-.25-.68-.4-.68-.4l.07-.16-.08-.26v-.07s-.03-.09-.04-.16l.08-.1,.08-.1c.09-.09-.15-.25-.15-.25l.11-.17,.04-.09c.04-.09-.16-.19-.16-.19v-.23l.03-.22,.1-.09-.2-.33,.05-.04c.06-.02,.14-.28,.14-.28l-.02-.37v-.52l-.15-.25v-.57c0-.57,0,0,.11-.1,.11-.1,0,0,0-.14,.01-.12-.1-.4-.1-.4l.08-.35-.02-.32-.11-.32,.02-.33s.06-.06,.18-.23l.04-.05s.01-.02,0-.02c.04-.07,0-.17-.02-.26-.01-.09-.18-.3-.19-.41-.02-.13,.02-.31,.02-.31l.19-.07c-.18-.11-.28-.32-.28-.32,0,0,.08-.1,.21-.05,.25,.14,.16,0,.68,.06,.13,0,.34,.09,.59,.21,0,0,.38,.26,.43,.28s.54,.27,.73,.35c.12,.05,.24,.11,.33,.15h.01c.08,.04,.13,.04,.16,.02,.01,0,.01-.02,.03-.03,0,0,.01,0,.03-.01,.05,.02,.13,0,.23,.03,.04,0,.09,.01,.13,.03l.04,.02c.12,.03,.26,.08,.42,.16,0,0,.12,.07,.22,.13h.1c.26,.08,.47,.16,.6,.26,.14,.1,.29,.2,.41,.31,.01,0,.01,.03,.03,.03,.13,.05,.26,.1,.3,.08,.06-.04,.15-.11,.15-.11l.22,.09s.59,.36,.63,.35c.04,0,.19,0,.19,0,.26,.08,.47,.16,.6,.26,.53,.35,.99,.85,.63,.79l.2,.23s.04,.21,.03,.33c-.01,.1-.16,.19-.18,.27-.01,.08-.05,.15,0,.25-.01,0-.01-.03,0,.02l.04,.08c.12,.26,.19,.37,.19,.37l.02,.35-.09,.24v.31l.09,.42s-.1,.19-.08,.33c.02,.15-.1-.04,.02,.15,.12,.2,.08-.39,.12,.2l.03,.58-.15,.13,.04,.54v.36s.08,.33,.15,.4l.05,.08-.19,.18,.11,.17,.04,.25v.23s-.2-.06-.15,.07l.04,.12,.12,.26s-.23-.03-.14,.13l.08,.16Z"/><path class="cls-2" d="M13.19,20.05s-.09-.04-.13-.03c-.1-.02-.18,0-.23-.03,.05-.02,.1-.07,.1-.07l.22,.09s.01,0,.04,.04Z"/><path class="cls-2" d="M12.8,20.01s-.01,.04-.03,.03c-.03,.01-.08,.01-.16-.02,.04,0,.09,0,.18-.01Z"/></g></g></g></svg>