<?xml version="1.0" encoding="UTF-8"?><svg id="how_to_prevent" xmlns="http://www.w3.org/2000/svg" viewBox="0 0 32 32"><defs><style>.cls-1{fill:#77a8c7;}.cls-2{fill:#82b7d9;}</style></defs><g id="ic_facilities"><path class="cls-2" d="M14.68,13.91s.68,2.16,1.37,2.52,.58-8.88,5.73-12.04c0,0-1.86,5.53-.23,7.51,0,0-.03-3.2,2.44-4.25,0,0,.42,3.68,3.15,7.25s3.63,6.86,3.05,9.46-2.93,6.26-7.64,6.41-7.87-2.42-8.97-5.57-1.31-8.36,1.1-11.3Z"/><path class="cls-1" d="M18.95,20.5s-.65,3.96,2.04,4.29,3.35-2.78,2.86-4.29-1.63-3.26-.41-5.2c0,0-.3,1.85,.91,3.28s2.72,4.61,1.13,8c0,0,1.06-1.35,1.06-1.96s.35,6.26-4.86,6.16-6.98-8.94-2.74-10.29Z"/></g></svg>