<?xml version="1.0" encoding="UTF-8"?><svg id="how_to_prevent" xmlns="http://www.w3.org/2000/svg" viewBox="0 0 32 32"><defs><style>.cls-1,.cls-2{fill:#77a8c7;}.cls-3{fill:#82b7d9;}.cls-2{fill-rule:evenodd;}</style></defs><g id="ic_slaugh"><rect class="cls-3" x="14.47" y="7.13" width="15.85" height="23.28"/><rect class="cls-1" x="15.99" y="8.74" width="11.31" height="1.66"/><rect class="cls-1" x="15.99" y="11.22" width="6.39" height="1.05"/><rect class="cls-1" x="15.99" y="12.46" width="4.53" height="1.05"/><rect class="cls-1" x="15.99" y="13.82" width="5.91" height="1.05"/><rect class="cls-1" x="23.5" y="28.76" width="5.91" height="1.05"/><rect class="cls-1" x="25.07" y="27.37" width="4.35" height="1.05"/><path class="cls-2" d="M19.94,25.37s-.1,.11-.18,.19c-.18,.18-.64,.6-.84,.73-.08,.05-.17,.08-.25,.12-.12,.06-.32,.08-.42,.06-.08,0-.13,0-.2-.02-.22-.06-.38-.19-.42-.24-.29-.28-.35-.74-.29-1.08,.05-.31,.21-.54,.27-.61,.05-.06,.09-.11,.15-.18,.02-.03,.41-.38,.52-.49,.03-.03,.05-.05,.06-.06,.33,.49,.78,1,1.38,1.43,.08,.05,.15,.1,.23,.15Z"/><path class="cls-2" d="M21.29,23.91c-.12,.13-.22,.24-.29,.31-.08,.09-.13,.14-.24,.26l-.18,.19c-.07,.08-.52,.53-.65,.67-.32-.2-.72-.5-1.11-.94-.19-.22-.35-.44-.48-.64,.35-.36,.61-.61,.78-.78,.06-.06,.16-.16,.3-.31,.11-.11,.25-.26,.41-.43,.05,.09,.14,.22,.25,.39,.5,.77,.71,.95,.83,1.04,.1,.08,.22,.17,.37,.24Z"/><path class="cls-2" d="M22.77,22.3c-.06,.06-.15,.16-.27,.29-.16,.18-.21,.25-.37,.41-.12,.12-.16,.17-.36,.4-.11,.12-.27,.29-.46,.5-.3-.17-.5-.36-.63-.5-.07-.07-.14-.16-.4-.55-.18-.26-.32-.48-.42-.63,.13-.14,.32-.34,.55-.59h0c.23-.26,.47-.51,.7-.77,.09,.12,.19,.25,.3,.38,.45,.51,.94,.84,1.34,1.06Z"/><path class="cls-2" d="M24.22,20.64c-.13,.15-.24,.28-.32,.37-.59,.68-.94,1.06-1.05,1.18l-.07,.07c-.39-.23-.85-.56-1.29-1.02-.13-.14-.25-.28-.36-.42,.02-.03,.06-.06,.09-.1,0-.01,.04-.05,.1-.11,.07-.08,.12-.13,.13-.16,.17-.19,.32-.41,.49-.61,.03-.04,.11-.14,.22-.26,.04-.04,.06-.06,.08-.09,.07-.07,.16-.19,.26-.34,.1,.08,.26,.22,.45,.39,.28,.27,.38,.4,.59,.6,.14,.13,.36,.32,.68,.5Z"/><path class="cls-2" d="M22.55,19.11c.11-.14,.19-.25,.25-.32,.2-.25,.3-.4,.48-.59,.04-.04,.07-.08,.12-.12,.05-.05,.2-.18,.44-.27,.08-.03,.19-.07,.33-.09h.25c.07,.02,.17,.04,.27,.1,.07,.04,.33,.19,.49,.5,.13,.25,.09,.5,.08,.64-.02,.18-.07,.32-.11,.41-.03,.07-.07,.18-.15,.31-.07,.11-.14,.2-.2,.27l-.2,.24c-.09,.11-.12,.14-.2,.24-.06,.07-.1,.12-.13,.16-.08-.04-.22-.12-.38-.23-.35-.25-.49-.46-.93-.89-.09-.09-.23-.22-.4-.37Z"/><path class="cls-2" d="M24.22,17.64c.03-.06,.07-.14,.11-.25,.01-.03,.1-.25,.16-.5,.12-.48,.1-1.06,.29-1.5,.06-.15,.2-.24,.32-.35,.17-.16,.35-.31,.5-.49,.15-.18,.21-.46,.24-.72,.01-.11,0-.23,0-.35,0-.08-.02-.19-.02-.25h0l.03,.12s.01,.15,.03,.21c.06,.19-.01,.62-.07,.77-.15,.37-.46,.62-.71,.91-.12,.14-.21,.33-.27,.51-.04,.13-.07,.29-.08,.44-.01,.15,.03,.3,.02,.45-.03,.25-.09,.45-.21,.77-.04,.1-.08,.19-.1,.24h-.25Z"/><path class="cls-2" d="M22.11,19.52l-.14-.52c-.07-.24-.17-.57-.31-.97-.13-.36-.29-.81-.49-1.23-.35-.71-.72-1.48-1.48-1.88-.26-.14-.76-.31-1.31-.35-.16-.01-.38-.02-.38-.03,0-.01,.29-.04,.57-.02,.51,.03,.89,.21,1.04,.28,.7,.32,1.11,.87,1.37,1.2,.5,.65,.76,1.32,.91,1.82,.12,.3,.23,.61,.35,.93,.05,.15,.1,.29,.15,.44l-.26,.34Z"/><path class="cls-2" d="M20.68,21.21c-.15,0-.27-.04-.36-.06-.17-.05-.29-.08-.4-.19-.06-.06-.1-.13-.11-.16-.05-.11-.08-.22-.08-.34-.01-.28,.1-.4,.22-.94,.03-.14,.08-.35,.09-.63,0-.07,0-.13,0-.17,0-.36-.07-.66-.12-.85-.04-.09-.07-.2-.12-.29-.11-.21-.21-.37-.28-.46-.32-.43-.88-.91-.95-.96-.12-.1-.25-.2-.39-.3-.07-.05-.14-.1-.21-.15h.02c.05,.02,.12,.06,.21,.1,0,0,.39,.22,.72,.49,.3,.25,.73,.61,.98,1.21,.05,.11,.31,.75,.19,1.44-.05,.3-.08,.56-.15,1.07-.02,.13-.01,.19,0,.24,.08,.42,.69,.62,.99,.7l-.23,.24Z"/><path class="cls-2" d="M18.78,23.19c-.02-.1-.06-.27-.17-.43-.19-.28-.45-.4-.54-.43-.06-.01-.52-.13-.72-.58-.19-.42-.03-.83,.02-.94,.04-.1,.09-.18,.13-.24v.02c-.03,.08-.08,.2-.11,.36-.04,.19-.09,.4-.01,.61,.06,.16,.16,.26,.26,.35,.29,.27,.72,.34,1.01,.62,.15,.14,.22,.29,.24,.33,.04,.08,.05,.15,.07,.2l-.16,.15Z"/><path class="cls-2" d="M14.58,25.18c.17,.14,.31,.26,.41,.34,.12,.13,.39,.37,.79,.48,.16,.04,.51,.14,.86-.02,.17-.08,.29-.19,.34-.24,.11-.11,.18-.22,.23-.3,0,.04,0,.1,0,.16,.01,.11,.05,.2,.08,.26-.03,.02-.08,.06-.14,.11-.13,.1-.65,.47-1.25,.37-.14-.03-.24-.07-.36-.12"/><path class="cls-2" d="M20.68,24.74s.06,.09,.09,.16c.02,.04,.25,.49,.1,.83-.08,.19-.25,.31-.42,.44-.46,.34-1.15,.58-1.24,1.18-.03,.22,.08,.51,.17,.68,.18,.33,.38,.6,.62,.85,.09,.09,.18,.19,.27,.28,.04,.04,.09,.07,.12,.13h-.02c-.13-.09-.23-.23-.34-.34-.31-.31-.62-.65-.85-1.09-.21-.4-.14-.82,.06-1.04,.49-.57,1.18-.55,1.38-1.13,.09-.28,0-.57-.11-.78l.17-.16Z"/><path class="cls-2" d="M21.89,23.43c0,.09,.02,.22,.05,.37,.05,.21,.13,.52,.38,.76,.07,.07,.2,.17,.41,.23,0,0,.19,.08,.51,.28,.22,.13,.4,.31,.56,.46,.41,.39,.67,.76,.84,1.01,.14,.2,.25,.37,.31,.49h-.02s-.04-.06-.07-.1c0,0-.17-.25-.31-.44-.39-.53-.77-.86-.77-.86-.28-.27-.61-.5-.96-.65-.35-.16-.54-.15-.75-.38-.18-.2-.27-.45-.29-.53-.05-.17-.07-.31-.08-.42l.19-.21Z"/><path class="cls-2" d="M22.58,22.67c.07,0,.18,0,.3,.01,.13,.02,.32,.08,.61,.3,.11,.08,.23,.17,.49,.46,.44,.49,.66,.77,.98,.99,.21,.14,.39,.22,.5,.26,.08,.03,.2,.07,.34,.09,.37,.07,.68,.02,.97-.04,.12-.02,.22-.04,.28-.06l.56-.18v.02h0c-.15,.08-.38,.18-.65,.26-.35,.1-.86,.24-1.46,.08-.53-.14-.97-.5-1.25-.77-.16-.16-.31-.33-.47-.5-.1-.1-.23-.19-.33-.28-.06-.06-.14-.13-.22-.16-.15-.07-.27-.12-.35-.14-.13-.03-.33-.07-.59-.04l.29-.31Z"/><path class="cls-2" d="M24.86,20.07c.16,.32,.31,.57,.43,.76,.43,.65,.97,1.49,1.81,1.79,.35,.13,.63,.19,.63,.19,.45,.11,.64,.09,.87,.28,.07,.06,.23,.19,.26,.4,.02,.11-.01,.21-.03,.27h-.02s0-.08,0-.14c-.03-.24-.22-.39-.28-.44-.19-.15-.39-.17-.6-.21,0,0-.2-.03-.93-.21-.96-.24-1.62-1.25-1.99-1.81-.17-.26-.29-.48-.36-.63l.2-.24Z"/><path class="cls-2" d="M25.31,19.2c.08,.01,.21,.03,.36,.04,.79,.03,1.9-.24,1.93-.75,0-.16-.1-.5-.33-.74-.05-.05-.13-.09-.17-.16,.04,.02,.09,.06,.15,.1,.1,.08,.44,.36,.42,.73-.01,.23-.15,.4-.22,.46-.11,.1-.21,.17-.28,.21-.03,.02-.14,.08-.3,.12-.09,.03-.17,.04-.2,.04-.5,.07-.58,.12-.95,.15-.12,0-.28,.02-.47,.02l.07-.22Z"/></g></svg>