<?xml version="1.0" encoding="UTF-8"?><svg id="Where_is_found" xmlns="http://www.w3.org/2000/svg" viewBox="0 0 32 32"><defs><style>.cls-1{fill:#b5b5b5;}</style></defs><g id="ic_chinchilla"><path class="cls-1" d="M21.16,6.99v-.66s.13-.41-.24-.88-.67-1.35-.67-1.35c0,0-.19-1.31,1.22-.37s2.66,2.02,2.72,2.83,.07,.43,.07,.43c0,0,.51,.24,.75,.52s.66,.84,.66,.84c0,0,.56,.13,1.31,1.24s1.69,2.15,1.69,2.15c0,0,1.57,1.67,1.46,3.03s-2.62,2.28-2.62,2.28c0,0,.24,.64-.32,1.48s-1.52,2.49-1.52,2.49c0,0,.04,1.05,.21,1.31s.45,.88,.3,1.27-.67,.86-.67,.86c0,0-.52,.06-.64-.3s.21-.94,.21-.94l-.19-.22s-.24,.21-.52-.41c0,0-.41-.21-.47,.07,0,0,.71,.77,.69,1.33s-.3,.79-.3,.79c0,0-.73,.06-.92-.45s-.21-.64-.75-.71c0,0-.67,1.55-3.37,2.58h2.7s.71-.32,1.29,.24,.36,1.03,.36,1.03c0,0-.86,.49-2.98,.09,0,0,1.12,.82-.07,.97s-9.01-.09-9.76-1.05c-.21-.26,0-.37,0-.37,0,0-.54-.09-1.16-.36s-1.54-.07-2.02,.15-2.28,.92-3.99-.22-2.17-2.9-2.17-2.9c0,0-1.04-4.5,2.35-4.24s2.34,3.57,2.27,3.89-.1,1.47,.99,.82c.69-.48,1.06-.87,.58-2.28s-.88-8.84,9.2-11.39c0,0,.25-.2-.45-1.09s-1.47-2.6,.18-3.17,3.29,1.33,3.29,1.33c0,0,.52-.66,1.35-.69Z"/></g></svg>