<?xml version="1.0" encoding="UTF-8"?><svg id="ic_children" xmlns="http://www.w3.org/2000/svg" viewBox="0 0 32 32"><defs><style>.cls-1{fill:#fff;}.cls-2{fill:#cab099;}.cls-3{fill:#c9b299;}.cls-4{fill:#c4ad95;}.cls-5{fill:#e2d6c7;}</style></defs><path class="cls-4" d="M20.17,26.32l-2.56-.75-1.89,1.84s1.22,1.4,2.78,.73c0,0,1.95,1.13,2.76,.58s-1.09-2.41-1.09-2.41Z"/><path class="cls-4" d="M10.26,26.28l2.56-.75,1.89,1.84s-1.22,1.4-2.78,.73c0,0-1.95,1.13-2.76,.58s1.09-2.41,1.09-2.41Z"/><path class="cls-4" d="M21.53,22.48c0,3.13-2.96,4.94-6.09,4.94s-6.09-2-6.09-5.13,3.05-6.12,6.19-6.12,5.99,3.18,5.99,6.32Z"/><path class="cls-5" d="M13.49,18.24s-1.95,2.62,.4,5.12c0,0,1.59,1.69,.99,3.21h.68s-.45-1.06,1.78-3.21,1.27-4.23,.89-5.2-4.74,.08-4.74,.08Z"/><path class="cls-2" d="M23.49,14.21c0,2.18-1.36,3.72-3.29,4.52-1.21,.5-2.63,.7-4.09,.6-1.72-.13-3.37-.61-4.7-1.4h0c-1.74-1.05-2.92-2.61-2.92-4.63,0-1.12,.38-2.22,1.03-3.19,.2-.31,.43-.61,.7-.89,.3,.46,.78,.75,1.32,.75,.95,0,1.71-.89,1.71-2,0-.29-.05-.57-.15-.82,.34-.16,.69-.28,1.04-.37,.65-.2,1.31-.3,1.98-.3,1.43,0,2.82,.59,4.01,1.51,.32,.26,.64,.54,.93,.85-.15,.3-.24,.64-.24,1.01,0,1.11,.76,2,1.71,2,.16,0,.31-.03,.46-.08,.1,.24,.18,.48,.25,.72,.17,.58,.26,1.16,.26,1.72Z"/><path class="cls-5" d="M18.96,17.12c-.15,1.43-2.08,1.84-3.73,1.67s-3.22-1.51-3.07-2.94,1.98-2.4,3.62-2.23,3.33,2.07,3.18,3.5Z"/><path d="M16.96,14.78c-.17,.28-.78,.71-1.25,.62s-1.06-.73-1-1.06,.66-.4,1.12-.32,1.29,.49,1.12,.76Z"/><ellipse cx="14.09" cy="12.45" rx=".94" ry=".62" transform="translate(-.8 23.93) rotate(-79.08)"/><ellipse cx="18.31" cy="13.24" rx=".94" ry=".62" transform="translate(4.32 30.98) rotate(-87.63)"/><circle class="cls-1" cx="14.18" cy="12.27" r=".28"/><circle class="cls-1" cx="18.31" cy="12.92" r=".28"/><path class="cls-2" d="M14.13,6.78c-.42-1.08-1.46-1.97-2.64-1.97-1.55,0-2.96,1.82-2.96,3.29,0,.81,.38,1.53,.98,2.01,.49,.41,1.13,.65,1.82,.65,1.54,0,2.99-1.51,2.99-2.98,0-.34-.07-.68-.19-1Zm-2.6,3.19c-.54,0-1.02-.29-1.32-.75,.78-.87,1.78-1.59,2.88-2.07,.1,.25,.15,.53,.15,.82,0,1.11-.76,2-1.71,2Z"/><path class="cls-3" d="M22.45,6.59c-.97,0-1.83,.59-2.33,1.4-.31,.48-.49,1.04-.49,1.58,0,1.47,1.44,2.98,2.99,2.98,.21,0,.42-.02,.61-.06,1.25-.27,2.18-1.33,2.18-2.6,0-1.47-1.41-3.3-2.96-3.3Zm.07,5.26c-.95,0-1.71-.89-1.71-2,0-.37,.09-.71,.24-1.01,.83,.85,1.5,1.87,1.93,2.93-.15,.05-.3,.08-.46,.08Z"/><path class="cls-4" d="M11.6,25.76c0,1.96-1.78,3.66-3.69,3.66s-3.2-1.7-3.2-3.66,1.24-3.53,3.15-3.53,3.74,1.57,3.74,3.53Z"/><path class="cls-4" d="M18.59,25.76c0,1.96,1.78,3.66,3.69,3.66s3.2-1.7,3.2-3.66-1.24-3.53-3.15-3.53-3.74,1.57-3.74,3.53Z"/><ellipse class="cls-5" cx="6.2" cy="25.92" rx=".55" ry=".69" transform="translate(-17.32 13.38) rotate(-48.48)"/><ellipse class="cls-5" cx="7.01" cy="24.63" rx=".55" ry=".69" transform="translate(-9.29 4.88) rotate(-23.63)"/><ellipse class="cls-5" cx="8.48" cy="24.21" rx=".55" ry=".69" transform="translate(-3.63 1.6) rotate(-8.86)"/><ellipse class="cls-5" cx="9.76" cy="25.01" rx=".69" ry=".55" transform="translate(-16.85 28.59) rotate(-76.32)"/><ellipse class="cls-5" cx="20.45" cy="24.88" rx=".55" ry=".69" transform="translate(-6.73 7.59) rotate(-18.12)"/><ellipse class="cls-5" cx="21.8" cy="24.19" rx=".69" ry=".55" transform="translate(-4.77 43) rotate(-83.27)"/><ellipse class="cls-5" cx="23.28" cy="24.56" rx=".69" ry=".55" transform="translate(-8.1 37.22) rotate(-68.5)"/><ellipse class="cls-5" cx="23.98" cy="25.9" rx=".69" ry=".55" transform="translate(-11.31 25.14) rotate(-45.96)"/><path class="cls-5" d="M9.4,26.24c-.54-.36-1.12-.47-1.49-.31-.4,.11-.76,.53-.9,1.09-.18,.73,.1,1.43,.63,1.56,.42,.1,.59-.49,1.11-.67,.62-.21,1.18,.27,1.41-.07,.28-.41-.07-1.12-.76-1.59Z"/><path class="cls-5" d="M20.84,26.24c.54-.36,1.12-.47,1.49-.31,.4,.11,.76,.53,.9,1.09,.18,.73-.1,1.43-.63,1.56-.42,.1-.59-.49-1.11-.67-.62-.21-1.18,.27-1.41-.07-.28-.41,.07-1.12,.76-1.59Z"/><path class="cls-2" d="M13.24,7.97c0,1.11-.76,2-1.71,2-.54,0-1.02-.29-1.32-.75,.78-.87,1.78-1.59,2.88-2.07,.1,.25,.15,.53,.15,.82Z"/><path class="cls-5" d="M13.09,7.15c-1.1,.48-2.1,1.2-2.88,2.07-.24-.35-.38-.78-.38-1.25,0-1.1,.76-2,1.7-2,.7,0,1.29,.49,1.56,1.18Z"/><path class="cls-2" d="M22.98,11.77c-.15,.05-.3,.08-.46,.08-.95,0-1.71-.89-1.71-2,0-.37,.09-.71,.24-1.01,.83,.85,1.5,1.87,1.93,2.93Z"/><path class="cls-5" d="M24.23,9.85c0,.92-.53,1.69-1.25,1.92-.43-1.06-1.1-2.08-1.93-2.93,.29-.59,.84-.99,1.47-.99,.94,0,1.71,.9,1.71,2Z"/></svg>