<?xml version="1.0" encoding="UTF-8"?><svg id="Complications" xmlns="http://www.w3.org/2000/svg" viewBox="0 0 32 32"><defs><style>.cls-1{fill:#fff;}.cls-2{fill:#d99898;}</style></defs><g id="ic_pneumonia"><path class="cls-1" d="M7.28,8.36s1.45,2.79,1.87,3.16,1.19,1.04,2.55,.46-.55-.71-1.05,3.53c-.61,4.49,1.27,4.99,1.27,4.99,0,0-.51,.39-.89,1.11-.63,1.2-.94,2.69-.61,5.02s2.69,2.08,2.69,2.08l3.49,.08s2.58,.04,2.94-3.13c.29-3.74-.08-4.61-.79-5.28,.76-.1,.91-.58,1.21-2.58,.28-1.62,2.45-.69,4.78-5.82C26.98,6.08,22.11,.12,13.84,1.62,4.31,3.75,6.43,6.66,7.28,8.36Z"/><path class="cls-2" d="M8.82,5.34s3.33-2.6,8.01-2.19,5.99,2.83,5.99,2.83c0,0,1.97,3.57,.14,6.21s-3.74,3.24-3.85,3.41-.89,.64-.97,2.49-2.16,1.2-3.57,1.31-2.22-.59-2.19-1.81-.53-5.02,4.35-6.65c1.12-.39,.22-3.71-2.77-2.3s-3.19,2.41-4.18,.83-2.29-3.3-.94-4.13Z"/><path class="cls-2" d="M16.67,20.95c.5,.03,1.59,.23,1.65,1.76s0,2,0,2c0,0-.14,2.69-2.85,2.8s-3.71-.19-3.77-2.3,.8-4.02,2.33-4.18,2.15-.1,2.65-.07Z"/></g></svg>