<?xml version="1.0" encoding="UTF-8"?><svg id="Who_is_at_risk" xmlns="http://www.w3.org/2000/svg" viewBox="0 0 32 32"><defs><style>.cls-1{fill:#999;}.cls-1,.cls-2{stroke:#fff;stroke-miterlimit:10;}.cls-2{fill:#d99898;}</style></defs><g id="ic_cancer"><path class="cls-2" d="M22.33,5.32l-5.94-3.42c-.19-.11-.41-.11-.59,0l-5.94,3.42c-.19,.11-.3,.3-.3,.52v6.86c0,.18,.09,.34,.23,.45,.02,.02,.05,.04,.08,.06l5.94,3.43s.05,.03,.07,.03c.14,.07,.29,.07,.44,0,.03,0,.05,0,.08-.03l5.94-3.43s.06-.04,.08-.06c.14-.11,.22-.27,.22-.45V5.83c0-.22-.11-.41-.29-.52Zm-6.53,5.81l-1.17-.68c-.19-.11-.3-.3-.3-.52v-1.34c0-.21,.12-.4,.3-.51l1.17-.68c.18-.11,.4-.11,.59,0l1.17,.68c.19,.11,.29,.3,.29,.51v1.34c0,.22-.11,.41-.29,.52l-1.17,.68c-.19,.1-.41,.1-.59,0Z"/><path class="cls-2" d="M14.86,18.36s-.04-.04-.07-.06l-5.94-3.43s-.05-.03-.08-.03c-.17-.08-.36-.07-.52,.03l-5.94,3.43c-.19,.11-.29,.3-.29,.51v6.86c0,.22,.11,.41,.29,.51l5.94,3.43c.19,.11,.41,.11,.6,0l5.94-3.43c.18-.1,.29-.29,.29-.51v-6.86c0-.18-.09-.34-.23-.45Zm-4.55,4.56c0,.21-.12,.4-.3,.51l-1.16,.68c-.19,.11-.41,.11-.6,0l-1.17-.68c-.19-.11-.29-.3-.29-.51v-1.35c0-.21,.11-.4,.29-.51l1.17-.68c.19-.1,.41-.1,.6,0l1.16,.68c.19,.11,.3,.3,.3,.51v1.35Z"/><path class="cls-1" d="M29.98,18.36s-.04-.04-.07-.06l-5.94-3.43s-.05-.03-.08-.03c-.17-.08-.36-.07-.52,.03l-5.94,3.43c-.19,.11-.29,.3-.29,.51v6.86c0,.22,.11,.41,.29,.51l5.94,3.43c.19,.11,.41,.11,.6,0l5.94-3.43c.18-.1,.29-.29,.29-.51v-6.86c0-.18-.09-.34-.23-.45Zm-4.55,4.56c0,.21-.12,.4-.3,.51l-1.16,.68c-.19,.11-.41,.11-.6,0l-1.17-.68c-.19-.11-.29-.3-.29-.51v-1.35c0-.21,.11-.4,.29-.51l1.17-.68c.19-.1,.41-.1,.6,0l1.16,.68c.19,.11,.3,.3,.3,.51v1.35Z"/></g></svg>