<?xml version="1.0" encoding="UTF-8"?><svg id="ic__eldery" xmlns="http://www.w3.org/2000/svg" viewBox="0 0 32 32"><defs><style>.cls-1{fill:#664e3d;}.cls-2{fill:#8c6b53;}.cls-3{fill:#ddbf7c;}.cls-4{fill:#4c4c4c;}</style></defs><path class="cls-4" d="M7.03,27.1c3.45-4.42,16.14-20.82,12.51-16.14,0,0-.18-.8-1.25-.94L5.6,26.44c.2,.04,.46,.1,.75,.24,.3,.14,.54,.31,.68,.43Z"/><path class="cls-2" d="M19.51,10.99l2.18-2.88s1.05-1.44,2.82-1.22c1.77,.21,3.2,2.96,3.67,3.16,.57,.25,3.37-1.01,1.27-2.92-1.74-1.58-5.93-1.87-5.93-1.87,0,0-1.31-.17-3.14-1.65-.34-.27-.87,.31-.87,.31,0,0-1.16,.71-.1,1.42,1.56,1.04,.72,2.73-1.42,4.99,.17,0,.5,.04,.86,.2,.35,.15,.55,.35,.64,.46Z"/><path class="cls-3" d="M7.03,27.1c-.2,.26-.33,.42-.37,.47-.49,.58-.85,.64-1.43,.34-.58-.3-.05-.9-.05-.9l.44-.58c.2,.05,.45,.13,.71,.25,.31,.14,.54,.3,.7,.43Z"/><path class="cls-1" d="M19.33,10.62s2.66-3.63,2.63-4.17c-.03-.54,.64-.5,.84-.45,.2,.05,1.4,.49,1.97,.85-.15-.03-.35-.05-.59-.05-.05,0-.62,0-1.14,.17-.64,.21-.99,.61-1.19,.86-1.04,1.26-1.86,2.34-2.32,2.97-.03-.04-.07-.07-.11-.11-.03-.02-.06-.05-.09-.07Z"/></svg>