<?xml version="1.0" encoding="UTF-8"?><svg id="Who_is_at_risk" xmlns="http://www.w3.org/2000/svg" viewBox="0 0 32 32"><defs><style>.cls-1{fill:#fff;}.cls-2{fill:#b53a3d;}.cls-3{fill:#d99898;}.cls-4{fill:#c46769;}.cls-5{fill:#bf5456;}.cls-6{fill:#d9d9d9;}.cls-7{fill:#c98c8c;}</style></defs><g id="ic_appendicitis"><path class="cls-1" d="M2.71,5.87s2.91,1.45,3.99,3.47,2.01,5.76,4.78,9.14,4.38,4.27,7.34,5.96,5.13,2.88,6.46,4.74,.68,1.39,2.4,1.91c.28,.07,.51-2.36,0-4.78-.52-2.44-4.25-23.61-24.76-21.36l-.21,.92Z"/><path class="cls-7" d="M3.59,6.03s1.8,.88,2.66,1.97,2.85,5.26,2.85,5.26c0,0,2.16,4.73,5.08,7.2s6.69,4.25,6.69,4.25c0,0,3.95,2.47,4.9,4.34l1.67-.21S25.09,5.32,4.89,5.16l-1.3,.88Z"/><path class="cls-3" d="M27.15,28.87c.13,0,.25-.01,.33-.11,0,0-2.34-23.44-22.54-23.6l-.2,.13c13.24,1.84,19.64,10.95,22.4,23.58Z"/><path class="cls-3" d="M26.72,28.92l.26-.03S22.42,8.73,4.56,5.38l-.17,.11c11.17,2.77,18.47,12.68,22.33,23.43Z"/><path class="cls-3" d="M3.59,6.03s1.8,.88,2.66,1.97,2.85,5.26,2.85,5.26c0,0,2.16,4.73,5.08,7.2s6.69,4.25,6.69,4.25c0,0,3.95,2.47,4.9,4.34l.21-.03c-.04-.21-.82-2.01-2.68-3.51-3.04-2.46-7.87-5.14-8.9-6.31-3.99-4.55-6.61-10.88-7.61-11.73s-2.32-1.43-2.95-1.6l-.24,.17Z"/><path class="cls-3" d="M4.02,5.74s2.07,.48,3.33,1.97,3.36,5,3.36,5c0,0,2.57,4.52,5.49,6.98s4.85,3.29,6.29,4.49,2.05,1.27,3.75,4.8l.21-.03c-.1-.68-1.76-4.08-3.19-5.35-3.13-2.77-5.39-3.66-7.05-5.55-5.19-5.54-6.42-9.86-8.78-11.17-1.44-.86-2.53-1.16-3.15-1.33l-.26,.17Z"/><path class="cls-3" d="M9.14,7.78s3.66,4.34,5.64,7.38,8.51,7.84,8.51,7.84c0,0-4.67-10.02-14.14-15.21Z"/><path class="cls-6" d="M4.01,6.26c.05-.13,.17-.24,.34-.22,.04-.08,.09-.12,.21-.14,.08-.12,.14-.14,.29-.16,.03-.04,.03-.07,.12-.08,.03-.11,.13-.16,.23-.15,.04-.06,.08-.09,.17-.11,0-.12,.13-.23,.28-.22-.97-.09-2.48,.13-2.48,.13l-.11,.43,.96,.53Z"/><path class="cls-6" d="M25.73,28.98c.07,.02,.16,0,.22-.03,.08,.02,.17,0,.26-.04,.07,.03,.17,.01,.23-.03,.08,.04,.19,.01,.25-.03,.08,.04,.2,.02,.26-.03,.06,.02,.12,.02,.17-.03,.09,.06,.26,.05,.35-.03,.09,.93-.04,1.85-.04,1.85l-.91-.33-.8-1.29Z"/><g><circle class="cls-4" cx="18.98" cy="8.32" r="6.3"/><circle class="cls-5" cx="18.98" cy="8.32" r="4.58"/><circle class="cls-2" cx="18.98" cy="8.32" r="2.84"/></g></g></svg>