<?xml version="1.0" encoding="UTF-8"?><svg id="Who_is_at_risk" xmlns="http://www.w3.org/2000/svg" viewBox="0 0 32 32"><defs><style>.cls-1{fill:#c46164;stroke:#fff;stroke-miterlimit:10;stroke-width:.75px;}</style></defs><g id="ic_hiv"><path class="cls-1" d="M22.94,24.3l-4.16-8.21,3.42-6.77c1.21-2.39,.25-5.32-2.14-6.53v.03h-.01v-.03s-.2-.13-.57-.3c-.82-.44-1.8-.72-2.88-.79-.16-.02-.31-.03-.47-.03-.04,0-.08,0-.13,0-.03,0-.06,0-.08,0-.66,0-1.36,.08-2.08,.29-.06,.02-.11,.03-.17,.05-.15,.05-.3,.11-.45,.17-.54,.21-1.02,.47-1.44,.78-2.19,1.29-3.05,4.06-1.88,6.37l3.42,6.77-4.16,8.21,2.74,5.39,4.15-8.21,4.15,8.21,2.74-5.39ZM15.86,5.43h0c1.31-.04,2.19,1.34,1.6,2.51l-1.4,2.77-1.53-3.02c-.51-1.01,.2-2.22,1.33-2.25Z"/></g></svg>