<?xml version="1.0" encoding="UTF-8"?><svg id="Who_is_at_risk" xmlns="http://www.w3.org/2000/svg" viewBox="0 0 32 32"><defs><style>.cls-1{fill:#fff;}.cls-2{fill:#b53a3d;}.cls-3{fill:#d99898;}.cls-4{fill:#c46769;}.cls-5{fill:#bf5456;}.cls-6{fill:#c98c8c;}</style></defs><g id="ic_inflammatory"><path class="cls-1" d="M10.09,1.72c-1.33,1-4.61,4.28,.25,9.67,.13,.14,.15,.36,.04,.52-.66,.91-2.6,4.13-.31,7.94,.11,.18,.12,.4,.02,.58-.64,1.12-2.76,5.31-.33,8.53,.18,.24,.42,.42,.69,.55,1.21,.58,4.88,1.97,9.83,.56,.48-.14,.86-.5,1.05-.97,.58-1.47,1.55-4.89-.33-8.14-.14-.24-.16-.54-.02-.78,.77-1.32,3.04-5.94,.19-10.41-.11-.17-.13-.37-.05-.54,.46-.99,1.79-4.49-1.21-7.14-.28-.25-.65-.37-1.02-.39l-7.8-.28c-.37-.01-.72,.09-1.01,.31Z"/><path class="cls-3" d="M10.32,3.11c.3-.2,.67-.29,1.03-.29h7.32c.28,0,.55,.09,.76,.28,.49,.45,2.09,5.06,.15,5.77-.3,.11-.44,.4-.2,1.24s1.12-.25,1.86,3.72-.7,5.15-1.22,5.22c-.57,.07-1.88,1.41-.76,2.08,1.52,.92,2.62,3.65,1.02,7.19-.11,.24-.33,.42-.59,.48-1.36,.31-5.85,1.16-8.52-.43-.17-.1-.29-.25-.36-.43-.38-.99-1.25-3.99,.96-7.09,.25-.36,.44-.76-.48-1.68s-1.36-5.41,.12-6.05,1.22-2.7-.36-2.84c-1.48-.14-3.04-5.61-.73-7.17Z"/><path class="cls-6" d="M10.29,3.08c-2.32,1.56-.75,7.03,.73,7.17,1.58,.15,1.84,2.2,.36,2.84s-1.04,5.13-.12,6.05,.73,1.33,.48,1.68c-2.21,3.1-1.33,6.1-.96,7.09,.07,.18,.19,.34,.36,.43,.78,.46,2.11,.83,2.78,.89,0,0-.41-1.87-.1-3.81,.35-2.27,1.37-2.83,1.35-5.25s-1.25-1.97-1.72-4.08c-.25-1.16,1.08-1.46,1.06-4.66s-2.04-3.74-1.99-5.2,.41-3.41,.41-3.41c-2.22-.07-2.48,.14-2.64,.25Z"/><circle class="cls-4" cx="19.28" cy="13.37" r="5.86"/><circle class="cls-5" cx="19.28" cy="13.37" r="4.26"/><circle class="cls-2" cx="19.28" cy="13.37" r="2.65"/></g></svg>