<?xml version="1.0" encoding="UTF-8"?><svg id="ic_infant" xmlns="http://www.w3.org/2000/svg" viewBox="0 0 32 32"><defs><style>.cls-1{fill:#e3f4f6;}.cls-2{fill:#c6eff5;}.cls-3{fill:#85bfd9;}.cls-4{fill:#86c0dc;}.cls-5{fill:#81d4e3;}</style></defs><path class="cls-2" d="M10.78,17.08s-.75,.64-.53,1.27,1.73,2.19,2.31,2.36,.85-.03,1.43-.25-3.21-3.38-3.21-3.38Z"/><path class="cls-4" d="M8.34,16.11c-3.61,0-5.43,2.36-5.43,5.91s2.93,6.42,6.54,6.42,5.84-1.89,5.84-5.43-3.34-6.9-6.96-6.9Zm1.53,9.66c-2.32,0-4.21-1.86-4.21-4.15s1.88-4.15,4.21-4.15,4.14,2.51,4.14,4.8-1.81,3.5-4.14,3.5Z"/><path class="cls-5" d="M9.88,12.93s-1.08,3,1.84,5.81,4.33,3.17,6.63,2.89c0,0-3.46-1.69-5.71-4.52s-2.76-4.18-2.76-4.18Z"/><path class="cls-3" d="M18.62,13.13c4.11,3.78,9.63,7.44,8.9,8.81-1.67,3.12-10.2,.22-14.02-3.86-7.83-8.36-4.82-13.26-3.28-13.45,2.29-.36,4.29,4.71,8.4,8.5Z"/><path class="cls-2" d="M28.18,8.71c0-2.87-2.66-5.28-5.49-5.28-2.59,0-4.96,2.24-5.33,4.83-.08,.4-.46,2.01-1.46,2.61-.65,.4-1.16,.6-1.42,.85-.05,.03-.11,.06-.15,.11-.48,.6-.12,2.51,1.49,3.79,1.15,.92,2.44,1.38,3.37,1.37h0c.08,0,.16,0,.23-.01,.03,0,.07,0,.1,0,.03,0,.08-.02,.12-.03,.08-.02,.15-.04,.22-.07,.27-.09,.6-.24,.75-.43,.3-.38,.23-1.17,.98-1.67,.44-.3,1.38-.66,2.07-.91,.27-.07,.54-.17,.8-.28h.03c2-.88,3.66-2.78,3.66-4.88Z"/><path class="cls-1" d="M28.3,8.1c.43,3.23-1.88,4.7-3.77,5.48-2.85,1.17-5.04-1.88-5.04-4.63s1.05-5.52,3.37-5.52,5.05,1.69,5.44,4.67Z"/></svg>