<?xml version="1.0" encoding="UTF-8"?><svg id="Complications" xmlns="http://www.w3.org/2000/svg" viewBox="0 0 32 32"><defs><style>.cls-1{fill:#fff;}.cls-2{fill:#d99898;}</style></defs><g id="ic_intrauterine"><path class="cls-1" d="M14,21.69c-4.75-4.78-5.82-8.69-5.98-9.53s-.43-3.65,1.65-4.97c2.28-1.48,5.5-.06,5.9,2.15,0,0,.45-1.62,2.61-2.11,2.48-.55,4.87,.57,5.66,2.64s.28,6.82-9.85,11.81Z"/><path class="cls-2" d="M13.94,20.66c-4.17-4.07-4.93-7.87-5.07-8.58s-.4-3.16,1.41-4.26c1.98-1.23,4.86,.37,4.87,2.95l-.95,2.3,1.16,4.02-1.41,3.58Z"/><path class="cls-2" d="M14.27,20.71c8.62-4.29,9.42-8.77,8.71-10.53s-2.74-2.69-4.85-2.06-2.66,2.7-2.66,2.7l-.92,2.26,1.09,3.99-1.37,3.63Z"/><path class="cls-1" d="M29.55,4.19s-7.25-.68-13.54-.72-13.54,.72-13.54,.72v-.37s6.91-1.77,13.41-1.77,13.66,1.74,13.66,1.74v.4Z"/><path class="cls-1" d="M1.08,6.22s2.98,6.65,6.05,12.13,7.3,11.42,7.3,11.42l-.32,.18s-4.95-5.14-8.16-10.79S.73,6.42,.73,6.42l.35-.2Z"/><path class="cls-1" d="M31.02,6.22s-2.98,6.65-6.05,12.13c-3.07,5.48-7.3,11.42-7.3,11.42l.32,.18s4.95-5.14,8.16-10.79c3.21-5.66,5.22-12.75,5.22-12.75l-.35-.2Z"/></g></svg>