<?xml version="1.0" encoding="UTF-8"?><svg id="Who_is_at_risk" xmlns="http://www.w3.org/2000/svg" viewBox="0 0 32 32"><defs><style>.cls-1{fill:#fff;}.cls-2{fill:#c98c8c;}.cls-3{fill:#d99898;stroke:#fff;stroke-miterlimit:10;}</style></defs><g id="ic_kidney"><path class="cls-1" d="M18.12,11.22s.05-.02,.14-.04c.71-.21,3.86-1,5.24,.74,1.56,1.97,1.19,5.48,.88,7.5s-.96,8.73-.68,9.69,.02,1.07-.42,.94-.15-3.49-.11-3.94,.46-5.83,.04-6.93c-.37-.97-2.37-2.76-4.63-2.54s-.46-5.42-.46-5.42Z"/><path class="cls-3" d="M19.69,11.79c1.88-.12,3.65-2.07,3.19-6.38S18.17,.3,13.18,3.76c-.27,.19-.53,.41-.8,.64-1.6,1.23-3.58,3.59-4.52,5.54-.73,1.51-1.12,3.03-1.2,4.37-.25,2.1-.28,4.97,.76,9.06,1.21,4.75,4.05,6.83,7.64,6.83s5.67-2.81,6.5-6.08c.51-2.02-.64-6.75-2.64-9.32,1.44-1.12,.77-3.02,.77-3.02Z"/><path class="cls-2" d="M19.77,23.64c.65,.16,1.04,.85,.8,1.48-.93,2.49-2.74,4.44-5.56,4.44-3.29,0-5.89-1.95-7-6.41-.96-3.84-.92-6.53-.7-8.5,.08-1.26,3.2-2,5.43,3.35,1.6,3.86,5.17,5.19,7.03,5.64Z"/></g></svg>