<?xml version="1.0" encoding="UTF-8"?><svg id="Symptoms" xmlns="http://www.w3.org/2000/svg" viewBox="0 0 32.15 32"><defs><style>.cls-1{fill:#fff;}.cls-2{fill:#b53a3d;}.cls-3{fill:#c46769;}.cls-4{fill:#bf5456;}</style></defs><g id="ic_metrits"><path class="cls-1" d="M29.57,4.19s-7.25-.68-13.54-.72-13.54,.72-13.54,.72v-.37s6.91-1.77,13.41-1.77,13.66,1.74,13.66,1.74v.4Z"/><path class="cls-1" d="M1.11,6.22s2.98,6.65,6.05,12.13,7.3,11.42,7.3,11.42l-.32,.18s-4.95-5.14-8.16-10.79S.75,6.42,.75,6.42l.35-.2Z"/><path class="cls-1" d="M31.04,6.22s-2.98,6.65-6.05,12.13c-3.07,5.48-7.3,11.42-7.3,11.42l.32,.18s4.95-5.14,8.16-10.79c3.21-5.66,5.22-12.75,5.22-12.75l-.35-.2Z"/><circle class="cls-3" cx="21.22" cy="16.34" r="8.32"/><circle class="cls-4" cx="21.22" cy="16.34" r="6.05"/><circle class="cls-2" cx="21.22" cy="16.34" r="3.76"/></g></svg>