<?xml version="1.0" encoding="UTF-8"?><svg id="Complications" xmlns="http://www.w3.org/2000/svg" viewBox="0 0 32 32"><defs><style>.cls-1{fill:#fff;}.cls-2{fill:#fed4c2;}</style></defs><g id="ic_premature"><path class="cls-1" d="M30.01,9.53c1.01,2.33-.45,4.23-1.33,5.54s-3.27,2.22-3.87,2.1c-.16,.61-.29,1.6-.62,2.33-2.63,5.47-17.39,7.95-18.68,3.83-1.12-3.57-.02-4.79,.13-5.13-.08,.13-.34,.45-1.2,.95-1.77,.97-2.25-.69-2.69-1.66s-.99-2.98,.32-4.19c1.69-1.46,2.97,.39,2.97,.39,0,0,1.17-1.39,2.28-1.56,2.32-.38,2.92,4.35,2.95,4.36,.58-.5,1.04-1.03,2.01-1.25-2.82-3.45-1.32-4.96-.33-5.46,.74-.33,2.12-.06,2.57,.69s.4,1.28,.25,1.68c.53,.31,2.08,2.03,2.08,2.03,.65,.01,.7,.09,.7,.09-.4-.27-1.01-2.45-.53-2.92s.89-1.04,.81-1.58c-.12-.56,.21-.76,1.22-1.04,.98-.29,1.04-.93,1.04-.93,1.22-2.69,4.7-2.24,4.7-2.24,1.89,.13,4.18,1.58,5.22,3.97Z"/><path class="cls-2" d="M29.16,9.8c.71,1.55,.22,1.88-.31,3.19v.03c-.01,.05-.03,.09-.07,.11-.02,.06-.08,.12-.13,.19-.09,.15-.19,.3-.3,.46-.03,.04-.08,.12-.12,.16-.01,.03,0,.05-.02,.06-.17,.16-.29,.37-.48,.59,0,0,.01,.02-.01,.03-.84,1.12-2.67,2.02-3.02,1.68-.55-.55-.57,1.33-1.19,2.5-2.69,4.95-16.03,7.92-17.5,3.86-.07-.21-.1-.41-.17-.62,.01-.03,0-.05,0-.08-.02-.04,0-.08,0-.13-.49-2.61,.7-5.3,.85-5.61-.08,.12-.75,1.12-2.07,2.09-1.4,1.04-1.77-.19-2.15-1.03s-1.14-2.34,.14-3.46c1.25-1.13,2.37,.74,2.37,.74,0,0,1.24-1.58,2.3-1.77,1.72-.27,2.45,4.51,2.48,4.69,.01,.02,.03,.01,.06,.02,.78-.76,1.73-1.43,2.89-1.95,.18-.08,.39-.15,.6-.22t-.04-.03c-1.32-1.73-1.72-2.78-1.79-3.42-.02-.1-.04-.2-.02-.28,0-.13,.02-.25,.07-.32,.1-.37,.35-.7,.73-.87,.71-.32,1.55,0,1.88,.72,.18,.4,.17,.84,0,1.2,.41,.24,1.01,.8,1.51,1.32,.49,.5,.89,.96,.89,.96,.61,0,1.14,.04,1.67,.15v-.4c-.64-.89-.98-2.52-.57-2.55,.38-.04,.29-.29,.29-.29-.24-.29-.03-.47-.03-.47,.34-.26,.49-.63,.43-1.11-.09-.49,.04-.45,1.01-.73,.94-.29,1.07-.89,1.07-.89,1.22-2.38,4.16-1.92,4.16-1.92,1.79,.04,3.65,1.31,4.59,3.38Z"/></g></svg>