<?xml version="1.0" encoding="UTF-8"?><svg id="Complications" xmlns="http://www.w3.org/2000/svg" viewBox="0 0 32 32"><defs><style>.cls-1{fill:#fff;}.cls-2{fill:#ebbeab;}.cls-3{fill:#fed4c2;}.cls-4{fill:#c46769;}.cls-5{fill:#212121;}.cls-6{fill:#82b7d9;}</style></defs><g id="ic_pneumonia"><path class="cls-1" d="M14.33,3.95s4.97-1.82,8.13,1.2,2.5,6.96,2.5,6.96c0,0,.78-.07,.88,1.2s-.88,5.58-.88,5.58c0,0,1.56-.39,2.47,.67s1.18,1.84,1.25,2.57,.1,1.29-.27,1.6-.15,.29,.41,.17,1.9-1.17,2.14-.05,1.77,6.41-1.4,6.95-6.23,1.72-16.7-.26c-2.75-.52-6.6-1.28-6.86-1.3s-.72-2.89,.2-3.23,5.59-1.29,5.59-1.29c0,0-.45-.4-.35-.84,0,0-1.73-.58-.73-2.94,0,0-2.71-3.97-3.01-5.78-.03-.25,0-.49,.49-.59,0,0-2.06-6.42,2.03-8.32,0,0-.56-2.32,4.24-3.73,0,0-.33,.69-.14,1.43Z"/><path class="cls-6" d="M13.96,25.62s4.52,1.44,8.81,0c1.48-.6,3.74-.66,4.88-.65s2.77-.77,2.77-.77c0,0,1.43,4.21-.38,5.67-3.58,1.55-10.78,1.26-16.69,.15-5.91-1.11-6.86-1.25-6.86-1.25,0,0-.4-2.24,0-2.46,0,0,3.47-1.68,7.46-.68Z"/><path class="cls-3" d="M9.51,15.31s-.18-.63-.92-.15c-.62,.4,1.72,3.79,2.29,4.9s.86,.45,.86,.45l-2.23-5.2Z"/><path class="cls-3" d="M24.17,13.64s-.04-.65,.82-.44c.72,.18-.41,4.14-.59,5.38s-.67,.7-.67,.7l.43-5.64Z"/><path class="cls-5" d="M15.22,23.72s-1.83-.18-3.45-3.32c-1.62-3.14-1.61-2.68-1.61-2.68,0,0-1.18-.86-1.48-3.58s-1.25-4.73,2.21-7.76c0,0,.03-1.12,.5-1.76,0,0,.08,1,.2,1.19,0,0,.05-1.53,2.1-2.31,0,0-.42,.48-.57,1.35,0,0,3.07-1.04,6.4-.3s4.68,4.74,4.81,7.02-.33,6.27-.33,6.27c0,0,.04,4.75-2.96,5.37-3.01,.63-5.83,.49-5.83,.49Z"/><g><path class="cls-3" d="M15.76,26.48s-.14,.49,.19,.64,2.53-.19,2.53-.19l-2.72-.45Z"/><path class="cls-3" d="M15.79,26.37c-.29-.06-1.01-.54-1.68-.84-.46-.21-.9-.39-1.24-.55s-.58-.31-.64-.46c-.2-.5,.66-.83,.66-.83-.45-.25-1.62-.7-1.64-1.06-.05-.75,.86-.75,.86-.75,0,0-1.01-.6,.23-1.13s2.62,1.08,3.6,1.11,2.01,.43,2.01,.43c0-.09,.09-.2,.09-.2-.67-.13-2.76-1.3-2.76-1.3,0,0-.8-.46-.58-.87s.67-.36,1.05-.35,2.32,1.19,3.09,1.22c1.83-.56,3.02-.64,4.49-.49,1.28-.93,2.49-.86,3.34-.43s1.92,2.74,.93,3.53c-1.8,.57-2.29,1.33-4.48,2.75s-4.61,.67-4.61,.67c0,0-2.43-.39-2.72-.45Z"/><path class="cls-2" d="M17.69,24.16s-.04-.13-.1-.18,.05-.15-.63-.13-1.5,0-1.78-.25-.2-.2-.68-.55-.86-.53-.99-.53-.41-.16-.51-.23-.86-.33-1.03-.5,.11,.18,.54,.32,.64,.37,.94,.46,.65,.28,.69,.32,1.01,.85,1.2,.88c.38,.13,1.58,.12,1.58,.12,0,0,.5,.11,.76,.26Z"/><path class="cls-2" d="M17.74,25.7s-.19-.28-.03-.24-.47-.25-.61-.26-1.79-.22-2.13-.36-1.92-1.13-2.11-1.13c0,0,1.41,.78,1.5,.86s.55,.36,.62,.37,1.5,.38,1.78,.39,.98,.37,.98,.37Z"/></g><g id="Tracciato_28-2"><path class="cls-4" d="M12.83,21l-.11-.03c-.64-.23-2.92-1.28-3.3-1.71-.13-.15-.17-.28-.12-.4,.08-.19,.34-.22,.37-.22l.21-.03c-.65-.4-2.44-1.54-2.9-2.11-.22-.28-.29-.58-.17-.82,.09-.19,.28-.31,.49-.31,.11,0,.22,.04,.31,.11,.36,.29,3.99,3.29,3.99,3.29l.06,.05v.13c-.05,.09-.16,.18-.69,.21-.14,0-.23,.01-.29,.02,2.35,1.56,2.31,1.68,2.29,1.76l-.02,.07h-.11Z"/><path class="cls-1" d="M7.3,15.46c.09,0,.17,.03,.24,.09,.36,.29,3.99,3.28,3.99,3.28,0,0,.17,.18-.58,.2-.75,.03-.41,.15-.41,.15,0,0,2.56,1.71,2.3,1.71-.02,0-.05,0-.09-.02-.7-.26-2.91-1.29-3.25-1.69-.35-.4,.18-.45,.18-.45l.49-.07s-2.56-1.55-3.11-2.23c-.44-.55-.1-.97,.24-.97m0-.2h0c-.24,0-.47,.14-.58,.37-.13,.27-.07,.61,.18,.92,.42,.53,1.92,1.5,2.69,1.99-.1,.02-.32,.08-.39,.27-.06,.15-.01,.32,.14,.5,.4,.46,2.67,1.5,3.34,1.74,.07,.02,.12,.04,.16,.04h.15l.06-.15c.05-.16,.08-.26-2.08-1.71,.47-.02,.69-.1,.76-.27,.05-.11,0-.22-.06-.28-.16-.14-3.65-3.01-4.01-3.3-.11-.08-.23-.13-.37-.13h0Z"/></g><g id="Tracciato_29-2"><path class="cls-4" d="M6.1,24.81c-.2-.02-.32-.08-.37-.2-.08-.18,.09-.39,.11-.42l.13-.16c-.83,.19-3.25,.74-4.18,.74-.08,0-.14,0-.2-.01-.38-.05-.44-.27-.44-.4,0-.41,.63-.98,1.01-1.02,.46-.04,5.15-.41,5.15-.41h.07l.08,.1c.04,.09,.02,.23-.35,.62-.09,.1-.15,.17-.19,.22,.51-.1,2.22-.4,2.67-.4,.06,0,.18,0,.2,.1,.02,.1-.09,.15-.15,.18-.67,.3-2.88,1.06-3.5,1.06h-.06Z"/><path class="cls-1" d="M7.33,23.04s.25,0-.27,.55c-.34,.35-.32,.41-.26,.41,.03,0,.07-.02,.07-.02,0,0,2.23-.4,2.74-.4,.13,0,.15,.02,.02,.08-.67,.3-2.85,1.05-3.46,1.05-.02,0-.04,0-.05,0-.53-.05-.18-.45-.18-.45l.3-.39s-3.32,.81-4.44,.81c-.07,0-.13,0-.18,0-.87-.11,.1-1.17,.57-1.22s5.15-.41,5.15-.41m0-.2h-.01c-.19,.02-4.69,.37-5.15,.41-.42,.04-1.09,.65-1.1,1.12,0,.1,.03,.43,.52,.5,.06,0,.13,.01,.21,.01,.86,0,2.93-.45,3.93-.68-.06,.09-.16,.28-.08,.46,.06,.15,.21,.24,.45,.26,.02,0,.04,0,.07,0,.68,0,2.95-.8,3.54-1.07,.06-.03,.24-.11,.2-.29-.04-.18-.24-.18-.3-.18-.4,0-1.74,.22-2.4,.34,.33-.34,.43-.55,.36-.72-.05-.11-.15-.16-.23-.16h-.01Z"/></g><g id="Tracciato_30-2"><path class="cls-4" d="M10.76,22.06c-1.01,0-4.05-.26-4.65-.59-.21-.12-.31-.25-.31-.4,0-.24,.3-.39,.33-.4l.3-.16c-1.05-.2-4.7-.9-5.53-1.4-.34-.21-.36-.43-.32-.58,.12-.44,.94-.76,1.44-.76,.1,0,.18,.01,.25,.04,.56,.19,6.2,2.16,6.2,2.16l.07,.02,.04,.14c0,.11-.08,.26-.7,.52-.42,.18-.48,.25-.49,.25,3.66,.79,3.65,.94,3.63,1.04-.01,.12-.16,.12-.24,.12h-.02Z"/><path class="cls-1" d="M2.02,17.87c.08,0,.16,0,.22,.03,.56,.19,6.2,2.16,6.2,2.16,0,0,.28,.13-.6,.5-.88,.36-.43,.36-.42,.36h0s4.33,1.04,3.37,1.04h-.02c-.97,0-4.02-.26-4.6-.58-.59-.33,.02-.62,.02-.62l.55-.3s-4.83-.86-5.78-1.44c-.85-.51,.39-1.15,1.06-1.15m0-.2c-.52,0-1.39,.33-1.53,.83-.04,.15-.05,.44,.36,.69,.78,.48,3.98,1.12,5.29,1.36l-.06,.03c-.06,.03-.37,.19-.38,.48,0,.19,.12,.35,.36,.49,.65,.36,3.8,.61,4.7,.61,.1,0,.33,0,.36-.21,.02-.2,.04-.33-3.35-1.15,.04-.02,.09-.04,.14-.06,.54-.22,.76-.4,.76-.61,0-.13-.08-.22-.16-.25-.08-.03-5.67-1.99-6.22-2.17-.08-.03-.17-.04-.28-.04h0Z"/></g></g></svg>