<?xml version="1.0" encoding="UTF-8"?><svg id="Where_is_found" xmlns="http://www.w3.org/2000/svg" viewBox="0 0 32 32"><defs><style>.cls-1{fill:#b5b5b5;}</style></defs><g id="ic_rabbit"><path class="cls-1" d="M11.18,10.33s.47,.33,.51,.51c0,0,1.39-.69,1.65-.9s1.22-.73,2.85-.42,3.84,.39,4.17,.22,.96,.07,.57,.42-.91,.98-.91,.98c0,0-2.09,1.91-6.9,1.88l.04,.9s-.21,1.61,1.88,1.05,6.26-1.83,9.73,1.91,2.41,7.59,2.41,7.59c0,0-.25,1.39-.47,1.86,0,0,.72,.47,1.08,.53s1.52,1.52-.8,2.77-3.91-.25-3.91-.25c0,0-1.58,.6-2.22,.75s-2.24,.09-4.24,0-3.6,.09-3.6,.09c0,0-1.85,.05-.56-1.48,.87-1.06,4.2-.89,4.2-.89,0,0-2.76-.35-3.85-1.23,0,0-.37,1.54-.58,1.87s-.35,.79-.35,.79c0,0-.29,1.01-1.87,.94s-1.41-.13-1.41-.13c0,0-.87-.75,.33-1.58,.46-.23,.85-.25,.85-.25,0,0,.04-.69,0-.95s-.28-2.05-.16-2.72c0,0-3.43-2.37-3.58-4.93,0-.81,.15-1.75,.15-1.75,0,0,.27-.98-.73-1.41s-1.21-.5-1.39-.94c-.09-.24-.08-.43-.08-.43,0,0,.03-.14-.14-.35s-.5-.54,.07-1.11,1.69-2.14,1.75-2.27,.87-1.33,2.93-1.58c0,0,.64-.07,1.44,.1s1.14,.39,1.14,.39Z"/><path class="cls-1" d="M11.2,10.22c3.62-3.7,3.33-7.73,3.2-8.23s-.46,0-.46,0c0,0-.54,1.16-2.91,2.99s-2.41,4.74-2.41,4.74c0,0,.57-.07,1.31,.09s1.26,.41,1.26,.41Z"/></g></svg>