<?xml version="1.0" encoding="UTF-8"?><svg id="Who_is_at_risk" xmlns="http://www.w3.org/2000/svg" viewBox="0 0 32 32"><defs><style>.cls-1{fill:#fff;}.cls-2{fill:#f2c4b1;}.cls-3{fill:#fed4c2;}.cls-4{fill:#d99898;}.cls-5{fill:#c98c8c;}.cls-6{fill:#5b798c;}.cls-7{fill:#77a8c7;}.cls-8{fill:#82b7d9;}</style></defs><g id="ic_transplant"><path class="cls-1" d="M22.09,18.06c.44-2.05,.38-4.03,.18-5.41-.14-1.12-.84-2.39-.84-2.39,0,0,.13-.16,1.29-1.04,1.09-.63,.89-1.7,.09-2.51-.8-.72-1.19-.43-1.56-.67-.42-.26-.49-.82-1.41-1.29-.82-.39-1.74-.46-2.14,.18s-.86,.43-1.2,.38c-1.4-.22-1.1-.68-1.45-1.18-.71-1.02-1.75,.43-1.75,.43,0,0-.96,1.21-.41-.81s-.83-2-2.2-1.56-.6,1.02-.48,2.17c.09,.88-.5,.79-1.02-.36s-.6-1.1-2.36-.37c-1.74,.68-.76,1.54-.65,2.13s-.25,.34-1.08-.35c-.99-.84-1.08,.57-1.52,1.16-.68,.91-.96,1.78,.21,2.83s1.01,1.44,.8,2.99,2.67,3.95,2.67,3.95c.44,1.34,1.18,2.63,2.29,3.81,0,0-.35,.15-.46,.43,0,0-2.16-1.67-2.8-2.13-.56-.45-2.17-.54-2.06,.87,0,0-.99-.6-1.85,.22s-.46,1.93,.27,2.53l6.53,5.37s1.21,1.21,3.12,.89,9.32-.79,9.32-.79l4.13,1.99s2.62,1.65,4.06-.94l.92-2.07s1.64-2.69-1.32-3.92l-2.66-1.32c-1.72-.73-2.56-2.93-4.65-3.21Z"/><path class="cls-6" d="M18.67,8.36c.52-.76,1.31-1.72,1.56-2.04,.05-.06,.09-.14,.08-.23-.03-.77-1.14-1.14-1.82-1.01-.51,.1-1.41,1.75-1.86,2.94,0,0,.82,.07,1.24,.15s.79,.18,.79,.18Z"/><path class="cls-6" d="M20.86,9.94c.8-.61,1.66-1.39,1.94-1.64,.06-.05,.08-.14,.07-.21-.24-1.24-1.08-1.33-1.43-1.32-.09,0-.19,.03-.27,.08-.97,.52-1.5,1.18-1.8,1.72,0,0,.56,.3,.87,.62s.63,.75,.63,.75Z"/><path class="cls-8" d="M7.09,14.87s-1.89-1.71-1.63-2.76c.26-1.04,.63-1.4-1.43-3.55,0,0-.63-.63-.18-1.23s.44-1.11,.71-1.31c.27-.2,.52,.55,1.62,1.13,1.1,.58,1.33,.03,.78-1.4,0,0-.96-1.12-.18-1.45,.78-.32,1.42-1.1,1.93,.07s1.78,1.92,2.07,.64c.29-1.28-.63-2.02-.1-2.26,.53-.24,2.27-.7,1.58,.86-.5,1.13-.07,2.06,.13,2.4,.05,.09,.02,.19-.07,.25-1.45,.92-1.92,1.71-2.05,2.3-.04,.19-.13,.67-.47,1.19-.28,.41-.57,.61-.83,.82-.2,.16-1.45,1.17-1.84,2.5-.11,.36-.22,.97-.04,1.8Z"/><path class="cls-4" d="M21.16,18.06c.54-2.15,.65-4.55,.05-6.32-1.34-3.93-3.65-2.95-6.09-3.6-.2-.05-.41-.07-.64-.07h0c-.18-.44,1.63-1.81,1.63-1.81,.69-.61-.91-.48-1.19-.7-.29-.22-.26-.92-.59-.8s-.84,1.4-1.95,2.2c-1.1,.8-1.54,1.85-1.54,1.85-.15,1.16-1.16,2.09-1.42,2.23-.27,.14-.82,.65-1.49,1.94-.67,1.29,.4,3.17,.4,3.17,.54,1.43,1.39,2.7,2.4,3.76,0,0,1.21,.16,3.15-.23s2.35-.75,3.88-1.13,3.4-.48,3.4-.48Z"/><path class="cls-3" d="M29.25,23.76l-3.45-1.71s-2.03-1.8-2.93-2.58c-.91-.78-2.45-.98-5.64-.03-3.19,.95-2.92,.96-5.45,1.11-1.93,.11-2.11,.99-1.81,1.52-1.71-1.15-3.72-2.59-3.72-2.59-.38-.33-.88-.39-1.1-.12s-.1,.74,.28,1.07l.82,.7-1.94-1.11c-.49-.39-1.16-.36-1.48,.05s-.18,1.06,.31,1.45l7.27,5.67c.2,.16,.43,.23,.65,.25,0,0,.01,.02,.02,.02h.06c.07,0,.13-.01,.2-.02l4.71-.43h0l6.06-.55c.08,.07,.15,.14,.25,.19l4.38,2.17c.71,.35,1.57,.06,1.92-.65l1.24-2.5c.35-.71,.06-1.57-.65-1.92Zm-12.93-1.02s.28,.34-.36,.33c-3.01-.03-3.85,.08-4.1,.23-.31-.18-.77-.47-1.29-.82,1.16,.2,5.59,.21,5.75,.26Z"/><path class="cls-2" d="M10.4,27.2c.2,.16,.43,.23,.65,.25,0,0,.01,.02,.02,.02h.06c.07,0,.13-.01,.2-.02l4.71-.43h0l6.06-.55c.08,.07,4.63,2.37,4.63,2.37,.71,.35,1.57,.06,1.92-.65l.86-1.74s-3.79-2.03-7.42-2.12-8.85,1.43-10.63,1.61c-1.03,.1-4.39-2.42-5.05-2.76s-1.63-.69-1.53-.28l5.52,4.31Z"/><path class="cls-5" d="M21.16,18.06s-1.87,.11-3.4,.48-1.94,.73-3.88,1.13-3.15,.23-3.15,.23c-1.01-1.06-1.87-2.33-2.4-3.76,0,0-1.39-2.79,.09-2.99s2.55,2.11,3.44,2.85c.82,.99,1.99,1.89,3.87,1.81s2.75-.84,4.59-.74c1.28,.03,.84,.99,.84,.99Z"/><path class="cls-7" d="M10.29,8.53c-.04,.19-.13,.68-.47,1.19-.28,.41-.57,.61-.83,.83-.2,.17-1.45,1.18-1.85,2.5-.11,.36-.22,.97-.04,1.81,0,0-1.9-1.72-1.64-2.76,.26-1.05,.85-1.61,2.3-2.17,.64-.25,1.1-.69,1.43-1.26s1.23-.71,1.1-.13Z"/></g></svg>