<?xml version="1.0" encoding="UTF-8"?>
<svg id="Livello_2" data-name="Livello 2" xmlns="http://www.w3.org/2000/svg" xmlns:xlink="http://www.w3.org/1999/xlink" viewBox="0 0 1000.43 782.42">
  <defs>
    <style>
      .cls-1 {
        fill: none;
      }

      .cls-2 {
        clip-path: url(#clippath);
      }

      .cls-3 {
        fill: #fff;
      }

      .cls-4 {
        fill: #c46767;
      }

      .cls-5 {
        fill: #ddd;
      }

      .cls-6 {
        fill: #e0aaaa;
      }

      .cls-7 {
        fill: #adadad;
      }
    </style>
    <clipPath id="clippath">
      <path class="cls-1" d="M100.52,198.27c16.82,1.07,33.68,1.77,50.45,3.38,7.25,.7,14.37,3.09,21.45,5.04,5.07,1.4,9.9,3.72,15,5.02,36.59,9.3,66.49,29.77,92.29,56.36,9.18,9.46,17.09,20.61,23.59,32.1,15.42,27.28,27.84,55.95,36.42,86.22,3.54,12.5,7.85,24.79,12.16,37.06,13.34,37.95,22.35,76.87,26.58,116.86,.59,5.6,1.37,9.82,7.93,11.8,5.23,1.58,6.29,6.37,3.82,13.41-2.9,8.27-6.01,16.53-9.76,24.44-9.72,20.55-24.07,37.98-39.31,54.52-10.68,11.59-22.63,22.06-34.38,32.62-11.05,9.93-23.36,18.01-37.49,23.11-3.29,1.19-6.7,2.56-9.43,4.67-7.43,5.73-14.22,3.4-21.53-.33-31.86-16.31-57.84-39.45-80.16-67.19-28.97-36-53.88-74.65-75.34-115.46-27.21-51.75-44.88-106.76-53.88-164.53-7.04-45.21-.66-88.95,15.04-131.47,2.86-7.75,8.38-14.55,12.84-21.68,2.73-4.37,7.22-5.23,11.99-5.22,10.55,.01,21.1,0,31.65,0,.02-.25,.03-.49,.05-.74Z"/>
    </clipPath>
  </defs>
  <g id="Livello_1-2" data-name="Livello 1">
    <path class="cls-3" d="M253.04,737.04c-10.28,0-18.51-3.5-25.21-6.93-33.53-17.17-62.79-41.62-89.45-74.74-29.17-36.24-55.54-76.65-78.38-120.1C31.88,481.82,12.76,423.46,3.15,361.79c-7.36-47.23-1.81-96.29,16.48-145.83,3.26-8.83,7.94-15.76,12.07-21.87l.26-.39c1.02-1.51,2.07-3.06,3.09-4.69,4.9-7.83,14.52-17.41,32.54-18.6l.51-.03,8.97-1.52,24.53-.92-5.16-13.12c-1.72-4.38-3.13-8.92-4.19-13.52-8.46-36.63,10.5-74.88,45.09-90.95,6.08-2.82,12.28-4.25,18.45-4.25,10.92,0,21.04,4.66,27.77,12.78,5.6,6.76,8.45,15.18,8.25,24.36l-.07,3.45,2.07,2.76c10.39,13.88,24.93,24.81,44.43,33.41,1.19,.53,2.45,1.05,3.84,1.58l6.21,2.4,4.61-4.81c14.26-14.9,32.51-28.18,55.79-40.61,26.14-13.95,53.72-23.13,81.98-27.27,9.27-1.36,18.29-1.54,25.11-1.54,2.64,0,5.29,.03,7.93,.06h.91c2.42,.04,4.83,.07,7.24,.07h.71c7.94,0,14.32,2.37,18.13,3.79l.85,.32c10.85,3.96,19.08,11.9,22.63,21.82l1.8,5.02,5.17,1.31c6.87,1.74,13.37,4.35,19.88,7.99l4.15,2.32,4.42-1.76c14.62-5.82,27.1-14.8,38.15-27.44,4.76-5.45,7.37-9.58,8.45-13.38l.53-1.88-.35-3.19-.23-.81c-4.37-15.27,1.04-30.71,14.11-40.31,5.82-4.28,12.6-6.54,19.6-6.54,12.08,0,20.07,6.65,23.08,9.15l.47,.39c18.1,14.49,29.31,31.04,34.28,50.61,1.22,4.8,2.06,9.67,2.5,14.47l19.48,2.12c.21-.66,.42-1.31,.65-1.97,5.23-15.14,18.29-24.93,33.27-24.93,3.33,0,6.67,.49,9.92,1.46,9.84,2.93,18.85,9.87,24.13,18.57,5.48,9.04,5.45,18.11,5.43,22.99v.85c.08,11.58,.07,23.13,.06,33.33v11.11s-.05,.81-.05,.81c-.4,7.03-.74,13.79-1.07,20.35-.76,14.97-1.48,29.04-2.62,43.21-1.51,18.82-7.66,37.09-18.26,54.29-27.62,44.82-66.77,71.46-116.36,79.18l-7,1.09-1.29,6.97c-.31,1.65-.57,3.33-.79,5-2.5,19.25-4.57,41.75-.94,62.72,3.63,20.98,9.67,36.03,18.99,47.35,4.77,5.79,8.9,12.23,12.98,20.27l1.49,2.92,4.02,2.03c14.14,7.23,25.18,18.04,31.93,31.27,18.7,36.62,20.18,71.98,4.39,105.08l-.69,1.45-.2,1.59c-4.66,36.68-21.66,65.99-50.54,87.11-17.56,12.85-36.06,20.07-56.55,22.08-4.31,.42-8.33,.63-12.28,.63-12.47,0-23.7-2.07-34.32-6.34-24.53-9.86-52.83-23.2-76.66-47.35-8.93-9.04-19.57-19.51-30.81-28.58-2.56-2.07-5.1-4.15-7.64-6.24l-10.55-8.66-6.33,7.85c-4.93,6.11-10.21,12.19-17.15,19.71-10.52,11.42-21.78,21.51-32.67,31.26l-3.63,3.26c-14.59,13.11-30.38,22.78-46.92,28.76-.39,.14-.72,.26-.99,.36l-1.18,.45-1.03,.73c-7.62,5.41-16.39,8.27-25.36,8.27Z"/>
    <path class="cls-7" d="M711.86,137.35c-1.29,22.96-2.05,42.95-3.65,62.87-1.2,14.89-6.27,28.85-14.09,41.53-23.04,37.38-55.71,60.51-99.86,66.39-3.68,.49-7.36,1.76-10.77,3.3-5.18,2.34-10.3,2.83-15.08-.19-7.76-4.9-14.74-10.64-19.33-18.95-13.24-23.93-14.86-49.42-9.98-75.61,.77-4.14,3.75-8.31,6.73-11.51,9.12-9.79,20.88-15.14,33.67-18.52,26.16-6.91,49.3-19.98,71.54-34.94,22.22-14.95,33.28-37.41,41.92-61.55,.71-1.98,1.25-4.02,1.93-6.01,1.29-3.74,4.02-6.48,7.84-5.34,2.99,.89,6.19,3.3,7.79,5.94,1.48,2.44,1.26,6.09,1.28,9.22,.11,15.44,.05,30.88,.05,43.37Z"/>
    <path d="M582.91,49.13c-.51-3.28-.61-6.69-1.62-9.81-1.4-4.31,.3-7.38,3.39-9.65,3.28-2.41,5.61,.17,8.19,2.24,11.69,9.36,20.68,20.5,24.44,35.3,4.79,18.86,.51,36.27-9.04,52.58-15.21,25.97-38.27,42.67-65.67,53.71-8.39,3.38-17.27,6.13-26.18,7.37-5.07,.71-10.03,1.2-15.01,2.66-6.49,1.9-12.85,.26-18.9-2.56-14.3-6.68-22.56-22.55-19.61-37.77,1.76-9.05,6.52-13.07,15.86-13.91,35.17-3.16,64.76-17.65,88.05-44.3,8.89-10.18,15.98-21.47,16.11-35.87Z"/>
    <path class="cls-5" d="M100.52,198.27c16.82,1.07,33.68,1.77,50.45,3.38,7.25,.7,14.37,3.09,21.45,5.04,5.07,1.4,9.9,3.72,15,5.02,36.59,9.3,66.49,29.77,92.29,56.36,9.18,9.46,17.09,20.61,23.59,32.1,15.42,27.28,27.84,55.95,36.42,86.22,3.54,12.5,7.85,24.79,12.16,37.06,13.34,37.95,22.35,76.87,26.58,116.86,.59,5.6,1.37,9.82,7.93,11.8,5.23,1.58,6.29,6.37,3.82,13.41-2.9,8.27-6.01,16.53-9.76,24.44-9.72,20.55-24.07,37.98-39.31,54.52-10.68,11.59-22.63,22.06-34.38,32.62-11.05,9.93-23.36,18.01-37.49,23.11-3.29,1.19-6.7,2.56-9.43,4.67-7.43,5.73-14.22,3.4-21.53-.33-31.86-16.31-57.84-39.45-80.16-67.19-28.97-36-53.88-74.65-75.34-115.46-27.21-51.75-44.88-106.76-53.88-164.53-7.04-45.21-.66-88.95,15.04-131.47,2.86-7.75,8.38-14.55,12.84-21.68,2.73-4.37,7.22-5.23,11.99-5.22,10.55,.01,21.1,0,31.65,0,.02-.25,.03-.49,.05-.74Z"/>
    <g class="cls-2">
      <g>
        <path d="M194.66,304.63c4.28,.98,12.96,2.4,21.27,5,10.15,3.18,17.72,10.08,22.18,19.75,3.22,6.98,5.67,14.33,8.24,21.6,6.29,17.84,11.67,36.06,18.92,53.5,4.8,11.54,12.22,21.99,18.48,32.92,4.52,7.89,9.99,15.39,13.38,23.73,6.19,15.27,1.06,30.32-12.54,39.77-6.87,4.77-13.91,9.34-21.15,13.5-8.19,4.7-9.52,12.19-10.12,20.59-.65,9.04-1.64,18.13-3.46,26.99-.96,4.65-3.43,9.28-6.25,13.18-6.73,9.3-15.82,13.25-27.53,10.81-17.83-3.73-30.11-15.38-39.41-29.59-22.66-34.63-24.03-71.64-9.24-109.69,2.29-5.88,5.2-11.52,7.53-17.38,3.87-9.76,3.14-19.22-2.46-28.21-2.97-4.76-6.1-9.44-8.77-14.36-9.7-17.93-9.49-37.21-6.35-56.46,2.87-17.65,14.15-25.87,37.3-25.63Zm49.74,114.94c-7.72-23.53-15.37-47.14-23.24-70.67-5.19-15.53-19.2-23.77-35.46-20.71-2.65,.5-6.3,2.8-7.04,5.07-2.53,7.8-4.38,15.92-1.84,24.34,1.34-2.38,2.23-4.88,2.44-7.43,.7-8.87,11.92-9.6,15.95-4.38,2.56,3.31,4.73,6.94,6.85,10.55,2.13,3.62,3.15,8.38,6.12,10.93,9.36,8.02,13.09,18.89,16.59,29.88,3.35,10.52,8.54,19.11,19.62,22.43Zm18.88,66.33c13.53-4.66,16.41-11.63,9.5-22.98-4.89-8.04-10.35-15.73-15.66-23.49-1.23-1.8-2.91-3.3-4.94-5.55-2.65,24.96-2.18,27.13,11.1,52.03Z"/>
        <path d="M20.21,456.96c3.64-1.65,7.25-3.39,10.93-4.94,2.59-1.09,5.39-1.7,7.9-2.94,5.13-2.54,5.86-5.2,3.19-10.19-11.24-21.01-16.75-40.43-18.18-64.67-11.1-.31-15.88-8.26-19.57-17.37-2.24-5.53-4.63-11.02-6.56-16.66-4.43-12.92-4.75-26.03-2.36-39.5,5.13-28.85,12.81-56.89,25.17-83.49,2.78-5.98,6.76-11.51,10.82-16.76,5.8-7.51,13.17-12.15,23.3-12.42,6.56-.17,13.08-1.74,18.81-5.93,2.98-2.18,7.07-2.97,10.76-4.05,13.79-4.03,27.6-8,41.45-11.82,5.61-1.55,11.18-1.17,16.28,1.98,5.29,3.27,8.21,9.46,6.81,14.24-1.38,4.74-5.91,8.62-12.19,8.17-12.55-.91-22.42,4.72-32.05,11.4-8.25,5.73-13.17,13.48-13.87,23.69-.63,9.1-1.04,18.22-2.05,27.28-.96,8.69-1.72,17.55-4.06,25.92-4.81,17.15-16.73,26.29-34.43,27.78-2.8,.24-5.64,.06-8.42,.4-7.6,.93-10.25,3.96-8.55,11.19,1.44,6.09,3.3,12.34,6.37,17.72,5.92,10.36,13.02,20.02,19.26,30.2,6.41,10.46,13.09,20.85,18.37,31.88,11.03,23.1,2.57,42.53-16.59,57.27-1.09,.84-2.41,1.68-3.72,1.9-10.37,1.72-20.75,3.43-31.17,4.78-1.66,.21-3.55-1.41-5.33-2.18-.11-.97-.21-1.95-.32-2.92Zm22.94-237.55c-12.04,17.23-19.72,36.06-24.21,57.29,6.52-.54,7.47-4.05,8.63-7.81,4.41-14.31,9.06-28.55,13.61-42.82,.7-2.2,1.31-4.44,1.97-6.66Z"/>
        <path d="M330.55,735.66c-3.79-12.08-10.45-21.73-19.22-30.11-3.38-3.23-6.81-4.33-11.42-2.47-10.06,4.06-20.22,8.01-31.46,6.91-1-.1-2.17,.17-3.06,.63-13.22,6.87-25.04,1.94-37.05-3.84-15.46-7.44-27.95-18.01-38.79-31.36-6.52-8.03-15.49-14.09-23.44-20.95-1.85-1.59-4.48-2.45-5.96-4.28-5.03-6.23-11.22-9.12-19.26-8.37-1.47,.14-3.06-1.12-4.29-1.61-1.04-4.92,2.04-6.44,4.98-7.37,21.71-6.91,42.37-5.85,60.35,9.67,6.06,5.23,11.45,11.41,16.34,17.77,7.17,9.32,15.73,14.56,27.87,13.55,11.51-.96,23.09-1.15,34.62-1.94,17.66-1.21,33.34,3.23,46.47,15.5,14.98,14,25.73,30.52,30.13,50.77,2.26,10.39-1.83,19.02-9.99,21.51-7.99,2.44-19.26-2.73-23.21-10.65-2.33-4.68-1.48-6.63,6.38-13.35Z"/>
      </g>
    </g>
    <path class="cls-6" d="M555.42,250.11c2.36-16.53,10.15-33.97,27.02-46.49,13.61-10.1,29.41-14.61,45.73-17.6,11.07-2.02,21.93-4.21,31.49-10.85,4.8-3.33,9.08-.68,9.11,5.21,.01,2.74-.48,5.7-1.58,8.19-8.65,19.55-16.87,39.32-26.47,58.4-8.46,16.82-22.34,28.65-39.57,36.35-2.55,1.14-5.2,2.18-7.9,2.81-22.11,5.15-38.45-8.79-37.82-36.02Z"/>
    <path class="cls-5" d="M419.95,105.19c2.61,.62,3.81,1.02,5.03,1.18,13.89,1.83,27.82,3.4,41.68,5.48,18.13,2.72,30.76,14.64,42.9,26.96,2.25,2.29,3.92,6.26,3.88,9.44-.06,5.72,2.34,9.99,5.11,14.55,3.08,5.08,5.46,10.58,8.21,15.86,4.04,7.76,7.98,15.58,12.24,23.22,3.98,7.14,9.15,13.29,16.24,17.63,18.37,11.25,23.31,27.9,19.37,48.15-.39,1.99-.25,4.08-.42,7.24,4.42-1.75,8.02-3.17,13.54-5.35-.48,4.09-.28,6.73-1.13,8.98-5.31,14.13-11.23,28.03-16.17,42.28-2.74,7.9-4.7,16.24-5.78,24.54-3.09,23.71-4.85,47.73-.76,71.31,3.78,21.82,10.64,43.11,25.11,60.7,7.54,9.16,11.9,19.78,16.63,30.35,1.7,3.8,3.46,7.9,6.27,10.82,7.08,7.33,10.98,16.08,14.03,25.59,7.45,23.2,13.44,46.54,11.19,71.28-2.72,29.87-14.83,54.21-39.52,72.27-12.9,9.43-26.49,15.12-42.41,16.68-11.5,1.13-22.47,.49-33.09-3.78-24.57-9.88-47.96-21.65-66.94-40.88-10.59-10.73-21.49-21.3-33.21-30.75-15.46-12.47-30.11-25.81-48.51-34.76-34.86-16.97-66.96-38.42-94.4-66.27-14.53-14.75-25.03-32.11-33.16-50.92-4.87-11.27-8.77-22.97-13.23-34.42-2.93-7.52-5.53-15.25-9.24-22.38-8.37-16.06-13.28-33.26-17.45-50.69-1.2-5.03-1.43-10.51-1.01-15.69,2.11-25.88,4.69-51.72,6.87-77.59,.74-8.73,.99-17.51,1.1-26.27,.27-20.97,8.1-39.75,16.94-58.16,1.34-2.8,4.89-6.3,7.51-6.38,5.96-.18,8.03-3.84,9.86-8,14.65-33.31,41.35-54.08,72.41-70.65,22.89-12.22,47.11-20.45,72.62-24.2,12.39-1.82,25.19-1.07,37.81-1.1,3.04,0,6.17,1.31,9.12,2.39,3.56,1.3,6.62,3.93,5.3,7.84-.83,2.45-3.72,5.09-6.24,5.88-5.9,1.85-12.07,2.8-18.3,7.64Z"/>
    <path class="cls-6" d="M570.13,632.4c-2.55,2.32-4.82,4.46-7.17,6.5-11.48,9.99-24.84,15.94-39.95,17.19-20.73,1.72-37.9-5.45-50.71-22.15-21.97-28.64-18.6-78.5,6.74-104.26,4.04-4.11,8.17-6.09,13.91-5.51,9.78,.98,19.59,1.61,29.39,2.36,24.77,1.9,47.95-4.62,70.66-13.49,1.3-.51,2.78-1.07,3.64-2.07,6.31-7.42,13.18-4.55,19.94-1.09,8.34,4.27,15.22,10.5,19.44,18.76,14.22,27.84,17.17,56.38,1.53,84.55-4.45,8.02-11.41,15.25-18.69,20.97-13.7,10.77-29.29,10.5-44.09,1.1-1.43-.91-2.88-1.78-4.64-2.86Z"/>
    <path d="M325.16,272.88c19.47-.99,33.05,7.67,44.49,20.5,3.49,3.91,5.93,8.75,9.35,12.73,7.76,9.02,15.74,17.86,23.83,26.6,5,5.41,10.65,10.23,15.52,15.74,23.18,26.21,18.11,59.17,4.51,80.37-14.04,21.88-47.34,38.65-82.22,22.31-15.91-7.45-28.9-18.53-38.6-33.36-14.54-22.23-25.32-46.29-33.38-71.42-8.13-25.33,3.55-51.97,27.05-64.58,9.59-5.15,19.1-10.97,29.44-8.9Z"/>
    <g>
      <path d="M539.29,655.15c.81-5.13,1.36-12.89,3.37-20.25,2.67-9.77,8.75-17.56,17.47-22.91,9.69-5.94,20.31-3.62,26.78,5.75,4.55,6.6,6.96,14.14,5.33,21.96-2.65,12.64-5.98,25.16-9.68,37.54-1.15,3.84-3.93,7.5-6.76,10.49-11.32,11.93-27.96,8.3-33.55-7.15-.83-2.3-1.63-4.7-1.86-7.1-.51-5.23-.65-10.5-1.09-18.33Z"/>
      <path d="M527.84,597.69c-1.02,7.26-1.68,14.6-3.18,21.77-1.58,7.59-5.53,13.96-13.72,15.62-8.42,1.71-14.95-2.23-19.94-8.83-10.07-13.31-10.19-38.28-.3-51.64,7.75-10.47,22.58-10.37,30.55,.19,4.39,5.82,6.28,12.88,6.59,22.9Z"/>
      <path d="M592.91,585.99c.71-10.55,4.24-22.35,15.46-30.45,10.28-7.42,21.75-4.14,24.54,8.27,3.82,17,.62,33.61-9.2,48.1-5.63,8.32-18.67,6.62-25.09-2.51-4.37-6.21-5.93-13.36-5.71-23.42Z"/>
      <path class="cls-3" d="M285.8,327.72c3.57-.12,7.27-.9,10.69-.26,21.36,3.99,39.62,14.08,54.15,30.1,6.78,7.47,12.06,16.33,17.84,24.69,1.36,1.96,2.33,4.36,2.86,6.7,1.09,4.83-1.86,8.05-5.38,10.53-3.62,2.55-6.36,.22-9.24-2.15-12.13-10.01-24.41-19.83-36.63-29.73-1.36-1.1-2.8-2.12-3.98-3.38-.64-.69-.82-1.81-1.21-2.75q6.43-2.41,31.62,9.54c-5.75-10.19-13.67-16.21-21.78-21.86-10.12-7.05-21.11-12.43-33.23-15.29-2.15-.51-4.09-1.88-6.13-2.86,.14-1.09,.28-2.18,.42-3.27Z"/>
      <path d="M538.16,246.41c-3.05,19.91-6.63,39.79-3.79,62.03,2.23-4.33,3.64-7.24,5.21-10.06,1.53-2.75,2.75-5.96,5.02-7.92,1.73-1.49,5.55-2.53,7.22-1.59,1.66,.93,2.1,4.53,2.47,7.05,.17,1.13-.99,2.56-1.77,3.71-8.1,12.05-11.26,25.57-12.07,39.83-.08,1.4,.07,2.99-.53,4.15-1.02,1.97-2.4,4.98-3.93,5.18-2.38,.3-5.53-.79-7.39-2.4-1.63-1.42-2.31-4.29-2.78-6.64-4.69-23.68-5.63-47.44-.19-71.1,1.56-6.76,4.49-13.23,7.06-19.73,.52-1.32,2.28-2.14,3.47-3.2,.66,.23,1.33,.46,1.99,.69Z"/>
    </g>
    <path d="M160.27,85.21c-.57,7.66,2.65,14.08,6.93,19.99,14.64,20.2,34.41,34,56.89,43.92,9.9,4.37,20.49,7.21,30.88,10.38,2.45,.75,5.36-.17,8.04,.02,1.63,.11,3.43,.53,4.78,1.38,10.06,6.37,13.98,18.69,9.99,31.08-3.34,10.39-9.63,18.66-18.39,25.07-6.46,4.73-13.87,6.48-21.51,4.67-31.56-7.45-61.54-18.6-87.03-39.44-15.48-12.66-28.51-27.18-33.19-47.44-5.43-23.48,7.25-48.25,29.22-58.45,8.53-3.96,15.13-.29,13.39,8.83Z"/>
    <path class="cls-7" d="M37.18,236.91c5.15-.5,8.48-1.16,11.79-1.07,10.89,.27,21.78,1.25,32.66,1.18,26-.16,52-.78,77.99-1.19,15.82-.26,31.64-.67,47.46-.68,13.67,0,24.6,4.76,30.51,18.23,2.53,5.76,6.18,11.02,9.13,16.61,13.49,25.63,12.08,51.51,.13,77.02-3.75,8.01-10.72,13.66-19.66,16.46-32.95,10.28-63.69,7.05-92.05-13.77-37.62-27.6-68.73-61.06-92.58-101.17-1.87-3.14-3.11-6.66-5.39-11.61Z"/>
    <path class="cls-6" d="M229.45,307.66c.11,18.96-15.36,34.95-35.56,35.29-7.83,.13-16.22-1.39-23.49-4.32-26.26-10.56-48.16-26.89-64.13-50.82-4.01-6.01-9.88-10.79-15-16.03-1.95-2-4.44-3.51-6.26-5.6-2.92-3.36-1.57-6.98,2.96-7.39,3.78-.34,7.76-.07,11.49,.72,18.46,3.94,36.96,2.24,55.5,1.06,9.77-.62,19.61-.82,29.4-.61,24.24,.5,46.77,29.07,45.1,47.71Z"/>
    <g>
      <path class="cls-3" d="M949.28,781.56l-1.6-.64c-.6-.24-1.34-.52-2.18-.84-2.7-1.02-6.41-2.42-10.15-4.2-13.87-6.59-27.91-13.36-41.5-19.89-28.54-13.74-58.06-27.94-87.29-41.29-15.29-6.99-31.53-13.18-47.24-19.16-7.52-2.87-15.29-5.83-22.94-8.87-3.38-1.34-7.01-2.85-10.69-4.82-10.51-5.62-15.34-16.44-12.03-26.94,3.38-10.71,13.58-16.72,25.38-14.94,.51,.08,1.04,.17,1.57,.28l3,.61c10.19,2.08,20.72,4.22,31.14,6.86,56.18,14.22,112.17,33.56,166.43,57.51,10.17,4.49,19.75,9.74,26.96,13.81,4.71,2.66,9.31,6.4,13.66,11.11,9.5,10.28,11.43,25.1,4.81,36.86-6.56,11.66-19.7,17.24-35.15,14.91l-2.17-.35Z"/>
      <path class="cls-4" d="M953.4,766.7c-2.48-1-7.1-2.58-11.47-4.66-42.99-20.45-85.71-41.51-129.01-61.29-23.12-10.56-47.24-18.93-70.89-28.33-3.1-1.23-6.19-2.53-9.13-4.1-4.06-2.17-5.68-5.52-4.64-8.81,1.12-3.55,4.36-5.26,9.26-4.26,11.18,2.29,22.4,4.52,33.46,7.32,56.27,14.24,110.91,33.24,164,56.67,8.77,3.87,17.27,8.42,25.62,13.13,3.69,2.08,7.05,5.03,9.94,8.16,5.2,5.63,6.01,13.08,2.71,18.95-3.3,5.87-10.09,8.78-19.84,7.22Z"/>
      <path class="cls-3" d="M757.69,488.71c-5.68-.86-10.54-4.28-13.35-9.41-4.33-7.91-1.86-17.95,2.67-23.38,.88-1.06,1.75-2.12,2.63-3.18,5.04-6.12,10.25-12.45,16.77-18.07,20.82-17.93,41.29-35.42,62.81-52.25,22.81-17.84,46.35-35.37,69.12-52.32,5.71-4.25,11.43-8.51,17.13-12.77,5.11-3.82,10.81-7.33,17.42-10.73,6.49-3.34,13.53-4.56,20.37-3.53,3.68,.55,7.28,1.75,10.69,3.56,10.77,5.7,17.02,17.19,16.72,30.73l-.1,4.35-2.37,3.65c-.57,.87-1.18,1.93-1.83,3.05-1.9,3.29-4.27,7.39-7.94,11.04-5.96,5.92-12.18,10.94-18.49,14.92-17.64,11.12-35.63,22.27-53.03,33.06-12.47,7.73-24.94,15.46-37.38,23.24-18.22,11.39-36.7,23.06-54.58,34.35-8.64,5.45-17.27,10.91-25.91,16.35l-1.03,.65c-1.87,1.18-3.98,2.52-6.29,3.77-4.9,2.64-9.49,3.59-14.04,2.91Z"/>
      <path class="cls-4" d="M965.35,337.04c-2.53,3.9-4.49,8.36-7.71,11.56-4.8,4.77-10.14,9.22-15.86,12.83-30.02,18.92-60.27,37.46-90.36,56.27-26.9,16.82-53.7,33.82-80.54,50.73-2.12,1.33-4.22,2.71-6.42,3.89-2.29,1.24-5.22,2.28-6.68-.37-.82-1.5-.2-4.77,1-6.21,5.6-6.72,11.04-13.77,17.63-19.45,20.45-17.61,41-35.16,62.25-51.79,28.28-22.12,57.21-43.4,85.98-64.88,4.77-3.56,9.97-6.66,15.26-9.38,5.44-2.8,11.28-3.02,16.88-.05,5.76,3.05,8.73,9.5,8.57,16.86Z"/>
      <path class="cls-3" d="M798.69,583.79c-1.23-.19-2.43-.44-3.58-.76-5.99-1.68-13.13-6.83-15.59-14.57-.87-2.74-4.32-16.73,13.06-23.78l.17-.07c27.65-11.24,57.51-18.22,88.75-20.75,22.91-1.85,46.02-5.56,70.65-11.33,4.66-1.09,9.23-1.58,12.26-1.91,.83-.09,1.55-.16,2.12-.24l2.19-.31,2.19,.33c20.92,3.15,26.95,15.7,28.68,22.9,3.2,13.27-2.85,26.54-15.04,33.02-6.3,3.35-13.62,5.96-21.18,7.56-19.94,4.22-41.9,5.95-69.11,5.43-24.79-.47-51.57,.96-84.27,4.5-3,.33-6.99,.62-11.29-.03Z"/>
      <path class="cls-4" d="M968.64,525.56c9.67,1.44,14.64,5.51,16.04,11.34,1.44,5.97-1,12.53-7.34,15.9-5.31,2.82-11.26,4.85-17.16,6.1-21.63,4.58-43.63,5.52-65.65,5.1-28.86-.55-57.55,1.48-86.21,4.59-3.01,.33-6.25,.48-9.1-.32-2.03-.57-4.51-2.56-5.11-4.45-.93-2.93,1.96-4.02,4.4-5.01,27.04-10.99,55.14-17.32,84.21-19.67,24.6-1.99,48.88-6.05,72.91-11.68,5.09-1.19,10.39-1.53,13-1.89Z"/>
    </g>
  </g>
</svg>