<?xml version="1.0" encoding="UTF-8"?>
<svg id="Livello_2" data-name="Livello 2" xmlns="http://www.w3.org/2000/svg" viewBox="0 0 28.8 20.58">
  <defs>
    <style>
      .cls-1 {
        fill: #f8f9fa;
      }

      .cls-2 {
        fill: #bf5557;
      }

      .cls-3 {
        fill: #ddd;
      }

      .cls-4 {
        fill: #d1d3d2;
      }

      .cls-5 {
        fill: #c5686a;
      }

      .cls-6 {
        fill: #e1e1e0;
      }

      .cls-7 {
        fill: #dfca8a;
      }

      .cls-8 {
        fill: #6e6e6d;
      }

      .cls-9 {
        fill: #2a2c2d;
      }
    </style>
  </defs>
  <g id="Who_is_at_risk" data-name="Who is at risk">
    <g id="Butchers_meat-packing_employees_personnel_in_slaughterhouses" data-name="Butchers, meat-packing employees, personnel in slaughterhouses">
      <g>
        <path class="cls-3" d="m19.7,20.23s1.9-2.71,2.89-4.61c.63-1.22,2.32-3.55,3.67-5.44.85-1.19,1.3-2.32,1.44-2.58.33-.6-1.22-.82-1.22-.82l-2.28-.62-5.51,13.54,1,.52Z"/>
        <path class="cls-1" d="m.9,13.48s3.55,1.87,5.55,2.41,7.12,3.09,7.12,3.09c1.44,1.01,4.69,2.21,6.14,1.24-.93-.71.66-1.6,1.44-3,1.08-1.94,2.54-3.96,3.59-5.37-1.16-2.16.28-5.04.97-6.39.21-.4.02-.71-.25-.77-.23-.05-4.12-1.15-5.23-1.38-.19-.04-.37-.02-.51.07-.8.49-3.8,2.22-7.11,2.35l-1.41.61s-1.11.17-1.26.09-.41.63-.41.63L.68,10.86c-1,.65-.88,2.15.21,2.62Z"/>
        <path class="cls-1" d="m6.11,13.36c.35-.51,4.1-4.3,4.1-4.3,0,0,3.55,2.32,8.08,3.14-1.88,1.64-5.16,3.91-5.44,4.09s-.73.71-.81,1.96c0,0,0,.05-.11.04s-5.44-2.28-5.44-2.28c0,0-.56-.62-.66-1.28s-.09-.84.26-1.35Z"/>
        <path class="cls-5" d="m10.21,8.94c2.33,1.48,5.12,2.49,8.22,3.19l-1.03.85c-3.52-.78-5.99-1.91-8.07-3.16l.87-.89Z"/>
        <path class="cls-3" d="m14.89,14.65l.26.07s.32.12.35.13c.36.11.79.28,1.91.44.62.1,2.08.3,3.23.11.69-.12,1.35-.36,1.7-.48.24-.08.28-.07.28-.07l.09-.14s-.9.44-2.27.64-4.52-.31-5.31-.71c-1.76-.53-3.12-1-4.07-1.16-2.21-.37-3.26-.16-3.26-.16v.05c1.24-.05,2.74.05,3.7.31,1.28.35,1.62.56,3.38.98Z"/>
        <path class="cls-1" d="m8.1,12.31c.95-.02,2.81.02,4.52.55,2.42.75,5.59,1.8,7.61,1.67,1.66-.11,2.91-.64,3-.58.11.08.13.27.17.35,0,0-.5.78-.5.78.02-.07-.2-.24-.19-.39,0-.01-.03-.04-.15,0-.42.16-1.51.65-2.36.64-2.66.07-5.05-.5-8.05-1.58-1.52-.55-3.34-.53-4.36-.46"/>
        <path class="cls-5" d="m7.78,13.3c-.39.03-.66.06-.76.08-.04,0-.02-.03-.02-.03l.45-.99s.01-.01.02-.01c.06,0,.28-.02.61-.03"/>
        <path class="cls-2" d="m7,13.36s-.01.06.02.07.6-.06.75-.06c0,0,.02-.02.02-.02v-.05s-.71.04-.79.06Z"/>
        <polyline class="cls-2" points="8.05 12.35 7.76 13.28 7.78 13.28 8.07 12.34"/>
        <polygon class="cls-3" points="19.84 3.8 24.91 5.2 24.88 5.22 19.75 3.8 19.84 3.8"/>
        <path class="cls-3" d="m9.73,7.11s2.28.71,3.91.75c0,0-2.02-.15-3.49-.82,0,0-.3-.12-.42.07Z"/>
        <path class="cls-1" d="m11.01,14.23c-.71-1.21-1.42-1.81-2.94-2.62-1.77-.94-2.8-2.72-2.8-2.72,0,0-.08,0-.12.02-.02-.02.88-.47.99-.49.13-.02.14.03.14.03,0,0,.72,1.57,2.58,2.51,1.5.6,2.45,1.67,3.03,2.54.02.03.17.18.19.21.04.07,0,.08.04.14.06.09.11.18.16.27l-1.27.1Z"/>
        <path class="cls-5" d="m11.02,14.24c.11.19.14.24.26.47l1.24-.1s-.02-.09-.23-.46l-1.27.1Z"/>
        <path class="cls-2" d="m11.02,14.24c.11.19.14.24.26.47l1.24-.1s0,.06,0,.07c-.83.08-1.21.11-1.23.11s-.04-.02-.04-.02l-.24-.46v-.05Z"/>
        <path class="cls-3" d="m11.01,14.23c-.71-1.21-1.42-1.81-2.94-2.62-1.77-.94-2.8-2.72-2.8-2.72,0,0-.07,0-.12.02-.02.01,0,.03,0,.03,0,0,1.05,1.8,2.92,2.74.43.21.81.42,1.13.65.01,0,.05,0,.06,0,.48.33.86.69,1.15,1.04h-.02c.21.28.46.65.6.92v-.06Z"/>
        <path class="cls-3" d="m15.15,14.71c-1.16.84-2.13,1.46-2.3,1.57-.28.18-.73.71-.81,1.96,0,0,.17.04.06.03s.13-1.68,1.19-2.19c.43-.21,1.2-.76,1.96-1.35"/>
        <path class="cls-3" d="m16.25,13.94c.67-.54,1.16-.96,1.16-.96h-.06c-.38.32-.77.64-1.16.95"/>
        <path class="cls-3" d="m8.5,10.76c.34-.35.64-.66.88-.91l.03.02c-.26.27-.57.58-.89.91l-.02-.02Z"/>
        <path class="cls-3" d="m7.8,11.53c-.81.84-1.54,1.62-1.69,1.83-.35.51-.36.69-.26,1.35s.66,1.28.66,1.28c-.4-.43-.62-.82-.69-1.24,0-.04-.26-.81.27-1.42.46-.55,1.08-1.2,1.68-1.82l.03.02Z"/>
      </g>
      <g>
        <path class="cls-1" d="m11.02,4.29s-1.24-2.24.05-2.93C14.19-.41,19.35-.22,20.16.62s1.33,2.49,1,3.08c-1.22,1.05-10.13.58-10.13.58Z"/>
        <path class="cls-2" d="m10.96,5.56s2.92.04,3.75.17,3.32.08,6.51-.62l-10.16.41-.09.03Z"/>
        <path class="cls-5" d="m10.96,5.56s1.96-.19,4.13.11,6.12-.55,6.12-.55l-.06-1.41s-3.62.76-6.19.5c-2.56-.26-3.41-.24-3.94.08l-.06,1.28Z"/>
        <path class="cls-3" d="m17.8,3.75c.08,0,.9-.16,1.91-.25s1.05-1.17,1.05-1.17c0,0-.12.48-1.21.74s-1.76.68-1.76.68Z"/>
        <path class="cls-3" d="m10.81,2.89s.23,1.03.41,1.11c.04.02.09-.09.33-.13s1.03-.21,1.97.02c0,0-1.3-.48-1.79-.36-.44.09-.92-.64-.92-.64Z"/>
        <path class="cls-5" d="m11.02,4.29s.03-.19-.51.04-1.41,1.38-1.41,1.38c0,0-.82,1.34-.64,1.79,0,0,.5-1.39,1-1.93s1.23-1.33,1.56-1.29Z"/>
        <path class="cls-5" d="m11,4.26s.06-.18-.51-.04-1.63,1.12-1.63,1.12c0,0-1.04,1.18-.93,1.66,0,0,.73-1.28,1.32-1.74s1.44-1.1,1.75-1Z"/>
        <path class="cls-3" d="m21.11,2.34s.25.39.21,1.36l-.1,1.42-.06-1.41s.23-.44-.05-1.36Z"/>
      </g>
      <g>
        <path class="cls-4" d="m25.35,4.67s2.21,2.31,2.6,2.85,1.41,1.46.44,2.23-8.4,5.71-8.4,5.71c0,0-2.3-2.53-2.54-2.54s-1,.35-1,.35c0,0-3.59,1.98-3.98,2.22s-1.68.91-1.83,1.1-.39.72-.84.67c-.35-.04-.86-.71-1.04-.97-.05-.07-.08-.14-.09-.22l-.06-.34c-.02-.11.03-.22.13-.27.08-.04.15-.08.23-.12.1-.05.21-.11.31-.16.13-.07.26-.13.39-.2.15-.08.3-.16.45-.23.17-.09.34-.18.51-.26.18-.1.37-.19.55-.29.2-.1.39-.21.59-.31s.41-.21.61-.32.42-.22.63-.33.43-.22.64-.34.42-.22.64-.34.42-.22.62-.33.4-.21.6-.32.38-.21.57-.31c.18-.1.36-.19.53-.29.33-.18.64-.37.97-.61.29-.21.43-.31.71-.53.15-.12.43-.35.58-.47s.31-.24.45-.37c.02-.02.05-.04.07-.05.17-.14.34-.27.5-.4.18-.14.36-.29.54-.43s.36-.29.54-.43c.17-.13.34-.27.51-.4.15-.12,3.03-2.26,3.18-2.38.12-.09.24-.19.36-.28.08-.06.16-.12.24-.19.03-.02.06-.04.09-.07Z"/>
        <path class="cls-6" d="m28.58,8.37s-.13.5-.86.98-8.22,5.53-8.22,5.53l.55.54,7.84-5.3s1-.57.9-1.17c-.07-.38-.17-.53-.21-.58Z"/>
        <path class="cls-8" d="m19.5,14.87l-1.83-1.97s-.15-.21-.48-.08-.63.27-.63.27c0,0-2.08,1.06-3.1,1.68s-2.33,1.34-2.33,1.34l-.13.09s-.06.04-.09.06l-.09.06s-.08.05-.11.07-.07.05-.1.09c-.06.07-.11.14-.15.22-.04.06-.07.12-.1.18,0,0-.13.22-.32.3s-.49-.04-.49-.04c0,0,.18.19.53.1s.43-.41.43-.41c0,0,.11-.15.29-.31s3.31-1.93,3.31-1.93l1.89-.97s.76-.4,1.01-.44c.09-.01.17-.03.26-.03s.19,0,.27.03c.05.02.1.05.15.07,0,0,0,0,0,0,0,0,0,0,0,0,0,0,.01,0,.02.01.01,0,.02.01.03.02.02.02.05.03.07.05.05.03.09.06.14.09l.05.03c.07.04.13.11.2.16.08.06.14.14.2.21l.18.2.36.41s.08.09.12.13l.59.56.33.33.06-.05-.55-.54Z"/>
        <path class="cls-9" d="m17.4,12.78s-.53-1.24-.91-1.41l-7.74,4.08c-.1.05-.15.16-.13.27l.02.12.03.19s.02.09.03.14c.03.08.09.15.14.22.05.06.09.13.14.19.05.07.1.13.15.2.04.05.09.11.13.16.02.02.04.04.06.06.15.12.35.31.67.22.15-.04.29-.11.49-.56.13-.29,1.03-.74,1.02-.75,3.79-2.16,5.47-3.07,5.89-3.12Z"/>
        <circle class="cls-7" cx="15.62" cy="12.49" r=".24"/>
      </g>
    </g>
  </g>
</svg>