<?xml version="1.0" encoding="UTF-8"?>
<svg id="Livello_2" data-name="Livello 2" xmlns="http://www.w3.org/2000/svg" viewBox="0 0 17.37 26.05">
  <defs>
    <style>
      .cls-1 {
        fill: #fbd4c3;
      }

      .cls-2 {
        fill: #fff;
      }

      .cls-3 {
        fill: #b63a3e;
      }

      .cls-4 {
        fill: #b87777;
      }

      .cls-5 {
        fill: #d99998;
      }

      .cls-6 {
        fill: #bf5557;
      }

      .cls-7 {
        fill: #c5686a;
      }
    </style>
  </defs>
  <g id="Who_is_at_risk" data-name="Who is at risk">
    <g id="ic_comorbidities">
      <path class="cls-2" d="m17.11,18.79c.14-1.14-.07-4.41-.13-5.15-.05-1.96-.46-4-3.06-4.32-.12-.03-.82-.25-1.54-.47-.77-.24-1.57-.48-1.67-.49-.02-.03-.08-.2-.07-.6.24.03.43.04.58.04.37,0,.61-.06.73-.18.09-.08.27-.3.14-.72-.05-.23-.03-.28-.04-.28,0,0,0,0,0,0,.29-.19.36-.49.18-.66.08-.11.17-.3.08-.47.02-.02.08-.05.12-.07.15-.07.37-.17.41-.43.04-.26-.12-.53-.55-.93-.3-.3-.3-.4-.29-.42.28-.69.16-1.49-.32-2.2-.6-.89-1.65-1.44-2.74-1.44-.94,0-1.86.4-2.68,1.16-2.51,2.46-.53,4.49.22,5.25.07.07.13.13.18.18.17,1.01.1,1.85-.17,1.93-.98.31-1.59.46-2.13.58-.87.2-1.5.34-2.92,1.07-1.07.58-1.14,3.04-1.12,6.19,0,.91.01,1.69-.04,2.19C.11,20.12.02,24.46,0,25.76c0,.08.03.15.08.2.05.05.13.08.2.08h2.09c.15,0,.28-.12.28-.27.04-.77.09-1.63.33-2.87.21-.93,0-3.26-.03-3.67.11-.38.34-1.56.54-2.66.14.52.15.64.15.66,0,.28.14,2.17.2,2.66.05.42-.2,1.92-.33,2.6-.13.35-.4,1.24-.54,2.19,0,.01-.01.02-.02.03l-.02.24s0,0,0,0c-.03.28-.05.56-.04.82,0,.15.13.28.28.28h11.07c.15,0,.28-.12.28-.28,0-.23,0-.48-.03-.74,0,0,0,0,0,0,0-.11-.02-.22-.03-.32,0-.01-.01-.02-.02-.03-.14-.96-.41-1.84-.53-2.14-.14-.7-.39-2.22-.34-2.64.05-.49.2-2.38.2-2.64,0-.13.07-.35.14-.61,0-.03.02-.06.02-.09.04.19.07.38.1.57.21,1.14.33,1.84.43,2.12-.04.48-.23,2.73-.03,3.65.21,1.16.32,2.05.33,2.88,0,.16.13.28.28.28h2.01c.16,0,.28-.12.28-.28.02-1.66-.03-6.07-.25-6.97Z"/>
      <g>
        <path class="cls-1" d="m17.08,25.76h-2.01c-.01-.73-.09-1.58-.34-2.92-.21-.96.03-3.53.04-3.64-.17-.38-.65-3.59-.93-4.63l.04.4c.13.62-.34,1.83-.37,2.25,0,.25-.14,2.12-.2,2.63-.06.51.23,2.17.35,2.73.15.41.42,1.32.54,2.23,0,.07.02.15.03.22,0,0,0,0,0,0,.03.24.04.49.03.71H3.18c0-.25,0-.52.04-.79,0-.06.01-.11.02-.17.12-.9.39-1.82.54-2.22.12-.56.4-2.22.35-2.73s-.2-2.38-.2-2.63c0-.1-.08-.44-.18-.81-.16-.6-.21-1.23-.15-1.85,0-.02-.03-.03-.03,0-.23,1.3-.76,4.2-.9,4.63,0,.1.25,2.68.04,3.63-.26,1.32-.31,2.22-.34,2.92H.28c.02-1.24.11-5.62.28-7.18.2-1.83-.38-7.4,1.01-8.16,2.24-1.14,2.42-.8,5.01-1.63.7-.2.42-1.94.35-2.32-.4-.52-3.09-2.53-.46-5.11,2.83-2.64,6.08.13,5.27,2.17-.11.21.11.49.36.73,1.11,1.04-.1.74-.04,1.2.03.1.03.22-.05.33-.05.07-.06.16-.01.23.06.1.09.24-.1.37-.13.13-.14.28-.08.58.1.35-.07.46-.07.46,0,0-.12.18-1.17.05-.11-.01-.21.07-.22.18-.01.32,0,.89.22.94.32.08,3.02.93,3.28,1,2.33.28,2.79,1.98,2.85,4.05.08,1.07.25,4.08.13,5.11.22.97.28,5.34.25,7Z"/>
        <path class="cls-1" d="m3.25,24.74v.07c0,.06-.02.11-.02.17,0-.08.01-.16.02-.24Z"/>
        <path class="cls-1" d="m14.22,25.05c0-.07-.02-.15-.03-.22v-.08c0,.1.02.2.03.31Z"/>
      </g>
      <g>
        <circle class="cls-7" cx="11.48" cy="13.12" r="1.32"/>
        <circle class="cls-6" cx="11.48" cy="13.12" r=".96"/>
        <circle class="cls-3" cx="11.48" cy="13.12" r=".6"/>
      </g>
      <g id="Tracciato_30-2" data-name="Tracciato 30-2">
        <path class="cls-7" d="m8.59,2.9c-.19,0-.82-.05-.94-.12s0-.13,0-.13l.11-.06s-.98-.18-1.18-.29.15-.27.26-.23,1.26.44,1.26.44c0,0,.06.03-.12.1s-.09.07-.09.07c0,0,.88.21.69.21Z"/>
      </g>
      <g id="Tracciato_30-2-2" data-name="Tracciato 30-2">
        <path class="cls-7" d="m8.73,2.65c-.08-.1-.29-.44-.3-.53s.07-.05.07-.05l.08.03s-.29-.58-.31-.72.19-.03.22.05.26.82.26.82c0,0,0,.04-.1-.02s-.07-.02-.07-.02c0,0,.23.54.16.44Z"/>
      </g>
      <g>
        <path class="cls-5" d="m8.48,16.09c.06.69-.05.79-.84,1.94-.15.22-.27.43-.35.61-.34.76-.2,1.68.39,2.26.23.23.49.36.76.41.6.12,1.24-.15,1.64-.59.77-.83-.2-2.72-.2-2.72,0,0,0,.51-.32.71,0,0-.23.02-.11-.27,0,0,.27-.5-.1-1.27-.11-.24-.27-.45-.45-.64l-.41-.44Z"/>
        <path class="cls-4" d="m8.14,19.37s-.65.79.06,1.64c.22.26.6.38.91.22.18-.09.36-.26.47-.58.17-.48.02-1.02-.34-1.38l-.02-.02c-.47-.44-.27-1.04-.27-1.04,0,0-.74.5-.52,1.55,0,0-.2.02-.29-.4Z"/>
      </g>
    </g>
  </g>
</svg>