<?xml version="1.0" encoding="UTF-8"?>
<svg id="Livello_2" data-name="Livello 2" xmlns="http://www.w3.org/2000/svg" viewBox="0 0 798.77 896.19">
  <defs>
    <style>
      .cls-1 {
        fill: #fad5c4;
      }

      .cls-2 {
        fill: #fff;
      }

      .cls-3 {
        fill: #f2c5b3;
      }

      .cls-4 {
        fill: #e5b8a6;
      }

      .cls-5 {
        fill: #6790a5;
      }

      .cls-6 {
        fill: #82b9d9;
      }
    </style>
  </defs>
  <g id="Livello_1-2" data-name="Livello 1">
    <path class="cls-2" d="M387.86,896.19c-7.74,0-15.51-.15-23.02-.3-4.44-.09-8.89-.17-13.33-.23-12.68-.16-24.93-1.54-36.78-2.87-15.35-1.72-32.74-3.68-49.84-6.49-23.37-3.85-46.99-9.36-70.21-16.39-24.65-7.46-48.22-16.75-70.06-27.6-26.54-13.19-46.61-26.59-63.17-42.16-3.42-3.22-6.63-6.49-9.73-9.65-2.3-2.34-4.47-4.56-6.67-6.7-1.92-1.87-3.94-3.73-6.08-5.69-2.9-2.66-5.9-5.42-8.87-8.42C10.42,749.82,.3,725.44,0,697.22c-.32-30.61,10.41-58.98,31.89-84.33,6.05-7.14,13.03-13.83,21.97-21.04,.6-.49,1.56-1.47,2.49-2.42,1.36-1.4,2.91-2.99,4.8-4.61,2.42-2.07,4.79-4.16,7.3-6.38,6.9-6.07,14.03-12.35,21.91-18.08,20.2-14.67,37.73-25.46,55.16-33.95,16.68-8.13,35.15-14.99,56.48-20.99,8.1-2.28,16.2-4.52,24.31-6.77,10.34-2.87,21.04-5.83,31.51-8.8,.96-.27,2.02-.65,3.03-1.02l5.75-3.79,1.8,.32s0,0,.01,0c2.57-.98,5.23-2.07,7.89-3.18-.88-4.14-1.74-8.34-2.51-12.55-1.3-7.12-3.6-13.63-7.03-19.91-4.81-8.79-8.12-18.39-9.85-28.53-.62-3.63-1.61-7.44-2.72-11.43-15.86-3.72-28.33-14.17-35.76-30.25-3.55-7.69-5.85-15.36-8.07-22.78-.66-2.2-1.32-4.4-2.01-6.59-.53-1.66-1.07-3.33-1.62-4.99-2.16-6.55-4.39-13.32-5.71-20.83-4.44-25.17,1.84-39.59,6.94-48.24,5.14-8.71,12.51-14.51,21.27-16.92-.19-1.21-.37-2.43-.55-3.65-.85-5.83-.93-11.45-.92-15.18,0-2.24,0-4.48,.01-6.72,0-10.68,.02-21.72,.52-32.77,.3-6.55,1.32-12.6,2.31-18.44,.29-1.74,.59-3.48,.86-5.22,.48-3.11,.95-6.22,1.42-9.32,1.53-10.1,3.11-20.54,5.04-30.9,3.56-19.06,11.91-36,19.61-50.06,13.04-23.81,33.11-40.61,59.65-49.93,7.74-2.72,15.48-4.78,22.96-6.78,3.65-.98,7.1-1.9,10.54-2.89,2.68-.77,5.44-1.73,7.79-2.57,3.42-1.22,6.82-2.49,10.23-3.75,7.09-2.63,14.42-5.34,21.94-7.75,11.02-3.53,21.67-4.01,31.55-4.01,2.11,0,4.21,.02,6.32,.05,1.19,.01,2.39,.03,3.58,.04h2.91c3.75,0,7.83,.15,12.2,1.27,6.65,1.7,12.9,3.66,18.79,5.9l3.63-16.48,19.97,8.02c1.78,.54,5.64,1.76,9.24,5.19,7.7,7.33,13.85,16.03,18.66,26.42,7.99,1.21,15.34,3.82,21.92,7.82,4.32,2.62,6.58,6.13,7.56,7.68l13.55,17.66-12.56,6.22c1.01,1.24,2.02,2.48,3.02,3.73,1.03,1.29,2.07,2.58,3.1,3.87,6.77,8.45,13.78,17.18,20.03,26.72,8.9,13.57,14.12,28.56,15.5,44.55,.31,3.59,.91,7.37,1.54,11.37,.77,4.89,1.57,9.94,1.96,15.33,1,13.55,1.57,29.6-1.74,45.89-1.84,9.05-3.32,18.08-4.9,27.64-.72,4.38-1.44,8.77-2.2,13.15-.06,.36-.13,.78-.22,1.25,8.72,2.61,15.89,9.51,19.59,19.26,1.45,3.82,2.32,7.96,2.61,12.33,.92,14.27-1.24,27.74-3.72,40.18-.27,1.37-.54,2.75-.81,4.12-2.2,11.23-4.48,22.84-8.85,34.5-2.24,5.97-5.17,11.46-7.74,16.05-5.3,9.45-14.62,15.38-26.28,16.74-.3,1.23-.61,2.47-.96,3.72-3.26,11.84-8.38,22.15-13.34,32.13-.56,1.13-1.12,2.26-1.68,3.39-.81,1.65-1.64,3.13-2.37,4.43-.74,1.32-1.57,2.81-1.84,3.56-.66,1.86-1.2,4.31-1.77,6.91-.29,1.31-.58,2.62-.89,3.92-.97,4.04-1.38,8.31-1.51,12.97,2.36,.35,4.71,.71,7.07,1.06,.19,0,.39,0,.58,0,4.61,0,9.38,1.24,11.98,2.04,13.39,2.58,27.27,7.02,43.57,13.91,32.86,13.9,64.5,33.89,94.05,59.42,12.49,10.8,21.71,19.44,29.88,28.05,25.86,27.21,44.98,53.73,58.44,81.07,7.66,15.55,13.08,30.24,16.58,44.92l.26,1.05c.51,2.06,1.14,4.61,1.65,8.59l.09,.72,.04,.73c.3,5.96-.19,12.99-6.19,19.91-2.03,2.35-3.92,4.6-5.74,6.78-4.57,5.47-8.89,10.64-14.91,16.57-11.81,11.64-25.39,22.73-40.36,32.96-27.45,18.76-58.63,34.63-95.35,48.53-40.47,15.32-83.32,26.46-131.01,34.08-13.73,2.19-27.56,3.65-40.93,5.07l-5.94,.63c-21.71,2.32-43.01,2.98-60.99,3.32-3,.06-6.09,.08-9.43,.08Z"/>
    <g>
      <path class="cls-6" d="M278.87,503.29c-.78,.73-1.57,1.46-2.55,2.38,.65,.16,1.11,.43,1.5,.34,8.76-1.99,17.47-4.26,26.29-5.95,5.63-1.08,11.41-1.36,17.13-1.9,4.38-.42,8.78-.7,13.17-1.05,11.65-.93,23.29-1.89,34.94-2.8,2.2-.17,4.4-.18,6.61-.26,7.79-.29,15.57-.75,23.36-.8,5.58-.04,11.16,.53,16.74,.73,11.85,.42,23.72,.54,35.56,1.24,10.47,.63,20.96,1.54,31.35,2.94,20.49,2.77,40.93,5.95,61.38,8.98,15.89,2.36,30.96,7.56,45.67,13.78,32.79,13.87,62.24,33.13,89.11,56.35,9.87,8.53,19.58,17.34,28.56,26.78,21.82,22.96,41.14,47.85,55.23,76.45,6.46,13.13,11.76,26.71,15.16,40.99,.55,2.29,1.09,4.15,1.56,7.71,.2,3.89-.2,5.04-1.65,6.72-7.1,8.2-11.94,14.69-19.64,22.28-11.6,11.43-24.3,21.63-37.79,30.85-28.47,19.46-59.27,34.31-91.42,46.48-41.25,15.61-83.85,26.16-127.34,33.1-15.21,2.43-30.58,3.93-45.91,5.57-19.72,2.11-39.52,2.84-59.36,3.21-15.08,.28-30.14-.26-45.2-.45-11.66-.15-23.33-1.45-34.93-2.75-16.33-1.83-32.68-3.69-48.89-6.36-22.94-3.78-45.55-9.09-67.84-15.84-23.12-7-45.55-15.71-67.15-26.45-21.17-10.52-41.33-22.72-58.68-39.04-5.54-5.22-10.72-10.83-16.17-16.14-4.83-4.7-9.97-9.08-14.71-13.86-16.3-16.45-24.44-36.29-24.68-59.51-.29-27.68,9.81-51.23,27.46-72.06,5.86-6.91,12.44-12.93,19.45-18.58,2.76-2.23,5.02-5.07,7.71-7.39,9.26-7.94,18.19-16.37,28.03-23.52,16.61-12.06,33.84-23.24,52.37-32.27,17.15-8.36,35.04-14.65,53.35-19.8,18.61-5.23,37.27-10.3,55.86-15.58,4.07-1.15,7.95-2.94,11.95-4.36,1.32-.47,2.72-.69,4.08-1.02,.12,.28,.23,.56,.35,.84Z"/>
      <path class="cls-1" d="M258.19,287.4c0-2.25,0-4.5,0-6.75,.01-16.71,2.86-33.05,6.34-49.33,2.32-10.85,3.81-21.87,6-32.75,4.38-21.77,14.38-40.4,31-55.41,8.73-7.88,19.07-11.93,30.41-13.63,10.98-1.65,22.09-2.44,33.03-4.31,16.33-2.8,32.73-3.78,49.2-2.81,12.43,.73,24.84,2.14,37.2,3.69,11.74,1.47,23.5,2.69,35.26,1.12,22.9-3.07,40.66,10.64,48.61,28.43,4.36,9.76,6.39,19.98,7.14,30.54,.69,9.72,.94,19.5,2.22,29.13,1.09,8.2,3.59,16.21,5.1,24.37,1.64,8.91,2.89,17.89,4.26,26.85,.82,5.4-.66,10.59-1.42,15.87-.72,5.01-1,10.14-.94,15.21,.04,3.65,.95,7.28,1.5,11.12,1.6-2,3.06-4.14,4.83-5.99,3.03-3.19,6.06-6.44,9.44-9.25,7.28-6.05,15.03-3.94,18.39,4.93,.83,2.18,1.28,4.58,1.43,6.91,.77,11.95-1.07,23.61-3.4,35.32-2.4,12.06-4.51,24.17-8.84,35.71-1.74,4.66-4.1,9.12-6.54,13.47-2.66,4.74-7.31,6.82-12.44,7.35-3.46,.36-7.04-.04-10.53-.4-2.02-.21-2.24,.93-2.54,2.31-1.12,5.13-2.05,10.31-3.44,15.37-3.13,11.35-8.59,21.74-13.76,32.23-1.65,3.35-3.81,6.49-5.05,9.97-1.47,4.11-2.21,8.49-3.23,12.76-2.3,9.59-2.19,19.35-1.97,29.11,.03,1.15,.62,2.48,1.36,3.39,5.05,1.9,7.66,2.18,12.97,3.09,3.27,.56,10.72,1.59,10.72,1.59,1.6-.47,5.72,.36,8.64,1.38,2.68,.32,1.37,2.17,.83,4.82-1.93,9.54-5.17,18.61-10.03,27.07-12.17,21.2-29.88,36.52-51.25,47.81-22.41,11.84-46.35,18.6-71.6,20.67-30.69,2.5-60.3-1.7-88.25-14.99-20.33-9.67-37.42-23.31-49.29-42.79-8.09-13.28-12.04-28.77-12.09-44.32,2.37-1.25,.5,0,2.77-1.49,.48,.09,3.99-1.76,4.44-1.93,7.65-2.93,15.38-6.42,22.76-9.28-1.97-9.36-4.05-18.26-5.69-27.24-1.64-9.02-4.61-17.46-9.01-25.52-3.87-7.08-6.44-14.62-7.82-22.71-1.35-7.9-3.9-15.59-5.88-23.39-.41-1.6-1.29-2.04-2.9-2.08-14.77-.4-25.18-7.98-31.15-20.91-3.99-8.63-6.34-18.04-9.22-27.16-2.45-7.75-5.34-15.47-6.74-23.43-2.14-12.14-2.01-24.24,4.63-35.5,3.98-6.74,9.46-9.66,17.09-8.86,3.71,.39,6.65,2.38,9.41,4.69,2.44,2.05,4.89,4.1,7.33,6.15,.24-.06,.48-.12,.72-.17Z"/>
      <path d="M489.65,50.14c-1.21-6.33-2.83-11.95-5.74-17.17-.7-1.26-1.65-2.49-1.91-3.84-.21-1.11,.43-2.38,.7-3.58,.96,.38,2.15,.53,2.84,1.19,8.29,7.88,13.8,17.55,17.63,28.21,.7,1.94,1.47,2.57,3.53,2.58,8.01,.03,15.67,1.68,22.6,5.88,.92,.56,1.44,1.79,2.15,2.71-1.1,.55-2.17,1.45-3.32,1.58-4.29,.49-8.61,.72-13.37,1.09,.53,.84,.8,1.4,1.18,1.86,6.68,7.91,13.56,15.66,20.01,23.75,7.61,9.54,15.44,19,22.12,29.18,7.07,10.77,11.38,22.81,12.51,35.91,.77,8.86,2.83,17.6,3.48,26.46,1,13.61,1.34,27.22-1.42,40.8-2.78,13.7-4.82,27.55-7.2,41.32-.19,1.08-.38,2.19-.77,3.21-3.88,10.35-6.51,21.02-8.44,31.89-.55,3.07-1.58,6.06-2.49,9.06-.78,2.58-2.39,3.65-4.43,3.16-1.95-.48-3.03-2.38-2.33-4.92,5.5-19.92-.85-37.92-8.93-55.63-2.36-5.17-4.94-10.23-7.49-15.3-3.83-7.61-4.04-15.35-1.57-23.46,2.98-9.75,4.14-19.75,2.28-29.91-1.35-7.36-5.44-13.39-9.34-19.58-5.8-9.22-14.8-14.18-24.03-18.87-10.25-5.2-21.38-6.34-32.65-6.66-16-.46-31.04,3.82-45.81,9.41-11.03,4.17-22.13,8.17-33.85,9.91-13.32,1.98-26.56,1.62-39.59-2.18-5.53-1.61-11.05-3.22-16.59-4.79-1.79-.51-3.6-1.01-5.43-1.32-4.43-.75-8.45,.01-12.29,2.67-10.79,7.44-16.76,18.16-20.23,30.27-2.32,8.11-3.75,16.53-4.99,24.89-1.61,10.87-4.92,21.22-9.82,30.9-5.81,11.47-8.51,23.69-10.85,36.12-1.66,8.84-1.68,17.71-1.36,26.62,.05,1.44-.18,2.42-1.72,2.93-1.64,.54-2.09-.56-2.68-1.59-4.48-7.89-7.55-16.25-8.91-25.26-1.36-8.96-3.1-17.86-4.4-26.82-.59-4.1-.74-8.29-.73-12.44,.04-12.9-.08-25.81,.51-38.68,.33-7.25,1.85-14.45,2.97-21.65,2.05-13.23,3.92-26.5,6.37-39.66,2.97-15.93,9.92-30.44,17.63-44.51,11.03-20.14,27.94-33.72,49.45-41.27,10.61-3.72,21.65-6.23,32.47-9.34,3.01-.86,5.97-1.88,8.92-2.94,10.52-3.77,20.93-7.89,31.57-11.3,11.57-3.7,23.65-3.13,35.61-3.04,3.55,.03,7.24-.18,10.63,.69,13.27,3.39,26,8.22,37.64,15.62,3.06,1.95,6.25,3.7,9.86,5.83Z"/>
      <g>
        <path d="M397.44,406.52c20.25,.13,38.24,6.41,53.48,19.99,4.51,4.02,7.91,8.85,10.14,14.46,4.95,12.47,1.8,24.9-8.49,33.54-6.81,5.72-14.84,8.85-23.48,10.3-20.77,3.49-40.1-.86-58.14-11.38-6.67-3.89-12.04-9.35-16.67-15.51-8.78-11.7-8.83-28.85,5.04-39.94,9.07-7.26,19.61-10.51,31-11.43,2.36-.19,4.74-.03,7.12-.03Z"/>
        <path d="M356.34,236.32c6.85-.04,14.92,.85,22.69,3.54,9.73,3.36,10.56,4.66,10.02,14.93-.08,1.5-.38,3.03-.82,4.48-1.67,5.48-4.06,7.11-9.7,6.77-5.12-.31-9.98-1.47-14.75-3.48-16.01-6.73-32.48-7.67-49.27-3.32-1.64,.42-3.23,1.19-4.89,1.33-1.2,.1-2.97-.22-3.55-1.03-.55-.75-.21-2.57,.32-3.62,3-6.02,7.87-10.08,13.94-12.81,11.03-4.95,22.66-6.81,36.01-6.78Z"/>
        <path d="M469.34,241.57c12.96-.29,25.4,1.36,36.93,7.67,3.35,1.83,6.29,3.91,8.38,7.16,.81,1.25,2.13,2.16,2.97,3.39,.7,1.03,1.78,2.87,1.4,3.36-.77,1-2.37,1.76-3.69,1.85-1.62,.12-3.41-.27-4.93-.91-10.24-4.27-20.92-3.9-31.55-2.7-7.72,.87-15.32,2.79-23.02,3.92-2.77,.41-5.76,.25-8.5-.33-3.08-.65-4.39-2.97-4.07-6.12,.61-6.1,4.33-10.61,8.23-14.84,1.06-1.14,3.44-1.26,5.26-1.46,4.21-.46,8.44-.68,12.59-1Z"/>
        <path class="cls-4" d="M491.2,307.46c-16.11-.74-29.72-5.63-41.28-15.73-1.64-1.43-3.19-3.11-4.29-4.97-.53-.9-.32-2.73,.29-3.68,.45-.7,2.11-1.03,3.14-.87,1.28,.2,2.49,.99,3.66,1.66,14.21,8.16,29.64,11.34,45.85,11.01,5.79-.12,11.51-1.01,16.45-4.43,1.51-1.05,2.99-1.85,4.45-.17,1.35,1.56,.78,3.23-.34,4.64-4.84,6.07-11.09,9.93-18.69,11.39-3.32,.64-6.72,.84-9.22,1.14Z"/>
        <path class="cls-4" d="M338.15,296.73c-11.94,.15-23.18-2.48-33.58-8.43-1.45-.83-2.93-1.8-3.98-3.05-.59-.7-.82-2.46-.35-3.11,.49-.68,2.02-.61,3.1-.83,.14-.03,.33,.08,.48,.15,10.51,5.45,21.9,5.24,33.25,5.05,11.93-.2,23.58-2.01,34.71-6.6,1.52-.63,3.29-.92,4.94-.89,1,.02,2.58,.75,2.84,1.52,.36,1.06,.11,2.76-.57,3.65-.98,1.3-2.51,2.25-3.94,3.12-11.34,6.89-23.82,9.36-36.9,9.42Z"/>
        <path class="cls-4" d="M370.96,366.41c.98-.5,2.03-1.44,3.16-1.55,8.75-.86,16.89,.43,23.11,7.47,10.34,11.7,21.94,8.39,29.42,1.39,4.38-4.1,9.82-4.44,15.17-4.3,3.78,.1,7.52,1.51,11.07,2.28,.84,2.7-.25,3.95-2.11,4.21-2.14,.31-4.35,.21-6.52,.11-2.52-.11-5.03-.57-7.55-.6-4-.05-7.14,1.28-10.11,4.47-8.22,8.81-20.89,8.9-28.6-.28-6.28-7.48-14.44-9.39-23.15-10.82-1.43-.24-3.15,.26-3.88-2.39Z"/>
        <path class="cls-4" d="M415.63,264.44c-3.85,2.35-7.57,4.64-11.31,6.9-3.63,2.19-5.89,6.28-9.83,8.06-1.86-2.39-.52-3.87,.32-5.18,4.64-7.27,11.51-11.87,19.18-15.34,2.5-1.13,5.21-.71,7.01,1.45,2.81,3.37,5.36,6.97,7.86,10.57,.47,.68,.59,2.45,.21,2.7-.83,.54-2.38,.91-3.12,.48-2.02-1.18-3.87-2.69-5.59-4.29-1.59-1.48-2.91-3.25-4.74-5.34Z"/>
        <path class="cls-5" d="M620.15,826.1c-2.94-.02-3.28-1.76-3.66-3.11-3.53-12.48-9.53-23.85-15.59-35.2-.48-.89-1.14-1.79-1.28-2.74-.17-1.16,.13-2.38,.23-3.58,1,.41,2.4,.53,2.95,1.27,8.09,10.97,15.15,22.48,17.31,36.28,.35,2.24,.05,4.59,.05,7.08Z"/>
        <path class="cls-5" d="M299.06,855.38c-3.27-8.91-1.77-41.18,1.91-46.15,1.85,4.48,.61,36.56-1.91,46.15Z"/>
        <path class="cls-5" d="M147.72,802.02c.43-.9,.52-1.52,.86-1.73,8.76-5.35,18.09-9.78,26.1-16.35,.8-.66,2.06-.75,3.34-1.19-1.88,7.75-21.68,20.32-30.31,19.27Z"/>
      </g>
      <path class="cls-3" d="M354.83,507.25c1.7-3.44,3.66-6.77,5.06-10.33,6.31-16.04,15.31-30.64,23.96-45.43,1.97-3.37,3.95-6.73,5.89-10.12,3.82-6.69,9.3-10.05,17.23-9.09,4.32,.53,6.15,1.54,7.43,5.67,2.03,6.58,2.56,13.32,1.33,20.12-1.39,7.71-3.28,15.26-7.04,22.23-.64,1.19-1.19,2.45-1.62,3.73-4.38,13.21-10.5,25.72-15.45,38.67-3.18,8.32-4.63,17.32-6.73,26.04-.34,1.42-.05,2.99-.05,4.96,2.74-1.04,3.37-3.43,4.32-5.37,3.3-6.7,6.22-13.59,9.7-20.19,6.82-12.9,13.76-25.74,20.98-38.4,2.41-4.23,5.7-8,8.91-11.7,1.5-1.74,3.6-3.15,5.7-4.16,9.02-4.38,17.96,.32,19.26,10.23,.83,6.29,.36,12.37-3.23,18.11-10.77,17.19-18.75,35.72-25.4,54.85-1.95,5.6-4.15,11.11-6.12,16.7-.54,1.53-.68,3.2-1.11,5.35,3.21-.8,4.35-2.94,5.48-4.87,4.03-6.88,7.7-13.98,11.91-20.75,4.65-7.48,9.57-14.81,14.71-21.97,2.55-3.55,5.63-6.79,10.32-7.82,5.38-1.19,9.07,1.75,8.8,7.26-.02,.51-.06,1.02-.19,1.51-2.78,10.48-4.18,21.34-8.73,31.32-.42,.92-.7,1.92-1.18,2.81-7.1,13.13-14.3,26.21-21.31,39.39-4.7,8.83-8.86,17.95-13.76,26.65-6.65,11.82-13.65,23.45-20.75,35.01-4.7,7.65-9.72,15.11-14.82,22.5-4.91,7.12-12.26,11.65-18.93,16.85-9.42,7.35-19.72,13.17-30.99,17.21-2.63,.94-4.13,2.89-5.1,5.33-3.97,9.92-7.97,19.83-11.83,29.79-7,18.03-13.92,36.09-20.85,54.14-.42,1.1-1.14,2.36-.92,3.36,.75,3.37-1.36,4.58-3.75,5.73-6.83,3.28-14.1,5.01-21.59,5.28-28.43,1.01-54.35-6.75-77.28-23.59-5.52-4.06-10.27-9.36-14.7-14.66-4.15-4.96-3.75-7.45,.92-11.85,7.41-6.98,14.94-13.84,22.62-20.51,10.94-9.5,20.7-20.03,29.61-31.46,8.27-10.61,15.77-21.64,21.53-33.85,1.64-3.48,1.52-6.03-.61-9.33-9.82-15.2-17.91-31.26-20.98-49.31-1.67-9.84-2.77-19.79-3.75-29.73-.8-8.13-1.58-16.18-4.93-23.78-2.26-5.12-4.15-10.4-6.38-15.54-3.66-8.46-4.91-17.27-3.9-26.38,.26-2.31,1.08-4.61,1.96-6.79,1.76-4.39,4.23-5.8,8.78-4.75,8.76,2.03,16.07,6.05,20.25,14.66,3.95,8.13,7.17,16.47,8.96,25.35,.53,2.64,1.39,5.23,2.24,7.8,2.24,6.74,7.19,10.42,13.82,12.26,4.05,1.12,5.17,.6,7.3-3.13,8.12-14.2,13.51-29.61,20-44.54,7.91-18.21,15.9-36.37,23.82-54.57,3.66-8.4,7.04-16.92,10.9-25.23,2.71-5.83,5.56-11.7,9.21-16.96,2.84-4.09,6.78-7.51,10.62-10.78,6.66-5.66,16.76,.99,17.13,8.06,.35,6.67,.3,13.21-2.13,19.57-3.15,8.24-6.35,16.47-9.17,24.82-2.33,6.89-4.15,13.96-6.16,20.96-.21,.72-.15,1.52-.22,2.28,.34,.12,.68,.23,1.02,.35Z"/>
    </g>
  </g>
</svg>