<?xml version="1.0" encoding="UTF-8"?>
<svg id="Livello_2" data-name="Livello 2" xmlns="http://www.w3.org/2000/svg" viewBox="0 0 29.08 20.7">
  <defs>
    <style>
      .cls-1 {
        fill: #f5fbff;
      }

      .cls-2 {
        fill: #cccfd4;
      }

      .cls-3 {
        fill: #d9dde3;
      }
    </style>
  </defs>
  <g id="Who_is_at_risk" data-name="Who is at risk">
    <g id="ic_suffering_from_malnutrition_and_poor_living_conditions" data-name="ic_suffering from malnutrition and poor living conditions">
      <g>
        <ellipse class="cls-3" cx="14.51" cy="8.72" rx="8.24" ry="14.51" transform="translate(5.61 23.13) rotate(-89.31)"/>
        <ellipse class="cls-1" cx="14.57" cy="8.25" rx="8.24" ry="14.51" transform="translate(6.16 22.72) rotate(-89.31)"/>
        <path class="cls-3" d="m25.43,8.4s-.79-1.88-3.67-3.88c-1.72-1.2-5.16-1.82-7.36-1.84-5.86-.06-9.55,3.12-8.43,2.18,1.92-1.61,5.18-2.65,8.88-2.61,5.86.06,10.59,2.82,10.56,6.15Z"/>
        <g>
          <path class="cls-3" d="m14.53,7.32l6.28,4.54s-.3.43.69,1.41,6.19,3.57,6.23,4.2-.52.79-2.25-.33-5.26-3.93-5.33-4.34c-.43-.09-.65-.21-.97-.42-.62-.41-4.98-4.37-4.65-5.07Z"/>
          <path class="cls-2" d="m20.08,12.63s.09-.04.16-.19c.02-.04-.03.15.26.47s2.17,2.06,4,3.27c1.83,1.21,2.73,1.24,2.76,1.41s-.22.22-1.08-.18c-.86-.4-5.31-3.52-6.1-4.79Z"/>
        </g>
        <g>
          <path class="cls-3" d="m23.26,20.4c-.27.16-.59.33-.7.3s-1.16-.67-1.9-1.61-4.04-4.97-4.94-5.49c-.8-.46-1.22-.27-1.49-.28-.19,0-.96-.15-1.59-1.44-.61-1.24-1.3-3.36-1.3-3.36l1.09-.41s1.98,3.26,2.63,3.94.49.9.49.9c.09.02.81.22,1.74,1.09,1.72,1.61,4.34,4.48,6.29,5.63.3.36-.28.69-.32.72Z"/>
          <path class="cls-2" d="m14.29,13.29c-.5.05-1.06-.56-1.06-.56-.65-.55-1.89-4.2-1.89-4.2.04-.01,1.18,3.26,1.87,4.07s1.6.47,1.91.49c.18.04.96.38,1.73,1.06,1.26,1.12,3.93,4.44,4.32,4.89.81.95,1.36,1.2,1.49,1.25.02,0,.06,0,.06,0l.8-.49c.09.11.05.26-.12.41-.17.15-.74.45-.82.42-.07-.02-.51-.21-1.32-1-.43-.42-3.07-3.75-4.68-5.32-.39-.39-.73-.68-1.03-.83-.44-.22-.78-.23-1.27-.18Z"/>
          <path class="cls-2" d="m11.64,8.41s1.09,2.63,1.31,2.95.38.4.38.4l-.09-.17-1.6-3.18Z"/>
          <path class="cls-2" d="m11.93,8.33s1.15,2.6,1.37,2.91.39.39.39.39l-.09-.17-1.67-3.14Z"/>
          <path class="cls-2" d="m12.25,8.23s1.22,2.56,1.45,2.86.4.38.4.38l-.09-.17-1.75-3.08Z"/>
        </g>
      </g>
    </g>
  </g>
</svg>