<?xml version="1.0" encoding="UTF-8"?>
<svg id="Livello_2" data-name="Livello 2" xmlns="http://www.w3.org/2000/svg" viewBox="0 0 27.79 22.1">
  <defs>
    <style>
      .cls-1 {
        fill: #fff;
      }

      .cls-1, .cls-2 {
        stroke-width: 0px;
      }

      .cls-2 {
        fill: #fbd4c3;
      }
    </style>
  </defs>
  <g id="Who_is_at_risk" data-name="Who is at risk">
    <path class="cls-2" d="m27.44,11.63c-.45-.46-2.15-2.84-2.15-2.84.21-.32.14-.87.14-.87-.03-1.97-1.83-5.57-7.43-5.63-5.6-.07-7.99,3.18-8.16,6.95-.18,3.77,1.83,5.36,2.45,6.6.62,1.24-.52,6.25-.52,6.25h9.75s-.1-.27,0-.86c.11-.59.52-1.8.52-1.8,0,0,1.8.31,3.36.1,1.55-.21,1.14-1.52.79-2.21s.03-.93.35-1.24c.31-.32-.24-.87-.24-.87l.31-.24c.32-.24.1-.38-.14-.83-.24-.45-.37-.69.59-1,.97-.32.83-1.07.38-1.52Zm-13.83.18c-.24.15-.27-.01-.53-.12-.26-.1-.39.12-.35.37.04.26.32.22.52.11.21-.11.36,0,.36,0v1.16s-.48.12-.7.04c-.21-.07-.35.1-.15.38.19.28.05.79-.39.62s-.26-.58-.12-.8c.14-.22-.18-.35-.62-.24-.44.11-.32-.32-.31-.7s.13-.37.39-.24c.26.13.52.01.46-.34-.06-.35-.39-.18-.68-.08-.29.1-.35-1.06-.09-1.04.26,0,.28.12.63.14.35.01.26-.3.13-.54-.12-.25-.32-.6.23-.54.55.05.33.53.22.65-.1.12-.06.32.3.36.37.04.7-.06.7-.06v.87Zm.62-5.14c-.09.26-.37.29-.57.15s-.58-.18-.58.17.27.51.61.31c.34-.21.54.1.54.1v.73s-.77-.15-.96,0,.09.34.05.61c-.04.27-.37.35-.53.1-.16-.24.07-.48.06-.67,0-.18-.45-.15-.72-.04-.27.1-.33,0-.33,0-.24-.49,0-.63.01-.83.03-.2-.18-.21-.31-.07-.13.12-.69.21-.65-.24.04-.44.5-.34.62-.2.12.15.26.13.37-.24.1-.37-.12-.73-.12-.73,0,0,.73-.01,1.07.04.32.05.28-.21.15-.4-.13-.2-.08-.57.32-.48.4.1.32.4.21.51-.12.1-.24.21-.05.37.18.17.91,0,.91,0,0,0-.01.54-.11.81Zm4.42,3.35c-.09.4-.4.32-.5.21-.11-.12-.21-.24-.38-.05s0,.91,0,.91c0,0-.54-.01-.8-.11-.26-.09-.3-.37-.15-.57.14-.21.18-.58-.17-.58s-.52.27-.31.61c.21.34-.11.54-.11.54h-.72s.15-.78,0-.96c-.16-.18-.34.09-.61.05-.27-.04-.35-.37-.1-.54.24-.15.48.08.66.07.19-.01.15-.46.05-.73-.11-.27,0-.32,0-.32.49-.24.63,0,.83.01.2.03.21-.18.07-.31-.13-.13-.21-.69.24-.65.44.04.34.51.19.62-.14.12-.12.26.25.37.37.1.73-.12.73-.12,0,0,0,.73-.04,1.06-.05.33.21.29.4.16.2-.13.57-.08.48.32Zm.83-6.19c-.17.44-.58.26-.8.12-.22-.15-.35.18-.24.62.12.44-.32.32-.69.31-.37-.01-.37-.13-.24-.39.13-.26.01-.52-.34-.46-.35.06-.18.4-.09.68.1.29-1.05.35-1.04.09,0-.26.12-.29.14-.63.01-.35-.3-.26-.54-.14-.25.12-.6.32-.54-.23.05-.54.53-.32.65-.22.12.11.32.07.36-.3.04-.36-.06-.69-.06-.69h.87c.15.24-.01.27-.12.53s.12.39.37.35c.26-.04.22-.32.11-.52-.11-.21,0-.36,0-.36h1.15s.12.48.04.69c-.07.22.1.35.37.16.29-.19.79-.05.62.39Z"/>
    <path class="cls-1" d="m8.68,3.16v-.73s-.21-.32-.54-.11-.61.04-.61-.31.38-.31.58-.17.49.1.58-.16.11-.8.11-.8c0,0-.73.17-.91,0s-.06-.27.05-.38.19-.41-.21-.51-.45.29-.32.48.17.45-.16.4-1.06-.04-1.06-.04c0,0,.22.35.12.73s-.25.39-.36.25-.58-.25-.62.19.52.36.65.23.34-.12.31.07-.26.34-.01.83c0,0,.05.1.32,0s.71-.14.73.05-.22.42-.06.67.49.17.53-.1-.23-.45-.05-.61.96,0,.96,0Z"/>
    <path class="cls-1" d="m.85,13.61h.73s.32-.19.11-.53-.04-.61.31-.61.31.38.16.58-.11.48.15.58.8.12.8.12c0,0-.16-.73.01-.91s.27-.06.38.06.41.2.51-.2-.28-.46-.48-.33-.46.16-.4-.16.05-1.06.05-1.06c0,0-.35.22-.73.11s-.39-.25-.24-.37.25-.58-.19-.62-.37.51-.24.65.12.34-.08.31-.34-.26-.83-.02c0,0-.1.05,0,.32s.13.71-.05.73-.42-.23-.67-.07-.17.49.1.53.46-.23.61-.04-.01.96-.01.96Z"/>
    <path class="cls-1" d="m4.84,8.3v-1.16s-.16-.11-.36,0-.48.15-.52-.11.09-.48.35-.38.29.27.53.12v-.87s-.33.1-.7.06-.4-.25-.3-.36.32-.6-.22-.65-.35.3-.23.54.21.56-.14.54-.37-.13-.63-.14-.19,1.14.09,1.04.62-.26.68.09-.2.47-.46.34-.38-.14-.39.23-.13.81.31.7.76.02.62.24-.32.64.12.8.58-.34.39-.62-.06-.45.16-.38.7-.04.7-.04Z"/>
    <path class="cls-1" d="m8.24,18.84v-1.16s-.16-.11-.36,0-.48.15-.52-.11.09-.48.35-.38.29.27.53.12v-.87s-.33.1-.7.06-.4-.25-.3-.36.32-.6-.22-.65-.35.3-.23.54.21.56-.14.54-.37-.13-.63-.14-.19,1.14.09,1.04.62-.26.68.09-.2.47-.46.34-.38-.14-.39.23-.13.81.31.7.76.02.62.24-.32.64.12.8.58-.34.39-.62-.06-.45.16-.38.7-.04.7-.04Z"/>
  </g>
</svg>