<?xml version="1.0" encoding="UTF-8"?><svg id="Livello_2" xmlns="http://www.w3.org/2000/svg" viewBox="0 0 319.36 307.54"><defs><style>.cls-1{fill:#4da290;fill-rule:evenodd;}</style></defs><g id="Salmonella"><g id="Livello_15"><path class="cls-1" d="M319.36,179.62c-16.84,12.34-30.85,22.49-40.78,29.65-74.51,53.77-119.01,83.66-132.73,92.83-3.53,2.36-6.41,4.27-8.17,5.45-35.14-30.23-74.62-71.17-109.71-125.22-10.65-16.41-19.91-32.51-27.97-48.02,3.07-2.14,6.98-4.88,11.5-8.09,1.14-.81,5.53-3.92,12.28-8.79,9.14-6.6,14.68-10.72,17.04-12.38,21.69-15.28,42.08-33.4,63.51-48.86,4-2.88,13.71-11.23,27.69-21.17,4.98-3.54,7.22-4.98,10.59-7.33,8.39-5.84,20.21-14.75,34.2-27.69,8.62,10.08,22.03,26.31,37.17,47.32,23.15,32.11,29.82,46.85,47,70,11.68,15.74,30.33,38.2,58.39,62.3Z"/></g></g></svg>