<?xml version="1.0" encoding="UTF-8"?><svg id="Livello_2" xmlns="http://www.w3.org/2000/svg" viewBox="0 0 294.83 298.08"><defs><style>.cls-1{fill:#4da290;fill-rule:evenodd;}</style></defs><g id="Salmonella"><g id="Livello_14"><path class="cls-1" d="M294.83,173.25c-7.5,5.02-19.17,12.87-33.43,22.65-20.38,13.98-27.25,19.48-46.34,32.16-14.5,9.63-19.55,13.29-45.75,30.97-13.77,9.29-33.52,22.65-57.66,39.05-27.36-22.89-43.78-45.33-53.53-61.06-5.35-8.64-10.76-18.61-29-61C16.6,146.93,6.73,122.75,0,105.99c16.56-11.03,40.08-26.69,68.49-45.67h0C97.94,40.09,127.49,19.99,157.15,0c6.54,13.91,14.13,28.33,22.97,43.02,35.33,58.71,78.04,100.9,114.71,130.22Z"/></g></g></svg>