<?xml version="1.0" encoding="utf-8"?>
<!-- Generator: Adobe Illustrator 27.9.0, SVG Export Plug-In . SVG Version: 6.00 Build 0)  -->
<svg version="1.1" id="Livello_2_00000142873525857215497100000014702372137177330826_"
	 xmlns="http://www.w3.org/2000/svg" xmlns:xlink="http://www.w3.org/1999/xlink" x="0px" y="0px" viewBox="0 0 1000.4 782.4"
	 style="enable-background:new 0 0 1000.4 782.4;" xml:space="preserve">
<style type="text/css">
	.st0{fill:#FFFFFF;}
	.st1{fill:#ADADAD;}
	.st2{fill:#DDDDDD;}
	.st3{clip-path:url(#SVGID_00000163759464007907239230000014509749622382138045_);}
	.st4{fill:#E0AAAA;}
	.st5{fill:#C46767;}
</style>
<g id="Livello_1-2">
	<path class="st0" d="M324,637.7c-7.3,0-13.2-2.5-18-4.9c-23.9-12.2-44.8-29.7-63.8-53.3c-20.8-25.8-39.6-54.6-55.9-85.6
		c-20-38.1-33.7-79.7-40.5-123.7c-5.2-33.7-1.3-68.6,11.7-103.9c2.3-6.3,5.7-11.2,8.6-15.6l0.2-0.3c0.7-1.1,1.5-2.2,2.2-3.3
		c3.5-5.6,10.3-12.4,23.2-13.3l0.4,0l6.4-1.1l17.5-0.7l-3.7-9.4c-1.2-3.1-2.2-6.4-3-9.6c-6-26.1,7.5-53.4,32.1-64.8
		c4.3-2,8.8-3,13.2-3c7.8,0,15,3.3,19.8,9.1c4,4.8,6,10.8,5.9,17.4l0,2.5l1.5,2c7.4,9.9,17.8,17.7,31.7,23.8
		c0.8,0.4,1.7,0.7,2.7,1.1l4.4,1.7l3.3-3.4c10.2-10.6,23.2-20.1,39.8-28.9c18.6-9.9,38.3-16.5,58.4-19.4c6.6-1,13-1.1,17.9-1.1
		c1.9,0,3.8,0,5.7,0h0.6c1.7,0,3.4,0,5.2,0h0.5c5.7,0,10.2,1.7,12.9,2.7l0.6,0.2c7.7,2.8,13.6,8.5,16.1,15.6l1.3,3.6l3.7,0.9
		c4.9,1.2,9.5,3.1,14.2,5.7l3,1.7l3.2-1.3c10.4-4.1,19.3-10.5,27.2-19.6c3.4-3.9,5.3-6.8,6-9.5l0.4-1.3l-0.2-2.3l-0.2-0.6
		c-3.1-10.9,0.7-21.9,10.1-28.7c4.1-3.1,9-4.7,14-4.7c8.6,0,14.3,4.7,16.5,6.5l0.3,0.3c12.9,10.3,20.9,22.1,24.4,36.1
		c0.9,3.4,1.5,6.9,1.8,10.3l13.9,1.5c0.1-0.5,0.3-0.9,0.5-1.4c3.7-10.8,13-17.8,23.7-17.8c2.4,0,4.8,0.3,7.1,1
		c7,2.1,13.4,7,17.2,13.2c3.9,6.4,3.9,12.9,3.9,16.4v0.6c0.1,8.3,0,16.5,0,23.8v7.9l0,0.6c-0.3,5-0.5,9.8-0.8,14.5
		c-0.5,10.7-1.1,20.7-1.9,30.8c-1.1,13.4-5.5,26.4-13,38.7c-19.7,31.9-47.6,50.9-82.9,56.4l-5,0.8l-0.9,5c-0.2,1.2-0.4,2.4-0.6,3.6
		c-1.8,13.7-3.3,29.8-0.7,44.7c2.6,15,6.9,25.7,13.5,33.8c3.4,4.1,6.3,8.7,9.3,14.4l1.1,2.1l2.9,1.4c10.1,5.2,17.9,12.9,22.8,22.3
		c13.3,26.1,14.4,51.3,3.1,74.9l-0.5,1l-0.1,1.1c-3.3,26.1-15.4,47-36,62.1c-12.5,9.2-25.7,14.3-40.3,15.7c-3.1,0.3-5.9,0.4-8.8,0.4
		c-8.9,0-16.9-1.5-24.5-4.5c-17.5-7-37.7-16.5-54.6-33.8c-6.4-6.4-13.9-13.9-22-20.4c-1.8-1.5-3.6-3-5.4-4.4l-7.5-6.2l-4.5,5.6
		c-3.5,4.4-7.3,8.7-12.2,14c-7.5,8.1-15.5,15.3-23.3,22.3l-2.6,2.3c-10.4,9.3-21.7,16.2-33.4,20.5c-0.3,0.1-0.5,0.2-0.7,0.3
		l-0.8,0.3l-0.7,0.5C336.7,635.7,330.4,637.7,324,637.7L324,637.7z"/>
	<path class="st1" d="M651.1,210.3c-0.9,16.4-1.5,30.6-2.6,44.8c-0.9,10.6-4.5,20.6-10,29.6c-16.4,26.6-39.7,43.1-71.2,47.3
		c-2.6,0.3-5.2,1.3-7.7,2.4c-3.7,1.7-7.3,2-10.7-0.1c-5.5-3.5-10.5-7.6-13.8-13.5c-9.4-17.1-10.6-35.2-7.1-53.9
		c0.5-3,2.7-5.9,4.8-8.2c6.5-7,14.9-10.8,24-13.2c18.6-4.9,35.1-14.2,51-24.9c15.8-10.7,23.7-26.7,29.9-43.9
		c0.5-1.4,0.9-2.9,1.4-4.3c0.9-2.7,2.9-4.6,5.6-3.8c2.1,0.6,4.4,2.4,5.6,4.2c1.1,1.7,0.9,4.3,0.9,6.6
		C651.1,190.4,651.1,201.4,651.1,210.3L651.1,210.3z"/>
	<path d="M559.2,147.4c-0.4-2.3-0.4-4.8-1.2-7c-1-3.1,0.2-5.3,2.4-6.9c2.3-1.7,4,0.1,5.8,1.6c8.3,6.7,14.7,14.6,17.4,25.2
		c3.4,13.4,0.4,25.9-6.4,37.5c-10.8,18.5-27.3,30.4-46.8,38.3c-6,2.4-12.3,4.4-18.7,5.3c-3.6,0.5-7.1,0.9-10.7,1.9
		c-4.6,1.4-9.2,0.2-13.5-1.8c-10.2-4.8-16.1-16.1-14-26.9c1.3-6.5,4.6-9.3,11.3-9.9c25.1-2.3,46.2-12.6,62.8-31.6
		C554,165.7,559.1,157.6,559.2,147.4L559.2,147.4z"/>
	<path class="st2" d="M215.3,253.7c12,0.8,24,1.3,36,2.4c5.2,0.5,10.2,2.2,15.3,3.6c3.6,1,7.1,2.7,10.7,3.6
		c26.1,6.6,47.4,21.2,65.8,40.2c6.5,6.7,12.2,14.7,16.8,22.9c11,19.4,19.8,39.9,26,61.5c2.5,8.9,5.6,17.7,8.7,26.4
		c9.5,27.1,15.9,54.8,18.9,83.3c0.4,4,1,7,5.7,8.4c3.7,1.1,4.5,4.5,2.7,9.6c-2.1,5.9-4.3,11.8-7,17.4c-6.9,14.6-17.2,27.1-28,38.9
		c-7.6,8.3-16.1,15.7-24.5,23.3c-7.9,7.1-16.7,12.8-26.7,16.5c-2.3,0.8-4.8,1.8-6.7,3.3c-5.3,4.1-10.1,2.4-15.3-0.2
		c-22.7-11.6-41.2-28.1-57.1-47.9c-20.6-25.7-38.4-53.2-53.7-82.3c-19.4-36.9-32-76.1-38.4-117.3c-5-32.2-0.5-63.4,10.7-93.7
		c2-5.5,6-10.4,9.2-15.5c1.9-3.1,5.1-3.7,8.5-3.7c7.5,0,15,0,22.6,0C215.3,254,215.3,253.9,215.3,253.7L215.3,253.7z"/>
	<g>
		<defs>
			<path id="SVGID_1_" d="M215.3,253.7c12,0.8,24,1.3,36,2.4c5.2,0.5,10.2,2.2,15.3,3.6c3.6,1,7.1,2.7,10.7,3.6
				c26.1,6.6,47.4,21.2,65.8,40.2c6.5,6.7,12.2,14.7,16.8,22.9c11,19.4,19.8,39.9,26,61.5c2.5,8.9,5.6,17.7,8.7,26.4
				c9.5,27.1,15.9,54.8,18.9,83.3c0.4,4,1,7,5.7,8.4c3.7,1.1,4.5,4.5,2.7,9.6c-2.1,5.9-4.3,11.8-7,17.4c-6.9,14.6-17.2,27.1-28,38.9
				c-7.6,8.3-16.1,15.7-24.5,23.3c-7.9,7.1-16.7,12.8-26.7,16.5c-2.3,0.8-4.8,1.8-6.7,3.3c-5.3,4.1-10.1,2.4-15.3-0.2
				c-22.7-11.6-41.2-28.1-57.1-47.9c-20.6-25.7-38.4-53.2-53.7-82.3c-19.4-36.9-32-76.1-38.4-117.3c-5-32.2-0.5-63.4,10.7-93.7
				c2-5.5,6-10.4,9.2-15.5c1.9-3.1,5.1-3.7,8.5-3.7c7.5,0,15,0,22.6,0C215.3,254,215.3,253.9,215.3,253.7L215.3,253.7z"/>
		</defs>
		<clipPath id="SVGID_00000066489369102381086990000003491337854037367978_">
			<use xlink:href="#SVGID_1_"  style="overflow:visible;"/>
		</clipPath>
		<g style="clip-path:url(#SVGID_00000066489369102381086990000003491337854037367978_);">
			<g>
				<path d="M282.4,329.5c3.1,0.7,9.2,1.7,15.2,3.6c7.2,2.3,12.6,7.2,15.8,14.1c2.3,5,4,10.2,5.9,15.4c4.5,12.7,8.3,25.7,13.5,38.1
					c3.4,8.2,8.7,15.7,13.2,23.5c3.2,5.6,7.1,11,9.5,16.9c4.4,10.9,0.8,21.6-8.9,28.3c-4.9,3.4-9.9,6.7-15.1,9.6
					c-5.8,3.4-6.8,8.7-7.2,14.7c-0.5,6.4-1.2,12.9-2.5,19.2c-0.7,3.3-2.4,6.6-4.5,9.4c-4.8,6.6-11.3,9.4-19.6,7.7
					c-12.7-2.7-21.5-11-28.1-21.1c-16.2-24.7-17.1-51.1-6.6-78.2c1.6-4.2,3.7-8.2,5.4-12.4c2.8-7,2.2-13.7-1.8-20.1
					c-2.1-3.4-4.3-6.7-6.3-10.2c-6.9-12.8-6.8-26.5-4.5-40.2C257.9,335.2,265.9,329.3,282.4,329.5L282.4,329.5z M317.9,411.4
					c-5.5-16.8-11-33.6-16.6-50.4c-3.7-11.1-13.7-16.9-25.3-14.8c-1.9,0.4-4.5,2-5,3.6c-1.8,5.6-3.1,11.3-1.3,17.3
					c1-1.7,1.6-3.5,1.7-5.3c0.5-6.3,8.5-6.8,11.4-3.1c1.8,2.4,3.4,4.9,4.9,7.5c1.5,2.6,2.2,6,4.4,7.8c6.7,5.7,9.3,13.5,11.8,21.3
					C306.3,402.9,310,409.1,317.9,411.4L317.9,411.4z M331.3,458.7c9.6-3.3,11.7-8.3,6.8-16.4c-3.5-5.7-7.4-11.2-11.2-16.7
					c-0.9-1.3-2.1-2.4-3.5-4C321.5,439.4,321.9,441,331.3,458.7L331.3,458.7z"/>
				<path d="M158.1,438.1c2.6-1.2,5.2-2.4,7.8-3.5c1.8-0.8,3.8-1.2,5.6-2.1c3.7-1.8,4.2-3.7,2.3-7.3c-8-15-11.9-28.8-13-46.1
					c-7.9-0.2-11.3-5.9-13.9-12.4c-1.6-3.9-3.3-7.9-4.7-11.9c-3.2-9.2-3.4-18.6-1.7-28.2c3.7-20.6,9.1-40.6,17.9-59.5
					c2-4.3,4.8-8.2,7.7-11.9c4.1-5.4,9.4-8.7,16.6-8.9c4.7-0.1,9.3-1.2,13.4-4.2c2.1-1.6,5-2.1,7.7-2.9c9.8-2.9,19.7-5.7,29.5-8.4
					c4-1.1,8-0.8,11.6,1.4c3.8,2.3,5.9,6.7,4.9,10.2c-1,3.4-4.2,6.1-8.7,5.8c-8.9-0.6-16,3.4-22.8,8.1c-5.9,4.1-9.4,9.6-9.9,16.9
					c-0.4,6.5-0.7,13-1.5,19.4c-0.7,6.2-1.2,12.5-2.9,18.5c-3.4,12.2-11.9,18.7-24.5,19.8c-2,0.2-4,0-6,0.3c-5.4,0.7-7.3,2.8-6.1,8
					c1,4.3,2.4,8.8,4.5,12.6c4.2,7.4,9.3,14.3,13.7,21.5c4.6,7.5,9.3,14.9,13.1,22.7c7.9,16.5,1.8,30.3-11.8,40.8
					c-0.8,0.6-1.7,1.2-2.7,1.4c-7.4,1.2-14.8,2.4-22.2,3.4c-1.2,0.1-2.5-1-3.8-1.6C158.2,439.4,158.1,438.7,158.1,438.1L158.1,438.1
					z M174.4,268.8c-8.6,12.3-14.1,25.7-17.3,40.8c4.6-0.4,5.3-2.9,6.2-5.6c3.1-10.2,6.5-20.4,9.7-30.5
					C173.5,271.9,174,270.3,174.4,268.8L174.4,268.8z"/>
				<path d="M379.3,636.7c-2.7-8.6-7.4-15.5-13.7-21.5c-2.4-2.3-4.9-3.1-8.1-1.8c-7.2,2.9-14.4,5.7-22.4,4.9
					c-0.7-0.1-1.5,0.1-2.2,0.4c-9.4,4.9-17.8,1.4-26.4-2.7c-11-5.3-19.9-12.8-27.6-22.4c-4.6-5.7-11-10-16.7-14.9
					c-1.3-1.1-3.2-1.7-4.2-3.1c-3.6-4.4-8-6.5-13.7-6c-1,0.1-2.2-0.8-3.1-1.1c-0.7-3.5,1.5-4.6,3.5-5.3c15.5-4.9,30.2-4.2,43,6.9
					c4.3,3.7,8.2,8.1,11.6,12.7c5.1,6.6,11.2,10.4,19.9,9.7c8.2-0.7,16.5-0.8,24.7-1.4c12.6-0.9,23.8,2.3,33.1,11
					c10.7,10,18.3,21.8,21.5,36.2c1.6,7.4-1.3,13.6-7.1,15.3c-5.7,1.7-13.7-1.9-16.5-7.6C373.1,642.9,373.7,641.5,379.3,636.7
					L379.3,636.7z"/>
			</g>
		</g>
	</g>
	<path class="st4" d="M539.6,290.6c1.7-11.8,7.2-24.2,19.3-33.1c9.7-7.2,21-10.4,32.6-12.5c7.9-1.4,15.6-3,22.4-7.7
		c3.4-2.4,6.5-0.5,6.5,3.7c0,2-0.3,4.1-1.1,5.8c-6.2,13.9-12,28-18.9,41.6c-6,12-15.9,20.4-28.2,25.9c-1.8,0.8-3.7,1.6-5.6,2
		C550.8,320,539.1,310,539.6,290.6L539.6,290.6z"/>
	<path class="st2" d="M443,187.3c1.9,0.4,2.7,0.7,3.6,0.8c9.9,1.3,19.8,2.4,29.7,3.9c12.9,1.9,21.9,10.4,30.6,19.2
		c1.6,1.6,2.8,4.5,2.8,6.7c0,4.1,1.7,7.1,3.6,10.4c2.2,3.6,3.9,7.5,5.9,11.3c2.9,5.5,5.7,11.1,8.7,16.6c2.8,5.1,6.5,9.5,11.6,12.6
		c13.1,8,16.6,19.9,13.8,34.3c-0.3,1.4-0.2,2.9-0.3,5.2c3.2-1.2,5.7-2.3,9.7-3.8c-0.3,2.9-0.2,4.8-0.8,6.4c-3.8,10.1-8,20-11.5,30.1
		c-2,5.6-3.4,11.6-4.1,17.5c-2.2,16.9-3.5,34-0.5,50.8c2.7,15.6,7.6,30.7,17.9,43.3c5.4,6.5,8.5,14.1,11.9,21.6
		c1.2,2.7,2.5,5.6,4.5,7.7c5,5.2,7.8,11.5,10,18.2c5.3,16.5,9.6,33.2,8,50.8c-1.9,21.3-10.6,38.6-28.2,51.5
		c-9.2,6.7-18.9,10.8-30.2,11.9c-8.2,0.8-16,0.3-23.6-2.7c-17.5-7-34.2-15.4-47.7-29.1c-7.5-7.6-15.3-15.2-23.7-21.9
		c-11-8.9-21.5-18.4-34.6-24.8c-24.8-12.1-47.7-27.4-67.3-47.2c-10.4-10.5-17.8-22.9-23.6-36.3c-3.5-8-6.3-16.4-9.4-24.5
		c-2.1-5.4-3.9-10.9-6.6-16c-6-11.4-9.5-23.7-12.4-36.1c-0.9-3.6-1-7.5-0.7-11.2c1.5-18.4,3.3-36.9,4.9-55.3
		c0.5-6.2,0.7-12.5,0.8-18.7c0.2-14.9,5.8-28.3,12.1-41.5c1-2,3.5-4.5,5.4-4.5c4.2-0.1,5.7-2.7,7-5.7c10.4-23.7,29.5-38.5,51.6-50.4
		c16.3-8.7,33.6-14.6,51.8-17.2c8.8-1.3,18-0.8,27-0.8c2.2,0,4.4,0.9,6.5,1.7c2.5,0.9,4.7,2.8,3.8,5.6c-0.6,1.7-2.7,3.6-4.4,4.2
		C451.8,183.2,447.4,183.9,443,187.3L443,187.3z"/>
	<path class="st4" d="M550.1,563.1c-1.8,1.7-3.4,3.2-5.1,4.6c-8.2,7.1-17.7,11.4-28.5,12.3c-14.8,1.2-27-3.9-36.1-15.8
		c-15.7-20.4-13.3-56,4.8-74.3c2.9-2.9,5.8-4.3,9.9-3.9c7,0.7,14,1.1,20.9,1.7c17.7,1.4,34.2-3.3,50.4-9.6c0.9-0.4,2-0.8,2.6-1.5
		c4.5-5.3,9.4-3.2,14.2-0.8c5.9,3,10.8,7.5,13.9,13.4c10.1,19.8,12.2,40.2,1.1,60.3c-3.2,5.7-8.1,10.9-13.3,14.9
		c-9.8,7.7-20.9,7.5-31.4,0.8C552.3,564.5,551.3,563.9,550.1,563.1L550.1,563.1z"/>
	<path d="M375.4,306.9c13.9-0.7,23.6,5.5,31.7,14.6c2.5,2.8,4.2,6.2,6.7,9.1c5.5,6.4,11.2,12.7,17,19c3.6,3.9,7.6,7.3,11.1,11.2
		c16.5,18.7,12.9,42.2,3.2,57.3c-10,15.6-33.7,27.5-58.6,15.9c-11.3-5.3-20.6-13.2-27.5-23.8c-10.4-15.8-18-33-23.8-50.9
		c-5.8-18.1,2.5-37,19.3-46C361.3,309.5,368.1,305.4,375.4,306.9L375.4,306.9z"/>
	<g>
		<path d="M528.1,579.3c0.6-3.7,1-9.2,2.4-14.4c1.9-7,6.2-12.5,12.5-16.3c6.9-4.2,14.5-2.6,19.1,4.1c3.2,4.7,5,10.1,3.8,15.7
			c-1.9,9-4.3,17.9-6.9,26.8c-0.8,2.7-2.8,5.3-4.8,7.5c-8.1,8.5-19.9,5.9-23.9-5.1c-0.6-1.6-1.2-3.4-1.3-5.1
			C528.5,588.7,528.4,584.9,528.1,579.3L528.1,579.3z"/>
		<path d="M519.9,538.4c-0.7,5.2-1.2,10.4-2.3,15.5c-1.1,5.4-3.9,10-9.8,11.1c-6,1.2-10.7-1.6-14.2-6.3c-7.2-9.5-7.3-27.3-0.2-36.8
			c5.5-7.5,16.1-7.4,21.8,0.1C518.3,526.2,519.7,531.3,519.9,538.4L519.9,538.4z"/>
		<path d="M566.3,530.1c0.5-7.5,3-15.9,11-21.7c7.3-5.3,15.5-3,17.5,5.9c2.7,12.1,0.4,24-6.6,34.3c-4,5.9-13.3,4.7-17.9-1.8
			C567.2,542.3,566.1,537.2,566.3,530.1L566.3,530.1z"/>
		<path class="st0" d="M347.4,346c2.5-0.1,5.2-0.6,7.6-0.2c15.2,2.8,28.2,10,38.6,21.5c4.8,5.3,8.6,11.6,12.7,17.6
			c1,1.4,1.7,3.1,2,4.8c0.8,3.4-1.3,5.7-3.8,7.5c-2.6,1.8-4.5,0.2-6.6-1.5c-8.6-7.1-17.4-14.1-26.1-21.2c-1-0.8-2-1.5-2.8-2.4
			c-0.5-0.5-0.6-1.3-0.9-2c3.1-1.1,10.6,1.1,22.5,6.8c-4.1-7.3-9.7-11.6-15.5-15.6c-7.2-5-15-8.9-23.7-10.9c-1.5-0.4-2.9-1.3-4.4-2
			C347.2,347.5,347.3,346.7,347.4,346L347.4,346z"/>
		<path d="M527.3,288c-2.2,14.2-4.7,28.4-2.7,44.2c1.6-3.1,2.6-5.2,3.7-7.2c1.1-2,2-4.2,3.6-5.6c1.2-1.1,4-1.8,5.1-1.1
			c1.2,0.7,1.5,3.2,1.8,5c0.1,0.8-0.7,1.8-1.3,2.6c-5.8,8.6-8,18.2-8.6,28.4c-0.1,1,0,2.1-0.4,3c-0.7,1.4-1.7,3.5-2.8,3.7
			c-1.7,0.2-3.9-0.6-5.3-1.7c-1.2-1-1.6-3.1-2-4.7c-3.3-16.9-4-33.8-0.1-50.7c1.1-4.8,3.2-9.4,5-14.1c0.4-0.9,1.6-1.5,2.5-2.3
			C526.3,287.7,526.8,287.8,527.3,288L527.3,288z"/>
	</g>
	<path d="M257.9,173.1c-0.4,5.5,1.9,10,4.9,14.2c10.4,14.4,24.5,24.2,40.6,31.3c7.1,3.1,14.6,5.1,22,7.4c1.7,0.5,3.8-0.1,5.7,0
		c1.2,0.1,2.4,0.4,3.4,1c7.2,4.5,10,13.3,7.1,22.2c-2.4,7.4-6.9,13.3-13.1,17.9c-4.6,3.4-9.9,4.6-15.3,3.3
		c-22.5-5.3-43.9-13.3-62-28.1c-11-9-20.3-19.4-23.7-33.8c-3.9-16.7,5.2-34.4,20.8-41.7C254.4,164,259.1,166.6,257.9,173.1
		L257.9,173.1z"/>
	<path class="st1" d="M170.2,281.2c3.7-0.4,6-0.8,8.4-0.8c7.8,0.2,15.5,0.9,23.3,0.8c18.5-0.1,37.1-0.6,55.6-0.8
		c11.3-0.2,22.6-0.5,33.8-0.5c9.7,0,17.5,3.4,21.7,13c1.8,4.1,4.4,7.9,6.5,11.8c9.6,18.3,8.6,36.7,0.1,54.9
		c-2.7,5.7-7.6,9.7-14,11.7c-23.5,7.3-45.4,5-65.6-9.8c-26.8-19.7-49-43.5-66-72.1C172.7,287.3,171.8,284.8,170.2,281.2L170.2,281.2
		z"/>
	<path class="st4" d="M307.2,331.7c0.1,13.5-10.9,24.9-25.3,25.2c-5.6,0.1-11.6-1-16.7-3.1c-18.7-7.5-34.3-19.2-45.7-36.2
		c-2.9-4.3-7-7.7-10.7-11.4c-1.4-1.4-3.2-2.5-4.5-4c-2.1-2.4-1.1-5,2.1-5.3c2.7-0.2,5.5,0,8.2,0.5c13.2,2.8,26.3,1.6,39.6,0.8
		c7-0.4,14-0.6,21-0.4C292.4,298,308.4,318.4,307.2,331.7L307.2,331.7z"/>
	<g>
		<path class="st0" d="M820.3,669.5l-1.1-0.5c-0.4-0.2-1-0.4-1.6-0.6c-1.9-0.7-4.6-1.7-7.2-3c-9.9-4.7-19.9-9.5-29.6-14.2
			c-20.3-9.8-41.4-19.9-62.2-29.4c-10.9-5-22.5-9.4-33.7-13.7c-5.4-2-10.9-4.2-16.4-6.3c-2.4-1-5-2-7.6-3.4
			c-7.5-4-10.9-11.7-8.6-19.2c2.4-7.6,9.7-11.9,18.1-10.6c0.4,0.1,0.7,0.1,1.1,0.2l2.1,0.4c7.3,1.5,14.8,3,22.2,4.9
			c40,10.1,80,23.9,118.6,41c7.2,3.2,14.1,6.9,19.2,9.8c3.4,1.9,6.6,4.6,9.7,7.9c6.8,7.3,8.1,17.9,3.4,26.3
			c-4.7,8.3-14,12.3-25.1,10.6L820.3,669.5L820.3,669.5z"/>
		<path class="st5" d="M823.2,658.9c-1.8-0.7-5.1-1.8-8.2-3.3c-30.6-14.6-61.1-29.6-92-43.7c-16.5-7.5-33.7-13.5-50.5-20.2
			c-2.2-0.9-4.4-1.8-6.5-2.9c-2.9-1.5-4-3.9-3.3-6.3c0.8-2.5,3.1-3.7,6.6-3c8,1.6,16,3.2,23.9,5.2c40.1,10.2,79.1,23.7,116.9,40.4
			c6.3,2.8,12.3,6,18.3,9.4c2.6,1.5,5,3.6,7.1,5.8c3.7,4,4.3,9.3,1.9,13.5C835,657.9,830.2,660,823.2,658.9L823.2,658.9z"/>
		<path class="st0" d="M683.7,460.7c-4-0.6-7.5-3.1-9.5-6.7c-3.1-5.6-1.3-12.8,1.9-16.7c0.6-0.8,1.2-1.5,1.9-2.3
			c3.6-4.4,7.3-8.9,12-12.9c14.8-12.8,29.4-25.2,44.8-37.2c16.3-12.7,33-25.2,49.3-37.3c4.1-3,8.1-6.1,12.2-9.1
			c3.6-2.7,7.7-5.2,12.4-7.6c4.6-2.4,9.6-3.3,14.5-2.5c2.6,0.4,5.2,1.2,7.6,2.5c7.7,4.1,12.1,12.3,11.9,21.9l-0.1,3.1l-1.7,2.6
			c-0.4,0.6-0.8,1.4-1.3,2.2c-1.4,2.3-3,5.3-5.7,7.9c-4.2,4.2-8.7,7.8-13.2,10.6c-12.6,7.9-25.4,15.9-37.8,23.6
			c-8.9,5.5-17.8,11-26.6,16.6c-13,8.1-26.2,16.4-38.9,24.5c-6.2,3.9-12.3,7.8-18.5,11.7l-0.7,0.5c-1.3,0.8-2.8,1.8-4.5,2.7
			C690.3,460.5,687,461.2,683.7,460.7L683.7,460.7z"/>
		<path class="st5" d="M831.8,352.6c-1.8,2.8-3.2,6-5.5,8.2c-3.4,3.4-7.2,6.6-11.3,9.1c-21.4,13.5-43,26.7-64.4,40.1
			c-19.2,12-38.3,24.1-57.4,36.2c-1.5,0.9-3,1.9-4.6,2.8c-1.6,0.9-3.7,1.6-4.8-0.3c-0.6-1.1-0.1-3.4,0.7-4.4
			c4-4.8,7.9-9.8,12.6-13.9c14.6-12.6,29.2-25.1,44.4-36.9c20.2-15.8,40.8-30.9,61.3-46.2c3.4-2.5,7.1-4.7,10.9-6.7
			c3.9-2,8-2.2,12,0C829.8,342.8,831.9,347.4,831.8,352.6L831.8,352.6z"/>
		<path class="st0" d="M713,528.5c-0.9-0.1-1.7-0.3-2.6-0.5c-4.3-1.2-9.4-4.9-11.1-10.4c-0.6-2-3.1-11.9,9.3-17l0.1,0
			c19.7-8,41-13,63.3-14.8c16.3-1.3,32.8-4,50.4-8.1c3.3-0.8,6.6-1.1,8.7-1.4c0.6-0.1,1.1-0.1,1.5-0.2l1.6-0.2l1.6,0.2
			c14.9,2.2,19.2,11.2,20.4,16.3c2.3,9.5-2,18.9-10.7,23.5c-4.5,2.4-9.7,4.2-15.1,5.4c-14.2,3-29.9,4.2-49.3,3.9
			c-17.7-0.3-36.8,0.7-60.1,3.2C718.9,528.7,716,528.9,713,528.5L713,528.5z"/>
		<path class="st5" d="M834.1,487c6.9,1,10.4,3.9,11.4,8.1c1,4.3-0.7,8.9-5.2,11.3c-3.8,2-8,3.5-12.2,4.3
			c-15.4,3.3-31.1,3.9-46.8,3.6c-20.6-0.4-41,1.1-61.5,3.3c-2.1,0.2-4.5,0.3-6.5-0.2c-1.4-0.4-3.2-1.8-3.6-3.2
			c-0.7-2.1,1.4-2.9,3.1-3.6c19.3-7.8,39.3-12.3,60-14c17.5-1.4,34.8-4.3,52-8.3C828.5,487.5,832.2,487.2,834.1,487L834.1,487z"/>
	</g>
</g>
</svg>
