<?xml version="1.0" encoding="utf-8"?>
<!-- Generator: Adobe Illustrator 27.9.0, SVG Export Plug-In . SVG Version: 6.00 Build 0)  -->
<svg version="1.1" id="Livello_2_00000074412780491658428100000009090039564507024036_"
	 xmlns="http://www.w3.org/2000/svg" xmlns:xlink="http://www.w3.org/1999/xlink" x="0px" y="0px" viewBox="0 0 28.8 20.6"
	 style="enable-background:new 0 0 28.8 20.6;" xml:space="preserve">
<style type="text/css">
	.st0{fill:#DDDDDD;}
	.st1{fill:#F8F9FA;}
	.st2{fill:#C5686A;}
	.st3{fill:#BF5557;}
	.st4{fill:#D1D3D2;}
	.st5{fill:#E1E1E0;}
	.st6{fill:#6E6E6D;}
	.st7{fill:#2A2C2D;}
	.st8{fill:#DFCA8A;}
</style>
<g id="Who_is_at_risk">
	<g id="Butchers_meat-packing_employees_personnel_in_slaughterhouses">
		<g>
			<path class="st0" d="M19.3,19.4c0,0,1.7-2.5,2.6-4.2c0.6-1.1,2.1-3.3,3.4-5c0.8-1.1,1.2-2.1,1.3-2.4c0.3-0.5-1.1-0.8-1.1-0.8
				l-2.1-0.6l-5.1,12.4L19.3,19.4L19.3,19.4z"/>
			<path class="st1" d="M2,13.2c0,0,3.3,1.7,5.1,2.2s6.5,2.8,6.5,2.8c1.3,0.9,4.3,2,5.6,1.1c-0.9-0.7,0.6-1.5,1.3-2.7
				c1-1.8,2.3-3.6,3.3-4.9c-1.1-2,0.3-4.6,0.9-5.9c0.2-0.4,0-0.7-0.2-0.7c-0.2,0-3.8-1.1-4.8-1.3c-0.2,0-0.3,0-0.5,0.1
				c-0.7,0.4-3.5,2-6.5,2.2l-1.3,0.6c0,0-1,0.2-1.2,0.1c-0.1-0.1-0.4,0.6-0.4,0.6l-8.1,3.5C0.9,11.4,1,12.8,2,13.2L2,13.2z"/>
			<path class="st1" d="M6.8,13.1c0.3-0.5,3.8-3.9,3.8-3.9s3.3,2.1,7.4,2.9c-1.7,1.5-4.7,3.6-5,3.7s-0.7,0.7-0.7,1.8c0,0,0,0-0.1,0
				c-0.1,0-5-2.1-5-2.1S6.6,15,6.5,14.4C6.5,13.8,6.5,13.6,6.8,13.1L6.8,13.1z"/>
			<path class="st2" d="M10.6,9.1c2.1,1.4,4.7,2.3,7.5,2.9l-0.9,0.8C13.9,12,11.7,11,9.8,9.9L10.6,9.1L10.6,9.1z"/>
			<path class="st0" d="M14.8,14.3l0.2,0.1c0,0,0.3,0.1,0.3,0.1c0.3,0.1,0.7,0.3,1.8,0.4c0.6,0.1,1.9,0.3,3,0.1
				c0.6-0.1,1.2-0.3,1.6-0.4c0.2-0.1,0.3-0.1,0.3-0.1l0.1-0.1c0,0-0.8,0.4-2.1,0.6c-1.3,0.2-4.1-0.3-4.9-0.7
				c-1.6-0.5-2.9-0.9-3.7-1.1c-2-0.3-3-0.1-3-0.1v0c1.1,0,2.5,0,3.4,0.3C12.9,13.7,13.2,13.9,14.8,14.3L14.8,14.3z"/>
			<path class="st1" d="M8.6,12.1c0.9,0,2.6,0,4.1,0.5c2.2,0.7,5.1,1.6,7,1.5c1.5-0.1,2.7-0.6,2.7-0.5c0.1,0.1,0.1,0.2,0.2,0.3
				l-0.5,0.7c0-0.1-0.2-0.2-0.2-0.4c0,0,0,0-0.1,0c-0.4,0.1-1.4,0.6-2.2,0.6c-2.4,0.1-4.6-0.5-7.4-1.4C10.9,13,9.3,13,8.3,13"/>
			<path class="st2" d="M8.3,13c-0.4,0-0.6,0.1-0.7,0.1c0,0,0,0,0,0L8,12.2c0,0,0,0,0,0c0.1,0,0.3,0,0.6,0"/>
			<path class="st3" d="M7.6,13.1C7.6,13.1,7.6,13.2,7.6,13.1c0,0.1,0.6,0,0.7,0l0,0v0C8.3,13,7.7,13.1,7.6,13.1z"/>
			<polyline class="st3" points="8.6,12.2 8.3,13 8.3,13 8.6,12.2 			"/>
			<polygon class="st0" points="19.4,4.3 24,5.6 24,5.6 19.3,4.3 			"/>
			<path class="st0" d="M10.1,7.4c0,0,2.1,0.7,3.6,0.7c0,0-1.9-0.1-3.2-0.8C10.5,7.3,10.2,7.2,10.1,7.4z"/>
			<path class="st1" d="M11.3,13.9c-0.7-1.1-1.3-1.7-2.7-2.4C7,10.6,6,9,6,9S6,9,5.9,9c0,0,0.8-0.4,0.9-0.4c0.1,0,0.1,0,0.1,0
				s0.7,1.4,2.4,2.3c1.4,0.5,2.2,1.5,2.8,2.3c0,0,0.2,0.2,0.2,0.2c0,0.1,0,0.1,0,0.1c0.1,0.1,0.1,0.2,0.1,0.2L11.3,13.9L11.3,13.9z"
				/>
			<path class="st2" d="M11.3,13.9c0.1,0.2,0.1,0.2,0.2,0.4l1.1-0.1c0,0,0-0.1-0.2-0.4L11.3,13.9L11.3,13.9z"/>
			<path class="st3" d="M11.3,13.9c0.1,0.2,0.1,0.2,0.2,0.4l1.1-0.1c0,0,0,0.1,0,0.1c-0.8,0.1-1.1,0.1-1.1,0.1s0,0,0,0L11.3,13.9
				L11.3,13.9L11.3,13.9z"/>
			<path class="st0" d="M11.3,13.9c-0.7-1.1-1.3-1.7-2.7-2.4C7,10.6,6,9,6,9S6,9,5.9,9c0,0,0,0,0,0s1,1.6,2.7,2.5
				c0.4,0.2,0.7,0.4,1,0.6c0,0,0,0,0.1,0c0.4,0.3,0.8,0.6,1.1,1h0C10.9,13.4,11.1,13.7,11.3,13.9L11.3,13.9L11.3,13.9z"/>
			<path class="st0" d="M15.1,14.3c-1.1,0.8-2,1.3-2.1,1.4c-0.3,0.2-0.7,0.7-0.7,1.8c0,0,0.2,0,0.1,0c-0.1,0,0.1-1.5,1.1-2
				C13.8,15.4,14.5,14.9,15.1,14.3"/>
			<path class="st0" d="M16.1,13.6c0.6-0.5,1.1-0.9,1.1-0.9h-0.1C16.8,13,16.4,13.3,16.1,13.6"/>
			<path class="st0" d="M9,10.7c0.3-0.3,0.6-0.6,0.8-0.8l0,0C9.6,10.2,9.3,10.4,9,10.7C9,10.7,9,10.7,9,10.7z"/>
			<path class="st0" d="M8.4,11.4c-0.7,0.8-1.4,1.5-1.5,1.7c-0.3,0.5-0.3,0.6-0.2,1.2s0.6,1.2,0.6,1.2c-0.4-0.4-0.6-0.8-0.6-1.1
				c0,0-0.2-0.7,0.2-1.3C7.2,12.6,7.8,12,8.4,11.4C8.3,11.4,8.4,11.4,8.4,11.4z"/>
		</g>
		<g>
			<path class="st1" d="M11.3,4.8c0,0-1.1-2.1,0-2.7c2.9-1.6,7.6-1.4,8.3-0.7c0.7,0.8,1.2,2.3,0.9,2.8C19.5,5.2,11.3,4.8,11.3,4.8
				L11.3,4.8z"/>
			<path class="st3" d="M11.2,6c0,0,2.7,0,3.4,0.2c0.8,0.1,3,0.1,6-0.6L11.2,6L11.2,6L11.2,6z"/>
			<path class="st2" d="M11.2,6c0,0,1.8-0.2,3.8,0.1s5.6-0.5,5.6-0.5l-0.1-1.3c0,0-3.3,0.7-5.7,0.5c-2.3-0.2-3.1-0.2-3.6,0.1L11.2,6
				L11.2,6z"/>
			<path class="st0" d="M17.5,4.3c0.1,0,0.8-0.1,1.8-0.2c0.9-0.1,1-1.1,1-1.1s-0.1,0.4-1.1,0.7C18.1,3.9,17.5,4.3,17.5,4.3L17.5,4.3
				z"/>
			<path class="st0" d="M11.1,3.5c0,0,0.2,0.9,0.4,1c0,0,0.1-0.1,0.3-0.1c0.2,0,0.9-0.2,1.8,0c0,0-1.2-0.4-1.6-0.3
				C11.5,4.2,11.1,3.5,11.1,3.5z"/>
			<path class="st2" d="M11.3,4.8c0,0,0-0.2-0.5,0C10.3,5,9.5,6.1,9.5,6.1S8.8,7.3,9,7.7c0,0,0.5-1.3,0.9-1.8
				C10.3,5.5,11,4.7,11.3,4.8L11.3,4.8z"/>
			<path class="st2" d="M11.3,4.8c0,0,0.1-0.2-0.5,0c-0.5,0.1-1.5,1-1.5,1s-1,1.1-0.9,1.5c0,0,0.7-1.2,1.2-1.6
				C10.2,5.3,11,4.7,11.3,4.8z"/>
			<path class="st0" d="M20.5,3c0,0,0.2,0.4,0.2,1.2l-0.1,1.3l-0.1-1.3C20.6,4.3,20.8,3.9,20.5,3L20.5,3z"/>
		</g>
		<g>
			<path class="st4" d="M24.4,5.1c0,0,2,2.1,2.4,2.6c0.4,0.5,1.3,1.3,0.4,2c-0.9,0.7-7.7,5.2-7.7,5.2s-2.1-2.3-2.3-2.3
				c-0.2,0-0.9,0.3-0.9,0.3s-3.3,1.8-3.6,2c-0.4,0.2-1.5,0.8-1.7,1c-0.1,0.2-0.4,0.7-0.8,0.6c-0.3,0-0.8-0.7-1-0.9
				c0-0.1-0.1-0.1-0.1-0.2l-0.1-0.3c0-0.1,0-0.2,0.1-0.2c0.1,0,0.1-0.1,0.2-0.1c0.1,0,0.2-0.1,0.3-0.1c0.1-0.1,0.2-0.1,0.4-0.2
				c0.1-0.1,0.3-0.1,0.4-0.2c0.2-0.1,0.3-0.2,0.5-0.2c0.2-0.1,0.3-0.2,0.5-0.3c0.2-0.1,0.4-0.2,0.5-0.3s0.4-0.2,0.6-0.3
				s0.4-0.2,0.6-0.3c0.2-0.1,0.4-0.2,0.6-0.3s0.4-0.2,0.6-0.3c0.2-0.1,0.4-0.2,0.6-0.3s0.4-0.2,0.5-0.3s0.3-0.2,0.5-0.3
				c0.2-0.1,0.3-0.2,0.5-0.3c0.3-0.2,0.6-0.3,0.9-0.6c0.3-0.2,0.4-0.3,0.7-0.5c0.1-0.1,0.4-0.3,0.5-0.4c0.1-0.1,0.3-0.2,0.4-0.3
				c0,0,0,0,0.1,0c0.2-0.1,0.3-0.2,0.5-0.4c0.2-0.1,0.3-0.3,0.5-0.4c0.2-0.1,0.3-0.3,0.5-0.4c0.2-0.1,0.3-0.2,0.5-0.4
				c0.1-0.1,2.8-2.1,2.9-2.2c0.1-0.1,0.2-0.2,0.3-0.3C24.2,5.3,24.3,5.3,24.4,5.1C24.4,5.2,24.4,5.2,24.4,5.1L24.4,5.1z"/>
			<path class="st5" d="M27.4,8.5c0,0-0.1,0.5-0.8,0.9s-7.5,5.1-7.5,5.1l0.5,0.5l7.2-4.9c0,0,0.9-0.5,0.8-1.1
				C27.5,8.7,27.4,8.6,27.4,8.5z"/>
			<path class="st6" d="M19.1,14.5l-1.7-1.8c0,0-0.1-0.2-0.4-0.1s-0.6,0.2-0.6,0.2s-1.9,1-2.8,1.5c-0.9,0.6-2.1,1.2-2.1,1.2
				l-0.1,0.1c0,0-0.1,0-0.1,0.1l-0.1,0.1c0,0-0.1,0-0.1,0.1c0,0-0.1,0-0.1,0.1c-0.1,0.1-0.1,0.1-0.1,0.2c0,0.1-0.1,0.1-0.1,0.2
				c0,0-0.1,0.2-0.3,0.3c-0.2,0.1-0.4,0-0.4,0s0.2,0.2,0.5,0.1c0.3-0.1,0.4-0.4,0.4-0.4s0.1-0.1,0.3-0.3c0.2-0.1,3-1.8,3-1.8
				l1.7-0.9c0,0,0.7-0.4,0.9-0.4c0.1,0,0.2,0,0.2,0s0.2,0,0.2,0c0,0,0.1,0,0.1,0.1l0,0l0,0c0,0,0,0,0,0c0,0,0,0,0,0c0,0,0,0,0.1,0
				c0,0,0.1,0.1,0.1,0.1l0,0c0.1,0,0.1,0.1,0.2,0.1c0.1,0.1,0.1,0.1,0.2,0.2l0.2,0.2l0.3,0.4c0,0,0.1,0.1,0.1,0.1l0.5,0.5l0.3,0.3
				l0.1,0L19.1,14.5L19.1,14.5z"/>
			<path class="st7" d="M17.1,12.6c0,0-0.5-1.1-0.8-1.3L9.2,15c-0.1,0-0.1,0.1-0.1,0.2l0,0.1l0,0.2c0,0,0,0.1,0,0.1
				c0,0.1,0.1,0.1,0.1,0.2c0,0.1,0.1,0.1,0.1,0.2c0,0.1,0.1,0.1,0.1,0.2c0,0,0.1,0.1,0.1,0.1c0,0,0,0,0.1,0.1
				c0.1,0.1,0.3,0.3,0.6,0.2c0.1,0,0.3-0.1,0.4-0.5c0.1-0.3,0.9-0.7,0.9-0.7C15.2,13.5,16.8,12.6,17.1,12.6L17.1,12.6z"/>
			<circle class="st8" cx="15.5" cy="12.3" r="0.2"/>
		</g>
	</g>
</g>
</svg>
