<?xml version="1.0" encoding="utf-8"?>
<!-- Generator: Adobe Illustrator 27.9.0, SVG Export Plug-In . SVG Version: 6.00 Build 0)  -->
<svg version="1.1" id="Livello_2_00000181784259666812187560000014451187104998017177_"
	 xmlns="http://www.w3.org/2000/svg" xmlns:xlink="http://www.w3.org/1999/xlink" x="0px" y="0px" viewBox="0 0 17.4 26"
	 style="enable-background:new 0 0 17.4 26;" xml:space="preserve">
<style type="text/css">
	.st0{fill:#FFFFFF;}
	.st1{fill:#FFFFFF;stroke:#FFFFFF;stroke-width:0.7486;stroke-miterlimit:10;}
	.st2{fill:#FBD4C3;}
	.st3{fill:#C5686A;}
	.st4{fill:#BF5557;}
	.st5{fill:#B63A3E;}
	.st6{fill:#D99998;}
	.st7{fill:#B87777;}
</style>
<path class="st0" d="M2.1,25.1c0-0.2,0.5-8.5,0.5-8.5L3.9,14l10.5,0.7l1.4,6l1.4,5l-14.4,0L2.1,25.1z"/>
<path class="st1" d="M16.6,18.5c0.1-1,0-3.9-0.1-5c-0.1-2-0.2-3.4-2.8-3.9c-0.3-0.1-2.9-0.9-3.2-1c-0.2,0-0.2-0.6-0.2-0.9
	c0-0.1,0.1-0.2,0.2-0.2c1,0.1,1.1,0,1.1,0s0.2-0.1,0.1-0.5c-0.1-0.3-0.1-0.3,0-0.5c0.2-0.1,0.2-0.3,0.1-0.4c0-0.1,0-0.2,0-0.2
	c0.1-0.1,0.1-0.2,0-0.3c-0.1-0.4,1.1-0.2,0-1.2c-0.2-0.2-0.3-0.5-0.2-0.7c0.4-1.9-1.8-3.8-4.3-2.7c0,0,0-0.1,0-0.1
	C7.3,0.6,6.8,0.5,6.8,0.9C6.9,1,6.9,1.2,7,1.3C6.8,1.4,6.7,1.5,6.5,1.7C6.3,1.9,6.1,2.1,5.9,2.4c-0.2,0-0.5,0-0.3,0.2
	c0,0,0.1,0.1,0.1,0.1c-1.1,2,0.7,3.3,1,3.7c0.1,0.4,0.4,2.4-0.3,2.6c-2.3,0.6-2,0.3-4.2,1.4c-1.3,0.7-1.2,6.3-1.4,8
	c-0.2,1.5-0.3,5.8-0.3,7h2c0-0.7,0.1-1.6,0.3-2.8c0.2-0.9,0-3.4,0-3.5c0.1-0.4,0.6-3.2,0.9-4.5c0,0,0,0,0,0
	c-0.1,0.6,0.3,2.6,0.3,2.6c0,0.2,0.1,2.1,0.2,2.6c0,0.5-0.2,2.1-0.3,2.6c-0.1,0.4-0.4,1.3-0.5,2.2c0,0.1,0,0.1,0,0.2
	c0,0.3,0,0.5,0,0.8h10.7c0-0.2,0-0.5,0-0.7c0-0.1,0-0.1,0-0.2c0,0,0,0,0-0.1c0,0,0,0,0,0v0c-0.1-0.9-0.4-1.7-0.5-2.1
	c-0.1-0.5-0.2-1.8-0.1-2.3c0.1-0.5,0.4-4.9,0.4-4.9c0.3,1,0.8,3.7,0.8,4.9c0,0.1-0.4,2-0.2,2.9c0.2,1.3,0.2,1.7,0.3,2.4h2.2
	C16.8,25.4,16.8,19.5,16.6,18.5z"/>
<g>
	<path class="st2" d="M16.8,25.4h-2.2c0-0.7,0-1.1-0.3-2.4c-0.2-0.9,0.1-2.8,0.2-2.9c0-1.3-0.5-3.9-0.8-4.9c0,0-0.3,4.4-0.4,4.9
		c-0.1,0.5,0,1.8,0.1,2.3c0.1,0.4,0.4,1.3,0.5,2.2c0,0.1,0,0.1,0,0.2l0,0c0,0.2,0,0.5,0,0.7H3.3c0-0.2,0-0.5,0-0.8
		c0-0.1,0-0.1,0-0.2c0.1-0.9,0.4-1.8,0.5-2.2c0.1-0.5,0.4-2.2,0.3-2.6s-0.2-2.3-0.2-2.6c0,0-0.4-2-0.3-2.6c0,0,0,0,0,0
		C3.5,15.7,3,18.6,2.8,19c0,0.1,0.2,2.6,0,3.5c-0.3,1.3-0.3,2.2-0.3,2.8h-2c0-1.2,0.1-5.4,0.3-7c0.2-1.8,0.1-7.3,1.4-8
		c2.2-1.1,1.9-0.8,4.2-1.4c0.7-0.2,0.4-2.2,0.3-2.6C6.3,5.9,4,4.2,6.5,1.7c2.9-2.2,5.7-0.1,5.2,2.1c-0.1,0.2,0,0.5,0.2,0.7
		c1.1,1-0.1,0.7,0,1.2c0,0.1,0,0.2,0,0.3c0,0.1-0.1,0.2,0,0.2c0.1,0.1,0.1,0.2-0.1,0.4c-0.1,0.1-0.1,0.2,0,0.5
		c0.1,0.5-0.1,0.5-0.1,0.5s-0.1,0.2-1.1,0c-0.1,0-0.2,0.1-0.2,0.2c0,0.3,0,0.9,0.2,0.9c0.3,0.1,2.9,0.9,3.2,1
		c2.6,0.6,2.7,1.9,2.8,3.9c0.1,1,0.2,4,0.1,5C16.8,19.5,16.8,25.4,16.8,25.4z"/>
	<path class="st2" d="M3.4,24.4L3.4,24.4c0,0.1,0,0.2,0,0.2C3.4,24.5,3.4,24.4,3.4,24.4z"/>
	<path class="st2" d="M14,24.7c0-0.1,0-0.1,0-0.2v-0.1C14,24.5,14,24.6,14,24.7L14,24.7z"/>
</g>
<g>
	<circle class="st3" cx="11.4" cy="13.4" r="1.8"/>
	<circle class="st4" cx="11.4" cy="13.4" r="1.3"/>
	<circle class="st5" cx="11.4" cy="13.4" r="0.8"/>
</g>
<g id="Tracciato_30-2">
	<path class="st3" d="M8.1,4C7.9,3.7,7.3,2.8,7.3,2.6s0.2-0.1,0.2-0.1l0.2,0.1c0,0-0.7-1.2-0.8-1.6S7.3,0.6,7.4,1
		c0.1,0.2,0.7,1.9,0.7,1.9s0,0.1-0.3-0.1c-0.3-0.2-0.2,0-0.2,0S8.3,4.2,8.1,4L8.1,4z"/>
</g>
<g id="Tracciato_30-2-2">
	<path class="st3" d="M7.8,4c-0.2-0.1-1-0.4-1.1-0.5s0.1-0.2,0.1-0.2l0.2,0c0,0-1.1-0.6-1.3-0.8C5.4,2.4,5.9,2.3,6,2.4
		c0.1,0.1,1.4,1,1.4,1s0,0.1-0.2,0.1c-0.2,0-0.1,0-0.1,0S8,4.1,7.8,4L7.8,4z"/>
</g>
<g>
	<path class="st6" d="M8.4,16.1c0.1,0.9-0.1,1-1.1,2.5c-0.2,0.3-0.3,0.5-0.4,0.8c-0.4,1-0.3,2.1,0.5,2.9c0.3,0.3,0.6,0.5,1,0.5
		c0.8,0.2,1.6-0.2,2.1-0.7c1-1.1-0.3-3.4-0.3-3.4s0,0.6-0.4,0.9c0,0-0.3,0-0.1-0.3c0,0,0.3-0.6-0.1-1.6c-0.1-0.3-0.3-0.6-0.6-0.8
		L8.4,16.1L8.4,16.1z"/>
	<path class="st7" d="M8,20.2c0,0-0.8,1,0.1,2.1c0.3,0.3,0.8,0.5,1.2,0.3c0.2-0.1,0.5-0.3,0.6-0.7c0.2-0.6,0-1.3-0.4-1.7l0,0
		C8.7,19.5,9,18.8,9,18.8s-0.9,0.6-0.7,2C8.3,20.7,8.1,20.7,8,20.2L8,20.2z"/>
</g>
</svg>
