<?xml version="1.0" encoding="utf-8"?>
<!-- Generator: Adobe Illustrator 27.9.0, SVG Export Plug-In . SVG Version: 6.00 Build 0)  -->
<svg version="1.1" id="Who_is_at_risk" xmlns="http://www.w3.org/2000/svg" xmlns:xlink="http://www.w3.org/1999/xlink" x="0px"
	 y="0px" viewBox="0 0 32 32" style="enable-background:new 0 0 32 32;" xml:space="preserve">
<style type="text/css">
	.st0{fill:#FFFFFF;}
	.st1{fill:#DBDBDB;}
</style>
<path class="st0" d="M13.1,14.1l-0.6-0.2l-3.9-0.5l-2.8-1.1c-0.1-1.5-0.1-3-0.1-4.6c0-0.5,0.3-1,0.8-1.2l7.9-2.7
	c0.4-0.1,0.8-0.2,1.2-0.1l4.8,1.1l-2.5,3.6l-3,3.1L13.1,14.1L13.1,14.1z"/>
<path class="st1" d="M15.1,11.2l-0.2-6.9c0.2,0,0.4,0,0.6,0.1l4.5,1l-2.1,3L15.1,11.2z"/>
<path class="st0" d="M21.9,5.5l3.6,1.1c0.5,0.2,0.8,0.6,0.8,1.1c0,3.6,0.3,7.1-0.4,10.3l-6.5-1.7l-5.1-2l1.7-2.5l3.2-3L21.9,5.5
	L21.9,5.5z"/>
<path class="st1" d="M16.5,11.5l0.1,3.7l2.9,1.1l5.5,1.4c0.6-3,0.3-6.4,0.3-9.8c0-0.5-0.3-0.9-0.8-1.1L21.5,6l-2.3,2.9L16.5,11.5
	L16.5,11.5z"/>
<path class="st0" d="M24.7,19.1c-0.8,4-3,7.5-8.8,10.4c-0.3,0.1-0.7,0.1-0.9,0c-8.5-4.2-9.2-9.8-9.2-16.1l2.8,1.2l3.9,0.6l5.8,2.3
	L24.7,19.1z"/>
<path class="st1" d="M23.9,18.9c-0.7,3.6-2.6,6.7-7.9,9.3c-0.1,0.1-0.3,0.1-0.4,0.1V16.4l2.8,1.1L23.9,18.9L23.9,18.9z"/>
</svg>
