<?xml version="1.0" encoding="UTF-8"?>
<svg id="Where_is_found" data-name="Where is found" xmlns="http://www.w3.org/2000/svg" viewBox="0 0 32 32">
  <defs>
    <style>
      .cls-1 {
        fill: #fff;
      }

      .cls-2 {
        fill: #9c6040;
      }

      .cls-3 {
        fill: #754632;
      }
    </style>
  </defs>
  <path class="cls-1" d="m8.45,15.94c-1.95-3.54-5.59-6.88-6.48-7.26C-2.68,6.68,13.34-.92,24.12,11.25c7.05,7.79,5.66,12.88,4.54,15.03.07.09-.82,1.25-1.42,1.96,0,0-6.94-3.04-11.37-3.97,0,0-1.03-.07-1.96-.44-1.47-.57-3.15-1.64-3.73-2.52-1.42-2.17-1.74-5.38-1.74-5.38Z"/>
  <path class="cls-2" d="m3.66,8.89c.82.36,4.59,4.14,6.4,7.44,1.81,3.3,3.62,6.93,8.23,7.73,4.62.8,8.56,2.82,8.56,2.82,0,0,5.53-4.68-3.73-14.95C13.85,1.65-.66,7.04,3.66,8.89Z"/>
  <path class="cls-2" d="m16.08,22.76c-.88-2.69-2.22-5.36-4.31-7.1-2.1-1.74-2.07,1.76-.26,4.52s4.96,3.74,4.58,2.58Z"/>
  <path class="cls-3" d="m16.1,22.85c-.03-.11-.19-.89-.6-1.9-.28-.68-.71-1.46-1.17-2.2-.86-1.37-2.28-3.23-3.22-3.45-.45-.1-.65,0-.67.04,0,0,.18-.32.77-.17.37.09,1.15.42,2.32,1.7.92,1,1.7,2.23,2.32,3.49.83,2,.25,2.48.25,2.48Z"/>
</svg>