<?xml version="1.0" encoding="utf-8"?>
<!-- Generator: Adobe Illustrator 27.9.0, SVG Export Plug-In . SVG Version: 6.00 Build 0)  -->
<svg version="1.1" id="Livello_2_00000176727652434221388930000010577115221448632243_"
	 xmlns="http://www.w3.org/2000/svg" xmlns:xlink="http://www.w3.org/1999/xlink" x="0px" y="0px" viewBox="0 0 27.8 22.1"
	 style="enable-background:new 0 0 27.8 22.1;" xml:space="preserve">
<style type="text/css">
	.st0{fill:#FFFFFF;}
	.st1{fill:#FBD4C3;}
</style>
<g>
	<path class="st0" d="M26.8,11.3L26.8,11.3c-0.5-0.5-1.4-1.8-1.9-2.4C25.1,8.5,25,8.1,25,8.1c0-2.2-2-5.6-7.3-5.6
		c-0.1,0-0.1,0-0.2,0c-4.7,0-7.6,2.5-7.8,6.8c-0.1,2.8,1,4.4,1.8,5.5c0.2,0.3,0.4,0.6,0.5,0.8c0.4,0.8-0.1,3.8-0.5,5.6l-0.1,0.4H21
		l0.5,0l-0.1-0.5c0,0-0.1-0.2,0-0.6c0.1-0.4,0.3-1,0.4-1.4c0.6,0.1,1.8,0.2,3,0.1c0.6-0.1,1-0.3,1.2-0.7c0.3-0.6,0-1.4-0.2-1.9
		c-0.2-0.3-0.1-0.4,0.2-0.7L26,16c0.3-0.3,0.2-0.7,0-1l0,0c0.5-0.4,0.2-0.8,0.1-1c0-0.1-0.1-0.1-0.1-0.2c0-0.1-0.1-0.2-0.1-0.2
		c0,0,0.1-0.1,0.5-0.2c0.6-0.2,0.8-0.6,0.9-0.8C27.3,12.1,27.2,11.7,26.8,11.3z M13.6,11.8c-0.2,0.1-0.3,0-0.5-0.1
		c-0.2-0.1-0.4,0.1-0.3,0.3c0,0.2,0.3,0.2,0.5,0.1c0.2-0.1,0.3,0,0.3,0v1.1c0,0-0.4,0.1-0.7,0c-0.2-0.1-0.3,0.1-0.1,0.4
		c0.2,0.3,0,0.7-0.4,0.6c-0.4-0.2-0.2-0.5-0.1-0.7c0.1-0.2-0.2-0.3-0.6-0.2c-0.4,0.1-0.3-0.3-0.3-0.7c0-0.4,0.1-0.3,0.4-0.2
		c0.2,0.1,0.5,0,0.4-0.3c-0.1-0.3-0.4-0.2-0.6-0.1c-0.3,0.1-0.3-1-0.1-1c0.2,0,0.3,0.1,0.6,0.1c0.3,0,0.2-0.3,0.1-0.5
		c-0.1-0.2-0.3-0.6,0.2-0.5c0.5,0,0.3,0.5,0.2,0.6C12.6,10.8,12.6,11,13,11c0.3,0,0.7-0.1,0.7-0.1V11.8z M14.2,7
		c-0.1,0.2-0.3,0.3-0.5,0.1c-0.2-0.1-0.5-0.2-0.5,0.2s0.3,0.5,0.6,0.3c0.3-0.2,0.5,0.1,0.5,0.1v0.7c0,0-0.7-0.1-0.9,0s0.1,0.3,0,0.6
		S13,9.2,12.9,9c-0.1-0.2,0.1-0.4,0.1-0.6c0-0.2-0.4-0.1-0.7,0c-0.3,0.1-0.3,0-0.3,0c-0.2-0.5,0-0.6,0-0.8c0-0.2-0.2-0.2-0.3-0.1
		C11.5,7.6,11,7.7,11,7.3c0-0.4,0.5-0.3,0.6-0.2c0.1,0.1,0.2,0.1,0.3-0.2c0.1-0.3-0.1-0.7-0.1-0.7s0.7,0,1,0c0.3,0,0.3-0.2,0.1-0.4
		c-0.1-0.2-0.1-0.5,0.3-0.4c0.4,0.1,0.3,0.4,0.2,0.5c-0.1,0.1-0.2,0.2,0,0.3c0.2,0.2,0.9,0,0.9,0S14.3,6.7,14.2,7L14.2,7z
		 M18.3,10.1c-0.1,0.4-0.4,0.3-0.5,0.2c-0.1-0.1-0.2-0.2-0.4,0c-0.2,0.2,0,0.9,0,0.9s-0.5,0-0.7-0.1c-0.2-0.1-0.3-0.3-0.1-0.5
		c0.1-0.2,0.2-0.5-0.2-0.5s-0.5,0.3-0.3,0.6c0.2,0.3-0.1,0.5-0.1,0.5h-0.7c0,0,0.1-0.7,0-0.9c-0.1-0.2-0.3,0.1-0.6,0
		s-0.3-0.3-0.1-0.5c0.2-0.1,0.4,0.1,0.6,0.1c0.2,0,0.1-0.4,0-0.7c-0.1-0.3,0-0.3,0-0.3c0.5-0.2,0.6,0,0.8,0c0.2,0,0.2-0.2,0.1-0.3
		c-0.1-0.1-0.2-0.6,0.2-0.6c0.4,0,0.3,0.5,0.2,0.6c-0.1,0.1-0.1,0.2,0.2,0.3c0.3,0.1,0.7-0.1,0.7-0.1s0,0.7,0,1
		c0,0.3,0.2,0.3,0.4,0.1C18.1,9.7,18.4,9.7,18.3,10.1L18.3,10.1z M19.1,4.3c-0.2,0.4-0.5,0.2-0.7,0.1C18.2,4.3,18,4.6,18.1,5
		c0.1,0.4-0.3,0.3-0.6,0.3c-0.3,0-0.3-0.1-0.2-0.4c0.1-0.2,0-0.5-0.3-0.4c-0.3,0.1-0.2,0.4-0.1,0.6c0.1,0.3-1,0.3-1,0.1
		C15.9,5,16,4.9,16,4.6c0-0.3-0.3-0.2-0.5-0.1C15.3,4.6,15,4.8,15,4.3c0-0.5,0.5-0.3,0.6-0.2c0.1,0.1,0.3,0.1,0.3-0.3
		c0-0.3-0.1-0.6-0.1-0.6h0.8c0.1,0.2,0,0.3-0.1,0.5S16.7,4,17,4c0.2,0,0.2-0.3,0.1-0.5c-0.1-0.2,0-0.3,0-0.3h1.1c0,0,0.1,0.4,0,0.6
		c-0.1,0.2,0.1,0.3,0.3,0.1C18.8,3.8,19.3,3.9,19.1,4.3L19.1,4.3z"/>
	<path class="st0" d="M12.6,13.8C12.6,13.8,12.6,13.8,12.6,13.8C12.6,13.8,12.6,13.8,12.6,13.8C12.6,13.8,12.6,13.8,12.6,13.8z"/>
	<polygon class="st0" points="18.8,4.2 18.8,4.2 18.8,4.2 	"/>
</g>
<path class="st1" d="M26.6,11.6c-0.4-0.4-2-2.7-2-2.7c0.2-0.3,0.1-0.8,0.1-0.8c0-1.8-1.7-5.2-7-5.3c-5.2-0.1-7.5,3-7.6,6.5
	c-0.2,3.5,1.7,5,2.3,6.2c0.6,1.2-0.5,5.8-0.5,5.8H21c0,0-0.1-0.3,0-0.8c0.1-0.6,0.5-1.7,0.5-1.7s1.7,0.3,3.1,0.1
	c1.4-0.2,1.1-1.4,0.7-2.1c-0.3-0.6,0-0.9,0.3-1.2c0.3-0.3-0.2-0.8-0.2-0.8l0.3-0.2c0.3-0.2,0.1-0.4-0.1-0.8s-0.3-0.6,0.6-0.9
	C27.1,12.7,27,12,26.6,11.6L26.6,11.6z M13.6,11.8c-0.2,0.1-0.3,0-0.5-0.1c-0.2-0.1-0.4,0.1-0.3,0.3c0,0.2,0.3,0.2,0.5,0.1
	c0.2-0.1,0.3,0,0.3,0v1.1c0,0-0.4,0.1-0.7,0c-0.2-0.1-0.3,0.1-0.1,0.4c0.2,0.3,0,0.7-0.4,0.6s-0.2-0.5-0.1-0.7s-0.2-0.3-0.6-0.2
	c-0.4,0.1-0.3-0.3-0.3-0.7s0.1-0.3,0.4-0.2c0.2,0.1,0.5,0,0.4-0.3c-0.1-0.3-0.4-0.2-0.6-0.1c-0.3,0.1-0.3-1-0.1-1
	c0.2,0,0.3,0.1,0.6,0.1c0.3,0,0.2-0.3,0.1-0.5c-0.1-0.2-0.3-0.6,0.2-0.5c0.5,0,0.3,0.5,0.2,0.6C12.6,10.8,12.6,11,13,11
	c0.3,0,0.7-0.1,0.7-0.1S13.6,11.8,13.6,11.8z M14.2,7c-0.1,0.2-0.3,0.3-0.5,0.1c-0.2-0.1-0.5-0.2-0.5,0.2c0,0.3,0.3,0.5,0.6,0.3
	c0.3-0.2,0.5,0.1,0.5,0.1v0.7c0,0-0.7-0.1-0.9,0s0.1,0.3,0,0.6c0,0.3-0.3,0.3-0.5,0.1c-0.1-0.2,0.1-0.4,0.1-0.6c0-0.2-0.4-0.1-0.7,0
	c-0.3,0.1-0.3,0-0.3,0c-0.2-0.5,0-0.6,0-0.8c0-0.2-0.2-0.2-0.3-0.1C11.5,7.6,11,7.7,11,7.3c0-0.4,0.5-0.3,0.6-0.2
	c0.1,0.1,0.2,0.1,0.3-0.2c0.1-0.3-0.1-0.7-0.1-0.7s0.7,0,1,0c0.3,0,0.3-0.2,0.1-0.4c-0.1-0.2-0.1-0.5,0.3-0.4
	c0.4,0.1,0.3,0.4,0.2,0.5c-0.1,0.1-0.2,0.2,0,0.3c0.2,0.2,0.9,0,0.9,0S14.3,6.7,14.2,7L14.2,7z M18.3,10.1c-0.1,0.4-0.4,0.3-0.5,0.2
	c-0.1-0.1-0.2-0.2-0.4,0c-0.2,0.2,0,0.9,0,0.9s-0.5,0-0.7-0.1c-0.2-0.1-0.3-0.3-0.1-0.5c0.1-0.2,0.2-0.5-0.2-0.5
	c-0.3,0-0.5,0.3-0.3,0.6c0.2,0.3-0.1,0.5-0.1,0.5h-0.7c0,0,0.1-0.7,0-0.9c-0.1-0.2-0.3,0.1-0.6,0c-0.3,0-0.3-0.3-0.1-0.5
	c0.2-0.1,0.4,0.1,0.6,0.1c0.2,0,0.1-0.4,0-0.7c-0.1-0.3,0-0.3,0-0.3c0.5-0.2,0.6,0,0.8,0c0.2,0,0.2-0.2,0.1-0.3
	c-0.1-0.1-0.2-0.6,0.2-0.6c0.4,0,0.3,0.5,0.2,0.6c-0.1,0.1-0.1,0.2,0.2,0.3c0.3,0.1,0.7-0.1,0.7-0.1s0,0.7,0,1
	c0,0.3,0.2,0.3,0.4,0.1C18.1,9.7,18.4,9.7,18.3,10.1L18.3,10.1z M19.1,4.3c-0.2,0.4-0.5,0.2-0.7,0.1C18.2,4.3,18,4.6,18.1,5
	c0.1,0.4-0.3,0.3-0.6,0.3c-0.3,0-0.3-0.1-0.2-0.4c0.1-0.2,0-0.5-0.3-0.4c-0.3,0.1-0.2,0.4-0.1,0.6c0.1,0.3-1,0.3-1,0.1
	C15.9,5,16,4.9,16,4.6c0-0.3-0.3-0.2-0.5-0.1C15.3,4.6,15,4.8,15,4.3c0-0.5,0.5-0.3,0.6-0.2c0.1,0.1,0.3,0.1,0.3-0.3
	c0-0.3-0.1-0.6-0.1-0.6h0.8c0.1,0.2,0,0.3-0.1,0.5C16.5,3.9,16.7,4,17,4c0.2,0,0.2-0.3,0.1-0.5c-0.1-0.2,0-0.3,0-0.3h1.1
	c0,0,0.1,0.4,0,0.6c-0.1,0.2,0.1,0.3,0.3,0.1C18.8,3.8,19.3,3.9,19.1,4.3L19.1,4.3z"/>
<path class="st0" d="M9,3.7V3c0,0-0.2-0.3-0.5-0.1c-0.3,0.2-0.6,0-0.6-0.3s0.4-0.3,0.5-0.2C8.7,2.6,8.9,2.5,9,2.3s0.1-0.7,0.1-0.7
	s-0.7,0.2-0.9,0c-0.2-0.2-0.1-0.3,0-0.4c0.1-0.1,0.2-0.4-0.2-0.5C7.8,0.6,7.7,1,7.8,1.2S8,1.6,7.7,1.5c-0.3,0-1,0-1,0
	s0.2,0.3,0.1,0.7S6.6,2.5,6.5,2.4C6.4,2.3,5.9,2.2,5.9,2.6s0.5,0.3,0.6,0.2c0.1-0.1,0.3-0.1,0.3,0.1c0,0.2-0.2,0.3,0,0.8
	c0,0,0,0.1,0.3,0s0.7-0.1,0.7,0c0,0.2-0.2,0.4-0.1,0.6c0.1,0.2,0.5,0.2,0.5-0.1c0-0.3-0.2-0.4,0-0.6C8.3,3.5,9,3.6,9,3.7L9,3.7z"/>
<path class="st0" d="M1.7,13.4h0.7c0,0,0.3-0.2,0.1-0.5c-0.2-0.3,0-0.6,0.3-0.6s0.3,0.4,0.1,0.5s-0.1,0.4,0.1,0.5s0.7,0.1,0.7,0.1
	s-0.1-0.7,0-0.9s0.3-0.1,0.4,0.1c0.1,0.1,0.4,0.2,0.5-0.2s-0.3-0.4-0.4-0.3c-0.2,0.1-0.4,0.1-0.4-0.1s0-1,0-1s-0.3,0.2-0.7,0.1
	S2.8,11,3,10.9s0.2-0.5-0.2-0.6s-0.3,0.5-0.2,0.6c0.1,0.1,0.1,0.3-0.1,0.3s-0.3-0.2-0.8,0c0,0-0.1,0,0,0.3s0.1,0.7,0,0.7
	S1.3,12,1,12.1s-0.2,0.5,0.1,0.5s0.4-0.2,0.6,0S1.7,13.5,1.7,13.4L1.7,13.4z"/>
<path class="st0" d="M5.4,8.5V7.4c0,0-0.1-0.1-0.3,0S4.6,7.5,4.6,7.3s0.1-0.4,0.3-0.4C5.2,7,5.2,7.2,5.4,7V6.2c0,0-0.3,0.1-0.7,0.1
	S4.4,6.1,4.5,6c0.1-0.1,0.3-0.6-0.2-0.6S4,5.6,4.1,5.8c0.1,0.2,0.2,0.5-0.1,0.5S3.6,6.2,3.3,6.2s-0.2,1.1,0.1,1S4,7,4.1,7.3
	S3.9,7.7,3.6,7.6S3.3,7.5,3.3,7.8S3.2,8.6,3.6,8.5s0.7,0,0.6,0.2C4,8.9,3.8,9.3,4.3,9.4c0.4,0.1,0.5-0.3,0.4-0.6S4.6,8.4,4.8,8.5
	S5.4,8.5,5.4,8.5L5.4,8.5z"/>
<path class="st0" d="M8.6,18.3v-1.1c0,0-0.1-0.1-0.3,0c-0.2,0.1-0.4,0.1-0.5-0.1s0.1-0.4,0.3-0.4c0.2,0.1,0.3,0.3,0.5,0.1v-0.8
	c0,0-0.3,0.1-0.7,0.1c-0.3,0-0.4-0.2-0.3-0.3s0.3-0.6-0.2-0.6s-0.3,0.3-0.2,0.5c0.1,0.2,0.2,0.5-0.1,0.5c-0.3,0-0.3-0.1-0.6-0.1
	c-0.2,0-0.2,1.1,0.1,1s0.6-0.2,0.6,0.1c0.1,0.3-0.2,0.4-0.4,0.3c-0.2-0.1-0.4-0.1-0.4,0.2c0,0.3-0.1,0.8,0.3,0.7
	c0.4-0.1,0.7,0,0.6,0.2c-0.1,0.2-0.3,0.6,0.1,0.7C7.8,19.4,8,19,7.8,18.7S7.7,18.3,8,18.4C8.2,18.4,8.6,18.3,8.6,18.3L8.6,18.3z"/>
</svg>
