<?xml version="1.0" encoding="utf-8"?>
<!-- Generator: Adobe Illustrator 27.9.0, SVG Export Plug-In . SVG Version: 6.00 Build 0)  -->
<svg version="1.1" id="Livello_2_00000077320314377244029100000013341186080429996945_"
	 xmlns="http://www.w3.org/2000/svg" xmlns:xlink="http://www.w3.org/1999/xlink" x="0px" y="0px" viewBox="0 0 29.1 20.7"
	 style="enable-background:new 0 0 29.1 20.7;" xml:space="preserve">
<style type="text/css">
	.st0{fill:#D9DDE3;}
	.st1{fill:#F5FBFF;}
	.st2{fill:#CCCFD4;}
</style>
<path class="st0" d="M1.4,8.7c-0.1-4.1,6-7.4,13.2-7.3S27.7,4.9,27.7,9c0,4.6-6.4,7.7-13.7,7.6C6.7,16.6,1.4,13.5,1.4,8.7z"/>
<ellipse transform="matrix(1.204252e-02 -0.9999 0.9999 1.204252e-02 5.9585 22.9259)" class="st1" cx="14.6" cy="8.4" rx="7.5" ry="13.2"/>
<path class="st0" d="M24.4,8.6c0,0-0.5-1.4-3.2-3.2c-1.6-1.1-4.8-1.8-6.7-1.8C9.2,3.5,5.8,6.2,6.8,5.4c1.7-1.5,4.7-2.4,8-2.4
	C20.1,3.1,24.4,5.6,24.4,8.6L24.4,8.6z"/>
<g>
	<path class="st0" d="M13.4,5.4l6.4,4.7c0,0-0.3,0.4,0.7,1.4c1,1,6.4,3.7,6.4,4.3c0,0.6-0.5,0.8-2.3-0.3c-1.8-1.1-5.4-4-5.5-4.5
		c-0.4-0.1-0.7-0.2-1-0.4C17.6,10.2,13.1,6.1,13.4,5.4L13.4,5.4z"/>
	<path class="st2" d="M19.1,10.9c0,0,0.1,0,0.2-0.2c0,0,0,0.2,0.3,0.5c0.3,0.3,2.2,2.1,4.1,3.4s2.8,1.3,2.8,1.4
		c0,0.2-0.2,0.2-1.1-0.2C24.5,15.4,19.9,12.2,19.1,10.9L19.1,10.9z"/>
</g>
<g>
	<path class="st0" d="M22.4,18.9c-0.3,0.2-0.6,0.3-0.7,0.3c-0.1,0-1.2-0.7-2-1.7s-4.1-5.1-5.1-5.6c-0.8-0.5-1.3-0.3-1.5-0.3
		c-0.2,0-1-0.2-1.6-1.5c-0.6-1.3-1.3-3.4-1.3-3.4l1.1-0.4c0,0,2,3.3,2.7,4c0.7,0.7,0.5,0.9,0.5,0.9c0.1,0,0.8,0.2,1.8,1.1
		c1.8,1.7,4.5,4.6,6.5,5.8C23,18.5,22.4,18.8,22.4,18.9L22.4,18.9z"/>
	<path class="st2" d="M13.2,11.6c-0.5,0.1-1.1-0.6-1.1-0.6c-0.7-0.6-1.9-4.3-1.9-4.3c0,0,1.2,3.3,1.9,4.2s1.6,0.5,2,0.5
		c0.2,0,1,0.4,1.8,1.1c1.3,1.1,4,4.6,4.4,5c0.8,1,1.4,1.2,1.5,1.3c0,0,0.1,0,0.1,0l0.8-0.5c0.1,0.1,0.1,0.3-0.1,0.4
		c-0.2,0.2-0.8,0.5-0.8,0.4c-0.1,0-0.5-0.2-1.4-1c-0.4-0.4-3.2-3.8-4.8-5.5c-0.4-0.4-0.7-0.7-1.1-0.9C14,11.5,13.7,11.5,13.2,11.6
		L13.2,11.6z"/>
	<path class="st2" d="M10.5,6.5c0,0,1.1,2.7,1.3,3C12,9.9,12.2,10,12.2,10l-0.1-0.2C12.1,9.8,10.5,6.5,10.5,6.5z"/>
	<path class="st2" d="M10.8,6.5c0,0,1.2,2.7,1.4,3c0.2,0.3,0.4,0.4,0.4,0.4l-0.1-0.2L10.8,6.5L10.8,6.5z"/>
	<path class="st2" d="M11.1,6.4c0,0,1.3,2.6,1.5,2.9C12.8,9.6,13,9.7,13,9.7l-0.1-0.2L11.1,6.4L11.1,6.4z"/>
</g>
</svg>
