<?xml version="1.0" encoding="UTF-8"?>
<svg id="Livello_2" data-name="Livello 2" xmlns="http://www.w3.org/2000/svg" xmlns:xlink="http://www.w3.org/1999/xlink" viewBox="0 0 21.71 20.11">
  <defs>
    <style>
      .cls-1 {
        fill: #696663;
      }

      .cls-2 {
        fill: #fff;
      }

      .cls-3 {
        fill: #c1b3a0;
      }

      .cls-4 {
        fill: #908e8d;
      }

      .cls-5 {
        fill: #908e8c;
      }

      .cls-6 {
        fill: #915a27;
      }

      .cls-7 {
        fill: #d8ccbf;
      }

      .cls-8 {
        fill: #423f3c;
      }

      .cls-9 {
        fill: #1d1d1b;
      }

      .cls-10 {
        fill: #444341;
      }

      .cls-11 {
        fill: #706e6c;
      }

      .cls-12 {
        fill: #262422;
      }

      .cls-13 {
        fill: #844f1e;
      }

      .cls-14 {
        fill: #4d4c4b;
      }

      .cls-15 {
        fill: url(#Sfumatura_senza_nome_4);
      }

      .cls-16 {
        fill: url(#Sfumatura_senza_nome_8);
      }

      .cls-17 {
        fill: url(#Sfumatura_senza_nome_4-4);
      }

      .cls-18 {
        fill: url(#Sfumatura_senza_nome_4-5);
      }

      .cls-19 {
        fill: url(#Sfumatura_senza_nome_4-2);
      }

      .cls-20 {
        fill: url(#Sfumatura_senza_nome_4-3);
      }

      .cls-21 {
        fill: url(#Sfumatura_senza_nome_4-6);
      }

      .cls-22 {
        fill: url(#Sfumatura_senza_nome_8-6);
      }

      .cls-23 {
        fill: url(#Sfumatura_senza_nome_8-5);
      }

      .cls-24 {
        fill: url(#Sfumatura_senza_nome_8-7);
      }

      .cls-25 {
        fill: url(#Sfumatura_senza_nome_8-2);
      }

      .cls-26 {
        fill: url(#Sfumatura_senza_nome_8-4);
      }

      .cls-27 {
        fill: url(#Sfumatura_senza_nome_8-3);
      }
    </style>
    <linearGradient id="Sfumatura_senza_nome_4" data-name="Sfumatura senza nome 4" x1="-50.25" y1="-152.43" x2="-49.15" y2="-152.43" gradientTransform="translate(56.91 165.28) rotate(-21.54) scale(.95 1.06) skewX(-21.5)" gradientUnits="userSpaceOnUse">
      <stop offset="0" stop-color="#423f3c"/>
      <stop offset="1" stop-color="#000"/>
    </linearGradient>
    <linearGradient id="Sfumatura_senza_nome_4-2" data-name="Sfumatura senza nome 4" x1="-45.84" y1="-152.4" x2="-45.09" y2="-152.4" gradientTransform="translate(-118.2 108.04) rotate(47.96) scale(.95 1.06) skewX(-21.5)" xlink:href="#Sfumatura_senza_nome_4"/>
    <linearGradient id="Sfumatura_senza_nome_8" data-name="Sfumatura senza nome 8" x1="11.66" y1="3.57" x2="16.82" y2="2.95" gradientUnits="userSpaceOnUse">
      <stop offset="0" stop-color="#423f3c"/>
      <stop offset="1" stop-color="#706f6f"/>
    </linearGradient>
    <linearGradient id="Sfumatura_senza_nome_8-2" data-name="Sfumatura senza nome 8" x1="10.89" y1="6.35" x2="11.24" y2="8.17" xlink:href="#Sfumatura_senza_nome_8"/>
    <linearGradient id="Sfumatura_senza_nome_8-3" data-name="Sfumatura senza nome 8" x1="12.77" y1=".71" x2="12.87" y2="1.26" xlink:href="#Sfumatura_senza_nome_8"/>
    <linearGradient id="Sfumatura_senza_nome_8-4" data-name="Sfumatura senza nome 8" x1="17.77" y1="5.52" x2="19.51" y2="6.89" xlink:href="#Sfumatura_senza_nome_8"/>
    <linearGradient id="Sfumatura_senza_nome_8-5" data-name="Sfumatura senza nome 8" x1="17.9" y1="7.66" x2="11.74" y2="10.35" xlink:href="#Sfumatura_senza_nome_8"/>
    <linearGradient id="Sfumatura_senza_nome_8-6" data-name="Sfumatura senza nome 8" x1="10.54" y1="5.17" x2="10.35" y2="5.69" xlink:href="#Sfumatura_senza_nome_8"/>
    <linearGradient id="Sfumatura_senza_nome_8-7" data-name="Sfumatura senza nome 8" x1="11.73" y1="6.49" x2="6.59" y2="8.54" xlink:href="#Sfumatura_senza_nome_8"/>
    <linearGradient id="Sfumatura_senza_nome_4-3" data-name="Sfumatura senza nome 4" x1="10.88" y1="14.45" x2="9.54" y2="17.5" gradientTransform="matrix(1,0,0,1,0,0)" xlink:href="#Sfumatura_senza_nome_4"/>
    <linearGradient id="Sfumatura_senza_nome_4-4" data-name="Sfumatura senza nome 4" x1="4.15" y1="13.85" x2="2.79" y2="16.79" gradientTransform="matrix(1,0,0,1,0,0)" xlink:href="#Sfumatura_senza_nome_4"/>
    <linearGradient id="Sfumatura_senza_nome_4-5" data-name="Sfumatura senza nome 4" x1="-42.25" y1="-148.17" x2="-41.14" y2="-148.17" xlink:href="#Sfumatura_senza_nome_4"/>
    <linearGradient id="Sfumatura_senza_nome_4-6" data-name="Sfumatura senza nome 4" x1="-37.83" y1="-148.13" x2="-37.08" y2="-148.13" gradientTransform="translate(-111.64 102.57) rotate(47.96) scale(.95 1.06) skewX(-21.5)" xlink:href="#Sfumatura_senza_nome_4"/>
  </defs>
  <g id="Who_is_at_risk" data-name="Who is at risk">
    <g id="ic_degenerative_conditions" data-name="ic_degenerative conditions">
      <g id="wheelchair">
        <path class="cls-2" d="m21.7,10.93c-.05-1.31-.5-2.4-1.28-3.05-.48-.4-1.06-.61-1.68-.61-.15,0-.3.01-.45.04l.04-1.57s0-.02,0-.03c-.03-.17-.13-.45-.34-.61v-1.1s0-.05,0-.08c0-.09,0-.17.02-.24.02-.06.06-.13.12-.18.13-.12.31-.2.48-.27.19-.08.39-.16.58-.23.02,0,.05-.02.08-.03.03-.01.07-.02.11-.04.03,0,.05,0,.08,0,.05,0,.1-.01.14-.03l1.02-.5c.16-.08.26-.23.27-.41,0-.08-.01-.16-.04-.24-.08-.17-.25-.28-.45-.28-.06,0-.12.01-.18.03l-1.12.44c-.08.03-.14.09-.17.16,0,0,0,0-.01,0-.03.01-.06.02-.09.03-.2.07-.41.16-.6.26-.2.1-.42.22-.63.4-.1-.07-.21-.12-.34-.14l-5.5-.63s-.05,0-.07,0c-.03,0-.07,0-.1,0,0,0,0,0,.01-.01.13-.12.31-.2.48-.27.19-.08.39-.16.58-.23.02,0,.05-.02.08-.03.02,0,.05-.02.08-.03.02,0,.05,0,.07,0,.05,0,.1-.01.14-.03l1.02-.5c.16-.08.26-.23.27-.41,0-.08-.01-.16-.05-.24-.08-.17-.25-.28-.44-.28-.06,0-.12.01-.18.03l-1.12.45c-.08.03-.14.09-.17.17-.02,0-.04.01-.06.02-.21.08-.41.17-.6.26-.25.12-.53.28-.77.53-.07.07-.16.18-.23.31-.08.16-.08.32-.08.46,0,.02,0,.04,0,.06v2.04c-.12.02-.24.05-.37.08h-.03s0,0,0,0c0,0,0,0,0,0,0,0,0,0,0,0,0,0,0,0-.01,0,0,0,0,0,0,0,0,0,0,0,0,0,0,0-.01,0-.02,0-.13.05-2.24.9-2.64,1.12-.21.11-.61.28-.96.43-.44.19-.6.26-.66.3-.1.08-.18.14-.22.2-.11.08-.28.23-.43.49-.2.35-.29.78-.28,1.28,0,.67.02,1.46.03,2,0,.3.01.55.01.74v.21s0,0,0,0c-.07.08-.22.23-.45.44-.07.07-.25.23-1.27,2.9-.36.93-.7,1.85-.86,2.3l-2.25-.36s-.02,0-.03,0c-.04,0-.09.02-.12.05-.04.04-.06.09-.06.15l.1,1.33s0,.01,0,.02c0,0,0,0,0,0,0,0,0,0,0,.01,0,0,0,0,0,0,0,0,0,.01,0,.02,0,0,0,0,0,0,0,0,0,0,0,.01,0,0,0,0,0,0,0,0,0,0,0,.01,0,0,0,0,0,0,0,0,0,0,.01.01,0,0,0,0,0,0,0,0,0,0,0,0,0,0,0,0,0,0,0,0,0,0,.01.01,0,0,0,0,0,0,0,0,0,0,0,0,0,0,0,0,0,0,0,0,0,0,.01,0,0,0,0,0,0,0,0,0,0,0,.01,0,0,0,0,0,0,0,0,0,0,0,0,0,0,0,0,0,0,0l6.53,1.94s0,0,0,0c0,0,.01,0,.02,0,0,0,0,0,0,0,0,0,.02,0,.02,0,0,0,0,0,0,0,0,0,0,0,0,0,0,0,0,0,0,0,0,0,.02,0,.02,0,0,0,0,0,0,0,0,0,0,0,.01,0,0,0,0,0,0,0,0,0,.02,0,.03,0,.17-.06.94-.38,1.11-.45,1.14-.47,1.19-.51,1.22-.54.18-.15.13-.4.12-.45.18-.43.52-1.27.52-1.27.24-.61.55-1.38.81-2.02.05-.02.1-.03.15-.05.19-.08.38-.17.56-.27,0,.44,0,.82-.01.94-.02.32.16.53.31.67l-.11.09c-.05.04-.07.11-.06.18s.06.12.13.13l.29.08c-.06.15-.1.32-.1.49,0,.69.56,1.25,1.25,1.25h.29c.34,0,.68-.14.91-.4.22-.23.34-.54.34-.86s-.12-.62-.34-.86c-.24-.25-.57-.4-.91-.4h-.18l-.7-.28s-.04-.01-.07-.01c-.04,0-.08.01-.12.04h0s-.06-.04-.09-.06c-.04-.03-.07-.2-.05-.4,0,0,0-.02,0-.02v-1.16c.5-.44.94-1,1.31-1.65,0-.02.02-.03.03-.05-.07.44-.1.88-.08,1.31.05,1.31.5,2.4,1.28,3.05.48.4,1.06.61,1.68.61h0c.38,0,.78-.08,1.18-.24.08-.03.16-.07.24-.1.08-.02.16-.05.24-.08,1.03-.41,1.98-1.3,2.67-2.5.69-1.2,1.04-2.57.99-3.87Zm-15.71,6.82s-.03,0-.04,0c-.03,0-.06,0-.08.02l-.45.24v-.24c0-.08-.05-.15-.13-.17l-2.19-.59.75-1.72s0,0,0,0c.43-1.07,1.09-2.72,1.16-2.86.03-.07.07-.12.1-.17,0,.8,0,1.94,0,2.18-.02.32.16.53.31.67l-.11.09c-.05.04-.07.11-.06.18s.06.12.13.13l.3.08c-.05.13-.09.28-.09.44,0,.64.52,1.16,1.16,1.16h.27c.32,0,.63-.13.85-.37.2-.22.32-.5.32-.8,0-.18-.04-.35-.12-.51.34.16.71.24,1.09.24h0c.17,0,.35-.02.53-.05-.06.16-.12.33-.19.51-.32.87-.62,1.72-.79,2.2l-2.71-.65Zm9.81-1.87s-.06-.05-.09-.08l.43-.54-.35.62Zm-9.92-6.94s0,0,0,0c-.02-.39.02-1.43.47-1.76.04.01.09.02.16.02.01,0,.02,0,.04,0,.05,0,.12,0,2.19-.86.04-.01.07-.03.11-.04-.63.47-1.19,1.13-1.65,1.92-.29.5-.52,1.04-.68,1.59l-.61.24-.02-1.1Zm12.29,4.34l-.02-.3.09.08,1.01,1.69c-.17.25-.35.48-.54.68l-.54-2.15Zm-8.74,1.03c-.2-.04-.39-.11-.56-.21l.83-1.48.27.07-.54,1.63Zm-.94-.51l.43-.54-.35.62s-.06-.05-.09-.08Zm11.74-2.43s0,.06,0,.09l-1.26.43,1.26-.59s0,.04,0,.06Zm-.25-.35l.2-.16s0,.04,0,.06l-.21.1Zm-9.73-4.27c.07-.02.15-.04.22-.05v1.49s-.35.15-.35.15l-.32-1.3c.15-.11.3-.2.46-.28Zm-.56,1.37l-.36-.71c.05-.05.1-.1.15-.14l.21.85Zm-.17.45l-.3.12-.47-.6c.1-.14.21-.27.32-.4l.45.88Zm-.98-.17l.34.43-.13.05-.35-.24s.02-.04.04-.06c.03-.06.07-.12.11-.18Zm-.19.64l-.19.08c.02-.05.05-.1.07-.15l.12.08Zm-.42,3.13l.6.15-.62.6c-.08-.2-.14-.41-.18-.63l.2-.11Zm.99.27l-.73,1.02c-.04-.06-.08-.12-.12-.19l.85-.82Zm1.73.4l.03.5c-.07.1-.19.32-.43.87l.23-1.41.17.04Zm8.6-.67l.97-.33c0,.08-.01.15-.02.23l-.95.11Zm-.2-.9l.98-1.02c.02.07.04.14.06.21l-1.04.81Zm.77-1.32l.06-.09s0,.01,0,.02l-.07.07Zm-1.45,1.52l-.05.05.03-.13.96-2.3c.14.12.26.26.37.42l-1.31,1.95Zm.54-2.34l.07-.27s.03.01.04.02l-.1.25Zm-.69,1.3l.28-1.75s.09.02.14.04l-.42,1.71Zm-2.02.51l.14.17-.2-.14.07-.04Zm.32-.17l.26-.14.51,1,.02.1s0,.04,0,.06h0s-.8-1.02-.8-1.02Zm.52,1.9l-.13.08-2.03.56c0-.13.01-.27.02-.4l2.07-.25h.07Zm2.12,1.23l.37.34s-.05.1-.08.14l-.29-.48Zm-.65-1.09l-.11-.18.17-.02,1.48.31c-.09.34-.2.67-.35.99l-1.19-1.09Zm1.21-.33l.43-.05s-.02.09-.02.13l-.41-.08Zm-12.71,2.34h-.02s0,0,0,0c0,0,0,0,0,0,0,0-.01,0-.02-.01,0,0,0,0,0,0,0,0-.01,0-.02,0,0,0,0,0,0,0l-.73-.29s-.04-.01-.07-.01c-.04,0-.08.01-.12.04h0s-.06-.04-.09-.06c-.04-.03-.07-.2-.05-.4,0,0,0-.02,0-.02v-2.38l.3.07c0,.11,0,.21,0,.32.04,1.15.39,2.12,1,2.78-.06,0-.12-.01-.18-.01Zm2.94-.98l-.08.49s-.05,0-.08,0l.16-.49Zm5-1.31c.01-.09.03-.18.05-.27l.83.16-.88.11Zm3.45,3.16s-.08.07-.12.1l-.04-.69.15.6Zm-2.63-4.54l1.3.89.16.21-.25.03-1.9-.37c.05-.16.1-.32.16-.48l.52-.28Zm-.13,2.3l-.74.42c0-.07-.01-.14-.02-.21l.76-.21Zm-.22,1.97c-.04-.06-.08-.12-.12-.19l.85-.83-.73,1.02Zm1.75.39l-.08.49s-.05,0-.08,0l.16-.49Zm-.19-2.72l-1.84,1.79c-.08-.2-.14-.41-.18-.63l2.02-1.15Zm.53.4l.05-.07-.02.11-.91,2.72c-.2-.04-.39-.11-.56-.21l1.43-2.55Zm.32.51l.1,2.02c-.1.07-.21.13-.31.18-.05.02-.11.03-.16.04l.37-2.24Z"/>
        <g>
          <path class="cls-11" d="m14.46,17.62c0,.28-.11.54-.29.73-.2.21-.47.34-.78.34-.05,0-.1,0-.15,0h0s-.1-.02-.15-.03c-.45-.13-.78-.54-.78-1.03s.33-.91.78-1.03c.05-.01.1-.02.15-.03h0s.1,0,.15,0c.31,0,.59.13.78.34.18.19.29.45.29.73Z"/>
          <path class="cls-14" d="m13.7,17.62c0,.08-.03.15-.08.2-.05.06-.13.09-.21.09-.01,0-.03,0-.04,0h0s-.03,0-.04,0c-.12-.03-.21-.15-.21-.28s.09-.25.21-.28c.01,0,.03,0,.04,0h0s.03,0,.04,0c.08,0,.16.04.21.09.05.05.08.12.08.2Z"/>
          <path class="cls-10" d="m13.24,18.68s.1,0,.15,0h-.29c-.59,0-1.07-.48-1.07-1.07s.48-1.07,1.07-1.07h.29s-.1,0-.15,0h0s-.1.02-.15.03c-.45.13-.78.54-.78,1.03s.33.91.78,1.03c.05.01.1.02.15.03h0Z"/>
          <path class="cls-1" d="m11.65,12.98h.35v2.64s-.06.44.12.57.24.2.24.2c0,0-.26.31-.35.25s-.47-.26-.45-.66,0-3.01,0-3.01h.1Z"/>
          <polygon class="cls-1" points="11.7 16.88 12.53 17.09 13.17 16.54 12.43 16.25 11.7 16.88"/>
          <path class="cls-8" d="m14.13,17.81l-.96-1.27-.64.55s.66.57,1.03.67.57.05.57.05Z"/>
          <path class="cls-11" d="m8.01,16.01c0,.26-.1.5-.27.67-.18.19-.43.31-.72.31-.05,0-.09,0-.13,0h0s-.09-.02-.13-.03c-.41-.12-.72-.5-.72-.95s.3-.83.72-.95c.04-.01.09-.02.13-.03h0s.09,0,.13,0c.28,0,.54.12.72.31.17.18.27.41.27.67Z"/>
          <path class="cls-14" d="m7.32,16.01c0,.07-.03.14-.07.18-.05.05-.12.08-.2.08-.01,0-.02,0-.04,0h0s-.02,0-.04,0c-.11-.03-.2-.14-.2-.26s.08-.23.2-.26c.01,0,.02,0,.04,0h0s.02,0,.04,0c.08,0,.15.03.2.08.05.05.07.11.07.18Z"/>
          <path class="cls-10" d="m6.9,16.98s.09,0,.13,0h-.27c-.54,0-.98-.44-.98-.98s.44-.98.98-.98h.27s-.09,0-.13,0h0s-.09.02-.13.03c-.41.12-.72.5-.72.95s.3.83.72.95c.04.01.09.02.13.03h0Z"/>
          <path class="cls-1" d="m5.38,11.42h.35v2.64s-.06.44.12.57.24.2.24.2c0,0-.26.31-.35.25s-.47-.26-.45-.66,0-3.01,0-3.01h.1Z"/>
          <polygon class="cls-1" points="5.43 15.32 6.26 15.54 6.9 14.99 6.16 14.69 5.43 15.32"/>
          <path class="cls-8" d="m7.86,16.25l-.96-1.27-.64.55s.66.57,1.03.67.57.05.57.05Z"/>
          <g>
            <g>
              <path class="cls-15" d="m14.3,8.95c0-.08,0-.15-.01-.23,0-.08-.01-.15-.02-.22-.04-.33-.1-.63-.19-.92-.01-.05-.03-.09-.05-.14-.08-.21-.17-.42-.27-.6-.01-.02-.03-.05-.04-.07-.17-.29-.38-.54-.62-.74-.51-.43-1.13-.62-1.79-.56v.83s.01,0,.02,0c0,0,.02,0,.03,0,.03,0,.06,0,.09,0,.01,0,.02,0,.03,0,.02,0,.03,0,.05,0,.03,0,.06,0,.08,0,.02,0,.05,0,.07,0,0,0,.01,0,.02,0,.01,0,.03,0,.04,0h0s.02,0,.03,0c0,0,0,0,.01,0,.01,0,.02,0,.03,0,.01,0,.02,0,.03,0,.02,0,.03,0,.05.01.01,0,.02,0,.04,0,.01,0,.03,0,.04.01,0,0,.02,0,.03,0,0,0,.02,0,.03,0,0,0,0,0,0,0,.01,0,.02,0,.03.01,0,0,.02,0,.03.01,0,0,.02,0,.02,0,0,0,.02,0,.03.01,0,0,.01,0,.02,0,0,0,0,0,.01,0,0,0,.02,0,.02.01.03.01.06.03.09.05.01,0,.02.01.03.02.02.01.04.02.06.03.02.01.04.03.07.04,0,0,.01,0,.02.01.04.02.07.05.1.07.01,0,.02.02.03.02,0,0,0,0,0,0,0,0,.02.01.02.02,0,0,.01,0,.02.01,0,0,.02.02.03.02.01,0,.02.02.03.03,0,0,.01.01.02.02.03.02.05.05.08.07.01.01.02.02.03.03.01.01.02.02.03.03,0,0,.01.01.02.02.02.03.05.05.07.08,0,0,.02.02.03.03,0,0,0,0,0,0,0,0,0,.01.01.02,0,0,.01.02.02.03,0,0,.01.02.02.03.01.01.02.03.03.05,0,.01.02.03.03.04,0,0,0,0,.01.01,0,.01.02.03.03.04,0,0,0,0,0,0,0,.01.02.02.02.04.01.02.03.04.04.06.02.03.04.06.05.09,0,0,0,0,0,0,0,.02.02.03.02.05,0,.01.01.02.02.04,0,0,0,.02.01.03,0,0,0,.01,0,.02,0,.01.01.02.02.04,0,.01,0,.02.01.03,0,.02.01.03.02.05,0,.01,0,.02.01.03,0,0,0,.02.01.03,0,.01,0,.02.01.03,0,.01.01.03.02.04.02.07.05.13.07.2,0,.01,0,.03.01.04,0,.02,0,.03.01.05,0,.02,0,.03.01.05,0,.01,0,.03.01.04,0,.01,0,.03.01.04,0,.01,0,.03,0,.04,0,.01,0,.03,0,.04,0,.02,0,.03,0,.05,0,.01,0,.03,0,.04,0,0,0,.02,0,.03,0,.01,0,.02,0,.03,0,.01,0,.02,0,.03,0,0,0,0,0,.01,0,.02,0,.03,0,.05,0,.01,0,.03,0,.04,0,.01,0,.03,0,.04,0,.04,0,.07.01.11,0,0,0,0,0,0,0,.01,0,.03,0,.04,0,.02,0,.04,0,.05,0,.01,0,.02,0,.03,0,.01,0,.03,0,.04,0,.02,0,.03,0,.05,0,.01,0,.02,0,.03,0,0,0,.01,0,.02,0,.03,0,.06,0,.09,0,.08,0,.17,0,.25,0,.01,0,.02,0,.03,0,.01,0,.02,0,.04,0,0,0,.02,0,.03,0,.01,0,.03,0,.04,0,.01,0,.02,0,.03,0,.01,0,.02,0,.04,0,.03,0,.05,0,.08,0,.01,0,.03,0,.04,0,.02,0,.04,0,.06,0,.02,0,.03,0,.05,0,.02,0,.03,0,.05,0,.01,0,.03,0,.04,0,.02,0,.03,0,.05,0,.02,0,.03,0,.05,0,.02,0,.03,0,.05,0,.02,0,.03,0,.05v.05s-.02.06-.02.08c0,0,0,0,0,0,0,.03,0,.05-.01.08,0,0,0,0,0,0,0,.03,0,.05-.01.08,0,0,0,.01,0,.02,0,.02,0,.05-.01.07,0,0,0,.01,0,.02,0,.03-.01.05-.02.08,0,.02,0,.04-.01.06,0,0,0,0,0,0,0,.02,0,.03-.01.05,0,0,0,0,0,0,0,.03-.01.05-.02.08,0,.02-.01.04-.02.06-.02.05-.03.11-.05.16,0,.01,0,.03-.01.04,0,.02-.01.05-.02.07,0,.02-.01.03-.02.05-.03.09-.06.19-.1.28,0,.01-.01.03-.02.04,0,.01-.01.03-.02.04,0,0,0,.02-.01.03,0,.02-.01.03-.02.05,0,.01-.01.03-.02.04,0,0,0,0,0,.01,0,0,0,0,0,0-.01.02-.02.05-.03.07-.01.03-.02.05-.04.08-.01.02-.02.05-.03.07,0,0,0,.01-.01.02,0,.02-.02.03-.03.05-.02.03-.03.06-.05.09,0,.02-.02.04-.03.06,0,0-.01.02-.02.03-.01.02-.02.05-.04.07-.01.03-.03.05-.04.08-.01.02-.02.04-.04.06-.01.02-.02.04-.04.06-.01.02-.03.05-.04.07,0,0,0,0,0,0-.01.02-.03.05-.04.07-.01.02-.03.04-.04.06-.04.05-.07.11-.11.16-.03.04-.06.09-.09.13,0,0,0,0,0,0-.02.02-.03.04-.05.07,0,.01-.02.02-.03.03-.02.02-.04.05-.06.07-.03.03-.05.06-.08.1-.07.08-.14.15-.21.23-.01.01-.02.02-.03.03-.02.02-.05.05-.07.07,0,0-.02.02-.03.03-.02.02-.05.04-.07.06-.02.02-.05.04-.07.06-.01,0-.02.02-.03.03-.02.02-.04.03-.06.05-.05.04-.09.07-.14.11,0,0-.02.01-.02.02-.02.02-.04.03-.06.05-.01,0-.02.02-.04.02-.01,0-.02.02-.04.02-.01,0-.02.02-.04.02-.05.03-.1.06-.15.09-.01,0-.02.01-.03.02-.01,0-.02.01-.03.02-.02.01-.05.03-.07.04h-.03s-.07.05-.1.06c0,0,0,0,0,0-.01,0-.03.01-.04.02-.01,0-.03.01-.04.02,0,0,0,0-.01,0-.01,0-.02,0-.03.01-.02,0-.04.02-.06.02-.08.03-.16.06-.24.08-.15.05-.3.08-.45.09-.16.02-.32.02-.48,0-.33-.04-.64-.16-.92-.36-.05-.03-.09-.07-.14-.1-.09-.07-.17-.15-.24-.24-.01-.02-.03-.03-.04-.05-.13-.16-.25-.33-.34-.53-.15-.3-.26-.65-.32-1.04-.03-.18-.05-.37-.06-.57,0-.02,0-.04,0-.07,0-.1,0-.19,0-.29,0-.17.02-.34.04-.51.03-.23.07-.46.13-.69.05-.21.12-.42.19-.63.09-.25.2-.5.33-.74.04-.07.08-.14.11-.21.08-.14.16-.27.25-.4h0c.18-.26.37-.5.58-.71.15-.16.31-.3.48-.43.19-.15.39-.27.6-.37.08-.04.16-.07.24-.1.02,0,.04-.01.06-.02,0,0,0,0,0,0,.02,0,.03-.01.05-.02.01,0,.03-.01.04-.02,0,0,.01,0,.02,0,0,0,0,0,0,0,.02,0,.03,0,.05-.01.01,0,.03,0,.04-.01,0,0,0,0,0,0,.01,0,.03,0,.04-.01.01,0,.03,0,.04-.01,0,0,0,0,0,0,.01,0,.02,0,.04,0,0,0,0,0,0,0,0-.22,0-.45,0-.67h0s0-.03,0-.04c0-.03,0-.07,0-.1,0,0,0,0-.01,0-.14.03-.28.08-.41.13-.08.03-.16.07-.24.1-.08.02-.16.05-.24.08-.99.39-1.91,1.25-2.58,2.42-.3.52-.53,1.07-.69,1.64-.1.36-.18.73-.23,1.09-.04.35-.06.7-.05,1.04.05,1.26.48,2.3,1.21,2.91.74.62,1.69.74,2.68.35.08-.03.16-.07.24-.1.08-.02.16-.05.24-.08.99-.39,1.91-1.25,2.58-2.42.25-.44.46-.91.61-1.38.26-.79.38-1.6.35-2.39Z"/>
              <path class="cls-8" d="m13.67,9.45s0,.02,0,.03c0,.01,0,.02,0,.04,0,0,0,.02,0,.03,0,.01,0,.03,0,.04,0,.01,0,.02,0,.03,0,.01,0,.02,0,.04,0,.03,0,.05,0,.08,0,.01,0,.03,0,.04,0,.02,0,.04,0,.06,0,.02,0,.03,0,.05,0,.02,0,.03,0,.05,0,.01,0,.03,0,.04,0,.02,0,.03,0,.05,0,.02,0,.03,0,.05,0,.02,0,.03,0,.05,0,.02,0,.03,0,.05v.05s-.02.06-.02.08c0,0,0,0,0,0,0,.03,0,.05-.01.08,0,0,0,0,0,0,0,.03,0,.05-.01.08,0,0,0,.01,0,.02,0,.02,0,.05-.01.07,0,0,0,.01,0,.02,0,.03-.01.05-.02.08,0,.02,0,.04-.01.06,0,0,0,0,0,0,0,.01,0,.03-.01.05,0,0,0,0,0,0,0,.03-.01.05-.02.08,0,.02-.01.04-.02.06-.02.05-.03.11-.05.16,0,.01,0,.03-.01.04,0,.02-.01.05-.02.07,0,.02-.01.03-.02.05-.03.09-.06.19-.1.28,0,.01-.01.03-.02.04,0,.01-.01.03-.02.04,0,0,0,.02-.01.03,0,.02-.01.03-.02.05,0,.01-.01.03-.02.04,0,0,0,0,0,.01,0,0,0,0,0,0-.01.02-.02.05-.03.07-.01.03-.02.05-.04.08-.01.02-.02.05-.03.07,0,0,0,.01-.01.02,0,.02-.02.03-.03.05-.02.03-.03.06-.05.09,0,.02-.02.04-.03.06,0,0-.01.02-.02.03-.01.02-.02.05-.04.07-.01.03-.03.05-.04.08-.01.02-.02.04-.04.06-.01.02-.02.04-.04.06-.01.02-.03.05-.04.07,0,0,0,0,0,0-.01.02-.03.05-.04.07-.01.02-.03.04-.04.06-.04.05-.07.11-.11.16-.03.04-.06.09-.09.13,0,0,0,0,0,0-.02.02-.03.04-.05.07,0,.01-.02.02-.03.03-.02.02-.04.05-.06.07-.03.03-.05.06-.08.1-.07.08-.14.15-.21.23-.01.01-.02.02-.03.03-.02.02-.05.05-.07.07,0,0-.02.02-.03.03-.02.02-.05.04-.07.06-.02.02-.05.04-.07.06-.01,0-.02.02-.03.03-.02.02-.04.03-.06.05-.05.04-.09.07-.14.11,0,0-.02.01-.02.02-.02.02-.04.03-.06.05-.01,0-.02.02-.04.02-.01,0-.02.02-.04.02-.01,0-.02.02-.04.02-.05.03-.1.06-.15.09-.01,0-.02.01-.03.02-.01,0-.02.01-.03.02-.02.01-.05.03-.07.04h-.03s-.07.05-.1.06c0,0,0,0,0,0-.01,0-.03.01-.04.02-.01,0-.03.01-.04.02,0,0,0,0-.01,0-.01,0-.02,0-.03.01-.02,0-.04.02-.06.02-.08.03-.16.06-.24.08.15-.07.29-.16.43-.25.16-.11.32-.24.48-.38.31-.29.6-.63.85-1.03.05-.08.1-.16.15-.25.05-.09.11-.19.15-.29.05-.09.09-.19.14-.29.16-.37.29-.75.38-1.14.04-.18.07-.37.1-.55.03-.22.04-.43.04-.65,0-.08,0-.15,0-.23,0-.11-.01-.22-.02-.33-.02-.17-.04-.33-.08-.49,0-.04-.02-.07-.03-.11-.01-.05-.03-.1-.04-.15-.03-.1-.07-.2-.1-.3,0-.02-.01-.04-.02-.05,0-.02-.02-.04-.02-.05,0,0,0,0,0,0-.04-.08-.08-.16-.12-.24-.02-.03-.04-.07-.06-.1-.04-.06-.08-.12-.12-.18-.02-.03-.04-.05-.06-.08-.1-.12-.2-.23-.32-.33-.05-.04-.1-.08-.16-.12-.12-.08-.25-.15-.38-.21-.12-.05-.23-.08-.36-.11-.05,0-.1-.02-.14-.02-.1-.01-.21-.02-.31-.02-.06,0-.12,0-.17.01-.15.02-.31.05-.46.09.08-.04.16-.07.24-.1.02,0,.04-.01.06-.02,0,0,0,0,0,0,.02,0,.03-.01.05-.02.01,0,.03-.01.04-.02,0,0,.01,0,.02,0,0,0,0,0,0,0,.02,0,.03,0,.05-.01.01,0,.03,0,.04-.01,0,0,0,0,0,0,.01,0,.03,0,.04-.01.01,0,.03,0,.04-.01,0,0,0,0,0,0,.01,0,.02,0,.04,0,0,0,0,0,0,0,0,0,0,0,.01,0,.01,0,.02,0,.03,0,.01,0,.03,0,.04,0,.01,0,.03,0,.04,0,.02,0,.03,0,.05,0,.01,0,.03,0,.04,0,.01,0,.02,0,.04,0,0,0,.01,0,.02,0,0,0,.02,0,.03,0,0,0,0,0,.01,0,0,0,.02,0,.02,0,0,0,0,0,0,0,0,0,0,0,.01,0,0,0,.02,0,.03,0,.02,0,.05,0,.07,0,0,0,.01,0,.02,0,0,0,.02,0,.03,0,.03,0,.06,0,.09,0,.01,0,.02,0,.03,0,.02,0,.03,0,.05,0,.03,0,.06,0,.08,0,.02,0,.05,0,.07,0,0,0,.01,0,.02,0,.01,0,.03,0,.04,0h0s.02,0,.03,0c0,0,0,0,.01,0,.01,0,.02,0,.03,0,.01,0,.02,0,.03,0,.02,0,.03,0,.05.01.01,0,.02,0,.04,0,.01,0,.03,0,.04.01,0,0,.02,0,.03,0,0,0,.02,0,.03,0,0,0,0,0,0,0,.01,0,.02,0,.03.01,0,0,.02,0,.03.01,0,0,.02,0,.02,0,0,0,.02,0,.03.01,0,0,.01,0,.02,0,0,0,0,0,.01,0,0,0,.02,0,.02.01.03.01.06.03.09.05.01,0,.02.01.03.02.02.01.04.02.06.03.02.01.04.03.07.04,0,0,.01,0,.02.01.04.02.07.05.1.07.01,0,.02.02.03.02,0,0,0,0,0,0,0,0,.02.01.02.02,0,0,.01,0,.02.01,0,0,.02.02.03.02.01,0,.02.02.03.03,0,0,.01.01.02.02.03.02.05.05.08.07.01.01.02.02.03.03.01.01.02.02.03.03,0,0,.01.01.02.02.02.03.05.05.07.08,0,0,.02.02.03.03,0,0,0,0,0,0,0,0,0,.01.01.02,0,0,.01.02.02.03,0,0,.01.02.02.03.01.01.02.03.03.05,0,.01.02.03.03.04,0,0,0,0,.01.01,0,.01.02.03.03.04,0,0,0,0,0,0,0,.01.02.02.02.04.01.02.03.04.04.06.02.03.04.06.05.09,0,0,0,0,0,0,0,.02.02.03.02.05,0,.01.01.02.02.04,0,0,0,.02.01.03,0,0,0,.01,0,.02,0,.01.01.02.02.04,0,.01,0,.02.01.03,0,.02.01.03.02.05,0,.01,0,.02.01.03,0,0,0,.02.01.03,0,.01,0,.02.01.03,0,.01.01.03.02.04.02.07.05.13.07.2,0,.01,0,.03.01.04,0,.02,0,.03.01.05,0,.02,0,.03.01.05,0,.01,0,.03.01.04,0,.01,0,.03.01.04,0,.01,0,.03,0,.04,0,.01,0,.03,0,.04,0,.02,0,.03,0,.05,0,.01,0,.03,0,.04,0,0,0,.02,0,.03,0,.01,0,.02,0,.03,0,.01,0,.02,0,.03,0,0,0,0,0,.01,0,.02,0,.03,0,.05,0,.01,0,.03,0,.04,0,.01,0,.03,0,.04,0,.04,0,.07.01.11,0,0,0,0,0,0,0,.01,0,.03,0,.04,0,.02,0,.04,0,.05,0,.01,0,.02,0,.03,0,.01,0,.03,0,.04,0,.02,0,.03,0,.05,0,.01,0,.02,0,.03,0,0,0,.01,0,.02,0,.03,0,.06,0,.09,0,.08,0,.17,0,.25Z"/>
            </g>
            <path d="m10.92,14.34s-.03-.01-.04-.03l-.2-3.94s.01-.04.03-.04c.02,0,.04.01.04.03l.2,3.94s-.01.04-.03.04c0,0,0,0,0,0Z"/>
            <path d="m11.45,14.04s-.03-.01-.03-.03l-.9-3.54s0-.04.03-.04c.02,0,.04,0,.04.03l.9,3.54s0,.04-.03.04c0,0,0,0,0,0Z"/>
            <path d="m12.44,13.12s-.02,0-.03-.02l-1.68-2.81s0-.04.01-.05c.02-.01.04,0,.05.01l1.68,2.81s0,.04-.01.05c0,0-.01,0-.02,0Z"/>
            <path d="m12.85,12.55s-.02,0-.02,0l-2.23-2.06s-.02-.04,0-.05c.01-.01.04-.02.05,0l2.23,2.06s.02.04,0,.05c0,0-.02.01-.03.01Z"/>
            <path d="m13.54,10.95s0,0,0,0l-2.87-.6s-.03-.02-.03-.04c0-.02.02-.03.04-.03l2.87.6s.03.02.03.04c0,.02-.02.03-.04.03Z"/>
            <path d="m10.66,10.53s-.03,0-.03-.02c0-.02,0-.04.02-.05l3.12-1.07s.04,0,.05.02c0,.02,0,.04-.02.05l-3.12,1.07s0,0-.01,0Z"/>
            <path d="m10.63,10.58s-.03-.01-.04-.03c0-.02.01-.04.03-.04l3.07-.34s.04.01.04.03-.01.04-.03.04l-3.07.34s0,0,0,0Z"/>
            <path d="m10.63,10.29s-.03,0-.03-.02c0-.02,0-.04.02-.05l3.1-1.46s.04,0,.05.02,0,.04-.02.05l-3.1,1.46s-.01,0-.02,0Z"/>
            <path d="m10.67,10.49s-.02,0-.03-.01c-.01-.02,0-.04,0-.05l2.94-2.3s.04,0,.05,0c.01.02,0,.04,0,.05l-2.94,2.3s-.01,0-.02,0Z"/>
            <path d="m10.64,10.34s-.02,0-.02,0c-.01-.01-.01-.04,0-.05l2.73-2.85s.04-.01.05,0c.01.01.01.04,0,.05l-2.73,2.85s-.02.01-.03.01Z"/>
            <path d="m10.74,10.49s-.01,0-.02,0c-.02-.01-.02-.03,0-.05l2.32-3.46s.03-.02.05,0c.02.01.02.03,0,.05l-2.32,3.46s-.02.02-.03.02Z"/>
            <path d="m10.57,10.37s0,0-.01,0c-.02,0-.03-.03-.02-.05l1.66-3.95s.03-.03.05-.02c.02,0,.03.03.02.05l-1.66,3.95s-.02.02-.03.02Z"/>
            <path d="m10.73,10.41s0,0,0,0c-.02,0-.03-.02-.03-.04l1.02-4.13s.02-.03.04-.03c.02,0,.03.02.03.04l-1.02,4.13s-.02.03-.03.03Z"/>
            <path d="m10.52,10.41s0,0,0,0c-.02,0-.03-.02-.03-.04l.68-4.14s.02-.03.04-.03c.02,0,.03.02.03.04l-.68,4.14s-.02.03-.04.03Z"/>
            <path d="m10.69,10.38s-.04-.02-.04-.04l-.03-4s.02-.04.04-.04c.02,0,.04.02.04.04l.03,4s-.02.04-.04.04h0Z"/>
            <path d="m10.47,10.5s-.03-.01-.03-.03l-.88-3.55s0-.04.03-.04c.02,0,.04,0,.04.03l.88,3.55s0,.04-.03.04c0,0,0,0,0,0Z"/>
            <path d="m10.63,10.35s-.03,0-.03-.02l-1.53-2.98s0-.04.02-.05c.02,0,.04,0,.05.02l1.53,2.98s0,.04-.02.05c0,0-.01,0-.02,0Z"/>
            <path d="m10.46,10.59s-.02,0-.03-.01l-1.95-2.49s0-.04,0-.05c.02-.01.04,0,.05,0l1.95,2.49s0,.04,0,.05c0,0-.01,0-.02,0Z"/>
            <path d="m10.58,10.39s-.01,0-.02,0l-2.44-1.67s-.02-.03,0-.05c.01-.02.03-.02.05,0l2.44,1.67s.02.03,0,.05c0,.01-.02.02-.03.02Z"/>
            <path d="m10.47,10.68s0,0,0,0l-2.88-.57s-.03-.02-.03-.04c0-.02.02-.03.04-.03l2.88.57s.03.02.03.04c0,.02-.02.03-.04.03Z"/>
            <path d="m7.44,10.82s-.03-.01-.04-.03c0-.02.01-.04.03-.04l3.07-.37s.04.01.04.03c0,.02-.01.04-.03.04l-3.07.37s0,0,0,0Z"/>
            <path d="m7.41,11.63s-.03-.01-.03-.03c0-.02,0-.04.03-.04l3.11-.86s.04,0,.04.03c0,.02,0,.04-.03.04l-3.11.86s0,0,0,0Z"/>
            <path d="m7.45,12.3s-.02,0-.03-.02c0-.02,0-.04.01-.05l3.07-1.75s.04,0,.05.01c0,.02,0,.04-.01.05l-3.07,1.75s-.01,0-.02,0Z"/>
            <path d="m7.79,13.36s-.02,0-.03-.01c-.01-.01-.01-.04,0-.05l2.79-2.72s.04-.01.05,0c.01.01.01.04,0,.05l-2.79,2.72s-.02.01-.03.01Z"/>
            <path d="m8.08,14s-.01,0-.02,0c-.02-.01-.02-.03,0-.05l2.41-3.35s.03-.02.05,0c.02.01.02.03,0,.05l-2.41,3.35s-.02.01-.03.01Z"/>
            <path d="m8.23,13.89s-.02,0-.02,0c-.02-.01-.02-.04,0-.05l2.54-3.17s.04-.02.05,0c.02.01.02.04,0,.05l-2.54,3.17s-.02.01-.03.01Z"/>
            <path d="m8.59,14.28s-.01,0-.02,0c-.02,0-.02-.03-.01-.05l2.07-3.69s.03-.02.05-.01c.02,0,.02.03.01.05l-2.07,3.69s-.02.02-.03.02Z"/>
            <path d="m9.49,14.75s0,0-.01,0c-.02,0-.03-.03-.02-.05l1.35-4.07s.03-.03.05-.02c.02,0,.03.03.02.05l-1.35,4.07s-.02.02-.03.02Z"/>
            <path d="m10,14.81s0,0,0,0c-.02,0-.03-.02-.03-.04l.69-4.14s.02-.03.04-.03c.02,0,.03.02.03.04l-.69,4.14s-.02.03-.04.03Z"/>
            <ellipse class="cls-19" cx="10.61" cy="10.45" rx=".46" ry=".31" transform="translate(-2.89 16.73) rotate(-69.5)"/>
          </g>
          <path class="cls-3" d="m5.28,10.56v.59c0,.11.07.21.19.24l5.76,1.42s.66.13.97.02c.33-.11,2.73-1.4,2.73-1.4l2.68-1.41s.01,0,.02,0c.04-.02.21-.22.19-.32v-.2s-5.76,2.46-5.76,2.46l-6.78-1.39"/>
          <g>
            <path class="cls-7" d="m17.82,9.49l-.15-.03-3.39-.74-.68-.15-.41-.09-.13-.03-.54-.12-.15-.03h0l-.17-.04-.53-.12h0l-.18-.04-.21-.04h0V2.6c0-.24.21-.43.45-.4l5.5.63c.25.03.44.24.45.49l.04,1.84.09,4.33Z"/>
            <path class="cls-7" d="m11.18,12.16l-5.76-1.37c-.17-.04-.19-.28-.03-.34l5.9-2.38,6.53,1.42-5.28,2.53c-.42.2-.9.25-1.36.15Z"/>
          </g>
          <path class="cls-13" d="m17.09,9.06s-.01,0-.02,0l-5.57-.86c-.07,0-.11-.07-.1-.14,0-.07.07-.13.14-.1l5.57.86c.07,0,.11.07.1.14,0,.06-.06.11-.12.11Z"/>
          <path class="cls-16" d="m12.92,1.08c0,.07-.03.15-.09.19-.07.03-.15.05-.22.07-.2.07-.4.15-.59.24-.19.08-.39.16-.53.31-.07.07-.13.16-.16.25-.04.12-.03.25-.03.38v3.79s-.05,0-.07,0c0,0-.02,0-.03,0,0,0,0,0-.01,0,0,0,0,0,0,0,0,0-.02,0-.02,0,0,0,0,0-.01,0,0,0-.02,0-.03,0,0,0-.01,0-.02,0-.01,0-.02,0-.04,0-.01,0-.03,0-.04,0-.02,0-.03,0-.05,0-.01,0-.03,0-.04,0-.01,0-.03,0-.04,0-.01,0-.02,0-.03,0,0,0,0,0-.01,0,0-.22,0-.45,0-.67h0s0-.03,0-.04c0-.03,0-.07,0-.1,0-.2,0-.4,0-.59,0-.16,0-.31,0-.47,0-.36,0-.71,0-1.07,0-.37,0-.75,0-1.12,0-.16-.02-.3.06-.45.05-.1.12-.19.2-.27.21-.22.45-.36.72-.49.19-.09.38-.18.58-.25.06-.02.13-.05.2-.07.02,0,.04,0,.06,0,.17.01.3.16.29.32Z"/>
          <path class="cls-25" d="m11.3,8.05s0,.01,0,.02c0,0,0,0,0,0l-.43.17h-.02c0-.16,0-.32,0-.49,0-.41,0-.82,0-1.22,0-.01,0-.03,0-.04,0-.04,0-.08,0-.13,0,0,0,0,.01,0,.01,0,.02,0,.03,0,.01,0,.03,0,.04,0,.01,0,.03,0,.04,0,.02,0,.03,0,.05,0,.01,0,.03,0,.04,0,.01,0,.02,0,.04,0,0,0,.01,0,.02,0,0,0,.02,0,.03,0,0,0,0,0,.01,0,0,0,.02,0,.02,0,0,0,0,0,0,0,0,0,0,0,.01,0,0,0,.02,0,.03,0,.02,0,.05,0,.07,0v1.36s.02.31,0,.38Z"/>
          <path class="cls-27" d="m12.99,1.14c-.04.06-.1.1-.17.13.06-.04.09-.11.09-.19.01-.17-.12-.31-.29-.32-.02,0-.04,0-.06,0,.04-.01.07-.02.11-.04.08-.02.17-.04.24.02.05.04.08.09.1.15.03.08.02.17-.02.25Z"/>
          <path class="cls-9" d="m14.15.51c0,.11-.07.21-.17.26l-1.02.5s-.1.01-.13,0c0,0,0,0,0,0,.06-.04.09-.11.09-.19.01-.17-.12-.31-.29-.32-.02,0-.04,0-.06,0-.02,0-.04,0-.05.02,0-.05.04-.11.09-.13l1.12-.45c.15-.06.33,0,.4.16.02.05.03.1.03.15Z"/>
          <path class="cls-9" d="m20.72,1.98c0,.11-.07.21-.17.26l-1.02.5s-.11,0-.15,0c.05-.05.1-.11.11-.18.01-.17-.12-.31-.29-.32-.04,0-.08,0-.12.02,0-.05.04-.11.09-.13l1.12-.44c.15-.06.33,0,.4.16.02.05.03.1.03.15Z"/>
          <path class="cls-26" d="m19.53,2.36c-.02-.06-.05-.11-.1-.15-.07-.06-.18-.04-.26,0-.09.04-.19.07-.28.1-.2.07-.39.15-.58.25-.27.13-.51.28-.72.49-.08.08-.15.17-.2.27-.07.15-.06.29-.06.45,0,.37,0,.75,0,1.12,0,.51,0,1.03,0,1.54,0,.52,0,1.05,0,1.57,0,.41,0,.82,0,1.22,0,.15,0,.3,0,.45,0,0,0,.02,0,.03,0,.15.14.27.32.27.11,0,.23-.05.28-.15.02-.04.03-.08.03-.12,0-.01,0-.03,0-.05-.02-.08-.04-.16-.06-.24-.04-.16-.08-.31-.11-.47V3.99c0-.13-.01-.25.03-.38.03-.1.09-.18.16-.25.15-.14.35-.23.53-.31.2-.08.39-.16.59-.24.13-.05.31-.07.39-.2.04-.07.04-.17.02-.25Z"/>
          <path class="cls-4" d="m18.12,12.7c-.06.08-.17.12-.28.12-.17,0-.32-.1-.32-.22,0,0,0-.01,0-.02,0-.12,0-.24,0-.36,0-.33,0-.66,0-1,0-.43,0-.85,0-1.28,0-.42,0-.83,0-1.25,0-.21,0-.42,0-.63h.47v3.92c.04.13.08.26.11.38.02.07.04.13.06.2,0,.01,0,.02,0,.04,0,.03,0,.06-.03.1Z"/>
          <path class="cls-23" d="m11.49,12.82s.24.32.59.05l-.05-2.68s-.12-1.86.77-2.25c.95-.42,4.69-1.76,4.84-1.84.14-.07.12.95.12,1.04l-.08,2.63s.09.55.39.02l.09-4.06s-.13-.84-.84-.51-5.06,2.29-5.06,2.29c0,0-.84.39-.82,1.89.02,1.46.06,3.41.06,3.41Z"/>
          <path class="cls-22" d="m10.83,5.65s0-.07-.01-.1c-.02-.09-.06-.17-.12-.24,0,0,0,0,0,0-.02-.03-.05-.06-.07-.09-.06-.08-.11-.15-.16-.23-.08-.12-.16-.24-.2-.38h0c.18-.04.37-.08.55-.11,0,.16,0,.31,0,.47,0,.2,0,.4,0,.59,0,.03,0,.07,0,.1Z"/>
          <path class="cls-5" d="m10.83,5.68h0s0,.01,0,.01c0,0,0,0,0-.01Z"/>
          <path class="cls-6" d="m12.18,7.56s.27-.15.44-.03.3.34.23.37-.12.05-.12.05c0,0,.08.05.23.04s4.69-1.91,4.69-1.91c0,0,.08-.28-.09-.54s-.39-.27-.39-.27c0,0-2.51,1.01-2.97,1.25s-1.69.73-1.8.81c-.2.15-.23.21-.23.21Z"/>
          <path class="cls-24" d="m10.71,5.18s0,0,0,0c-.12.07-3.34,1.34-4.27,1.74h0s0,0-.01,0c-.02,0-.03.01-.05.02-.01,0-.03.01-.04.02,0,0,0,0,0,0,0,0,0,0,0,0,0,0,0,0,0,0-.74.39-.63,1.98-.63,1.98l.05,2.38c-.31.25-.52-.04-.52-.04,0,0-.04-1.73-.05-3.02-.01-1.1.49-1.53.66-1.64h0s.06-.04.06-.04c0,0,3.47-1.57,4.37-1.98,0,0,0,0,0,0,0,0,.19.01.34.24.08.12.1.24.1.34Z"/>
          <path class="cls-6" d="m10.71,5.18c0,.08-.02.14-.02.14,0,0-4.02,1.68-4.16,1.69-.13,0-.2-.04-.2-.04h0s0,0,0,0c0,0,0,0,0,0,0,0,0,0,0,0,.01,0,.05-.02.09-.04,0,0,0,0,.01,0h0c.06-.03-.05-.22-.21-.33-.15-.11-.38.02-.39.02,0,0,0,0,0,0h0s.04-.07.2-.18c.1-.08,1.2-.51,1.6-.72.4-.21,2.56-1.08,2.63-1.11,0,0,0,0,0,0,0,0,.19.01.34.24.08.12.1.24.1.34Z"/>
          <path class="cls-20" d="m11.5,12.81s.21.34.57.06c.06.04-.52.47-.65.6-.12.12-.24.27-.39.55-.12.23-1.34,3.3-1.34,3.3l-.63,1.52h-.32s1.75-5.08,2.14-5.44.61-.6.61-.6Z"/>
          <path class="cls-17" d="m5.23,11.28s.2.28.52.04c.05.03-.45.41-.56.52-.11.11-.21.23-.34.48-.11.2-1.17,2.88-1.17,2.88l-.88,2.01h-.28s1.85-5.1,2.2-5.42.51-.51.51-.51Z"/>
          <polygon class="cls-10" points=".28 18 .18 16.67 2.73 17.08 5.24 17.76 5.24 18.3 5.96 17.93 9.17 18.7 7.37 18.7 7.21 19.03 1.85 17.55 .28 18"/>
          <path class="cls-1" d="m7.37,18.7h1.79s.05.19-.05.28-2.27.96-2.3.96.56-1.24.56-1.24Z"/>
          <polygon class="cls-12" points="6.81 19.93 .28 18 1.85 17.55 7.21 19.04 6.81 19.93"/>
          <g>
            <g>
              <path class="cls-18" d="m20.31,8.03c-.74-.62-1.69-.74-2.68-.35-.08.03-.16.07-.24.1-.08.02-.16.05-.24.08-.99.39-1.91,1.25-2.58,2.42-.67,1.17-1.01,2.51-.97,3.77s.48,2.3,1.21,2.91c.74.62,1.69.74,2.68.35.08-.03.16-.07.24-.1.08-.02.16-.05.24-.08.99-.39,1.91-1.25,2.58-2.42.67-1.17,1.01-2.51.97-3.77s-.48-2.3-1.21-2.91Zm-.22,6.3c-.56.97-1.32,1.69-2.14,2.01-.08.03-.16.06-.24.08-.74.22-1.44.09-1.99-.37-.61-.51-.97-1.37-1.01-2.42s.25-2.16.8-3.13c.5-.88,1.17-1.55,1.9-1.91.08-.04.16-.07.24-.1.82-.33,1.62-.22,2.23.29.61.51.97,1.37,1.01,2.42s-.25,2.16-.8,3.13Z"/>
              <path class="cls-8" d="m20.89,11.19c.04,1.05-.25,2.16-.8,3.13-.56.97-1.32,1.69-2.14,2.01-.08.03-.16.06-.24.08.73-.36,1.4-1.03,1.9-1.91.56-.97.84-2.08.8-3.13s-.4-1.91-1.01-2.42c-.55-.46-1.25-.59-1.99-.37.08-.04.16-.07.24-.1.82-.33,1.62-.22,2.23.29.61.51.97,1.37,1.01,2.42Z"/>
            </g>
            <path d="m18.15,16.33s-.03-.01-.04-.03l-.2-3.94s.01-.04.03-.04c.02,0,.04.01.04.03l.2,3.94s-.01.04-.03.04c0,0,0,0,0,0Z"/>
            <path d="m18.68,16.03s-.03-.01-.03-.03l-.9-3.54s0-.04.03-.04c.02,0,.04,0,.04.03l.9,3.54s0,.04-.03.04c0,0,0,0,0,0Z"/>
            <path d="m19.66,15.11s-.02,0-.03-.02l-1.68-2.81s0-.04.01-.05c.02-.01.04,0,.05.01l1.68,2.81s0,.04-.01.05c0,0-.01,0-.02,0Z"/>
            <path d="m20.08,14.54s-.02,0-.02,0l-2.23-2.06s-.02-.04,0-.05c.01-.01.04-.02.05,0l2.23,2.06s.02.04,0,.05c0,0-.02.01-.03.01Z"/>
            <path d="m20.77,12.94s0,0,0,0l-2.87-.6s-.03-.02-.03-.04c0-.02.02-.03.04-.03l2.87.6s.03.02.03.04c0,.02-.02.03-.04.03Z"/>
            <path d="m17.88,12.52s-.03,0-.03-.02c0-.02,0-.04.02-.05l3.12-1.07s.04,0,.05.02c0,.02,0,.04-.02.05l-3.12,1.07s0,0-.01,0Z"/>
            <path d="m17.85,12.57s-.03-.01-.04-.03c0-.02.01-.04.03-.04l3.07-.34s.04.01.04.03c0,.02-.01.04-.03.04l-3.07.34s0,0,0,0Z"/>
            <path d="m17.85,12.28s-.03,0-.03-.02c0-.02,0-.04.02-.05l3.1-1.46s.04,0,.05.02c0,.02,0,.04-.02.05l-3.1,1.46s-.01,0-.02,0Z"/>
            <path d="m17.89,12.48s-.02,0-.03-.01c-.01-.02,0-.04,0-.05l2.94-2.3s.04,0,.05,0,0,.04,0,.05l-2.94,2.3s-.01,0-.02,0Z"/>
            <path d="m17.87,12.33s-.02,0-.02,0c-.01-.01-.01-.04,0-.05l2.73-2.85s.04-.01.05,0c.01.01.01.04,0,.05l-2.73,2.85s-.02.01-.03.01Z"/>
            <path d="m17.97,12.48s-.01,0-.02,0c-.02-.01-.02-.03,0-.05l2.32-3.46s.03-.02.05,0,.02.03,0,.05l-2.32,3.46s-.02.02-.03.02Z"/>
            <path d="m17.8,12.36s0,0-.01,0c-.02,0-.03-.03-.02-.05l1.66-3.95s.03-.03.05-.02c.02,0,.03.03.02.05l-1.66,3.95s-.02.02-.03.02Z"/>
            <path d="m17.95,12.4s0,0,0,0c-.02,0-.03-.02-.03-.04l1.02-4.13s.02-.03.04-.03c.02,0,.03.02.03.04l-1.02,4.13s-.02.03-.03.03Z"/>
            <path d="m17.74,12.4s0,0,0,0c-.02,0-.03-.02-.03-.04l.68-4.14s.02-.03.04-.03c.02,0,.03.02.03.04l-.68,4.14s-.02.03-.04.03Z"/>
            <path d="m17.91,12.37s-.04-.02-.04-.04l-.03-4s.02-.04.04-.04h0s.04.02.04.04l.03,4s-.02.04-.04.04h0Z"/>
            <path d="m17.7,12.49s-.03-.01-.03-.03l-.88-3.55s0-.04.03-.04c.02,0,.04,0,.04.03l.88,3.55s0,.04-.03.04c0,0,0,0,0,0Z"/>
            <path d="m17.85,12.35s-.03,0-.03-.02l-1.53-2.98s0-.04.02-.05c.02,0,.04,0,.05.02l1.53,2.98s0,.04-.02.05c0,0-.01,0-.02,0Z"/>
            <path d="m17.68,12.58s-.02,0-.03-.01l-1.95-2.49s0-.04,0-.05c.02-.01.04,0,.05,0l1.95,2.49s0,.04,0,.05c0,0-.01,0-.02,0Z"/>
            <path d="m17.8,12.38s-.01,0-.02,0l-2.44-1.67s-.02-.03,0-.05c.01-.02.03-.02.05,0l2.44,1.67s.02.03,0,.05c0,.01-.02.02-.03.02Z"/>
            <path d="m17.7,12.67s0,0,0,0l-2.88-.57s-.03-.02-.03-.04c0-.02.02-.03.04-.03l2.88.57s.03.02.03.04c0,.02-.02.03-.04.03Z"/>
            <path d="m14.67,12.81s-.03-.01-.04-.03c0-.02.01-.04.03-.04l3.07-.37s.04.01.04.03c0,.02-.01.04-.03.04l-3.07.37s0,0,0,0Z"/>
            <path d="m14.64,13.62s-.03-.01-.03-.03c0-.02,0-.04.03-.04l3.11-.86s.04,0,.04.03c0,.02,0,.04-.03.04l-3.11.86s0,0,0,0Z"/>
            <path d="m14.67,14.29s-.02,0-.03-.02c0-.02,0-.04.01-.05l3.07-1.75s.04,0,.05.01c0,.02,0,.04-.01.05l-3.07,1.75s-.01,0-.02,0Z"/>
            <path d="m15.01,15.35s-.02,0-.03-.01c-.01-.01-.01-.04,0-.05l2.79-2.72s.04-.01.05,0c.01.01.01.04,0,.05l-2.79,2.72s-.02.01-.03.01Z"/>
            <path d="m15.31,15.99s-.01,0-.02,0c-.02-.01-.02-.03,0-.05l2.41-3.35s.03-.02.05,0c.02.01.02.03,0,.05l-2.41,3.35s-.02.01-.03.01Z"/>
            <path d="m15.46,15.88s-.02,0-.02,0c-.02-.01-.02-.04,0-.05l2.54-3.17s.04-.02.05,0c.02.01.02.04,0,.05l-2.54,3.17s-.02.01-.03.01Z"/>
            <path d="m15.81,16.28s-.01,0-.02,0c-.02,0-.02-.03-.01-.05l2.07-3.69s.03-.02.05-.01.02.03.01.05l-2.07,3.69s-.02.02-.03.02Z"/>
            <path d="m16.72,16.74s0,0-.01,0c-.02,0-.03-.03-.02-.05l1.35-4.07s.03-.03.05-.02c.02,0,.03.03.02.05l-1.35,4.07s-.02.02-.03.02Z"/>
            <path d="m17.22,16.8s0,0,0,0c-.02,0-.03-.02-.03-.04l.69-4.14s.02-.03.04-.03c.02,0,.03.02.03.04l-.69,4.14s-.02.03-.04.03Z"/>
            <ellipse class="cls-21" cx="17.83" cy="12.44" rx=".46" ry=".31" transform="translate(-.06 24.79) rotate(-69.5)"/>
          </g>
        </g>
      </g>
    </g>
  </g>
</svg>