<?xml version="1.0" encoding="utf-8"?>
<!-- Generator: Adobe Illustrator 27.9.0, SVG Export Plug-In . SVG Version: 6.00 Build 0)  -->
<svg version="1.1" id="Complications" xmlns="http://www.w3.org/2000/svg" xmlns:xlink="http://www.w3.org/1999/xlink" x="0px"
	 y="0px" viewBox="0 0 32 32" style="enable-background:new 0 0 32 32;" xml:space="preserve">
<style type="text/css">
	.st0{fill:#FFFFFF;stroke:#FFFFFF;stroke-width:0.5;stroke-miterlimit:10;}
	.st1{fill:#FFFFFF;}
	.st2{fill:#D99998;}
	.st3{fill:#CA8D8D;}
	.st4{fill:#B37C7C;}
</style>
<path class="st0" d="M10.2,3.3c-3.5,0-7.1,8.3-7.5,9.2c-0.1,0.2-2.4,5.9-2,10.2c0.4,3.9,1.2,5.6,1.5,5.9c0.1,0.3,0.6,1.1,2.1,1.1
	c0.3,0,0.6,0,0.8-0.1c0.8-0.2,1.4-0.5,2.5-1c0.3,0.1,0.6,0.1,1,0.1c1.5,0,3.5-0.5,4.5-1.1l0,0l0,0c1-0.8,1.2-4,1.2-5
	c1.2-2.7,1.1-6.6-0.5-11.7c0-0.7,0-5-1.8-6.8C11.5,3.6,10.9,3.3,10.2,3.3L10.2,3.3L10.2,3.3z"/>
<path class="st0" d="M21.6,3.8c-0.7,0-1.3,0.3-1.8,0.8c-1.7,1.8-1.8,6.1-1.8,6.8c-1.6,5.1-1.7,9-0.5,11.7c0,1,0.2,4.2,1.2,5l0,0l0,0
	c1,0.6,3.1,1.1,4.5,1.1c0.4,0,0.7,0,1-0.1c1,0.6,1.7,0.9,2.5,1c0.3,0.1,0.6,0.1,0.9,0.1c1.5,0,1.9-0.9,2.1-1.1
	c0.2-0.3,1.1-1.9,1.5-5.9c0.4-4.4-1.9-10-2-10.2C28.7,12.1,25.1,3.9,21.6,3.8L21.6,3.8L21.6,3.8z"/>
<path class="st1" d="M15.2,2.5c0,0-0.3,1.7-0.3,3.5c-0.1,1.4,0.1,2.9,0.2,3.6c0.2,1.5,0.1,1.7-0.4,2.1c0,0,0.5,1.1,0.4,1.5
	c0,0,0.4-0.3,0.5-0.4s0.3-0.4,0.8-0.1L17,13c0,0,0-0.5,0.3-1.4c0,0-1.1-0.4-1-3.7c0.1-2.5,0.1-4.4,0-5.2c0,0-0.3,0.1-0.6,0
	S15.2,2.5,15.2,2.5z"/>
<g>
	<path class="st2" d="M4.2,29.4c-1.5,0-1.8-1-1.9-1l0,0c0,0-1-1.5-1.4-5.8s1.9-9.9,2-10.1c0.2-0.4,3.9-9.1,7.2-9.1
		c0.6,0,1.2,0.2,1.7,0.7c1.8,1.8,1.7,6.5,1.7,6.7c1.6,5,1.7,8.9,0.5,11.6c0,0.7-0.1,4.1-1.1,4.9c-0.9,0.5-2.8,1.1-4.4,1.1
		c-0.4,0-0.7,0-1-0.1c-1.1,0.6-1.7,0.9-2.5,1.1C4.7,29.4,4.4,29.4,4.2,29.4L4.2,29.4z"/>
	<path class="st2" d="M27.6,29.9c-0.2,0-0.5,0-0.8-0.1c-0.7-0.2-1.4-0.5-2.5-1.1c-0.3,0.1-0.6,0.1-1,0.1c-1.6,0-3.5-0.5-4.4-1
		c-1-0.8-1.2-4.1-1.1-4.9c-1.2-2.7-1-6.6,0.5-11.7c0-0.1-0.1-4.8,1.7-6.6c0.5-0.5,1-0.7,1.7-0.7c3.4,0,7.1,8.7,7.2,9.1
		c0.1,0.2,2.4,5.8,2,10.1s-1.4,5.8-1.4,5.8l0,0C29.4,28.9,29.1,29.9,27.6,29.9L27.6,29.9z"/>
	<path class="st2" d="M4.2,29.4c-1.5,0-1.8-1-1.9-1l0,0c0,0-1-1.5-1.4-5.8s1.9-9.9,2-10.1c0.2-0.4,3.9-9.1,7.2-9.1
		c0.6,0,1.2,0.2,1.7,0.7c1.8,1.8,1.7,6.5,1.7,6.7c1.6,5,1.7,8.9,0.5,11.6c0,0.7-0.1,4.1-1.1,4.9c-0.9,0.5-2.8,1.1-4.4,1.1
		c-0.4,0-0.7,0-1-0.1c-1.1,0.6-1.7,0.9-2.5,1.1C4.7,29.4,4.4,29.4,4.2,29.4L4.2,29.4z"/>
	<path class="st1" d="M10.2,3.7c3.3,0,3.1,7.2,3.1,7.2c1.8,5.9,1.5,9.5,0.5,11.6c0.1,0.2-0.1,4-1,4.7c-0.9,0.5-2.8,1-4.3,1
		c-0.4,0-0.8,0-1.1-0.1c-1.1,0.6-1.8,0.9-2.5,1.1c-0.3,0-0.5,0.1-0.8,0.1c-1.4,0-1.6-0.9-1.6-0.9s-1-1.4-1.4-5.7s2-10,2-10
		S6.9,3.7,10.2,3.7 M10.2,3.2c-3.5,0-7.1,8.3-7.5,9.2c-0.1,0.2-2.4,5.9-2,10.2c0.4,3.9,1.2,5.6,1.5,5.9c0.1,0.3,0.6,1.1,2.1,1.1
		c0.3,0,0.6,0,0.8-0.1c0.8-0.2,1.4-0.5,2.5-1c0.3,0.1,0.6,0.1,1,0.1c1.5,0,3.5-0.5,4.5-1.1l0,0l0,0c1-0.8,1.2-4,1.2-5
		c1.2-2.7,1.1-6.6-0.5-11.7c0-0.7,0-5-1.8-6.8C11.5,3.5,10.8,3.2,10.2,3.2L10.2,3.2L10.2,3.2z"/>
</g>
<path class="st3" d="M13.3,10.9c0,0,0.1-1.9-0.4-3.9c-0.4-1.7-1.1-2.6-1.5-2.9c-0.9-0.6-0.6,1.5-0.6,1.5S11.1,9.1,13.3,10.9z"/>
<g>
	<path class="st2" d="M8.6,28.3c-0.5,0-0.8-0.1-0.9-0.1l-0.3-0.1L7.7,28c3.5-2,4.8-3.6,5.5-4.3c0.4-0.5,0.4-0.6,0.4-0.6l0.2-0.6
		l0.1,0.6c0.1,0.6-0.1,2.2-0.5,3.2c-0.3,1.1-0.5,1.1-2.3,1.6h-0.2C9.9,28.2,9.1,28.3,8.6,28.3L8.6,28.3z"/>
	<path class="st1" d="M13.7,23c0.1,0.6-0.1,2.1-0.5,3.2s-0.4,1-2.4,1.6c-1,0.3-1.8,0.4-2.3,0.4s-0.8-0.1-0.8-0.1
		c3.3-1.9,4.7-3.4,5.5-4.3C13.7,23.3,13.7,23,13.7,23 M13.8,21.6L13.5,23c0,0-0.1,0.2-0.4,0.6c-0.6,0.7-2,2.3-5.4,4.3l-0.6,0.3
		l0.6,0.1c0,0,0.3,0.1,0.9,0.1c0.5,0,1.3-0.1,2.4-0.4l0.2-0.1c1.8-0.5,2-0.6,2.4-1.7c0.3-1.1,0.6-2.6,0.5-3.3L13.8,21.6L13.8,21.6z"
		/>
</g>
<g>
	<g>
		<path class="st2" d="M27.6,29.9c-0.2,0-0.5,0-0.8-0.1c-0.7-0.2-1.4-0.5-2.5-1.1c-0.3,0.1-0.6,0.1-1,0.1c-1.6,0-3.5-0.5-4.4-1
			c-1-0.8-1.2-4.1-1.1-4.9c-1.2-2.7-1-6.6,0.5-11.7c0-0.1-0.1-4.8,1.7-6.6c0.5-0.5,1-0.7,1.7-0.7c3.4,0,7.1,8.7,7.2,9.1
			c0.1,0.2,2.4,5.8,2,10.1s-1.4,5.8-1.4,5.8l0,0C29.4,28.9,29.1,29.9,27.6,29.9L27.6,29.9z"/>
		<path class="st1" d="M21.6,4.2c3.3,0,7,8.9,7,8.9s2.4,5.7,2,10s-1.4,5.7-1.4,5.7s-0.2,0.9-1.6,0.9c-0.2,0-0.5,0-0.8-0.1
			c-0.7-0.2-1.4-0.5-2.5-1.1c-0.3,0.1-0.7,0.1-1.1,0.1c-1.5,0-3.4-0.5-4.3-1c-0.9-0.7-1.1-4.4-1-4.7c-1-2.1-1.3-5.6,0.5-11.6
			C18.5,11.4,18.4,4.2,21.6,4.2 M21.6,3.7c-0.7,0-1.3,0.3-1.8,0.8C18,6.3,18,10.6,18,11.3c-1.6,5.1-1.7,9-0.5,11.7
			c0,1,0.2,4.2,1.2,5l0,0l0,0c1,0.6,3.1,1.1,4.5,1.1c0.4,0,0.7,0,1-0.1c1,0.6,1.7,0.9,2.5,1c0.3,0.1,0.6,0.1,0.9,0.1
			c1.5,0,1.9-0.9,2.1-1.1c0.2-0.3,1.1-1.9,1.5-5.9c0.4-4.4-1.9-10-2-10.2C28.7,12,25.1,3.7,21.6,3.7L21.6,3.7L21.6,3.7z"/>
	</g>
	<g>
		<path class="st2" d="M23.7,28.9c-0.5,0-1.6-0.1-2.9-0.4l-0.2-0.1c-1.8-0.5-1.9-0.5-2.3-1.6c-0.3-1-0.8-3.1-0.7-3.8
			c0,0,0-0.1,0.1-0.1l0,0c0,0,0.1,0,0.1,0.1c0,0,0.4,0.7,0.8,1.2c0.8,0.9,2.2,2.6,5.5,4.5l0.1,0.1c0,0,0,0.1-0.1,0.1
			C24.2,28.9,24.1,28.9,23.7,28.9L23.7,28.9z"/>
		<path class="st1" d="M17.8,23.1c0,0,0.4,0.7,0.9,1.2c0.8,0.9,2,2.6,5.4,4.5c0,0,0,0-0.3,0c-0.6,0-1.6-0.1-2.9-0.4
			c-2-0.6-2.1-0.6-2.4-1.6S17.7,23.7,17.8,23.1 M17.6,22.7C17.6,22.7,17.5,22.7,17.6,22.7c-0.1,0,0,0.2,0,0.3
			c-0.1,0.7,0.3,2.8,0.7,3.8c0.4,1.1,0.6,1.2,2.4,1.7l0.2,0.1c1.3,0.4,2.3,0.4,3,0.4c0.3,0,0.5,0,0.5,0c0.1,0,0.2-0.1,0.2-0.2
			s0.2,0,0.1-0.1c-3.3-1.9-4.9-3.8-5.7-4.7c-0.4-0.5-1.3-1.6-1.3-1.7c-0.2,0,0.2,0.5,0.1,0.5l0,0L17.6,22.7z"/>
	</g>
</g>
<path class="st3" d="M18.6,11.3c0,0-0.1-1.9,0.4-3.9c0.4-1.7,1.1-2.6,1.5-2.9C21.4,3.9,21.1,6,21.1,6S20.8,9.6,18.6,11.3z"/>
<path class="st3" d="M9.9,26.4c0.8-0.6,1.6-1.2,2.1-1.8c0.3-0.3,0.6-0.6,0.8-0.9c0.3-0.3,0.6-0.7,0.9-1.3c0.6-1.2,0.9-2.9,0.8-5.1
	c-0.1-1.8-11.7-4.1-12-3.1c-0.4,1.3-1,3.2-1.3,5.2c0,0,1.4,2.6,3.7,4.4c2.9,2.3,4.8,2.5,4.8,2.5L9.9,26.4z"/>
<path class="st4" d="M1.3,19.5c-0.1,1-0.2,2.1-0.1,3.1c0.4,4.3,1.4,5.7,1.4,5.7s0.3,1.2,2.4,0.8c1.2-0.2,3.2-1.4,5-2.7
	c0,0-2.4-0.5-4.9-2.5S1.3,19.5,1.3,19.5L1.3,19.5z"/>
</svg>
