<?xml version="1.0" encoding="utf-8"?>
<!-- Generator: $$$/GeneralStr/196=Adobe Illustrator 27.6.0, SVG Export Plug-In . SVG Version: 6.00 Build 0)  -->
<svg version="1.1" id="Livello_2_00000132086350574390161730000000293117459236829085_"
	 xmlns="http://www.w3.org/2000/svg" xmlns:xlink="http://www.w3.org/1999/xlink" x="0px" y="0px" viewBox="0 0 31.6 24.1"
	 style="enable-background:new 0 0 31.6 24.1;" xml:space="preserve">
<style type="text/css">
	.st0{fill:#525252;}
	.st1{fill:#EAE4D8;}
	.st2{fill:#DCD0C3;}
	.st3{fill:#C8B9AB;}
	.st4{fill:#010101;}
</style>
<g id="Where_is_found">
	<g>
		<path class="st0" d="M24.9,15.3c0,0-0.1,0.2,0,0.3c1,0.8,0.3,2,0.3,2l0.1,2.5c0,0-0.6,0.3-0.6,0.5s-0.1,0.4-0.2,0.5
			c-0.1,0.2-1,0.1-1.1,0.1c-0.1,0,0.1-0.1,0.1-0.1h-0.4c0,0-0.1-0.1-0.1-0.3c0-0.2,1-0.9,1.2-1.1c0.2-0.2,0-1.4-0.1-1.6
			c-0.1-0.3-1-2.7-1-2.7L24.9,15.3L24.9,15.3z"/>
		<path class="st1" d="M24.9,15.3c0,0,0.7,0,0.7-1.2s-0.6-1.5,0.2-3.2c0.3-0.5-0.1-1.5-0.1-1.5s0.4,0.2,0.7-0.2s0.8-3.6-1.5-4.5
			S20.7,4,17,3.7s-6,0.6-6.8,1.1S7.2,6.5,6.1,7.1s-1.4,3.7-1.7,3.8s-0.3,0.5-0.6,1.7s-0.5,2.1,0.8,1.9c0,0,0.4,1.6,0.9,2.2
			c0.5,0.6,0.5,1.3,0.5,1.3s0.6,0.4,1,0l0.3,0c0,0,0.3-0.1,0.3-0.4c0-0.2,0.4-2.2,0.7-2.4c0,0,0.2-0.3,0.9-0.8
			c0.5-0.4,0.5-0.8,0.8-0.8c0,0-0.1,1,0.7,1.5l0,0.3l1.2,0.8c0,0,0.6,0.2,1-0.2l1.7-0.8c0,0,1.1-0.5,1.7-2c0,0,1.7-0.1,2.3,0
			c0,0,0.4,1.1,1.5,1.5c0,0-0.1,0.8,0.2,0.9l1.6,0c0-0.1,0.4-0.4,0.4-0.4c0,0,0.6,0,0.8,0C23.2,15.4,24.9,15.3,24.9,15.3z"/>
		<path class="st0" d="M21.9,15.9c0,0.7-0.7,1.8-1,2.1c-0.3,0.4-0.2,1.1-0.2,1.4s-0.3,0.3-0.5,0.4c-0.2,0.1-0.1,0.6-0.1,0.6
			s-0.5,0.4-1,0.4c-0.5,0-0.3-0.1-0.3-0.1c-0.4,0-0.4-0.1-0.4-0.1c0.2-0.8,1.1-1.4,1.1-1.4s1-3,0.8-3.3c0,0,0,0,0,0L21.9,15.9
			L21.9,15.9z"/>
		<path class="st0" d="M14.7,15.3c-0.2,0.4-0.2,1.6-0.1,1.9c0.1,0.3,0,0.8-0.1,1.1c-0.1,0.4-0.1,1.1,0.2,1.5
			c0.3,0.4-0.2,0.4-0.3,0.4c-0.1,0-0.2,0.1-0.1,0.1c0.1,0.1,0.1,0.5,0.1,0.7c-0.1,0.2-1,0.3-1.1,0.3c-0.1,0-0.1-0.2-0.1-0.2
			s-0.6,0.3-0.5-0.1c0.1-0.4,0.5-0.8,0.8-1.1c0.2-0.4-0.1-1.4-0.1-1.4s-0.5-0.5-0.3-1.3s0-1,0-1L14.7,15.3L14.7,15.3z"/>
		<path class="st0" d="M12,16.5c0.1,0.8-0.1,1.2-0.1,1.2s-0.3,0.6,0.1,1s0.2,0.4,0.1,0.5c-0.1,0.1,0,0.3,0,0.3
			c0.2,0,0.5,0.1,0.6,0.3c0.1,0.2-0.2,1-0.3,1.1s-0.2,0-0.2,0c0,0.1-0.4,0.4-0.4,0.4c-0.4-0.5-0.5-1.9-0.6-2.3
			c-0.1-0.4-0.6-0.9-0.7-1.7c-0.1-0.5,0.2-1.2,0.3-1.6L12,16.5L12,16.5z"/>
		<path class="st0" d="M6,14.1H5.5c0,0-0.1,0.2-0.4,0.3s-0.4,0.1-0.4,0.1s0.3,1.4,0.7,2c0.4,0.5,0.6,1.1,0.7,1.3
			c0,0.1,0.1,0.3,0.1,0.3s0.3,0.2,0.5,0.1C7.1,18.1,7.1,18,7.1,18l0.4,0c0,0,0.2-0.1,0.2-0.2c0.2-0.4,0.2-2.1,0.7-2.5
			c0,0-0.4,0-0.6-0.1c-0.3,0.1-0.6,1-0.6,1s-0.2,0.1-0.4,0s0.1-0.6-0.5-0.9S6,14.1,6,14.1L6,14.1z"/>
		<path class="st2" d="M6.2,14c0.2-0.4,0.2-1.3,0.6-1.3s1,1.2,1,1.2s0.3,0.5-0.1,1.1c-0.4,0.5-0.6,1-0.6,1S7.1,16,7,16
			c-0.1,0-0.1-0.1-0.1-0.2c0-0.2,0.1-0.3-0.3-0.6c-0.1-0.1-0.3-0.2-0.4-0.3C6.1,14.8,5.9,14.5,6.2,14L6.2,14z"/>
		<path class="st3" d="M22.3,15.2c0,0-0.7-0.7-0.6-1.5c0,0,0.1-0.6-0.3-0.6c-0.7,0-1.8-0.2-2.5,0.2c-0.1,0.1,0.5,1.1,1.5,1.5
			c0,0-0.1,0.6,0.1,0.9l1.4,0c0,0,0-0.1,0.1-0.2C22,15.4,22,15.4,22.3,15.2L22.3,15.2z"/>
		<path class="st2" d="M16.5,13.1c0,0-0.4-1.5-1.1-1.8c0,0,1.4,0.4,2.4,0.3c1-0.1,1-0.8,2.1-0.5c0.1,0.9,0.6,1.2,1.6,1.8
			c0,0-1.6-0.3-2.8,0.2C18.3,13,16.5,13.1,16.5,13.1L16.5,13.1z"/>
		<path class="st3" d="M10.3,13.7c0,0,0.4,0,0.5-0.1c0.1-0.1,0.4-0.2,0.5,0.1c0.1,0.3,0.4,0.9,0.7,1.1s0.4,0.9,0.9,1.1
			c0,0-0.4,0.3-0.7,0.1C11.9,16,11,15.5,11,15.5L11,15.2C11,15.2,10.1,14.7,10.3,13.7L10.3,13.7z"/>
		<path class="st1" d="M5.8,15c0,0,0.2,0.3,0.2,0.4c0,0.1,0.1,0.3,0,0.4c-0.2,0.1-0.4,0.1-0.4,0c0-0.1-0.1-0.2,0-0.4
			C5.6,15.3,5.8,15,5.8,15z"/>
		<path class="st0" d="M5.7,15.4c0,0-0.1,0.1-0.1,0.2c0,0.1,0.1,0.1,0.1,0.1s0.1-0.2,0.1-0.2C5.8,15.5,5.7,15.4,5.7,15.4L5.7,15.4z"
			/>
		<path class="st2" d="M8.7,9.1c0.1,0,1.7,2.1,1.5,3.2c0,0,0.2-0.5-0.1-1.4C9.8,10,9.2,9.2,9,9.1C8.8,9,8.6,9,8.6,9
			C8.7,9.1,8.7,9.1,8.7,9.1L8.7,9.1z"/>
		<path class="st2" d="M25.6,9.5C25.5,9.4,24.5,7,25,6c0,0-0.3,0.4-0.3,1.4c0,1,0.5,1.9,0.6,2c0.1,0.2,0.3,0.2,0.3,0.1
			C25.7,9.6,25.6,9.5,25.6,9.5z"/>
		<path class="st4" d="M7.1,18l0-0.4l0-0.4c0,0,0,0.2,0.1,0.4C7.1,17.7,7.1,17.9,7.1,18C7.1,18,7.1,18,7.1,18L7.1,18z"/>
	</g>
</g>
</svg>
