<?xml version="1.0" encoding="UTF-8"?><svg id="Livello_2" xmlns="http://www.w3.org/2000/svg" viewBox="0 0 30.8884283246 22.5047127294"><defs><style>.cls-1{fill:#ebbba9;}.cls-2{fill:#fbd7c9;}.cls-3{fill:#d9a592;}.cls-4{fill:#404040;}</style></defs><g id="Where_is_found"><path class="cls-2" d="m30.8659657979,4.7024567227s-.0877284567-.1975599271-.1865246964-1.185196801c-.0987962397-.9877019785-.2963561668-1.119343492-.5487341722-1.0864656659-.25244311.0329429307-.2716164165.3098002679-.2716164165.3098002679-1.2243246693.4858105704-2.6109551214-.2110365805-2.6109551214-.2110365805,0,0-.4316109859-.4169624495-.6584679857-.4462595222-.2267593429-.0292645204-.6071981084-.2268244475-.797401215-.5340856358-.4536163427-.7462940993-1.7631954936-.8340225559-1.7631954936-.8340225559-.4389678064-.695024222-1.356421915-.7974988719-1.3608490282-.6657597016-.0048177408.142872058.0179688713.204428463.0019531382.3894883058-.0160808377.185092395-.0970709676.437209982-.0970709676.437209982-.7608449787-.2927103088-.9656966217-.1390308862-1.2217530373-.2121433588-.261785621-.0748051924.1999036929,1.19239086.1999036929,1.19239086-1.2243246693,1.0202217293-3.7311775256,2.5652191357-4.9264004359,2.589535706-1.1951252534.0243165704-2.4777185451.5003614499-3.6729414555.7044318376-1.1951252534.20410294-2.2153469827-.0583011747-2.2153469827-.0583011747,0,0-1.2535240851-.4663442932-2.1279766014-.5830442996-3.4770742481-.4635447951-5.4220092496,1.7782021053-5.4220092496,1.7782021053l-.4177762571.359540187s-.4341447824.2097730436-.7705373443.2291803068-.646908773-.0517527018-.646908773-.0517527018l-.5045888429-.1876035442c.3886419459.8939838981,1.5333279097.8846935601,1.5333279097.8846935601-1.4380956433,3.0121622563-.1238940653,4.0840444904.0846359879,4.8851241157.2084649486.8010796253.0109701261,1.3388436713.0109701261,1.3388436713,0,0-.4170601064,1.1632891011-.9986721047,1.6351347335-.5816771028.4719432893-.3401715667.9656966217-.3401715667.9656966217l.5047885631,2.7436383086s.1219083748.8778705081-.0109375738,1.0973706874c-.1329436056.2195001793.0109375738.340204119.0109375738.340204119,0,0-.0768559875.3621769235,0,.4719432893.1316740658.3181662098.6584679857.6254925027.6584679857.6254925027.0438479522.2304377531.340204119.5816119982.6035196982.7352588685.2634132361.1536794226,1.1084059182.1755871225,1.5803492075.1097338135.4718456324-.0658207567.1535817657-.3401715667.1535817657-.3401715667l-.6145549289-.7901420514c.25244311.0439130568-.0109701261-.3073262929-.0109701261-.3073262929,0,0-.1097338135.0548831829-.4389678064-1.5253683677-.3292339928-1.5802841029.2743508099-2.2606597885.2743508099-2.2606597885.0082357327.0658207567.9291729377-.5691119139,1.48243188-1.3270271853.5533565992-.7579478237.8267633924-1.2767338771.8267633924-1.2767338771,0,0,.4975293995.5963256392.851438038.8697649847.3538760862.2735044501.4946973491.4508819493,2.4252442326.9548241525,2.3595211328.625525055,4.4806291982.1541026025,5.3842811304-.3705754177s1.5886500448-.6413454743,1.5886500448-.6413454743c0,0,.9862371249-.2251642801,1.4672625068-.5895547602.5101271408.7141975285.7772838917,1.5369244353.7772838917,1.5369244353.4518259661,1.9239713183,1.6360787503,3.2415257834,1.6360787503,3.2415257834.1152351527,1.2456138754.6639693249,1.6680776642.6749068987,1.5528425114.0109701261-.1152026004.1536794226-.3401715667.1536794226-.3401715667,0,0-.049414396.5377640461.8559628082.9437889217.9053446519.4060248757,1.6460723073-.0987962397,1.6845165772-.2249689662s-.6364626288-.7078823817-.6364626288-.7078823817c.0109375738-.1810559095-.0275066961-.2414078793-.1756847795-.3730493927-.8339574513-.7023810425-1.152221318-1.77784403-1.185196801-2.2716950192-.0328452738-.4938509893-.0767908828-1.8326946606-.0767908828-1.8326946606,0,0-.2633806838-1.7888141561.7571991208-2.5679860814,1.0206449092-.7791719253,1.8107869606-2.3045728453,1.8107869606-2.3045728453,0,0,.899875865-.2085300532,1.3388436713-1.0085029002.4390003587-.8000379516.6584679857-.8241917604,1.5363710461-1.3180427497.8779356127-.4938509893,1.8436647867-1.5693139768,2.4582197156-2.5789236552.6145549289-1.0096422308,1.1852619056-1.6351347335,1.1852619056-1.6351347335.3181987621,0,.1974948225-.2743833622.1974948225-.2743833622Z"/><path class="cls-1" d="m25.5623478695,2.4287043679s.0944239951.4771498252.0505271257.6454211579c0,0,.2633812164-.0073161449.365807245.1243744633s-.174901589.219484347-.2081671854.2121682021-.2299619584.6144602187-.9038868394.2999619409c-.1097421735-.0512130143,0-.2048520572,0-.2048520572,0,0,.4932526146-.5267624328.5429301758-.8852535329s.1527894783-.1918201741.1527894783-.1918201741Z"/><path class="cls-3" d="m25.7858332332,3.4303303306s.1847326587-.0146322898.2304585643-.1390067531c.0091451811-.0274355434.203023021.1847326587.203023021.1847326587,0,0-.1243744633-.0438968694-.2011939847-.0420678332s-.1973288056.0872514712-.2668321821.0707901452c-.0261851369-.0065166691.0142693049-.0717952532.0345445815-.0744482176Z"/><path class="cls-1" d="m29.8554388338,2.7846805432s-.004998136-.3226898276.2430490452-.3479066087c.2288423009-.0508232883.3751651989.0936705735.4613911074.3865116495.093892989.3188800721.1658633189,1.1103037495.1658633189,1.1103037495,0,0,.077794603.6175883498.1402390428.7688741052s-.0337514341.2183313645-.0337514341.2183313645c0,0-.0812492186.055205122-.1637844782.0560240692s-.151038382-.0210437514-.1583259482-.0254162912-.1184257658.0961551875-.4099284141-.8512284197c-.1734198269-.4924273171-.2447522397-1.3154936183-.2447522397-1.3154936183Z"/><path class="cls-1" d="m21.7140556521,1.740186544s-.1063984667-.3352280456-.2040518539-.5684301643c-.0488237135-.1165939426-.0499176261-.1158529534-.0912756656-.249589468s.0081974108-.0870960909.0912756656-.0856385776.228829579-.0655880959,1.0494095341.1538676724c.2672603603.0404477334.5822742716-.0035529458.8599328127.1084847111.8307825478.3352280456.9473836072,1.3117619176.6996063561,1.9676428764s-.3935285753.7870571506-.3935285753.7870571506c0,0,.1603264566.6558809588-.2186269863.7287566209s-1.4102440869-.0311507732-1.6324148308-1.1951608583-.0076143819-1.2215777552-.1603264566-1.6469899632Z"/><path class="cls-1" d="m22.8484380661.135213137c-.0638975091,0-.0090270294.1606096149-.022404451.3415331972-.0100895529.1364566444-.0171784493.2870984288-.0555565316.3743018152,0,0,.5504513261-.1839800148,1.0674292608-.1542258891,0,0-.3302010594-.4586610105-.9894682782-.5616091233Z"/><path class="cls-4" d="m25.589054186,2.8140376307s-.1120605646.3546913896.0215702398.4721458334c.0325797078.0286358484.1423218813-.1798742812.1313476639-.2155404876s-.0939467816-.1069986192-.0949855917-.1701003689-.0246667156-.1340027614-.057932312-.0865049769Z"/><path class="cls-3" d="m27.4795207775,5.9013582706c-.027345803.0022172273,2.7663867521-1.0764553016,2.9145386864-1.0490197583,0,0,.022893491.1245027791.2743859719.1244803601,0,0-.1454083799.2048136437-.3155087488.191095872-.0534441442-.0043100116-.3182269032-.0233810143-.6563083883.0942314353-.7379538076.2567208168-2.0082552479.6222781228-2.2171075212.6392120909Z"/><path class="cls-2" d="m18.5274820846,16.6355530296c.0310288203.2120726312-.5474843468.705682574-.5766346117,1.3032630032,0,0-.2395728037,1.3202608321.1248055067,2.1656185123.1311761918.3206529132.2186269863.5684301643.1020259269.6413058264,0,0,.4955545022.5392798995.4809793698.6413058264s-1.0785597989.4664042374-1.5741143011.1603264566-.51240604-.9161770214-.51240604-.9161770214l-.1147148119.3033245654-.0946625684.2503031819s-.2713832499-.2425759293-.4462848389-1.1559508942c0,0-.0999682612-.6094691646.1623841223-1.3965263152,0,0-.0140321949-2.8720112192.2040518539-2.9441767484.9954634407-.1523056793,1.5614177242-.5166839897,1.5614177242-.5166839897,0,0,.5538550319.8599328127.6831526682,1.4640675969Z"/><path class="cls-2" d="m7.0532899013,15.7505759024s-.0561611457.6532516927-.2317486233,1.1800141255.0548710867.9218342574.0548710867.9218342574c0,0,1.0315764309,1.4705451249,1.5144419943,1.788797428s.3840976072.6035819542.3840976072.6035819542l1.1852154738.877937388s.4938397807.3072780858.0219484347.438968694-1.5144419943.1536390429-1.5144419943.1536390429c0,0-.3402007378.0877937388-.7023499104-.2963038684s-.5377366501-.5816335196-.5377366501-.5816335196c0,0,.0987679561.3511749552.0658453041.4279944766s-.4060460419.2304585644-.8450147359-.691375693-.8120920839-.9986537788-.8120920839-.9986537788c0,0-.5487108675-.6145561716-.658453041-.8669631706s-.6255303889-.6255303889-.6255303889-.6255303889c0,0-.3950718246-.4609171287-.4279944766-.7242983451,0,0,.5559568687-.2196276675,1.2281276814-.9439260126.3511749552-.3950718246,1.0608981679-1.4326497806,1.0608981679-1.4326497806,0,0,.1719865625.2477772511.3964436018.4241363533s.4434725526.3444308378.4434725526.3444308378Z"/><path class="cls-2" d="m1.3065238283,6.0887079981s-.0756139808-1.0711980609.7183328173-.8947654391.3780699039.9577770898.3780699039.9577770898c0,0-.5545025257.8499351511-1.663507577-.4887013588-.390672234-.4887013588-.4662862148-.4942803913-.6301165064-.4312687406s-.2142396122.390672234.3654675737.9955840802,1.2602330129.6553211667,1.9533611699.4410815545.6931281571-1.0838003911.6931281571-1.0838003911c0,0-.0252046603-1.1216073814-1.1846190321-.9703794199s-1.0711980609,1.0081864103-1.0711980609,1.0081864103l.4410815545.4662862148Z"/><path class="cls-1" d="m6.2228836947,14.4796765944s.6531769805-.1525332111.8954598148-.4880017509.2420635738-.4315046316.6700600377-.9980737211c0,0,1.5841569936,2.0500855212,4.0628967601,2.2364569322s4.5474624287-.1677342699,5.3861337783-1.1927770305c.668494225-1.0049003537.6895742208-1.1927770305.6895742208-1.1927770305,0,0-.2422828343,1.5282455703-.1118228466,1.8264398279.0613636317.1402597296-.3807253906.3486083101-.8862648109.5005416113-.5692448574.1710791422-1.2300312588.2879714047-1.5552006734.4872268671-1.1368656072.5963885152-3.3871823521,1.7747598599-7.5418687492.1954396666-.6916722338-.2391168005-1.6089675316-1.3744753721-1.6089675316-1.3744753721Z"/><path class="cls-1" d="m2.3864114325,21.5542810435s-.5171536167-.2905877692-.6719008297-.6064995258c-.0515824043-.1070023692-.0194493957-.382212227-.0194493957-.382212227,0,0,.5209822838.0356674564.6241470925,0,0,0,.0825318469.3770559676.2940197047.4585815822s.5950268675.2670039584,1.2965475665.3179574675l.6793602336.8849578269s.1035964127.1306278697-.3355384215.1503151814-.7402524469.0681973053-1.1588208441-.1082661112c-.2836818327-.1195968585-.5698623093-.3816435029-.7083651064-.7148341941Z"/><path class="cls-1" d="m7.8851360028,21.3343320607s.2305423457.2458253337.6210324221.2458253337.9250795453-.0905672282,1.1773739668-.1358508423.2650470287-.1601491174.1749339342-.2452559289-1.0963759837-.8460618322-1.1764765122-.8660869643-.4105152085-.0550691133-.7459361716.0350439812-.7043055.2288484194-.7043055.2288484194l.6533778607.7374760012Z"/><path class="cls-1" d="m7.0926727559,20.6065596911s.1423199301.5822178957.0646908773.5822178957-.2458253337-.0517527018-.4107870708-.3655034567-.2717016846-.3978488954-.1714308248-.3946143515.3008125794-.0873326844.5175270184.1778999126Z"/><path class="cls-1" d="m16.0362616866,19.9591370236s.1180608511-.0857154124.1374681143-.1229126669.0646908773-.095419044.1083572195-.048518158.0824808686.1956899038.2603807811.3622689129c.0307281667.0307281667.1504062897.2317837808-.0210996795.4064491495-.1035054037.0986535879-.1746653687.4366634218-.1746653687.4366634218,0,0-.3701758944-.689394124-.3104410667-1.0339506593Z"/><path class="cls-1" d="m16.6802718716,20.3405184582s-.0067461806.1761601675.018187527.3274975663c.021972038.133361277.0754964013.2800123515.0978449519.3493307374.047709522.1479803818.1854433706.4381581952.5951560711.5207615622s1.1838430545-.1390853862,1.1188798335-.2288886164c-.0859075017-.1420777913-.3667589497-.4295375086-.4031044311-.5352698184,0,0-.1276158334.104450668-.4481168975.0978423986s-.9788470548-.5312738298-.9788470548-.5312738298Z"/><path class="cls-1" d="m20.4707461809,19.8626146022s.5506413245.5056762562.5846438036.8320864092c0,0-.1649617371.1770912766-.1649617371.2498685136s-.0679254212-.0363886185-.0679254212-.0363886185c0,0-.2459264132-.4568287812-.3517566453-1.0455663043Z"/><path class="cls-1" d="m22.8772468164,20.9057549986s-.766586896.2183317109-1.4312856602-.1212953949c-.2280353425-.1115917633-.1455544739.0951884564-.1455544739.0951884564,0,0,.0873326844.4967330709.6113287905.6811020712s.574940172.1643747499.7568832644.1649617371.5239961061-.0436663422.6646987642-.1795171845c.1018881317-.0800549607.0048518158-.1601099213.0048518158-.1601099213l-.4609225007-.4803297639Z"/></g></svg>