<?xml version="1.0" encoding="utf-8"?>
<!-- Generator: Adobe Illustrator 27.9.0, SVG Export Plug-In . SVG Version: 6.00 Build 0)  -->
<svg version="1.1" id="Where_is_found" xmlns="http://www.w3.org/2000/svg" xmlns:xlink="http://www.w3.org/1999/xlink" x="0px"
	 y="0px" viewBox="0 0 32 32" style="enable-background:new 0 0 32 32;" xml:space="preserve">
<style type="text/css">
	.st0{fill:#F5FBFF;stroke:#F5FBFF;stroke-linecap:round;stroke-linejoin:round;stroke-miterlimit:10;}
	.st1{fill:#D9DDE3;}
</style>
<path class="st0" d="M0.6,11.9c0,0,1.4,0.3,2.6,0c1.2-0.3,5.9-2,9.3-2.6c2.2-0.4,4.9-0.7,6.7-0.9c0.1,0,0.3-0.2,0.4-0.2
	c0.1,0,0.1,0.1,0.2,0.1c0.4,0,0.6-0.1,0.9-0.1c0.2,0,0.5-0.3,0.5-0.3c0.1,0,0.1,0.2,0.2,0.1c1-0.2,3.6-0.8,4.9-0.8
	c0,0,0.2,0,0.4,0.1c0.7,0.3,2.2,1,2.2,1s-0.8,1.7-0.5,2.1c0.5,0.8,0.4,6.2,0.4,7.4c0,0,1.3,1.3,1.3,1.4s-0.1,0.1,0,0.2
	s0.1,0.1,0,0.2c-0.1,0.1,0.2,1,0.4,1.4c0,0,0.1-0.1,0.2,0c0,0.1,0.4,0.5,0.4,0.7c0,0.2,0.1,0.2,0,0.4c0,0-0.8,0.9-3.8,0.9
	c0,0-0.2-0.2-0.3-0.4c-0.2-0.1-0.6-0.2-1.3-0.2c-1.8,0.1-2.6,0.8-3.2,0.6c-0.6-0.2-0.2-0.4-0.6-0.2c-0.5,0.2-0.6,0.7-2.4,1
	c-1.7,0.3-7,0.4-10.2,1.7c-1.4,0.6-1.1,0.9-1.9,1.3c-0.8,0.4-1.7,0.9-2.4,1.4c0,0,0-1.2-0.2-2.2c-0.2-0.7-1.5-5.4-2.7-9.7
	C1.8,14.7,0.9,13.4,0.6,11.9L0.6,11.9z"/>
<path class="st1" d="M1.2,12.6c0,0,1.2,0.1,1.9,0c0.6-0.1,1.2-0.3,1.2-0.3s-0.8,0.6-1.2,0.6c-0.3,0-0.9,0.1-1.4,0
	C1.5,12.8,1.3,12.7,1.2,12.6L1.2,12.6z"/>
<path class="st1" d="M1.5,13.1c0,0,1.1,0.2,2.1,0c0,0-0.2,0.2-0.9,0.3s-1,0.1-1,0C1.6,13.3,1.5,13.1,1.5,13.1L1.5,13.1z"/>
<path class="st1" d="M1.9,13.9c0,0,1.6,2.6,1.9,4.6s1.7,6.1,1.7,6.1s0.3,1.5,0.2,1.8s1.5-4.4,0.1-7.5S4.3,15.5,1.9,13.9L1.9,13.9z"
	/>
<path class="st1" d="M30,19.4c0,0-0.7-0.5-1.1-0.8c-0.3-0.3-0.7-0.4-0.7-0.4s0.5,0.3,0.6,0.5c0.2,0.2,0.9,0.8,1.2,1l0.1-0.1
	C30.1,19.6,30,19.5,30,19.4L30,19.4L30,19.4z"/>
<path class="st1" d="M30.1,19.7c0,0,0.1,0.9,0.5,1.4c0,0-0.1-0.1-0.2-0.2c0-0.1-0.5-0.6-0.5-0.8c0-0.3-0.7-1.1-0.7-1.1L30.1,19.7
	L30.1,19.7z"/>
<path class="st1" d="M22.4,22.5c0,0,0.5,0.4,1.4,0.1s2.3-0.8,3.4-0.2c0,0-0.1-1.3-1.5-1.7c-1.1-0.3-3.1-1.5-3.7-1.9
	c-0.1-0.1-0.2,0-0.2,0s0.8,1.1,0.9,2C22.7,21.5,22.4,22.5,22.4,22.5L22.4,22.5z"/>
<path class="st1" d="M21.4,8.3c0,0,0.7,1.7,0.3,3.7c-0.5,2-0.8,3.2-0.8,4c0,0-0.2-2.8,0.1-4.4c0.3-1.4,0-3.1,0.1-3.2
	c0.1-0.1,0.2-0.2,0.2-0.2S21.3,8.3,21.4,8.3L21.4,8.3z"/>
<path class="st1" d="M19.4,8.7l0.2-0.1c0,0,0,0.1,0.2,0.1s0.8-0.1,0.8-0.1L21,8.4l0.3,2l-0.4,1.4c0,0,0.2,0.3-0.2-0.9
	S19.4,8.7,19.4,8.7L19.4,8.7z"/>
<path class="st1" d="M28.8,17.9c-0.1,0-0.1,0-0.2,0C28.6,17.8,28.7,17.9,28.8,17.9z"/>
<path class="st1" d="M28.8,17.9c0,0-0.9-0.3-1.7-0.4l-4.7-1.1c0,0,2.1,1.1,3.1,1.2c0.5,0,2.2,0.3,2.2,0.3s0.9,0.2,1.2,0.4
	c0.3,0.2,1.1,0.8,1.1,0.8L28.8,17.9L28.8,17.9z"/>
<path class="st1" d="M21.2,16c0,0,0.2-0.5,0.4-1.6c0.1-1.2,0.6-2.2,0.6-2.2s-0.5,1.9-0.4,2.4C21.8,15,21.2,16,21.2,16L21.2,16z"/>
<path class="st1" d="M21.5,16c0,0,0.2-0.2,0.5-1s0.8-1.3,0.8-1.3s-0.7,1.1-0.7,1.5C22.1,15.5,21.5,16,21.5,16L21.5,16z"/>
<path class="st1" d="M22,16.1c0.1-0.2,0.8-0.9,1.4-2.7c0.7-2,1.9-3.7,1.9-3.7S24.6,11,24,12.4c-0.2,0.5-0.4,1.1-0.5,1.5
	c-0.1,0.3-0.3,0.9-0.5,1.3c-0.3,0.5-0.6,0.9-0.6,0.9L22,16.1C22,16.2,22,16.2,22,16.1L22,16.1z"/>
</svg>
