<?xml version="1.0" encoding="UTF-8"?><svg id="Livello_2" xmlns="http://www.w3.org/2000/svg" viewBox="0 0 288.15 280.94"><defs><style>.cls-1{fill:#4da290;fill-rule:evenodd;}</style></defs><g id="Salmonella"><g id="Livello_16"><path class="cls-1" d="M0,101.32c14.02-11.09,25.25-20.13,32.57-26.06,25.52-20.67,39.34-32.42,61.3-47.09,4.78-3.19,9.24-5.95,14.42-9.1,6.22-3.77,24.6-12.98,50.49-17.1,8.87-1.41,21.14-2.59,35.83-1.63,8.41,1.9,16.83,3.8,25.24,5.7,6.7,2.63,16.16,7.09,26.06,14.66,6.62,5.06,29.4,25.49,39.09,58.63,7.98,27.31-1.19,50.25-5.7,63.51-5.73,16.86-13.67,29.44-19.54,37.46-4.44,6.06-11.36,16-21.8,26.62-9.31,9.47-18.43,16.76-26.24,22.24-8.69,6.51-17.37,13.03-26.06,19.54-11.73,8.8-14.9,11.21-26.06,19.54-7.27,5.43-13.21,9.85-17.03,12.69-7.51-5.91-19.78-16.11-33.39-30.3-30.11-31.39-40.37-54.8-76-105-7.21-10.16-18.49-25.68-33.17-44.32Z"/></g></g></svg>