<?xml version="1.0" encoding="UTF-8"?><svg id="Livello_2" xmlns="http://www.w3.org/2000/svg" viewBox="0 0 272.7 262.46"><defs><style>.cls-1{fill:#4da290;fill-rule:evenodd;}</style></defs><g id="Salmonella"><g id="Livello_12"><path class="cls-1" d="M272.7,185.75c-5.03,3.57-12.77,8.93-22.46,15.09-22.34,14.19-77.84,44.9-101.51,53.57-9.03,3.31-18.96,4.25-28.5,6.51-13.65,3.24-34.09,.81-44.79-2.44-7.66-2.33-13.77-2.44-20.36-5.7-21.46-10.64-34.3-26.59-38.09-32C-6.19,187.72-2.83,141.76,10.29,110.28c12.17-29.2,33.09-47.99,40.71-53.74,6.09-4.59,12.03-9.18,19.79-14.72,2.79-1.99,49.84-28.07,63.63-36.86,3.25-2.07,5.98-3.77,7.92-4.97,23.18,53.98,57.84,112.88,110.56,166.62,6.56,6.69,13.17,13.06,19.79,19.13Z"/></g></g></svg>