<?xml version="1.0" encoding="UTF-8"?><svg id="Livello_2" xmlns="http://www.w3.org/2000/svg" viewBox="0 0 235.17 434.82"><defs><style>.cls-1{fill:#4da290;fill-rule:evenodd;}</style></defs><g id="Salmonella"><g id="Livello_19"><path class="cls-1" d="M224.34,0c1.7,4.09,3.86,9.92,5.7,17.1,1.12,4.37,14.62,52.66-7.33,83.06-11.99,16.61-32.07,25.48-52.11,34.2-54.93,23.89-129.77,32.38-152.27,88.76-8.24,20.65-2.66,51.08,3.26,69.21,11.74,35.98,26.38,66.06,44.79,95.27,6.8,10.8,13.99,21.78,21.17,32.57,3.15,4.73,8,8.63,9.77,14.66h-1.63v-.81c-11.18-10.95-18.58-26.09-27.69-39.09-25.53-36.43-49.26-75.26-63.51-122.96-12.87-43.06,3.63-81.89,28.5-100.16,62.19-45.66,132.78-29.23,165.3-81.43,15.44-24.78,11.67-55.45,5.7-78.17,6.79-4.07,13.57-8.14,20.36-12.21Z"/></g></g></svg>