<?xml version="1.0" encoding="UTF-8"?><svg id="Livello_2" xmlns="http://www.w3.org/2000/svg" viewBox="0 0 261.45 400.62"><defs><style>.cls-1{fill:#4da290;fill-rule:evenodd;}</style></defs><g id="Salmonella"><g id="Livello_8"><path class="cls-1" d="M0,394.92c4.26-5.05,10.33-12.54,17.1-21.99,2.21-3.08,15.4-22.1,27.69-45.6,23.03-44.03,33.16-101.15,61.89-139.24,9.63-12.77,25.76-19.23,39.9-27.69,20.72-12.39,43.04-23.31,61.89-37.46,19.13-14.37,31.08-40.57,39.9-65.14,3.86-10.75,4.92-22.78,8.14-33.39,2.44-8.06,1.88-18.58,3.26-24.43h.81V12.21c2.87,4.57-2.22,15.24-1.63,21.17,2,20.07-14.51,60.23-23.61,73.28-22.85,32.8-59.89,50.55-92.01,74.1-15.28,11.2-28.97,27.63-39.09,43.97-7.26,11.73-12.9,26.64-17.1,40.71-4.38,14.65-3.37,29.9-8.14,43.97-8.1,23.88-18.8,41.77-38.27,70.03-6.29,9.13-11.78,16.41-15.47,21.17-8.41-1.9-16.83-3.8-25.24-5.7Z"/></g></g></svg>