<?xml version="1.0" encoding="UTF-8"?><svg id="Livello_2" xmlns="http://www.w3.org/2000/svg" viewBox="0 0 512.18 296.27"><defs><style>.cls-1{fill:#4da290;fill-rule:evenodd;}</style></defs><g id="Salmonella"><g id="Livello_21"><path class="cls-1" d="M36.64,0c7.31,.88,18.14,2.81,30.42,7.58,12.6,4.89,31.06,14.45,55.9,41.28,9.52,10.28,19.31,21.39,39.9,54.56,34.98,56.34,50.44,88.23,78.98,116.44,18.46,18.25,35.2,29.22,45.9,35.46,7.38,4.31,18.66,10.33,33.09,15.84,36.65,13.99,68.99,15.29,100.16,16.29,12.98,.41,23.54,.21,30.13,0,20.36-1.9,40.71-3.8,61.07-5.7v1.63h-.81c-17.36,4.45-42.24,9.55-72.47,11.4-37.68,2.3-93.42,5.71-151.46-21.99-51.14-24.4-88.59-68.45-110.74-100.16-13.26-18.98-24.58-38.57-37.46-57.81-8.13-12.16-19.04-22.74-27.69-34.2-5.2-6.89-11.89-15.2-18.73-20.36-13.55-10.23-24.75-16.94-32.85-20.73C47.65,33.77,27.3,26.08,0,23.61,12.21,15.74,24.43,7.87,36.64,0Z"/></g></g></svg>