<?xml version="1.0" encoding="UTF-8"?><svg id="Livello_2" xmlns="http://www.w3.org/2000/svg" viewBox="0 0 261.63 410.4"><defs><style>.cls-1{fill:#4da290;fill-rule:evenodd;}</style></defs><g id="Salmonella"><g id="Livello_20"><path class="cls-1" d="M25.49,0c-1.42,8.72-2.88,21.38-2.44,36.64,.6,21.17,1.53,53.42,22.8,81.43,5.92,7.8,17.15,20.17,36.64,30.13,0,0,17.4,11.32,46.41,37.46,19.22,17.32,34.44,38.35,47.23,56.19,33.37,46.55,51.99,87.85,63.87,114.56,9.94,22.34,17.06,41.21,21.63,54h-1.63c-1.18-2.71-2.9-6.61-4.98-11.3,0,0-12.24-27.48-22.7-48.96-28.73-58.97-60.26-99.34-60.26-99.34-22.76-31.65-51.88-60.62-83.87-83.06-32.76-22.98-52.26-25.61-68.4-52.11C5.78,92.61,1.91,66.18,1.01,58.4-1,41.14,.34,26.56,2.01,16.4,9.83,10.93,17.66,5.47,25.49,0Z"/></g></g></svg>