<?xml version="1.0" encoding="UTF-8"?><svg id="Livello_2" xmlns="http://www.w3.org/2000/svg" viewBox="0 0 137.66 280.93"><defs><style>.cls-1{fill:#4da290;fill-rule:evenodd;}</style></defs><g id="Salmonella"><g id="Livello_17"><path class="cls-1" d="M118.12,280.93c.36-10.27-.46-27.04-8.14-45.6-13-31.4-37.19-47.45-46.41-52.93-5.81-2.63-50.06-23.56-61.07-70.84C-7.94,66.78,17.34,30.52,24.47,20.36,30.95,11.13,37.58,4.4,42.39,0V1.63c-5.25,7.01-12.71,18-19.54,32.57-8.36,17.84-17.32,36.94-14.22,58.83,2.41,16.99,11.12,28.24,19.1,38.88,24.28,32.33,66.73,47.72,90.38,80.61,12.23,17,16.1,32.34,17.1,36.64,1.92,8.3,2.38,15.41,2.44,20.36-6.51,3.8-13.03,7.6-19.54,11.4Z"/></g></g></svg>