<?xml version="1.0" encoding="UTF-8"?><svg id="Livello_2" xmlns="http://www.w3.org/2000/svg" viewBox="0 0 188.1 588"><defs><style>.cls-1{fill:#4da290;fill-rule:evenodd;}</style></defs><g id="Salmonella"><g id="Livello_10"><path class="cls-1" d="M159.08,588c-14.99-3.98-26.88-9.01-35.31-13.12-16.01-7.81-27.79-13.74-36.55-26.84-5.06-7.56-7.14-14.58-8.14-18.04-3.25-11.29-3.42-22.69-1.3-34.7,4.88-27.65,18.56-36.96,42.73-86.54,6.12-12.56,15.32-31.94,22.73-58.89,1.86-6.76,3.18-12.46,4.14-16.84,7.69-35.1,7.26-65,5.7-84.68-2.31-9.66-2.72-20.41-5.7-30.13-7.07-23.05-14.08-39.9-19.24-50.33C104.28,119.67,57.53,62.01,52.11,55.37c-10.29-12-21.4-24.26-33.39-36.64C12.45,12.24,6.2,6,0,0H1.63C6.27,3.45,12.78,8.42,20.36,14.66c0,0,35.41,29.13,62.7,61.89,25.38,30.46,61.43,73.71,74.1,137.61,2.35,11.88,15.77,79.54-11.4,143.31-11.92,27.99-20.53,52.38-38.27,100.97-4.42,12.11-5.63,18.59-5.7,22.8-.69,41.9,57.39,74.02,86.31,87.94-9.67,6.27-19.34,12.55-29.01,18.82Z"/></g></g></svg>