<?xml version="1.0" encoding="UTF-8"?><svg id="Livello_2" xmlns="http://www.w3.org/2000/svg" viewBox="0 0 296.53 303.16"><defs><style>.cls-1{fill:#4da290;fill-rule:evenodd;}</style></defs><g id="Salmonella"><g id="Livello_13"><path class="cls-1" d="M296.53,192.09c-15.14,10.18-27.47,18.53-36.13,24.42-10.43,7.09-16.31,11.12-29.59,20.13-6.9,4.68-13.23,8.97-22.16,15.01-8.91,6.03-64.92,40.82-80.85,51.5-28.39-25.98-62.79-63.34-92.79-114.13C19.9,163.47,8.57,139.02,0,117.03c43.67-27.34,75.02-46.9,96.22-60.11,6.91-4.3,20.02-12.44,37.46-23.61,13.43-8.6,30.81-19.84,51.21-33.31,3.6,9.44,9.48,24.57,17.12,43.03,35.02,84.57,52.46,106.94,62,118,8.62,10,19.29,20.64,32.53,31.06Z"/></g></g></svg>