<?xml version="1.0" encoding="UTF-8"?><svg id="Livello_2" xmlns="http://www.w3.org/2000/svg" viewBox="0 0 271.55 152.61"><defs><style>.cls-1{fill:#4da290;fill-rule:evenodd;}</style></defs><g id="Salmonella"><g id="Livello_23"><path class="cls-1" d="M11.42,119.58c8.09,3,20.52,7.25,36,11,80.52,19.52,199.19,15.25,213.15-33.68,4.36-15.28,.67-50.41-17.91-78.17-4.06-6.07-11.36-11.39-13.84-18.73,3.44,2.95,8.1,7.28,13.03,13.03,8.64,10.08,37.66,43.94,27.63,79.09-6.24,21.85-24.32,35.32-32.52,39.8-13.59,7.43-24.67,12.1-33.39,14.66-3.7,1.08-16.24,4.59-33.39,5.7-10.13,.65-17.73,.2-21.17,0-52.27-3.02-61.9-.22-100.16-4.89-12.08-1.47-28.85-3.92-48.86-8.14,3.81-6.55,7.61-13.11,11.42-19.66Z"/></g></g></svg>