<?xml version="1.0" encoding="UTF-8"?><svg id="Livello_2" xmlns="http://www.w3.org/2000/svg" viewBox="0 0 517.88 316.82"><defs><style>.cls-1{fill:#4da290;fill-rule:evenodd;}</style></defs><g id="Salmonella"><g id="Livello_18"><path class="cls-1" d="M517.33,290.23c-3.32,1.73-9.04,4.6-16.32,7.67-15.72,6.63-76.77,32.38-136.01,9.85-14.19-5.4-23.52-11.76-34-19-50.27-34.74-64.05-69.34-107.89-127.52-11.81-15.67-56.49-75.92-113.18-115.63C75.98,21.82,51.36,13.19,35.83,8.96,21.39,5.02,8.92,3.28,0,2.44V0C5.01,.21,10.32,.61,15.9,1.27c9.08,1.07,17.38,2.64,24.81,4.43,35.43,11.06,61.96,24.99,79.8,35.83,52.75,32.06,87.39,72.31,135.17,127.84,14.64,17.02,26.31,31.51,34.2,41.53,9.89,15.29,31.64,44,70.03,62.7,15.35,7.48,49.05,23.9,87.94,15.47,18.68-4.05,34.27-12.9,39.9-16.29,13.69-8.25,23.58-17.42,30.13-24.43-1.25,4.27-2.38,9.45-2.88,15.4-.92,10.94,.66,20.12,2.33,26.48Z"/></g></g></svg>