<?xml version="1.0" encoding="UTF-8"?><svg id="Livello_2" xmlns="http://www.w3.org/2000/svg" viewBox="0 0 361.65 438.08"><defs><style>.cls-1{fill:#4da290;fill-rule:evenodd;}</style></defs><g id="Salmonella"><g id="Livello_22"><path class="cls-1" d="M26.06,0c9.35,34,19.6,61.77,27.9,82.08,29.48,72.2,66.88,163.82,146.36,210.24,33.47,19.55,60.64,31.76,60.64,31.76,43.26,19.43,63.66,22.03,83,45,6.33,7.52,19.01,23.04,17.59,43.76-.79,11.41-5.56,20.17-8.96,25.24h-1.63v-.81c1.12-2.84,2.61-7.35,3.16-13.01,2.29-23.68-14.17-42.2-19.4-48.07-16.45-18.49-35.73-24.45-56.76-32.1,0,0-19.69-7.16-90.67-39.54C93.75,261.87,48.14,149.9,22.95,88.08,11.35,59.59,4.19,35.35,0,19.54,8.69,13.03,17.37,6.51,26.06,0Z"/></g></g></svg>