<?xml version="1.0" encoding="UTF-8"?><svg id="Livello_2" xmlns="http://www.w3.org/2000/svg" viewBox="0 0 347.6 567.61"><defs><style>.cls-1{fill:#4da290;fill-rule:evenodd;}</style></defs><g id="Salmonella"><g id="Livello_9"><path class="cls-1" d="M313.4,567.61c-1.09-17.91-2.17-35.83-3.26-53.74-1.78-24.51-4.89-59.03-10.59-100.16-5.26-37.99-11.71-84.48-23.61-129.47-20.06-75.8-41.94-158.43-111.34-212.76C141.06,53.05,93.83,25.88,38.17,10.64,21.97,6.2-.22,1.37,0,.26,.26-1.03,30.67,2.47,58.53,9.83c51.32,13.56,86.45,38.29,100.16,48.04,64.16,45.66,95.23,107.1,114.09,144.37,37.1,73.36,49.8,143.29,53.66,195.18,5.72,31.15,10.92,63.47,15.47,96.9,2.1,15.4,3.99,30.61,5.7,45.6-11.4,9.23-22.8,18.46-34.2,27.69Z"/></g></g></svg>